%TF.GenerationSoftware,KiCad,Pcbnew,10.0.4*%
%TF.CreationDate,2026-07-12T06:04:19+02:00*%
%TF.ProjectId,led-controller-simple,6c65642d-636f-46e7-9472-6f6c6c65722d,rev?*%
%TF.SameCoordinates,Original*%
%TF.FileFunction,Legend,Top*%
%TF.FilePolarity,Positive*%
%FSLAX46Y46*%
G04 Gerber Fmt 4.6, Leading zero omitted, Abs format (unit mm)*
G04 Created by KiCad (PCBNEW 10.0.4) date 2026-07-12 06:04:19*
%MOMM*%
%LPD*%
G01*
G04 APERTURE LIST*
G04 Aperture macros list*
%AMRoundRect*
0 Rectangle with rounded corners*
0 $1 Rounding radius*
0 $2 $3 $4 $5 $6 $7 $8 $9 X,Y pos of 4 corners*
0 Add a 4 corners polygon primitive as box body*
4,1,4,$2,$3,$4,$5,$6,$7,$8,$9,$2,$3,0*
0 Add four circle primitives for the rounded corners*
1,1,$1+$1,$2,$3*
1,1,$1+$1,$4,$5*
1,1,$1+$1,$6,$7*
1,1,$1+$1,$8,$9*
0 Add four rect primitives between the rounded corners*
20,1,$1+$1,$2,$3,$4,$5,0*
20,1,$1+$1,$4,$5,$6,$7,0*
20,1,$1+$1,$6,$7,$8,$9,0*
20,1,$1+$1,$8,$9,$2,$3,0*%
G04 Aperture macros list end*
%ADD10C,0.150000*%
%ADD11C,0.224999*%
%ADD12C,0.300000*%
%ADD13C,0.120000*%
%ADD14C,2.700000*%
%ADD15RoundRect,0.250000X-0.725000X0.600000X-0.725000X-0.600000X0.725000X-0.600000X0.725000X0.600000X0*%
%ADD16O,1.950000X1.700000*%
%ADD17C,3.200000*%
%ADD18RoundRect,0.250000X-1.050000X-1.050000X1.050000X-1.050000X1.050000X1.050000X-1.050000X1.050000X0*%
%ADD19C,2.600000*%
%ADD20R,1.700000X1.700000*%
%ADD21C,1.700000*%
G04 APERTURE END LIST*
D10*
X14166666Y-17254819D02*
X13690476Y-17254819D01*
X13690476Y-17254819D02*
X13642857Y-17731009D01*
X13642857Y-17731009D02*
X13690476Y-17683390D01*
X13690476Y-17683390D02*
X13785714Y-17635771D01*
X13785714Y-17635771D02*
X14023809Y-17635771D01*
X14023809Y-17635771D02*
X14119047Y-17683390D01*
X14119047Y-17683390D02*
X14166666Y-17731009D01*
X14166666Y-17731009D02*
X14214285Y-17826247D01*
X14214285Y-17826247D02*
X14214285Y-18064342D01*
X14214285Y-18064342D02*
X14166666Y-18159580D01*
X14166666Y-18159580D02*
X14119047Y-18207200D01*
X14119047Y-18207200D02*
X14023809Y-18254819D01*
X14023809Y-18254819D02*
X13785714Y-18254819D01*
X13785714Y-18254819D02*
X13690476Y-18207200D01*
X13690476Y-18207200D02*
X13642857Y-18159580D01*
X14500000Y-17254819D02*
X14833333Y-18254819D01*
X14833333Y-18254819D02*
X15166666Y-17254819D01*
X16261905Y-18254819D02*
X16261905Y-17254819D01*
X16738095Y-18254819D02*
X16738095Y-17254819D01*
X16738095Y-17254819D02*
X17309523Y-18254819D01*
X17309523Y-18254819D02*
X17309523Y-17254819D01*
X25142856Y-17954819D02*
X25142856Y-16954819D01*
X25142856Y-16954819D02*
X25714284Y-17954819D01*
X25714284Y-17954819D02*
X25714284Y-16954819D01*
X26380951Y-16954819D02*
X26571427Y-16954819D01*
X26571427Y-16954819D02*
X26666665Y-17002438D01*
X26666665Y-17002438D02*
X26761903Y-17097676D01*
X26761903Y-17097676D02*
X26809522Y-17288152D01*
X26809522Y-17288152D02*
X26809522Y-17621485D01*
X26809522Y-17621485D02*
X26761903Y-17811961D01*
X26761903Y-17811961D02*
X26666665Y-17907200D01*
X26666665Y-17907200D02*
X26571427Y-17954819D01*
X26571427Y-17954819D02*
X26380951Y-17954819D01*
X26380951Y-17954819D02*
X26285713Y-17907200D01*
X26285713Y-17907200D02*
X26190475Y-17811961D01*
X26190475Y-17811961D02*
X26142856Y-17621485D01*
X26142856Y-17621485D02*
X26142856Y-17288152D01*
X26142856Y-17288152D02*
X26190475Y-17097676D01*
X26190475Y-17097676D02*
X26285713Y-17002438D01*
X26285713Y-17002438D02*
X26380951Y-16954819D01*
X28333332Y-17431009D02*
X27999999Y-17431009D01*
X27999999Y-17954819D02*
X27999999Y-16954819D01*
X27999999Y-16954819D02*
X28476189Y-16954819D01*
X28857142Y-16954819D02*
X28857142Y-17764342D01*
X28857142Y-17764342D02*
X28904761Y-17859580D01*
X28904761Y-17859580D02*
X28952380Y-17907200D01*
X28952380Y-17907200D02*
X29047618Y-17954819D01*
X29047618Y-17954819D02*
X29238094Y-17954819D01*
X29238094Y-17954819D02*
X29333332Y-17907200D01*
X29333332Y-17907200D02*
X29380951Y-17859580D01*
X29380951Y-17859580D02*
X29428570Y-17764342D01*
X29428570Y-17764342D02*
X29428570Y-16954819D01*
X29857142Y-17907200D02*
X29999999Y-17954819D01*
X29999999Y-17954819D02*
X30238094Y-17954819D01*
X30238094Y-17954819D02*
X30333332Y-17907200D01*
X30333332Y-17907200D02*
X30380951Y-17859580D01*
X30380951Y-17859580D02*
X30428570Y-17764342D01*
X30428570Y-17764342D02*
X30428570Y-17669104D01*
X30428570Y-17669104D02*
X30380951Y-17573866D01*
X30380951Y-17573866D02*
X30333332Y-17526247D01*
X30333332Y-17526247D02*
X30238094Y-17478628D01*
X30238094Y-17478628D02*
X30047618Y-17431009D01*
X30047618Y-17431009D02*
X29952380Y-17383390D01*
X29952380Y-17383390D02*
X29904761Y-17335771D01*
X29904761Y-17335771D02*
X29857142Y-17240533D01*
X29857142Y-17240533D02*
X29857142Y-17145295D01*
X29857142Y-17145295D02*
X29904761Y-17050057D01*
X29904761Y-17050057D02*
X29952380Y-17002438D01*
X29952380Y-17002438D02*
X30047618Y-16954819D01*
X30047618Y-16954819D02*
X30285713Y-16954819D01*
X30285713Y-16954819D02*
X30428570Y-17002438D01*
X30857142Y-17431009D02*
X31190475Y-17431009D01*
X31333332Y-17954819D02*
X30857142Y-17954819D01*
X30857142Y-17954819D02*
X30857142Y-16954819D01*
X30857142Y-16954819D02*
X31333332Y-16954819D01*
X31714285Y-17907200D02*
X31857142Y-17954819D01*
X31857142Y-17954819D02*
X32095237Y-17954819D01*
X32095237Y-17954819D02*
X32190475Y-17907200D01*
X32190475Y-17907200D02*
X32238094Y-17859580D01*
X32238094Y-17859580D02*
X32285713Y-17764342D01*
X32285713Y-17764342D02*
X32285713Y-17669104D01*
X32285713Y-17669104D02*
X32238094Y-17573866D01*
X32238094Y-17573866D02*
X32190475Y-17526247D01*
X32190475Y-17526247D02*
X32095237Y-17478628D01*
X32095237Y-17478628D02*
X31904761Y-17431009D01*
X31904761Y-17431009D02*
X31809523Y-17383390D01*
X31809523Y-17383390D02*
X31761904Y-17335771D01*
X31761904Y-17335771D02*
X31714285Y-17240533D01*
X31714285Y-17240533D02*
X31714285Y-17145295D01*
X31714285Y-17145295D02*
X31761904Y-17050057D01*
X31761904Y-17050057D02*
X31809523Y-17002438D01*
X31809523Y-17002438D02*
X31904761Y-16954819D01*
X31904761Y-16954819D02*
X32142856Y-16954819D01*
X32142856Y-16954819D02*
X32285713Y-17002438D01*
X33476190Y-17573866D02*
X34238095Y-17573866D01*
X35809523Y-17431009D02*
X35476190Y-17431009D01*
X35476190Y-17954819D02*
X35476190Y-16954819D01*
X35476190Y-16954819D02*
X35952380Y-16954819D01*
X36333333Y-16954819D02*
X36333333Y-17764342D01*
X36333333Y-17764342D02*
X36380952Y-17859580D01*
X36380952Y-17859580D02*
X36428571Y-17907200D01*
X36428571Y-17907200D02*
X36523809Y-17954819D01*
X36523809Y-17954819D02*
X36714285Y-17954819D01*
X36714285Y-17954819D02*
X36809523Y-17907200D01*
X36809523Y-17907200D02*
X36857142Y-17859580D01*
X36857142Y-17859580D02*
X36904761Y-17764342D01*
X36904761Y-17764342D02*
X36904761Y-16954819D01*
X37333333Y-17907200D02*
X37476190Y-17954819D01*
X37476190Y-17954819D02*
X37714285Y-17954819D01*
X37714285Y-17954819D02*
X37809523Y-17907200D01*
X37809523Y-17907200D02*
X37857142Y-17859580D01*
X37857142Y-17859580D02*
X37904761Y-17764342D01*
X37904761Y-17764342D02*
X37904761Y-17669104D01*
X37904761Y-17669104D02*
X37857142Y-17573866D01*
X37857142Y-17573866D02*
X37809523Y-17526247D01*
X37809523Y-17526247D02*
X37714285Y-17478628D01*
X37714285Y-17478628D02*
X37523809Y-17431009D01*
X37523809Y-17431009D02*
X37428571Y-17383390D01*
X37428571Y-17383390D02*
X37380952Y-17335771D01*
X37380952Y-17335771D02*
X37333333Y-17240533D01*
X37333333Y-17240533D02*
X37333333Y-17145295D01*
X37333333Y-17145295D02*
X37380952Y-17050057D01*
X37380952Y-17050057D02*
X37428571Y-17002438D01*
X37428571Y-17002438D02*
X37523809Y-16954819D01*
X37523809Y-16954819D02*
X37761904Y-16954819D01*
X37761904Y-16954819D02*
X37904761Y-17002438D01*
X38333333Y-17431009D02*
X38666666Y-17431009D01*
X38809523Y-17954819D02*
X38333333Y-17954819D01*
X38333333Y-17954819D02*
X38333333Y-16954819D01*
X38333333Y-16954819D02*
X38809523Y-16954819D01*
X39952381Y-17907200D02*
X40095238Y-17954819D01*
X40095238Y-17954819D02*
X40333333Y-17954819D01*
X40333333Y-17954819D02*
X40428571Y-17907200D01*
X40428571Y-17907200D02*
X40476190Y-17859580D01*
X40476190Y-17859580D02*
X40523809Y-17764342D01*
X40523809Y-17764342D02*
X40523809Y-17669104D01*
X40523809Y-17669104D02*
X40476190Y-17573866D01*
X40476190Y-17573866D02*
X40428571Y-17526247D01*
X40428571Y-17526247D02*
X40333333Y-17478628D01*
X40333333Y-17478628D02*
X40142857Y-17431009D01*
X40142857Y-17431009D02*
X40047619Y-17383390D01*
X40047619Y-17383390D02*
X40000000Y-17335771D01*
X40000000Y-17335771D02*
X39952381Y-17240533D01*
X39952381Y-17240533D02*
X39952381Y-17145295D01*
X39952381Y-17145295D02*
X40000000Y-17050057D01*
X40000000Y-17050057D02*
X40047619Y-17002438D01*
X40047619Y-17002438D02*
X40142857Y-16954819D01*
X40142857Y-16954819D02*
X40380952Y-16954819D01*
X40380952Y-16954819D02*
X40523809Y-17002438D01*
X40952381Y-16954819D02*
X40952381Y-17764342D01*
X40952381Y-17764342D02*
X41000000Y-17859580D01*
X41000000Y-17859580D02*
X41047619Y-17907200D01*
X41047619Y-17907200D02*
X41142857Y-17954819D01*
X41142857Y-17954819D02*
X41333333Y-17954819D01*
X41333333Y-17954819D02*
X41428571Y-17907200D01*
X41428571Y-17907200D02*
X41476190Y-17859580D01*
X41476190Y-17859580D02*
X41523809Y-17764342D01*
X41523809Y-17764342D02*
X41523809Y-16954819D01*
X42000000Y-17954819D02*
X42000000Y-16954819D01*
X42000000Y-16954819D02*
X42380952Y-16954819D01*
X42380952Y-16954819D02*
X42476190Y-17002438D01*
X42476190Y-17002438D02*
X42523809Y-17050057D01*
X42523809Y-17050057D02*
X42571428Y-17145295D01*
X42571428Y-17145295D02*
X42571428Y-17288152D01*
X42571428Y-17288152D02*
X42523809Y-17383390D01*
X42523809Y-17383390D02*
X42476190Y-17431009D01*
X42476190Y-17431009D02*
X42380952Y-17478628D01*
X42380952Y-17478628D02*
X42000000Y-17478628D01*
X43000000Y-17954819D02*
X43000000Y-16954819D01*
X43000000Y-16954819D02*
X43380952Y-16954819D01*
X43380952Y-16954819D02*
X43476190Y-17002438D01*
X43476190Y-17002438D02*
X43523809Y-17050057D01*
X43523809Y-17050057D02*
X43571428Y-17145295D01*
X43571428Y-17145295D02*
X43571428Y-17288152D01*
X43571428Y-17288152D02*
X43523809Y-17383390D01*
X43523809Y-17383390D02*
X43476190Y-17431009D01*
X43476190Y-17431009D02*
X43380952Y-17478628D01*
X43380952Y-17478628D02*
X43000000Y-17478628D01*
X44476190Y-17954819D02*
X44000000Y-17954819D01*
X44000000Y-17954819D02*
X44000000Y-16954819D01*
X45000000Y-17478628D02*
X45000000Y-17954819D01*
X44666667Y-16954819D02*
X45000000Y-17478628D01*
X45000000Y-17478628D02*
X45333333Y-16954819D01*
X46428572Y-17431009D02*
X46761905Y-17431009D01*
X46904762Y-17954819D02*
X46428572Y-17954819D01*
X46428572Y-17954819D02*
X46428572Y-16954819D01*
X46428572Y-16954819D02*
X46904762Y-16954819D01*
X47238096Y-16954819D02*
X47904762Y-17954819D01*
X47904762Y-16954819D02*
X47238096Y-17954819D01*
X48142858Y-16954819D02*
X48714286Y-16954819D01*
X48428572Y-17954819D02*
X48428572Y-16954819D01*
X49047620Y-17431009D02*
X49380953Y-17431009D01*
X49523810Y-17954819D02*
X49047620Y-17954819D01*
X49047620Y-17954819D02*
X49047620Y-16954819D01*
X49047620Y-16954819D02*
X49523810Y-16954819D01*
X50523810Y-17954819D02*
X50190477Y-17478628D01*
X49952382Y-17954819D02*
X49952382Y-16954819D01*
X49952382Y-16954819D02*
X50333334Y-16954819D01*
X50333334Y-16954819D02*
X50428572Y-17002438D01*
X50428572Y-17002438D02*
X50476191Y-17050057D01*
X50476191Y-17050057D02*
X50523810Y-17145295D01*
X50523810Y-17145295D02*
X50523810Y-17288152D01*
X50523810Y-17288152D02*
X50476191Y-17383390D01*
X50476191Y-17383390D02*
X50428572Y-17431009D01*
X50428572Y-17431009D02*
X50333334Y-17478628D01*
X50333334Y-17478628D02*
X49952382Y-17478628D01*
X50952382Y-17954819D02*
X50952382Y-16954819D01*
X50952382Y-16954819D02*
X51523810Y-17954819D01*
X51523810Y-17954819D02*
X51523810Y-16954819D01*
X51952382Y-17669104D02*
X52428572Y-17669104D01*
X51857144Y-17954819D02*
X52190477Y-16954819D01*
X52190477Y-16954819D02*
X52523810Y-17954819D01*
X53333334Y-17954819D02*
X52857144Y-17954819D01*
X52857144Y-17954819D02*
X52857144Y-16954819D01*
X54142858Y-17954819D02*
X53666668Y-17954819D01*
X53666668Y-17954819D02*
X53666668Y-16954819D01*
X54666668Y-17478628D02*
X54666668Y-17954819D01*
X54333335Y-16954819D02*
X54666668Y-17478628D01*
X54666668Y-17478628D02*
X55000001Y-16954819D01*
X25452380Y-19954819D02*
X26071427Y-19954819D01*
X26071427Y-19954819D02*
X25738094Y-20335771D01*
X25738094Y-20335771D02*
X25880951Y-20335771D01*
X25880951Y-20335771D02*
X25976189Y-20383390D01*
X25976189Y-20383390D02*
X26023808Y-20431009D01*
X26023808Y-20431009D02*
X26071427Y-20526247D01*
X26071427Y-20526247D02*
X26071427Y-20764342D01*
X26071427Y-20764342D02*
X26023808Y-20859580D01*
X26023808Y-20859580D02*
X25976189Y-20907200D01*
X25976189Y-20907200D02*
X25880951Y-20954819D01*
X25880951Y-20954819D02*
X25595237Y-20954819D01*
X25595237Y-20954819D02*
X25499999Y-20907200D01*
X25499999Y-20907200D02*
X25452380Y-20859580D01*
X26357142Y-19954819D02*
X26690475Y-20954819D01*
X26690475Y-20954819D02*
X27023808Y-19954819D01*
X27261904Y-19954819D02*
X27880951Y-19954819D01*
X27880951Y-19954819D02*
X27547618Y-20335771D01*
X27547618Y-20335771D02*
X27690475Y-20335771D01*
X27690475Y-20335771D02*
X27785713Y-20383390D01*
X27785713Y-20383390D02*
X27833332Y-20431009D01*
X27833332Y-20431009D02*
X27880951Y-20526247D01*
X27880951Y-20526247D02*
X27880951Y-20764342D01*
X27880951Y-20764342D02*
X27833332Y-20859580D01*
X27833332Y-20859580D02*
X27785713Y-20907200D01*
X27785713Y-20907200D02*
X27690475Y-20954819D01*
X27690475Y-20954819D02*
X27404761Y-20954819D01*
X27404761Y-20954819D02*
X27309523Y-20907200D01*
X27309523Y-20907200D02*
X27261904Y-20859580D01*
X29071428Y-20954819D02*
X29071428Y-19954819D01*
X29071428Y-19954819D02*
X29309523Y-19954819D01*
X29309523Y-19954819D02*
X29452380Y-20002438D01*
X29452380Y-20002438D02*
X29547618Y-20097676D01*
X29547618Y-20097676D02*
X29595237Y-20192914D01*
X29595237Y-20192914D02*
X29642856Y-20383390D01*
X29642856Y-20383390D02*
X29642856Y-20526247D01*
X29642856Y-20526247D02*
X29595237Y-20716723D01*
X29595237Y-20716723D02*
X29547618Y-20811961D01*
X29547618Y-20811961D02*
X29452380Y-20907200D01*
X29452380Y-20907200D02*
X29309523Y-20954819D01*
X29309523Y-20954819D02*
X29071428Y-20954819D01*
X30023809Y-20669104D02*
X30499999Y-20669104D01*
X29928571Y-20954819D02*
X30261904Y-19954819D01*
X30261904Y-19954819D02*
X30595237Y-20954819D01*
X30785714Y-19954819D02*
X31357142Y-19954819D01*
X31071428Y-20954819D02*
X31071428Y-19954819D01*
X31642857Y-20669104D02*
X32119047Y-20669104D01*
X31547619Y-20954819D02*
X31880952Y-19954819D01*
X31880952Y-19954819D02*
X32214285Y-20954819D01*
X33309524Y-20573866D02*
X34071429Y-20573866D01*
X35309524Y-20954819D02*
X35309524Y-19954819D01*
X35880952Y-20954819D02*
X35452381Y-20383390D01*
X35880952Y-19954819D02*
X35309524Y-20526247D01*
X36309524Y-20431009D02*
X36642857Y-20431009D01*
X36785714Y-20954819D02*
X36309524Y-20954819D01*
X36309524Y-20954819D02*
X36309524Y-19954819D01*
X36309524Y-19954819D02*
X36785714Y-19954819D01*
X37214286Y-20431009D02*
X37547619Y-20431009D01*
X37690476Y-20954819D02*
X37214286Y-20954819D01*
X37214286Y-20954819D02*
X37214286Y-19954819D01*
X37214286Y-19954819D02*
X37690476Y-19954819D01*
X38119048Y-20954819D02*
X38119048Y-19954819D01*
X38119048Y-19954819D02*
X38500000Y-19954819D01*
X38500000Y-19954819D02*
X38595238Y-20002438D01*
X38595238Y-20002438D02*
X38642857Y-20050057D01*
X38642857Y-20050057D02*
X38690476Y-20145295D01*
X38690476Y-20145295D02*
X38690476Y-20288152D01*
X38690476Y-20288152D02*
X38642857Y-20383390D01*
X38642857Y-20383390D02*
X38595238Y-20431009D01*
X38595238Y-20431009D02*
X38500000Y-20478628D01*
X38500000Y-20478628D02*
X38119048Y-20478628D01*
X39833334Y-20907200D02*
X39976191Y-20954819D01*
X39976191Y-20954819D02*
X40214286Y-20954819D01*
X40214286Y-20954819D02*
X40309524Y-20907200D01*
X40309524Y-20907200D02*
X40357143Y-20859580D01*
X40357143Y-20859580D02*
X40404762Y-20764342D01*
X40404762Y-20764342D02*
X40404762Y-20669104D01*
X40404762Y-20669104D02*
X40357143Y-20573866D01*
X40357143Y-20573866D02*
X40309524Y-20526247D01*
X40309524Y-20526247D02*
X40214286Y-20478628D01*
X40214286Y-20478628D02*
X40023810Y-20431009D01*
X40023810Y-20431009D02*
X39928572Y-20383390D01*
X39928572Y-20383390D02*
X39880953Y-20335771D01*
X39880953Y-20335771D02*
X39833334Y-20240533D01*
X39833334Y-20240533D02*
X39833334Y-20145295D01*
X39833334Y-20145295D02*
X39880953Y-20050057D01*
X39880953Y-20050057D02*
X39928572Y-20002438D01*
X39928572Y-20002438D02*
X40023810Y-19954819D01*
X40023810Y-19954819D02*
X40261905Y-19954819D01*
X40261905Y-19954819D02*
X40404762Y-20002438D01*
X40690477Y-19954819D02*
X41261905Y-19954819D01*
X40976191Y-20954819D02*
X40976191Y-19954819D01*
X42166667Y-20954819D02*
X41833334Y-20478628D01*
X41595239Y-20954819D02*
X41595239Y-19954819D01*
X41595239Y-19954819D02*
X41976191Y-19954819D01*
X41976191Y-19954819D02*
X42071429Y-20002438D01*
X42071429Y-20002438D02*
X42119048Y-20050057D01*
X42119048Y-20050057D02*
X42166667Y-20145295D01*
X42166667Y-20145295D02*
X42166667Y-20288152D01*
X42166667Y-20288152D02*
X42119048Y-20383390D01*
X42119048Y-20383390D02*
X42071429Y-20431009D01*
X42071429Y-20431009D02*
X41976191Y-20478628D01*
X41976191Y-20478628D02*
X41595239Y-20478628D01*
X42595239Y-20954819D02*
X42595239Y-19954819D01*
X43071429Y-20954819D02*
X43071429Y-19954819D01*
X43071429Y-19954819D02*
X43452381Y-19954819D01*
X43452381Y-19954819D02*
X43547619Y-20002438D01*
X43547619Y-20002438D02*
X43595238Y-20050057D01*
X43595238Y-20050057D02*
X43642857Y-20145295D01*
X43642857Y-20145295D02*
X43642857Y-20288152D01*
X43642857Y-20288152D02*
X43595238Y-20383390D01*
X43595238Y-20383390D02*
X43547619Y-20431009D01*
X43547619Y-20431009D02*
X43452381Y-20478628D01*
X43452381Y-20478628D02*
X43071429Y-20478628D01*
X45309524Y-20954819D02*
X44833334Y-20954819D01*
X44833334Y-20954819D02*
X44833334Y-19954819D01*
X45642858Y-20431009D02*
X45976191Y-20431009D01*
X46119048Y-20954819D02*
X45642858Y-20954819D01*
X45642858Y-20954819D02*
X45642858Y-19954819D01*
X45642858Y-19954819D02*
X46119048Y-19954819D01*
X46500001Y-20669104D02*
X46976191Y-20669104D01*
X46404763Y-20954819D02*
X46738096Y-19954819D01*
X46738096Y-19954819D02*
X47071429Y-20954819D01*
X47404763Y-20954819D02*
X47404763Y-19954819D01*
X47404763Y-19954819D02*
X47642858Y-19954819D01*
X47642858Y-19954819D02*
X47785715Y-20002438D01*
X47785715Y-20002438D02*
X47880953Y-20097676D01*
X47880953Y-20097676D02*
X47928572Y-20192914D01*
X47928572Y-20192914D02*
X47976191Y-20383390D01*
X47976191Y-20383390D02*
X47976191Y-20526247D01*
X47976191Y-20526247D02*
X47928572Y-20716723D01*
X47928572Y-20716723D02*
X47880953Y-20811961D01*
X47880953Y-20811961D02*
X47785715Y-20907200D01*
X47785715Y-20907200D02*
X47642858Y-20954819D01*
X47642858Y-20954819D02*
X47404763Y-20954819D01*
X48357144Y-20907200D02*
X48500001Y-20954819D01*
X48500001Y-20954819D02*
X48738096Y-20954819D01*
X48738096Y-20954819D02*
X48833334Y-20907200D01*
X48833334Y-20907200D02*
X48880953Y-20859580D01*
X48880953Y-20859580D02*
X48928572Y-20764342D01*
X48928572Y-20764342D02*
X48928572Y-20669104D01*
X48928572Y-20669104D02*
X48880953Y-20573866D01*
X48880953Y-20573866D02*
X48833334Y-20526247D01*
X48833334Y-20526247D02*
X48738096Y-20478628D01*
X48738096Y-20478628D02*
X48547620Y-20431009D01*
X48547620Y-20431009D02*
X48452382Y-20383390D01*
X48452382Y-20383390D02*
X48404763Y-20335771D01*
X48404763Y-20335771D02*
X48357144Y-20240533D01*
X48357144Y-20240533D02*
X48357144Y-20145295D01*
X48357144Y-20145295D02*
X48404763Y-20050057D01*
X48404763Y-20050057D02*
X48452382Y-20002438D01*
X48452382Y-20002438D02*
X48547620Y-19954819D01*
X48547620Y-19954819D02*
X48785715Y-19954819D01*
X48785715Y-19954819D02*
X48928572Y-20002438D01*
X50071430Y-20907200D02*
X50214287Y-20954819D01*
X50214287Y-20954819D02*
X50452382Y-20954819D01*
X50452382Y-20954819D02*
X50547620Y-20907200D01*
X50547620Y-20907200D02*
X50595239Y-20859580D01*
X50595239Y-20859580D02*
X50642858Y-20764342D01*
X50642858Y-20764342D02*
X50642858Y-20669104D01*
X50642858Y-20669104D02*
X50595239Y-20573866D01*
X50595239Y-20573866D02*
X50547620Y-20526247D01*
X50547620Y-20526247D02*
X50452382Y-20478628D01*
X50452382Y-20478628D02*
X50261906Y-20431009D01*
X50261906Y-20431009D02*
X50166668Y-20383390D01*
X50166668Y-20383390D02*
X50119049Y-20335771D01*
X50119049Y-20335771D02*
X50071430Y-20240533D01*
X50071430Y-20240533D02*
X50071430Y-20145295D01*
X50071430Y-20145295D02*
X50119049Y-20050057D01*
X50119049Y-20050057D02*
X50166668Y-20002438D01*
X50166668Y-20002438D02*
X50261906Y-19954819D01*
X50261906Y-19954819D02*
X50500001Y-19954819D01*
X50500001Y-19954819D02*
X50642858Y-20002438D01*
X51071430Y-20954819D02*
X51071430Y-19954819D01*
X51071430Y-20431009D02*
X51642858Y-20431009D01*
X51642858Y-20954819D02*
X51642858Y-19954819D01*
X52309525Y-19954819D02*
X52500001Y-19954819D01*
X52500001Y-19954819D02*
X52595239Y-20002438D01*
X52595239Y-20002438D02*
X52690477Y-20097676D01*
X52690477Y-20097676D02*
X52738096Y-20288152D01*
X52738096Y-20288152D02*
X52738096Y-20621485D01*
X52738096Y-20621485D02*
X52690477Y-20811961D01*
X52690477Y-20811961D02*
X52595239Y-20907200D01*
X52595239Y-20907200D02*
X52500001Y-20954819D01*
X52500001Y-20954819D02*
X52309525Y-20954819D01*
X52309525Y-20954819D02*
X52214287Y-20907200D01*
X52214287Y-20907200D02*
X52119049Y-20811961D01*
X52119049Y-20811961D02*
X52071430Y-20621485D01*
X52071430Y-20621485D02*
X52071430Y-20288152D01*
X52071430Y-20288152D02*
X52119049Y-20097676D01*
X52119049Y-20097676D02*
X52214287Y-20002438D01*
X52214287Y-20002438D02*
X52309525Y-19954819D01*
X53738096Y-20954819D02*
X53404763Y-20478628D01*
X53166668Y-20954819D02*
X53166668Y-19954819D01*
X53166668Y-19954819D02*
X53547620Y-19954819D01*
X53547620Y-19954819D02*
X53642858Y-20002438D01*
X53642858Y-20002438D02*
X53690477Y-20050057D01*
X53690477Y-20050057D02*
X53738096Y-20145295D01*
X53738096Y-20145295D02*
X53738096Y-20288152D01*
X53738096Y-20288152D02*
X53690477Y-20383390D01*
X53690477Y-20383390D02*
X53642858Y-20431009D01*
X53642858Y-20431009D02*
X53547620Y-20478628D01*
X53547620Y-20478628D02*
X53166668Y-20478628D01*
X54023811Y-19954819D02*
X54595239Y-19954819D01*
X54309525Y-20954819D02*
X54309525Y-19954819D01*
X28333332Y-23002438D02*
X28238094Y-22954819D01*
X28238094Y-22954819D02*
X28095237Y-22954819D01*
X28095237Y-22954819D02*
X27952380Y-23002438D01*
X27952380Y-23002438D02*
X27857142Y-23097676D01*
X27857142Y-23097676D02*
X27809523Y-23192914D01*
X27809523Y-23192914D02*
X27761904Y-23383390D01*
X27761904Y-23383390D02*
X27761904Y-23526247D01*
X27761904Y-23526247D02*
X27809523Y-23716723D01*
X27809523Y-23716723D02*
X27857142Y-23811961D01*
X27857142Y-23811961D02*
X27952380Y-23907200D01*
X27952380Y-23907200D02*
X28095237Y-23954819D01*
X28095237Y-23954819D02*
X28190475Y-23954819D01*
X28190475Y-23954819D02*
X28333332Y-23907200D01*
X28333332Y-23907200D02*
X28380951Y-23859580D01*
X28380951Y-23859580D02*
X28380951Y-23526247D01*
X28380951Y-23526247D02*
X28190475Y-23526247D01*
X28809523Y-23954819D02*
X28809523Y-22954819D01*
X28809523Y-22954819D02*
X29380951Y-23954819D01*
X29380951Y-23954819D02*
X29380951Y-22954819D01*
X29857142Y-23954819D02*
X29857142Y-22954819D01*
X29857142Y-22954819D02*
X30095237Y-22954819D01*
X30095237Y-22954819D02*
X30238094Y-23002438D01*
X30238094Y-23002438D02*
X30333332Y-23097676D01*
X30333332Y-23097676D02*
X30380951Y-23192914D01*
X30380951Y-23192914D02*
X30428570Y-23383390D01*
X30428570Y-23383390D02*
X30428570Y-23526247D01*
X30428570Y-23526247D02*
X30380951Y-23716723D01*
X30380951Y-23716723D02*
X30333332Y-23811961D01*
X30333332Y-23811961D02*
X30238094Y-23907200D01*
X30238094Y-23907200D02*
X30095237Y-23954819D01*
X30095237Y-23954819D02*
X29857142Y-23954819D01*
X31619047Y-23431009D02*
X32380952Y-23431009D01*
X32380952Y-23716723D02*
X31619047Y-23716723D01*
X33571428Y-23907200D02*
X33714285Y-23954819D01*
X33714285Y-23954819D02*
X33952380Y-23954819D01*
X33952380Y-23954819D02*
X34047618Y-23907200D01*
X34047618Y-23907200D02*
X34095237Y-23859580D01*
X34095237Y-23859580D02*
X34142856Y-23764342D01*
X34142856Y-23764342D02*
X34142856Y-23669104D01*
X34142856Y-23669104D02*
X34095237Y-23573866D01*
X34095237Y-23573866D02*
X34047618Y-23526247D01*
X34047618Y-23526247D02*
X33952380Y-23478628D01*
X33952380Y-23478628D02*
X33761904Y-23431009D01*
X33761904Y-23431009D02*
X33666666Y-23383390D01*
X33666666Y-23383390D02*
X33619047Y-23335771D01*
X33619047Y-23335771D02*
X33571428Y-23240533D01*
X33571428Y-23240533D02*
X33571428Y-23145295D01*
X33571428Y-23145295D02*
X33619047Y-23050057D01*
X33619047Y-23050057D02*
X33666666Y-23002438D01*
X33666666Y-23002438D02*
X33761904Y-22954819D01*
X33761904Y-22954819D02*
X33999999Y-22954819D01*
X33999999Y-22954819D02*
X34142856Y-23002438D01*
X34761904Y-22954819D02*
X34952380Y-22954819D01*
X34952380Y-22954819D02*
X35047618Y-23002438D01*
X35047618Y-23002438D02*
X35142856Y-23097676D01*
X35142856Y-23097676D02*
X35190475Y-23288152D01*
X35190475Y-23288152D02*
X35190475Y-23621485D01*
X35190475Y-23621485D02*
X35142856Y-23811961D01*
X35142856Y-23811961D02*
X35047618Y-23907200D01*
X35047618Y-23907200D02*
X34952380Y-23954819D01*
X34952380Y-23954819D02*
X34761904Y-23954819D01*
X34761904Y-23954819D02*
X34666666Y-23907200D01*
X34666666Y-23907200D02*
X34571428Y-23811961D01*
X34571428Y-23811961D02*
X34523809Y-23621485D01*
X34523809Y-23621485D02*
X34523809Y-23288152D01*
X34523809Y-23288152D02*
X34571428Y-23097676D01*
X34571428Y-23097676D02*
X34666666Y-23002438D01*
X34666666Y-23002438D02*
X34761904Y-22954819D01*
X36095237Y-23954819D02*
X35619047Y-23954819D01*
X35619047Y-23954819D02*
X35619047Y-22954819D01*
X36428571Y-23954819D02*
X36428571Y-22954819D01*
X36904761Y-23954819D02*
X36904761Y-22954819D01*
X36904761Y-22954819D02*
X37142856Y-22954819D01*
X37142856Y-22954819D02*
X37285713Y-23002438D01*
X37285713Y-23002438D02*
X37380951Y-23097676D01*
X37380951Y-23097676D02*
X37428570Y-23192914D01*
X37428570Y-23192914D02*
X37476189Y-23383390D01*
X37476189Y-23383390D02*
X37476189Y-23526247D01*
X37476189Y-23526247D02*
X37428570Y-23716723D01*
X37428570Y-23716723D02*
X37380951Y-23811961D01*
X37380951Y-23811961D02*
X37285713Y-23907200D01*
X37285713Y-23907200D02*
X37142856Y-23954819D01*
X37142856Y-23954819D02*
X36904761Y-23954819D01*
X38666666Y-23954819D02*
X38666666Y-22954819D01*
X38666666Y-22954819D02*
X39047618Y-22954819D01*
X39047618Y-22954819D02*
X39142856Y-23002438D01*
X39142856Y-23002438D02*
X39190475Y-23050057D01*
X39190475Y-23050057D02*
X39238094Y-23145295D01*
X39238094Y-23145295D02*
X39238094Y-23288152D01*
X39238094Y-23288152D02*
X39190475Y-23383390D01*
X39190475Y-23383390D02*
X39142856Y-23431009D01*
X39142856Y-23431009D02*
X39047618Y-23478628D01*
X39047618Y-23478628D02*
X38666666Y-23478628D01*
X40142856Y-23954819D02*
X39666666Y-23954819D01*
X39666666Y-23954819D02*
X39666666Y-22954819D01*
X40428571Y-23669104D02*
X40904761Y-23669104D01*
X40333333Y-23954819D02*
X40666666Y-22954819D01*
X40666666Y-22954819D02*
X40999999Y-23954819D01*
X41333333Y-23954819D02*
X41333333Y-22954819D01*
X41333333Y-22954819D02*
X41904761Y-23954819D01*
X41904761Y-23954819D02*
X41904761Y-22954819D01*
X42380952Y-23431009D02*
X42714285Y-23431009D01*
X42857142Y-23954819D02*
X42380952Y-23954819D01*
X42380952Y-23954819D02*
X42380952Y-22954819D01*
X42380952Y-22954819D02*
X42857142Y-22954819D01*
X44238095Y-22954819D02*
X44428571Y-22954819D01*
X44428571Y-22954819D02*
X44523809Y-23002438D01*
X44523809Y-23002438D02*
X44619047Y-23097676D01*
X44619047Y-23097676D02*
X44666666Y-23288152D01*
X44666666Y-23288152D02*
X44666666Y-23621485D01*
X44666666Y-23621485D02*
X44619047Y-23811961D01*
X44619047Y-23811961D02*
X44523809Y-23907200D01*
X44523809Y-23907200D02*
X44428571Y-23954819D01*
X44428571Y-23954819D02*
X44238095Y-23954819D01*
X44238095Y-23954819D02*
X44142857Y-23907200D01*
X44142857Y-23907200D02*
X44047619Y-23811961D01*
X44047619Y-23811961D02*
X44000000Y-23621485D01*
X44000000Y-23621485D02*
X44000000Y-23288152D01*
X44000000Y-23288152D02*
X44047619Y-23097676D01*
X44047619Y-23097676D02*
X44142857Y-23002438D01*
X44142857Y-23002438D02*
X44238095Y-22954819D01*
X45095238Y-23954819D02*
X45095238Y-22954819D01*
X45095238Y-22954819D02*
X45666666Y-23954819D01*
X45666666Y-23954819D02*
X45666666Y-22954819D01*
X47238095Y-23431009D02*
X47380952Y-23478628D01*
X47380952Y-23478628D02*
X47428571Y-23526247D01*
X47428571Y-23526247D02*
X47476190Y-23621485D01*
X47476190Y-23621485D02*
X47476190Y-23764342D01*
X47476190Y-23764342D02*
X47428571Y-23859580D01*
X47428571Y-23859580D02*
X47380952Y-23907200D01*
X47380952Y-23907200D02*
X47285714Y-23954819D01*
X47285714Y-23954819D02*
X46904762Y-23954819D01*
X46904762Y-23954819D02*
X46904762Y-22954819D01*
X46904762Y-22954819D02*
X47238095Y-22954819D01*
X47238095Y-22954819D02*
X47333333Y-23002438D01*
X47333333Y-23002438D02*
X47380952Y-23050057D01*
X47380952Y-23050057D02*
X47428571Y-23145295D01*
X47428571Y-23145295D02*
X47428571Y-23240533D01*
X47428571Y-23240533D02*
X47380952Y-23335771D01*
X47380952Y-23335771D02*
X47333333Y-23383390D01*
X47333333Y-23383390D02*
X47238095Y-23431009D01*
X47238095Y-23431009D02*
X46904762Y-23431009D01*
X48095238Y-22954819D02*
X48285714Y-22954819D01*
X48285714Y-22954819D02*
X48380952Y-23002438D01*
X48380952Y-23002438D02*
X48476190Y-23097676D01*
X48476190Y-23097676D02*
X48523809Y-23288152D01*
X48523809Y-23288152D02*
X48523809Y-23621485D01*
X48523809Y-23621485D02*
X48476190Y-23811961D01*
X48476190Y-23811961D02*
X48380952Y-23907200D01*
X48380952Y-23907200D02*
X48285714Y-23954819D01*
X48285714Y-23954819D02*
X48095238Y-23954819D01*
X48095238Y-23954819D02*
X48000000Y-23907200D01*
X48000000Y-23907200D02*
X47904762Y-23811961D01*
X47904762Y-23811961D02*
X47857143Y-23621485D01*
X47857143Y-23621485D02*
X47857143Y-23288152D01*
X47857143Y-23288152D02*
X47904762Y-23097676D01*
X47904762Y-23097676D02*
X48000000Y-23002438D01*
X48000000Y-23002438D02*
X48095238Y-22954819D01*
X48809524Y-22954819D02*
X49380952Y-22954819D01*
X49095238Y-23954819D02*
X49095238Y-22954819D01*
X49571429Y-22954819D02*
X50142857Y-22954819D01*
X49857143Y-23954819D02*
X49857143Y-22954819D01*
X50666667Y-22954819D02*
X50857143Y-22954819D01*
X50857143Y-22954819D02*
X50952381Y-23002438D01*
X50952381Y-23002438D02*
X51047619Y-23097676D01*
X51047619Y-23097676D02*
X51095238Y-23288152D01*
X51095238Y-23288152D02*
X51095238Y-23621485D01*
X51095238Y-23621485D02*
X51047619Y-23811961D01*
X51047619Y-23811961D02*
X50952381Y-23907200D01*
X50952381Y-23907200D02*
X50857143Y-23954819D01*
X50857143Y-23954819D02*
X50666667Y-23954819D01*
X50666667Y-23954819D02*
X50571429Y-23907200D01*
X50571429Y-23907200D02*
X50476191Y-23811961D01*
X50476191Y-23811961D02*
X50428572Y-23621485D01*
X50428572Y-23621485D02*
X50428572Y-23288152D01*
X50428572Y-23288152D02*
X50476191Y-23097676D01*
X50476191Y-23097676D02*
X50571429Y-23002438D01*
X50571429Y-23002438D02*
X50666667Y-22954819D01*
X51523810Y-23954819D02*
X51523810Y-22954819D01*
X51523810Y-22954819D02*
X51857143Y-23669104D01*
X51857143Y-23669104D02*
X52190476Y-22954819D01*
X52190476Y-22954819D02*
X52190476Y-23954819D01*
X58642857Y-19207200D02*
X58785714Y-19254819D01*
X58785714Y-19254819D02*
X59023809Y-19254819D01*
X59023809Y-19254819D02*
X59119047Y-19207200D01*
X59119047Y-19207200D02*
X59166666Y-19159580D01*
X59166666Y-19159580D02*
X59214285Y-19064342D01*
X59214285Y-19064342D02*
X59214285Y-18969104D01*
X59214285Y-18969104D02*
X59166666Y-18873866D01*
X59166666Y-18873866D02*
X59119047Y-18826247D01*
X59119047Y-18826247D02*
X59023809Y-18778628D01*
X59023809Y-18778628D02*
X58833333Y-18731009D01*
X58833333Y-18731009D02*
X58738095Y-18683390D01*
X58738095Y-18683390D02*
X58690476Y-18635771D01*
X58690476Y-18635771D02*
X58642857Y-18540533D01*
X58642857Y-18540533D02*
X58642857Y-18445295D01*
X58642857Y-18445295D02*
X58690476Y-18350057D01*
X58690476Y-18350057D02*
X58738095Y-18302438D01*
X58738095Y-18302438D02*
X58833333Y-18254819D01*
X58833333Y-18254819D02*
X59071428Y-18254819D01*
X59071428Y-18254819D02*
X59214285Y-18302438D01*
X60166666Y-19254819D02*
X59595238Y-19254819D01*
X59880952Y-19254819D02*
X59880952Y-18254819D01*
X59880952Y-18254819D02*
X59785714Y-18397676D01*
X59785714Y-18397676D02*
X59690476Y-18492914D01*
X59690476Y-18492914D02*
X59595238Y-18540533D01*
X61880952Y-18302438D02*
X61785714Y-18254819D01*
X61785714Y-18254819D02*
X61642857Y-18254819D01*
X61642857Y-18254819D02*
X61500000Y-18302438D01*
X61500000Y-18302438D02*
X61404762Y-18397676D01*
X61404762Y-18397676D02*
X61357143Y-18492914D01*
X61357143Y-18492914D02*
X61309524Y-18683390D01*
X61309524Y-18683390D02*
X61309524Y-18826247D01*
X61309524Y-18826247D02*
X61357143Y-19016723D01*
X61357143Y-19016723D02*
X61404762Y-19111961D01*
X61404762Y-19111961D02*
X61500000Y-19207200D01*
X61500000Y-19207200D02*
X61642857Y-19254819D01*
X61642857Y-19254819D02*
X61738095Y-19254819D01*
X61738095Y-19254819D02*
X61880952Y-19207200D01*
X61880952Y-19207200D02*
X61928571Y-19159580D01*
X61928571Y-19159580D02*
X61928571Y-18826247D01*
X61928571Y-18826247D02*
X61738095Y-18826247D01*
X62357143Y-19254819D02*
X62357143Y-18254819D01*
X62357143Y-18254819D02*
X62738095Y-18254819D01*
X62738095Y-18254819D02*
X62833333Y-18302438D01*
X62833333Y-18302438D02*
X62880952Y-18350057D01*
X62880952Y-18350057D02*
X62928571Y-18445295D01*
X62928571Y-18445295D02*
X62928571Y-18588152D01*
X62928571Y-18588152D02*
X62880952Y-18683390D01*
X62880952Y-18683390D02*
X62833333Y-18731009D01*
X62833333Y-18731009D02*
X62738095Y-18778628D01*
X62738095Y-18778628D02*
X62357143Y-18778628D01*
X63357143Y-19254819D02*
X63357143Y-18254819D01*
X64023809Y-18254819D02*
X64214285Y-18254819D01*
X64214285Y-18254819D02*
X64309523Y-18302438D01*
X64309523Y-18302438D02*
X64404761Y-18397676D01*
X64404761Y-18397676D02*
X64452380Y-18588152D01*
X64452380Y-18588152D02*
X64452380Y-18921485D01*
X64452380Y-18921485D02*
X64404761Y-19111961D01*
X64404761Y-19111961D02*
X64309523Y-19207200D01*
X64309523Y-19207200D02*
X64214285Y-19254819D01*
X64214285Y-19254819D02*
X64023809Y-19254819D01*
X64023809Y-19254819D02*
X63928571Y-19207200D01*
X63928571Y-19207200D02*
X63833333Y-19111961D01*
X63833333Y-19111961D02*
X63785714Y-18921485D01*
X63785714Y-18921485D02*
X63785714Y-18588152D01*
X63785714Y-18588152D02*
X63833333Y-18397676D01*
X63833333Y-18397676D02*
X63928571Y-18302438D01*
X63928571Y-18302438D02*
X64023809Y-18254819D01*
X65404761Y-19254819D02*
X64833333Y-19254819D01*
X65119047Y-19254819D02*
X65119047Y-18254819D01*
X65119047Y-18254819D02*
X65023809Y-18397676D01*
X65023809Y-18397676D02*
X64928571Y-18492914D01*
X64928571Y-18492914D02*
X64833333Y-18540533D01*
X65976190Y-18683390D02*
X65880952Y-18635771D01*
X65880952Y-18635771D02*
X65833333Y-18588152D01*
X65833333Y-18588152D02*
X65785714Y-18492914D01*
X65785714Y-18492914D02*
X65785714Y-18445295D01*
X65785714Y-18445295D02*
X65833333Y-18350057D01*
X65833333Y-18350057D02*
X65880952Y-18302438D01*
X65880952Y-18302438D02*
X65976190Y-18254819D01*
X65976190Y-18254819D02*
X66166666Y-18254819D01*
X66166666Y-18254819D02*
X66261904Y-18302438D01*
X66261904Y-18302438D02*
X66309523Y-18350057D01*
X66309523Y-18350057D02*
X66357142Y-18445295D01*
X66357142Y-18445295D02*
X66357142Y-18492914D01*
X66357142Y-18492914D02*
X66309523Y-18588152D01*
X66309523Y-18588152D02*
X66261904Y-18635771D01*
X66261904Y-18635771D02*
X66166666Y-18683390D01*
X66166666Y-18683390D02*
X65976190Y-18683390D01*
X65976190Y-18683390D02*
X65880952Y-18731009D01*
X65880952Y-18731009D02*
X65833333Y-18778628D01*
X65833333Y-18778628D02*
X65785714Y-18873866D01*
X65785714Y-18873866D02*
X65785714Y-19064342D01*
X65785714Y-19064342D02*
X65833333Y-19159580D01*
X65833333Y-19159580D02*
X65880952Y-19207200D01*
X65880952Y-19207200D02*
X65976190Y-19254819D01*
X65976190Y-19254819D02*
X66166666Y-19254819D01*
X66166666Y-19254819D02*
X66261904Y-19207200D01*
X66261904Y-19207200D02*
X66309523Y-19159580D01*
X66309523Y-19159580D02*
X66357142Y-19064342D01*
X66357142Y-19064342D02*
X66357142Y-18873866D01*
X66357142Y-18873866D02*
X66309523Y-18778628D01*
X66309523Y-18778628D02*
X66261904Y-18731009D01*
X66261904Y-18731009D02*
X66166666Y-18683390D01*
X58642857Y-33207199D02*
X58785714Y-33254818D01*
X58785714Y-33254818D02*
X59023809Y-33254818D01*
X59023809Y-33254818D02*
X59119047Y-33207199D01*
X59119047Y-33207199D02*
X59166666Y-33159579D01*
X59166666Y-33159579D02*
X59214285Y-33064341D01*
X59214285Y-33064341D02*
X59214285Y-32969103D01*
X59214285Y-32969103D02*
X59166666Y-32873865D01*
X59166666Y-32873865D02*
X59119047Y-32826246D01*
X59119047Y-32826246D02*
X59023809Y-32778627D01*
X59023809Y-32778627D02*
X58833333Y-32731008D01*
X58833333Y-32731008D02*
X58738095Y-32683389D01*
X58738095Y-32683389D02*
X58690476Y-32635770D01*
X58690476Y-32635770D02*
X58642857Y-32540532D01*
X58642857Y-32540532D02*
X58642857Y-32445294D01*
X58642857Y-32445294D02*
X58690476Y-32350056D01*
X58690476Y-32350056D02*
X58738095Y-32302437D01*
X58738095Y-32302437D02*
X58833333Y-32254818D01*
X58833333Y-32254818D02*
X59071428Y-32254818D01*
X59071428Y-32254818D02*
X59214285Y-32302437D01*
X60071428Y-32588151D02*
X60071428Y-33254818D01*
X59833333Y-32207199D02*
X59595238Y-32921484D01*
X59595238Y-32921484D02*
X60214285Y-32921484D01*
X61880952Y-32302437D02*
X61785714Y-32254818D01*
X61785714Y-32254818D02*
X61642857Y-32254818D01*
X61642857Y-32254818D02*
X61500000Y-32302437D01*
X61500000Y-32302437D02*
X61404762Y-32397675D01*
X61404762Y-32397675D02*
X61357143Y-32492913D01*
X61357143Y-32492913D02*
X61309524Y-32683389D01*
X61309524Y-32683389D02*
X61309524Y-32826246D01*
X61309524Y-32826246D02*
X61357143Y-33016722D01*
X61357143Y-33016722D02*
X61404762Y-33111960D01*
X61404762Y-33111960D02*
X61500000Y-33207199D01*
X61500000Y-33207199D02*
X61642857Y-33254818D01*
X61642857Y-33254818D02*
X61738095Y-33254818D01*
X61738095Y-33254818D02*
X61880952Y-33207199D01*
X61880952Y-33207199D02*
X61928571Y-33159579D01*
X61928571Y-33159579D02*
X61928571Y-32826246D01*
X61928571Y-32826246D02*
X61738095Y-32826246D01*
X62357143Y-33254818D02*
X62357143Y-32254818D01*
X62357143Y-32254818D02*
X62738095Y-32254818D01*
X62738095Y-32254818D02*
X62833333Y-32302437D01*
X62833333Y-32302437D02*
X62880952Y-32350056D01*
X62880952Y-32350056D02*
X62928571Y-32445294D01*
X62928571Y-32445294D02*
X62928571Y-32588151D01*
X62928571Y-32588151D02*
X62880952Y-32683389D01*
X62880952Y-32683389D02*
X62833333Y-32731008D01*
X62833333Y-32731008D02*
X62738095Y-32778627D01*
X62738095Y-32778627D02*
X62357143Y-32778627D01*
X63357143Y-33254818D02*
X63357143Y-32254818D01*
X64023809Y-32254818D02*
X64214285Y-32254818D01*
X64214285Y-32254818D02*
X64309523Y-32302437D01*
X64309523Y-32302437D02*
X64404761Y-32397675D01*
X64404761Y-32397675D02*
X64452380Y-32588151D01*
X64452380Y-32588151D02*
X64452380Y-32921484D01*
X64452380Y-32921484D02*
X64404761Y-33111960D01*
X64404761Y-33111960D02*
X64309523Y-33207199D01*
X64309523Y-33207199D02*
X64214285Y-33254818D01*
X64214285Y-33254818D02*
X64023809Y-33254818D01*
X64023809Y-33254818D02*
X63928571Y-33207199D01*
X63928571Y-33207199D02*
X63833333Y-33111960D01*
X63833333Y-33111960D02*
X63785714Y-32921484D01*
X63785714Y-32921484D02*
X63785714Y-32588151D01*
X63785714Y-32588151D02*
X63833333Y-32397675D01*
X63833333Y-32397675D02*
X63928571Y-32302437D01*
X63928571Y-32302437D02*
X64023809Y-32254818D01*
X64833333Y-32350056D02*
X64880952Y-32302437D01*
X64880952Y-32302437D02*
X64976190Y-32254818D01*
X64976190Y-32254818D02*
X65214285Y-32254818D01*
X65214285Y-32254818D02*
X65309523Y-32302437D01*
X65309523Y-32302437D02*
X65357142Y-32350056D01*
X65357142Y-32350056D02*
X65404761Y-32445294D01*
X65404761Y-32445294D02*
X65404761Y-32540532D01*
X65404761Y-32540532D02*
X65357142Y-32683389D01*
X65357142Y-32683389D02*
X64785714Y-33254818D01*
X64785714Y-33254818D02*
X65404761Y-33254818D01*
X66357142Y-33254818D02*
X65785714Y-33254818D01*
X66071428Y-33254818D02*
X66071428Y-32254818D01*
X66071428Y-32254818D02*
X65976190Y-32397675D01*
X65976190Y-32397675D02*
X65880952Y-32492913D01*
X65880952Y-32492913D02*
X65785714Y-32540532D01*
X58642857Y-47207200D02*
X58785714Y-47254819D01*
X58785714Y-47254819D02*
X59023809Y-47254819D01*
X59023809Y-47254819D02*
X59119047Y-47207200D01*
X59119047Y-47207200D02*
X59166666Y-47159580D01*
X59166666Y-47159580D02*
X59214285Y-47064342D01*
X59214285Y-47064342D02*
X59214285Y-46969104D01*
X59214285Y-46969104D02*
X59166666Y-46873866D01*
X59166666Y-46873866D02*
X59119047Y-46826247D01*
X59119047Y-46826247D02*
X59023809Y-46778628D01*
X59023809Y-46778628D02*
X58833333Y-46731009D01*
X58833333Y-46731009D02*
X58738095Y-46683390D01*
X58738095Y-46683390D02*
X58690476Y-46635771D01*
X58690476Y-46635771D02*
X58642857Y-46540533D01*
X58642857Y-46540533D02*
X58642857Y-46445295D01*
X58642857Y-46445295D02*
X58690476Y-46350057D01*
X58690476Y-46350057D02*
X58738095Y-46302438D01*
X58738095Y-46302438D02*
X58833333Y-46254819D01*
X58833333Y-46254819D02*
X59071428Y-46254819D01*
X59071428Y-46254819D02*
X59214285Y-46302438D01*
X59595238Y-46350057D02*
X59642857Y-46302438D01*
X59642857Y-46302438D02*
X59738095Y-46254819D01*
X59738095Y-46254819D02*
X59976190Y-46254819D01*
X59976190Y-46254819D02*
X60071428Y-46302438D01*
X60071428Y-46302438D02*
X60119047Y-46350057D01*
X60119047Y-46350057D02*
X60166666Y-46445295D01*
X60166666Y-46445295D02*
X60166666Y-46540533D01*
X60166666Y-46540533D02*
X60119047Y-46683390D01*
X60119047Y-46683390D02*
X59547619Y-47254819D01*
X59547619Y-47254819D02*
X60166666Y-47254819D01*
X61880952Y-46302438D02*
X61785714Y-46254819D01*
X61785714Y-46254819D02*
X61642857Y-46254819D01*
X61642857Y-46254819D02*
X61500000Y-46302438D01*
X61500000Y-46302438D02*
X61404762Y-46397676D01*
X61404762Y-46397676D02*
X61357143Y-46492914D01*
X61357143Y-46492914D02*
X61309524Y-46683390D01*
X61309524Y-46683390D02*
X61309524Y-46826247D01*
X61309524Y-46826247D02*
X61357143Y-47016723D01*
X61357143Y-47016723D02*
X61404762Y-47111961D01*
X61404762Y-47111961D02*
X61500000Y-47207200D01*
X61500000Y-47207200D02*
X61642857Y-47254819D01*
X61642857Y-47254819D02*
X61738095Y-47254819D01*
X61738095Y-47254819D02*
X61880952Y-47207200D01*
X61880952Y-47207200D02*
X61928571Y-47159580D01*
X61928571Y-47159580D02*
X61928571Y-46826247D01*
X61928571Y-46826247D02*
X61738095Y-46826247D01*
X62357143Y-47254819D02*
X62357143Y-46254819D01*
X62357143Y-46254819D02*
X62738095Y-46254819D01*
X62738095Y-46254819D02*
X62833333Y-46302438D01*
X62833333Y-46302438D02*
X62880952Y-46350057D01*
X62880952Y-46350057D02*
X62928571Y-46445295D01*
X62928571Y-46445295D02*
X62928571Y-46588152D01*
X62928571Y-46588152D02*
X62880952Y-46683390D01*
X62880952Y-46683390D02*
X62833333Y-46731009D01*
X62833333Y-46731009D02*
X62738095Y-46778628D01*
X62738095Y-46778628D02*
X62357143Y-46778628D01*
X63357143Y-47254819D02*
X63357143Y-46254819D01*
X64023809Y-46254819D02*
X64214285Y-46254819D01*
X64214285Y-46254819D02*
X64309523Y-46302438D01*
X64309523Y-46302438D02*
X64404761Y-46397676D01*
X64404761Y-46397676D02*
X64452380Y-46588152D01*
X64452380Y-46588152D02*
X64452380Y-46921485D01*
X64452380Y-46921485D02*
X64404761Y-47111961D01*
X64404761Y-47111961D02*
X64309523Y-47207200D01*
X64309523Y-47207200D02*
X64214285Y-47254819D01*
X64214285Y-47254819D02*
X64023809Y-47254819D01*
X64023809Y-47254819D02*
X63928571Y-47207200D01*
X63928571Y-47207200D02*
X63833333Y-47111961D01*
X63833333Y-47111961D02*
X63785714Y-46921485D01*
X63785714Y-46921485D02*
X63785714Y-46588152D01*
X63785714Y-46588152D02*
X63833333Y-46397676D01*
X63833333Y-46397676D02*
X63928571Y-46302438D01*
X63928571Y-46302438D02*
X64023809Y-46254819D01*
X65404761Y-47254819D02*
X64833333Y-47254819D01*
X65119047Y-47254819D02*
X65119047Y-46254819D01*
X65119047Y-46254819D02*
X65023809Y-46397676D01*
X65023809Y-46397676D02*
X64928571Y-46492914D01*
X64928571Y-46492914D02*
X64833333Y-46540533D01*
X65738095Y-46254819D02*
X66357142Y-46254819D01*
X66357142Y-46254819D02*
X66023809Y-46635771D01*
X66023809Y-46635771D02*
X66166666Y-46635771D01*
X66166666Y-46635771D02*
X66261904Y-46683390D01*
X66261904Y-46683390D02*
X66309523Y-46731009D01*
X66309523Y-46731009D02*
X66357142Y-46826247D01*
X66357142Y-46826247D02*
X66357142Y-47064342D01*
X66357142Y-47064342D02*
X66309523Y-47159580D01*
X66309523Y-47159580D02*
X66261904Y-47207200D01*
X66261904Y-47207200D02*
X66166666Y-47254819D01*
X66166666Y-47254819D02*
X65880952Y-47254819D01*
X65880952Y-47254819D02*
X65785714Y-47207200D01*
X65785714Y-47207200D02*
X65738095Y-47159580D01*
X58642857Y-61207200D02*
X58785714Y-61254819D01*
X58785714Y-61254819D02*
X59023809Y-61254819D01*
X59023809Y-61254819D02*
X59119047Y-61207200D01*
X59119047Y-61207200D02*
X59166666Y-61159580D01*
X59166666Y-61159580D02*
X59214285Y-61064342D01*
X59214285Y-61064342D02*
X59214285Y-60969104D01*
X59214285Y-60969104D02*
X59166666Y-60873866D01*
X59166666Y-60873866D02*
X59119047Y-60826247D01*
X59119047Y-60826247D02*
X59023809Y-60778628D01*
X59023809Y-60778628D02*
X58833333Y-60731009D01*
X58833333Y-60731009D02*
X58738095Y-60683390D01*
X58738095Y-60683390D02*
X58690476Y-60635771D01*
X58690476Y-60635771D02*
X58642857Y-60540533D01*
X58642857Y-60540533D02*
X58642857Y-60445295D01*
X58642857Y-60445295D02*
X58690476Y-60350057D01*
X58690476Y-60350057D02*
X58738095Y-60302438D01*
X58738095Y-60302438D02*
X58833333Y-60254819D01*
X58833333Y-60254819D02*
X59071428Y-60254819D01*
X59071428Y-60254819D02*
X59214285Y-60302438D01*
X59547619Y-60254819D02*
X60166666Y-60254819D01*
X60166666Y-60254819D02*
X59833333Y-60635771D01*
X59833333Y-60635771D02*
X59976190Y-60635771D01*
X59976190Y-60635771D02*
X60071428Y-60683390D01*
X60071428Y-60683390D02*
X60119047Y-60731009D01*
X60119047Y-60731009D02*
X60166666Y-60826247D01*
X60166666Y-60826247D02*
X60166666Y-61064342D01*
X60166666Y-61064342D02*
X60119047Y-61159580D01*
X60119047Y-61159580D02*
X60071428Y-61207200D01*
X60071428Y-61207200D02*
X59976190Y-61254819D01*
X59976190Y-61254819D02*
X59690476Y-61254819D01*
X59690476Y-61254819D02*
X59595238Y-61207200D01*
X59595238Y-61207200D02*
X59547619Y-61159580D01*
X61880952Y-60302438D02*
X61785714Y-60254819D01*
X61785714Y-60254819D02*
X61642857Y-60254819D01*
X61642857Y-60254819D02*
X61500000Y-60302438D01*
X61500000Y-60302438D02*
X61404762Y-60397676D01*
X61404762Y-60397676D02*
X61357143Y-60492914D01*
X61357143Y-60492914D02*
X61309524Y-60683390D01*
X61309524Y-60683390D02*
X61309524Y-60826247D01*
X61309524Y-60826247D02*
X61357143Y-61016723D01*
X61357143Y-61016723D02*
X61404762Y-61111961D01*
X61404762Y-61111961D02*
X61500000Y-61207200D01*
X61500000Y-61207200D02*
X61642857Y-61254819D01*
X61642857Y-61254819D02*
X61738095Y-61254819D01*
X61738095Y-61254819D02*
X61880952Y-61207200D01*
X61880952Y-61207200D02*
X61928571Y-61159580D01*
X61928571Y-61159580D02*
X61928571Y-60826247D01*
X61928571Y-60826247D02*
X61738095Y-60826247D01*
X62357143Y-61254819D02*
X62357143Y-60254819D01*
X62357143Y-60254819D02*
X62738095Y-60254819D01*
X62738095Y-60254819D02*
X62833333Y-60302438D01*
X62833333Y-60302438D02*
X62880952Y-60350057D01*
X62880952Y-60350057D02*
X62928571Y-60445295D01*
X62928571Y-60445295D02*
X62928571Y-60588152D01*
X62928571Y-60588152D02*
X62880952Y-60683390D01*
X62880952Y-60683390D02*
X62833333Y-60731009D01*
X62833333Y-60731009D02*
X62738095Y-60778628D01*
X62738095Y-60778628D02*
X62357143Y-60778628D01*
X63357143Y-61254819D02*
X63357143Y-60254819D01*
X64023809Y-60254819D02*
X64214285Y-60254819D01*
X64214285Y-60254819D02*
X64309523Y-60302438D01*
X64309523Y-60302438D02*
X64404761Y-60397676D01*
X64404761Y-60397676D02*
X64452380Y-60588152D01*
X64452380Y-60588152D02*
X64452380Y-60921485D01*
X64452380Y-60921485D02*
X64404761Y-61111961D01*
X64404761Y-61111961D02*
X64309523Y-61207200D01*
X64309523Y-61207200D02*
X64214285Y-61254819D01*
X64214285Y-61254819D02*
X64023809Y-61254819D01*
X64023809Y-61254819D02*
X63928571Y-61207200D01*
X63928571Y-61207200D02*
X63833333Y-61111961D01*
X63833333Y-61111961D02*
X63785714Y-60921485D01*
X63785714Y-60921485D02*
X63785714Y-60588152D01*
X63785714Y-60588152D02*
X63833333Y-60397676D01*
X63833333Y-60397676D02*
X63928571Y-60302438D01*
X63928571Y-60302438D02*
X64023809Y-60254819D01*
X65404761Y-61254819D02*
X64833333Y-61254819D01*
X65119047Y-61254819D02*
X65119047Y-60254819D01*
X65119047Y-60254819D02*
X65023809Y-60397676D01*
X65023809Y-60397676D02*
X64928571Y-60492914D01*
X64928571Y-60492914D02*
X64833333Y-60540533D01*
X66023809Y-60254819D02*
X66119047Y-60254819D01*
X66119047Y-60254819D02*
X66214285Y-60302438D01*
X66214285Y-60302438D02*
X66261904Y-60350057D01*
X66261904Y-60350057D02*
X66309523Y-60445295D01*
X66309523Y-60445295D02*
X66357142Y-60635771D01*
X66357142Y-60635771D02*
X66357142Y-60873866D01*
X66357142Y-60873866D02*
X66309523Y-61064342D01*
X66309523Y-61064342D02*
X66261904Y-61159580D01*
X66261904Y-61159580D02*
X66214285Y-61207200D01*
X66214285Y-61207200D02*
X66119047Y-61254819D01*
X66119047Y-61254819D02*
X66023809Y-61254819D01*
X66023809Y-61254819D02*
X65928571Y-61207200D01*
X65928571Y-61207200D02*
X65880952Y-61159580D01*
X65880952Y-61159580D02*
X65833333Y-61064342D01*
X65833333Y-61064342D02*
X65785714Y-60873866D01*
X65785714Y-60873866D02*
X65785714Y-60635771D01*
X65785714Y-60635771D02*
X65833333Y-60445295D01*
X65833333Y-60445295D02*
X65880952Y-60350057D01*
X65880952Y-60350057D02*
X65928571Y-60302438D01*
X65928571Y-60302438D02*
X66023809Y-60254819D01*
X72119048Y-11573866D02*
X72880953Y-11573866D01*
X72500000Y-11954819D02*
X72500000Y-11192914D01*
X72238095Y-14454819D02*
X72238095Y-13454819D01*
X72238095Y-13454819D02*
X72476190Y-13454819D01*
X72476190Y-13454819D02*
X72619047Y-13502438D01*
X72619047Y-13502438D02*
X72714285Y-13597676D01*
X72714285Y-13597676D02*
X72761904Y-13692914D01*
X72761904Y-13692914D02*
X72809523Y-13883390D01*
X72809523Y-13883390D02*
X72809523Y-14026247D01*
X72809523Y-14026247D02*
X72761904Y-14216723D01*
X72761904Y-14216723D02*
X72714285Y-14311961D01*
X72714285Y-14311961D02*
X72619047Y-14407200D01*
X72619047Y-14407200D02*
X72476190Y-14454819D01*
X72476190Y-14454819D02*
X72238095Y-14454819D01*
X72761904Y-16002438D02*
X72666666Y-15954819D01*
X72666666Y-15954819D02*
X72523809Y-15954819D01*
X72523809Y-15954819D02*
X72380952Y-16002438D01*
X72380952Y-16002438D02*
X72285714Y-16097676D01*
X72285714Y-16097676D02*
X72238095Y-16192914D01*
X72238095Y-16192914D02*
X72190476Y-16383390D01*
X72190476Y-16383390D02*
X72190476Y-16526247D01*
X72190476Y-16526247D02*
X72238095Y-16716723D01*
X72238095Y-16716723D02*
X72285714Y-16811961D01*
X72285714Y-16811961D02*
X72380952Y-16907200D01*
X72380952Y-16907200D02*
X72523809Y-16954819D01*
X72523809Y-16954819D02*
X72619047Y-16954819D01*
X72619047Y-16954819D02*
X72761904Y-16907200D01*
X72761904Y-16907200D02*
X72809523Y-16859580D01*
X72809523Y-16859580D02*
X72809523Y-16526247D01*
X72809523Y-16526247D02*
X72619047Y-16526247D01*
X72119048Y-25573866D02*
X72880953Y-25573866D01*
X72500000Y-25954819D02*
X72500000Y-25192914D01*
X72238095Y-28454819D02*
X72238095Y-27454819D01*
X72238095Y-27454819D02*
X72476190Y-27454819D01*
X72476190Y-27454819D02*
X72619047Y-27502438D01*
X72619047Y-27502438D02*
X72714285Y-27597676D01*
X72714285Y-27597676D02*
X72761904Y-27692914D01*
X72761904Y-27692914D02*
X72809523Y-27883390D01*
X72809523Y-27883390D02*
X72809523Y-28026247D01*
X72809523Y-28026247D02*
X72761904Y-28216723D01*
X72761904Y-28216723D02*
X72714285Y-28311961D01*
X72714285Y-28311961D02*
X72619047Y-28407200D01*
X72619047Y-28407200D02*
X72476190Y-28454819D01*
X72476190Y-28454819D02*
X72238095Y-28454819D01*
X72761904Y-30002438D02*
X72666666Y-29954819D01*
X72666666Y-29954819D02*
X72523809Y-29954819D01*
X72523809Y-29954819D02*
X72380952Y-30002438D01*
X72380952Y-30002438D02*
X72285714Y-30097676D01*
X72285714Y-30097676D02*
X72238095Y-30192914D01*
X72238095Y-30192914D02*
X72190476Y-30383390D01*
X72190476Y-30383390D02*
X72190476Y-30526247D01*
X72190476Y-30526247D02*
X72238095Y-30716723D01*
X72238095Y-30716723D02*
X72285714Y-30811961D01*
X72285714Y-30811961D02*
X72380952Y-30907200D01*
X72380952Y-30907200D02*
X72523809Y-30954819D01*
X72523809Y-30954819D02*
X72619047Y-30954819D01*
X72619047Y-30954819D02*
X72761904Y-30907200D01*
X72761904Y-30907200D02*
X72809523Y-30859580D01*
X72809523Y-30859580D02*
X72809523Y-30526247D01*
X72809523Y-30526247D02*
X72619047Y-30526247D01*
X72119048Y-39573866D02*
X72880953Y-39573866D01*
X72500000Y-39954819D02*
X72500000Y-39192914D01*
X72238095Y-42454819D02*
X72238095Y-41454819D01*
X72238095Y-41454819D02*
X72476190Y-41454819D01*
X72476190Y-41454819D02*
X72619047Y-41502438D01*
X72619047Y-41502438D02*
X72714285Y-41597676D01*
X72714285Y-41597676D02*
X72761904Y-41692914D01*
X72761904Y-41692914D02*
X72809523Y-41883390D01*
X72809523Y-41883390D02*
X72809523Y-42026247D01*
X72809523Y-42026247D02*
X72761904Y-42216723D01*
X72761904Y-42216723D02*
X72714285Y-42311961D01*
X72714285Y-42311961D02*
X72619047Y-42407200D01*
X72619047Y-42407200D02*
X72476190Y-42454819D01*
X72476190Y-42454819D02*
X72238095Y-42454819D01*
X72761904Y-44002438D02*
X72666666Y-43954819D01*
X72666666Y-43954819D02*
X72523809Y-43954819D01*
X72523809Y-43954819D02*
X72380952Y-44002438D01*
X72380952Y-44002438D02*
X72285714Y-44097676D01*
X72285714Y-44097676D02*
X72238095Y-44192914D01*
X72238095Y-44192914D02*
X72190476Y-44383390D01*
X72190476Y-44383390D02*
X72190476Y-44526247D01*
X72190476Y-44526247D02*
X72238095Y-44716723D01*
X72238095Y-44716723D02*
X72285714Y-44811961D01*
X72285714Y-44811961D02*
X72380952Y-44907200D01*
X72380952Y-44907200D02*
X72523809Y-44954819D01*
X72523809Y-44954819D02*
X72619047Y-44954819D01*
X72619047Y-44954819D02*
X72761904Y-44907200D01*
X72761904Y-44907200D02*
X72809523Y-44859580D01*
X72809523Y-44859580D02*
X72809523Y-44526247D01*
X72809523Y-44526247D02*
X72619047Y-44526247D01*
X72119048Y-53573866D02*
X72880953Y-53573866D01*
X72500000Y-53954819D02*
X72500000Y-53192914D01*
X72238095Y-56454819D02*
X72238095Y-55454819D01*
X72238095Y-55454819D02*
X72476190Y-55454819D01*
X72476190Y-55454819D02*
X72619047Y-55502438D01*
X72619047Y-55502438D02*
X72714285Y-55597676D01*
X72714285Y-55597676D02*
X72761904Y-55692914D01*
X72761904Y-55692914D02*
X72809523Y-55883390D01*
X72809523Y-55883390D02*
X72809523Y-56026247D01*
X72809523Y-56026247D02*
X72761904Y-56216723D01*
X72761904Y-56216723D02*
X72714285Y-56311961D01*
X72714285Y-56311961D02*
X72619047Y-56407200D01*
X72619047Y-56407200D02*
X72476190Y-56454819D01*
X72476190Y-56454819D02*
X72238095Y-56454819D01*
X72761904Y-58002438D02*
X72666666Y-57954819D01*
X72666666Y-57954819D02*
X72523809Y-57954819D01*
X72523809Y-57954819D02*
X72380952Y-58002438D01*
X72380952Y-58002438D02*
X72285714Y-58097676D01*
X72285714Y-58097676D02*
X72238095Y-58192914D01*
X72238095Y-58192914D02*
X72190476Y-58383390D01*
X72190476Y-58383390D02*
X72190476Y-58526247D01*
X72190476Y-58526247D02*
X72238095Y-58716723D01*
X72238095Y-58716723D02*
X72285714Y-58811961D01*
X72285714Y-58811961D02*
X72380952Y-58907200D01*
X72380952Y-58907200D02*
X72523809Y-58954819D01*
X72523809Y-58954819D02*
X72619047Y-58954819D01*
X72619047Y-58954819D02*
X72761904Y-58907200D01*
X72761904Y-58907200D02*
X72809523Y-58859580D01*
X72809523Y-58859580D02*
X72809523Y-58526247D01*
X72809523Y-58526247D02*
X72619047Y-58526247D01*
D11*
X12428571Y-15510800D02*
X13571429Y-15510800D01*
X13000000Y-16082228D02*
X13000000Y-14939371D01*
X17508571Y-15510800D02*
X18651429Y-15510800D01*
X48071428Y-8110800D02*
X49214286Y-8110800D01*
X48642857Y-8682228D02*
X48642857Y-7539371D01*
X50642857Y-7182228D02*
X49928571Y-7182228D01*
X49928571Y-7182228D02*
X49857143Y-7896514D01*
X49857143Y-7896514D02*
X49928571Y-7825085D01*
X49928571Y-7825085D02*
X50071429Y-7753657D01*
X50071429Y-7753657D02*
X50428571Y-7753657D01*
X50428571Y-7753657D02*
X50571429Y-7825085D01*
X50571429Y-7825085D02*
X50642857Y-7896514D01*
X50642857Y-7896514D02*
X50714286Y-8039371D01*
X50714286Y-8039371D02*
X50714286Y-8396514D01*
X50714286Y-8396514D02*
X50642857Y-8539371D01*
X50642857Y-8539371D02*
X50571429Y-8610800D01*
X50571429Y-8610800D02*
X50428571Y-8682228D01*
X50428571Y-8682228D02*
X50071429Y-8682228D01*
X50071429Y-8682228D02*
X49928571Y-8610800D01*
X49928571Y-8610800D02*
X49857143Y-8539371D01*
X51142857Y-7182228D02*
X51642857Y-8682228D01*
X51642857Y-8682228D02*
X52142857Y-7182228D01*
X10110800Y-31928571D02*
X10110800Y-30785714D01*
X10682228Y-31357142D02*
X9539371Y-31357142D01*
X9182228Y-29357142D02*
X9182228Y-30071428D01*
X9182228Y-30071428D02*
X9896514Y-30142856D01*
X9896514Y-30142856D02*
X9825085Y-30071428D01*
X9825085Y-30071428D02*
X9753657Y-29928571D01*
X9753657Y-29928571D02*
X9753657Y-29571428D01*
X9753657Y-29571428D02*
X9825085Y-29428571D01*
X9825085Y-29428571D02*
X9896514Y-29357142D01*
X9896514Y-29357142D02*
X10039371Y-29285713D01*
X10039371Y-29285713D02*
X10396514Y-29285713D01*
X10396514Y-29285713D02*
X10539371Y-29357142D01*
X10539371Y-29357142D02*
X10610800Y-29428571D01*
X10610800Y-29428571D02*
X10682228Y-29571428D01*
X10682228Y-29571428D02*
X10682228Y-29928571D01*
X10682228Y-29928571D02*
X10610800Y-30071428D01*
X10610800Y-30071428D02*
X10539371Y-30142856D01*
X9182228Y-28857142D02*
X10682228Y-28357142D01*
X10682228Y-28357142D02*
X9182228Y-27857142D01*
X80910800Y-34928571D02*
X80910800Y-33785714D01*
X81482228Y-34357142D02*
X80339371Y-34357142D01*
X79982228Y-32357142D02*
X79982228Y-33071428D01*
X79982228Y-33071428D02*
X80696514Y-33142856D01*
X80696514Y-33142856D02*
X80625085Y-33071428D01*
X80625085Y-33071428D02*
X80553657Y-32928571D01*
X80553657Y-32928571D02*
X80553657Y-32571428D01*
X80553657Y-32571428D02*
X80625085Y-32428571D01*
X80625085Y-32428571D02*
X80696514Y-32357142D01*
X80696514Y-32357142D02*
X80839371Y-32285713D01*
X80839371Y-32285713D02*
X81196514Y-32285713D01*
X81196514Y-32285713D02*
X81339371Y-32357142D01*
X81339371Y-32357142D02*
X81410800Y-32428571D01*
X81410800Y-32428571D02*
X81482228Y-32571428D01*
X81482228Y-32571428D02*
X81482228Y-32928571D01*
X81482228Y-32928571D02*
X81410800Y-33071428D01*
X81410800Y-33071428D02*
X81339371Y-33142856D01*
X79982228Y-31857142D02*
X81482228Y-31357142D01*
X81482228Y-31357142D02*
X79982228Y-30857142D01*
D12*
X23857141Y-3076304D02*
X23857141Y-4695352D01*
X23857141Y-4695352D02*
X23761903Y-4885828D01*
X23761903Y-4885828D02*
X23666665Y-4981066D01*
X23666665Y-4981066D02*
X23476188Y-5076304D01*
X23476188Y-5076304D02*
X23190474Y-5076304D01*
X23190474Y-5076304D02*
X22999998Y-4981066D01*
X23857141Y-4314400D02*
X23666665Y-4409638D01*
X23666665Y-4409638D02*
X23285712Y-4409638D01*
X23285712Y-4409638D02*
X23095236Y-4314400D01*
X23095236Y-4314400D02*
X22999998Y-4219161D01*
X22999998Y-4219161D02*
X22904760Y-4028685D01*
X22904760Y-4028685D02*
X22904760Y-3457257D01*
X22904760Y-3457257D02*
X22999998Y-3266780D01*
X22999998Y-3266780D02*
X23095236Y-3171542D01*
X23095236Y-3171542D02*
X23285712Y-3076304D01*
X23285712Y-3076304D02*
X23666665Y-3076304D01*
X23666665Y-3076304D02*
X23857141Y-3171542D01*
X25761903Y-4409638D02*
X24809522Y-4409638D01*
X24809522Y-4409638D02*
X24809522Y-2409638D01*
X26428570Y-3362019D02*
X27095237Y-3362019D01*
X27380951Y-4409638D02*
X26428570Y-4409638D01*
X26428570Y-4409638D02*
X26428570Y-2409638D01*
X26428570Y-2409638D02*
X27380951Y-2409638D01*
X28238094Y-4409638D02*
X28238094Y-2409638D01*
X28238094Y-2409638D02*
X28714284Y-2409638D01*
X28714284Y-2409638D02*
X28999999Y-2504876D01*
X28999999Y-2504876D02*
X29190475Y-2695352D01*
X29190475Y-2695352D02*
X29285713Y-2885828D01*
X29285713Y-2885828D02*
X29380951Y-3266780D01*
X29380951Y-3266780D02*
X29380951Y-3552495D01*
X29380951Y-3552495D02*
X29285713Y-3933447D01*
X29285713Y-3933447D02*
X29190475Y-4123923D01*
X29190475Y-4123923D02*
X28999999Y-4314400D01*
X28999999Y-4314400D02*
X28714284Y-4409638D01*
X28714284Y-4409638D02*
X28238094Y-4409638D01*
X32904761Y-4219161D02*
X32809523Y-4314400D01*
X32809523Y-4314400D02*
X32523809Y-4409638D01*
X32523809Y-4409638D02*
X32333333Y-4409638D01*
X32333333Y-4409638D02*
X32047618Y-4314400D01*
X32047618Y-4314400D02*
X31857142Y-4123923D01*
X31857142Y-4123923D02*
X31761904Y-3933447D01*
X31761904Y-3933447D02*
X31666666Y-3552495D01*
X31666666Y-3552495D02*
X31666666Y-3266780D01*
X31666666Y-3266780D02*
X31761904Y-2885828D01*
X31761904Y-2885828D02*
X31857142Y-2695352D01*
X31857142Y-2695352D02*
X32047618Y-2504876D01*
X32047618Y-2504876D02*
X32333333Y-2409638D01*
X32333333Y-2409638D02*
X32523809Y-2409638D01*
X32523809Y-2409638D02*
X32809523Y-2504876D01*
X32809523Y-2504876D02*
X32904761Y-2600114D01*
X34047618Y-4409638D02*
X33857142Y-4314400D01*
X33857142Y-4314400D02*
X33761904Y-4219161D01*
X33761904Y-4219161D02*
X33666666Y-4028685D01*
X33666666Y-4028685D02*
X33666666Y-3457257D01*
X33666666Y-3457257D02*
X33761904Y-3266780D01*
X33761904Y-3266780D02*
X33857142Y-3171542D01*
X33857142Y-3171542D02*
X34047618Y-3076304D01*
X34047618Y-3076304D02*
X34333333Y-3076304D01*
X34333333Y-3076304D02*
X34523809Y-3171542D01*
X34523809Y-3171542D02*
X34619047Y-3266780D01*
X34619047Y-3266780D02*
X34714285Y-3457257D01*
X34714285Y-3457257D02*
X34714285Y-4028685D01*
X34714285Y-4028685D02*
X34619047Y-4219161D01*
X34619047Y-4219161D02*
X34523809Y-4314400D01*
X34523809Y-4314400D02*
X34333333Y-4409638D01*
X34333333Y-4409638D02*
X34047618Y-4409638D01*
X35571428Y-3076304D02*
X35571428Y-4409638D01*
X35571428Y-3266780D02*
X35666666Y-3171542D01*
X35666666Y-3171542D02*
X35857142Y-3076304D01*
X35857142Y-3076304D02*
X36142857Y-3076304D01*
X36142857Y-3076304D02*
X36333333Y-3171542D01*
X36333333Y-3171542D02*
X36428571Y-3362019D01*
X36428571Y-3362019D02*
X36428571Y-4409638D01*
X37095238Y-3076304D02*
X37857142Y-3076304D01*
X37380952Y-2409638D02*
X37380952Y-4123923D01*
X37380952Y-4123923D02*
X37476190Y-4314400D01*
X37476190Y-4314400D02*
X37666666Y-4409638D01*
X37666666Y-4409638D02*
X37857142Y-4409638D01*
X38523809Y-4409638D02*
X38523809Y-3076304D01*
X38523809Y-3457257D02*
X38619047Y-3266780D01*
X38619047Y-3266780D02*
X38714285Y-3171542D01*
X38714285Y-3171542D02*
X38904761Y-3076304D01*
X38904761Y-3076304D02*
X39095238Y-3076304D01*
X40047618Y-4409638D02*
X39857142Y-4314400D01*
X39857142Y-4314400D02*
X39761904Y-4219161D01*
X39761904Y-4219161D02*
X39666666Y-4028685D01*
X39666666Y-4028685D02*
X39666666Y-3457257D01*
X39666666Y-3457257D02*
X39761904Y-3266780D01*
X39761904Y-3266780D02*
X39857142Y-3171542D01*
X39857142Y-3171542D02*
X40047618Y-3076304D01*
X40047618Y-3076304D02*
X40333333Y-3076304D01*
X40333333Y-3076304D02*
X40523809Y-3171542D01*
X40523809Y-3171542D02*
X40619047Y-3266780D01*
X40619047Y-3266780D02*
X40714285Y-3457257D01*
X40714285Y-3457257D02*
X40714285Y-4028685D01*
X40714285Y-4028685D02*
X40619047Y-4219161D01*
X40619047Y-4219161D02*
X40523809Y-4314400D01*
X40523809Y-4314400D02*
X40333333Y-4409638D01*
X40333333Y-4409638D02*
X40047618Y-4409638D01*
X41857142Y-4409638D02*
X41666666Y-4314400D01*
X41666666Y-4314400D02*
X41571428Y-4123923D01*
X41571428Y-4123923D02*
X41571428Y-2409638D01*
X42904761Y-4409638D02*
X42714285Y-4314400D01*
X42714285Y-4314400D02*
X42619047Y-4123923D01*
X42619047Y-4123923D02*
X42619047Y-2409638D01*
X44428571Y-4314400D02*
X44238095Y-4409638D01*
X44238095Y-4409638D02*
X43857142Y-4409638D01*
X43857142Y-4409638D02*
X43666666Y-4314400D01*
X43666666Y-4314400D02*
X43571428Y-4123923D01*
X43571428Y-4123923D02*
X43571428Y-3362019D01*
X43571428Y-3362019D02*
X43666666Y-3171542D01*
X43666666Y-3171542D02*
X43857142Y-3076304D01*
X43857142Y-3076304D02*
X44238095Y-3076304D01*
X44238095Y-3076304D02*
X44428571Y-3171542D01*
X44428571Y-3171542D02*
X44523809Y-3362019D01*
X44523809Y-3362019D02*
X44523809Y-3552495D01*
X44523809Y-3552495D02*
X43571428Y-3742971D01*
X45380952Y-4409638D02*
X45380952Y-3076304D01*
X45380952Y-3457257D02*
X45476190Y-3266780D01*
X45476190Y-3266780D02*
X45571428Y-3171542D01*
X45571428Y-3171542D02*
X45761904Y-3076304D01*
X45761904Y-3076304D02*
X45952381Y-3076304D01*
X48047619Y-4314400D02*
X48238095Y-4409638D01*
X48238095Y-4409638D02*
X48619047Y-4409638D01*
X48619047Y-4409638D02*
X48809524Y-4314400D01*
X48809524Y-4314400D02*
X48904762Y-4123923D01*
X48904762Y-4123923D02*
X48904762Y-4028685D01*
X48904762Y-4028685D02*
X48809524Y-3838209D01*
X48809524Y-3838209D02*
X48619047Y-3742971D01*
X48619047Y-3742971D02*
X48333333Y-3742971D01*
X48333333Y-3742971D02*
X48142857Y-3647733D01*
X48142857Y-3647733D02*
X48047619Y-3457257D01*
X48047619Y-3457257D02*
X48047619Y-3362019D01*
X48047619Y-3362019D02*
X48142857Y-3171542D01*
X48142857Y-3171542D02*
X48333333Y-3076304D01*
X48333333Y-3076304D02*
X48619047Y-3076304D01*
X48619047Y-3076304D02*
X48809524Y-3171542D01*
X49761905Y-4409638D02*
X49761905Y-3076304D01*
X49761905Y-2409638D02*
X49666667Y-2504876D01*
X49666667Y-2504876D02*
X49761905Y-2600114D01*
X49761905Y-2600114D02*
X49857143Y-2504876D01*
X49857143Y-2504876D02*
X49761905Y-2409638D01*
X49761905Y-2409638D02*
X49761905Y-2600114D01*
X50714286Y-4409638D02*
X50714286Y-3076304D01*
X50714286Y-3266780D02*
X50809524Y-3171542D01*
X50809524Y-3171542D02*
X51000000Y-3076304D01*
X51000000Y-3076304D02*
X51285715Y-3076304D01*
X51285715Y-3076304D02*
X51476191Y-3171542D01*
X51476191Y-3171542D02*
X51571429Y-3362019D01*
X51571429Y-3362019D02*
X51571429Y-4409638D01*
X51571429Y-3362019D02*
X51666667Y-3171542D01*
X51666667Y-3171542D02*
X51857143Y-3076304D01*
X51857143Y-3076304D02*
X52142857Y-3076304D01*
X52142857Y-3076304D02*
X52333334Y-3171542D01*
X52333334Y-3171542D02*
X52428572Y-3362019D01*
X52428572Y-3362019D02*
X52428572Y-4409638D01*
X53380953Y-3076304D02*
X53380953Y-5076304D01*
X53380953Y-3171542D02*
X53571429Y-3076304D01*
X53571429Y-3076304D02*
X53952382Y-3076304D01*
X53952382Y-3076304D02*
X54142858Y-3171542D01*
X54142858Y-3171542D02*
X54238096Y-3266780D01*
X54238096Y-3266780D02*
X54333334Y-3457257D01*
X54333334Y-3457257D02*
X54333334Y-4028685D01*
X54333334Y-4028685D02*
X54238096Y-4219161D01*
X54238096Y-4219161D02*
X54142858Y-4314400D01*
X54142858Y-4314400D02*
X53952382Y-4409638D01*
X53952382Y-4409638D02*
X53571429Y-4409638D01*
X53571429Y-4409638D02*
X53380953Y-4314400D01*
X55476191Y-4409638D02*
X55285715Y-4314400D01*
X55285715Y-4314400D02*
X55190477Y-4123923D01*
X55190477Y-4123923D02*
X55190477Y-2409638D01*
X57000001Y-4314400D02*
X56809525Y-4409638D01*
X56809525Y-4409638D02*
X56428572Y-4409638D01*
X56428572Y-4409638D02*
X56238096Y-4314400D01*
X56238096Y-4314400D02*
X56142858Y-4123923D01*
X56142858Y-4123923D02*
X56142858Y-3362019D01*
X56142858Y-3362019D02*
X56238096Y-3171542D01*
X56238096Y-3171542D02*
X56428572Y-3076304D01*
X56428572Y-3076304D02*
X56809525Y-3076304D01*
X56809525Y-3076304D02*
X57000001Y-3171542D01*
X57000001Y-3171542D02*
X57095239Y-3362019D01*
X57095239Y-3362019D02*
X57095239Y-3552495D01*
X57095239Y-3552495D02*
X56142858Y-3742971D01*
D10*
X80004819Y-42333333D02*
X80719104Y-42333333D01*
X80719104Y-42333333D02*
X80861961Y-42380952D01*
X80861961Y-42380952D02*
X80957200Y-42476190D01*
X80957200Y-42476190D02*
X81004819Y-42619047D01*
X81004819Y-42619047D02*
X81004819Y-42714285D01*
X80338152Y-41428571D02*
X81004819Y-41428571D01*
X79957200Y-41666666D02*
X80671485Y-41904761D01*
X80671485Y-41904761D02*
X80671485Y-41285714D01*
X80004819Y-28333333D02*
X80719104Y-28333333D01*
X80719104Y-28333333D02*
X80861961Y-28380952D01*
X80861961Y-28380952D02*
X80957200Y-28476190D01*
X80957200Y-28476190D02*
X81004819Y-28619047D01*
X81004819Y-28619047D02*
X81004819Y-28714285D01*
X80004819Y-27952380D02*
X80004819Y-27333333D01*
X80004819Y-27333333D02*
X80385771Y-27666666D01*
X80385771Y-27666666D02*
X80385771Y-27523809D01*
X80385771Y-27523809D02*
X80433390Y-27428571D01*
X80433390Y-27428571D02*
X80481009Y-27380952D01*
X80481009Y-27380952D02*
X80576247Y-27333333D01*
X80576247Y-27333333D02*
X80814342Y-27333333D01*
X80814342Y-27333333D02*
X80909580Y-27380952D01*
X80909580Y-27380952D02*
X80957200Y-27428571D01*
X80957200Y-27428571D02*
X81004819Y-27523809D01*
X81004819Y-27523809D02*
X81004819Y-27809523D01*
X81004819Y-27809523D02*
X80957200Y-27904761D01*
X80957200Y-27904761D02*
X80909580Y-27952380D01*
X80004819Y-14333333D02*
X80719104Y-14333333D01*
X80719104Y-14333333D02*
X80861961Y-14380952D01*
X80861961Y-14380952D02*
X80957200Y-14476190D01*
X80957200Y-14476190D02*
X81004819Y-14619047D01*
X81004819Y-14619047D02*
X81004819Y-14714285D01*
X80100057Y-13904761D02*
X80052438Y-13857142D01*
X80052438Y-13857142D02*
X80004819Y-13761904D01*
X80004819Y-13761904D02*
X80004819Y-13523809D01*
X80004819Y-13523809D02*
X80052438Y-13428571D01*
X80052438Y-13428571D02*
X80100057Y-13380952D01*
X80100057Y-13380952D02*
X80195295Y-13333333D01*
X80195295Y-13333333D02*
X80290533Y-13333333D01*
X80290533Y-13333333D02*
X80433390Y-13380952D01*
X80433390Y-13380952D02*
X81004819Y-13952380D01*
X81004819Y-13952380D02*
X81004819Y-13333333D01*
X15206666Y-434819D02*
X15206666Y-1149104D01*
X15206666Y-1149104D02*
X15159047Y-1291961D01*
X15159047Y-1291961D02*
X15063809Y-1387200D01*
X15063809Y-1387200D02*
X14920952Y-1434819D01*
X14920952Y-1434819D02*
X14825714Y-1434819D01*
X16206666Y-1434819D02*
X15635238Y-1434819D01*
X15920952Y-1434819D02*
X15920952Y-434819D01*
X15920952Y-434819D02*
X15825714Y-577676D01*
X15825714Y-577676D02*
X15730476Y-672914D01*
X15730476Y-672914D02*
X15635238Y-720533D01*
X80004819Y-56333333D02*
X80719104Y-56333333D01*
X80719104Y-56333333D02*
X80861961Y-56380952D01*
X80861961Y-56380952D02*
X80957200Y-56476190D01*
X80957200Y-56476190D02*
X81004819Y-56619047D01*
X81004819Y-56619047D02*
X81004819Y-56714285D01*
X80004819Y-55380952D02*
X80004819Y-55857142D01*
X80004819Y-55857142D02*
X80481009Y-55904761D01*
X80481009Y-55904761D02*
X80433390Y-55857142D01*
X80433390Y-55857142D02*
X80385771Y-55761904D01*
X80385771Y-55761904D02*
X80385771Y-55523809D01*
X80385771Y-55523809D02*
X80433390Y-55428571D01*
X80433390Y-55428571D02*
X80481009Y-55380952D01*
X80481009Y-55380952D02*
X80576247Y-55333333D01*
X80576247Y-55333333D02*
X80814342Y-55333333D01*
X80814342Y-55333333D02*
X80909580Y-55380952D01*
X80909580Y-55380952D02*
X80957200Y-55428571D01*
X80957200Y-55428571D02*
X81004819Y-55523809D01*
X81004819Y-55523809D02*
X81004819Y-55761904D01*
X81004819Y-55761904D02*
X80957200Y-55857142D01*
X80957200Y-55857142D02*
X80909580Y-55904761D01*
%TO.C,J4*%
D13*
X74250000Y-37700000D02*
X74250000Y-42000000D01*
X74250000Y-46300000D02*
X74250000Y-42000000D01*
X77200000Y-36950000D02*
X77200000Y-37700000D01*
X77200000Y-37700000D02*
X74250000Y-37700000D01*
X77200000Y-46300000D02*
X74250000Y-46300000D01*
X77200000Y-47050000D02*
X77200000Y-46300000D01*
X79750000Y-36650000D02*
X78500000Y-36650000D01*
X79750000Y-37900000D02*
X79750000Y-36650000D01*
X78700000Y-36950000D02*
X79450000Y-36950000D01*
X79450000Y-38750000D01*
X78700000Y-38750000D01*
X78700000Y-36950000D01*
X78700000Y-40250000D02*
X79450000Y-40250000D01*
X79450000Y-43750000D01*
X78700000Y-43750000D01*
X78700000Y-40250000D01*
X78700000Y-45250000D02*
X79450000Y-45250000D01*
X79450000Y-47050000D01*
X78700000Y-47050000D01*
X78700000Y-45250000D01*
X73490000Y-36940000D02*
X79460000Y-36940000D01*
X79460000Y-47060000D01*
X73490000Y-47060000D01*
X73490000Y-36940000D01*
%TO.C,J3*%
X74250000Y-23700000D02*
X74250000Y-28000000D01*
X74250000Y-32300000D02*
X74250000Y-28000000D01*
X77200000Y-22950000D02*
X77200000Y-23700000D01*
X77200000Y-23700000D02*
X74250000Y-23700000D01*
X77200000Y-32300000D02*
X74250000Y-32300000D01*
X77200000Y-33050000D02*
X77200000Y-32300000D01*
X79750000Y-22650000D02*
X78500000Y-22650000D01*
X79750000Y-23900000D02*
X79750000Y-22650000D01*
X78700000Y-22950000D02*
X79450000Y-22950000D01*
X79450000Y-24750000D01*
X78700000Y-24750000D01*
X78700000Y-22950000D01*
X78700000Y-26250000D02*
X79450000Y-26250000D01*
X79450000Y-29750000D01*
X78700000Y-29750000D01*
X78700000Y-26250000D01*
X78700000Y-31250000D02*
X79450000Y-31250000D01*
X79450000Y-33050000D01*
X78700000Y-33050000D01*
X78700000Y-31250000D01*
X73490000Y-22940000D02*
X79460000Y-22940000D01*
X79460000Y-33060000D01*
X73490000Y-33060000D01*
X73490000Y-22940000D01*
%TO.C,J2*%
X74250000Y-9700000D02*
X74250000Y-14000000D01*
X74250000Y-18300000D02*
X74250000Y-14000000D01*
X77200000Y-8950000D02*
X77200000Y-9700000D01*
X77200000Y-9700000D02*
X74250000Y-9700000D01*
X77200000Y-18300000D02*
X74250000Y-18300000D01*
X77200000Y-19050000D02*
X77200000Y-18300000D01*
X79750000Y-8650000D02*
X78500000Y-8650000D01*
X79750000Y-9900000D02*
X79750000Y-8650000D01*
X78700000Y-8950000D02*
X79450000Y-8950000D01*
X79450000Y-10750000D01*
X78700000Y-10750000D01*
X78700000Y-8950000D01*
X78700000Y-12250000D02*
X79450000Y-12250000D01*
X79450000Y-15750000D01*
X78700000Y-15750000D01*
X78700000Y-12250000D01*
X78700000Y-17250000D02*
X79450000Y-17250000D01*
X79450000Y-19050000D01*
X78700000Y-19050000D01*
X78700000Y-17250000D01*
X73490000Y-8940000D02*
X79460000Y-8940000D01*
X79460000Y-19060000D01*
X73490000Y-19060000D01*
X73490000Y-8940000D01*
%TO.C,J1*%
X10340000Y-1980000D02*
X20740000Y-1980000D01*
X10340000Y-4100000D02*
X20740000Y-4100000D01*
X10340000Y-10300000D02*
X20740000Y-10300000D01*
X10340000Y-12800000D02*
X20740000Y-12800000D01*
X10340000Y-13420000D02*
X10340000Y-1980000D01*
X12700000Y-13420000D02*
X10340000Y-13420000D01*
X20740000Y-1980000D02*
X20740000Y-13420000D01*
X20740000Y-13420000D02*
X13300000Y-13420000D01*
X13000000Y-13420000D02*
X13440000Y-14030000D01*
X12560000Y-14030000D01*
X13000000Y-13420000D01*
G36*
X13440000Y-14030000D02*
G01*
X12560000Y-14030000D01*
X13000000Y-13420000D01*
X13440000Y-14030000D01*
G37*
%TO.C,J5*%
X74250000Y-51700000D02*
X74250000Y-56000000D01*
X74250000Y-60300000D02*
X74250000Y-56000000D01*
X77200000Y-50950000D02*
X77200000Y-51700000D01*
X77200000Y-51700000D02*
X74250000Y-51700000D01*
X77200000Y-60300000D02*
X74250000Y-60300000D01*
X77200000Y-61050000D02*
X77200000Y-60300000D01*
X79750000Y-50650000D02*
X78500000Y-50650000D01*
X79750000Y-51900000D02*
X79750000Y-50650000D01*
X78700000Y-50950000D02*
X79450000Y-50950000D01*
X79450000Y-52750000D01*
X78700000Y-52750000D01*
X78700000Y-50950000D01*
X78700000Y-54250000D02*
X79450000Y-54250000D01*
X79450000Y-57750000D01*
X78700000Y-57750000D01*
X78700000Y-54250000D01*
X78700000Y-59250000D02*
X79450000Y-59250000D01*
X79450000Y-61050000D01*
X78700000Y-61050000D01*
X78700000Y-59250000D01*
X73490000Y-50940000D02*
X79460000Y-50940000D01*
X79460000Y-61060000D01*
X73490000Y-61060000D01*
X73490000Y-50940000D01*
%TD*%
%LPC*%
D14*
%TO.C,H2*%
X69500000Y-39500000D03*
%TD*%
D15*
%TO.C,J4*%
X77000000Y-39500000D03*
D16*
X77000000Y-42000000D03*
X77000000Y-44500000D03*
%TD*%
D17*
%TO.C,H8*%
X81000000Y-66000000D03*
%TD*%
D14*
%TO.C,H3*%
X11500000Y-62500000D03*
%TD*%
%TO.C,H1*%
X11500000Y-39500000D03*
%TD*%
%TO.C,H4*%
X69500000Y-62500000D03*
%TD*%
D17*
%TO.C,H7*%
X4000000Y-66000000D03*
%TD*%
%TO.C,H6*%
X81000000Y-4000000D03*
%TD*%
D15*
%TO.C,J3*%
X77000000Y-25500000D03*
D16*
X77000000Y-28000000D03*
X77000000Y-30500000D03*
%TD*%
D15*
%TO.C,J2*%
X77000000Y-11500000D03*
D16*
X77000000Y-14000000D03*
X77000000Y-16500000D03*
%TD*%
D18*
%TO.C,J1*%
X13000000Y-8000000D03*
D19*
X18080000Y-8000000D03*
%TD*%
D15*
%TO.C,J5*%
X77000000Y-53500000D03*
D16*
X77000000Y-56000000D03*
X77000000Y-58500000D03*
%TD*%
D17*
%TO.C,H5*%
X4000000Y-4000000D03*
%TD*%
D20*
%TO.C,J6*%
X16370000Y-40770000D03*
D21*
X16370000Y-38230000D03*
X18910000Y-40770000D03*
X18910000Y-38230000D03*
X21450000Y-40770000D03*
X21450000Y-38230000D03*
X23990000Y-40770000D03*
X23990000Y-38230000D03*
X26530000Y-40770000D03*
X26530000Y-38230000D03*
X29070000Y-40770000D03*
X29070000Y-38230000D03*
X31610000Y-40770000D03*
X31610000Y-38230000D03*
X34150000Y-40770000D03*
X34150000Y-38230000D03*
X36690000Y-40770000D03*
X36690000Y-38230000D03*
X39230000Y-40770000D03*
X39230000Y-38230000D03*
X41770000Y-40770000D03*
X41770000Y-38230000D03*
X44310000Y-40770000D03*
X44310000Y-38230000D03*
X46850000Y-40770000D03*
X46850000Y-38230000D03*
X49390000Y-40770000D03*
X49390000Y-38230000D03*
X51930000Y-40770000D03*
X51930000Y-38230000D03*
X54470000Y-40770000D03*
X54470000Y-38230000D03*
X57010000Y-40770000D03*
X57010000Y-38230000D03*
X59550000Y-40770000D03*
X59550000Y-38230000D03*
X62090000Y-40770000D03*
X62090000Y-38230000D03*
X64630000Y-40770000D03*
X64630000Y-38230000D03*
%TD*%
%LPD*%
M02*
