%TF.GenerationSoftware,KiCad,Pcbnew,10.0.4*%
%TF.CreationDate,2026-07-12T06:04:19+02:00*%
%TF.ProjectId,led-controller-simple,6c65642d-636f-46e7-9472-6f6c6c65722d,rev?*%
%TF.SameCoordinates,Original*%
%TF.FileFunction,Copper,L2,Bot*%
%TF.FilePolarity,Positive*%
%FSLAX46Y46*%
G04 Gerber Fmt 4.6, Leading zero omitted, Abs format (unit mm)*
G04 Created by KiCad (PCBNEW 10.0.4) date 2026-07-12 06:04:19*
%MOMM*%
%LPD*%
G01*
G04 APERTURE LIST*
G04 Aperture macros list*
%AMRoundRect*
0 Rectangle with rounded corners*
0 $1 Rounding radius*
0 $2 $3 $4 $5 $6 $7 $8 $9 X,Y pos of 4 corners*
0 Add a 4 corners polygon primitive as box body*
4,1,4,$2,$3,$4,$5,$6,$7,$8,$9,$2,$3,0*
0 Add four circle primitives for the rounded corners*
1,1,$1+$1,$2,$3*
1,1,$1+$1,$4,$5*
1,1,$1+$1,$6,$7*
1,1,$1+$1,$8,$9*
0 Add four rect primitives between the rounded corners*
20,1,$1+$1,$2,$3,$4,$5,0*
20,1,$1+$1,$4,$5,$6,$7,0*
20,1,$1+$1,$6,$7,$8,$9,0*
20,1,$1+$1,$8,$9,$2,$3,0*%
G04 Aperture macros list end*
%TA.AperFunction,ComponentPad*%
%ADD10RoundRect,0.250000X-0.725000X0.600000X-0.725000X-0.600000X0.725000X-0.600000X0.725000X0.600000X0*%
%TD*%
%TA.AperFunction,ComponentPad*%
%ADD11O,1.950000X1.700000*%
%TD*%
%TA.AperFunction,ComponentPad*%
%ADD12RoundRect,0.250000X-1.050000X-1.050000X1.050000X-1.050000X1.050000X1.050000X-1.050000X1.050000X0*%
%TD*%
%TA.AperFunction,ComponentPad*%
%ADD13C,2.600000*%
%TD*%
%TA.AperFunction,ComponentPad*%
%ADD14R,1.700000X1.700000*%
%TD*%
%TA.AperFunction,ComponentPad*%
%ADD15C,1.700000*%
%TD*%
G04 APERTURE END LIST*
D10*
%TO.P,J4,1*%
%TO.N,+5V*%
X77000000Y-39500000D03*
D11*
%TO.P,J4,2*%
%TO.N,DATA_GPIO13*%
X77000000Y-42000000D03*
%TO.P,J4,3*%
%TO.N,GND*%
X77000000Y-44500000D03*
%TD*%
D10*
%TO.P,J3,1*%
%TO.N,+5V*%
X77000000Y-25500000D03*
D11*
%TO.P,J3,2*%
%TO.N,DATA_GPIO21*%
X77000000Y-28000000D03*
%TO.P,J3,3*%
%TO.N,GND*%
X77000000Y-30500000D03*
%TD*%
D10*
%TO.P,J2,1*%
%TO.N,+5V*%
X77000000Y-11500000D03*
D11*
%TO.P,J2,2*%
%TO.N,DATA_GPIO18*%
X77000000Y-14000000D03*
%TO.P,J2,3*%
%TO.N,GND*%
X77000000Y-16500000D03*
%TD*%
D12*
%TO.P,J1,1*%
%TO.N,+5V*%
X13000000Y-8000000D03*
D13*
%TO.P,J1,2*%
%TO.N,GND*%
X18080000Y-8000000D03*
%TD*%
D10*
%TO.P,J5,1*%
%TO.N,+5V*%
X77000000Y-53500000D03*
D11*
%TO.P,J5,2*%
%TO.N,DATA_GPIO10*%
X77000000Y-56000000D03*
%TO.P,J5,3*%
%TO.N,GND*%
X77000000Y-58500000D03*
%TD*%
D14*
%TO.P,J6,1*%
%TO.N,N/C*%
X16370000Y-40770000D03*
D15*
%TO.P,J6,2*%
%TO.N,+5V*%
X16370000Y-38230000D03*
%TO.P,J6,3*%
%TO.N,N/C*%
X18910000Y-40770000D03*
%TO.P,J6,4*%
%TO.N,+5V*%
X18910000Y-38230000D03*
%TO.P,J6,5*%
%TO.N,N/C*%
X21450000Y-40770000D03*
%TO.P,J6,6*%
%TO.N,GND*%
X21450000Y-38230000D03*
%TO.P,J6,7*%
%TO.N,N/C*%
X23990000Y-40770000D03*
%TO.P,J6,8*%
X23990000Y-38230000D03*
%TO.P,J6,9*%
%TO.N,GND*%
X26530000Y-40770000D03*
%TO.P,J6,10*%
%TO.N,N/C*%
X26530000Y-38230000D03*
%TO.P,J6,11*%
X29070000Y-40770000D03*
%TO.P,J6,12*%
%TO.N,DATA_GPIO18*%
X29070000Y-38230000D03*
%TO.P,J6,13*%
%TO.N,N/C*%
X31610000Y-40770000D03*
%TO.P,J6,14*%
%TO.N,GND*%
X31610000Y-38230000D03*
%TO.P,J6,15*%
%TO.N,N/C*%
X34150000Y-40770000D03*
%TO.P,J6,16*%
X34150000Y-38230000D03*
%TO.P,J6,17*%
X36690000Y-40770000D03*
%TO.P,J6,18*%
X36690000Y-38230000D03*
%TO.P,J6,19*%
%TO.N,DATA_GPIO10*%
X39230000Y-40770000D03*
%TO.P,J6,20*%
%TO.N,GND*%
X39230000Y-38230000D03*
%TO.P,J6,21*%
%TO.N,N/C*%
X41770000Y-40770000D03*
%TO.P,J6,22*%
X41770000Y-38230000D03*
%TO.P,J6,23*%
X44310000Y-40770000D03*
%TO.P,J6,24*%
X44310000Y-38230000D03*
%TO.P,J6,25*%
%TO.N,GND*%
X46850000Y-40770000D03*
%TO.P,J6,26*%
%TO.N,N/C*%
X46850000Y-38230000D03*
%TO.P,J6,27*%
X49390000Y-40770000D03*
%TO.P,J6,28*%
X49390000Y-38230000D03*
%TO.P,J6,29*%
X51930000Y-40770000D03*
%TO.P,J6,30*%
%TO.N,GND*%
X51930000Y-38230000D03*
%TO.P,J6,31*%
%TO.N,N/C*%
X54470000Y-40770000D03*
%TO.P,J6,32*%
X54470000Y-38230000D03*
%TO.P,J6,33*%
%TO.N,DATA_GPIO13*%
X57010000Y-40770000D03*
%TO.P,J6,34*%
%TO.N,GND*%
X57010000Y-38230000D03*
%TO.P,J6,35*%
%TO.N,N/C*%
X59550000Y-40770000D03*
%TO.P,J6,36*%
X59550000Y-38230000D03*
%TO.P,J6,37*%
X62090000Y-40770000D03*
%TO.P,J6,38*%
X62090000Y-38230000D03*
%TO.P,J6,39*%
%TO.N,GND*%
X64630000Y-40770000D03*
%TO.P,J6,40*%
%TO.N,DATA_GPIO21*%
X64630000Y-38230000D03*
%TD*%
%TA.AperFunction,Conductor*%
%TO.N,GND*%
G36*
X84442539Y-520185D02*
G01*
X84488294Y-572989D01*
X84499500Y-624500D01*
X84499500Y-69375500D01*
X84479815Y-69442539D01*
X84427011Y-69488294D01*
X84375500Y-69499500D01*
X624500Y-69499500D01*
X557461Y-69479815D01*
X511706Y-69427011D01*
X500500Y-69375500D01*
X500500Y-65878711D01*
X2149500Y-65878711D01*
X2149500Y-66121288D01*
X2181161Y-66361785D01*
X2243947Y-66596104D01*
X2336773Y-66820205D01*
X2336776Y-66820212D01*
X2458064Y-67030289D01*
X2458066Y-67030292D01*
X2458067Y-67030293D01*
X2605733Y-67222736D01*
X2605739Y-67222743D01*
X2777256Y-67394260D01*
X2777262Y-67394265D01*
X2969711Y-67541936D01*
X3179788Y-67663224D01*
X3403900Y-67756054D01*
X3638211Y-67818838D01*
X3818586Y-67842584D01*
X3878711Y-67850500D01*
X3878712Y-67850500D01*
X4121289Y-67850500D01*
X4169388Y-67844167D01*
X4361789Y-67818838D01*
X4596100Y-67756054D01*
X4820212Y-67663224D01*
X5030289Y-67541936D01*
X5222738Y-67394265D01*
X5394265Y-67222738D01*
X5541936Y-67030289D01*
X5663224Y-66820212D01*
X5756054Y-66596100D01*
X5818838Y-66361789D01*
X5850500Y-66121288D01*
X5850500Y-65878712D01*
X5850500Y-65878711D01*
X79149500Y-65878711D01*
X79149500Y-66121288D01*
X79181161Y-66361785D01*
X79243947Y-66596104D01*
X79336773Y-66820205D01*
X79336776Y-66820212D01*
X79458064Y-67030289D01*
X79458066Y-67030292D01*
X79458067Y-67030293D01*
X79605733Y-67222736D01*
X79605739Y-67222743D01*
X79777256Y-67394260D01*
X79777262Y-67394265D01*
X79969711Y-67541936D01*
X80179788Y-67663224D01*
X80403900Y-67756054D01*
X80638211Y-67818838D01*
X80818586Y-67842584D01*
X80878711Y-67850500D01*
X80878712Y-67850500D01*
X81121289Y-67850500D01*
X81169388Y-67844167D01*
X81361789Y-67818838D01*
X81596100Y-67756054D01*
X81820212Y-67663224D01*
X82030289Y-67541936D01*
X82222738Y-67394265D01*
X82394265Y-67222738D01*
X82541936Y-67030289D01*
X82663224Y-66820212D01*
X82756054Y-66596100D01*
X82818838Y-66361789D01*
X82850500Y-66121288D01*
X82850500Y-65878712D01*
X82818838Y-65638211D01*
X82756054Y-65403900D01*
X82663224Y-65179788D01*
X82541936Y-64969711D01*
X82394265Y-64777262D01*
X82394260Y-64777256D01*
X82222743Y-64605739D01*
X82222736Y-64605733D01*
X82030293Y-64458067D01*
X82030292Y-64458066D01*
X82030289Y-64458064D01*
X81820212Y-64336776D01*
X81820205Y-64336773D01*
X81596104Y-64243947D01*
X81361785Y-64181161D01*
X81121289Y-64149500D01*
X81121288Y-64149500D01*
X80878712Y-64149500D01*
X80878711Y-64149500D01*
X80638214Y-64181161D01*
X80403895Y-64243947D01*
X80179794Y-64336773D01*
X80179785Y-64336777D01*
X79969706Y-64458067D01*
X79777263Y-64605733D01*
X79777256Y-64605739D01*
X79605739Y-64777256D01*
X79605733Y-64777263D01*
X79458067Y-64969706D01*
X79336777Y-65179785D01*
X79336773Y-65179794D01*
X79243947Y-65403895D01*
X79181161Y-65638214D01*
X79149500Y-65878711D01*
X5850500Y-65878711D01*
X5818838Y-65638211D01*
X5756054Y-65403900D01*
X5663224Y-65179788D01*
X5541936Y-64969711D01*
X5394265Y-64777262D01*
X5394260Y-64777256D01*
X5222743Y-64605739D01*
X5222736Y-64605733D01*
X5030293Y-64458067D01*
X5030292Y-64458066D01*
X5030289Y-64458064D01*
X4820212Y-64336776D01*
X4820205Y-64336773D01*
X4596104Y-64243947D01*
X4361785Y-64181161D01*
X4121289Y-64149500D01*
X4121288Y-64149500D01*
X3878712Y-64149500D01*
X3878711Y-64149500D01*
X3638214Y-64181161D01*
X3403895Y-64243947D01*
X3179794Y-64336773D01*
X3179785Y-64336777D01*
X2969706Y-64458067D01*
X2777263Y-64605733D01*
X2777256Y-64605739D01*
X2605739Y-64777256D01*
X2605733Y-64777263D01*
X2458067Y-64969706D01*
X2336777Y-65179785D01*
X2336773Y-65179794D01*
X2243947Y-65403895D01*
X2181161Y-65638214D01*
X2149500Y-65878711D01*
X500500Y-65878711D01*
X500500Y-62374038D01*
X9899500Y-62374038D01*
X9899500Y-62625961D01*
X9938910Y-62874785D01*
X10016760Y-63114383D01*
X10131132Y-63338848D01*
X10279201Y-63542649D01*
X10279205Y-63542654D01*
X10457345Y-63720794D01*
X10457350Y-63720798D01*
X10635117Y-63849952D01*
X10661155Y-63868870D01*
X10804184Y-63941747D01*
X10885616Y-63983239D01*
X10885618Y-63983239D01*
X10885621Y-63983241D01*
X11125215Y-64061090D01*
X11374038Y-64100500D01*
X11374039Y-64100500D01*
X11625961Y-64100500D01*
X11625962Y-64100500D01*
X11874785Y-64061090D01*
X12114379Y-63983241D01*
X12338845Y-63868870D01*
X12542656Y-63720793D01*
X12720793Y-63542656D01*
X12868870Y-63338845D01*
X12983241Y-63114379D01*
X13061090Y-62874785D01*
X13100500Y-62625962D01*
X13100500Y-62374038D01*
X67899500Y-62374038D01*
X67899500Y-62625961D01*
X67938910Y-62874785D01*
X68016760Y-63114383D01*
X68131132Y-63338848D01*
X68279201Y-63542649D01*
X68279205Y-63542654D01*
X68457345Y-63720794D01*
X68457350Y-63720798D01*
X68635117Y-63849952D01*
X68661155Y-63868870D01*
X68804184Y-63941747D01*
X68885616Y-63983239D01*
X68885618Y-63983239D01*
X68885621Y-63983241D01*
X69125215Y-64061090D01*
X69374038Y-64100500D01*
X69374039Y-64100500D01*
X69625961Y-64100500D01*
X69625962Y-64100500D01*
X69874785Y-64061090D01*
X70114379Y-63983241D01*
X70338845Y-63868870D01*
X70542656Y-63720793D01*
X70720793Y-63542656D01*
X70868870Y-63338845D01*
X70983241Y-63114379D01*
X71061090Y-62874785D01*
X71100500Y-62625962D01*
X71100500Y-62374038D01*
X71061090Y-62125215D01*
X70983241Y-61885621D01*
X70983239Y-61885618D01*
X70983239Y-61885616D01*
X70941747Y-61804184D01*
X70868870Y-61661155D01*
X70849952Y-61635117D01*
X70720798Y-61457350D01*
X70720794Y-61457345D01*
X70542654Y-61279205D01*
X70542649Y-61279201D01*
X70338848Y-61131132D01*
X70338847Y-61131131D01*
X70338845Y-61131130D01*
X70268747Y-61095413D01*
X70114383Y-61016760D01*
X69874785Y-60938910D01*
X69625962Y-60899500D01*
X69374038Y-60899500D01*
X69249626Y-60919205D01*
X69125214Y-60938910D01*
X68885616Y-61016760D01*
X68661151Y-61131132D01*
X68457350Y-61279201D01*
X68457345Y-61279205D01*
X68279205Y-61457345D01*
X68279201Y-61457350D01*
X68131132Y-61661151D01*
X68016760Y-61885616D01*
X67938910Y-62125214D01*
X67899500Y-62374038D01*
X13100500Y-62374038D01*
X13061090Y-62125215D01*
X12983241Y-61885621D01*
X12983239Y-61885618D01*
X12983239Y-61885616D01*
X12941747Y-61804184D01*
X12868870Y-61661155D01*
X12849952Y-61635117D01*
X12720798Y-61457350D01*
X12720794Y-61457345D01*
X12542654Y-61279205D01*
X12542649Y-61279201D01*
X12338848Y-61131132D01*
X12338847Y-61131131D01*
X12338845Y-61131130D01*
X12268747Y-61095413D01*
X12114383Y-61016760D01*
X11874785Y-60938910D01*
X11625962Y-60899500D01*
X11374038Y-60899500D01*
X11249626Y-60919205D01*
X11125214Y-60938910D01*
X10885616Y-61016760D01*
X10661151Y-61131132D01*
X10457350Y-61279201D01*
X10457345Y-61279205D01*
X10279205Y-61457345D01*
X10279201Y-61457350D01*
X10131132Y-61661151D01*
X10016760Y-61885616D01*
X9938910Y-62125214D01*
X9899500Y-62374038D01*
X500500Y-62374038D01*
X500500Y-59000001D01*
X75617985Y-59000001D01*
X75623903Y-59018215D01*
X75720379Y-59207557D01*
X75845272Y-59379459D01*
X75845276Y-59379464D01*
X75995535Y-59529723D01*
X75995540Y-59529727D01*
X76167442Y-59654620D01*
X76356779Y-59751094D01*
X76356785Y-59751096D01*
X76499999Y-59797628D01*
X77500000Y-59797628D01*
X77643214Y-59751096D01*
X77643220Y-59751094D01*
X77832557Y-59654620D01*
X78004459Y-59529727D01*
X78004464Y-59529723D01*
X78154723Y-59379464D01*
X78154727Y-59379459D01*
X78279620Y-59207557D01*
X78376096Y-59018215D01*
X78382014Y-59000001D01*
X78382014Y-59000000D01*
X77500000Y-59000000D01*
X77500000Y-59797628D01*
X76499999Y-59797628D01*
X76500000Y-59797627D01*
X76500000Y-59000000D01*
X75617986Y-59000000D01*
X75617985Y-59000001D01*
X500500Y-59000001D01*
X500500Y-58437465D01*
X76525000Y-58437465D01*
X76525000Y-58562535D01*
X76557370Y-58683343D01*
X76619905Y-58791657D01*
X76708343Y-58880095D01*
X76816657Y-58942630D01*
X76937465Y-58975000D01*
X77062535Y-58975000D01*
X77183343Y-58942630D01*
X77291657Y-58880095D01*
X77380095Y-58791657D01*
X77442630Y-58683343D01*
X77475000Y-58562535D01*
X77475000Y-58437465D01*
X77442630Y-58316657D01*
X77380095Y-58208343D01*
X77291657Y-58119905D01*
X77183343Y-58057370D01*
X77062535Y-58025000D01*
X76937465Y-58025000D01*
X76816657Y-58057370D01*
X76708343Y-58119905D01*
X76619905Y-58208343D01*
X76557370Y-58316657D01*
X76525000Y-58437465D01*
X500500Y-58437465D01*
X500500Y-57999998D01*
X75617985Y-57999998D01*
X75617986Y-58000000D01*
X78382014Y-58000000D01*
X78382014Y-57999998D01*
X78376096Y-57981784D01*
X78279620Y-57792442D01*
X78154727Y-57620540D01*
X78154723Y-57620535D01*
X78004464Y-57470276D01*
X78004459Y-57470272D01*
X77832557Y-57345379D01*
X77642488Y-57248533D01*
X77591692Y-57200558D01*
X77574897Y-57132737D01*
X77597435Y-57066602D01*
X77642489Y-57027563D01*
X77727994Y-56983996D01*
X77874501Y-56877553D01*
X78002553Y-56749501D01*
X78108996Y-56602994D01*
X78191211Y-56441639D01*
X78247171Y-56269409D01*
X78261765Y-56177259D01*
X78275500Y-56090551D01*
X78275500Y-55909448D01*
X78259019Y-55805397D01*
X78247171Y-55730591D01*
X78191211Y-55558361D01*
X78191211Y-55558360D01*
X78162740Y-55502484D01*
X78108996Y-55397006D01*
X78095396Y-55378287D01*
X78002558Y-55250505D01*
X78002554Y-55250500D01*
X77874499Y-55122445D01*
X77874494Y-55122441D01*
X77727997Y-55016006D01*
X77727996Y-55016005D01*
X77727994Y-55016004D01*
X77676300Y-54989664D01*
X77566639Y-54933788D01*
X77566636Y-54933787D01*
X77439351Y-54892431D01*
X77381676Y-54852994D01*
X77354477Y-54788636D01*
X77366391Y-54719789D01*
X77413635Y-54668313D01*
X77477669Y-54650500D01*
X77768097Y-54650500D01*
X77768102Y-54650500D01*
X77856564Y-54639877D01*
X77997342Y-54584361D01*
X78117922Y-54492922D01*
X78209361Y-54372342D01*
X78264877Y-54231564D01*
X78275500Y-54143102D01*
X78275500Y-52856898D01*
X78264877Y-52768436D01*
X78209361Y-52627658D01*
X78209360Y-52627657D01*
X78209360Y-52627656D01*
X78117922Y-52507077D01*
X77997343Y-52415639D01*
X77856561Y-52360122D01*
X77810926Y-52354642D01*
X77768102Y-52349500D01*
X76231898Y-52349500D01*
X76192853Y-52354188D01*
X76143438Y-52360122D01*
X76002656Y-52415639D01*
X75882077Y-52507077D01*
X75790639Y-52627656D01*
X75735122Y-52768438D01*
X75729188Y-52817853D01*
X75724500Y-52856898D01*
X75724500Y-54143102D01*
X75730126Y-54189954D01*
X75735122Y-54231561D01*
X75790639Y-54372343D01*
X75882077Y-54492922D01*
X76002656Y-54584360D01*
X76002657Y-54584360D01*
X76002658Y-54584361D01*
X76143436Y-54639877D01*
X76231898Y-54650500D01*
X76231903Y-54650500D01*
X76522331Y-54650500D01*
X76589370Y-54670185D01*
X76635125Y-54722989D01*
X76645069Y-54792147D01*
X76616044Y-54855703D01*
X76560649Y-54892431D01*
X76433363Y-54933787D01*
X76433360Y-54933788D01*
X76272002Y-55016006D01*
X76125505Y-55122441D01*
X76125500Y-55122445D01*
X75997445Y-55250500D01*
X75997441Y-55250505D01*
X75891006Y-55397002D01*
X75808788Y-55558360D01*
X75808787Y-55558363D01*
X75752829Y-55730589D01*
X75724500Y-55909448D01*
X75724500Y-56090551D01*
X75752829Y-56269410D01*
X75808787Y-56441636D01*
X75808788Y-56441639D01*
X75891006Y-56602997D01*
X75997441Y-56749494D01*
X75997445Y-56749499D01*
X76125500Y-56877554D01*
X76125505Y-56877558D01*
X76253287Y-56970396D01*
X76272006Y-56983996D01*
X76357511Y-57027563D01*
X76408307Y-57075538D01*
X76425102Y-57143359D01*
X76402565Y-57209494D01*
X76357511Y-57248533D01*
X76167442Y-57345379D01*
X75995540Y-57470272D01*
X75995535Y-57470276D01*
X75845276Y-57620535D01*
X75845272Y-57620540D01*
X75720379Y-57792442D01*
X75623903Y-57981784D01*
X75617985Y-57999998D01*
X500500Y-57999998D01*
X500500Y-45000001D01*
X75617985Y-45000001D01*
X75623903Y-45018215D01*
X75720379Y-45207557D01*
X75845272Y-45379459D01*
X75845276Y-45379464D01*
X75995535Y-45529723D01*
X75995540Y-45529727D01*
X76167442Y-45654620D01*
X76356779Y-45751094D01*
X76356785Y-45751096D01*
X76499999Y-45797628D01*
X77500000Y-45797628D01*
X77643214Y-45751096D01*
X77643220Y-45751094D01*
X77832557Y-45654620D01*
X78004459Y-45529727D01*
X78004464Y-45529723D01*
X78154723Y-45379464D01*
X78154727Y-45379459D01*
X78279620Y-45207557D01*
X78376096Y-45018215D01*
X78382014Y-45000001D01*
X78382014Y-45000000D01*
X77500000Y-45000000D01*
X77500000Y-45797628D01*
X76499999Y-45797628D01*
X76500000Y-45797627D01*
X76500000Y-45000000D01*
X75617986Y-45000000D01*
X75617985Y-45000001D01*
X500500Y-45000001D01*
X500500Y-44437465D01*
X76525000Y-44437465D01*
X76525000Y-44562535D01*
X76557370Y-44683343D01*
X76619905Y-44791657D01*
X76708343Y-44880095D01*
X76816657Y-44942630D01*
X76937465Y-44975000D01*
X77062535Y-44975000D01*
X77183343Y-44942630D01*
X77291657Y-44880095D01*
X77380095Y-44791657D01*
X77442630Y-44683343D01*
X77475000Y-44562535D01*
X77475000Y-44437465D01*
X77442630Y-44316657D01*
X77380095Y-44208343D01*
X77291657Y-44119905D01*
X77183343Y-44057370D01*
X77062535Y-44025000D01*
X76937465Y-44025000D01*
X76816657Y-44057370D01*
X76708343Y-44119905D01*
X76619905Y-44208343D01*
X76557370Y-44316657D01*
X76525000Y-44437465D01*
X500500Y-44437465D01*
X500500Y-43999998D01*
X75617985Y-43999998D01*
X75617986Y-44000000D01*
X78382014Y-44000000D01*
X78382014Y-43999998D01*
X78376096Y-43981784D01*
X78279620Y-43792442D01*
X78154727Y-43620540D01*
X78154723Y-43620535D01*
X78004464Y-43470276D01*
X78004459Y-43470272D01*
X77832557Y-43345379D01*
X77642488Y-43248533D01*
X77591692Y-43200558D01*
X77574897Y-43132737D01*
X77597435Y-43066602D01*
X77642489Y-43027563D01*
X77727994Y-42983996D01*
X77874501Y-42877553D01*
X78002553Y-42749501D01*
X78108996Y-42602994D01*
X78191211Y-42441639D01*
X78247171Y-42269409D01*
X78270835Y-42120000D01*
X78275500Y-42090551D01*
X78275500Y-41909448D01*
X78250877Y-41753993D01*
X78247171Y-41730591D01*
X78191211Y-41558361D01*
X78191211Y-41558360D01*
X78149809Y-41477106D01*
X78108996Y-41397006D01*
X78042360Y-41305289D01*
X78002558Y-41250505D01*
X78002554Y-41250500D01*
X77874499Y-41122445D01*
X77874494Y-41122441D01*
X77727997Y-41016006D01*
X77727996Y-41016005D01*
X77727994Y-41016004D01*
X77676300Y-40989664D01*
X77566639Y-40933788D01*
X77566636Y-40933787D01*
X77439351Y-40892431D01*
X77381676Y-40852994D01*
X77354477Y-40788636D01*
X77366391Y-40719789D01*
X77413635Y-40668313D01*
X77477669Y-40650500D01*
X77768097Y-40650500D01*
X77768102Y-40650500D01*
X77856564Y-40639877D01*
X77997342Y-40584361D01*
X78117922Y-40492922D01*
X78209361Y-40372342D01*
X78264877Y-40231564D01*
X78275500Y-40143102D01*
X78275500Y-38856898D01*
X78264877Y-38768436D01*
X78209361Y-38627658D01*
X78209360Y-38627657D01*
X78209360Y-38627656D01*
X78117922Y-38507077D01*
X77997343Y-38415639D01*
X77856561Y-38360122D01*
X77810926Y-38354642D01*
X77768102Y-38349500D01*
X76231898Y-38349500D01*
X76192853Y-38354188D01*
X76143438Y-38360122D01*
X76002656Y-38415639D01*
X75882077Y-38507077D01*
X75790639Y-38627656D01*
X75735122Y-38768438D01*
X75729188Y-38817853D01*
X75724500Y-38856898D01*
X75724500Y-40143102D01*
X75727371Y-40167006D01*
X75735122Y-40231561D01*
X75735122Y-40231563D01*
X75735123Y-40231564D01*
X75743095Y-40251780D01*
X75790639Y-40372343D01*
X75882077Y-40492922D01*
X76002656Y-40584360D01*
X76002657Y-40584360D01*
X76002658Y-40584361D01*
X76143436Y-40639877D01*
X76231898Y-40650500D01*
X76231903Y-40650500D01*
X76522331Y-40650500D01*
X76589370Y-40670185D01*
X76635125Y-40722989D01*
X76645069Y-40792147D01*
X76616044Y-40855703D01*
X76560649Y-40892431D01*
X76433363Y-40933787D01*
X76433360Y-40933788D01*
X76272002Y-41016006D01*
X76125505Y-41122441D01*
X76125500Y-41122445D01*
X75997445Y-41250500D01*
X75997441Y-41250505D01*
X75891006Y-41397002D01*
X75808788Y-41558360D01*
X75808787Y-41558363D01*
X75752829Y-41730589D01*
X75724500Y-41909448D01*
X75724500Y-42090551D01*
X75752829Y-42269410D01*
X75808787Y-42441636D01*
X75808788Y-42441639D01*
X75891006Y-42602997D01*
X75997441Y-42749494D01*
X75997445Y-42749499D01*
X76125500Y-42877554D01*
X76125505Y-42877558D01*
X76253287Y-42970396D01*
X76272006Y-42983996D01*
X76357511Y-43027563D01*
X76408307Y-43075538D01*
X76425102Y-43143359D01*
X76402565Y-43209494D01*
X76357511Y-43248533D01*
X76167442Y-43345379D01*
X75995540Y-43470272D01*
X75995535Y-43470276D01*
X75845276Y-43620535D01*
X75845272Y-43620540D01*
X75720379Y-43792442D01*
X75623903Y-43981784D01*
X75617985Y-43999998D01*
X500500Y-43999998D01*
X500500Y-42012396D01*
X25994708Y-42012396D01*
X26011780Y-42021094D01*
X26213871Y-42086757D01*
X26423754Y-42120000D01*
X26636246Y-42120000D01*
X26846127Y-42086757D01*
X26846130Y-42086757D01*
X27048218Y-42021094D01*
X27048220Y-42021093D01*
X27065287Y-42012396D01*
X46314708Y-42012396D01*
X46331780Y-42021094D01*
X46533871Y-42086757D01*
X46743754Y-42120000D01*
X46956246Y-42120000D01*
X47166127Y-42086757D01*
X47166130Y-42086757D01*
X47368218Y-42021094D01*
X47368220Y-42021093D01*
X47385287Y-42012396D01*
X64094708Y-42012396D01*
X64111780Y-42021094D01*
X64313871Y-42086757D01*
X64523754Y-42120000D01*
X64736246Y-42120000D01*
X64946127Y-42086757D01*
X64946130Y-42086757D01*
X65148218Y-42021094D01*
X65148220Y-42021093D01*
X65165289Y-42012395D01*
X65165290Y-42012395D01*
X64630001Y-41477106D01*
X64630000Y-41477106D01*
X64094708Y-42012396D01*
X47385287Y-42012396D01*
X47385289Y-42012395D01*
X47385290Y-42012395D01*
X46850001Y-41477106D01*
X46850000Y-41477106D01*
X46314708Y-42012396D01*
X27065287Y-42012396D01*
X27065289Y-42012395D01*
X27065290Y-42012395D01*
X26530001Y-41477106D01*
X26530000Y-41477106D01*
X25994708Y-42012396D01*
X500500Y-42012396D01*
X500500Y-39374038D01*
X9899500Y-39374038D01*
X9899500Y-39625962D01*
X9918708Y-39747234D01*
X9938910Y-39874785D01*
X10016760Y-40114383D01*
X10078070Y-40234709D01*
X10125789Y-40328363D01*
X10131132Y-40338848D01*
X10279201Y-40542649D01*
X10279205Y-40542654D01*
X10457345Y-40720794D01*
X10457350Y-40720798D01*
X10592326Y-40818863D01*
X10661155Y-40868870D01*
X10775493Y-40927128D01*
X10885616Y-40983239D01*
X10885618Y-40983239D01*
X10885621Y-40983241D01*
X11125215Y-41061090D01*
X11374038Y-41100500D01*
X11374039Y-41100500D01*
X11625961Y-41100500D01*
X11625962Y-41100500D01*
X11874785Y-41061090D01*
X12114379Y-40983241D01*
X12338845Y-40868870D01*
X12542656Y-40720793D01*
X12720793Y-40542656D01*
X12868870Y-40338845D01*
X12983241Y-40114379D01*
X13061090Y-39874785D01*
X13100500Y-39625962D01*
X13100500Y-39374038D01*
X13061090Y-39125215D01*
X12983241Y-38885621D01*
X12983239Y-38885618D01*
X12983239Y-38885616D01*
X12913234Y-38748225D01*
X12868870Y-38661155D01*
X12844532Y-38627656D01*
X12720798Y-38457350D01*
X12720794Y-38457345D01*
X12542654Y-38279205D01*
X12542649Y-38279201D01*
X12481674Y-38234900D01*
X12350294Y-38139448D01*
X15219500Y-38139448D01*
X15219500Y-38320551D01*
X15247829Y-38499410D01*
X15303787Y-38671636D01*
X15303788Y-38671639D01*
X15386006Y-38832997D01*
X15492441Y-38979494D01*
X15492445Y-38979499D01*
X15620500Y-39107554D01*
X15620505Y-39107558D01*
X15748287Y-39200396D01*
X15767006Y-39213996D01*
X15854705Y-39258681D01*
X15928360Y-39296211D01*
X15928363Y-39296212D01*
X15944411Y-39301426D01*
X16100591Y-39352171D01*
X16204716Y-39368662D01*
X16232270Y-39373027D01*
X16295405Y-39402956D01*
X16332336Y-39462268D01*
X16331338Y-39532130D01*
X16292728Y-39590363D01*
X16228765Y-39618477D01*
X16212872Y-39619500D01*
X15475143Y-39619500D01*
X15475117Y-39619502D01*
X15450012Y-39622413D01*
X15450008Y-39622415D01*
X15347235Y-39667793D01*
X15267794Y-39747234D01*
X15222415Y-39850006D01*
X15222415Y-39850008D01*
X15219500Y-39875131D01*
X15219500Y-41664856D01*
X15219502Y-41664882D01*
X15222413Y-41689987D01*
X15222415Y-41689991D01*
X15267793Y-41792764D01*
X15267794Y-41792765D01*
X15347235Y-41872206D01*
X15450009Y-41917585D01*
X15475135Y-41920500D01*
X17264864Y-41920499D01*
X17264879Y-41920497D01*
X17264882Y-41920497D01*
X17289987Y-41917586D01*
X17289988Y-41917585D01*
X17289991Y-41917585D01*
X17392765Y-41872206D01*
X17472206Y-41792765D01*
X17517585Y-41689991D01*
X17520500Y-41664865D01*
X17520499Y-40927125D01*
X17540183Y-40860089D01*
X17592987Y-40814334D01*
X17662146Y-40804390D01*
X17725702Y-40833415D01*
X17763476Y-40892193D01*
X17766972Y-40907729D01*
X17787829Y-41039410D01*
X17843787Y-41211636D01*
X17843788Y-41211639D01*
X17926006Y-41372997D01*
X18032441Y-41519494D01*
X18032445Y-41519499D01*
X18160500Y-41647554D01*
X18160505Y-41647558D01*
X18274789Y-41730589D01*
X18307006Y-41753996D01*
X18383094Y-41792765D01*
X18468360Y-41836211D01*
X18468363Y-41836212D01*
X18515293Y-41851460D01*
X18640591Y-41892171D01*
X18723429Y-41905291D01*
X18819449Y-41920500D01*
X18819454Y-41920500D01*
X19000551Y-41920500D01*
X19087259Y-41906765D01*
X19179409Y-41892171D01*
X19351639Y-41836211D01*
X19512994Y-41753996D01*
X19659501Y-41647553D01*
X19787553Y-41519501D01*
X19893996Y-41372994D01*
X19976211Y-41211639D01*
X20032171Y-41039409D01*
X20046422Y-40949425D01*
X20057527Y-40879321D01*
X20087456Y-40816186D01*
X20146768Y-40779255D01*
X20216630Y-40780253D01*
X20274863Y-40818863D01*
X20302473Y-40879321D01*
X20327829Y-41039410D01*
X20383787Y-41211636D01*
X20383788Y-41211639D01*
X20466006Y-41372997D01*
X20572441Y-41519494D01*
X20572445Y-41519499D01*
X20700500Y-41647554D01*
X20700505Y-41647558D01*
X20814789Y-41730589D01*
X20847006Y-41753996D01*
X20923094Y-41792765D01*
X21008360Y-41836211D01*
X21008363Y-41836212D01*
X21055293Y-41851460D01*
X21180591Y-41892171D01*
X21263429Y-41905291D01*
X21359449Y-41920500D01*
X21359454Y-41920500D01*
X21540551Y-41920500D01*
X21627259Y-41906765D01*
X21719409Y-41892171D01*
X21891639Y-41836211D01*
X22052994Y-41753996D01*
X22199501Y-41647553D01*
X22327553Y-41519501D01*
X22433996Y-41372994D01*
X22516211Y-41211639D01*
X22572171Y-41039409D01*
X22586422Y-40949425D01*
X22597527Y-40879321D01*
X22627456Y-40816186D01*
X22686768Y-40779255D01*
X22756630Y-40780253D01*
X22814863Y-40818863D01*
X22842473Y-40879321D01*
X22867829Y-41039410D01*
X22923787Y-41211636D01*
X22923788Y-41211639D01*
X23006006Y-41372997D01*
X23112441Y-41519494D01*
X23112445Y-41519499D01*
X23240500Y-41647554D01*
X23240505Y-41647558D01*
X23354789Y-41730589D01*
X23387006Y-41753996D01*
X23463094Y-41792765D01*
X23548360Y-41836211D01*
X23548363Y-41836212D01*
X23595293Y-41851460D01*
X23720591Y-41892171D01*
X23803429Y-41905291D01*
X23899449Y-41920500D01*
X23899454Y-41920500D01*
X24080551Y-41920500D01*
X24188120Y-41903462D01*
X24259409Y-41892171D01*
X24384707Y-41851460D01*
X24384708Y-41851460D01*
X24431636Y-41836212D01*
X24431639Y-41836211D01*
X24592994Y-41753996D01*
X24739501Y-41647553D01*
X24867553Y-41519501D01*
X24973996Y-41372994D01*
X25041091Y-41241312D01*
X25089064Y-41190518D01*
X25156885Y-41173723D01*
X25223020Y-41196260D01*
X25266472Y-41250975D01*
X25269506Y-41259291D01*
X25278903Y-41288213D01*
X25278908Y-41288225D01*
X25287602Y-41305289D01*
X25287603Y-41305290D01*
X25822894Y-40770000D01*
X25757068Y-40704174D01*
X26030000Y-40704174D01*
X26030000Y-40835826D01*
X26064075Y-40962993D01*
X26129901Y-41077007D01*
X26222993Y-41170099D01*
X26337007Y-41235925D01*
X26464174Y-41270000D01*
X26595826Y-41270000D01*
X26722993Y-41235925D01*
X26837007Y-41170099D01*
X26930099Y-41077007D01*
X26995925Y-40962993D01*
X27030000Y-40835826D01*
X27030000Y-40704174D01*
X26995925Y-40577007D01*
X26930099Y-40462993D01*
X26837007Y-40369901D01*
X26722993Y-40304075D01*
X26595826Y-40270000D01*
X26464174Y-40270000D01*
X26337007Y-40304075D01*
X26222993Y-40369901D01*
X26129901Y-40462993D01*
X26064075Y-40577007D01*
X26030000Y-40704174D01*
X25757068Y-40704174D01*
X25287603Y-40234709D01*
X25278903Y-40251785D01*
X25269505Y-40280710D01*
X25230067Y-40338385D01*
X25165708Y-40365582D01*
X25096861Y-40353666D01*
X25045387Y-40306421D01*
X25041090Y-40298685D01*
X25017191Y-40251781D01*
X24973996Y-40167006D01*
X24956624Y-40143096D01*
X24867558Y-40020505D01*
X24867554Y-40020500D01*
X24739499Y-39892445D01*
X24739494Y-39892441D01*
X24592997Y-39786006D01*
X24592996Y-39786005D01*
X24592994Y-39786004D01*
X24516906Y-39747235D01*
X24431639Y-39703788D01*
X24431636Y-39703787D01*
X24259410Y-39647829D01*
X24099321Y-39622473D01*
X24036186Y-39592544D01*
X23999255Y-39533232D01*
X24000253Y-39463370D01*
X24038863Y-39405137D01*
X24099321Y-39377527D01*
X24169425Y-39366422D01*
X24259409Y-39352171D01*
X24431639Y-39296211D01*
X24592994Y-39213996D01*
X24739501Y-39107553D01*
X24867553Y-38979501D01*
X24973996Y-38832994D01*
X25056211Y-38671639D01*
X25112171Y-38499409D01*
X25134232Y-38360122D01*
X25137527Y-38339321D01*
X25167456Y-38276186D01*
X25226768Y-38239255D01*
X25296630Y-38240253D01*
X25354863Y-38278863D01*
X25382473Y-38339321D01*
X25407829Y-38499410D01*
X25463787Y-38671636D01*
X25463788Y-38671639D01*
X25546006Y-38832997D01*
X25652441Y-38979494D01*
X25652445Y-38979499D01*
X25780500Y-39107554D01*
X25780505Y-39107558D01*
X25908287Y-39200396D01*
X25927006Y-39213996D01*
X26058685Y-39281090D01*
X26109481Y-39329065D01*
X26126276Y-39396886D01*
X26103738Y-39463021D01*
X26049023Y-39506472D01*
X26040710Y-39509505D01*
X26011785Y-39518903D01*
X25994709Y-39527603D01*
X26530000Y-40062894D01*
X26530001Y-40062894D01*
X27065290Y-39527603D01*
X27065289Y-39527602D01*
X27048225Y-39518908D01*
X27048213Y-39518903D01*
X27019291Y-39509506D01*
X26961615Y-39470068D01*
X26934417Y-39405710D01*
X26946332Y-39336863D01*
X26993576Y-39285388D01*
X27001297Y-39281098D01*
X27132994Y-39213996D01*
X27279501Y-39107553D01*
X27407553Y-38979501D01*
X27513996Y-38832994D01*
X27596211Y-38671639D01*
X27652171Y-38499409D01*
X27674232Y-38360122D01*
X27677527Y-38339321D01*
X27707456Y-38276186D01*
X27766768Y-38239255D01*
X27836630Y-38240253D01*
X27894863Y-38278863D01*
X27922473Y-38339321D01*
X27947829Y-38499410D01*
X28003787Y-38671636D01*
X28003788Y-38671639D01*
X28086006Y-38832997D01*
X28192441Y-38979494D01*
X28192445Y-38979499D01*
X28320500Y-39107554D01*
X28320505Y-39107558D01*
X28448287Y-39200396D01*
X28467006Y-39213996D01*
X28554705Y-39258681D01*
X28628360Y-39296211D01*
X28628363Y-39296212D01*
X28644411Y-39301426D01*
X28800591Y-39352171D01*
X28873639Y-39363740D01*
X28960678Y-39377527D01*
X29023813Y-39407456D01*
X29060744Y-39466768D01*
X29059746Y-39536631D01*
X29021136Y-39594863D01*
X28960678Y-39622473D01*
X28800589Y-39647829D01*
X28628363Y-39703787D01*
X28628360Y-39703788D01*
X28467002Y-39786006D01*
X28320505Y-39892441D01*
X28320500Y-39892445D01*
X28192445Y-40020500D01*
X28192441Y-40020505D01*
X28086004Y-40167004D01*
X28018908Y-40298686D01*
X27970934Y-40349481D01*
X27903113Y-40366276D01*
X27836978Y-40343738D01*
X27793527Y-40289023D01*
X27790492Y-40280706D01*
X27781093Y-40251778D01*
X27772396Y-40234708D01*
X27237106Y-40769999D01*
X27237106Y-40770001D01*
X27772395Y-41305290D01*
X27772395Y-41305289D01*
X27781093Y-41288220D01*
X27781095Y-41288215D01*
X27790493Y-41259292D01*
X27829930Y-41201616D01*
X27894288Y-41174417D01*
X27963135Y-41186331D01*
X28014611Y-41233575D01*
X28018909Y-41241314D01*
X28086006Y-41372997D01*
X28192441Y-41519494D01*
X28192445Y-41519499D01*
X28320500Y-41647554D01*
X28320505Y-41647558D01*
X28434789Y-41730589D01*
X28467006Y-41753996D01*
X28543094Y-41792765D01*
X28628360Y-41836211D01*
X28628363Y-41836212D01*
X28675293Y-41851460D01*
X28800591Y-41892171D01*
X28883429Y-41905291D01*
X28979449Y-41920500D01*
X28979454Y-41920500D01*
X29160551Y-41920500D01*
X29247259Y-41906765D01*
X29339409Y-41892171D01*
X29511639Y-41836211D01*
X29672994Y-41753996D01*
X29819501Y-41647553D01*
X29947553Y-41519501D01*
X30053996Y-41372994D01*
X30136211Y-41211639D01*
X30192171Y-41039409D01*
X30206422Y-40949425D01*
X30217527Y-40879321D01*
X30247456Y-40816186D01*
X30306768Y-40779255D01*
X30376630Y-40780253D01*
X30434863Y-40818863D01*
X30462473Y-40879321D01*
X30487829Y-41039410D01*
X30543787Y-41211636D01*
X30543788Y-41211639D01*
X30626006Y-41372997D01*
X30732441Y-41519494D01*
X30732445Y-41519499D01*
X30860500Y-41647554D01*
X30860505Y-41647558D01*
X30974789Y-41730589D01*
X31007006Y-41753996D01*
X31083094Y-41792765D01*
X31168360Y-41836211D01*
X31168363Y-41836212D01*
X31215293Y-41851460D01*
X31340591Y-41892171D01*
X31423429Y-41905291D01*
X31519449Y-41920500D01*
X31519454Y-41920500D01*
X31700551Y-41920500D01*
X31787259Y-41906765D01*
X31879409Y-41892171D01*
X32051639Y-41836211D01*
X32212994Y-41753996D01*
X32359501Y-41647553D01*
X32487553Y-41519501D01*
X32593996Y-41372994D01*
X32676211Y-41211639D01*
X32732171Y-41039409D01*
X32746422Y-40949425D01*
X32757527Y-40879321D01*
X32787456Y-40816186D01*
X32846768Y-40779255D01*
X32916630Y-40780253D01*
X32974863Y-40818863D01*
X33002473Y-40879321D01*
X33027829Y-41039410D01*
X33083787Y-41211636D01*
X33083788Y-41211639D01*
X33166006Y-41372997D01*
X33272441Y-41519494D01*
X33272445Y-41519499D01*
X33400500Y-41647554D01*
X33400505Y-41647558D01*
X33514789Y-41730589D01*
X33547006Y-41753996D01*
X33623094Y-41792765D01*
X33708360Y-41836211D01*
X33708363Y-41836212D01*
X33755293Y-41851460D01*
X33880591Y-41892171D01*
X33963429Y-41905291D01*
X34059449Y-41920500D01*
X34059454Y-41920500D01*
X34240551Y-41920500D01*
X34327259Y-41906765D01*
X34419409Y-41892171D01*
X34591639Y-41836211D01*
X34752994Y-41753996D01*
X34899501Y-41647553D01*
X35027553Y-41519501D01*
X35133996Y-41372994D01*
X35216211Y-41211639D01*
X35272171Y-41039409D01*
X35286422Y-40949425D01*
X35297527Y-40879321D01*
X35327456Y-40816186D01*
X35386768Y-40779255D01*
X35456630Y-40780253D01*
X35514863Y-40818863D01*
X35542473Y-40879321D01*
X35567829Y-41039410D01*
X35623787Y-41211636D01*
X35623788Y-41211639D01*
X35706006Y-41372997D01*
X35812441Y-41519494D01*
X35812445Y-41519499D01*
X35940500Y-41647554D01*
X35940505Y-41647558D01*
X36054789Y-41730589D01*
X36087006Y-41753996D01*
X36163094Y-41792765D01*
X36248360Y-41836211D01*
X36248363Y-41836212D01*
X36295293Y-41851460D01*
X36420591Y-41892171D01*
X36503429Y-41905291D01*
X36599449Y-41920500D01*
X36599454Y-41920500D01*
X36780551Y-41920500D01*
X36867259Y-41906765D01*
X36959409Y-41892171D01*
X37131639Y-41836211D01*
X37292994Y-41753996D01*
X37439501Y-41647553D01*
X37567553Y-41519501D01*
X37673996Y-41372994D01*
X37756211Y-41211639D01*
X37812171Y-41039409D01*
X37826422Y-40949425D01*
X37837527Y-40879321D01*
X37867456Y-40816186D01*
X37926768Y-40779255D01*
X37996630Y-40780253D01*
X38054863Y-40818863D01*
X38082473Y-40879321D01*
X38107829Y-41039410D01*
X38163787Y-41211636D01*
X38163788Y-41211639D01*
X38246006Y-41372997D01*
X38352441Y-41519494D01*
X38352445Y-41519499D01*
X38480500Y-41647554D01*
X38480505Y-41647558D01*
X38594789Y-41730589D01*
X38627006Y-41753996D01*
X38703094Y-41792765D01*
X38788360Y-41836211D01*
X38788363Y-41836212D01*
X38835293Y-41851460D01*
X38960591Y-41892171D01*
X39043429Y-41905291D01*
X39139449Y-41920500D01*
X39139454Y-41920500D01*
X39320551Y-41920500D01*
X39407259Y-41906765D01*
X39499409Y-41892171D01*
X39671639Y-41836211D01*
X39832994Y-41753996D01*
X39979501Y-41647553D01*
X40107553Y-41519501D01*
X40213996Y-41372994D01*
X40296211Y-41211639D01*
X40352171Y-41039409D01*
X40366422Y-40949425D01*
X40377527Y-40879321D01*
X40407456Y-40816186D01*
X40466768Y-40779255D01*
X40536630Y-40780253D01*
X40594863Y-40818863D01*
X40622473Y-40879321D01*
X40647829Y-41039410D01*
X40703787Y-41211636D01*
X40703788Y-41211639D01*
X40786006Y-41372997D01*
X40892441Y-41519494D01*
X40892445Y-41519499D01*
X41020500Y-41647554D01*
X41020505Y-41647558D01*
X41134789Y-41730589D01*
X41167006Y-41753996D01*
X41243094Y-41792765D01*
X41328360Y-41836211D01*
X41328363Y-41836212D01*
X41375293Y-41851460D01*
X41500591Y-41892171D01*
X41583429Y-41905291D01*
X41679449Y-41920500D01*
X41679454Y-41920500D01*
X41860551Y-41920500D01*
X41947259Y-41906765D01*
X42039409Y-41892171D01*
X42211639Y-41836211D01*
X42372994Y-41753996D01*
X42519501Y-41647553D01*
X42647553Y-41519501D01*
X42753996Y-41372994D01*
X42836211Y-41211639D01*
X42892171Y-41039409D01*
X42906422Y-40949425D01*
X42917527Y-40879321D01*
X42947456Y-40816186D01*
X43006768Y-40779255D01*
X43076630Y-40780253D01*
X43134863Y-40818863D01*
X43162473Y-40879321D01*
X43187829Y-41039410D01*
X43243787Y-41211636D01*
X43243788Y-41211639D01*
X43326006Y-41372997D01*
X43432441Y-41519494D01*
X43432445Y-41519499D01*
X43560500Y-41647554D01*
X43560505Y-41647558D01*
X43674789Y-41730589D01*
X43707006Y-41753996D01*
X43783094Y-41792765D01*
X43868360Y-41836211D01*
X43868363Y-41836212D01*
X43915293Y-41851460D01*
X44040591Y-41892171D01*
X44123429Y-41905291D01*
X44219449Y-41920500D01*
X44219454Y-41920500D01*
X44400551Y-41920500D01*
X44508120Y-41903462D01*
X44579409Y-41892171D01*
X44704707Y-41851460D01*
X44704708Y-41851460D01*
X44751636Y-41836212D01*
X44751639Y-41836211D01*
X44912994Y-41753996D01*
X45059501Y-41647553D01*
X45187553Y-41519501D01*
X45293996Y-41372994D01*
X45361091Y-41241312D01*
X45409064Y-41190518D01*
X45476885Y-41173723D01*
X45543020Y-41196260D01*
X45586472Y-41250975D01*
X45589506Y-41259291D01*
X45598903Y-41288213D01*
X45598908Y-41288225D01*
X45607602Y-41305289D01*
X45607603Y-41305290D01*
X46142894Y-40770000D01*
X46077068Y-40704174D01*
X46350000Y-40704174D01*
X46350000Y-40835826D01*
X46384075Y-40962993D01*
X46449901Y-41077007D01*
X46542993Y-41170099D01*
X46657007Y-41235925D01*
X46784174Y-41270000D01*
X46915826Y-41270000D01*
X47042993Y-41235925D01*
X47157007Y-41170099D01*
X47250099Y-41077007D01*
X47315925Y-40962993D01*
X47350000Y-40835826D01*
X47350000Y-40704174D01*
X47315925Y-40577007D01*
X47250099Y-40462993D01*
X47157007Y-40369901D01*
X47042993Y-40304075D01*
X46915826Y-40270000D01*
X46784174Y-40270000D01*
X46657007Y-40304075D01*
X46542993Y-40369901D01*
X46449901Y-40462993D01*
X46384075Y-40577007D01*
X46350000Y-40704174D01*
X46077068Y-40704174D01*
X45607603Y-40234709D01*
X45598903Y-40251785D01*
X45589505Y-40280710D01*
X45550067Y-40338385D01*
X45485708Y-40365582D01*
X45416861Y-40353666D01*
X45365387Y-40306421D01*
X45361090Y-40298685D01*
X45337191Y-40251781D01*
X45293996Y-40167006D01*
X45276624Y-40143096D01*
X45187558Y-40020505D01*
X45187554Y-40020500D01*
X45059499Y-39892445D01*
X45059494Y-39892441D01*
X44912997Y-39786006D01*
X44912996Y-39786005D01*
X44912994Y-39786004D01*
X44836906Y-39747235D01*
X44751639Y-39703788D01*
X44751636Y-39703787D01*
X44579410Y-39647829D01*
X44419321Y-39622473D01*
X44356186Y-39592544D01*
X44319255Y-39533232D01*
X44320253Y-39463370D01*
X44358863Y-39405137D01*
X44419321Y-39377527D01*
X44489425Y-39366422D01*
X44579409Y-39352171D01*
X44751639Y-39296211D01*
X44912994Y-39213996D01*
X45059501Y-39107553D01*
X45187553Y-38979501D01*
X45293996Y-38832994D01*
X45376211Y-38671639D01*
X45432171Y-38499409D01*
X45454232Y-38360122D01*
X45457527Y-38339321D01*
X45487456Y-38276186D01*
X45546768Y-38239255D01*
X45616630Y-38240253D01*
X45674863Y-38278863D01*
X45702473Y-38339321D01*
X45727829Y-38499410D01*
X45783787Y-38671636D01*
X45783788Y-38671639D01*
X45866006Y-38832997D01*
X45972441Y-38979494D01*
X45972445Y-38979499D01*
X46100500Y-39107554D01*
X46100505Y-39107558D01*
X46228287Y-39200396D01*
X46247006Y-39213996D01*
X46378685Y-39281090D01*
X46429481Y-39329065D01*
X46446276Y-39396886D01*
X46423738Y-39463021D01*
X46369023Y-39506472D01*
X46360710Y-39509505D01*
X46331785Y-39518903D01*
X46314709Y-39527603D01*
X46850000Y-40062894D01*
X46850001Y-40062894D01*
X47385290Y-39527603D01*
X47385289Y-39527602D01*
X47368225Y-39518908D01*
X47368213Y-39518903D01*
X47339291Y-39509506D01*
X47281615Y-39470068D01*
X47254417Y-39405710D01*
X47266332Y-39336863D01*
X47313576Y-39285388D01*
X47321297Y-39281098D01*
X47452994Y-39213996D01*
X47599501Y-39107553D01*
X47727553Y-38979501D01*
X47833996Y-38832994D01*
X47916211Y-38671639D01*
X47972171Y-38499409D01*
X47994232Y-38360122D01*
X47997527Y-38339321D01*
X48027456Y-38276186D01*
X48086768Y-38239255D01*
X48156630Y-38240253D01*
X48214863Y-38278863D01*
X48242473Y-38339321D01*
X48267829Y-38499410D01*
X48323787Y-38671636D01*
X48323788Y-38671639D01*
X48406006Y-38832997D01*
X48512441Y-38979494D01*
X48512445Y-38979499D01*
X48640500Y-39107554D01*
X48640505Y-39107558D01*
X48768287Y-39200396D01*
X48787006Y-39213996D01*
X48874705Y-39258681D01*
X48948360Y-39296211D01*
X48948363Y-39296212D01*
X48964411Y-39301426D01*
X49120591Y-39352171D01*
X49193639Y-39363740D01*
X49280678Y-39377527D01*
X49343813Y-39407456D01*
X49380744Y-39466768D01*
X49379746Y-39536631D01*
X49341136Y-39594863D01*
X49280678Y-39622473D01*
X49120589Y-39647829D01*
X48948363Y-39703787D01*
X48948360Y-39703788D01*
X48787002Y-39786006D01*
X48640505Y-39892441D01*
X48640500Y-39892445D01*
X48512445Y-40020500D01*
X48512441Y-40020505D01*
X48406004Y-40167004D01*
X48338908Y-40298686D01*
X48290934Y-40349481D01*
X48223113Y-40366276D01*
X48156978Y-40343738D01*
X48113527Y-40289023D01*
X48110492Y-40280706D01*
X48101093Y-40251778D01*
X48092396Y-40234708D01*
X47557106Y-40769999D01*
X47557106Y-40770000D01*
X48092395Y-41305290D01*
X48092395Y-41305289D01*
X48101093Y-41288220D01*
X48101095Y-41288215D01*
X48110493Y-41259292D01*
X48149930Y-41201616D01*
X48214288Y-41174417D01*
X48283135Y-41186331D01*
X48334611Y-41233575D01*
X48338909Y-41241314D01*
X48406006Y-41372997D01*
X48512441Y-41519494D01*
X48512445Y-41519499D01*
X48640500Y-41647554D01*
X48640505Y-41647558D01*
X48754789Y-41730589D01*
X48787006Y-41753996D01*
X48863094Y-41792765D01*
X48948360Y-41836211D01*
X48948363Y-41836212D01*
X48995293Y-41851460D01*
X49120591Y-41892171D01*
X49203429Y-41905291D01*
X49299449Y-41920500D01*
X49299454Y-41920500D01*
X49480551Y-41920500D01*
X49567259Y-41906765D01*
X49659409Y-41892171D01*
X49831639Y-41836211D01*
X49992994Y-41753996D01*
X50139501Y-41647553D01*
X50267553Y-41519501D01*
X50373996Y-41372994D01*
X50456211Y-41211639D01*
X50512171Y-41039409D01*
X50526422Y-40949425D01*
X50537527Y-40879321D01*
X50567456Y-40816186D01*
X50626768Y-40779255D01*
X50696630Y-40780253D01*
X50754863Y-40818863D01*
X50782473Y-40879321D01*
X50807829Y-41039410D01*
X50863787Y-41211636D01*
X50863788Y-41211639D01*
X50946006Y-41372997D01*
X51052441Y-41519494D01*
X51052445Y-41519499D01*
X51180500Y-41647554D01*
X51180505Y-41647558D01*
X51294789Y-41730589D01*
X51327006Y-41753996D01*
X51403094Y-41792765D01*
X51488360Y-41836211D01*
X51488363Y-41836212D01*
X51535293Y-41851460D01*
X51660591Y-41892171D01*
X51743429Y-41905291D01*
X51839449Y-41920500D01*
X51839454Y-41920500D01*
X52020551Y-41920500D01*
X52107259Y-41906765D01*
X52199409Y-41892171D01*
X52371639Y-41836211D01*
X52532994Y-41753996D01*
X52679501Y-41647553D01*
X52807553Y-41519501D01*
X52913996Y-41372994D01*
X52996211Y-41211639D01*
X53052171Y-41039409D01*
X53066422Y-40949425D01*
X53077527Y-40879321D01*
X53107456Y-40816186D01*
X53166768Y-40779255D01*
X53236630Y-40780253D01*
X53294863Y-40818863D01*
X53322473Y-40879321D01*
X53347829Y-41039410D01*
X53403787Y-41211636D01*
X53403788Y-41211639D01*
X53486006Y-41372997D01*
X53592441Y-41519494D01*
X53592445Y-41519499D01*
X53720500Y-41647554D01*
X53720505Y-41647558D01*
X53834789Y-41730589D01*
X53867006Y-41753996D01*
X53943094Y-41792765D01*
X54028360Y-41836211D01*
X54028363Y-41836212D01*
X54075293Y-41851460D01*
X54200591Y-41892171D01*
X54283429Y-41905291D01*
X54379449Y-41920500D01*
X54379454Y-41920500D01*
X54560551Y-41920500D01*
X54647259Y-41906765D01*
X54739409Y-41892171D01*
X54911639Y-41836211D01*
X55072994Y-41753996D01*
X55219501Y-41647553D01*
X55347553Y-41519501D01*
X55453996Y-41372994D01*
X55536211Y-41211639D01*
X55592171Y-41039409D01*
X55606422Y-40949425D01*
X55617527Y-40879321D01*
X55647456Y-40816186D01*
X55706768Y-40779255D01*
X55776630Y-40780253D01*
X55834863Y-40818863D01*
X55862473Y-40879321D01*
X55887829Y-41039410D01*
X55943787Y-41211636D01*
X55943788Y-41211639D01*
X56026006Y-41372997D01*
X56132441Y-41519494D01*
X56132445Y-41519499D01*
X56260500Y-41647554D01*
X56260505Y-41647558D01*
X56374789Y-41730589D01*
X56407006Y-41753996D01*
X56483094Y-41792765D01*
X56568360Y-41836211D01*
X56568363Y-41836212D01*
X56615293Y-41851460D01*
X56740591Y-41892171D01*
X56823429Y-41905291D01*
X56919449Y-41920500D01*
X56919454Y-41920500D01*
X57100551Y-41920500D01*
X57187259Y-41906765D01*
X57279409Y-41892171D01*
X57451639Y-41836211D01*
X57612994Y-41753996D01*
X57759501Y-41647553D01*
X57887553Y-41519501D01*
X57993996Y-41372994D01*
X58076211Y-41211639D01*
X58132171Y-41039409D01*
X58146422Y-40949425D01*
X58157527Y-40879321D01*
X58187456Y-40816186D01*
X58246768Y-40779255D01*
X58316630Y-40780253D01*
X58374863Y-40818863D01*
X58402473Y-40879321D01*
X58427829Y-41039410D01*
X58483787Y-41211636D01*
X58483788Y-41211639D01*
X58566006Y-41372997D01*
X58672441Y-41519494D01*
X58672445Y-41519499D01*
X58800500Y-41647554D01*
X58800505Y-41647558D01*
X58914789Y-41730589D01*
X58947006Y-41753996D01*
X59023094Y-41792765D01*
X59108360Y-41836211D01*
X59108363Y-41836212D01*
X59155293Y-41851460D01*
X59280591Y-41892171D01*
X59363429Y-41905291D01*
X59459449Y-41920500D01*
X59459454Y-41920500D01*
X59640551Y-41920500D01*
X59727259Y-41906765D01*
X59819409Y-41892171D01*
X59991639Y-41836211D01*
X60152994Y-41753996D01*
X60299501Y-41647553D01*
X60427553Y-41519501D01*
X60533996Y-41372994D01*
X60616211Y-41211639D01*
X60672171Y-41039409D01*
X60686422Y-40949425D01*
X60697527Y-40879321D01*
X60727456Y-40816186D01*
X60786768Y-40779255D01*
X60856630Y-40780253D01*
X60914863Y-40818863D01*
X60942473Y-40879321D01*
X60967829Y-41039410D01*
X61023787Y-41211636D01*
X61023788Y-41211639D01*
X61106006Y-41372997D01*
X61212441Y-41519494D01*
X61212445Y-41519499D01*
X61340500Y-41647554D01*
X61340505Y-41647558D01*
X61454789Y-41730589D01*
X61487006Y-41753996D01*
X61563094Y-41792765D01*
X61648360Y-41836211D01*
X61648363Y-41836212D01*
X61695293Y-41851460D01*
X61820591Y-41892171D01*
X61903429Y-41905291D01*
X61999449Y-41920500D01*
X61999454Y-41920500D01*
X62180551Y-41920500D01*
X62288120Y-41903462D01*
X62359409Y-41892171D01*
X62484707Y-41851460D01*
X62484708Y-41851460D01*
X62531636Y-41836212D01*
X62531639Y-41836211D01*
X62692994Y-41753996D01*
X62839501Y-41647553D01*
X62967553Y-41519501D01*
X63073996Y-41372994D01*
X63141091Y-41241312D01*
X63189064Y-41190518D01*
X63256885Y-41173723D01*
X63323020Y-41196260D01*
X63366472Y-41250975D01*
X63369506Y-41259291D01*
X63378903Y-41288213D01*
X63378908Y-41288225D01*
X63387602Y-41305289D01*
X63387603Y-41305290D01*
X63922894Y-40770000D01*
X63857068Y-40704174D01*
X64130000Y-40704174D01*
X64130000Y-40835826D01*
X64164075Y-40962993D01*
X64229901Y-41077007D01*
X64322993Y-41170099D01*
X64437007Y-41235925D01*
X64564174Y-41270000D01*
X64695826Y-41270000D01*
X64822993Y-41235925D01*
X64937007Y-41170099D01*
X65030099Y-41077007D01*
X65095925Y-40962993D01*
X65130000Y-40835826D01*
X65130000Y-40769999D01*
X65337106Y-40769999D01*
X65337106Y-40770001D01*
X65872395Y-41305290D01*
X65872395Y-41305289D01*
X65881093Y-41288220D01*
X65881094Y-41288218D01*
X65946757Y-41086130D01*
X65946757Y-41086127D01*
X65980000Y-40876246D01*
X65980000Y-40663753D01*
X65946757Y-40453872D01*
X65946757Y-40453869D01*
X65881094Y-40251781D01*
X65881094Y-40251780D01*
X65872396Y-40234708D01*
X65337106Y-40769999D01*
X65130000Y-40769999D01*
X65130000Y-40704174D01*
X65095925Y-40577007D01*
X65030099Y-40462993D01*
X64937007Y-40369901D01*
X64822993Y-40304075D01*
X64695826Y-40270000D01*
X64564174Y-40270000D01*
X64437007Y-40304075D01*
X64322993Y-40369901D01*
X64229901Y-40462993D01*
X64164075Y-40577007D01*
X64130000Y-40704174D01*
X63857068Y-40704174D01*
X63387603Y-40234709D01*
X63378903Y-40251785D01*
X63369505Y-40280710D01*
X63330067Y-40338385D01*
X63265708Y-40365582D01*
X63196861Y-40353666D01*
X63145387Y-40306421D01*
X63141090Y-40298685D01*
X63117191Y-40251781D01*
X63073996Y-40167006D01*
X63056624Y-40143096D01*
X62967558Y-40020505D01*
X62967554Y-40020500D01*
X62839499Y-39892445D01*
X62839494Y-39892441D01*
X62692997Y-39786006D01*
X62692996Y-39786005D01*
X62692994Y-39786004D01*
X62616906Y-39747235D01*
X62531639Y-39703788D01*
X62531636Y-39703787D01*
X62359410Y-39647829D01*
X62199321Y-39622473D01*
X62136186Y-39592544D01*
X62099255Y-39533232D01*
X62100253Y-39463370D01*
X62138863Y-39405137D01*
X62199321Y-39377527D01*
X62269425Y-39366422D01*
X62359409Y-39352171D01*
X62531639Y-39296211D01*
X62692994Y-39213996D01*
X62839501Y-39107553D01*
X62967553Y-38979501D01*
X63073996Y-38832994D01*
X63156211Y-38671639D01*
X63212171Y-38499409D01*
X63234232Y-38360122D01*
X63237527Y-38339321D01*
X63267456Y-38276186D01*
X63326768Y-38239255D01*
X63396630Y-38240253D01*
X63454863Y-38278863D01*
X63482473Y-38339321D01*
X63507829Y-38499410D01*
X63563787Y-38671636D01*
X63563788Y-38671639D01*
X63646006Y-38832997D01*
X63752441Y-38979494D01*
X63752445Y-38979499D01*
X63880500Y-39107554D01*
X63880505Y-39107558D01*
X64008287Y-39200396D01*
X64027006Y-39213996D01*
X64158685Y-39281090D01*
X64209481Y-39329065D01*
X64226276Y-39396886D01*
X64203738Y-39463021D01*
X64149023Y-39506472D01*
X64140710Y-39509505D01*
X64111785Y-39518903D01*
X64094709Y-39527603D01*
X64630000Y-40062894D01*
X64630001Y-40062894D01*
X65165290Y-39527603D01*
X65165289Y-39527602D01*
X65148225Y-39518908D01*
X65148213Y-39518903D01*
X65119291Y-39509506D01*
X65101013Y-39497008D01*
X65080494Y-39488680D01*
X65072732Y-39477670D01*
X65061615Y-39470068D01*
X65052995Y-39449671D01*
X65040237Y-39431573D01*
X65039660Y-39418116D01*
X65034417Y-39405710D01*
X65038193Y-39383890D01*
X65037771Y-39374038D01*
X67899500Y-39374038D01*
X67899500Y-39625962D01*
X67918708Y-39747234D01*
X67938910Y-39874785D01*
X68016760Y-40114383D01*
X68078070Y-40234709D01*
X68125789Y-40328363D01*
X68131132Y-40338848D01*
X68279201Y-40542649D01*
X68279205Y-40542654D01*
X68457345Y-40720794D01*
X68457350Y-40720798D01*
X68592326Y-40818863D01*
X68661155Y-40868870D01*
X68775493Y-40927128D01*
X68885616Y-40983239D01*
X68885618Y-40983239D01*
X68885621Y-40983241D01*
X69125215Y-41061090D01*
X69374038Y-41100500D01*
X69374039Y-41100500D01*
X69625961Y-41100500D01*
X69625962Y-41100500D01*
X69874785Y-41061090D01*
X70114379Y-40983241D01*
X70338845Y-40868870D01*
X70542656Y-40720793D01*
X70720793Y-40542656D01*
X70868870Y-40338845D01*
X70983241Y-40114379D01*
X71061090Y-39874785D01*
X71100500Y-39625962D01*
X71100500Y-39374038D01*
X71061090Y-39125215D01*
X70983241Y-38885621D01*
X70983239Y-38885618D01*
X70983239Y-38885616D01*
X70913234Y-38748225D01*
X70868870Y-38661155D01*
X70844532Y-38627656D01*
X70720798Y-38457350D01*
X70720794Y-38457345D01*
X70542654Y-38279205D01*
X70542649Y-38279201D01*
X70338848Y-38131132D01*
X70338847Y-38131131D01*
X70338845Y-38131130D01*
X70268747Y-38095413D01*
X70114383Y-38016760D01*
X69874785Y-37938910D01*
X69625962Y-37899500D01*
X69374038Y-37899500D01*
X69249626Y-37919205D01*
X69125214Y-37938910D01*
X68885616Y-38016760D01*
X68661151Y-38131132D01*
X68457350Y-38279201D01*
X68457345Y-38279205D01*
X68279205Y-38457345D01*
X68279201Y-38457350D01*
X68131132Y-38661151D01*
X68016760Y-38885616D01*
X67938910Y-39125214D01*
X67911001Y-39301426D01*
X67899500Y-39374038D01*
X65037771Y-39374038D01*
X65037245Y-39361768D01*
X65044035Y-39350135D01*
X65046332Y-39336863D01*
X65061304Y-39320549D01*
X65072467Y-39301426D01*
X65090567Y-39288665D01*
X65093576Y-39285388D01*
X65101297Y-39281098D01*
X65232994Y-39213996D01*
X65379501Y-39107553D01*
X65507553Y-38979501D01*
X65613996Y-38832994D01*
X65696211Y-38671639D01*
X65752171Y-38499409D01*
X65774232Y-38360122D01*
X65780500Y-38320551D01*
X65780500Y-38139448D01*
X65761067Y-38016759D01*
X65752171Y-37960591D01*
X65696211Y-37788361D01*
X65696211Y-37788360D01*
X65657190Y-37711778D01*
X65613996Y-37627006D01*
X65538355Y-37522894D01*
X65507558Y-37480505D01*
X65507554Y-37480500D01*
X65379499Y-37352445D01*
X65379494Y-37352441D01*
X65232997Y-37246006D01*
X65232996Y-37246005D01*
X65232994Y-37246004D01*
X65181300Y-37219664D01*
X65071639Y-37163788D01*
X65071636Y-37163787D01*
X64899410Y-37107829D01*
X64720551Y-37079500D01*
X64720546Y-37079500D01*
X64539454Y-37079500D01*
X64539449Y-37079500D01*
X64360589Y-37107829D01*
X64188363Y-37163787D01*
X64188360Y-37163788D01*
X64027002Y-37246006D01*
X63880505Y-37352441D01*
X63880500Y-37352445D01*
X63752445Y-37480500D01*
X63752441Y-37480505D01*
X63646006Y-37627002D01*
X63563788Y-37788360D01*
X63563787Y-37788363D01*
X63507829Y-37960589D01*
X63482473Y-38120678D01*
X63452544Y-38183813D01*
X63393232Y-38220744D01*
X63323369Y-38219746D01*
X63265137Y-38181136D01*
X63237527Y-38120678D01*
X63221067Y-38016759D01*
X63212171Y-37960591D01*
X63156211Y-37788361D01*
X63156211Y-37788360D01*
X63117190Y-37711778D01*
X63073996Y-37627006D01*
X62998355Y-37522894D01*
X62967558Y-37480505D01*
X62967554Y-37480500D01*
X62839499Y-37352445D01*
X62839494Y-37352441D01*
X62692997Y-37246006D01*
X62692996Y-37246005D01*
X62692994Y-37246004D01*
X62641300Y-37219664D01*
X62531639Y-37163788D01*
X62531636Y-37163787D01*
X62359410Y-37107829D01*
X62180551Y-37079500D01*
X62180546Y-37079500D01*
X61999454Y-37079500D01*
X61999449Y-37079500D01*
X61820589Y-37107829D01*
X61648363Y-37163787D01*
X61648360Y-37163788D01*
X61487002Y-37246006D01*
X61340505Y-37352441D01*
X61340500Y-37352445D01*
X61212445Y-37480500D01*
X61212441Y-37480505D01*
X61106006Y-37627002D01*
X61023788Y-37788360D01*
X61023787Y-37788363D01*
X60967829Y-37960589D01*
X60942473Y-38120678D01*
X60912544Y-38183813D01*
X60853232Y-38220744D01*
X60783369Y-38219746D01*
X60725137Y-38181136D01*
X60697527Y-38120678D01*
X60681067Y-38016759D01*
X60672171Y-37960591D01*
X60616211Y-37788361D01*
X60616211Y-37788360D01*
X60577190Y-37711778D01*
X60533996Y-37627006D01*
X60458355Y-37522894D01*
X60427558Y-37480505D01*
X60427554Y-37480500D01*
X60299499Y-37352445D01*
X60299494Y-37352441D01*
X60152997Y-37246006D01*
X60152996Y-37246005D01*
X60152994Y-37246004D01*
X60101300Y-37219664D01*
X59991639Y-37163788D01*
X59991636Y-37163787D01*
X59819410Y-37107829D01*
X59640551Y-37079500D01*
X59640546Y-37079500D01*
X59459454Y-37079500D01*
X59459449Y-37079500D01*
X59280589Y-37107829D01*
X59108363Y-37163787D01*
X59108360Y-37163788D01*
X58947002Y-37246006D01*
X58800505Y-37352441D01*
X58800500Y-37352445D01*
X58672445Y-37480500D01*
X58672441Y-37480505D01*
X58566004Y-37627004D01*
X58498908Y-37758686D01*
X58450934Y-37809481D01*
X58383113Y-37826276D01*
X58316978Y-37803738D01*
X58273527Y-37749023D01*
X58270492Y-37740706D01*
X58261093Y-37711778D01*
X58252396Y-37694708D01*
X57717106Y-38229999D01*
X57717106Y-38230001D01*
X58252395Y-38765290D01*
X58252395Y-38765289D01*
X58261093Y-38748220D01*
X58261095Y-38748215D01*
X58270493Y-38719292D01*
X58309930Y-38661616D01*
X58374288Y-38634417D01*
X58443135Y-38646331D01*
X58494611Y-38693575D01*
X58498909Y-38701314D01*
X58566006Y-38832997D01*
X58672441Y-38979494D01*
X58672445Y-38979499D01*
X58800500Y-39107554D01*
X58800505Y-39107558D01*
X58928287Y-39200396D01*
X58947006Y-39213996D01*
X59034705Y-39258681D01*
X59108360Y-39296211D01*
X59108363Y-39296212D01*
X59124411Y-39301426D01*
X59280591Y-39352171D01*
X59353639Y-39363740D01*
X59440678Y-39377527D01*
X59503813Y-39407456D01*
X59540744Y-39466768D01*
X59539746Y-39536631D01*
X59501136Y-39594863D01*
X59440678Y-39622473D01*
X59280589Y-39647829D01*
X59108363Y-39703787D01*
X59108360Y-39703788D01*
X58947002Y-39786006D01*
X58800505Y-39892441D01*
X58800500Y-39892445D01*
X58672445Y-40020500D01*
X58672441Y-40020505D01*
X58566006Y-40167002D01*
X58483788Y-40328360D01*
X58483787Y-40328363D01*
X58427829Y-40500589D01*
X58402473Y-40660678D01*
X58372544Y-40723813D01*
X58313232Y-40760744D01*
X58243369Y-40759746D01*
X58185137Y-40721136D01*
X58157527Y-40660678D01*
X58138832Y-40542649D01*
X58132171Y-40500591D01*
X58104191Y-40414476D01*
X58076212Y-40328363D01*
X58076211Y-40328360D01*
X58037190Y-40251778D01*
X57993996Y-40167006D01*
X57976624Y-40143096D01*
X57887558Y-40020505D01*
X57887554Y-40020500D01*
X57759499Y-39892445D01*
X57759494Y-39892441D01*
X57612997Y-39786006D01*
X57612996Y-39786005D01*
X57612994Y-39786004D01*
X57528533Y-39742969D01*
X57481314Y-39718909D01*
X57430518Y-39670934D01*
X57413723Y-39603113D01*
X57436261Y-39536978D01*
X57490976Y-39493527D01*
X57499292Y-39490493D01*
X57528215Y-39481095D01*
X57528220Y-39481093D01*
X57545289Y-39472395D01*
X57545290Y-39472395D01*
X57010001Y-38937106D01*
X57010000Y-38937106D01*
X56474708Y-39472396D01*
X56491778Y-39481093D01*
X56520706Y-39490492D01*
X56578382Y-39529929D01*
X56605581Y-39594287D01*
X56593668Y-39663134D01*
X56546425Y-39714610D01*
X56538686Y-39718908D01*
X56407004Y-39786004D01*
X56260505Y-39892441D01*
X56260500Y-39892445D01*
X56132445Y-40020500D01*
X56132441Y-40020505D01*
X56026006Y-40167002D01*
X55943788Y-40328360D01*
X55943787Y-40328363D01*
X55887829Y-40500589D01*
X55862473Y-40660678D01*
X55832544Y-40723813D01*
X55773232Y-40760744D01*
X55703369Y-40759746D01*
X55645137Y-40721136D01*
X55617527Y-40660678D01*
X55598832Y-40542649D01*
X55592171Y-40500591D01*
X55564191Y-40414476D01*
X55536212Y-40328363D01*
X55536211Y-40328360D01*
X55497190Y-40251778D01*
X55453996Y-40167006D01*
X55436624Y-40143096D01*
X55347558Y-40020505D01*
X55347554Y-40020500D01*
X55219499Y-39892445D01*
X55219494Y-39892441D01*
X55072997Y-39786006D01*
X55072996Y-39786005D01*
X55072994Y-39786004D01*
X54996906Y-39747235D01*
X54911639Y-39703788D01*
X54911636Y-39703787D01*
X54739410Y-39647829D01*
X54579321Y-39622473D01*
X54516186Y-39592544D01*
X54479255Y-39533232D01*
X54480253Y-39463370D01*
X54518863Y-39405137D01*
X54579321Y-39377527D01*
X54649425Y-39366422D01*
X54739409Y-39352171D01*
X54911639Y-39296211D01*
X55072994Y-39213996D01*
X55219501Y-39107553D01*
X55347553Y-38979501D01*
X55453996Y-38832994D01*
X55521091Y-38701312D01*
X55569064Y-38650518D01*
X55636885Y-38633723D01*
X55703020Y-38656260D01*
X55746472Y-38710975D01*
X55749506Y-38719291D01*
X55758903Y-38748213D01*
X55758908Y-38748225D01*
X55767602Y-38765289D01*
X55767603Y-38765290D01*
X56302894Y-38230000D01*
X56237068Y-38164174D01*
X56510000Y-38164174D01*
X56510000Y-38295826D01*
X56544075Y-38422993D01*
X56609901Y-38537007D01*
X56702993Y-38630099D01*
X56817007Y-38695925D01*
X56944174Y-38730000D01*
X57075826Y-38730000D01*
X57202993Y-38695925D01*
X57317007Y-38630099D01*
X57410099Y-38537007D01*
X57475925Y-38422993D01*
X57510000Y-38295826D01*
X57510000Y-38164174D01*
X57475925Y-38037007D01*
X57410099Y-37922993D01*
X57317007Y-37829901D01*
X57202993Y-37764075D01*
X57075826Y-37730000D01*
X56944174Y-37730000D01*
X56817007Y-37764075D01*
X56702993Y-37829901D01*
X56609901Y-37922993D01*
X56544075Y-38037007D01*
X56510000Y-38164174D01*
X56237068Y-38164174D01*
X55767603Y-37694709D01*
X55758903Y-37711785D01*
X55749505Y-37740710D01*
X55710067Y-37798385D01*
X55645708Y-37825582D01*
X55576861Y-37813666D01*
X55525387Y-37766421D01*
X55521090Y-37758685D01*
X55497193Y-37711785D01*
X55453996Y-37627006D01*
X55378355Y-37522894D01*
X55347558Y-37480505D01*
X55347554Y-37480500D01*
X55219499Y-37352445D01*
X55219494Y-37352441D01*
X55072997Y-37246006D01*
X55072996Y-37246005D01*
X55072994Y-37246004D01*
X55021300Y-37219664D01*
X54911639Y-37163788D01*
X54911636Y-37163787D01*
X54864702Y-37148538D01*
X54864701Y-37148537D01*
X54739411Y-37107829D01*
X54739412Y-37107829D01*
X54560551Y-37079500D01*
X54560546Y-37079500D01*
X54379454Y-37079500D01*
X54379449Y-37079500D01*
X54200589Y-37107829D01*
X54028363Y-37163787D01*
X54028360Y-37163788D01*
X53867002Y-37246006D01*
X53720505Y-37352441D01*
X53720500Y-37352445D01*
X53592445Y-37480500D01*
X53592441Y-37480505D01*
X53486004Y-37627004D01*
X53418908Y-37758686D01*
X53370934Y-37809481D01*
X53303113Y-37826276D01*
X53236978Y-37803738D01*
X53193527Y-37749023D01*
X53190492Y-37740706D01*
X53181093Y-37711778D01*
X53172396Y-37694708D01*
X52637106Y-38229999D01*
X52637106Y-38230001D01*
X53172395Y-38765290D01*
X53172395Y-38765289D01*
X53181093Y-38748220D01*
X53181095Y-38748215D01*
X53190493Y-38719292D01*
X53229930Y-38661616D01*
X53294288Y-38634417D01*
X53363135Y-38646331D01*
X53414611Y-38693575D01*
X53418909Y-38701314D01*
X53486006Y-38832997D01*
X53592441Y-38979494D01*
X53592445Y-38979499D01*
X53720500Y-39107554D01*
X53720505Y-39107558D01*
X53848287Y-39200396D01*
X53867006Y-39213996D01*
X53954705Y-39258681D01*
X54028360Y-39296211D01*
X54028363Y-39296212D01*
X54044411Y-39301426D01*
X54200591Y-39352171D01*
X54273639Y-39363740D01*
X54360678Y-39377527D01*
X54423813Y-39407456D01*
X54460744Y-39466768D01*
X54459746Y-39536631D01*
X54421136Y-39594863D01*
X54360678Y-39622473D01*
X54200589Y-39647829D01*
X54028363Y-39703787D01*
X54028360Y-39703788D01*
X53867002Y-39786006D01*
X53720505Y-39892441D01*
X53720500Y-39892445D01*
X53592445Y-40020500D01*
X53592441Y-40020505D01*
X53486006Y-40167002D01*
X53403788Y-40328360D01*
X53403787Y-40328363D01*
X53347829Y-40500589D01*
X53322473Y-40660678D01*
X53292544Y-40723813D01*
X53233232Y-40760744D01*
X53163369Y-40759746D01*
X53105137Y-40721136D01*
X53077527Y-40660678D01*
X53058832Y-40542649D01*
X53052171Y-40500591D01*
X53024191Y-40414476D01*
X52996212Y-40328363D01*
X52996211Y-40328360D01*
X52957190Y-40251778D01*
X52913996Y-40167006D01*
X52896624Y-40143096D01*
X52807558Y-40020505D01*
X52807554Y-40020500D01*
X52679499Y-39892445D01*
X52679494Y-39892441D01*
X52532997Y-39786006D01*
X52532996Y-39786005D01*
X52532994Y-39786004D01*
X52448533Y-39742969D01*
X52401314Y-39718909D01*
X52350518Y-39670934D01*
X52333723Y-39603113D01*
X52356261Y-39536978D01*
X52410976Y-39493527D01*
X52419292Y-39490493D01*
X52448215Y-39481095D01*
X52448220Y-39481093D01*
X52465289Y-39472395D01*
X52465290Y-39472395D01*
X51930001Y-38937106D01*
X51930000Y-38937106D01*
X51394708Y-39472396D01*
X51411778Y-39481093D01*
X51440706Y-39490492D01*
X51498382Y-39529929D01*
X51525581Y-39594287D01*
X51513668Y-39663134D01*
X51466425Y-39714610D01*
X51458686Y-39718908D01*
X51327004Y-39786004D01*
X51180505Y-39892441D01*
X51180500Y-39892445D01*
X51052445Y-40020500D01*
X51052441Y-40020505D01*
X50946006Y-40167002D01*
X50863788Y-40328360D01*
X50863787Y-40328363D01*
X50807829Y-40500589D01*
X50782473Y-40660678D01*
X50752544Y-40723813D01*
X50693232Y-40760744D01*
X50623369Y-40759746D01*
X50565137Y-40721136D01*
X50537527Y-40660678D01*
X50518832Y-40542649D01*
X50512171Y-40500591D01*
X50484191Y-40414476D01*
X50456212Y-40328363D01*
X50456211Y-40328360D01*
X50417190Y-40251778D01*
X50373996Y-40167006D01*
X50356624Y-40143096D01*
X50267558Y-40020505D01*
X50267554Y-40020500D01*
X50139499Y-39892445D01*
X50139494Y-39892441D01*
X49992997Y-39786006D01*
X49992996Y-39786005D01*
X49992994Y-39786004D01*
X49916906Y-39747235D01*
X49831639Y-39703788D01*
X49831636Y-39703787D01*
X49659410Y-39647829D01*
X49499321Y-39622473D01*
X49436186Y-39592544D01*
X49399255Y-39533232D01*
X49400253Y-39463370D01*
X49438863Y-39405137D01*
X49499321Y-39377527D01*
X49569425Y-39366422D01*
X49659409Y-39352171D01*
X49831639Y-39296211D01*
X49992994Y-39213996D01*
X50139501Y-39107553D01*
X50267553Y-38979501D01*
X50373996Y-38832994D01*
X50441091Y-38701312D01*
X50489064Y-38650518D01*
X50556885Y-38633723D01*
X50623020Y-38656260D01*
X50666472Y-38710975D01*
X50669506Y-38719291D01*
X50678903Y-38748213D01*
X50678908Y-38748225D01*
X50687602Y-38765289D01*
X50687603Y-38765290D01*
X51222894Y-38230000D01*
X51157068Y-38164174D01*
X51430000Y-38164174D01*
X51430000Y-38295826D01*
X51464075Y-38422993D01*
X51529901Y-38537007D01*
X51622993Y-38630099D01*
X51737007Y-38695925D01*
X51864174Y-38730000D01*
X51995826Y-38730000D01*
X52122993Y-38695925D01*
X52237007Y-38630099D01*
X52330099Y-38537007D01*
X52395925Y-38422993D01*
X52430000Y-38295826D01*
X52430000Y-38164174D01*
X52395925Y-38037007D01*
X52330099Y-37922993D01*
X52237007Y-37829901D01*
X52122993Y-37764075D01*
X51995826Y-37730000D01*
X51864174Y-37730000D01*
X51737007Y-37764075D01*
X51622993Y-37829901D01*
X51529901Y-37922993D01*
X51464075Y-38037007D01*
X51430000Y-38164174D01*
X51157068Y-38164174D01*
X50687603Y-37694709D01*
X50678903Y-37711785D01*
X50669505Y-37740710D01*
X50630067Y-37798385D01*
X50565708Y-37825582D01*
X50496861Y-37813666D01*
X50445387Y-37766421D01*
X50441090Y-37758685D01*
X50417193Y-37711785D01*
X50373996Y-37627006D01*
X50298355Y-37522894D01*
X50267558Y-37480505D01*
X50267554Y-37480500D01*
X50139499Y-37352445D01*
X50139494Y-37352441D01*
X49992997Y-37246006D01*
X49992996Y-37246005D01*
X49992994Y-37246004D01*
X49941300Y-37219664D01*
X49831639Y-37163788D01*
X49831636Y-37163787D01*
X49784702Y-37148538D01*
X49784701Y-37148537D01*
X49659411Y-37107829D01*
X49659412Y-37107829D01*
X49480551Y-37079500D01*
X49480546Y-37079500D01*
X49299454Y-37079500D01*
X49299449Y-37079500D01*
X49120589Y-37107829D01*
X48948363Y-37163787D01*
X48948360Y-37163788D01*
X48787002Y-37246006D01*
X48640505Y-37352441D01*
X48640500Y-37352445D01*
X48512445Y-37480500D01*
X48512441Y-37480505D01*
X48406006Y-37627002D01*
X48323788Y-37788360D01*
X48323787Y-37788363D01*
X48267829Y-37960589D01*
X48242473Y-38120678D01*
X48212544Y-38183813D01*
X48153232Y-38220744D01*
X48083369Y-38219746D01*
X48025137Y-38181136D01*
X47997527Y-38120678D01*
X47981067Y-38016759D01*
X47972171Y-37960591D01*
X47916211Y-37788361D01*
X47916211Y-37788360D01*
X47877190Y-37711778D01*
X47833996Y-37627006D01*
X47758355Y-37522894D01*
X47727558Y-37480505D01*
X47727554Y-37480500D01*
X47599499Y-37352445D01*
X47599494Y-37352441D01*
X47452997Y-37246006D01*
X47452996Y-37246005D01*
X47452994Y-37246004D01*
X47401300Y-37219664D01*
X47291639Y-37163788D01*
X47291636Y-37163787D01*
X47119410Y-37107829D01*
X46940551Y-37079500D01*
X46940546Y-37079500D01*
X46759454Y-37079500D01*
X46759449Y-37079500D01*
X46580589Y-37107829D01*
X46408363Y-37163787D01*
X46408360Y-37163788D01*
X46247002Y-37246006D01*
X46100505Y-37352441D01*
X46100500Y-37352445D01*
X45972445Y-37480500D01*
X45972441Y-37480505D01*
X45866006Y-37627002D01*
X45783788Y-37788360D01*
X45783787Y-37788363D01*
X45727829Y-37960589D01*
X45702473Y-38120678D01*
X45672544Y-38183813D01*
X45613232Y-38220744D01*
X45543369Y-38219746D01*
X45485137Y-38181136D01*
X45457527Y-38120678D01*
X45441067Y-38016759D01*
X45432171Y-37960591D01*
X45376211Y-37788361D01*
X45376211Y-37788360D01*
X45337190Y-37711778D01*
X45293996Y-37627006D01*
X45218355Y-37522894D01*
X45187558Y-37480505D01*
X45187554Y-37480500D01*
X45059499Y-37352445D01*
X45059494Y-37352441D01*
X44912997Y-37246006D01*
X44912996Y-37246005D01*
X44912994Y-37246004D01*
X44861300Y-37219664D01*
X44751639Y-37163788D01*
X44751636Y-37163787D01*
X44579410Y-37107829D01*
X44400551Y-37079500D01*
X44400546Y-37079500D01*
X44219454Y-37079500D01*
X44219449Y-37079500D01*
X44040589Y-37107829D01*
X43868363Y-37163787D01*
X43868360Y-37163788D01*
X43707002Y-37246006D01*
X43560505Y-37352441D01*
X43560500Y-37352445D01*
X43432445Y-37480500D01*
X43432441Y-37480505D01*
X43326006Y-37627002D01*
X43243788Y-37788360D01*
X43243787Y-37788363D01*
X43187829Y-37960589D01*
X43162473Y-38120678D01*
X43132544Y-38183813D01*
X43073232Y-38220744D01*
X43003369Y-38219746D01*
X42945137Y-38181136D01*
X42917527Y-38120678D01*
X42901067Y-38016759D01*
X42892171Y-37960591D01*
X42836211Y-37788361D01*
X42836211Y-37788360D01*
X42797190Y-37711778D01*
X42753996Y-37627006D01*
X42678355Y-37522894D01*
X42647558Y-37480505D01*
X42647554Y-37480500D01*
X42519499Y-37352445D01*
X42519494Y-37352441D01*
X42372997Y-37246006D01*
X42372996Y-37246005D01*
X42372994Y-37246004D01*
X42321300Y-37219664D01*
X42211639Y-37163788D01*
X42211636Y-37163787D01*
X42039410Y-37107829D01*
X41860551Y-37079500D01*
X41860546Y-37079500D01*
X41679454Y-37079500D01*
X41679449Y-37079500D01*
X41500589Y-37107829D01*
X41328363Y-37163787D01*
X41328360Y-37163788D01*
X41167002Y-37246006D01*
X41020505Y-37352441D01*
X41020500Y-37352445D01*
X40892445Y-37480500D01*
X40892441Y-37480505D01*
X40786004Y-37627004D01*
X40718908Y-37758686D01*
X40670934Y-37809481D01*
X40603113Y-37826276D01*
X40536978Y-37803738D01*
X40493527Y-37749023D01*
X40490492Y-37740706D01*
X40481093Y-37711778D01*
X40472396Y-37694708D01*
X39937106Y-38229999D01*
X39937106Y-38230001D01*
X40472395Y-38765290D01*
X40472395Y-38765289D01*
X40481093Y-38748220D01*
X40481095Y-38748215D01*
X40490493Y-38719292D01*
X40529930Y-38661616D01*
X40594288Y-38634417D01*
X40663135Y-38646331D01*
X40714611Y-38693575D01*
X40718909Y-38701314D01*
X40786006Y-38832997D01*
X40892441Y-38979494D01*
X40892445Y-38979499D01*
X41020500Y-39107554D01*
X41020505Y-39107558D01*
X41148287Y-39200396D01*
X41167006Y-39213996D01*
X41254705Y-39258681D01*
X41328360Y-39296211D01*
X41328363Y-39296212D01*
X41344411Y-39301426D01*
X41500591Y-39352171D01*
X41573639Y-39363740D01*
X41660678Y-39377527D01*
X41723813Y-39407456D01*
X41760744Y-39466768D01*
X41759746Y-39536631D01*
X41721136Y-39594863D01*
X41660678Y-39622473D01*
X41500589Y-39647829D01*
X41328363Y-39703787D01*
X41328360Y-39703788D01*
X41167002Y-39786006D01*
X41020505Y-39892441D01*
X41020500Y-39892445D01*
X40892445Y-40020500D01*
X40892441Y-40020505D01*
X40786006Y-40167002D01*
X40703788Y-40328360D01*
X40703787Y-40328363D01*
X40647829Y-40500589D01*
X40622473Y-40660678D01*
X40592544Y-40723813D01*
X40533232Y-40760744D01*
X40463369Y-40759746D01*
X40405137Y-40721136D01*
X40377527Y-40660678D01*
X40358832Y-40542649D01*
X40352171Y-40500591D01*
X40324191Y-40414476D01*
X40296212Y-40328363D01*
X40296211Y-40328360D01*
X40257190Y-40251778D01*
X40213996Y-40167006D01*
X40196624Y-40143096D01*
X40107558Y-40020505D01*
X40107554Y-40020500D01*
X39979499Y-39892445D01*
X39979494Y-39892441D01*
X39832997Y-39786006D01*
X39832996Y-39786005D01*
X39832994Y-39786004D01*
X39748533Y-39742969D01*
X39701314Y-39718909D01*
X39650518Y-39670934D01*
X39633723Y-39603113D01*
X39656261Y-39536978D01*
X39710976Y-39493527D01*
X39719292Y-39490493D01*
X39748215Y-39481095D01*
X39748220Y-39481093D01*
X39765289Y-39472395D01*
X39765290Y-39472395D01*
X39230001Y-38937106D01*
X39230000Y-38937106D01*
X38694708Y-39472396D01*
X38711778Y-39481093D01*
X38740706Y-39490492D01*
X38798382Y-39529929D01*
X38825581Y-39594287D01*
X38813668Y-39663134D01*
X38766425Y-39714610D01*
X38758686Y-39718908D01*
X38627004Y-39786004D01*
X38480505Y-39892441D01*
X38480500Y-39892445D01*
X38352445Y-40020500D01*
X38352441Y-40020505D01*
X38246006Y-40167002D01*
X38163788Y-40328360D01*
X38163787Y-40328363D01*
X38107829Y-40500589D01*
X38082473Y-40660678D01*
X38052544Y-40723813D01*
X37993232Y-40760744D01*
X37923369Y-40759746D01*
X37865137Y-40721136D01*
X37837527Y-40660678D01*
X37818832Y-40542649D01*
X37812171Y-40500591D01*
X37784191Y-40414476D01*
X37756212Y-40328363D01*
X37756211Y-40328360D01*
X37717190Y-40251778D01*
X37673996Y-40167006D01*
X37656624Y-40143096D01*
X37567558Y-40020505D01*
X37567554Y-40020500D01*
X37439499Y-39892445D01*
X37439494Y-39892441D01*
X37292997Y-39786006D01*
X37292996Y-39786005D01*
X37292994Y-39786004D01*
X37216906Y-39747235D01*
X37131639Y-39703788D01*
X37131636Y-39703787D01*
X36959410Y-39647829D01*
X36799321Y-39622473D01*
X36736186Y-39592544D01*
X36699255Y-39533232D01*
X36700253Y-39463370D01*
X36738863Y-39405137D01*
X36799321Y-39377527D01*
X36869425Y-39366422D01*
X36959409Y-39352171D01*
X37131639Y-39296211D01*
X37292994Y-39213996D01*
X37439501Y-39107553D01*
X37567553Y-38979501D01*
X37673996Y-38832994D01*
X37741091Y-38701312D01*
X37789064Y-38650518D01*
X37856885Y-38633723D01*
X37923020Y-38656260D01*
X37966472Y-38710975D01*
X37969506Y-38719291D01*
X37978903Y-38748213D01*
X37978908Y-38748225D01*
X37987602Y-38765289D01*
X37987603Y-38765290D01*
X38522894Y-38230000D01*
X38457068Y-38164174D01*
X38730000Y-38164174D01*
X38730000Y-38295826D01*
X38764075Y-38422993D01*
X38829901Y-38537007D01*
X38922993Y-38630099D01*
X39037007Y-38695925D01*
X39164174Y-38730000D01*
X39295826Y-38730000D01*
X39422993Y-38695925D01*
X39537007Y-38630099D01*
X39630099Y-38537007D01*
X39695925Y-38422993D01*
X39730000Y-38295826D01*
X39730000Y-38164174D01*
X39695925Y-38037007D01*
X39630099Y-37922993D01*
X39537007Y-37829901D01*
X39422993Y-37764075D01*
X39295826Y-37730000D01*
X39164174Y-37730000D01*
X39037007Y-37764075D01*
X38922993Y-37829901D01*
X38829901Y-37922993D01*
X38764075Y-38037007D01*
X38730000Y-38164174D01*
X38457068Y-38164174D01*
X37987603Y-37694709D01*
X37978903Y-37711785D01*
X37969505Y-37740710D01*
X37930067Y-37798385D01*
X37865708Y-37825582D01*
X37796861Y-37813666D01*
X37745387Y-37766421D01*
X37741090Y-37758685D01*
X37717193Y-37711785D01*
X37673996Y-37627006D01*
X37598355Y-37522894D01*
X37567558Y-37480505D01*
X37567554Y-37480500D01*
X37439499Y-37352445D01*
X37439494Y-37352441D01*
X37292997Y-37246006D01*
X37292996Y-37246005D01*
X37292994Y-37246004D01*
X37241300Y-37219664D01*
X37131639Y-37163788D01*
X37131636Y-37163787D01*
X37084702Y-37148538D01*
X37084701Y-37148537D01*
X36959411Y-37107829D01*
X36959412Y-37107829D01*
X36780551Y-37079500D01*
X36780546Y-37079500D01*
X36599454Y-37079500D01*
X36599449Y-37079500D01*
X36420589Y-37107829D01*
X36248363Y-37163787D01*
X36248360Y-37163788D01*
X36087002Y-37246006D01*
X35940505Y-37352441D01*
X35940500Y-37352445D01*
X35812445Y-37480500D01*
X35812441Y-37480505D01*
X35706006Y-37627002D01*
X35623788Y-37788360D01*
X35623787Y-37788363D01*
X35567829Y-37960589D01*
X35542473Y-38120678D01*
X35512544Y-38183813D01*
X35453232Y-38220744D01*
X35383369Y-38219746D01*
X35325137Y-38181136D01*
X35297527Y-38120678D01*
X35281067Y-38016759D01*
X35272171Y-37960591D01*
X35216211Y-37788361D01*
X35216211Y-37788360D01*
X35177190Y-37711778D01*
X35133996Y-37627006D01*
X35058355Y-37522894D01*
X35027558Y-37480505D01*
X35027554Y-37480500D01*
X34899499Y-37352445D01*
X34899494Y-37352441D01*
X34752997Y-37246006D01*
X34752996Y-37246005D01*
X34752994Y-37246004D01*
X34701300Y-37219664D01*
X34591639Y-37163788D01*
X34591636Y-37163787D01*
X34419410Y-37107829D01*
X34240551Y-37079500D01*
X34240546Y-37079500D01*
X34059454Y-37079500D01*
X34059449Y-37079500D01*
X33880589Y-37107829D01*
X33708363Y-37163787D01*
X33708360Y-37163788D01*
X33547002Y-37246006D01*
X33400505Y-37352441D01*
X33400500Y-37352445D01*
X33272445Y-37480500D01*
X33272441Y-37480505D01*
X33166004Y-37627004D01*
X33098908Y-37758686D01*
X33050934Y-37809481D01*
X32983113Y-37826276D01*
X32916978Y-37803738D01*
X32873527Y-37749023D01*
X32870492Y-37740706D01*
X32861093Y-37711778D01*
X32852396Y-37694708D01*
X32317106Y-38229999D01*
X32317106Y-38230001D01*
X32852395Y-38765290D01*
X32852395Y-38765289D01*
X32861093Y-38748220D01*
X32861095Y-38748215D01*
X32870493Y-38719292D01*
X32909930Y-38661616D01*
X32974288Y-38634417D01*
X33043135Y-38646331D01*
X33094611Y-38693575D01*
X33098909Y-38701314D01*
X33166006Y-38832997D01*
X33272441Y-38979494D01*
X33272445Y-38979499D01*
X33400500Y-39107554D01*
X33400505Y-39107558D01*
X33528287Y-39200396D01*
X33547006Y-39213996D01*
X33634705Y-39258681D01*
X33708360Y-39296211D01*
X33708363Y-39296212D01*
X33724411Y-39301426D01*
X33880591Y-39352171D01*
X33953639Y-39363740D01*
X34040678Y-39377527D01*
X34103813Y-39407456D01*
X34140744Y-39466768D01*
X34139746Y-39536631D01*
X34101136Y-39594863D01*
X34040678Y-39622473D01*
X33880589Y-39647829D01*
X33708363Y-39703787D01*
X33708360Y-39703788D01*
X33547002Y-39786006D01*
X33400505Y-39892441D01*
X33400500Y-39892445D01*
X33272445Y-40020500D01*
X33272441Y-40020505D01*
X33166006Y-40167002D01*
X33083788Y-40328360D01*
X33083787Y-40328363D01*
X33027829Y-40500589D01*
X33002473Y-40660678D01*
X32972544Y-40723813D01*
X32913232Y-40760744D01*
X32843369Y-40759746D01*
X32785137Y-40721136D01*
X32757527Y-40660678D01*
X32738832Y-40542649D01*
X32732171Y-40500591D01*
X32704191Y-40414476D01*
X32676212Y-40328363D01*
X32676211Y-40328360D01*
X32637190Y-40251778D01*
X32593996Y-40167006D01*
X32576624Y-40143096D01*
X32487558Y-40020505D01*
X32487554Y-40020500D01*
X32359499Y-39892445D01*
X32359494Y-39892441D01*
X32212997Y-39786006D01*
X32212996Y-39786005D01*
X32212994Y-39786004D01*
X32128533Y-39742969D01*
X32081314Y-39718909D01*
X32030518Y-39670934D01*
X32013723Y-39603113D01*
X32036261Y-39536978D01*
X32090976Y-39493527D01*
X32099292Y-39490493D01*
X32128215Y-39481095D01*
X32128220Y-39481093D01*
X32145289Y-39472395D01*
X32145290Y-39472395D01*
X31610001Y-38937106D01*
X31610000Y-38937106D01*
X31074708Y-39472396D01*
X31091778Y-39481093D01*
X31120706Y-39490492D01*
X31178382Y-39529929D01*
X31205581Y-39594287D01*
X31193668Y-39663134D01*
X31146425Y-39714610D01*
X31138686Y-39718908D01*
X31007004Y-39786004D01*
X30860505Y-39892441D01*
X30860500Y-39892445D01*
X30732445Y-40020500D01*
X30732441Y-40020505D01*
X30626006Y-40167002D01*
X30543788Y-40328360D01*
X30543787Y-40328363D01*
X30487829Y-40500589D01*
X30462473Y-40660678D01*
X30432544Y-40723813D01*
X30373232Y-40760744D01*
X30303369Y-40759746D01*
X30245137Y-40721136D01*
X30217527Y-40660678D01*
X30198832Y-40542649D01*
X30192171Y-40500591D01*
X30164191Y-40414476D01*
X30136212Y-40328363D01*
X30136211Y-40328360D01*
X30097190Y-40251778D01*
X30053996Y-40167006D01*
X30036624Y-40143096D01*
X29947558Y-40020505D01*
X29947554Y-40020500D01*
X29819499Y-39892445D01*
X29819494Y-39892441D01*
X29672997Y-39786006D01*
X29672996Y-39786005D01*
X29672994Y-39786004D01*
X29596906Y-39747235D01*
X29511639Y-39703788D01*
X29511636Y-39703787D01*
X29339410Y-39647829D01*
X29179321Y-39622473D01*
X29116186Y-39592544D01*
X29079255Y-39533232D01*
X29080253Y-39463370D01*
X29118863Y-39405137D01*
X29179321Y-39377527D01*
X29249425Y-39366422D01*
X29339409Y-39352171D01*
X29511639Y-39296211D01*
X29672994Y-39213996D01*
X29819501Y-39107553D01*
X29947553Y-38979501D01*
X30053996Y-38832994D01*
X30121091Y-38701312D01*
X30169064Y-38650518D01*
X30236885Y-38633723D01*
X30303020Y-38656260D01*
X30346472Y-38710975D01*
X30349506Y-38719291D01*
X30358903Y-38748213D01*
X30358908Y-38748225D01*
X30367602Y-38765289D01*
X30367603Y-38765290D01*
X30902894Y-38230000D01*
X30837068Y-38164174D01*
X31110000Y-38164174D01*
X31110000Y-38295826D01*
X31144075Y-38422993D01*
X31209901Y-38537007D01*
X31302993Y-38630099D01*
X31417007Y-38695925D01*
X31544174Y-38730000D01*
X31675826Y-38730000D01*
X31802993Y-38695925D01*
X31917007Y-38630099D01*
X32010099Y-38537007D01*
X32075925Y-38422993D01*
X32110000Y-38295826D01*
X32110000Y-38164174D01*
X32075925Y-38037007D01*
X32010099Y-37922993D01*
X31917007Y-37829901D01*
X31802993Y-37764075D01*
X31675826Y-37730000D01*
X31544174Y-37730000D01*
X31417007Y-37764075D01*
X31302993Y-37829901D01*
X31209901Y-37922993D01*
X31144075Y-38037007D01*
X31110000Y-38164174D01*
X30837068Y-38164174D01*
X30367603Y-37694709D01*
X30358903Y-37711785D01*
X30349505Y-37740710D01*
X30310067Y-37798385D01*
X30245708Y-37825582D01*
X30176861Y-37813666D01*
X30125387Y-37766421D01*
X30121090Y-37758685D01*
X30097193Y-37711785D01*
X30053996Y-37627006D01*
X29978355Y-37522894D01*
X29947558Y-37480505D01*
X29947554Y-37480500D01*
X29819499Y-37352445D01*
X29819494Y-37352441D01*
X29672997Y-37246006D01*
X29672996Y-37246005D01*
X29672994Y-37246004D01*
X29621300Y-37219664D01*
X29511639Y-37163788D01*
X29511636Y-37163787D01*
X29464702Y-37148538D01*
X29464701Y-37148537D01*
X29339411Y-37107829D01*
X29339412Y-37107829D01*
X29160551Y-37079500D01*
X29160546Y-37079500D01*
X28979454Y-37079500D01*
X28979449Y-37079500D01*
X28800589Y-37107829D01*
X28628363Y-37163787D01*
X28628360Y-37163788D01*
X28467002Y-37246006D01*
X28320505Y-37352441D01*
X28320500Y-37352445D01*
X28192445Y-37480500D01*
X28192441Y-37480505D01*
X28086006Y-37627002D01*
X28003788Y-37788360D01*
X28003787Y-37788363D01*
X27947829Y-37960589D01*
X27922473Y-38120678D01*
X27892544Y-38183813D01*
X27833232Y-38220744D01*
X27763369Y-38219746D01*
X27705137Y-38181136D01*
X27677527Y-38120678D01*
X27661067Y-38016759D01*
X27652171Y-37960591D01*
X27596211Y-37788361D01*
X27596211Y-37788360D01*
X27557190Y-37711778D01*
X27513996Y-37627006D01*
X27438355Y-37522894D01*
X27407558Y-37480505D01*
X27407554Y-37480500D01*
X27279499Y-37352445D01*
X27279494Y-37352441D01*
X27132997Y-37246006D01*
X27132996Y-37246005D01*
X27132994Y-37246004D01*
X27081300Y-37219664D01*
X26971639Y-37163788D01*
X26971636Y-37163787D01*
X26799410Y-37107829D01*
X26620551Y-37079500D01*
X26620546Y-37079500D01*
X26439454Y-37079500D01*
X26439449Y-37079500D01*
X26260589Y-37107829D01*
X26088363Y-37163787D01*
X26088360Y-37163788D01*
X25927002Y-37246006D01*
X25780505Y-37352441D01*
X25780500Y-37352445D01*
X25652445Y-37480500D01*
X25652441Y-37480505D01*
X25546006Y-37627002D01*
X25463788Y-37788360D01*
X25463787Y-37788363D01*
X25407829Y-37960589D01*
X25382473Y-38120678D01*
X25352544Y-38183813D01*
X25293232Y-38220744D01*
X25223369Y-38219746D01*
X25165137Y-38181136D01*
X25137527Y-38120678D01*
X25121067Y-38016759D01*
X25112171Y-37960591D01*
X25056211Y-37788361D01*
X25056211Y-37788360D01*
X25017190Y-37711778D01*
X24973996Y-37627006D01*
X24898355Y-37522894D01*
X24867558Y-37480505D01*
X24867554Y-37480500D01*
X24739499Y-37352445D01*
X24739494Y-37352441D01*
X24592997Y-37246006D01*
X24592996Y-37246005D01*
X24592994Y-37246004D01*
X24541300Y-37219664D01*
X24431639Y-37163788D01*
X24431636Y-37163787D01*
X24259410Y-37107829D01*
X24080551Y-37079500D01*
X24080546Y-37079500D01*
X23899454Y-37079500D01*
X23899449Y-37079500D01*
X23720589Y-37107829D01*
X23548363Y-37163787D01*
X23548360Y-37163788D01*
X23387002Y-37246006D01*
X23240505Y-37352441D01*
X23240500Y-37352445D01*
X23112445Y-37480500D01*
X23112441Y-37480505D01*
X23006004Y-37627004D01*
X22938908Y-37758686D01*
X22890934Y-37809481D01*
X22823113Y-37826276D01*
X22756978Y-37803738D01*
X22713527Y-37749023D01*
X22710492Y-37740706D01*
X22701093Y-37711778D01*
X22692396Y-37694708D01*
X22157106Y-38229999D01*
X22157106Y-38230000D01*
X22692395Y-38765290D01*
X22692395Y-38765289D01*
X22701093Y-38748220D01*
X22701095Y-38748215D01*
X22710493Y-38719292D01*
X22749930Y-38661616D01*
X22814288Y-38634417D01*
X22883135Y-38646331D01*
X22934611Y-38693575D01*
X22938909Y-38701314D01*
X23006006Y-38832997D01*
X23112441Y-38979494D01*
X23112445Y-38979499D01*
X23240500Y-39107554D01*
X23240505Y-39107558D01*
X23368287Y-39200396D01*
X23387006Y-39213996D01*
X23474705Y-39258681D01*
X23548360Y-39296211D01*
X23548363Y-39296212D01*
X23564411Y-39301426D01*
X23720591Y-39352171D01*
X23793639Y-39363740D01*
X23880678Y-39377527D01*
X23943813Y-39407456D01*
X23980744Y-39466768D01*
X23979746Y-39536631D01*
X23941136Y-39594863D01*
X23880678Y-39622473D01*
X23720589Y-39647829D01*
X23548363Y-39703787D01*
X23548360Y-39703788D01*
X23387002Y-39786006D01*
X23240505Y-39892441D01*
X23240500Y-39892445D01*
X23112445Y-40020500D01*
X23112441Y-40020505D01*
X23006006Y-40167002D01*
X22923788Y-40328360D01*
X22923787Y-40328363D01*
X22867829Y-40500589D01*
X22842473Y-40660678D01*
X22812544Y-40723813D01*
X22753232Y-40760744D01*
X22683369Y-40759746D01*
X22625137Y-40721136D01*
X22597527Y-40660678D01*
X22578832Y-40542649D01*
X22572171Y-40500591D01*
X22544191Y-40414476D01*
X22516212Y-40328363D01*
X22516211Y-40328360D01*
X22477190Y-40251778D01*
X22433996Y-40167006D01*
X22416624Y-40143096D01*
X22327558Y-40020505D01*
X22327554Y-40020500D01*
X22199499Y-39892445D01*
X22199494Y-39892441D01*
X22052997Y-39786006D01*
X22052996Y-39786005D01*
X22052994Y-39786004D01*
X21968533Y-39742969D01*
X21921314Y-39718909D01*
X21870518Y-39670934D01*
X21853723Y-39603113D01*
X21876261Y-39536978D01*
X21930976Y-39493527D01*
X21939292Y-39490493D01*
X21968215Y-39481095D01*
X21968220Y-39481093D01*
X21985289Y-39472395D01*
X21985290Y-39472395D01*
X21450001Y-38937106D01*
X21450000Y-38937106D01*
X20914708Y-39472396D01*
X20931778Y-39481093D01*
X20960706Y-39490492D01*
X21018382Y-39529929D01*
X21045581Y-39594287D01*
X21033668Y-39663134D01*
X20986425Y-39714610D01*
X20978686Y-39718908D01*
X20847004Y-39786004D01*
X20700505Y-39892441D01*
X20700500Y-39892445D01*
X20572445Y-40020500D01*
X20572441Y-40020505D01*
X20466006Y-40167002D01*
X20383788Y-40328360D01*
X20383787Y-40328363D01*
X20327829Y-40500589D01*
X20302473Y-40660678D01*
X20272544Y-40723813D01*
X20213232Y-40760744D01*
X20143369Y-40759746D01*
X20085137Y-40721136D01*
X20057527Y-40660678D01*
X20038832Y-40542649D01*
X20032171Y-40500591D01*
X20004191Y-40414476D01*
X19976212Y-40328363D01*
X19976211Y-40328360D01*
X19937190Y-40251778D01*
X19893996Y-40167006D01*
X19876624Y-40143096D01*
X19787558Y-40020505D01*
X19787554Y-40020500D01*
X19659499Y-39892445D01*
X19659494Y-39892441D01*
X19512997Y-39786006D01*
X19512996Y-39786005D01*
X19512994Y-39786004D01*
X19436906Y-39747235D01*
X19351639Y-39703788D01*
X19351636Y-39703787D01*
X19179410Y-39647829D01*
X19019321Y-39622473D01*
X18956186Y-39592544D01*
X18919255Y-39533232D01*
X18920253Y-39463370D01*
X18958863Y-39405137D01*
X19019321Y-39377527D01*
X19089425Y-39366422D01*
X19179409Y-39352171D01*
X19351639Y-39296211D01*
X19512994Y-39213996D01*
X19659501Y-39107553D01*
X19787553Y-38979501D01*
X19893996Y-38832994D01*
X19961091Y-38701312D01*
X20009064Y-38650518D01*
X20076885Y-38633723D01*
X20143020Y-38656260D01*
X20186472Y-38710975D01*
X20189506Y-38719291D01*
X20198903Y-38748213D01*
X20198908Y-38748225D01*
X20207602Y-38765289D01*
X20207603Y-38765290D01*
X20742894Y-38230000D01*
X20677068Y-38164174D01*
X20950000Y-38164174D01*
X20950000Y-38295826D01*
X20984075Y-38422993D01*
X21049901Y-38537007D01*
X21142993Y-38630099D01*
X21257007Y-38695925D01*
X21384174Y-38730000D01*
X21515826Y-38730000D01*
X21642993Y-38695925D01*
X21757007Y-38630099D01*
X21850099Y-38537007D01*
X21915925Y-38422993D01*
X21950000Y-38295826D01*
X21950000Y-38164174D01*
X21915925Y-38037007D01*
X21850099Y-37922993D01*
X21757007Y-37829901D01*
X21642993Y-37764075D01*
X21515826Y-37730000D01*
X21384174Y-37730000D01*
X21257007Y-37764075D01*
X21142993Y-37829901D01*
X21049901Y-37922993D01*
X20984075Y-38037007D01*
X20950000Y-38164174D01*
X20677068Y-38164174D01*
X20207603Y-37694709D01*
X20198903Y-37711785D01*
X20189505Y-37740710D01*
X20150067Y-37798385D01*
X20085708Y-37825582D01*
X20016861Y-37813666D01*
X19965387Y-37766421D01*
X19961090Y-37758685D01*
X19937193Y-37711785D01*
X19893996Y-37627006D01*
X19818355Y-37522894D01*
X19787558Y-37480505D01*
X19787554Y-37480500D01*
X19659499Y-37352445D01*
X19659494Y-37352441D01*
X19512997Y-37246006D01*
X19512996Y-37246005D01*
X19512994Y-37246004D01*
X19461300Y-37219664D01*
X19351639Y-37163788D01*
X19351636Y-37163787D01*
X19304702Y-37148538D01*
X19304701Y-37148537D01*
X19179411Y-37107829D01*
X19179412Y-37107829D01*
X19000551Y-37079500D01*
X19000546Y-37079500D01*
X18819454Y-37079500D01*
X18819449Y-37079500D01*
X18640589Y-37107829D01*
X18468363Y-37163787D01*
X18468360Y-37163788D01*
X18307002Y-37246006D01*
X18160505Y-37352441D01*
X18160500Y-37352445D01*
X18032445Y-37480500D01*
X18032441Y-37480505D01*
X17926006Y-37627002D01*
X17843788Y-37788360D01*
X17843787Y-37788363D01*
X17787829Y-37960589D01*
X17762473Y-38120678D01*
X17732544Y-38183813D01*
X17673232Y-38220744D01*
X17603369Y-38219746D01*
X17545137Y-38181136D01*
X17517527Y-38120678D01*
X17501067Y-38016759D01*
X17492171Y-37960591D01*
X17436211Y-37788361D01*
X17436211Y-37788360D01*
X17397190Y-37711778D01*
X17353996Y-37627006D01*
X17278355Y-37522894D01*
X17247558Y-37480505D01*
X17247554Y-37480500D01*
X17119499Y-37352445D01*
X17119494Y-37352441D01*
X16972997Y-37246006D01*
X16972996Y-37246005D01*
X16972994Y-37246004D01*
X16921300Y-37219664D01*
X16811639Y-37163788D01*
X16811636Y-37163787D01*
X16639410Y-37107829D01*
X16460551Y-37079500D01*
X16460546Y-37079500D01*
X16279454Y-37079500D01*
X16279449Y-37079500D01*
X16100589Y-37107829D01*
X15928363Y-37163787D01*
X15928360Y-37163788D01*
X15767002Y-37246006D01*
X15620505Y-37352441D01*
X15620500Y-37352445D01*
X15492445Y-37480500D01*
X15492441Y-37480505D01*
X15386006Y-37627002D01*
X15303788Y-37788360D01*
X15303787Y-37788363D01*
X15247829Y-37960589D01*
X15219500Y-38139448D01*
X12350294Y-38139448D01*
X12338848Y-38131132D01*
X12338847Y-38131131D01*
X12338845Y-38131130D01*
X12268747Y-38095413D01*
X12114383Y-38016760D01*
X11874785Y-37938910D01*
X11625962Y-37899500D01*
X11374038Y-37899500D01*
X11249626Y-37919205D01*
X11125214Y-37938910D01*
X10885616Y-38016760D01*
X10661151Y-38131132D01*
X10457350Y-38279201D01*
X10457345Y-38279205D01*
X10279205Y-38457345D01*
X10279201Y-38457350D01*
X10131132Y-38661151D01*
X10016760Y-38885616D01*
X9938910Y-39125214D01*
X9911001Y-39301426D01*
X9899500Y-39374038D01*
X500500Y-39374038D01*
X500500Y-36987603D01*
X20914709Y-36987603D01*
X21450000Y-37522894D01*
X21450001Y-37522894D01*
X21985290Y-36987603D01*
X31074709Y-36987603D01*
X31610000Y-37522894D01*
X31610001Y-37522894D01*
X32145290Y-36987603D01*
X38694709Y-36987603D01*
X39230000Y-37522894D01*
X39230001Y-37522894D01*
X39765290Y-36987603D01*
X51394709Y-36987603D01*
X51930000Y-37522894D01*
X51930001Y-37522894D01*
X52465290Y-36987603D01*
X56474709Y-36987603D01*
X57010000Y-37522894D01*
X57010001Y-37522894D01*
X57545290Y-36987603D01*
X57545289Y-36987602D01*
X57528225Y-36978908D01*
X57528213Y-36978903D01*
X57326128Y-36913242D01*
X57116246Y-36880000D01*
X56903754Y-36880000D01*
X56693872Y-36913242D01*
X56693869Y-36913242D01*
X56491783Y-36978904D01*
X56474709Y-36987603D01*
X52465290Y-36987603D01*
X52465289Y-36987602D01*
X52448225Y-36978908D01*
X52448213Y-36978903D01*
X52246128Y-36913242D01*
X52036246Y-36880000D01*
X51823754Y-36880000D01*
X51613872Y-36913242D01*
X51613869Y-36913242D01*
X51411783Y-36978904D01*
X51394709Y-36987603D01*
X39765290Y-36987603D01*
X39765289Y-36987602D01*
X39748225Y-36978908D01*
X39748213Y-36978903D01*
X39546128Y-36913242D01*
X39336246Y-36880000D01*
X39123754Y-36880000D01*
X38913872Y-36913242D01*
X38913869Y-36913242D01*
X38711783Y-36978904D01*
X38694709Y-36987603D01*
X32145290Y-36987603D01*
X32145289Y-36987602D01*
X32128225Y-36978908D01*
X32128213Y-36978903D01*
X31926128Y-36913242D01*
X31716246Y-36880000D01*
X31503754Y-36880000D01*
X31293872Y-36913242D01*
X31293869Y-36913242D01*
X31091783Y-36978904D01*
X31074709Y-36987603D01*
X21985290Y-36987603D01*
X21985289Y-36987602D01*
X21968225Y-36978908D01*
X21968213Y-36978903D01*
X21766128Y-36913242D01*
X21556246Y-36880000D01*
X21343754Y-36880000D01*
X21133872Y-36913242D01*
X21133869Y-36913242D01*
X20931783Y-36978904D01*
X20914709Y-36987603D01*
X500500Y-36987603D01*
X500500Y-31000001D01*
X75617985Y-31000001D01*
X75623903Y-31018215D01*
X75720379Y-31207557D01*
X75845272Y-31379459D01*
X75845276Y-31379464D01*
X75995535Y-31529723D01*
X75995540Y-31529727D01*
X76167442Y-31654620D01*
X76356779Y-31751094D01*
X76356785Y-31751096D01*
X76499999Y-31797628D01*
X77500000Y-31797628D01*
X77643214Y-31751096D01*
X77643220Y-31751094D01*
X77832557Y-31654620D01*
X78004459Y-31529727D01*
X78004464Y-31529723D01*
X78154723Y-31379464D01*
X78154727Y-31379459D01*
X78279620Y-31207557D01*
X78376096Y-31018215D01*
X78382014Y-31000001D01*
X78382014Y-31000000D01*
X77500000Y-31000000D01*
X77500000Y-31797628D01*
X76499999Y-31797628D01*
X76500000Y-31797627D01*
X76500000Y-31000000D01*
X75617986Y-31000000D01*
X75617985Y-31000001D01*
X500500Y-31000001D01*
X500500Y-30437465D01*
X76525000Y-30437465D01*
X76525000Y-30562535D01*
X76557370Y-30683343D01*
X76619905Y-30791657D01*
X76708343Y-30880095D01*
X76816657Y-30942630D01*
X76937465Y-30975000D01*
X77062535Y-30975000D01*
X77183343Y-30942630D01*
X77291657Y-30880095D01*
X77380095Y-30791657D01*
X77442630Y-30683343D01*
X77475000Y-30562535D01*
X77475000Y-30437465D01*
X77442630Y-30316657D01*
X77380095Y-30208343D01*
X77291657Y-30119905D01*
X77183343Y-30057370D01*
X77062535Y-30025000D01*
X76937465Y-30025000D01*
X76816657Y-30057370D01*
X76708343Y-30119905D01*
X76619905Y-30208343D01*
X76557370Y-30316657D01*
X76525000Y-30437465D01*
X500500Y-30437465D01*
X500500Y-29999998D01*
X75617985Y-29999998D01*
X75617986Y-30000000D01*
X78382014Y-30000000D01*
X78382014Y-29999998D01*
X78376096Y-29981784D01*
X78279620Y-29792442D01*
X78154727Y-29620540D01*
X78154723Y-29620535D01*
X78004464Y-29470276D01*
X78004459Y-29470272D01*
X77832557Y-29345379D01*
X77642488Y-29248533D01*
X77591692Y-29200558D01*
X77574897Y-29132737D01*
X77597435Y-29066602D01*
X77642489Y-29027563D01*
X77727994Y-28983996D01*
X77874501Y-28877553D01*
X78002553Y-28749501D01*
X78108996Y-28602994D01*
X78191211Y-28441639D01*
X78247171Y-28269409D01*
X78261765Y-28177259D01*
X78275500Y-28090551D01*
X78275500Y-27909448D01*
X78259019Y-27805397D01*
X78247171Y-27730591D01*
X78191211Y-27558361D01*
X78191211Y-27558360D01*
X78162740Y-27502484D01*
X78108996Y-27397006D01*
X78095396Y-27378287D01*
X78002558Y-27250505D01*
X78002554Y-27250500D01*
X77874499Y-27122445D01*
X77874494Y-27122441D01*
X77727997Y-27016006D01*
X77727996Y-27016005D01*
X77727994Y-27016004D01*
X77676300Y-26989664D01*
X77566639Y-26933788D01*
X77566636Y-26933787D01*
X77439351Y-26892431D01*
X77381676Y-26852994D01*
X77354477Y-26788636D01*
X77366391Y-26719789D01*
X77413635Y-26668313D01*
X77477669Y-26650500D01*
X77768097Y-26650500D01*
X77768102Y-26650500D01*
X77856564Y-26639877D01*
X77997342Y-26584361D01*
X78117922Y-26492922D01*
X78209361Y-26372342D01*
X78264877Y-26231564D01*
X78275500Y-26143102D01*
X78275500Y-24856898D01*
X78264877Y-24768436D01*
X78209361Y-24627658D01*
X78209360Y-24627657D01*
X78209360Y-24627656D01*
X78117922Y-24507077D01*
X77997343Y-24415639D01*
X77856561Y-24360122D01*
X77810926Y-24354642D01*
X77768102Y-24349500D01*
X76231898Y-24349500D01*
X76192853Y-24354188D01*
X76143438Y-24360122D01*
X76002656Y-24415639D01*
X75882077Y-24507077D01*
X75790639Y-24627656D01*
X75735122Y-24768438D01*
X75729188Y-24817853D01*
X75724500Y-24856898D01*
X75724500Y-26143102D01*
X75730126Y-26189954D01*
X75735122Y-26231561D01*
X75790639Y-26372343D01*
X75882077Y-26492922D01*
X76002656Y-26584360D01*
X76002657Y-26584360D01*
X76002658Y-26584361D01*
X76143436Y-26639877D01*
X76231898Y-26650500D01*
X76231903Y-26650500D01*
X76522331Y-26650500D01*
X76589370Y-26670185D01*
X76635125Y-26722989D01*
X76645069Y-26792147D01*
X76616044Y-26855703D01*
X76560649Y-26892431D01*
X76433363Y-26933787D01*
X76433360Y-26933788D01*
X76272002Y-27016006D01*
X76125505Y-27122441D01*
X76125500Y-27122445D01*
X75997445Y-27250500D01*
X75997441Y-27250505D01*
X75891006Y-27397002D01*
X75808788Y-27558360D01*
X75808787Y-27558363D01*
X75752829Y-27730589D01*
X75724500Y-27909448D01*
X75724500Y-28090551D01*
X75752829Y-28269410D01*
X75808787Y-28441636D01*
X75808788Y-28441639D01*
X75891006Y-28602997D01*
X75997441Y-28749494D01*
X75997445Y-28749499D01*
X76125500Y-28877554D01*
X76125505Y-28877558D01*
X76253287Y-28970396D01*
X76272006Y-28983996D01*
X76357511Y-29027563D01*
X76408307Y-29075538D01*
X76425102Y-29143359D01*
X76402565Y-29209494D01*
X76357511Y-29248533D01*
X76167442Y-29345379D01*
X75995540Y-29470272D01*
X75995535Y-29470276D01*
X75845276Y-29620535D01*
X75845272Y-29620540D01*
X75720379Y-29792442D01*
X75623903Y-29981784D01*
X75617985Y-29999998D01*
X500500Y-29999998D01*
X500500Y-17000001D01*
X75617985Y-17000001D01*
X75623903Y-17018215D01*
X75720379Y-17207557D01*
X75845272Y-17379459D01*
X75845276Y-17379464D01*
X75995535Y-17529723D01*
X75995540Y-17529727D01*
X76167442Y-17654620D01*
X76356779Y-17751094D01*
X76356785Y-17751096D01*
X76499999Y-17797628D01*
X77500000Y-17797628D01*
X77643214Y-17751096D01*
X77643220Y-17751094D01*
X77832557Y-17654620D01*
X78004459Y-17529727D01*
X78004464Y-17529723D01*
X78154723Y-17379464D01*
X78154727Y-17379459D01*
X78279620Y-17207557D01*
X78376096Y-17018215D01*
X78382014Y-17000001D01*
X78382014Y-17000000D01*
X77500000Y-17000000D01*
X77500000Y-17797628D01*
X76499999Y-17797628D01*
X76500000Y-17797627D01*
X76500000Y-17000000D01*
X75617986Y-17000000D01*
X75617985Y-17000001D01*
X500500Y-17000001D01*
X500500Y-16437465D01*
X76525000Y-16437465D01*
X76525000Y-16562535D01*
X76557370Y-16683343D01*
X76619905Y-16791657D01*
X76708343Y-16880095D01*
X76816657Y-16942630D01*
X76937465Y-16975000D01*
X77062535Y-16975000D01*
X77183343Y-16942630D01*
X77291657Y-16880095D01*
X77380095Y-16791657D01*
X77442630Y-16683343D01*
X77475000Y-16562535D01*
X77475000Y-16437465D01*
X77442630Y-16316657D01*
X77380095Y-16208343D01*
X77291657Y-16119905D01*
X77183343Y-16057370D01*
X77062535Y-16025000D01*
X76937465Y-16025000D01*
X76816657Y-16057370D01*
X76708343Y-16119905D01*
X76619905Y-16208343D01*
X76557370Y-16316657D01*
X76525000Y-16437465D01*
X500500Y-16437465D01*
X500500Y-15999998D01*
X75617985Y-15999998D01*
X75617986Y-16000000D01*
X78382014Y-16000000D01*
X78382014Y-15999998D01*
X78376096Y-15981784D01*
X78279620Y-15792442D01*
X78154727Y-15620540D01*
X78154723Y-15620535D01*
X78004464Y-15470276D01*
X78004459Y-15470272D01*
X77832557Y-15345379D01*
X77642488Y-15248533D01*
X77591692Y-15200558D01*
X77574897Y-15132737D01*
X77597435Y-15066602D01*
X77642489Y-15027563D01*
X77727994Y-14983996D01*
X77874501Y-14877553D01*
X78002553Y-14749501D01*
X78108996Y-14602994D01*
X78191211Y-14441639D01*
X78247171Y-14269409D01*
X78261765Y-14177259D01*
X78275500Y-14090551D01*
X78275500Y-13909448D01*
X78259019Y-13805397D01*
X78247171Y-13730591D01*
X78191211Y-13558361D01*
X78191211Y-13558360D01*
X78162740Y-13502484D01*
X78108996Y-13397006D01*
X78095396Y-13378287D01*
X78002558Y-13250505D01*
X78002554Y-13250500D01*
X77874499Y-13122445D01*
X77874494Y-13122441D01*
X77727997Y-13016006D01*
X77727996Y-13016005D01*
X77727994Y-13016004D01*
X77676300Y-12989664D01*
X77566639Y-12933788D01*
X77566636Y-12933787D01*
X77439351Y-12892431D01*
X77381676Y-12852994D01*
X77354477Y-12788636D01*
X77366391Y-12719789D01*
X77413635Y-12668313D01*
X77477669Y-12650500D01*
X77768097Y-12650500D01*
X77768102Y-12650500D01*
X77856564Y-12639877D01*
X77997342Y-12584361D01*
X78117922Y-12492922D01*
X78209361Y-12372342D01*
X78264877Y-12231564D01*
X78275500Y-12143102D01*
X78275500Y-10856898D01*
X78264877Y-10768436D01*
X78209361Y-10627658D01*
X78209360Y-10627657D01*
X78209360Y-10627656D01*
X78117922Y-10507077D01*
X77997343Y-10415639D01*
X77856561Y-10360122D01*
X77810926Y-10354642D01*
X77768102Y-10349500D01*
X76231898Y-10349500D01*
X76192853Y-10354188D01*
X76143438Y-10360122D01*
X76002656Y-10415639D01*
X75882077Y-10507077D01*
X75790639Y-10627656D01*
X75735122Y-10768438D01*
X75729188Y-10817853D01*
X75724500Y-10856898D01*
X75724500Y-12143102D01*
X75730126Y-12189954D01*
X75735122Y-12231561D01*
X75790639Y-12372343D01*
X75882077Y-12492922D01*
X76002656Y-12584360D01*
X76002657Y-12584360D01*
X76002658Y-12584361D01*
X76143436Y-12639877D01*
X76231898Y-12650500D01*
X76231903Y-12650500D01*
X76522331Y-12650500D01*
X76589370Y-12670185D01*
X76635125Y-12722989D01*
X76645069Y-12792147D01*
X76616044Y-12855703D01*
X76560649Y-12892431D01*
X76433363Y-12933787D01*
X76433360Y-12933788D01*
X76272002Y-13016006D01*
X76125505Y-13122441D01*
X76125500Y-13122445D01*
X75997445Y-13250500D01*
X75997441Y-13250505D01*
X75891006Y-13397002D01*
X75808788Y-13558360D01*
X75808787Y-13558363D01*
X75752829Y-13730589D01*
X75724500Y-13909448D01*
X75724500Y-14090551D01*
X75752829Y-14269410D01*
X75808787Y-14441636D01*
X75808788Y-14441639D01*
X75891006Y-14602997D01*
X75997441Y-14749494D01*
X75997445Y-14749499D01*
X76125500Y-14877554D01*
X76125505Y-14877558D01*
X76253287Y-14970396D01*
X76272006Y-14983996D01*
X76357511Y-15027563D01*
X76408307Y-15075538D01*
X76425102Y-15143359D01*
X76402565Y-15209494D01*
X76357511Y-15248533D01*
X76167442Y-15345379D01*
X75995540Y-15470272D01*
X75995535Y-15470276D01*
X75845276Y-15620535D01*
X75845272Y-15620540D01*
X75720379Y-15792442D01*
X75623903Y-15981784D01*
X75617985Y-15999998D01*
X500500Y-15999998D01*
X500500Y-6906898D01*
X11399500Y-6906898D01*
X11399500Y-9093102D01*
X11405126Y-9139954D01*
X11410122Y-9181561D01*
X11465639Y-9322343D01*
X11557077Y-9442922D01*
X11677656Y-9534360D01*
X11677657Y-9534360D01*
X11677658Y-9534361D01*
X11818436Y-9589877D01*
X11906898Y-9600500D01*
X11906903Y-9600500D01*
X14093097Y-9600500D01*
X14093102Y-9600500D01*
X14181564Y-9589877D01*
X14215463Y-9576509D01*
X17210594Y-9576509D01*
X17282168Y-9617833D01*
X17282183Y-9617840D01*
X17500163Y-9708129D01*
X17500161Y-9708129D01*
X17728085Y-9769200D01*
X17962014Y-9799999D01*
X17962029Y-9800000D01*
X18197971Y-9800000D01*
X18197985Y-9799999D01*
X18431914Y-9769200D01*
X18659837Y-9708129D01*
X18877819Y-9617839D01*
X18877828Y-9617834D01*
X18949404Y-9576509D01*
X18080000Y-8707106D01*
X17210594Y-9576509D01*
X14215463Y-9576509D01*
X14322342Y-9534361D01*
X14442922Y-9442922D01*
X14534361Y-9322342D01*
X14589877Y-9181564D01*
X14600500Y-9093102D01*
X14600500Y-7882014D01*
X16280000Y-7882014D01*
X16280000Y-8117985D01*
X16310799Y-8351914D01*
X16371870Y-8579837D01*
X16462159Y-8797816D01*
X16462164Y-8797826D01*
X16503489Y-8869403D01*
X17372894Y-8000000D01*
X17308875Y-7935981D01*
X17430000Y-7935981D01*
X17430000Y-8064019D01*
X17454979Y-8189598D01*
X17503978Y-8307890D01*
X17575112Y-8414351D01*
X17665649Y-8504888D01*
X17772110Y-8576022D01*
X17890402Y-8625021D01*
X18015981Y-8650000D01*
X18144019Y-8650000D01*
X18269598Y-8625021D01*
X18387890Y-8576022D01*
X18494351Y-8504888D01*
X18584888Y-8414351D01*
X18656022Y-8307890D01*
X18705021Y-8189598D01*
X18730000Y-8064019D01*
X18730000Y-7999999D01*
X18787106Y-7999999D01*
X18787106Y-8000001D01*
X19656509Y-8869404D01*
X19697834Y-8797828D01*
X19697839Y-8797819D01*
X19788129Y-8579837D01*
X19849200Y-8351914D01*
X19879999Y-8117985D01*
X19880000Y-8117971D01*
X19880000Y-7882028D01*
X19879999Y-7882014D01*
X19849200Y-7648085D01*
X19788129Y-7420162D01*
X19697840Y-7202183D01*
X19697833Y-7202168D01*
X19656509Y-7130594D01*
X18787106Y-7999999D01*
X18730000Y-7999999D01*
X18730000Y-7935981D01*
X18705021Y-7810402D01*
X18656022Y-7692110D01*
X18584888Y-7585649D01*
X18494351Y-7495112D01*
X18387890Y-7423978D01*
X18269598Y-7374979D01*
X18144019Y-7350000D01*
X18015981Y-7350000D01*
X17890402Y-7374979D01*
X17772110Y-7423978D01*
X17665649Y-7495112D01*
X17575112Y-7585649D01*
X17503978Y-7692110D01*
X17454979Y-7810402D01*
X17430000Y-7935981D01*
X17308875Y-7935981D01*
X16503489Y-7130595D01*
X16462166Y-7202170D01*
X16462163Y-7202176D01*
X16371869Y-7420165D01*
X16310799Y-7648085D01*
X16280000Y-7882014D01*
X14600500Y-7882014D01*
X14600500Y-6906898D01*
X14589877Y-6818436D01*
X14534361Y-6677658D01*
X14534360Y-6677657D01*
X14534360Y-6677656D01*
X14442922Y-6557077D01*
X14322343Y-6465639D01*
X14215458Y-6423489D01*
X17210595Y-6423489D01*
X18080000Y-7292894D01*
X18080001Y-7292894D01*
X18949404Y-6423489D01*
X18877826Y-6382164D01*
X18877816Y-6382159D01*
X18659836Y-6291870D01*
X18659838Y-6291870D01*
X18431914Y-6230799D01*
X18197985Y-6200000D01*
X17962014Y-6200000D01*
X17728085Y-6230799D01*
X17500165Y-6291869D01*
X17282176Y-6382163D01*
X17282170Y-6382166D01*
X17210595Y-6423489D01*
X14215458Y-6423489D01*
X14181561Y-6410122D01*
X14135926Y-6404642D01*
X14093102Y-6399500D01*
X11906898Y-6399500D01*
X11867853Y-6404188D01*
X11818438Y-6410122D01*
X11677656Y-6465639D01*
X11557077Y-6557077D01*
X11465639Y-6677656D01*
X11410122Y-6818438D01*
X11404188Y-6867853D01*
X11399500Y-6906898D01*
X500500Y-6906898D01*
X500500Y-3878711D01*
X2149500Y-3878711D01*
X2149500Y-4121288D01*
X2181161Y-4361785D01*
X2243947Y-4596104D01*
X2336773Y-4820205D01*
X2336776Y-4820212D01*
X2458064Y-5030289D01*
X2458066Y-5030292D01*
X2458067Y-5030293D01*
X2605733Y-5222736D01*
X2605739Y-5222743D01*
X2777256Y-5394260D01*
X2777262Y-5394265D01*
X2969711Y-5541936D01*
X3179788Y-5663224D01*
X3403900Y-5756054D01*
X3638211Y-5818838D01*
X3818586Y-5842584D01*
X3878711Y-5850500D01*
X3878712Y-5850500D01*
X4121289Y-5850500D01*
X4169388Y-5844167D01*
X4361789Y-5818838D01*
X4596100Y-5756054D01*
X4820212Y-5663224D01*
X5030289Y-5541936D01*
X5222738Y-5394265D01*
X5394265Y-5222738D01*
X5541936Y-5030289D01*
X5663224Y-4820212D01*
X5756054Y-4596100D01*
X5818838Y-4361789D01*
X5850500Y-4121288D01*
X5850500Y-3878712D01*
X5850500Y-3878711D01*
X79149500Y-3878711D01*
X79149500Y-4121288D01*
X79181161Y-4361785D01*
X79243947Y-4596104D01*
X79336773Y-4820205D01*
X79336776Y-4820212D01*
X79458064Y-5030289D01*
X79458066Y-5030292D01*
X79458067Y-5030293D01*
X79605733Y-5222736D01*
X79605739Y-5222743D01*
X79777256Y-5394260D01*
X79777262Y-5394265D01*
X79969711Y-5541936D01*
X80179788Y-5663224D01*
X80403900Y-5756054D01*
X80638211Y-5818838D01*
X80818586Y-5842584D01*
X80878711Y-5850500D01*
X80878712Y-5850500D01*
X81121289Y-5850500D01*
X81169388Y-5844167D01*
X81361789Y-5818838D01*
X81596100Y-5756054D01*
X81820212Y-5663224D01*
X82030289Y-5541936D01*
X82222738Y-5394265D01*
X82394265Y-5222738D01*
X82541936Y-5030289D01*
X82663224Y-4820212D01*
X82756054Y-4596100D01*
X82818838Y-4361789D01*
X82850500Y-4121288D01*
X82850500Y-3878712D01*
X82818838Y-3638211D01*
X82756054Y-3403900D01*
X82663224Y-3179788D01*
X82541936Y-2969711D01*
X82394265Y-2777262D01*
X82394260Y-2777256D01*
X82222743Y-2605739D01*
X82222736Y-2605733D01*
X82030293Y-2458067D01*
X82030292Y-2458066D01*
X82030289Y-2458064D01*
X81820212Y-2336776D01*
X81820205Y-2336773D01*
X81596104Y-2243947D01*
X81361785Y-2181161D01*
X81121289Y-2149500D01*
X81121288Y-2149500D01*
X80878712Y-2149500D01*
X80878711Y-2149500D01*
X80638214Y-2181161D01*
X80403895Y-2243947D01*
X80179794Y-2336773D01*
X80179785Y-2336777D01*
X79969706Y-2458067D01*
X79777263Y-2605733D01*
X79777256Y-2605739D01*
X79605739Y-2777256D01*
X79605733Y-2777263D01*
X79458067Y-2969706D01*
X79336777Y-3179785D01*
X79336773Y-3179794D01*
X79243947Y-3403895D01*
X79181161Y-3638214D01*
X79149500Y-3878711D01*
X5850500Y-3878711D01*
X5818838Y-3638211D01*
X5756054Y-3403900D01*
X5663224Y-3179788D01*
X5541936Y-2969711D01*
X5394265Y-2777262D01*
X5394260Y-2777256D01*
X5222743Y-2605739D01*
X5222736Y-2605733D01*
X5030293Y-2458067D01*
X5030292Y-2458066D01*
X5030289Y-2458064D01*
X4820212Y-2336776D01*
X4820205Y-2336773D01*
X4596104Y-2243947D01*
X4361785Y-2181161D01*
X4121289Y-2149500D01*
X4121288Y-2149500D01*
X3878712Y-2149500D01*
X3878711Y-2149500D01*
X3638214Y-2181161D01*
X3403895Y-2243947D01*
X3179794Y-2336773D01*
X3179785Y-2336777D01*
X2969706Y-2458067D01*
X2777263Y-2605733D01*
X2777256Y-2605739D01*
X2605739Y-2777256D01*
X2605733Y-2777263D01*
X2458067Y-2969706D01*
X2336777Y-3179785D01*
X2336773Y-3179794D01*
X2243947Y-3403895D01*
X2181161Y-3638214D01*
X2149500Y-3878711D01*
X500500Y-3878711D01*
X500500Y-624500D01*
X520185Y-557461D01*
X572989Y-511706D01*
X624500Y-500500D01*
X84375500Y-500500D01*
X84442539Y-520185D01*
G37*
%TD.AperFunction*%
%TD*%
M02*
