%TF.GenerationSoftware,KiCad,Pcbnew,10.0.4*%
%TF.CreationDate,2026-07-13T05:55:36+02:00*%
%TF.ProjectId,led-controller-simple,6c65642d-636f-46e7-9472-6f6c6c65722d,rev?*%
%TF.SameCoordinates,Original*%
%TF.FileFunction,Drillmap*%
%TF.FilePolarity,Positive*%
%FSLAX45Y45*%
G04 Gerber Fmt 4.5, Leading zero omitted, Abs format (unit mm)*
G04 Created by KiCad (PCBNEW 10.0.4) date 2026-07-13 05:55:36*
%MOMM*%
%LPD*%
G01*
G04 APERTURE LIST*
%ADD10C,0.100000*%
%ADD11C,0.200000*%
%ADD12C,0.130000*%
%ADD13C,0.270000*%
%ADD14C,0.320000*%
G04 APERTURE END LIST*
D10*
X0Y0D02*
X8500000Y0D01*
X0Y-7000000D02*
X0Y0D01*
X8500000Y0D02*
X8500000Y-7000000D01*
X8500000Y-7000000D02*
X0Y-7000000D01*
D11*
D10*
X502500Y-1102500D02*
X597500Y-1197500D01*
X597500Y-1102500D02*
X502500Y-1197500D01*
X502500Y-1352500D02*
X597500Y-1447500D01*
X597500Y-1352500D02*
X502500Y-1447500D01*
X502500Y-1602500D02*
X597500Y-1697500D01*
X597500Y-1602500D02*
X502500Y-1697500D01*
X502500Y-2502500D02*
X597500Y-2597500D01*
X597500Y-2502500D02*
X502500Y-2597500D01*
X502500Y-2752500D02*
X597500Y-2847500D01*
X597500Y-2752500D02*
X502500Y-2847500D01*
X502500Y-3002500D02*
X597500Y-3097500D01*
X597500Y-3002500D02*
X502500Y-3097500D01*
X502500Y-3902500D02*
X597500Y-3997500D01*
X597500Y-3902500D02*
X502500Y-3997500D01*
X502500Y-4152500D02*
X597500Y-4247500D01*
X597500Y-4152500D02*
X502500Y-4247500D01*
X502500Y-4402500D02*
X597500Y-4497500D01*
X597500Y-4402500D02*
X502500Y-4497500D01*
X502500Y-5302500D02*
X597500Y-5397500D01*
X597500Y-5302500D02*
X502500Y-5397500D01*
X502500Y-5552500D02*
X597500Y-5647500D01*
X597500Y-5552500D02*
X502500Y-5647500D01*
X502500Y-5802500D02*
X597500Y-5897500D01*
X597500Y-5802500D02*
X502500Y-5897500D01*
X7652500Y-1102500D02*
X7747500Y-1197500D01*
X7747500Y-1102500D02*
X7652500Y-1197500D01*
X7652500Y-1352500D02*
X7747500Y-1447500D01*
X7747500Y-1352500D02*
X7652500Y-1447500D01*
X7652500Y-1602500D02*
X7747500Y-1697500D01*
X7747500Y-1602500D02*
X7652500Y-1697500D01*
X7652500Y-2502500D02*
X7747500Y-2597500D01*
X7747500Y-2502500D02*
X7652500Y-2597500D01*
X7652500Y-2752500D02*
X7747500Y-2847500D01*
X7747500Y-2752500D02*
X7652500Y-2847500D01*
X7652500Y-3002500D02*
X7747500Y-3097500D01*
X7747500Y-3002500D02*
X7652500Y-3097500D01*
X7652500Y-3902500D02*
X7747500Y-3997500D01*
X7747500Y-3902500D02*
X7652500Y-3997500D01*
X7652500Y-4152500D02*
X7747500Y-4247500D01*
X7747500Y-4152500D02*
X7652500Y-4247500D01*
X7652500Y-4402500D02*
X7747500Y-4497500D01*
X7747500Y-4402500D02*
X7652500Y-4497500D01*
X7652500Y-5302500D02*
X7747500Y-5397500D01*
X7747500Y-5302500D02*
X7652500Y-5397500D01*
X7652500Y-5552500D02*
X7747500Y-5647500D01*
X7747500Y-5552500D02*
X7652500Y-5647500D01*
X7652500Y-5802500D02*
X7747500Y-5897500D01*
X7747500Y-5802500D02*
X7652500Y-5897500D01*
X1687000Y-3823000D02*
G75*
G02*
X1587000Y-3823000I-50000J0D01*
G01*
X1587000Y-3823000D02*
G75*
G02*
X1687000Y-3823000I50000J0D01*
G01*
X1687000Y-4077000D02*
G75*
G02*
X1587000Y-4077000I-50000J0D01*
G01*
X1587000Y-4077000D02*
G75*
G02*
X1687000Y-4077000I50000J0D01*
G01*
X1941000Y-3823000D02*
G75*
G02*
X1841000Y-3823000I-50000J0D01*
G01*
X1841000Y-3823000D02*
G75*
G02*
X1941000Y-3823000I50000J0D01*
G01*
X1941000Y-4077000D02*
G75*
G02*
X1841000Y-4077000I-50000J0D01*
G01*
X1841000Y-4077000D02*
G75*
G02*
X1941000Y-4077000I50000J0D01*
G01*
X2195000Y-3823000D02*
G75*
G02*
X2095000Y-3823000I-50000J0D01*
G01*
X2095000Y-3823000D02*
G75*
G02*
X2195000Y-3823000I50000J0D01*
G01*
X2195000Y-4077000D02*
G75*
G02*
X2095000Y-4077000I-50000J0D01*
G01*
X2095000Y-4077000D02*
G75*
G02*
X2195000Y-4077000I50000J0D01*
G01*
X2449000Y-3823000D02*
G75*
G02*
X2349000Y-3823000I-50000J0D01*
G01*
X2349000Y-3823000D02*
G75*
G02*
X2449000Y-3823000I50000J0D01*
G01*
X2449000Y-4077000D02*
G75*
G02*
X2349000Y-4077000I-50000J0D01*
G01*
X2349000Y-4077000D02*
G75*
G02*
X2449000Y-4077000I50000J0D01*
G01*
X2703000Y-3823000D02*
G75*
G02*
X2603000Y-3823000I-50000J0D01*
G01*
X2603000Y-3823000D02*
G75*
G02*
X2703000Y-3823000I50000J0D01*
G01*
X2703000Y-4077000D02*
G75*
G02*
X2603000Y-4077000I-50000J0D01*
G01*
X2603000Y-4077000D02*
G75*
G02*
X2703000Y-4077000I50000J0D01*
G01*
X2957000Y-3823000D02*
G75*
G02*
X2857000Y-3823000I-50000J0D01*
G01*
X2857000Y-3823000D02*
G75*
G02*
X2957000Y-3823000I50000J0D01*
G01*
X2957000Y-4077000D02*
G75*
G02*
X2857000Y-4077000I-50000J0D01*
G01*
X2857000Y-4077000D02*
G75*
G02*
X2957000Y-4077000I50000J0D01*
G01*
X3211000Y-3823000D02*
G75*
G02*
X3111000Y-3823000I-50000J0D01*
G01*
X3111000Y-3823000D02*
G75*
G02*
X3211000Y-3823000I50000J0D01*
G01*
X3211000Y-4077000D02*
G75*
G02*
X3111000Y-4077000I-50000J0D01*
G01*
X3111000Y-4077000D02*
G75*
G02*
X3211000Y-4077000I50000J0D01*
G01*
X3465000Y-3823000D02*
G75*
G02*
X3365000Y-3823000I-50000J0D01*
G01*
X3365000Y-3823000D02*
G75*
G02*
X3465000Y-3823000I50000J0D01*
G01*
X3465000Y-4077000D02*
G75*
G02*
X3365000Y-4077000I-50000J0D01*
G01*
X3365000Y-4077000D02*
G75*
G02*
X3465000Y-4077000I50000J0D01*
G01*
X3719000Y-3823000D02*
G75*
G02*
X3619000Y-3823000I-50000J0D01*
G01*
X3619000Y-3823000D02*
G75*
G02*
X3719000Y-3823000I50000J0D01*
G01*
X3719000Y-4077000D02*
G75*
G02*
X3619000Y-4077000I-50000J0D01*
G01*
X3619000Y-4077000D02*
G75*
G02*
X3719000Y-4077000I50000J0D01*
G01*
X3973000Y-3823000D02*
G75*
G02*
X3873000Y-3823000I-50000J0D01*
G01*
X3873000Y-3823000D02*
G75*
G02*
X3973000Y-3823000I50000J0D01*
G01*
X3973000Y-4077000D02*
G75*
G02*
X3873000Y-4077000I-50000J0D01*
G01*
X3873000Y-4077000D02*
G75*
G02*
X3973000Y-4077000I50000J0D01*
G01*
X4227000Y-3823000D02*
G75*
G02*
X4127000Y-3823000I-50000J0D01*
G01*
X4127000Y-3823000D02*
G75*
G02*
X4227000Y-3823000I50000J0D01*
G01*
X4227000Y-4077000D02*
G75*
G02*
X4127000Y-4077000I-50000J0D01*
G01*
X4127000Y-4077000D02*
G75*
G02*
X4227000Y-4077000I50000J0D01*
G01*
X4481000Y-3823000D02*
G75*
G02*
X4381000Y-3823000I-50000J0D01*
G01*
X4381000Y-3823000D02*
G75*
G02*
X4481000Y-3823000I50000J0D01*
G01*
X4481000Y-4077000D02*
G75*
G02*
X4381000Y-4077000I-50000J0D01*
G01*
X4381000Y-4077000D02*
G75*
G02*
X4481000Y-4077000I50000J0D01*
G01*
X4735000Y-3823000D02*
G75*
G02*
X4635000Y-3823000I-50000J0D01*
G01*
X4635000Y-3823000D02*
G75*
G02*
X4735000Y-3823000I50000J0D01*
G01*
X4735000Y-4077000D02*
G75*
G02*
X4635000Y-4077000I-50000J0D01*
G01*
X4635000Y-4077000D02*
G75*
G02*
X4735000Y-4077000I50000J0D01*
G01*
X4989000Y-3823000D02*
G75*
G02*
X4889000Y-3823000I-50000J0D01*
G01*
X4889000Y-3823000D02*
G75*
G02*
X4989000Y-3823000I50000J0D01*
G01*
X4989000Y-4077000D02*
G75*
G02*
X4889000Y-4077000I-50000J0D01*
G01*
X4889000Y-4077000D02*
G75*
G02*
X4989000Y-4077000I50000J0D01*
G01*
X5243000Y-3823000D02*
G75*
G02*
X5143000Y-3823000I-50000J0D01*
G01*
X5143000Y-3823000D02*
G75*
G02*
X5243000Y-3823000I50000J0D01*
G01*
X5243000Y-4077000D02*
G75*
G02*
X5143000Y-4077000I-50000J0D01*
G01*
X5143000Y-4077000D02*
G75*
G02*
X5243000Y-4077000I50000J0D01*
G01*
X5497000Y-3823000D02*
G75*
G02*
X5397000Y-3823000I-50000J0D01*
G01*
X5397000Y-3823000D02*
G75*
G02*
X5497000Y-3823000I50000J0D01*
G01*
X5497000Y-4077000D02*
G75*
G02*
X5397000Y-4077000I-50000J0D01*
G01*
X5397000Y-4077000D02*
G75*
G02*
X5497000Y-4077000I50000J0D01*
G01*
X5751000Y-3823000D02*
G75*
G02*
X5651000Y-3823000I-50000J0D01*
G01*
X5651000Y-3823000D02*
G75*
G02*
X5751000Y-3823000I50000J0D01*
G01*
X5751000Y-4077000D02*
G75*
G02*
X5651000Y-4077000I-50000J0D01*
G01*
X5651000Y-4077000D02*
G75*
G02*
X5751000Y-4077000I50000J0D01*
G01*
X6005000Y-3823000D02*
G75*
G02*
X5905000Y-3823000I-50000J0D01*
G01*
X5905000Y-3823000D02*
G75*
G02*
X6005000Y-3823000I50000J0D01*
G01*
X6005000Y-4077000D02*
G75*
G02*
X5905000Y-4077000I-50000J0D01*
G01*
X5905000Y-4077000D02*
G75*
G02*
X6005000Y-4077000I50000J0D01*
G01*
X6259000Y-3823000D02*
G75*
G02*
X6159000Y-3823000I-50000J0D01*
G01*
X6159000Y-3823000D02*
G75*
G02*
X6259000Y-3823000I50000J0D01*
G01*
X6259000Y-4077000D02*
G75*
G02*
X6159000Y-4077000I-50000J0D01*
G01*
X6159000Y-4077000D02*
G75*
G02*
X6259000Y-4077000I50000J0D01*
G01*
X6513000Y-3823000D02*
G75*
G02*
X6413000Y-3823000I-50000J0D01*
G01*
X6413000Y-3823000D02*
G75*
G02*
X6513000Y-3823000I50000J0D01*
G01*
X6513000Y-4077000D02*
G75*
G02*
X6413000Y-4077000I-50000J0D01*
G01*
X6413000Y-4077000D02*
G75*
G02*
X6513000Y-4077000I50000J0D01*
G01*
D12*
X3996000Y-735000D02*
X3996000Y-865000D01*
X3931000Y-800000D02*
X4061000Y-800000D01*
X4504000Y-735000D02*
X4504000Y-865000D01*
X4439000Y-800000D02*
X4569000Y-800000D01*
D13*
X1245460Y-4045460D02*
X1245460Y-3854540D01*
X1054540Y-3854540D01*
X1054540Y-4045460D01*
X1245460Y-4045460D01*
X1245460Y-6345460D02*
X1245460Y-6154540D01*
X1054540Y-6154540D01*
X1054540Y-6345460D01*
X1245460Y-6345460D01*
X7045460Y-4045460D02*
X7045460Y-3854540D01*
X6854540Y-3854540D01*
X6854540Y-4045460D01*
X7045460Y-4045460D01*
X7045460Y-6345460D02*
X7045460Y-6154540D01*
X6854540Y-6154540D01*
X6854540Y-6345460D01*
X7045460Y-6345460D01*
D14*
X400000Y-560000D02*
X560000Y-400000D01*
X400000Y-240000D01*
X240000Y-400000D01*
X400000Y-560000D01*
X400000Y-6760000D02*
X560000Y-6600000D01*
X400000Y-6440000D01*
X240000Y-6600000D01*
X400000Y-6760000D01*
X8100000Y-560000D02*
X8260000Y-400000D01*
X8100000Y-240000D01*
X7940000Y-400000D01*
X8100000Y-560000D01*
X8100000Y-6760000D02*
X8260000Y-6600000D01*
X8100000Y-6440000D01*
X7940000Y-6600000D01*
X8100000Y-6760000D01*
D11*
X255777Y-7316484D02*
X255777Y-7116484D01*
X255777Y-7116484D02*
X303396Y-7116484D01*
X303396Y-7116484D02*
X331967Y-7126008D01*
X331967Y-7126008D02*
X351015Y-7145055D01*
X351015Y-7145055D02*
X360539Y-7164103D01*
X360539Y-7164103D02*
X370062Y-7202198D01*
X370062Y-7202198D02*
X370062Y-7230769D01*
X370062Y-7230769D02*
X360539Y-7268865D01*
X360539Y-7268865D02*
X351015Y-7287912D01*
X351015Y-7287912D02*
X331967Y-7306960D01*
X331967Y-7306960D02*
X303396Y-7316484D01*
X303396Y-7316484D02*
X255777Y-7316484D01*
X455777Y-7316484D02*
X455777Y-7183150D01*
X455777Y-7221246D02*
X465301Y-7202198D01*
X465301Y-7202198D02*
X474824Y-7192674D01*
X474824Y-7192674D02*
X493872Y-7183150D01*
X493872Y-7183150D02*
X512920Y-7183150D01*
X579586Y-7316484D02*
X579586Y-7183150D01*
X579586Y-7116484D02*
X570063Y-7126008D01*
X570063Y-7126008D02*
X579586Y-7135531D01*
X579586Y-7135531D02*
X589110Y-7126008D01*
X589110Y-7126008D02*
X579586Y-7116484D01*
X579586Y-7116484D02*
X579586Y-7135531D01*
X703396Y-7316484D02*
X684348Y-7306960D01*
X684348Y-7306960D02*
X674824Y-7287912D01*
X674824Y-7287912D02*
X674824Y-7116484D01*
X808158Y-7316484D02*
X789110Y-7306960D01*
X789110Y-7306960D02*
X779586Y-7287912D01*
X779586Y-7287912D02*
X779586Y-7116484D01*
X1036729Y-7316484D02*
X1036729Y-7116484D01*
X1036729Y-7116484D02*
X1103396Y-7259341D01*
X1103396Y-7259341D02*
X1170063Y-7116484D01*
X1170063Y-7116484D02*
X1170063Y-7316484D01*
X1351015Y-7316484D02*
X1351015Y-7211722D01*
X1351015Y-7211722D02*
X1341491Y-7192674D01*
X1341491Y-7192674D02*
X1322444Y-7183150D01*
X1322444Y-7183150D02*
X1284348Y-7183150D01*
X1284348Y-7183150D02*
X1265301Y-7192674D01*
X1351015Y-7306960D02*
X1331967Y-7316484D01*
X1331967Y-7316484D02*
X1284348Y-7316484D01*
X1284348Y-7316484D02*
X1265301Y-7306960D01*
X1265301Y-7306960D02*
X1255777Y-7287912D01*
X1255777Y-7287912D02*
X1255777Y-7268865D01*
X1255777Y-7268865D02*
X1265301Y-7249817D01*
X1265301Y-7249817D02*
X1284348Y-7240293D01*
X1284348Y-7240293D02*
X1331967Y-7240293D01*
X1331967Y-7240293D02*
X1351015Y-7230769D01*
X1446253Y-7183150D02*
X1446253Y-7383150D01*
X1446253Y-7192674D02*
X1465301Y-7183150D01*
X1465301Y-7183150D02*
X1503396Y-7183150D01*
X1503396Y-7183150D02*
X1522443Y-7192674D01*
X1522443Y-7192674D02*
X1531967Y-7202198D01*
X1531967Y-7202198D02*
X1541491Y-7221246D01*
X1541491Y-7221246D02*
X1541491Y-7278388D01*
X1541491Y-7278388D02*
X1531967Y-7297436D01*
X1531967Y-7297436D02*
X1522443Y-7306960D01*
X1522443Y-7306960D02*
X1503396Y-7316484D01*
X1503396Y-7316484D02*
X1465301Y-7316484D01*
X1465301Y-7316484D02*
X1446253Y-7306960D01*
X1627205Y-7297436D02*
X1636729Y-7306960D01*
X1636729Y-7306960D02*
X1627205Y-7316484D01*
X1627205Y-7316484D02*
X1617682Y-7306960D01*
X1617682Y-7306960D02*
X1627205Y-7297436D01*
X1627205Y-7297436D02*
X1627205Y-7316484D01*
X1627205Y-7192674D02*
X1636729Y-7202198D01*
X1636729Y-7202198D02*
X1627205Y-7211722D01*
X1627205Y-7211722D02*
X1617682Y-7202198D01*
X1617682Y-7202198D02*
X1627205Y-7192674D01*
X1627205Y-7192674D02*
X1627205Y-7211722D01*
D10*
X-100000Y-7597500D02*
X-5000Y-7692500D01*
X-5000Y-7597500D02*
X-100000Y-7692500D01*
D11*
X293872Y-7536484D02*
X312920Y-7536484D01*
X312920Y-7536484D02*
X331967Y-7546008D01*
X331967Y-7546008D02*
X341491Y-7555531D01*
X341491Y-7555531D02*
X351015Y-7574579D01*
X351015Y-7574579D02*
X360539Y-7612674D01*
X360539Y-7612674D02*
X360539Y-7660293D01*
X360539Y-7660293D02*
X351015Y-7698388D01*
X351015Y-7698388D02*
X341491Y-7717436D01*
X341491Y-7717436D02*
X331967Y-7726960D01*
X331967Y-7726960D02*
X312920Y-7736484D01*
X312920Y-7736484D02*
X293872Y-7736484D01*
X293872Y-7736484D02*
X274824Y-7726960D01*
X274824Y-7726960D02*
X265301Y-7717436D01*
X265301Y-7717436D02*
X255777Y-7698388D01*
X255777Y-7698388D02*
X246253Y-7660293D01*
X246253Y-7660293D02*
X246253Y-7612674D01*
X246253Y-7612674D02*
X255777Y-7574579D01*
X255777Y-7574579D02*
X265301Y-7555531D01*
X265301Y-7555531D02*
X274824Y-7546008D01*
X274824Y-7546008D02*
X293872Y-7536484D01*
X446253Y-7717436D02*
X455777Y-7726960D01*
X455777Y-7726960D02*
X446253Y-7736484D01*
X446253Y-7736484D02*
X436729Y-7726960D01*
X436729Y-7726960D02*
X446253Y-7717436D01*
X446253Y-7717436D02*
X446253Y-7736484D01*
X551015Y-7736484D02*
X589110Y-7736484D01*
X589110Y-7736484D02*
X608158Y-7726960D01*
X608158Y-7726960D02*
X617682Y-7717436D01*
X617682Y-7717436D02*
X636729Y-7688865D01*
X636729Y-7688865D02*
X646253Y-7650769D01*
X646253Y-7650769D02*
X646253Y-7574579D01*
X646253Y-7574579D02*
X636729Y-7555531D01*
X636729Y-7555531D02*
X627205Y-7546008D01*
X627205Y-7546008D02*
X608158Y-7536484D01*
X608158Y-7536484D02*
X570063Y-7536484D01*
X570063Y-7536484D02*
X551015Y-7546008D01*
X551015Y-7546008D02*
X541491Y-7555531D01*
X541491Y-7555531D02*
X531967Y-7574579D01*
X531967Y-7574579D02*
X531967Y-7622198D01*
X531967Y-7622198D02*
X541491Y-7641246D01*
X541491Y-7641246D02*
X551015Y-7650769D01*
X551015Y-7650769D02*
X570063Y-7660293D01*
X570063Y-7660293D02*
X608158Y-7660293D01*
X608158Y-7660293D02*
X627205Y-7650769D01*
X627205Y-7650769D02*
X636729Y-7641246D01*
X636729Y-7641246D02*
X646253Y-7622198D01*
X827205Y-7536484D02*
X731967Y-7536484D01*
X731967Y-7536484D02*
X722443Y-7631722D01*
X722443Y-7631722D02*
X731967Y-7622198D01*
X731967Y-7622198D02*
X751015Y-7612674D01*
X751015Y-7612674D02*
X798634Y-7612674D01*
X798634Y-7612674D02*
X817682Y-7622198D01*
X817682Y-7622198D02*
X827205Y-7631722D01*
X827205Y-7631722D02*
X836729Y-7650769D01*
X836729Y-7650769D02*
X836729Y-7698388D01*
X836729Y-7698388D02*
X827205Y-7717436D01*
X827205Y-7717436D02*
X817682Y-7726960D01*
X817682Y-7726960D02*
X798634Y-7736484D01*
X798634Y-7736484D02*
X751015Y-7736484D01*
X751015Y-7736484D02*
X731967Y-7726960D01*
X731967Y-7726960D02*
X722443Y-7717436D01*
X960539Y-7536484D02*
X979586Y-7536484D01*
X979586Y-7536484D02*
X998634Y-7546008D01*
X998634Y-7546008D02*
X1008158Y-7555531D01*
X1008158Y-7555531D02*
X1017682Y-7574579D01*
X1017682Y-7574579D02*
X1027205Y-7612674D01*
X1027205Y-7612674D02*
X1027205Y-7660293D01*
X1027205Y-7660293D02*
X1017682Y-7698388D01*
X1017682Y-7698388D02*
X1008158Y-7717436D01*
X1008158Y-7717436D02*
X998634Y-7726960D01*
X998634Y-7726960D02*
X979586Y-7736484D01*
X979586Y-7736484D02*
X960539Y-7736484D01*
X960539Y-7736484D02*
X941491Y-7726960D01*
X941491Y-7726960D02*
X931967Y-7717436D01*
X931967Y-7717436D02*
X922443Y-7698388D01*
X922443Y-7698388D02*
X912920Y-7660293D01*
X912920Y-7660293D02*
X912920Y-7612674D01*
X912920Y-7612674D02*
X922443Y-7574579D01*
X922443Y-7574579D02*
X931967Y-7555531D01*
X931967Y-7555531D02*
X941491Y-7546008D01*
X941491Y-7546008D02*
X960539Y-7536484D01*
X1112920Y-7736484D02*
X1112920Y-7603150D01*
X1112920Y-7622198D02*
X1122444Y-7612674D01*
X1122444Y-7612674D02*
X1141491Y-7603150D01*
X1141491Y-7603150D02*
X1170063Y-7603150D01*
X1170063Y-7603150D02*
X1189110Y-7612674D01*
X1189110Y-7612674D02*
X1198634Y-7631722D01*
X1198634Y-7631722D02*
X1198634Y-7736484D01*
X1198634Y-7631722D02*
X1208158Y-7612674D01*
X1208158Y-7612674D02*
X1227205Y-7603150D01*
X1227205Y-7603150D02*
X1255777Y-7603150D01*
X1255777Y-7603150D02*
X1274825Y-7612674D01*
X1274825Y-7612674D02*
X1284348Y-7631722D01*
X1284348Y-7631722D02*
X1284348Y-7736484D01*
X1379586Y-7736484D02*
X1379586Y-7603150D01*
X1379586Y-7622198D02*
X1389110Y-7612674D01*
X1389110Y-7612674D02*
X1408158Y-7603150D01*
X1408158Y-7603150D02*
X1436729Y-7603150D01*
X1436729Y-7603150D02*
X1455777Y-7612674D01*
X1455777Y-7612674D02*
X1465301Y-7631722D01*
X1465301Y-7631722D02*
X1465301Y-7736484D01*
X1465301Y-7631722D02*
X1474824Y-7612674D01*
X1474824Y-7612674D02*
X1493872Y-7603150D01*
X1493872Y-7603150D02*
X1522443Y-7603150D01*
X1522443Y-7603150D02*
X1541491Y-7612674D01*
X1541491Y-7612674D02*
X1551015Y-7631722D01*
X1551015Y-7631722D02*
X1551015Y-7736484D01*
X1941491Y-7526960D02*
X1770063Y-7784103D01*
X2198634Y-7536484D02*
X2217682Y-7536484D01*
X2217682Y-7536484D02*
X2236729Y-7546008D01*
X2236729Y-7546008D02*
X2246253Y-7555531D01*
X2246253Y-7555531D02*
X2255777Y-7574579D01*
X2255777Y-7574579D02*
X2265301Y-7612674D01*
X2265301Y-7612674D02*
X2265301Y-7660293D01*
X2265301Y-7660293D02*
X2255777Y-7698388D01*
X2255777Y-7698388D02*
X2246253Y-7717436D01*
X2246253Y-7717436D02*
X2236729Y-7726960D01*
X2236729Y-7726960D02*
X2217682Y-7736484D01*
X2217682Y-7736484D02*
X2198634Y-7736484D01*
X2198634Y-7736484D02*
X2179587Y-7726960D01*
X2179587Y-7726960D02*
X2170063Y-7717436D01*
X2170063Y-7717436D02*
X2160539Y-7698388D01*
X2160539Y-7698388D02*
X2151015Y-7660293D01*
X2151015Y-7660293D02*
X2151015Y-7612674D01*
X2151015Y-7612674D02*
X2160539Y-7574579D01*
X2160539Y-7574579D02*
X2170063Y-7555531D01*
X2170063Y-7555531D02*
X2179587Y-7546008D01*
X2179587Y-7546008D02*
X2198634Y-7536484D01*
X2351015Y-7717436D02*
X2360539Y-7726960D01*
X2360539Y-7726960D02*
X2351015Y-7736484D01*
X2351015Y-7736484D02*
X2341491Y-7726960D01*
X2341491Y-7726960D02*
X2351015Y-7717436D01*
X2351015Y-7717436D02*
X2351015Y-7736484D01*
X2484348Y-7536484D02*
X2503396Y-7536484D01*
X2503396Y-7536484D02*
X2522444Y-7546008D01*
X2522444Y-7546008D02*
X2531968Y-7555531D01*
X2531968Y-7555531D02*
X2541491Y-7574579D01*
X2541491Y-7574579D02*
X2551015Y-7612674D01*
X2551015Y-7612674D02*
X2551015Y-7660293D01*
X2551015Y-7660293D02*
X2541491Y-7698388D01*
X2541491Y-7698388D02*
X2531968Y-7717436D01*
X2531968Y-7717436D02*
X2522444Y-7726960D01*
X2522444Y-7726960D02*
X2503396Y-7736484D01*
X2503396Y-7736484D02*
X2484348Y-7736484D01*
X2484348Y-7736484D02*
X2465301Y-7726960D01*
X2465301Y-7726960D02*
X2455777Y-7717436D01*
X2455777Y-7717436D02*
X2446253Y-7698388D01*
X2446253Y-7698388D02*
X2436729Y-7660293D01*
X2436729Y-7660293D02*
X2436729Y-7612674D01*
X2436729Y-7612674D02*
X2446253Y-7574579D01*
X2446253Y-7574579D02*
X2455777Y-7555531D01*
X2455777Y-7555531D02*
X2465301Y-7546008D01*
X2465301Y-7546008D02*
X2484348Y-7536484D01*
X2617682Y-7536484D02*
X2741491Y-7536484D01*
X2741491Y-7536484D02*
X2674825Y-7612674D01*
X2674825Y-7612674D02*
X2703396Y-7612674D01*
X2703396Y-7612674D02*
X2722444Y-7622198D01*
X2722444Y-7622198D02*
X2731968Y-7631722D01*
X2731968Y-7631722D02*
X2741491Y-7650769D01*
X2741491Y-7650769D02*
X2741491Y-7698388D01*
X2741491Y-7698388D02*
X2731968Y-7717436D01*
X2731968Y-7717436D02*
X2722444Y-7726960D01*
X2722444Y-7726960D02*
X2703396Y-7736484D01*
X2703396Y-7736484D02*
X2646253Y-7736484D01*
X2646253Y-7736484D02*
X2627206Y-7726960D01*
X2627206Y-7726960D02*
X2617682Y-7717436D01*
X2808158Y-7536484D02*
X2941491Y-7536484D01*
X2941491Y-7536484D02*
X2855777Y-7736484D01*
X3103396Y-7603150D02*
X3103396Y-7736484D01*
X3055777Y-7526960D02*
X3008158Y-7669817D01*
X3008158Y-7669817D02*
X3131967Y-7669817D01*
X3198634Y-7536484D02*
X3198634Y-7574579D01*
X3274825Y-7536484D02*
X3274825Y-7574579D01*
X3570063Y-7812674D02*
X3560539Y-7803150D01*
X3560539Y-7803150D02*
X3541491Y-7774579D01*
X3541491Y-7774579D02*
X3531968Y-7755531D01*
X3531968Y-7755531D02*
X3522444Y-7726960D01*
X3522444Y-7726960D02*
X3512920Y-7679341D01*
X3512920Y-7679341D02*
X3512920Y-7641246D01*
X3512920Y-7641246D02*
X3522444Y-7593627D01*
X3522444Y-7593627D02*
X3531968Y-7565055D01*
X3531968Y-7565055D02*
X3541491Y-7546008D01*
X3541491Y-7546008D02*
X3560539Y-7517436D01*
X3560539Y-7517436D02*
X3570063Y-7507912D01*
X3636729Y-7555531D02*
X3646253Y-7546008D01*
X3646253Y-7546008D02*
X3665301Y-7536484D01*
X3665301Y-7536484D02*
X3712920Y-7536484D01*
X3712920Y-7536484D02*
X3731968Y-7546008D01*
X3731968Y-7546008D02*
X3741491Y-7555531D01*
X3741491Y-7555531D02*
X3751015Y-7574579D01*
X3751015Y-7574579D02*
X3751015Y-7593627D01*
X3751015Y-7593627D02*
X3741491Y-7622198D01*
X3741491Y-7622198D02*
X3627206Y-7736484D01*
X3627206Y-7736484D02*
X3751015Y-7736484D01*
X3922444Y-7603150D02*
X3922444Y-7736484D01*
X3874825Y-7526960D02*
X3827206Y-7669817D01*
X3827206Y-7669817D02*
X3951015Y-7669817D01*
X4179587Y-7736484D02*
X4179587Y-7536484D01*
X4265301Y-7736484D02*
X4265301Y-7631722D01*
X4265301Y-7631722D02*
X4255777Y-7612674D01*
X4255777Y-7612674D02*
X4236730Y-7603150D01*
X4236730Y-7603150D02*
X4208158Y-7603150D01*
X4208158Y-7603150D02*
X4189110Y-7612674D01*
X4189110Y-7612674D02*
X4179587Y-7622198D01*
X4389111Y-7736484D02*
X4370063Y-7726960D01*
X4370063Y-7726960D02*
X4360539Y-7717436D01*
X4360539Y-7717436D02*
X4351015Y-7698388D01*
X4351015Y-7698388D02*
X4351015Y-7641246D01*
X4351015Y-7641246D02*
X4360539Y-7622198D01*
X4360539Y-7622198D02*
X4370063Y-7612674D01*
X4370063Y-7612674D02*
X4389111Y-7603150D01*
X4389111Y-7603150D02*
X4417682Y-7603150D01*
X4417682Y-7603150D02*
X4436730Y-7612674D01*
X4436730Y-7612674D02*
X4446253Y-7622198D01*
X4446253Y-7622198D02*
X4455777Y-7641246D01*
X4455777Y-7641246D02*
X4455777Y-7698388D01*
X4455777Y-7698388D02*
X4446253Y-7717436D01*
X4446253Y-7717436D02*
X4436730Y-7726960D01*
X4436730Y-7726960D02*
X4417682Y-7736484D01*
X4417682Y-7736484D02*
X4389111Y-7736484D01*
X4570063Y-7736484D02*
X4551015Y-7726960D01*
X4551015Y-7726960D02*
X4541492Y-7707912D01*
X4541492Y-7707912D02*
X4541492Y-7536484D01*
X4722444Y-7726960D02*
X4703396Y-7736484D01*
X4703396Y-7736484D02*
X4665301Y-7736484D01*
X4665301Y-7736484D02*
X4646253Y-7726960D01*
X4646253Y-7726960D02*
X4636730Y-7707912D01*
X4636730Y-7707912D02*
X4636730Y-7631722D01*
X4636730Y-7631722D02*
X4646253Y-7612674D01*
X4646253Y-7612674D02*
X4665301Y-7603150D01*
X4665301Y-7603150D02*
X4703396Y-7603150D01*
X4703396Y-7603150D02*
X4722444Y-7612674D01*
X4722444Y-7612674D02*
X4731968Y-7631722D01*
X4731968Y-7631722D02*
X4731968Y-7650769D01*
X4731968Y-7650769D02*
X4636730Y-7669817D01*
X4808158Y-7726960D02*
X4827206Y-7736484D01*
X4827206Y-7736484D02*
X4865301Y-7736484D01*
X4865301Y-7736484D02*
X4884349Y-7726960D01*
X4884349Y-7726960D02*
X4893873Y-7707912D01*
X4893873Y-7707912D02*
X4893873Y-7698388D01*
X4893873Y-7698388D02*
X4884349Y-7679341D01*
X4884349Y-7679341D02*
X4865301Y-7669817D01*
X4865301Y-7669817D02*
X4836730Y-7669817D01*
X4836730Y-7669817D02*
X4817682Y-7660293D01*
X4817682Y-7660293D02*
X4808158Y-7641246D01*
X4808158Y-7641246D02*
X4808158Y-7631722D01*
X4808158Y-7631722D02*
X4817682Y-7612674D01*
X4817682Y-7612674D02*
X4836730Y-7603150D01*
X4836730Y-7603150D02*
X4865301Y-7603150D01*
X4865301Y-7603150D02*
X4884349Y-7612674D01*
X4960539Y-7812674D02*
X4970063Y-7803150D01*
X4970063Y-7803150D02*
X4989111Y-7774579D01*
X4989111Y-7774579D02*
X4998634Y-7755531D01*
X4998634Y-7755531D02*
X5008158Y-7726960D01*
X5008158Y-7726960D02*
X5017682Y-7679341D01*
X5017682Y-7679341D02*
X5017682Y-7641246D01*
X5017682Y-7641246D02*
X5008158Y-7593627D01*
X5008158Y-7593627D02*
X4998634Y-7565055D01*
X4998634Y-7565055D02*
X4989111Y-7546008D01*
X4989111Y-7546008D02*
X4970063Y-7517436D01*
X4970063Y-7517436D02*
X4960539Y-7507912D01*
D10*
X-5000Y-7909000D02*
G75*
G02*
X-105000Y-7909000I-50000J0D01*
G01*
X-105000Y-7909000D02*
G75*
G02*
X-5000Y-7909000I50000J0D01*
G01*
D11*
X360539Y-8000484D02*
X246253Y-8000484D01*
X303396Y-8000484D02*
X303396Y-7800484D01*
X303396Y-7800484D02*
X284348Y-7829055D01*
X284348Y-7829055D02*
X265301Y-7848103D01*
X265301Y-7848103D02*
X246253Y-7857627D01*
X446253Y-7981436D02*
X455777Y-7990960D01*
X455777Y-7990960D02*
X446253Y-8000484D01*
X446253Y-8000484D02*
X436729Y-7990960D01*
X436729Y-7990960D02*
X446253Y-7981436D01*
X446253Y-7981436D02*
X446253Y-8000484D01*
X579586Y-7800484D02*
X598634Y-7800484D01*
X598634Y-7800484D02*
X617682Y-7810008D01*
X617682Y-7810008D02*
X627205Y-7819531D01*
X627205Y-7819531D02*
X636729Y-7838579D01*
X636729Y-7838579D02*
X646253Y-7876674D01*
X646253Y-7876674D02*
X646253Y-7924293D01*
X646253Y-7924293D02*
X636729Y-7962388D01*
X636729Y-7962388D02*
X627205Y-7981436D01*
X627205Y-7981436D02*
X617682Y-7990960D01*
X617682Y-7990960D02*
X598634Y-8000484D01*
X598634Y-8000484D02*
X579586Y-8000484D01*
X579586Y-8000484D02*
X560539Y-7990960D01*
X560539Y-7990960D02*
X551015Y-7981436D01*
X551015Y-7981436D02*
X541491Y-7962388D01*
X541491Y-7962388D02*
X531967Y-7924293D01*
X531967Y-7924293D02*
X531967Y-7876674D01*
X531967Y-7876674D02*
X541491Y-7838579D01*
X541491Y-7838579D02*
X551015Y-7819531D01*
X551015Y-7819531D02*
X560539Y-7810008D01*
X560539Y-7810008D02*
X579586Y-7800484D01*
X770062Y-7800484D02*
X789110Y-7800484D01*
X789110Y-7800484D02*
X808158Y-7810008D01*
X808158Y-7810008D02*
X817682Y-7819531D01*
X817682Y-7819531D02*
X827205Y-7838579D01*
X827205Y-7838579D02*
X836729Y-7876674D01*
X836729Y-7876674D02*
X836729Y-7924293D01*
X836729Y-7924293D02*
X827205Y-7962388D01*
X827205Y-7962388D02*
X817682Y-7981436D01*
X817682Y-7981436D02*
X808158Y-7990960D01*
X808158Y-7990960D02*
X789110Y-8000484D01*
X789110Y-8000484D02*
X770062Y-8000484D01*
X770062Y-8000484D02*
X751015Y-7990960D01*
X751015Y-7990960D02*
X741491Y-7981436D01*
X741491Y-7981436D02*
X731967Y-7962388D01*
X731967Y-7962388D02*
X722443Y-7924293D01*
X722443Y-7924293D02*
X722443Y-7876674D01*
X722443Y-7876674D02*
X731967Y-7838579D01*
X731967Y-7838579D02*
X741491Y-7819531D01*
X741491Y-7819531D02*
X751015Y-7810008D01*
X751015Y-7810008D02*
X770062Y-7800484D01*
X960539Y-7800484D02*
X979586Y-7800484D01*
X979586Y-7800484D02*
X998634Y-7810008D01*
X998634Y-7810008D02*
X1008158Y-7819531D01*
X1008158Y-7819531D02*
X1017682Y-7838579D01*
X1017682Y-7838579D02*
X1027205Y-7876674D01*
X1027205Y-7876674D02*
X1027205Y-7924293D01*
X1027205Y-7924293D02*
X1017682Y-7962388D01*
X1017682Y-7962388D02*
X1008158Y-7981436D01*
X1008158Y-7981436D02*
X998634Y-7990960D01*
X998634Y-7990960D02*
X979586Y-8000484D01*
X979586Y-8000484D02*
X960539Y-8000484D01*
X960539Y-8000484D02*
X941491Y-7990960D01*
X941491Y-7990960D02*
X931967Y-7981436D01*
X931967Y-7981436D02*
X922443Y-7962388D01*
X922443Y-7962388D02*
X912920Y-7924293D01*
X912920Y-7924293D02*
X912920Y-7876674D01*
X912920Y-7876674D02*
X922443Y-7838579D01*
X922443Y-7838579D02*
X931967Y-7819531D01*
X931967Y-7819531D02*
X941491Y-7810008D01*
X941491Y-7810008D02*
X960539Y-7800484D01*
X1112920Y-8000484D02*
X1112920Y-7867150D01*
X1112920Y-7886198D02*
X1122444Y-7876674D01*
X1122444Y-7876674D02*
X1141491Y-7867150D01*
X1141491Y-7867150D02*
X1170063Y-7867150D01*
X1170063Y-7867150D02*
X1189110Y-7876674D01*
X1189110Y-7876674D02*
X1198634Y-7895722D01*
X1198634Y-7895722D02*
X1198634Y-8000484D01*
X1198634Y-7895722D02*
X1208158Y-7876674D01*
X1208158Y-7876674D02*
X1227205Y-7867150D01*
X1227205Y-7867150D02*
X1255777Y-7867150D01*
X1255777Y-7867150D02*
X1274825Y-7876674D01*
X1274825Y-7876674D02*
X1284348Y-7895722D01*
X1284348Y-7895722D02*
X1284348Y-8000484D01*
X1379586Y-8000484D02*
X1379586Y-7867150D01*
X1379586Y-7886198D02*
X1389110Y-7876674D01*
X1389110Y-7876674D02*
X1408158Y-7867150D01*
X1408158Y-7867150D02*
X1436729Y-7867150D01*
X1436729Y-7867150D02*
X1455777Y-7876674D01*
X1455777Y-7876674D02*
X1465301Y-7895722D01*
X1465301Y-7895722D02*
X1465301Y-8000484D01*
X1465301Y-7895722D02*
X1474824Y-7876674D01*
X1474824Y-7876674D02*
X1493872Y-7867150D01*
X1493872Y-7867150D02*
X1522443Y-7867150D01*
X1522443Y-7867150D02*
X1541491Y-7876674D01*
X1541491Y-7876674D02*
X1551015Y-7895722D01*
X1551015Y-7895722D02*
X1551015Y-8000484D01*
X1941491Y-7790960D02*
X1770063Y-8048103D01*
X2198634Y-7800484D02*
X2217682Y-7800484D01*
X2217682Y-7800484D02*
X2236729Y-7810008D01*
X2236729Y-7810008D02*
X2246253Y-7819531D01*
X2246253Y-7819531D02*
X2255777Y-7838579D01*
X2255777Y-7838579D02*
X2265301Y-7876674D01*
X2265301Y-7876674D02*
X2265301Y-7924293D01*
X2265301Y-7924293D02*
X2255777Y-7962388D01*
X2255777Y-7962388D02*
X2246253Y-7981436D01*
X2246253Y-7981436D02*
X2236729Y-7990960D01*
X2236729Y-7990960D02*
X2217682Y-8000484D01*
X2217682Y-8000484D02*
X2198634Y-8000484D01*
X2198634Y-8000484D02*
X2179587Y-7990960D01*
X2179587Y-7990960D02*
X2170063Y-7981436D01*
X2170063Y-7981436D02*
X2160539Y-7962388D01*
X2160539Y-7962388D02*
X2151015Y-7924293D01*
X2151015Y-7924293D02*
X2151015Y-7876674D01*
X2151015Y-7876674D02*
X2160539Y-7838579D01*
X2160539Y-7838579D02*
X2170063Y-7819531D01*
X2170063Y-7819531D02*
X2179587Y-7810008D01*
X2179587Y-7810008D02*
X2198634Y-7800484D01*
X2351015Y-7981436D02*
X2360539Y-7990960D01*
X2360539Y-7990960D02*
X2351015Y-8000484D01*
X2351015Y-8000484D02*
X2341491Y-7990960D01*
X2341491Y-7990960D02*
X2351015Y-7981436D01*
X2351015Y-7981436D02*
X2351015Y-8000484D01*
X2484348Y-7800484D02*
X2503396Y-7800484D01*
X2503396Y-7800484D02*
X2522444Y-7810008D01*
X2522444Y-7810008D02*
X2531968Y-7819531D01*
X2531968Y-7819531D02*
X2541491Y-7838579D01*
X2541491Y-7838579D02*
X2551015Y-7876674D01*
X2551015Y-7876674D02*
X2551015Y-7924293D01*
X2551015Y-7924293D02*
X2541491Y-7962388D01*
X2541491Y-7962388D02*
X2531968Y-7981436D01*
X2531968Y-7981436D02*
X2522444Y-7990960D01*
X2522444Y-7990960D02*
X2503396Y-8000484D01*
X2503396Y-8000484D02*
X2484348Y-8000484D01*
X2484348Y-8000484D02*
X2465301Y-7990960D01*
X2465301Y-7990960D02*
X2455777Y-7981436D01*
X2455777Y-7981436D02*
X2446253Y-7962388D01*
X2446253Y-7962388D02*
X2436729Y-7924293D01*
X2436729Y-7924293D02*
X2436729Y-7876674D01*
X2436729Y-7876674D02*
X2446253Y-7838579D01*
X2446253Y-7838579D02*
X2455777Y-7819531D01*
X2455777Y-7819531D02*
X2465301Y-7810008D01*
X2465301Y-7810008D02*
X2484348Y-7800484D01*
X2617682Y-7800484D02*
X2741491Y-7800484D01*
X2741491Y-7800484D02*
X2674825Y-7876674D01*
X2674825Y-7876674D02*
X2703396Y-7876674D01*
X2703396Y-7876674D02*
X2722444Y-7886198D01*
X2722444Y-7886198D02*
X2731968Y-7895722D01*
X2731968Y-7895722D02*
X2741491Y-7914769D01*
X2741491Y-7914769D02*
X2741491Y-7962388D01*
X2741491Y-7962388D02*
X2731968Y-7981436D01*
X2731968Y-7981436D02*
X2722444Y-7990960D01*
X2722444Y-7990960D02*
X2703396Y-8000484D01*
X2703396Y-8000484D02*
X2646253Y-8000484D01*
X2646253Y-8000484D02*
X2627206Y-7990960D01*
X2627206Y-7990960D02*
X2617682Y-7981436D01*
X2836729Y-8000484D02*
X2874825Y-8000484D01*
X2874825Y-8000484D02*
X2893872Y-7990960D01*
X2893872Y-7990960D02*
X2903396Y-7981436D01*
X2903396Y-7981436D02*
X2922444Y-7952865D01*
X2922444Y-7952865D02*
X2931967Y-7914769D01*
X2931967Y-7914769D02*
X2931967Y-7838579D01*
X2931967Y-7838579D02*
X2922444Y-7819531D01*
X2922444Y-7819531D02*
X2912920Y-7810008D01*
X2912920Y-7810008D02*
X2893872Y-7800484D01*
X2893872Y-7800484D02*
X2855777Y-7800484D01*
X2855777Y-7800484D02*
X2836729Y-7810008D01*
X2836729Y-7810008D02*
X2827206Y-7819531D01*
X2827206Y-7819531D02*
X2817682Y-7838579D01*
X2817682Y-7838579D02*
X2817682Y-7886198D01*
X2817682Y-7886198D02*
X2827206Y-7905246D01*
X2827206Y-7905246D02*
X2836729Y-7914769D01*
X2836729Y-7914769D02*
X2855777Y-7924293D01*
X2855777Y-7924293D02*
X2893872Y-7924293D01*
X2893872Y-7924293D02*
X2912920Y-7914769D01*
X2912920Y-7914769D02*
X2922444Y-7905246D01*
X2922444Y-7905246D02*
X2931967Y-7886198D01*
X3103396Y-7867150D02*
X3103396Y-8000484D01*
X3055777Y-7790960D02*
X3008158Y-7933817D01*
X3008158Y-7933817D02*
X3131967Y-7933817D01*
X3198634Y-7800484D02*
X3198634Y-7838579D01*
X3274825Y-7800484D02*
X3274825Y-7838579D01*
X3570063Y-8076674D02*
X3560539Y-8067150D01*
X3560539Y-8067150D02*
X3541491Y-8038579D01*
X3541491Y-8038579D02*
X3531968Y-8019531D01*
X3531968Y-8019531D02*
X3522444Y-7990960D01*
X3522444Y-7990960D02*
X3512920Y-7943341D01*
X3512920Y-7943341D02*
X3512920Y-7905246D01*
X3512920Y-7905246D02*
X3522444Y-7857627D01*
X3522444Y-7857627D02*
X3531968Y-7829055D01*
X3531968Y-7829055D02*
X3541491Y-7810008D01*
X3541491Y-7810008D02*
X3560539Y-7781436D01*
X3560539Y-7781436D02*
X3570063Y-7771912D01*
X3731968Y-7867150D02*
X3731968Y-8000484D01*
X3684348Y-7790960D02*
X3636729Y-7933817D01*
X3636729Y-7933817D02*
X3760539Y-7933817D01*
X3874825Y-7800484D02*
X3893872Y-7800484D01*
X3893872Y-7800484D02*
X3912920Y-7810008D01*
X3912920Y-7810008D02*
X3922444Y-7819531D01*
X3922444Y-7819531D02*
X3931968Y-7838579D01*
X3931968Y-7838579D02*
X3941491Y-7876674D01*
X3941491Y-7876674D02*
X3941491Y-7924293D01*
X3941491Y-7924293D02*
X3931968Y-7962388D01*
X3931968Y-7962388D02*
X3922444Y-7981436D01*
X3922444Y-7981436D02*
X3912920Y-7990960D01*
X3912920Y-7990960D02*
X3893872Y-8000484D01*
X3893872Y-8000484D02*
X3874825Y-8000484D01*
X3874825Y-8000484D02*
X3855777Y-7990960D01*
X3855777Y-7990960D02*
X3846253Y-7981436D01*
X3846253Y-7981436D02*
X3836729Y-7962388D01*
X3836729Y-7962388D02*
X3827206Y-7924293D01*
X3827206Y-7924293D02*
X3827206Y-7876674D01*
X3827206Y-7876674D02*
X3836729Y-7838579D01*
X3836729Y-7838579D02*
X3846253Y-7819531D01*
X3846253Y-7819531D02*
X3855777Y-7810008D01*
X3855777Y-7810008D02*
X3874825Y-7800484D01*
X4179587Y-8000484D02*
X4179587Y-7800484D01*
X4265301Y-8000484D02*
X4265301Y-7895722D01*
X4265301Y-7895722D02*
X4255777Y-7876674D01*
X4255777Y-7876674D02*
X4236730Y-7867150D01*
X4236730Y-7867150D02*
X4208158Y-7867150D01*
X4208158Y-7867150D02*
X4189110Y-7876674D01*
X4189110Y-7876674D02*
X4179587Y-7886198D01*
X4389111Y-8000484D02*
X4370063Y-7990960D01*
X4370063Y-7990960D02*
X4360539Y-7981436D01*
X4360539Y-7981436D02*
X4351015Y-7962388D01*
X4351015Y-7962388D02*
X4351015Y-7905246D01*
X4351015Y-7905246D02*
X4360539Y-7886198D01*
X4360539Y-7886198D02*
X4370063Y-7876674D01*
X4370063Y-7876674D02*
X4389111Y-7867150D01*
X4389111Y-7867150D02*
X4417682Y-7867150D01*
X4417682Y-7867150D02*
X4436730Y-7876674D01*
X4436730Y-7876674D02*
X4446253Y-7886198D01*
X4446253Y-7886198D02*
X4455777Y-7905246D01*
X4455777Y-7905246D02*
X4455777Y-7962388D01*
X4455777Y-7962388D02*
X4446253Y-7981436D01*
X4446253Y-7981436D02*
X4436730Y-7990960D01*
X4436730Y-7990960D02*
X4417682Y-8000484D01*
X4417682Y-8000484D02*
X4389111Y-8000484D01*
X4570063Y-8000484D02*
X4551015Y-7990960D01*
X4551015Y-7990960D02*
X4541492Y-7971912D01*
X4541492Y-7971912D02*
X4541492Y-7800484D01*
X4722444Y-7990960D02*
X4703396Y-8000484D01*
X4703396Y-8000484D02*
X4665301Y-8000484D01*
X4665301Y-8000484D02*
X4646253Y-7990960D01*
X4646253Y-7990960D02*
X4636730Y-7971912D01*
X4636730Y-7971912D02*
X4636730Y-7895722D01*
X4636730Y-7895722D02*
X4646253Y-7876674D01*
X4646253Y-7876674D02*
X4665301Y-7867150D01*
X4665301Y-7867150D02*
X4703396Y-7867150D01*
X4703396Y-7867150D02*
X4722444Y-7876674D01*
X4722444Y-7876674D02*
X4731968Y-7895722D01*
X4731968Y-7895722D02*
X4731968Y-7914769D01*
X4731968Y-7914769D02*
X4636730Y-7933817D01*
X4808158Y-7990960D02*
X4827206Y-8000484D01*
X4827206Y-8000484D02*
X4865301Y-8000484D01*
X4865301Y-8000484D02*
X4884349Y-7990960D01*
X4884349Y-7990960D02*
X4893873Y-7971912D01*
X4893873Y-7971912D02*
X4893873Y-7962388D01*
X4893873Y-7962388D02*
X4884349Y-7943341D01*
X4884349Y-7943341D02*
X4865301Y-7933817D01*
X4865301Y-7933817D02*
X4836730Y-7933817D01*
X4836730Y-7933817D02*
X4817682Y-7924293D01*
X4817682Y-7924293D02*
X4808158Y-7905246D01*
X4808158Y-7905246D02*
X4808158Y-7895722D01*
X4808158Y-7895722D02*
X4817682Y-7876674D01*
X4817682Y-7876674D02*
X4836730Y-7867150D01*
X4836730Y-7867150D02*
X4865301Y-7867150D01*
X4865301Y-7867150D02*
X4884349Y-7876674D01*
X4960539Y-8076674D02*
X4970063Y-8067150D01*
X4970063Y-8067150D02*
X4989111Y-8038579D01*
X4989111Y-8038579D02*
X4998634Y-8019531D01*
X4998634Y-8019531D02*
X5008158Y-7990960D01*
X5008158Y-7990960D02*
X5017682Y-7943341D01*
X5017682Y-7943341D02*
X5017682Y-7905246D01*
X5017682Y-7905246D02*
X5008158Y-7857627D01*
X5008158Y-7857627D02*
X4998634Y-7829055D01*
X4998634Y-7829055D02*
X4989111Y-7810008D01*
X4989111Y-7810008D02*
X4970063Y-7781436D01*
X4970063Y-7781436D02*
X4960539Y-7771912D01*
D12*
X-70000Y-8108000D02*
X-70000Y-8238000D01*
X-135000Y-8173000D02*
X-5000Y-8173000D01*
D11*
X360539Y-8264484D02*
X246253Y-8264484D01*
X303396Y-8264484D02*
X303396Y-8064484D01*
X303396Y-8064484D02*
X284348Y-8093055D01*
X284348Y-8093055D02*
X265301Y-8112103D01*
X265301Y-8112103D02*
X246253Y-8121627D01*
X446253Y-8245436D02*
X455777Y-8254960D01*
X455777Y-8254960D02*
X446253Y-8264484D01*
X446253Y-8264484D02*
X436729Y-8254960D01*
X436729Y-8254960D02*
X446253Y-8245436D01*
X446253Y-8245436D02*
X446253Y-8264484D01*
X522443Y-8064484D02*
X646253Y-8064484D01*
X646253Y-8064484D02*
X579586Y-8140674D01*
X579586Y-8140674D02*
X608158Y-8140674D01*
X608158Y-8140674D02*
X627205Y-8150198D01*
X627205Y-8150198D02*
X636729Y-8159722D01*
X636729Y-8159722D02*
X646253Y-8178769D01*
X646253Y-8178769D02*
X646253Y-8226388D01*
X646253Y-8226388D02*
X636729Y-8245436D01*
X636729Y-8245436D02*
X627205Y-8254960D01*
X627205Y-8254960D02*
X608158Y-8264484D01*
X608158Y-8264484D02*
X551015Y-8264484D01*
X551015Y-8264484D02*
X531967Y-8254960D01*
X531967Y-8254960D02*
X522443Y-8245436D01*
X770062Y-8064484D02*
X789110Y-8064484D01*
X789110Y-8064484D02*
X808158Y-8074008D01*
X808158Y-8074008D02*
X817682Y-8083531D01*
X817682Y-8083531D02*
X827205Y-8102579D01*
X827205Y-8102579D02*
X836729Y-8140674D01*
X836729Y-8140674D02*
X836729Y-8188293D01*
X836729Y-8188293D02*
X827205Y-8226388D01*
X827205Y-8226388D02*
X817682Y-8245436D01*
X817682Y-8245436D02*
X808158Y-8254960D01*
X808158Y-8254960D02*
X789110Y-8264484D01*
X789110Y-8264484D02*
X770062Y-8264484D01*
X770062Y-8264484D02*
X751015Y-8254960D01*
X751015Y-8254960D02*
X741491Y-8245436D01*
X741491Y-8245436D02*
X731967Y-8226388D01*
X731967Y-8226388D02*
X722443Y-8188293D01*
X722443Y-8188293D02*
X722443Y-8140674D01*
X722443Y-8140674D02*
X731967Y-8102579D01*
X731967Y-8102579D02*
X741491Y-8083531D01*
X741491Y-8083531D02*
X751015Y-8074008D01*
X751015Y-8074008D02*
X770062Y-8064484D01*
X960539Y-8064484D02*
X979586Y-8064484D01*
X979586Y-8064484D02*
X998634Y-8074008D01*
X998634Y-8074008D02*
X1008158Y-8083531D01*
X1008158Y-8083531D02*
X1017682Y-8102579D01*
X1017682Y-8102579D02*
X1027205Y-8140674D01*
X1027205Y-8140674D02*
X1027205Y-8188293D01*
X1027205Y-8188293D02*
X1017682Y-8226388D01*
X1017682Y-8226388D02*
X1008158Y-8245436D01*
X1008158Y-8245436D02*
X998634Y-8254960D01*
X998634Y-8254960D02*
X979586Y-8264484D01*
X979586Y-8264484D02*
X960539Y-8264484D01*
X960539Y-8264484D02*
X941491Y-8254960D01*
X941491Y-8254960D02*
X931967Y-8245436D01*
X931967Y-8245436D02*
X922443Y-8226388D01*
X922443Y-8226388D02*
X912920Y-8188293D01*
X912920Y-8188293D02*
X912920Y-8140674D01*
X912920Y-8140674D02*
X922443Y-8102579D01*
X922443Y-8102579D02*
X931967Y-8083531D01*
X931967Y-8083531D02*
X941491Y-8074008D01*
X941491Y-8074008D02*
X960539Y-8064484D01*
X1112920Y-8264484D02*
X1112920Y-8131150D01*
X1112920Y-8150198D02*
X1122444Y-8140674D01*
X1122444Y-8140674D02*
X1141491Y-8131150D01*
X1141491Y-8131150D02*
X1170063Y-8131150D01*
X1170063Y-8131150D02*
X1189110Y-8140674D01*
X1189110Y-8140674D02*
X1198634Y-8159722D01*
X1198634Y-8159722D02*
X1198634Y-8264484D01*
X1198634Y-8159722D02*
X1208158Y-8140674D01*
X1208158Y-8140674D02*
X1227205Y-8131150D01*
X1227205Y-8131150D02*
X1255777Y-8131150D01*
X1255777Y-8131150D02*
X1274825Y-8140674D01*
X1274825Y-8140674D02*
X1284348Y-8159722D01*
X1284348Y-8159722D02*
X1284348Y-8264484D01*
X1379586Y-8264484D02*
X1379586Y-8131150D01*
X1379586Y-8150198D02*
X1389110Y-8140674D01*
X1389110Y-8140674D02*
X1408158Y-8131150D01*
X1408158Y-8131150D02*
X1436729Y-8131150D01*
X1436729Y-8131150D02*
X1455777Y-8140674D01*
X1455777Y-8140674D02*
X1465301Y-8159722D01*
X1465301Y-8159722D02*
X1465301Y-8264484D01*
X1465301Y-8159722D02*
X1474824Y-8140674D01*
X1474824Y-8140674D02*
X1493872Y-8131150D01*
X1493872Y-8131150D02*
X1522443Y-8131150D01*
X1522443Y-8131150D02*
X1541491Y-8140674D01*
X1541491Y-8140674D02*
X1551015Y-8159722D01*
X1551015Y-8159722D02*
X1551015Y-8264484D01*
X1941491Y-8054960D02*
X1770063Y-8312103D01*
X2198634Y-8064484D02*
X2217682Y-8064484D01*
X2217682Y-8064484D02*
X2236729Y-8074008D01*
X2236729Y-8074008D02*
X2246253Y-8083531D01*
X2246253Y-8083531D02*
X2255777Y-8102579D01*
X2255777Y-8102579D02*
X2265301Y-8140674D01*
X2265301Y-8140674D02*
X2265301Y-8188293D01*
X2265301Y-8188293D02*
X2255777Y-8226388D01*
X2255777Y-8226388D02*
X2246253Y-8245436D01*
X2246253Y-8245436D02*
X2236729Y-8254960D01*
X2236729Y-8254960D02*
X2217682Y-8264484D01*
X2217682Y-8264484D02*
X2198634Y-8264484D01*
X2198634Y-8264484D02*
X2179587Y-8254960D01*
X2179587Y-8254960D02*
X2170063Y-8245436D01*
X2170063Y-8245436D02*
X2160539Y-8226388D01*
X2160539Y-8226388D02*
X2151015Y-8188293D01*
X2151015Y-8188293D02*
X2151015Y-8140674D01*
X2151015Y-8140674D02*
X2160539Y-8102579D01*
X2160539Y-8102579D02*
X2170063Y-8083531D01*
X2170063Y-8083531D02*
X2179587Y-8074008D01*
X2179587Y-8074008D02*
X2198634Y-8064484D01*
X2351015Y-8245436D02*
X2360539Y-8254960D01*
X2360539Y-8254960D02*
X2351015Y-8264484D01*
X2351015Y-8264484D02*
X2341491Y-8254960D01*
X2341491Y-8254960D02*
X2351015Y-8245436D01*
X2351015Y-8245436D02*
X2351015Y-8264484D01*
X2484348Y-8064484D02*
X2503396Y-8064484D01*
X2503396Y-8064484D02*
X2522444Y-8074008D01*
X2522444Y-8074008D02*
X2531968Y-8083531D01*
X2531968Y-8083531D02*
X2541491Y-8102579D01*
X2541491Y-8102579D02*
X2551015Y-8140674D01*
X2551015Y-8140674D02*
X2551015Y-8188293D01*
X2551015Y-8188293D02*
X2541491Y-8226388D01*
X2541491Y-8226388D02*
X2531968Y-8245436D01*
X2531968Y-8245436D02*
X2522444Y-8254960D01*
X2522444Y-8254960D02*
X2503396Y-8264484D01*
X2503396Y-8264484D02*
X2484348Y-8264484D01*
X2484348Y-8264484D02*
X2465301Y-8254960D01*
X2465301Y-8254960D02*
X2455777Y-8245436D01*
X2455777Y-8245436D02*
X2446253Y-8226388D01*
X2446253Y-8226388D02*
X2436729Y-8188293D01*
X2436729Y-8188293D02*
X2436729Y-8140674D01*
X2436729Y-8140674D02*
X2446253Y-8102579D01*
X2446253Y-8102579D02*
X2455777Y-8083531D01*
X2455777Y-8083531D02*
X2465301Y-8074008D01*
X2465301Y-8074008D02*
X2484348Y-8064484D01*
X2731968Y-8064484D02*
X2636729Y-8064484D01*
X2636729Y-8064484D02*
X2627206Y-8159722D01*
X2627206Y-8159722D02*
X2636729Y-8150198D01*
X2636729Y-8150198D02*
X2655777Y-8140674D01*
X2655777Y-8140674D02*
X2703396Y-8140674D01*
X2703396Y-8140674D02*
X2722444Y-8150198D01*
X2722444Y-8150198D02*
X2731968Y-8159722D01*
X2731968Y-8159722D02*
X2741491Y-8178769D01*
X2741491Y-8178769D02*
X2741491Y-8226388D01*
X2741491Y-8226388D02*
X2731968Y-8245436D01*
X2731968Y-8245436D02*
X2722444Y-8254960D01*
X2722444Y-8254960D02*
X2703396Y-8264484D01*
X2703396Y-8264484D02*
X2655777Y-8264484D01*
X2655777Y-8264484D02*
X2636729Y-8254960D01*
X2636729Y-8254960D02*
X2627206Y-8245436D01*
X2931967Y-8264484D02*
X2817682Y-8264484D01*
X2874825Y-8264484D02*
X2874825Y-8064484D01*
X2874825Y-8064484D02*
X2855777Y-8093055D01*
X2855777Y-8093055D02*
X2836729Y-8112103D01*
X2836729Y-8112103D02*
X2817682Y-8121627D01*
X3008158Y-8083531D02*
X3017682Y-8074008D01*
X3017682Y-8074008D02*
X3036729Y-8064484D01*
X3036729Y-8064484D02*
X3084348Y-8064484D01*
X3084348Y-8064484D02*
X3103396Y-8074008D01*
X3103396Y-8074008D02*
X3112920Y-8083531D01*
X3112920Y-8083531D02*
X3122444Y-8102579D01*
X3122444Y-8102579D02*
X3122444Y-8121627D01*
X3122444Y-8121627D02*
X3112920Y-8150198D01*
X3112920Y-8150198D02*
X2998634Y-8264484D01*
X2998634Y-8264484D02*
X3122444Y-8264484D01*
X3198634Y-8064484D02*
X3198634Y-8102579D01*
X3274825Y-8064484D02*
X3274825Y-8102579D01*
X3570063Y-8340674D02*
X3560539Y-8331150D01*
X3560539Y-8331150D02*
X3541491Y-8302579D01*
X3541491Y-8302579D02*
X3531968Y-8283531D01*
X3531968Y-8283531D02*
X3522444Y-8254960D01*
X3522444Y-8254960D02*
X3512920Y-8207341D01*
X3512920Y-8207341D02*
X3512920Y-8169246D01*
X3512920Y-8169246D02*
X3522444Y-8121627D01*
X3522444Y-8121627D02*
X3531968Y-8093055D01*
X3531968Y-8093055D02*
X3541491Y-8074008D01*
X3541491Y-8074008D02*
X3560539Y-8045436D01*
X3560539Y-8045436D02*
X3570063Y-8035912D01*
X3636729Y-8083531D02*
X3646253Y-8074008D01*
X3646253Y-8074008D02*
X3665301Y-8064484D01*
X3665301Y-8064484D02*
X3712920Y-8064484D01*
X3712920Y-8064484D02*
X3731968Y-8074008D01*
X3731968Y-8074008D02*
X3741491Y-8083531D01*
X3741491Y-8083531D02*
X3751015Y-8102579D01*
X3751015Y-8102579D02*
X3751015Y-8121627D01*
X3751015Y-8121627D02*
X3741491Y-8150198D01*
X3741491Y-8150198D02*
X3627206Y-8264484D01*
X3627206Y-8264484D02*
X3751015Y-8264484D01*
X3989110Y-8264484D02*
X3989110Y-8064484D01*
X4074825Y-8264484D02*
X4074825Y-8159722D01*
X4074825Y-8159722D02*
X4065301Y-8140674D01*
X4065301Y-8140674D02*
X4046253Y-8131150D01*
X4046253Y-8131150D02*
X4017682Y-8131150D01*
X4017682Y-8131150D02*
X3998634Y-8140674D01*
X3998634Y-8140674D02*
X3989110Y-8150198D01*
X4198634Y-8264484D02*
X4179587Y-8254960D01*
X4179587Y-8254960D02*
X4170063Y-8245436D01*
X4170063Y-8245436D02*
X4160539Y-8226388D01*
X4160539Y-8226388D02*
X4160539Y-8169246D01*
X4160539Y-8169246D02*
X4170063Y-8150198D01*
X4170063Y-8150198D02*
X4179587Y-8140674D01*
X4179587Y-8140674D02*
X4198634Y-8131150D01*
X4198634Y-8131150D02*
X4227206Y-8131150D01*
X4227206Y-8131150D02*
X4246253Y-8140674D01*
X4246253Y-8140674D02*
X4255777Y-8150198D01*
X4255777Y-8150198D02*
X4265301Y-8169246D01*
X4265301Y-8169246D02*
X4265301Y-8226388D01*
X4265301Y-8226388D02*
X4255777Y-8245436D01*
X4255777Y-8245436D02*
X4246253Y-8254960D01*
X4246253Y-8254960D02*
X4227206Y-8264484D01*
X4227206Y-8264484D02*
X4198634Y-8264484D01*
X4379587Y-8264484D02*
X4360539Y-8254960D01*
X4360539Y-8254960D02*
X4351015Y-8235912D01*
X4351015Y-8235912D02*
X4351015Y-8064484D01*
X4531968Y-8254960D02*
X4512920Y-8264484D01*
X4512920Y-8264484D02*
X4474825Y-8264484D01*
X4474825Y-8264484D02*
X4455777Y-8254960D01*
X4455777Y-8254960D02*
X4446253Y-8235912D01*
X4446253Y-8235912D02*
X4446253Y-8159722D01*
X4446253Y-8159722D02*
X4455777Y-8140674D01*
X4455777Y-8140674D02*
X4474825Y-8131150D01*
X4474825Y-8131150D02*
X4512920Y-8131150D01*
X4512920Y-8131150D02*
X4531968Y-8140674D01*
X4531968Y-8140674D02*
X4541492Y-8159722D01*
X4541492Y-8159722D02*
X4541492Y-8178769D01*
X4541492Y-8178769D02*
X4446253Y-8197817D01*
X4617682Y-8254960D02*
X4636730Y-8264484D01*
X4636730Y-8264484D02*
X4674825Y-8264484D01*
X4674825Y-8264484D02*
X4693873Y-8254960D01*
X4693873Y-8254960D02*
X4703396Y-8235912D01*
X4703396Y-8235912D02*
X4703396Y-8226388D01*
X4703396Y-8226388D02*
X4693873Y-8207341D01*
X4693873Y-8207341D02*
X4674825Y-8197817D01*
X4674825Y-8197817D02*
X4646253Y-8197817D01*
X4646253Y-8197817D02*
X4627206Y-8188293D01*
X4627206Y-8188293D02*
X4617682Y-8169246D01*
X4617682Y-8169246D02*
X4617682Y-8159722D01*
X4617682Y-8159722D02*
X4627206Y-8140674D01*
X4627206Y-8140674D02*
X4646253Y-8131150D01*
X4646253Y-8131150D02*
X4674825Y-8131150D01*
X4674825Y-8131150D02*
X4693873Y-8140674D01*
X4770063Y-8340674D02*
X4779587Y-8331150D01*
X4779587Y-8331150D02*
X4798634Y-8302579D01*
X4798634Y-8302579D02*
X4808158Y-8283531D01*
X4808158Y-8283531D02*
X4817682Y-8254960D01*
X4817682Y-8254960D02*
X4827206Y-8207341D01*
X4827206Y-8207341D02*
X4827206Y-8169246D01*
X4827206Y-8169246D02*
X4817682Y-8121627D01*
X4817682Y-8121627D02*
X4808158Y-8093055D01*
X4808158Y-8093055D02*
X4798634Y-8074008D01*
X4798634Y-8074008D02*
X4779587Y-8045436D01*
X4779587Y-8045436D02*
X4770063Y-8035912D01*
X-34289Y-8507711D02*
X-34289Y-8366289D01*
X-175711Y-8366289D01*
X-175711Y-8507711D01*
X-34289Y-8507711D01*
X246253Y-8347531D02*
X255777Y-8338008D01*
X255777Y-8338008D02*
X274824Y-8328484D01*
X274824Y-8328484D02*
X322444Y-8328484D01*
X322444Y-8328484D02*
X341491Y-8338008D01*
X341491Y-8338008D02*
X351015Y-8347531D01*
X351015Y-8347531D02*
X360539Y-8366579D01*
X360539Y-8366579D02*
X360539Y-8385627D01*
X360539Y-8385627D02*
X351015Y-8414198D01*
X351015Y-8414198D02*
X236729Y-8528484D01*
X236729Y-8528484D02*
X360539Y-8528484D01*
X446253Y-8509436D02*
X455777Y-8518960D01*
X455777Y-8518960D02*
X446253Y-8528484D01*
X446253Y-8528484D02*
X436729Y-8518960D01*
X436729Y-8518960D02*
X446253Y-8509436D01*
X446253Y-8509436D02*
X446253Y-8528484D01*
X522443Y-8328484D02*
X655777Y-8328484D01*
X655777Y-8328484D02*
X570063Y-8528484D01*
X770062Y-8328484D02*
X789110Y-8328484D01*
X789110Y-8328484D02*
X808158Y-8338008D01*
X808158Y-8338008D02*
X817682Y-8347531D01*
X817682Y-8347531D02*
X827205Y-8366579D01*
X827205Y-8366579D02*
X836729Y-8404674D01*
X836729Y-8404674D02*
X836729Y-8452293D01*
X836729Y-8452293D02*
X827205Y-8490389D01*
X827205Y-8490389D02*
X817682Y-8509436D01*
X817682Y-8509436D02*
X808158Y-8518960D01*
X808158Y-8518960D02*
X789110Y-8528484D01*
X789110Y-8528484D02*
X770062Y-8528484D01*
X770062Y-8528484D02*
X751015Y-8518960D01*
X751015Y-8518960D02*
X741491Y-8509436D01*
X741491Y-8509436D02*
X731967Y-8490389D01*
X731967Y-8490389D02*
X722443Y-8452293D01*
X722443Y-8452293D02*
X722443Y-8404674D01*
X722443Y-8404674D02*
X731967Y-8366579D01*
X731967Y-8366579D02*
X741491Y-8347531D01*
X741491Y-8347531D02*
X751015Y-8338008D01*
X751015Y-8338008D02*
X770062Y-8328484D01*
X960539Y-8328484D02*
X979586Y-8328484D01*
X979586Y-8328484D02*
X998634Y-8338008D01*
X998634Y-8338008D02*
X1008158Y-8347531D01*
X1008158Y-8347531D02*
X1017682Y-8366579D01*
X1017682Y-8366579D02*
X1027205Y-8404674D01*
X1027205Y-8404674D02*
X1027205Y-8452293D01*
X1027205Y-8452293D02*
X1017682Y-8490389D01*
X1017682Y-8490389D02*
X1008158Y-8509436D01*
X1008158Y-8509436D02*
X998634Y-8518960D01*
X998634Y-8518960D02*
X979586Y-8528484D01*
X979586Y-8528484D02*
X960539Y-8528484D01*
X960539Y-8528484D02*
X941491Y-8518960D01*
X941491Y-8518960D02*
X931967Y-8509436D01*
X931967Y-8509436D02*
X922443Y-8490389D01*
X922443Y-8490389D02*
X912920Y-8452293D01*
X912920Y-8452293D02*
X912920Y-8404674D01*
X912920Y-8404674D02*
X922443Y-8366579D01*
X922443Y-8366579D02*
X931967Y-8347531D01*
X931967Y-8347531D02*
X941491Y-8338008D01*
X941491Y-8338008D02*
X960539Y-8328484D01*
X1112920Y-8528484D02*
X1112920Y-8395150D01*
X1112920Y-8414198D02*
X1122444Y-8404674D01*
X1122444Y-8404674D02*
X1141491Y-8395150D01*
X1141491Y-8395150D02*
X1170063Y-8395150D01*
X1170063Y-8395150D02*
X1189110Y-8404674D01*
X1189110Y-8404674D02*
X1198634Y-8423722D01*
X1198634Y-8423722D02*
X1198634Y-8528484D01*
X1198634Y-8423722D02*
X1208158Y-8404674D01*
X1208158Y-8404674D02*
X1227205Y-8395150D01*
X1227205Y-8395150D02*
X1255777Y-8395150D01*
X1255777Y-8395150D02*
X1274825Y-8404674D01*
X1274825Y-8404674D02*
X1284348Y-8423722D01*
X1284348Y-8423722D02*
X1284348Y-8528484D01*
X1379586Y-8528484D02*
X1379586Y-8395150D01*
X1379586Y-8414198D02*
X1389110Y-8404674D01*
X1389110Y-8404674D02*
X1408158Y-8395150D01*
X1408158Y-8395150D02*
X1436729Y-8395150D01*
X1436729Y-8395150D02*
X1455777Y-8404674D01*
X1455777Y-8404674D02*
X1465301Y-8423722D01*
X1465301Y-8423722D02*
X1465301Y-8528484D01*
X1465301Y-8423722D02*
X1474824Y-8404674D01*
X1474824Y-8404674D02*
X1493872Y-8395150D01*
X1493872Y-8395150D02*
X1522443Y-8395150D01*
X1522443Y-8395150D02*
X1541491Y-8404674D01*
X1541491Y-8404674D02*
X1551015Y-8423722D01*
X1551015Y-8423722D02*
X1551015Y-8528484D01*
X1941491Y-8318960D02*
X1770063Y-8576103D01*
X2198634Y-8328484D02*
X2217682Y-8328484D01*
X2217682Y-8328484D02*
X2236729Y-8338008D01*
X2236729Y-8338008D02*
X2246253Y-8347531D01*
X2246253Y-8347531D02*
X2255777Y-8366579D01*
X2255777Y-8366579D02*
X2265301Y-8404674D01*
X2265301Y-8404674D02*
X2265301Y-8452293D01*
X2265301Y-8452293D02*
X2255777Y-8490389D01*
X2255777Y-8490389D02*
X2246253Y-8509436D01*
X2246253Y-8509436D02*
X2236729Y-8518960D01*
X2236729Y-8518960D02*
X2217682Y-8528484D01*
X2217682Y-8528484D02*
X2198634Y-8528484D01*
X2198634Y-8528484D02*
X2179587Y-8518960D01*
X2179587Y-8518960D02*
X2170063Y-8509436D01*
X2170063Y-8509436D02*
X2160539Y-8490389D01*
X2160539Y-8490389D02*
X2151015Y-8452293D01*
X2151015Y-8452293D02*
X2151015Y-8404674D01*
X2151015Y-8404674D02*
X2160539Y-8366579D01*
X2160539Y-8366579D02*
X2170063Y-8347531D01*
X2170063Y-8347531D02*
X2179587Y-8338008D01*
X2179587Y-8338008D02*
X2198634Y-8328484D01*
X2351015Y-8509436D02*
X2360539Y-8518960D01*
X2360539Y-8518960D02*
X2351015Y-8528484D01*
X2351015Y-8528484D02*
X2341491Y-8518960D01*
X2341491Y-8518960D02*
X2351015Y-8509436D01*
X2351015Y-8509436D02*
X2351015Y-8528484D01*
X2551015Y-8528484D02*
X2436729Y-8528484D01*
X2493872Y-8528484D02*
X2493872Y-8328484D01*
X2493872Y-8328484D02*
X2474825Y-8357055D01*
X2474825Y-8357055D02*
X2455777Y-8376103D01*
X2455777Y-8376103D02*
X2436729Y-8385627D01*
X2674825Y-8328484D02*
X2693872Y-8328484D01*
X2693872Y-8328484D02*
X2712920Y-8338008D01*
X2712920Y-8338008D02*
X2722444Y-8347531D01*
X2722444Y-8347531D02*
X2731968Y-8366579D01*
X2731968Y-8366579D02*
X2741491Y-8404674D01*
X2741491Y-8404674D02*
X2741491Y-8452293D01*
X2741491Y-8452293D02*
X2731968Y-8490389D01*
X2731968Y-8490389D02*
X2722444Y-8509436D01*
X2722444Y-8509436D02*
X2712920Y-8518960D01*
X2712920Y-8518960D02*
X2693872Y-8528484D01*
X2693872Y-8528484D02*
X2674825Y-8528484D01*
X2674825Y-8528484D02*
X2655777Y-8518960D01*
X2655777Y-8518960D02*
X2646253Y-8509436D01*
X2646253Y-8509436D02*
X2636729Y-8490389D01*
X2636729Y-8490389D02*
X2627206Y-8452293D01*
X2627206Y-8452293D02*
X2627206Y-8404674D01*
X2627206Y-8404674D02*
X2636729Y-8366579D01*
X2636729Y-8366579D02*
X2646253Y-8347531D01*
X2646253Y-8347531D02*
X2655777Y-8338008D01*
X2655777Y-8338008D02*
X2674825Y-8328484D01*
X2912920Y-8328484D02*
X2874825Y-8328484D01*
X2874825Y-8328484D02*
X2855777Y-8338008D01*
X2855777Y-8338008D02*
X2846253Y-8347531D01*
X2846253Y-8347531D02*
X2827206Y-8376103D01*
X2827206Y-8376103D02*
X2817682Y-8414198D01*
X2817682Y-8414198D02*
X2817682Y-8490389D01*
X2817682Y-8490389D02*
X2827206Y-8509436D01*
X2827206Y-8509436D02*
X2836729Y-8518960D01*
X2836729Y-8518960D02*
X2855777Y-8528484D01*
X2855777Y-8528484D02*
X2893872Y-8528484D01*
X2893872Y-8528484D02*
X2912920Y-8518960D01*
X2912920Y-8518960D02*
X2922444Y-8509436D01*
X2922444Y-8509436D02*
X2931967Y-8490389D01*
X2931967Y-8490389D02*
X2931967Y-8442770D01*
X2931967Y-8442770D02*
X2922444Y-8423722D01*
X2922444Y-8423722D02*
X2912920Y-8414198D01*
X2912920Y-8414198D02*
X2893872Y-8404674D01*
X2893872Y-8404674D02*
X2855777Y-8404674D01*
X2855777Y-8404674D02*
X2836729Y-8414198D01*
X2836729Y-8414198D02*
X2827206Y-8423722D01*
X2827206Y-8423722D02*
X2817682Y-8442770D01*
X2998634Y-8328484D02*
X3122444Y-8328484D01*
X3122444Y-8328484D02*
X3055777Y-8404674D01*
X3055777Y-8404674D02*
X3084348Y-8404674D01*
X3084348Y-8404674D02*
X3103396Y-8414198D01*
X3103396Y-8414198D02*
X3112920Y-8423722D01*
X3112920Y-8423722D02*
X3122444Y-8442770D01*
X3122444Y-8442770D02*
X3122444Y-8490389D01*
X3122444Y-8490389D02*
X3112920Y-8509436D01*
X3112920Y-8509436D02*
X3103396Y-8518960D01*
X3103396Y-8518960D02*
X3084348Y-8528484D01*
X3084348Y-8528484D02*
X3027206Y-8528484D01*
X3027206Y-8528484D02*
X3008158Y-8518960D01*
X3008158Y-8518960D02*
X2998634Y-8509436D01*
X3198634Y-8328484D02*
X3198634Y-8366579D01*
X3274825Y-8328484D02*
X3274825Y-8366579D01*
X3570063Y-8604674D02*
X3560539Y-8595150D01*
X3560539Y-8595150D02*
X3541491Y-8566579D01*
X3541491Y-8566579D02*
X3531968Y-8547531D01*
X3531968Y-8547531D02*
X3522444Y-8518960D01*
X3522444Y-8518960D02*
X3512920Y-8471341D01*
X3512920Y-8471341D02*
X3512920Y-8433246D01*
X3512920Y-8433246D02*
X3522444Y-8385627D01*
X3522444Y-8385627D02*
X3531968Y-8357055D01*
X3531968Y-8357055D02*
X3541491Y-8338008D01*
X3541491Y-8338008D02*
X3560539Y-8309436D01*
X3560539Y-8309436D02*
X3570063Y-8299912D01*
X3731968Y-8395150D02*
X3731968Y-8528484D01*
X3684348Y-8318960D02*
X3636729Y-8461817D01*
X3636729Y-8461817D02*
X3760539Y-8461817D01*
X3989110Y-8528484D02*
X3989110Y-8328484D01*
X4074825Y-8528484D02*
X4074825Y-8423722D01*
X4074825Y-8423722D02*
X4065301Y-8404674D01*
X4065301Y-8404674D02*
X4046253Y-8395150D01*
X4046253Y-8395150D02*
X4017682Y-8395150D01*
X4017682Y-8395150D02*
X3998634Y-8404674D01*
X3998634Y-8404674D02*
X3989110Y-8414198D01*
X4198634Y-8528484D02*
X4179587Y-8518960D01*
X4179587Y-8518960D02*
X4170063Y-8509436D01*
X4170063Y-8509436D02*
X4160539Y-8490389D01*
X4160539Y-8490389D02*
X4160539Y-8433246D01*
X4160539Y-8433246D02*
X4170063Y-8414198D01*
X4170063Y-8414198D02*
X4179587Y-8404674D01*
X4179587Y-8404674D02*
X4198634Y-8395150D01*
X4198634Y-8395150D02*
X4227206Y-8395150D01*
X4227206Y-8395150D02*
X4246253Y-8404674D01*
X4246253Y-8404674D02*
X4255777Y-8414198D01*
X4255777Y-8414198D02*
X4265301Y-8433246D01*
X4265301Y-8433246D02*
X4265301Y-8490389D01*
X4265301Y-8490389D02*
X4255777Y-8509436D01*
X4255777Y-8509436D02*
X4246253Y-8518960D01*
X4246253Y-8518960D02*
X4227206Y-8528484D01*
X4227206Y-8528484D02*
X4198634Y-8528484D01*
X4379587Y-8528484D02*
X4360539Y-8518960D01*
X4360539Y-8518960D02*
X4351015Y-8499912D01*
X4351015Y-8499912D02*
X4351015Y-8328484D01*
X4531968Y-8518960D02*
X4512920Y-8528484D01*
X4512920Y-8528484D02*
X4474825Y-8528484D01*
X4474825Y-8528484D02*
X4455777Y-8518960D01*
X4455777Y-8518960D02*
X4446253Y-8499912D01*
X4446253Y-8499912D02*
X4446253Y-8423722D01*
X4446253Y-8423722D02*
X4455777Y-8404674D01*
X4455777Y-8404674D02*
X4474825Y-8395150D01*
X4474825Y-8395150D02*
X4512920Y-8395150D01*
X4512920Y-8395150D02*
X4531968Y-8404674D01*
X4531968Y-8404674D02*
X4541492Y-8423722D01*
X4541492Y-8423722D02*
X4541492Y-8442770D01*
X4541492Y-8442770D02*
X4446253Y-8461817D01*
X4617682Y-8518960D02*
X4636730Y-8528484D01*
X4636730Y-8528484D02*
X4674825Y-8528484D01*
X4674825Y-8528484D02*
X4693873Y-8518960D01*
X4693873Y-8518960D02*
X4703396Y-8499912D01*
X4703396Y-8499912D02*
X4703396Y-8490389D01*
X4703396Y-8490389D02*
X4693873Y-8471341D01*
X4693873Y-8471341D02*
X4674825Y-8461817D01*
X4674825Y-8461817D02*
X4646253Y-8461817D01*
X4646253Y-8461817D02*
X4627206Y-8452293D01*
X4627206Y-8452293D02*
X4617682Y-8433246D01*
X4617682Y-8433246D02*
X4617682Y-8423722D01*
X4617682Y-8423722D02*
X4627206Y-8404674D01*
X4627206Y-8404674D02*
X4646253Y-8395150D01*
X4646253Y-8395150D02*
X4674825Y-8395150D01*
X4674825Y-8395150D02*
X4693873Y-8404674D01*
X4770063Y-8604674D02*
X4779587Y-8595150D01*
X4779587Y-8595150D02*
X4798634Y-8566579D01*
X4798634Y-8566579D02*
X4808158Y-8547531D01*
X4808158Y-8547531D02*
X4817682Y-8518960D01*
X4817682Y-8518960D02*
X4827206Y-8471341D01*
X4827206Y-8471341D02*
X4827206Y-8433246D01*
X4827206Y-8433246D02*
X4817682Y-8385627D01*
X4817682Y-8385627D02*
X4808158Y-8357055D01*
X4808158Y-8357055D02*
X4798634Y-8338008D01*
X4798634Y-8338008D02*
X4779587Y-8309436D01*
X4779587Y-8309436D02*
X4770063Y-8299912D01*
X5131968Y-8604674D02*
X5122444Y-8595150D01*
X5122444Y-8595150D02*
X5103396Y-8566579D01*
X5103396Y-8566579D02*
X5093873Y-8547531D01*
X5093873Y-8547531D02*
X5084349Y-8518960D01*
X5084349Y-8518960D02*
X5074825Y-8471341D01*
X5074825Y-8471341D02*
X5074825Y-8433246D01*
X5074825Y-8433246D02*
X5084349Y-8385627D01*
X5084349Y-8385627D02*
X5093873Y-8357055D01*
X5093873Y-8357055D02*
X5103396Y-8338008D01*
X5103396Y-8338008D02*
X5122444Y-8309436D01*
X5122444Y-8309436D02*
X5131968Y-8299912D01*
X5208158Y-8395150D02*
X5208158Y-8528484D01*
X5208158Y-8414198D02*
X5217682Y-8404674D01*
X5217682Y-8404674D02*
X5236730Y-8395150D01*
X5236730Y-8395150D02*
X5265301Y-8395150D01*
X5265301Y-8395150D02*
X5284349Y-8404674D01*
X5284349Y-8404674D02*
X5293873Y-8423722D01*
X5293873Y-8423722D02*
X5293873Y-8528484D01*
X5417682Y-8528484D02*
X5398634Y-8518960D01*
X5398634Y-8518960D02*
X5389111Y-8509436D01*
X5389111Y-8509436D02*
X5379587Y-8490389D01*
X5379587Y-8490389D02*
X5379587Y-8433246D01*
X5379587Y-8433246D02*
X5389111Y-8414198D01*
X5389111Y-8414198D02*
X5398634Y-8404674D01*
X5398634Y-8404674D02*
X5417682Y-8395150D01*
X5417682Y-8395150D02*
X5446254Y-8395150D01*
X5446254Y-8395150D02*
X5465301Y-8404674D01*
X5465301Y-8404674D02*
X5474825Y-8414198D01*
X5474825Y-8414198D02*
X5484349Y-8433246D01*
X5484349Y-8433246D02*
X5484349Y-8490389D01*
X5484349Y-8490389D02*
X5474825Y-8509436D01*
X5474825Y-8509436D02*
X5465301Y-8518960D01*
X5465301Y-8518960D02*
X5446254Y-8528484D01*
X5446254Y-8528484D02*
X5417682Y-8528484D01*
X5541492Y-8395150D02*
X5617682Y-8395150D01*
X5570063Y-8328484D02*
X5570063Y-8499912D01*
X5570063Y-8499912D02*
X5579587Y-8518960D01*
X5579587Y-8518960D02*
X5598634Y-8528484D01*
X5598634Y-8528484D02*
X5617682Y-8528484D01*
X5836730Y-8395150D02*
X5836730Y-8595150D01*
X5836730Y-8404674D02*
X5855777Y-8395150D01*
X5855777Y-8395150D02*
X5893873Y-8395150D01*
X5893873Y-8395150D02*
X5912920Y-8404674D01*
X5912920Y-8404674D02*
X5922444Y-8414198D01*
X5922444Y-8414198D02*
X5931968Y-8433246D01*
X5931968Y-8433246D02*
X5931968Y-8490389D01*
X5931968Y-8490389D02*
X5922444Y-8509436D01*
X5922444Y-8509436D02*
X5912920Y-8518960D01*
X5912920Y-8518960D02*
X5893873Y-8528484D01*
X5893873Y-8528484D02*
X5855777Y-8528484D01*
X5855777Y-8528484D02*
X5836730Y-8518960D01*
X6046253Y-8528484D02*
X6027206Y-8518960D01*
X6027206Y-8518960D02*
X6017682Y-8499912D01*
X6017682Y-8499912D02*
X6017682Y-8328484D01*
X6208158Y-8528484D02*
X6208158Y-8423722D01*
X6208158Y-8423722D02*
X6198634Y-8404674D01*
X6198634Y-8404674D02*
X6179587Y-8395150D01*
X6179587Y-8395150D02*
X6141492Y-8395150D01*
X6141492Y-8395150D02*
X6122444Y-8404674D01*
X6208158Y-8518960D02*
X6189111Y-8528484D01*
X6189111Y-8528484D02*
X6141492Y-8528484D01*
X6141492Y-8528484D02*
X6122444Y-8518960D01*
X6122444Y-8518960D02*
X6112920Y-8499912D01*
X6112920Y-8499912D02*
X6112920Y-8480865D01*
X6112920Y-8480865D02*
X6122444Y-8461817D01*
X6122444Y-8461817D02*
X6141492Y-8452293D01*
X6141492Y-8452293D02*
X6189111Y-8452293D01*
X6189111Y-8452293D02*
X6208158Y-8442770D01*
X6274825Y-8395150D02*
X6351015Y-8395150D01*
X6303396Y-8328484D02*
X6303396Y-8499912D01*
X6303396Y-8499912D02*
X6312920Y-8518960D01*
X6312920Y-8518960D02*
X6331968Y-8528484D01*
X6331968Y-8528484D02*
X6351015Y-8528484D01*
X6493873Y-8518960D02*
X6474825Y-8528484D01*
X6474825Y-8528484D02*
X6436730Y-8528484D01*
X6436730Y-8528484D02*
X6417682Y-8518960D01*
X6417682Y-8518960D02*
X6408158Y-8499912D01*
X6408158Y-8499912D02*
X6408158Y-8423722D01*
X6408158Y-8423722D02*
X6417682Y-8404674D01*
X6417682Y-8404674D02*
X6436730Y-8395150D01*
X6436730Y-8395150D02*
X6474825Y-8395150D01*
X6474825Y-8395150D02*
X6493873Y-8404674D01*
X6493873Y-8404674D02*
X6503396Y-8423722D01*
X6503396Y-8423722D02*
X6503396Y-8442770D01*
X6503396Y-8442770D02*
X6408158Y-8461817D01*
X6674825Y-8528484D02*
X6674825Y-8328484D01*
X6674825Y-8518960D02*
X6655777Y-8528484D01*
X6655777Y-8528484D02*
X6617682Y-8528484D01*
X6617682Y-8528484D02*
X6598634Y-8518960D01*
X6598634Y-8518960D02*
X6589111Y-8509436D01*
X6589111Y-8509436D02*
X6579587Y-8490389D01*
X6579587Y-8490389D02*
X6579587Y-8433246D01*
X6579587Y-8433246D02*
X6589111Y-8414198D01*
X6589111Y-8414198D02*
X6598634Y-8404674D01*
X6598634Y-8404674D02*
X6617682Y-8395150D01*
X6617682Y-8395150D02*
X6655777Y-8395150D01*
X6655777Y-8395150D02*
X6674825Y-8404674D01*
X6751015Y-8604674D02*
X6760539Y-8595150D01*
X6760539Y-8595150D02*
X6779587Y-8566579D01*
X6779587Y-8566579D02*
X6789111Y-8547531D01*
X6789111Y-8547531D02*
X6798634Y-8518960D01*
X6798634Y-8518960D02*
X6808158Y-8471341D01*
X6808158Y-8471341D02*
X6808158Y-8433246D01*
X6808158Y-8433246D02*
X6798634Y-8385627D01*
X6798634Y-8385627D02*
X6789111Y-8357055D01*
X6789111Y-8357055D02*
X6779587Y-8338008D01*
X6779587Y-8338008D02*
X6760539Y-8309436D01*
X6760539Y-8309436D02*
X6751015Y-8299912D01*
X-105000Y-8857000D02*
X-5000Y-8757000D01*
X-105000Y-8657000D01*
X-205000Y-8757000D01*
X-105000Y-8857000D01*
X236729Y-8648484D02*
X360539Y-8648484D01*
X360539Y-8648484D02*
X293872Y-8724674D01*
X293872Y-8724674D02*
X322444Y-8724674D01*
X322444Y-8724674D02*
X341491Y-8734198D01*
X341491Y-8734198D02*
X351015Y-8743722D01*
X351015Y-8743722D02*
X360539Y-8762770D01*
X360539Y-8762770D02*
X360539Y-8810389D01*
X360539Y-8810389D02*
X351015Y-8829436D01*
X351015Y-8829436D02*
X341491Y-8838960D01*
X341491Y-8838960D02*
X322444Y-8848484D01*
X322444Y-8848484D02*
X265301Y-8848484D01*
X265301Y-8848484D02*
X246253Y-8838960D01*
X246253Y-8838960D02*
X236729Y-8829436D01*
X446253Y-8829436D02*
X455777Y-8838960D01*
X455777Y-8838960D02*
X446253Y-8848484D01*
X446253Y-8848484D02*
X436729Y-8838960D01*
X436729Y-8838960D02*
X446253Y-8829436D01*
X446253Y-8829436D02*
X446253Y-8848484D01*
X531967Y-8667531D02*
X541491Y-8658008D01*
X541491Y-8658008D02*
X560539Y-8648484D01*
X560539Y-8648484D02*
X608158Y-8648484D01*
X608158Y-8648484D02*
X627205Y-8658008D01*
X627205Y-8658008D02*
X636729Y-8667531D01*
X636729Y-8667531D02*
X646253Y-8686579D01*
X646253Y-8686579D02*
X646253Y-8705627D01*
X646253Y-8705627D02*
X636729Y-8734198D01*
X636729Y-8734198D02*
X522443Y-8848484D01*
X522443Y-8848484D02*
X646253Y-8848484D01*
X770062Y-8648484D02*
X789110Y-8648484D01*
X789110Y-8648484D02*
X808158Y-8658008D01*
X808158Y-8658008D02*
X817682Y-8667531D01*
X817682Y-8667531D02*
X827205Y-8686579D01*
X827205Y-8686579D02*
X836729Y-8724674D01*
X836729Y-8724674D02*
X836729Y-8772293D01*
X836729Y-8772293D02*
X827205Y-8810389D01*
X827205Y-8810389D02*
X817682Y-8829436D01*
X817682Y-8829436D02*
X808158Y-8838960D01*
X808158Y-8838960D02*
X789110Y-8848484D01*
X789110Y-8848484D02*
X770062Y-8848484D01*
X770062Y-8848484D02*
X751015Y-8838960D01*
X751015Y-8838960D02*
X741491Y-8829436D01*
X741491Y-8829436D02*
X731967Y-8810389D01*
X731967Y-8810389D02*
X722443Y-8772293D01*
X722443Y-8772293D02*
X722443Y-8724674D01*
X722443Y-8724674D02*
X731967Y-8686579D01*
X731967Y-8686579D02*
X741491Y-8667531D01*
X741491Y-8667531D02*
X751015Y-8658008D01*
X751015Y-8658008D02*
X770062Y-8648484D01*
X960539Y-8648484D02*
X979586Y-8648484D01*
X979586Y-8648484D02*
X998634Y-8658008D01*
X998634Y-8658008D02*
X1008158Y-8667531D01*
X1008158Y-8667531D02*
X1017682Y-8686579D01*
X1017682Y-8686579D02*
X1027205Y-8724674D01*
X1027205Y-8724674D02*
X1027205Y-8772293D01*
X1027205Y-8772293D02*
X1017682Y-8810389D01*
X1017682Y-8810389D02*
X1008158Y-8829436D01*
X1008158Y-8829436D02*
X998634Y-8838960D01*
X998634Y-8838960D02*
X979586Y-8848484D01*
X979586Y-8848484D02*
X960539Y-8848484D01*
X960539Y-8848484D02*
X941491Y-8838960D01*
X941491Y-8838960D02*
X931967Y-8829436D01*
X931967Y-8829436D02*
X922443Y-8810389D01*
X922443Y-8810389D02*
X912920Y-8772293D01*
X912920Y-8772293D02*
X912920Y-8724674D01*
X912920Y-8724674D02*
X922443Y-8686579D01*
X922443Y-8686579D02*
X931967Y-8667531D01*
X931967Y-8667531D02*
X941491Y-8658008D01*
X941491Y-8658008D02*
X960539Y-8648484D01*
X1112920Y-8848484D02*
X1112920Y-8715150D01*
X1112920Y-8734198D02*
X1122444Y-8724674D01*
X1122444Y-8724674D02*
X1141491Y-8715150D01*
X1141491Y-8715150D02*
X1170063Y-8715150D01*
X1170063Y-8715150D02*
X1189110Y-8724674D01*
X1189110Y-8724674D02*
X1198634Y-8743722D01*
X1198634Y-8743722D02*
X1198634Y-8848484D01*
X1198634Y-8743722D02*
X1208158Y-8724674D01*
X1208158Y-8724674D02*
X1227205Y-8715150D01*
X1227205Y-8715150D02*
X1255777Y-8715150D01*
X1255777Y-8715150D02*
X1274825Y-8724674D01*
X1274825Y-8724674D02*
X1284348Y-8743722D01*
X1284348Y-8743722D02*
X1284348Y-8848484D01*
X1379586Y-8848484D02*
X1379586Y-8715150D01*
X1379586Y-8734198D02*
X1389110Y-8724674D01*
X1389110Y-8724674D02*
X1408158Y-8715150D01*
X1408158Y-8715150D02*
X1436729Y-8715150D01*
X1436729Y-8715150D02*
X1455777Y-8724674D01*
X1455777Y-8724674D02*
X1465301Y-8743722D01*
X1465301Y-8743722D02*
X1465301Y-8848484D01*
X1465301Y-8743722D02*
X1474824Y-8724674D01*
X1474824Y-8724674D02*
X1493872Y-8715150D01*
X1493872Y-8715150D02*
X1522443Y-8715150D01*
X1522443Y-8715150D02*
X1541491Y-8724674D01*
X1541491Y-8724674D02*
X1551015Y-8743722D01*
X1551015Y-8743722D02*
X1551015Y-8848484D01*
X1941491Y-8638960D02*
X1770063Y-8896103D01*
X2198634Y-8648484D02*
X2217682Y-8648484D01*
X2217682Y-8648484D02*
X2236729Y-8658008D01*
X2236729Y-8658008D02*
X2246253Y-8667531D01*
X2246253Y-8667531D02*
X2255777Y-8686579D01*
X2255777Y-8686579D02*
X2265301Y-8724674D01*
X2265301Y-8724674D02*
X2265301Y-8772293D01*
X2265301Y-8772293D02*
X2255777Y-8810389D01*
X2255777Y-8810389D02*
X2246253Y-8829436D01*
X2246253Y-8829436D02*
X2236729Y-8838960D01*
X2236729Y-8838960D02*
X2217682Y-8848484D01*
X2217682Y-8848484D02*
X2198634Y-8848484D01*
X2198634Y-8848484D02*
X2179587Y-8838960D01*
X2179587Y-8838960D02*
X2170063Y-8829436D01*
X2170063Y-8829436D02*
X2160539Y-8810389D01*
X2160539Y-8810389D02*
X2151015Y-8772293D01*
X2151015Y-8772293D02*
X2151015Y-8724674D01*
X2151015Y-8724674D02*
X2160539Y-8686579D01*
X2160539Y-8686579D02*
X2170063Y-8667531D01*
X2170063Y-8667531D02*
X2179587Y-8658008D01*
X2179587Y-8658008D02*
X2198634Y-8648484D01*
X2351015Y-8829436D02*
X2360539Y-8838960D01*
X2360539Y-8838960D02*
X2351015Y-8848484D01*
X2351015Y-8848484D02*
X2341491Y-8838960D01*
X2341491Y-8838960D02*
X2351015Y-8829436D01*
X2351015Y-8829436D02*
X2351015Y-8848484D01*
X2551015Y-8848484D02*
X2436729Y-8848484D01*
X2493872Y-8848484D02*
X2493872Y-8648484D01*
X2493872Y-8648484D02*
X2474825Y-8677055D01*
X2474825Y-8677055D02*
X2455777Y-8696103D01*
X2455777Y-8696103D02*
X2436729Y-8705627D01*
X2627206Y-8667531D02*
X2636729Y-8658008D01*
X2636729Y-8658008D02*
X2655777Y-8648484D01*
X2655777Y-8648484D02*
X2703396Y-8648484D01*
X2703396Y-8648484D02*
X2722444Y-8658008D01*
X2722444Y-8658008D02*
X2731968Y-8667531D01*
X2731968Y-8667531D02*
X2741491Y-8686579D01*
X2741491Y-8686579D02*
X2741491Y-8705627D01*
X2741491Y-8705627D02*
X2731968Y-8734198D01*
X2731968Y-8734198D02*
X2617682Y-8848484D01*
X2617682Y-8848484D02*
X2741491Y-8848484D01*
X2912920Y-8648484D02*
X2874825Y-8648484D01*
X2874825Y-8648484D02*
X2855777Y-8658008D01*
X2855777Y-8658008D02*
X2846253Y-8667531D01*
X2846253Y-8667531D02*
X2827206Y-8696103D01*
X2827206Y-8696103D02*
X2817682Y-8734198D01*
X2817682Y-8734198D02*
X2817682Y-8810389D01*
X2817682Y-8810389D02*
X2827206Y-8829436D01*
X2827206Y-8829436D02*
X2836729Y-8838960D01*
X2836729Y-8838960D02*
X2855777Y-8848484D01*
X2855777Y-8848484D02*
X2893872Y-8848484D01*
X2893872Y-8848484D02*
X2912920Y-8838960D01*
X2912920Y-8838960D02*
X2922444Y-8829436D01*
X2922444Y-8829436D02*
X2931967Y-8810389D01*
X2931967Y-8810389D02*
X2931967Y-8762770D01*
X2931967Y-8762770D02*
X2922444Y-8743722D01*
X2922444Y-8743722D02*
X2912920Y-8734198D01*
X2912920Y-8734198D02*
X2893872Y-8724674D01*
X2893872Y-8724674D02*
X2855777Y-8724674D01*
X2855777Y-8724674D02*
X2836729Y-8734198D01*
X2836729Y-8734198D02*
X2827206Y-8743722D01*
X2827206Y-8743722D02*
X2817682Y-8762770D01*
X3055777Y-8648484D02*
X3074825Y-8648484D01*
X3074825Y-8648484D02*
X3093872Y-8658008D01*
X3093872Y-8658008D02*
X3103396Y-8667531D01*
X3103396Y-8667531D02*
X3112920Y-8686579D01*
X3112920Y-8686579D02*
X3122444Y-8724674D01*
X3122444Y-8724674D02*
X3122444Y-8772293D01*
X3122444Y-8772293D02*
X3112920Y-8810389D01*
X3112920Y-8810389D02*
X3103396Y-8829436D01*
X3103396Y-8829436D02*
X3093872Y-8838960D01*
X3093872Y-8838960D02*
X3074825Y-8848484D01*
X3074825Y-8848484D02*
X3055777Y-8848484D01*
X3055777Y-8848484D02*
X3036729Y-8838960D01*
X3036729Y-8838960D02*
X3027206Y-8829436D01*
X3027206Y-8829436D02*
X3017682Y-8810389D01*
X3017682Y-8810389D02*
X3008158Y-8772293D01*
X3008158Y-8772293D02*
X3008158Y-8724674D01*
X3008158Y-8724674D02*
X3017682Y-8686579D01*
X3017682Y-8686579D02*
X3027206Y-8667531D01*
X3027206Y-8667531D02*
X3036729Y-8658008D01*
X3036729Y-8658008D02*
X3055777Y-8648484D01*
X3198634Y-8648484D02*
X3198634Y-8686579D01*
X3274825Y-8648484D02*
X3274825Y-8686579D01*
X3570063Y-8924674D02*
X3560539Y-8915150D01*
X3560539Y-8915150D02*
X3541491Y-8886579D01*
X3541491Y-8886579D02*
X3531968Y-8867531D01*
X3531968Y-8867531D02*
X3522444Y-8838960D01*
X3522444Y-8838960D02*
X3512920Y-8791341D01*
X3512920Y-8791341D02*
X3512920Y-8753246D01*
X3512920Y-8753246D02*
X3522444Y-8705627D01*
X3522444Y-8705627D02*
X3531968Y-8677055D01*
X3531968Y-8677055D02*
X3541491Y-8658008D01*
X3541491Y-8658008D02*
X3560539Y-8629436D01*
X3560539Y-8629436D02*
X3570063Y-8619912D01*
X3731968Y-8715150D02*
X3731968Y-8848484D01*
X3684348Y-8638960D02*
X3636729Y-8781817D01*
X3636729Y-8781817D02*
X3760539Y-8781817D01*
X3989110Y-8848484D02*
X3989110Y-8648484D01*
X4074825Y-8848484D02*
X4074825Y-8743722D01*
X4074825Y-8743722D02*
X4065301Y-8724674D01*
X4065301Y-8724674D02*
X4046253Y-8715150D01*
X4046253Y-8715150D02*
X4017682Y-8715150D01*
X4017682Y-8715150D02*
X3998634Y-8724674D01*
X3998634Y-8724674D02*
X3989110Y-8734198D01*
X4198634Y-8848484D02*
X4179587Y-8838960D01*
X4179587Y-8838960D02*
X4170063Y-8829436D01*
X4170063Y-8829436D02*
X4160539Y-8810389D01*
X4160539Y-8810389D02*
X4160539Y-8753246D01*
X4160539Y-8753246D02*
X4170063Y-8734198D01*
X4170063Y-8734198D02*
X4179587Y-8724674D01*
X4179587Y-8724674D02*
X4198634Y-8715150D01*
X4198634Y-8715150D02*
X4227206Y-8715150D01*
X4227206Y-8715150D02*
X4246253Y-8724674D01*
X4246253Y-8724674D02*
X4255777Y-8734198D01*
X4255777Y-8734198D02*
X4265301Y-8753246D01*
X4265301Y-8753246D02*
X4265301Y-8810389D01*
X4265301Y-8810389D02*
X4255777Y-8829436D01*
X4255777Y-8829436D02*
X4246253Y-8838960D01*
X4246253Y-8838960D02*
X4227206Y-8848484D01*
X4227206Y-8848484D02*
X4198634Y-8848484D01*
X4379587Y-8848484D02*
X4360539Y-8838960D01*
X4360539Y-8838960D02*
X4351015Y-8819912D01*
X4351015Y-8819912D02*
X4351015Y-8648484D01*
X4531968Y-8838960D02*
X4512920Y-8848484D01*
X4512920Y-8848484D02*
X4474825Y-8848484D01*
X4474825Y-8848484D02*
X4455777Y-8838960D01*
X4455777Y-8838960D02*
X4446253Y-8819912D01*
X4446253Y-8819912D02*
X4446253Y-8743722D01*
X4446253Y-8743722D02*
X4455777Y-8724674D01*
X4455777Y-8724674D02*
X4474825Y-8715150D01*
X4474825Y-8715150D02*
X4512920Y-8715150D01*
X4512920Y-8715150D02*
X4531968Y-8724674D01*
X4531968Y-8724674D02*
X4541492Y-8743722D01*
X4541492Y-8743722D02*
X4541492Y-8762770D01*
X4541492Y-8762770D02*
X4446253Y-8781817D01*
X4617682Y-8838960D02*
X4636730Y-8848484D01*
X4636730Y-8848484D02*
X4674825Y-8848484D01*
X4674825Y-8848484D02*
X4693873Y-8838960D01*
X4693873Y-8838960D02*
X4703396Y-8819912D01*
X4703396Y-8819912D02*
X4703396Y-8810389D01*
X4703396Y-8810389D02*
X4693873Y-8791341D01*
X4693873Y-8791341D02*
X4674825Y-8781817D01*
X4674825Y-8781817D02*
X4646253Y-8781817D01*
X4646253Y-8781817D02*
X4627206Y-8772293D01*
X4627206Y-8772293D02*
X4617682Y-8753246D01*
X4617682Y-8753246D02*
X4617682Y-8743722D01*
X4617682Y-8743722D02*
X4627206Y-8724674D01*
X4627206Y-8724674D02*
X4646253Y-8715150D01*
X4646253Y-8715150D02*
X4674825Y-8715150D01*
X4674825Y-8715150D02*
X4693873Y-8724674D01*
X4770063Y-8924674D02*
X4779587Y-8915150D01*
X4779587Y-8915150D02*
X4798634Y-8886579D01*
X4798634Y-8886579D02*
X4808158Y-8867531D01*
X4808158Y-8867531D02*
X4817682Y-8838960D01*
X4817682Y-8838960D02*
X4827206Y-8791341D01*
X4827206Y-8791341D02*
X4827206Y-8753246D01*
X4827206Y-8753246D02*
X4817682Y-8705627D01*
X4817682Y-8705627D02*
X4808158Y-8677055D01*
X4808158Y-8677055D02*
X4798634Y-8658008D01*
X4798634Y-8658008D02*
X4779587Y-8629436D01*
X4779587Y-8629436D02*
X4770063Y-8619912D01*
X5131968Y-8924674D02*
X5122444Y-8915150D01*
X5122444Y-8915150D02*
X5103396Y-8886579D01*
X5103396Y-8886579D02*
X5093873Y-8867531D01*
X5093873Y-8867531D02*
X5084349Y-8838960D01*
X5084349Y-8838960D02*
X5074825Y-8791341D01*
X5074825Y-8791341D02*
X5074825Y-8753246D01*
X5074825Y-8753246D02*
X5084349Y-8705627D01*
X5084349Y-8705627D02*
X5093873Y-8677055D01*
X5093873Y-8677055D02*
X5103396Y-8658008D01*
X5103396Y-8658008D02*
X5122444Y-8629436D01*
X5122444Y-8629436D02*
X5131968Y-8619912D01*
X5208158Y-8715150D02*
X5208158Y-8848484D01*
X5208158Y-8734198D02*
X5217682Y-8724674D01*
X5217682Y-8724674D02*
X5236730Y-8715150D01*
X5236730Y-8715150D02*
X5265301Y-8715150D01*
X5265301Y-8715150D02*
X5284349Y-8724674D01*
X5284349Y-8724674D02*
X5293873Y-8743722D01*
X5293873Y-8743722D02*
X5293873Y-8848484D01*
X5417682Y-8848484D02*
X5398634Y-8838960D01*
X5398634Y-8838960D02*
X5389111Y-8829436D01*
X5389111Y-8829436D02*
X5379587Y-8810389D01*
X5379587Y-8810389D02*
X5379587Y-8753246D01*
X5379587Y-8753246D02*
X5389111Y-8734198D01*
X5389111Y-8734198D02*
X5398634Y-8724674D01*
X5398634Y-8724674D02*
X5417682Y-8715150D01*
X5417682Y-8715150D02*
X5446254Y-8715150D01*
X5446254Y-8715150D02*
X5465301Y-8724674D01*
X5465301Y-8724674D02*
X5474825Y-8734198D01*
X5474825Y-8734198D02*
X5484349Y-8753246D01*
X5484349Y-8753246D02*
X5484349Y-8810389D01*
X5484349Y-8810389D02*
X5474825Y-8829436D01*
X5474825Y-8829436D02*
X5465301Y-8838960D01*
X5465301Y-8838960D02*
X5446254Y-8848484D01*
X5446254Y-8848484D02*
X5417682Y-8848484D01*
X5541492Y-8715150D02*
X5617682Y-8715150D01*
X5570063Y-8648484D02*
X5570063Y-8819912D01*
X5570063Y-8819912D02*
X5579587Y-8838960D01*
X5579587Y-8838960D02*
X5598634Y-8848484D01*
X5598634Y-8848484D02*
X5617682Y-8848484D01*
X5836730Y-8715150D02*
X5836730Y-8915150D01*
X5836730Y-8724674D02*
X5855777Y-8715150D01*
X5855777Y-8715150D02*
X5893873Y-8715150D01*
X5893873Y-8715150D02*
X5912920Y-8724674D01*
X5912920Y-8724674D02*
X5922444Y-8734198D01*
X5922444Y-8734198D02*
X5931968Y-8753246D01*
X5931968Y-8753246D02*
X5931968Y-8810389D01*
X5931968Y-8810389D02*
X5922444Y-8829436D01*
X5922444Y-8829436D02*
X5912920Y-8838960D01*
X5912920Y-8838960D02*
X5893873Y-8848484D01*
X5893873Y-8848484D02*
X5855777Y-8848484D01*
X5855777Y-8848484D02*
X5836730Y-8838960D01*
X6046253Y-8848484D02*
X6027206Y-8838960D01*
X6027206Y-8838960D02*
X6017682Y-8819912D01*
X6017682Y-8819912D02*
X6017682Y-8648484D01*
X6208158Y-8848484D02*
X6208158Y-8743722D01*
X6208158Y-8743722D02*
X6198634Y-8724674D01*
X6198634Y-8724674D02*
X6179587Y-8715150D01*
X6179587Y-8715150D02*
X6141492Y-8715150D01*
X6141492Y-8715150D02*
X6122444Y-8724674D01*
X6208158Y-8838960D02*
X6189111Y-8848484D01*
X6189111Y-8848484D02*
X6141492Y-8848484D01*
X6141492Y-8848484D02*
X6122444Y-8838960D01*
X6122444Y-8838960D02*
X6112920Y-8819912D01*
X6112920Y-8819912D02*
X6112920Y-8800865D01*
X6112920Y-8800865D02*
X6122444Y-8781817D01*
X6122444Y-8781817D02*
X6141492Y-8772293D01*
X6141492Y-8772293D02*
X6189111Y-8772293D01*
X6189111Y-8772293D02*
X6208158Y-8762770D01*
X6274825Y-8715150D02*
X6351015Y-8715150D01*
X6303396Y-8648484D02*
X6303396Y-8819912D01*
X6303396Y-8819912D02*
X6312920Y-8838960D01*
X6312920Y-8838960D02*
X6331968Y-8848484D01*
X6331968Y-8848484D02*
X6351015Y-8848484D01*
X6493873Y-8838960D02*
X6474825Y-8848484D01*
X6474825Y-8848484D02*
X6436730Y-8848484D01*
X6436730Y-8848484D02*
X6417682Y-8838960D01*
X6417682Y-8838960D02*
X6408158Y-8819912D01*
X6408158Y-8819912D02*
X6408158Y-8743722D01*
X6408158Y-8743722D02*
X6417682Y-8724674D01*
X6417682Y-8724674D02*
X6436730Y-8715150D01*
X6436730Y-8715150D02*
X6474825Y-8715150D01*
X6474825Y-8715150D02*
X6493873Y-8724674D01*
X6493873Y-8724674D02*
X6503396Y-8743722D01*
X6503396Y-8743722D02*
X6503396Y-8762770D01*
X6503396Y-8762770D02*
X6408158Y-8781817D01*
X6674825Y-8848484D02*
X6674825Y-8648484D01*
X6674825Y-8838960D02*
X6655777Y-8848484D01*
X6655777Y-8848484D02*
X6617682Y-8848484D01*
X6617682Y-8848484D02*
X6598634Y-8838960D01*
X6598634Y-8838960D02*
X6589111Y-8829436D01*
X6589111Y-8829436D02*
X6579587Y-8810389D01*
X6579587Y-8810389D02*
X6579587Y-8753246D01*
X6579587Y-8753246D02*
X6589111Y-8734198D01*
X6589111Y-8734198D02*
X6598634Y-8724674D01*
X6598634Y-8724674D02*
X6617682Y-8715150D01*
X6617682Y-8715150D02*
X6655777Y-8715150D01*
X6655777Y-8715150D02*
X6674825Y-8724674D01*
X6751015Y-8924674D02*
X6760539Y-8915150D01*
X6760539Y-8915150D02*
X6779587Y-8886579D01*
X6779587Y-8886579D02*
X6789111Y-8867531D01*
X6789111Y-8867531D02*
X6798634Y-8838960D01*
X6798634Y-8838960D02*
X6808158Y-8791341D01*
X6808158Y-8791341D02*
X6808158Y-8753246D01*
X6808158Y-8753246D02*
X6798634Y-8705627D01*
X6798634Y-8705627D02*
X6789111Y-8677055D01*
X6789111Y-8677055D02*
X6779587Y-8658008D01*
X6779587Y-8658008D02*
X6760539Y-8629436D01*
X6760539Y-8629436D02*
X6751015Y-8619912D01*
M02*
