M48
; DRILL file KiCad 10.0.4 date 2026-07-13T05:55:35
; FORMAT={-:-/ absolute / metric / decimal}
; #@! TF.CreationDate,2026-07-13T05:55:35+02:00
; #@! TF.GenerationSoftware,Kicad,Pcbnew,10.0.4
; #@! TF.FileFunction,MixedPlating,1,2
FMAT,2
METRIC
; #@! TA.AperFunction,Plated,PTH,ComponentDrill
T1C0.950
; #@! TA.AperFunction,Plated,PTH,ComponentDrill
T2C1.000
; #@! TA.AperFunction,Plated,PTH,ComponentDrill
T3C1.300
; #@! TA.AperFunction,NonPlated,NPTH,ComponentDrill
T4C2.700
; #@! TA.AperFunction,NonPlated,NPTH,ComponentDrill
T5C3.200
%
G90
G05
T1
X5.5Y-11.5
X5.5Y-14.0
X5.5Y-16.5
X5.5Y-25.5
X5.5Y-28.0
X5.5Y-30.5
X5.5Y-39.5
X5.5Y-42.0
X5.5Y-44.5
X5.5Y-53.5
X5.5Y-56.0
X5.5Y-58.5
X77.0Y-11.5
X77.0Y-14.0
X77.0Y-16.5
X77.0Y-25.5
X77.0Y-28.0
X77.0Y-30.5
X77.0Y-39.5
X77.0Y-42.0
X77.0Y-44.5
X77.0Y-53.5
X77.0Y-56.0
X77.0Y-58.5
T2
X16.37Y-38.23
X16.37Y-40.77
X18.91Y-38.23
X18.91Y-40.77
X21.45Y-38.23
X21.45Y-40.77
X23.99Y-38.23
X23.99Y-40.77
X26.53Y-38.23
X26.53Y-40.77
X29.07Y-38.23
X29.07Y-40.77
X31.61Y-38.23
X31.61Y-40.77
X34.15Y-38.23
X34.15Y-40.77
X36.69Y-38.23
X36.69Y-40.77
X39.23Y-38.23
X39.23Y-40.77
X41.77Y-38.23
X41.77Y-40.77
X44.31Y-38.23
X44.31Y-40.77
X46.85Y-38.23
X46.85Y-40.77
X49.39Y-38.23
X49.39Y-40.77
X51.93Y-38.23
X51.93Y-40.77
X54.47Y-38.23
X54.47Y-40.77
X57.01Y-38.23
X57.01Y-40.77
X59.55Y-38.23
X59.55Y-40.77
X62.09Y-38.23
X62.09Y-40.77
X64.63Y-38.23
X64.63Y-40.77
T3
X39.96Y-8.0
X45.04Y-8.0
T4
X11.5Y-39.5
X11.5Y-62.5
X69.5Y-39.5
X69.5Y-62.5
T5
X4.0Y-4.0
X4.0Y-66.0
X81.0Y-4.0
X81.0Y-66.0
M30
