%TF.GenerationSoftware,KiCad,Pcbnew,10.0.4*%
%TF.CreationDate,2026-07-13T05:55:35+02:00*%
%TF.ProjectId,led-controller-simple,6c65642d-636f-46e7-9472-6f6c6c65722d,rev?*%
%TF.SameCoordinates,Original*%
%TF.FileFunction,Legend,Top*%
%TF.FilePolarity,Positive*%
%FSLAX46Y46*%
G04 Gerber Fmt 4.6, Leading zero omitted, Abs format (unit mm)*
G04 Created by KiCad (PCBNEW 10.0.4) date 2026-07-13 05:55:35*
%MOMM*%
%LPD*%
G01*
G04 APERTURE LIST*
G04 Aperture macros list*
%AMRoundRect*
0 Rectangle with rounded corners*
0 $1 Rounding radius*
0 $2 $3 $4 $5 $6 $7 $8 $9 X,Y pos of 4 corners*
0 Add a 4 corners polygon primitive as box body*
4,1,4,$2,$3,$4,$5,$6,$7,$8,$9,$2,$3,0*
0 Add four circle primitives for the rounded corners*
1,1,$1+$1,$2,$3*
1,1,$1+$1,$4,$5*
1,1,$1+$1,$6,$7*
1,1,$1+$1,$8,$9*
0 Add four rect primitives between the rounded corners*
20,1,$1+$1,$2,$3,$4,$5,0*
20,1,$1+$1,$4,$5,$6,$7,0*
20,1,$1+$1,$6,$7,$8,$9,0*
20,1,$1+$1,$8,$9,$2,$3,0*%
G04 Aperture macros list end*
%ADD10C,0.150000*%
%ADD11C,0.224999*%
%ADD12C,0.240000*%
%ADD13C,0.120000*%
%ADD14C,3.200000*%
%ADD15C,2.700000*%
%ADD16RoundRect,0.250000X-0.725000X0.600000X-0.725000X-0.600000X0.725000X-0.600000X0.725000X0.600000X0*%
%ADD17O,1.950000X1.700000*%
%ADD18RoundRect,0.250000X-1.050000X-1.050000X1.050000X-1.050000X1.050000X1.050000X-1.050000X1.050000X0*%
%ADD19C,2.600000*%
%ADD20R,1.700000X1.700000*%
%ADD21C,1.700000*%
G04 APERTURE END LIST*
D10*
X8819048Y-39573866D02*
X9580953Y-39573866D01*
X9200000Y-39954819D02*
X9200000Y-39192914D01*
X9461904Y-44002438D02*
X9366666Y-43954819D01*
X9366666Y-43954819D02*
X9223809Y-43954819D01*
X9223809Y-43954819D02*
X9080952Y-44002438D01*
X9080952Y-44002438D02*
X8985714Y-44097676D01*
X8985714Y-44097676D02*
X8938095Y-44192914D01*
X8938095Y-44192914D02*
X8890476Y-44383390D01*
X8890476Y-44383390D02*
X8890476Y-44526247D01*
X8890476Y-44526247D02*
X8938095Y-44716723D01*
X8938095Y-44716723D02*
X8985714Y-44811961D01*
X8985714Y-44811961D02*
X9080952Y-44907200D01*
X9080952Y-44907200D02*
X9223809Y-44954819D01*
X9223809Y-44954819D02*
X9319047Y-44954819D01*
X9319047Y-44954819D02*
X9461904Y-44907200D01*
X9461904Y-44907200D02*
X9509523Y-44859580D01*
X9509523Y-44859580D02*
X9509523Y-44526247D01*
X9509523Y-44526247D02*
X9319047Y-44526247D01*
X9619048Y-11573866D02*
X10380953Y-11573866D01*
X10000000Y-11954819D02*
X10000000Y-11192914D01*
X10261904Y-16002438D02*
X10166666Y-15954819D01*
X10166666Y-15954819D02*
X10023809Y-15954819D01*
X10023809Y-15954819D02*
X9880952Y-16002438D01*
X9880952Y-16002438D02*
X9785714Y-16097676D01*
X9785714Y-16097676D02*
X9738095Y-16192914D01*
X9738095Y-16192914D02*
X9690476Y-16383390D01*
X9690476Y-16383390D02*
X9690476Y-16526247D01*
X9690476Y-16526247D02*
X9738095Y-16716723D01*
X9738095Y-16716723D02*
X9785714Y-16811961D01*
X9785714Y-16811961D02*
X9880952Y-16907200D01*
X9880952Y-16907200D02*
X10023809Y-16954819D01*
X10023809Y-16954819D02*
X10119047Y-16954819D01*
X10119047Y-16954819D02*
X10261904Y-16907200D01*
X10261904Y-16907200D02*
X10309523Y-16859580D01*
X10309523Y-16859580D02*
X10309523Y-16526247D01*
X10309523Y-16526247D02*
X10119047Y-16526247D01*
X9619048Y-25573866D02*
X10380953Y-25573866D01*
X10000000Y-25954819D02*
X10000000Y-25192914D01*
X10261904Y-30002438D02*
X10166666Y-29954819D01*
X10166666Y-29954819D02*
X10023809Y-29954819D01*
X10023809Y-29954819D02*
X9880952Y-30002438D01*
X9880952Y-30002438D02*
X9785714Y-30097676D01*
X9785714Y-30097676D02*
X9738095Y-30192914D01*
X9738095Y-30192914D02*
X9690476Y-30383390D01*
X9690476Y-30383390D02*
X9690476Y-30526247D01*
X9690476Y-30526247D02*
X9738095Y-30716723D01*
X9738095Y-30716723D02*
X9785714Y-30811961D01*
X9785714Y-30811961D02*
X9880952Y-30907200D01*
X9880952Y-30907200D02*
X10023809Y-30954819D01*
X10023809Y-30954819D02*
X10119047Y-30954819D01*
X10119047Y-30954819D02*
X10261904Y-30907200D01*
X10261904Y-30907200D02*
X10309523Y-30859580D01*
X10309523Y-30859580D02*
X10309523Y-30526247D01*
X10309523Y-30526247D02*
X10119047Y-30526247D01*
X9619048Y-53573866D02*
X10380953Y-53573866D01*
X10000000Y-53954819D02*
X10000000Y-53192914D01*
X10261904Y-58002438D02*
X10166666Y-57954819D01*
X10166666Y-57954819D02*
X10023809Y-57954819D01*
X10023809Y-57954819D02*
X9880952Y-58002438D01*
X9880952Y-58002438D02*
X9785714Y-58097676D01*
X9785714Y-58097676D02*
X9738095Y-58192914D01*
X9738095Y-58192914D02*
X9690476Y-58383390D01*
X9690476Y-58383390D02*
X9690476Y-58526247D01*
X9690476Y-58526247D02*
X9738095Y-58716723D01*
X9738095Y-58716723D02*
X9785714Y-58811961D01*
X9785714Y-58811961D02*
X9880952Y-58907200D01*
X9880952Y-58907200D02*
X10023809Y-58954819D01*
X10023809Y-58954819D02*
X10119047Y-58954819D01*
X10119047Y-58954819D02*
X10261904Y-58907200D01*
X10261904Y-58907200D02*
X10309523Y-58859580D01*
X10309523Y-58859580D02*
X10309523Y-58526247D01*
X10309523Y-58526247D02*
X10119047Y-58526247D01*
X41166666Y-16754819D02*
X40690476Y-16754819D01*
X40690476Y-16754819D02*
X40642857Y-17231009D01*
X40642857Y-17231009D02*
X40690476Y-17183390D01*
X40690476Y-17183390D02*
X40785714Y-17135771D01*
X40785714Y-17135771D02*
X41023809Y-17135771D01*
X41023809Y-17135771D02*
X41119047Y-17183390D01*
X41119047Y-17183390D02*
X41166666Y-17231009D01*
X41166666Y-17231009D02*
X41214285Y-17326247D01*
X41214285Y-17326247D02*
X41214285Y-17564342D01*
X41214285Y-17564342D02*
X41166666Y-17659580D01*
X41166666Y-17659580D02*
X41119047Y-17707200D01*
X41119047Y-17707200D02*
X41023809Y-17754819D01*
X41023809Y-17754819D02*
X40785714Y-17754819D01*
X40785714Y-17754819D02*
X40690476Y-17707200D01*
X40690476Y-17707200D02*
X40642857Y-17659580D01*
X41500000Y-16754819D02*
X41833333Y-17754819D01*
X41833333Y-17754819D02*
X42166666Y-16754819D01*
X43261905Y-17754819D02*
X43261905Y-16754819D01*
X43738095Y-17754819D02*
X43738095Y-16754819D01*
X43738095Y-16754819D02*
X44309523Y-17754819D01*
X44309523Y-17754819D02*
X44309523Y-16754819D01*
X27642856Y-20954819D02*
X27642856Y-19954819D01*
X27642856Y-19954819D02*
X28214284Y-20954819D01*
X28214284Y-20954819D02*
X28214284Y-19954819D01*
X28880951Y-19954819D02*
X29071427Y-19954819D01*
X29071427Y-19954819D02*
X29166665Y-20002438D01*
X29166665Y-20002438D02*
X29261903Y-20097676D01*
X29261903Y-20097676D02*
X29309522Y-20288152D01*
X29309522Y-20288152D02*
X29309522Y-20621485D01*
X29309522Y-20621485D02*
X29261903Y-20811961D01*
X29261903Y-20811961D02*
X29166665Y-20907200D01*
X29166665Y-20907200D02*
X29071427Y-20954819D01*
X29071427Y-20954819D02*
X28880951Y-20954819D01*
X28880951Y-20954819D02*
X28785713Y-20907200D01*
X28785713Y-20907200D02*
X28690475Y-20811961D01*
X28690475Y-20811961D02*
X28642856Y-20621485D01*
X28642856Y-20621485D02*
X28642856Y-20288152D01*
X28642856Y-20288152D02*
X28690475Y-20097676D01*
X28690475Y-20097676D02*
X28785713Y-20002438D01*
X28785713Y-20002438D02*
X28880951Y-19954819D01*
X30833332Y-20431009D02*
X30499999Y-20431009D01*
X30499999Y-20954819D02*
X30499999Y-19954819D01*
X30499999Y-19954819D02*
X30976189Y-19954819D01*
X31357142Y-19954819D02*
X31357142Y-20764342D01*
X31357142Y-20764342D02*
X31404761Y-20859580D01*
X31404761Y-20859580D02*
X31452380Y-20907200D01*
X31452380Y-20907200D02*
X31547618Y-20954819D01*
X31547618Y-20954819D02*
X31738094Y-20954819D01*
X31738094Y-20954819D02*
X31833332Y-20907200D01*
X31833332Y-20907200D02*
X31880951Y-20859580D01*
X31880951Y-20859580D02*
X31928570Y-20764342D01*
X31928570Y-20764342D02*
X31928570Y-19954819D01*
X32357142Y-20907200D02*
X32499999Y-20954819D01*
X32499999Y-20954819D02*
X32738094Y-20954819D01*
X32738094Y-20954819D02*
X32833332Y-20907200D01*
X32833332Y-20907200D02*
X32880951Y-20859580D01*
X32880951Y-20859580D02*
X32928570Y-20764342D01*
X32928570Y-20764342D02*
X32928570Y-20669104D01*
X32928570Y-20669104D02*
X32880951Y-20573866D01*
X32880951Y-20573866D02*
X32833332Y-20526247D01*
X32833332Y-20526247D02*
X32738094Y-20478628D01*
X32738094Y-20478628D02*
X32547618Y-20431009D01*
X32547618Y-20431009D02*
X32452380Y-20383390D01*
X32452380Y-20383390D02*
X32404761Y-20335771D01*
X32404761Y-20335771D02*
X32357142Y-20240533D01*
X32357142Y-20240533D02*
X32357142Y-20145295D01*
X32357142Y-20145295D02*
X32404761Y-20050057D01*
X32404761Y-20050057D02*
X32452380Y-20002438D01*
X32452380Y-20002438D02*
X32547618Y-19954819D01*
X32547618Y-19954819D02*
X32785713Y-19954819D01*
X32785713Y-19954819D02*
X32928570Y-20002438D01*
X33357142Y-20431009D02*
X33690475Y-20431009D01*
X33833332Y-20954819D02*
X33357142Y-20954819D01*
X33357142Y-20954819D02*
X33357142Y-19954819D01*
X33357142Y-19954819D02*
X33833332Y-19954819D01*
X34214285Y-20907200D02*
X34357142Y-20954819D01*
X34357142Y-20954819D02*
X34595237Y-20954819D01*
X34595237Y-20954819D02*
X34690475Y-20907200D01*
X34690475Y-20907200D02*
X34738094Y-20859580D01*
X34738094Y-20859580D02*
X34785713Y-20764342D01*
X34785713Y-20764342D02*
X34785713Y-20669104D01*
X34785713Y-20669104D02*
X34738094Y-20573866D01*
X34738094Y-20573866D02*
X34690475Y-20526247D01*
X34690475Y-20526247D02*
X34595237Y-20478628D01*
X34595237Y-20478628D02*
X34404761Y-20431009D01*
X34404761Y-20431009D02*
X34309523Y-20383390D01*
X34309523Y-20383390D02*
X34261904Y-20335771D01*
X34261904Y-20335771D02*
X34214285Y-20240533D01*
X34214285Y-20240533D02*
X34214285Y-20145295D01*
X34214285Y-20145295D02*
X34261904Y-20050057D01*
X34261904Y-20050057D02*
X34309523Y-20002438D01*
X34309523Y-20002438D02*
X34404761Y-19954819D01*
X34404761Y-19954819D02*
X34642856Y-19954819D01*
X34642856Y-19954819D02*
X34785713Y-20002438D01*
X35976190Y-20573866D02*
X36738095Y-20573866D01*
X38309523Y-20431009D02*
X37976190Y-20431009D01*
X37976190Y-20954819D02*
X37976190Y-19954819D01*
X37976190Y-19954819D02*
X38452380Y-19954819D01*
X38833333Y-19954819D02*
X38833333Y-20764342D01*
X38833333Y-20764342D02*
X38880952Y-20859580D01*
X38880952Y-20859580D02*
X38928571Y-20907200D01*
X38928571Y-20907200D02*
X39023809Y-20954819D01*
X39023809Y-20954819D02*
X39214285Y-20954819D01*
X39214285Y-20954819D02*
X39309523Y-20907200D01*
X39309523Y-20907200D02*
X39357142Y-20859580D01*
X39357142Y-20859580D02*
X39404761Y-20764342D01*
X39404761Y-20764342D02*
X39404761Y-19954819D01*
X39833333Y-20907200D02*
X39976190Y-20954819D01*
X39976190Y-20954819D02*
X40214285Y-20954819D01*
X40214285Y-20954819D02*
X40309523Y-20907200D01*
X40309523Y-20907200D02*
X40357142Y-20859580D01*
X40357142Y-20859580D02*
X40404761Y-20764342D01*
X40404761Y-20764342D02*
X40404761Y-20669104D01*
X40404761Y-20669104D02*
X40357142Y-20573866D01*
X40357142Y-20573866D02*
X40309523Y-20526247D01*
X40309523Y-20526247D02*
X40214285Y-20478628D01*
X40214285Y-20478628D02*
X40023809Y-20431009D01*
X40023809Y-20431009D02*
X39928571Y-20383390D01*
X39928571Y-20383390D02*
X39880952Y-20335771D01*
X39880952Y-20335771D02*
X39833333Y-20240533D01*
X39833333Y-20240533D02*
X39833333Y-20145295D01*
X39833333Y-20145295D02*
X39880952Y-20050057D01*
X39880952Y-20050057D02*
X39928571Y-20002438D01*
X39928571Y-20002438D02*
X40023809Y-19954819D01*
X40023809Y-19954819D02*
X40261904Y-19954819D01*
X40261904Y-19954819D02*
X40404761Y-20002438D01*
X40833333Y-20431009D02*
X41166666Y-20431009D01*
X41309523Y-20954819D02*
X40833333Y-20954819D01*
X40833333Y-20954819D02*
X40833333Y-19954819D01*
X40833333Y-19954819D02*
X41309523Y-19954819D01*
X42452381Y-20907200D02*
X42595238Y-20954819D01*
X42595238Y-20954819D02*
X42833333Y-20954819D01*
X42833333Y-20954819D02*
X42928571Y-20907200D01*
X42928571Y-20907200D02*
X42976190Y-20859580D01*
X42976190Y-20859580D02*
X43023809Y-20764342D01*
X43023809Y-20764342D02*
X43023809Y-20669104D01*
X43023809Y-20669104D02*
X42976190Y-20573866D01*
X42976190Y-20573866D02*
X42928571Y-20526247D01*
X42928571Y-20526247D02*
X42833333Y-20478628D01*
X42833333Y-20478628D02*
X42642857Y-20431009D01*
X42642857Y-20431009D02*
X42547619Y-20383390D01*
X42547619Y-20383390D02*
X42500000Y-20335771D01*
X42500000Y-20335771D02*
X42452381Y-20240533D01*
X42452381Y-20240533D02*
X42452381Y-20145295D01*
X42452381Y-20145295D02*
X42500000Y-20050057D01*
X42500000Y-20050057D02*
X42547619Y-20002438D01*
X42547619Y-20002438D02*
X42642857Y-19954819D01*
X42642857Y-19954819D02*
X42880952Y-19954819D01*
X42880952Y-19954819D02*
X43023809Y-20002438D01*
X43452381Y-19954819D02*
X43452381Y-20764342D01*
X43452381Y-20764342D02*
X43500000Y-20859580D01*
X43500000Y-20859580D02*
X43547619Y-20907200D01*
X43547619Y-20907200D02*
X43642857Y-20954819D01*
X43642857Y-20954819D02*
X43833333Y-20954819D01*
X43833333Y-20954819D02*
X43928571Y-20907200D01*
X43928571Y-20907200D02*
X43976190Y-20859580D01*
X43976190Y-20859580D02*
X44023809Y-20764342D01*
X44023809Y-20764342D02*
X44023809Y-19954819D01*
X44500000Y-20954819D02*
X44500000Y-19954819D01*
X44500000Y-19954819D02*
X44880952Y-19954819D01*
X44880952Y-19954819D02*
X44976190Y-20002438D01*
X44976190Y-20002438D02*
X45023809Y-20050057D01*
X45023809Y-20050057D02*
X45071428Y-20145295D01*
X45071428Y-20145295D02*
X45071428Y-20288152D01*
X45071428Y-20288152D02*
X45023809Y-20383390D01*
X45023809Y-20383390D02*
X44976190Y-20431009D01*
X44976190Y-20431009D02*
X44880952Y-20478628D01*
X44880952Y-20478628D02*
X44500000Y-20478628D01*
X45500000Y-20954819D02*
X45500000Y-19954819D01*
X45500000Y-19954819D02*
X45880952Y-19954819D01*
X45880952Y-19954819D02*
X45976190Y-20002438D01*
X45976190Y-20002438D02*
X46023809Y-20050057D01*
X46023809Y-20050057D02*
X46071428Y-20145295D01*
X46071428Y-20145295D02*
X46071428Y-20288152D01*
X46071428Y-20288152D02*
X46023809Y-20383390D01*
X46023809Y-20383390D02*
X45976190Y-20431009D01*
X45976190Y-20431009D02*
X45880952Y-20478628D01*
X45880952Y-20478628D02*
X45500000Y-20478628D01*
X46976190Y-20954819D02*
X46500000Y-20954819D01*
X46500000Y-20954819D02*
X46500000Y-19954819D01*
X47500000Y-20478628D02*
X47500000Y-20954819D01*
X47166667Y-19954819D02*
X47500000Y-20478628D01*
X47500000Y-20478628D02*
X47833333Y-19954819D01*
X48928572Y-20431009D02*
X49261905Y-20431009D01*
X49404762Y-20954819D02*
X48928572Y-20954819D01*
X48928572Y-20954819D02*
X48928572Y-19954819D01*
X48928572Y-19954819D02*
X49404762Y-19954819D01*
X49738096Y-19954819D02*
X50404762Y-20954819D01*
X50404762Y-19954819D02*
X49738096Y-20954819D01*
X50642858Y-19954819D02*
X51214286Y-19954819D01*
X50928572Y-20954819D02*
X50928572Y-19954819D01*
X51547620Y-20431009D02*
X51880953Y-20431009D01*
X52023810Y-20954819D02*
X51547620Y-20954819D01*
X51547620Y-20954819D02*
X51547620Y-19954819D01*
X51547620Y-19954819D02*
X52023810Y-19954819D01*
X53023810Y-20954819D02*
X52690477Y-20478628D01*
X52452382Y-20954819D02*
X52452382Y-19954819D01*
X52452382Y-19954819D02*
X52833334Y-19954819D01*
X52833334Y-19954819D02*
X52928572Y-20002438D01*
X52928572Y-20002438D02*
X52976191Y-20050057D01*
X52976191Y-20050057D02*
X53023810Y-20145295D01*
X53023810Y-20145295D02*
X53023810Y-20288152D01*
X53023810Y-20288152D02*
X52976191Y-20383390D01*
X52976191Y-20383390D02*
X52928572Y-20431009D01*
X52928572Y-20431009D02*
X52833334Y-20478628D01*
X52833334Y-20478628D02*
X52452382Y-20478628D01*
X53452382Y-20954819D02*
X53452382Y-19954819D01*
X53452382Y-19954819D02*
X54023810Y-20954819D01*
X54023810Y-20954819D02*
X54023810Y-19954819D01*
X54452382Y-20669104D02*
X54928572Y-20669104D01*
X54357144Y-20954819D02*
X54690477Y-19954819D01*
X54690477Y-19954819D02*
X55023810Y-20954819D01*
X55833334Y-20954819D02*
X55357144Y-20954819D01*
X55357144Y-20954819D02*
X55357144Y-19954819D01*
X56642858Y-20954819D02*
X56166668Y-20954819D01*
X56166668Y-20954819D02*
X56166668Y-19954819D01*
X57166668Y-20478628D02*
X57166668Y-20954819D01*
X56833335Y-19954819D02*
X57166668Y-20478628D01*
X57166668Y-20478628D02*
X57500001Y-19954819D01*
X27952380Y-22454819D02*
X28571427Y-22454819D01*
X28571427Y-22454819D02*
X28238094Y-22835771D01*
X28238094Y-22835771D02*
X28380951Y-22835771D01*
X28380951Y-22835771D02*
X28476189Y-22883390D01*
X28476189Y-22883390D02*
X28523808Y-22931009D01*
X28523808Y-22931009D02*
X28571427Y-23026247D01*
X28571427Y-23026247D02*
X28571427Y-23264342D01*
X28571427Y-23264342D02*
X28523808Y-23359580D01*
X28523808Y-23359580D02*
X28476189Y-23407200D01*
X28476189Y-23407200D02*
X28380951Y-23454819D01*
X28380951Y-23454819D02*
X28095237Y-23454819D01*
X28095237Y-23454819D02*
X27999999Y-23407200D01*
X27999999Y-23407200D02*
X27952380Y-23359580D01*
X28857142Y-22454819D02*
X29190475Y-23454819D01*
X29190475Y-23454819D02*
X29523808Y-22454819D01*
X29761904Y-22454819D02*
X30380951Y-22454819D01*
X30380951Y-22454819D02*
X30047618Y-22835771D01*
X30047618Y-22835771D02*
X30190475Y-22835771D01*
X30190475Y-22835771D02*
X30285713Y-22883390D01*
X30285713Y-22883390D02*
X30333332Y-22931009D01*
X30333332Y-22931009D02*
X30380951Y-23026247D01*
X30380951Y-23026247D02*
X30380951Y-23264342D01*
X30380951Y-23264342D02*
X30333332Y-23359580D01*
X30333332Y-23359580D02*
X30285713Y-23407200D01*
X30285713Y-23407200D02*
X30190475Y-23454819D01*
X30190475Y-23454819D02*
X29904761Y-23454819D01*
X29904761Y-23454819D02*
X29809523Y-23407200D01*
X29809523Y-23407200D02*
X29761904Y-23359580D01*
X31571428Y-23454819D02*
X31571428Y-22454819D01*
X31571428Y-22454819D02*
X31809523Y-22454819D01*
X31809523Y-22454819D02*
X31952380Y-22502438D01*
X31952380Y-22502438D02*
X32047618Y-22597676D01*
X32047618Y-22597676D02*
X32095237Y-22692914D01*
X32095237Y-22692914D02*
X32142856Y-22883390D01*
X32142856Y-22883390D02*
X32142856Y-23026247D01*
X32142856Y-23026247D02*
X32095237Y-23216723D01*
X32095237Y-23216723D02*
X32047618Y-23311961D01*
X32047618Y-23311961D02*
X31952380Y-23407200D01*
X31952380Y-23407200D02*
X31809523Y-23454819D01*
X31809523Y-23454819D02*
X31571428Y-23454819D01*
X32523809Y-23169104D02*
X32999999Y-23169104D01*
X32428571Y-23454819D02*
X32761904Y-22454819D01*
X32761904Y-22454819D02*
X33095237Y-23454819D01*
X33285714Y-22454819D02*
X33857142Y-22454819D01*
X33571428Y-23454819D02*
X33571428Y-22454819D01*
X34142857Y-23169104D02*
X34619047Y-23169104D01*
X34047619Y-23454819D02*
X34380952Y-22454819D01*
X34380952Y-22454819D02*
X34714285Y-23454819D01*
X35809524Y-23073866D02*
X36571429Y-23073866D01*
X37809524Y-23454819D02*
X37809524Y-22454819D01*
X38380952Y-23454819D02*
X37952381Y-22883390D01*
X38380952Y-22454819D02*
X37809524Y-23026247D01*
X38809524Y-22931009D02*
X39142857Y-22931009D01*
X39285714Y-23454819D02*
X38809524Y-23454819D01*
X38809524Y-23454819D02*
X38809524Y-22454819D01*
X38809524Y-22454819D02*
X39285714Y-22454819D01*
X39714286Y-22931009D02*
X40047619Y-22931009D01*
X40190476Y-23454819D02*
X39714286Y-23454819D01*
X39714286Y-23454819D02*
X39714286Y-22454819D01*
X39714286Y-22454819D02*
X40190476Y-22454819D01*
X40619048Y-23454819D02*
X40619048Y-22454819D01*
X40619048Y-22454819D02*
X41000000Y-22454819D01*
X41000000Y-22454819D02*
X41095238Y-22502438D01*
X41095238Y-22502438D02*
X41142857Y-22550057D01*
X41142857Y-22550057D02*
X41190476Y-22645295D01*
X41190476Y-22645295D02*
X41190476Y-22788152D01*
X41190476Y-22788152D02*
X41142857Y-22883390D01*
X41142857Y-22883390D02*
X41095238Y-22931009D01*
X41095238Y-22931009D02*
X41000000Y-22978628D01*
X41000000Y-22978628D02*
X40619048Y-22978628D01*
X42333334Y-23407200D02*
X42476191Y-23454819D01*
X42476191Y-23454819D02*
X42714286Y-23454819D01*
X42714286Y-23454819D02*
X42809524Y-23407200D01*
X42809524Y-23407200D02*
X42857143Y-23359580D01*
X42857143Y-23359580D02*
X42904762Y-23264342D01*
X42904762Y-23264342D02*
X42904762Y-23169104D01*
X42904762Y-23169104D02*
X42857143Y-23073866D01*
X42857143Y-23073866D02*
X42809524Y-23026247D01*
X42809524Y-23026247D02*
X42714286Y-22978628D01*
X42714286Y-22978628D02*
X42523810Y-22931009D01*
X42523810Y-22931009D02*
X42428572Y-22883390D01*
X42428572Y-22883390D02*
X42380953Y-22835771D01*
X42380953Y-22835771D02*
X42333334Y-22740533D01*
X42333334Y-22740533D02*
X42333334Y-22645295D01*
X42333334Y-22645295D02*
X42380953Y-22550057D01*
X42380953Y-22550057D02*
X42428572Y-22502438D01*
X42428572Y-22502438D02*
X42523810Y-22454819D01*
X42523810Y-22454819D02*
X42761905Y-22454819D01*
X42761905Y-22454819D02*
X42904762Y-22502438D01*
X43190477Y-22454819D02*
X43761905Y-22454819D01*
X43476191Y-23454819D02*
X43476191Y-22454819D01*
X44666667Y-23454819D02*
X44333334Y-22978628D01*
X44095239Y-23454819D02*
X44095239Y-22454819D01*
X44095239Y-22454819D02*
X44476191Y-22454819D01*
X44476191Y-22454819D02*
X44571429Y-22502438D01*
X44571429Y-22502438D02*
X44619048Y-22550057D01*
X44619048Y-22550057D02*
X44666667Y-22645295D01*
X44666667Y-22645295D02*
X44666667Y-22788152D01*
X44666667Y-22788152D02*
X44619048Y-22883390D01*
X44619048Y-22883390D02*
X44571429Y-22931009D01*
X44571429Y-22931009D02*
X44476191Y-22978628D01*
X44476191Y-22978628D02*
X44095239Y-22978628D01*
X45095239Y-23454819D02*
X45095239Y-22454819D01*
X45571429Y-23454819D02*
X45571429Y-22454819D01*
X45571429Y-22454819D02*
X45952381Y-22454819D01*
X45952381Y-22454819D02*
X46047619Y-22502438D01*
X46047619Y-22502438D02*
X46095238Y-22550057D01*
X46095238Y-22550057D02*
X46142857Y-22645295D01*
X46142857Y-22645295D02*
X46142857Y-22788152D01*
X46142857Y-22788152D02*
X46095238Y-22883390D01*
X46095238Y-22883390D02*
X46047619Y-22931009D01*
X46047619Y-22931009D02*
X45952381Y-22978628D01*
X45952381Y-22978628D02*
X45571429Y-22978628D01*
X47809524Y-23454819D02*
X47333334Y-23454819D01*
X47333334Y-23454819D02*
X47333334Y-22454819D01*
X48142858Y-22931009D02*
X48476191Y-22931009D01*
X48619048Y-23454819D02*
X48142858Y-23454819D01*
X48142858Y-23454819D02*
X48142858Y-22454819D01*
X48142858Y-22454819D02*
X48619048Y-22454819D01*
X49000001Y-23169104D02*
X49476191Y-23169104D01*
X48904763Y-23454819D02*
X49238096Y-22454819D01*
X49238096Y-22454819D02*
X49571429Y-23454819D01*
X49904763Y-23454819D02*
X49904763Y-22454819D01*
X49904763Y-22454819D02*
X50142858Y-22454819D01*
X50142858Y-22454819D02*
X50285715Y-22502438D01*
X50285715Y-22502438D02*
X50380953Y-22597676D01*
X50380953Y-22597676D02*
X50428572Y-22692914D01*
X50428572Y-22692914D02*
X50476191Y-22883390D01*
X50476191Y-22883390D02*
X50476191Y-23026247D01*
X50476191Y-23026247D02*
X50428572Y-23216723D01*
X50428572Y-23216723D02*
X50380953Y-23311961D01*
X50380953Y-23311961D02*
X50285715Y-23407200D01*
X50285715Y-23407200D02*
X50142858Y-23454819D01*
X50142858Y-23454819D02*
X49904763Y-23454819D01*
X50857144Y-23407200D02*
X51000001Y-23454819D01*
X51000001Y-23454819D02*
X51238096Y-23454819D01*
X51238096Y-23454819D02*
X51333334Y-23407200D01*
X51333334Y-23407200D02*
X51380953Y-23359580D01*
X51380953Y-23359580D02*
X51428572Y-23264342D01*
X51428572Y-23264342D02*
X51428572Y-23169104D01*
X51428572Y-23169104D02*
X51380953Y-23073866D01*
X51380953Y-23073866D02*
X51333334Y-23026247D01*
X51333334Y-23026247D02*
X51238096Y-22978628D01*
X51238096Y-22978628D02*
X51047620Y-22931009D01*
X51047620Y-22931009D02*
X50952382Y-22883390D01*
X50952382Y-22883390D02*
X50904763Y-22835771D01*
X50904763Y-22835771D02*
X50857144Y-22740533D01*
X50857144Y-22740533D02*
X50857144Y-22645295D01*
X50857144Y-22645295D02*
X50904763Y-22550057D01*
X50904763Y-22550057D02*
X50952382Y-22502438D01*
X50952382Y-22502438D02*
X51047620Y-22454819D01*
X51047620Y-22454819D02*
X51285715Y-22454819D01*
X51285715Y-22454819D02*
X51428572Y-22502438D01*
X52571430Y-23407200D02*
X52714287Y-23454819D01*
X52714287Y-23454819D02*
X52952382Y-23454819D01*
X52952382Y-23454819D02*
X53047620Y-23407200D01*
X53047620Y-23407200D02*
X53095239Y-23359580D01*
X53095239Y-23359580D02*
X53142858Y-23264342D01*
X53142858Y-23264342D02*
X53142858Y-23169104D01*
X53142858Y-23169104D02*
X53095239Y-23073866D01*
X53095239Y-23073866D02*
X53047620Y-23026247D01*
X53047620Y-23026247D02*
X52952382Y-22978628D01*
X52952382Y-22978628D02*
X52761906Y-22931009D01*
X52761906Y-22931009D02*
X52666668Y-22883390D01*
X52666668Y-22883390D02*
X52619049Y-22835771D01*
X52619049Y-22835771D02*
X52571430Y-22740533D01*
X52571430Y-22740533D02*
X52571430Y-22645295D01*
X52571430Y-22645295D02*
X52619049Y-22550057D01*
X52619049Y-22550057D02*
X52666668Y-22502438D01*
X52666668Y-22502438D02*
X52761906Y-22454819D01*
X52761906Y-22454819D02*
X53000001Y-22454819D01*
X53000001Y-22454819D02*
X53142858Y-22502438D01*
X53571430Y-23454819D02*
X53571430Y-22454819D01*
X53571430Y-22931009D02*
X54142858Y-22931009D01*
X54142858Y-23454819D02*
X54142858Y-22454819D01*
X54809525Y-22454819D02*
X55000001Y-22454819D01*
X55000001Y-22454819D02*
X55095239Y-22502438D01*
X55095239Y-22502438D02*
X55190477Y-22597676D01*
X55190477Y-22597676D02*
X55238096Y-22788152D01*
X55238096Y-22788152D02*
X55238096Y-23121485D01*
X55238096Y-23121485D02*
X55190477Y-23311961D01*
X55190477Y-23311961D02*
X55095239Y-23407200D01*
X55095239Y-23407200D02*
X55000001Y-23454819D01*
X55000001Y-23454819D02*
X54809525Y-23454819D01*
X54809525Y-23454819D02*
X54714287Y-23407200D01*
X54714287Y-23407200D02*
X54619049Y-23311961D01*
X54619049Y-23311961D02*
X54571430Y-23121485D01*
X54571430Y-23121485D02*
X54571430Y-22788152D01*
X54571430Y-22788152D02*
X54619049Y-22597676D01*
X54619049Y-22597676D02*
X54714287Y-22502438D01*
X54714287Y-22502438D02*
X54809525Y-22454819D01*
X56238096Y-23454819D02*
X55904763Y-22978628D01*
X55666668Y-23454819D02*
X55666668Y-22454819D01*
X55666668Y-22454819D02*
X56047620Y-22454819D01*
X56047620Y-22454819D02*
X56142858Y-22502438D01*
X56142858Y-22502438D02*
X56190477Y-22550057D01*
X56190477Y-22550057D02*
X56238096Y-22645295D01*
X56238096Y-22645295D02*
X56238096Y-22788152D01*
X56238096Y-22788152D02*
X56190477Y-22883390D01*
X56190477Y-22883390D02*
X56142858Y-22931009D01*
X56142858Y-22931009D02*
X56047620Y-22978628D01*
X56047620Y-22978628D02*
X55666668Y-22978628D01*
X56523811Y-22454819D02*
X57095239Y-22454819D01*
X56809525Y-23454819D02*
X56809525Y-22454819D01*
X30833332Y-25002438D02*
X30738094Y-24954819D01*
X30738094Y-24954819D02*
X30595237Y-24954819D01*
X30595237Y-24954819D02*
X30452380Y-25002438D01*
X30452380Y-25002438D02*
X30357142Y-25097676D01*
X30357142Y-25097676D02*
X30309523Y-25192914D01*
X30309523Y-25192914D02*
X30261904Y-25383390D01*
X30261904Y-25383390D02*
X30261904Y-25526247D01*
X30261904Y-25526247D02*
X30309523Y-25716723D01*
X30309523Y-25716723D02*
X30357142Y-25811961D01*
X30357142Y-25811961D02*
X30452380Y-25907200D01*
X30452380Y-25907200D02*
X30595237Y-25954819D01*
X30595237Y-25954819D02*
X30690475Y-25954819D01*
X30690475Y-25954819D02*
X30833332Y-25907200D01*
X30833332Y-25907200D02*
X30880951Y-25859580D01*
X30880951Y-25859580D02*
X30880951Y-25526247D01*
X30880951Y-25526247D02*
X30690475Y-25526247D01*
X31309523Y-25954819D02*
X31309523Y-24954819D01*
X31309523Y-24954819D02*
X31880951Y-25954819D01*
X31880951Y-25954819D02*
X31880951Y-24954819D01*
X32357142Y-25954819D02*
X32357142Y-24954819D01*
X32357142Y-24954819D02*
X32595237Y-24954819D01*
X32595237Y-24954819D02*
X32738094Y-25002438D01*
X32738094Y-25002438D02*
X32833332Y-25097676D01*
X32833332Y-25097676D02*
X32880951Y-25192914D01*
X32880951Y-25192914D02*
X32928570Y-25383390D01*
X32928570Y-25383390D02*
X32928570Y-25526247D01*
X32928570Y-25526247D02*
X32880951Y-25716723D01*
X32880951Y-25716723D02*
X32833332Y-25811961D01*
X32833332Y-25811961D02*
X32738094Y-25907200D01*
X32738094Y-25907200D02*
X32595237Y-25954819D01*
X32595237Y-25954819D02*
X32357142Y-25954819D01*
X34119047Y-25431009D02*
X34880952Y-25431009D01*
X34880952Y-25716723D02*
X34119047Y-25716723D01*
X36071428Y-25907200D02*
X36214285Y-25954819D01*
X36214285Y-25954819D02*
X36452380Y-25954819D01*
X36452380Y-25954819D02*
X36547618Y-25907200D01*
X36547618Y-25907200D02*
X36595237Y-25859580D01*
X36595237Y-25859580D02*
X36642856Y-25764342D01*
X36642856Y-25764342D02*
X36642856Y-25669104D01*
X36642856Y-25669104D02*
X36595237Y-25573866D01*
X36595237Y-25573866D02*
X36547618Y-25526247D01*
X36547618Y-25526247D02*
X36452380Y-25478628D01*
X36452380Y-25478628D02*
X36261904Y-25431009D01*
X36261904Y-25431009D02*
X36166666Y-25383390D01*
X36166666Y-25383390D02*
X36119047Y-25335771D01*
X36119047Y-25335771D02*
X36071428Y-25240533D01*
X36071428Y-25240533D02*
X36071428Y-25145295D01*
X36071428Y-25145295D02*
X36119047Y-25050057D01*
X36119047Y-25050057D02*
X36166666Y-25002438D01*
X36166666Y-25002438D02*
X36261904Y-24954819D01*
X36261904Y-24954819D02*
X36499999Y-24954819D01*
X36499999Y-24954819D02*
X36642856Y-25002438D01*
X37261904Y-24954819D02*
X37452380Y-24954819D01*
X37452380Y-24954819D02*
X37547618Y-25002438D01*
X37547618Y-25002438D02*
X37642856Y-25097676D01*
X37642856Y-25097676D02*
X37690475Y-25288152D01*
X37690475Y-25288152D02*
X37690475Y-25621485D01*
X37690475Y-25621485D02*
X37642856Y-25811961D01*
X37642856Y-25811961D02*
X37547618Y-25907200D01*
X37547618Y-25907200D02*
X37452380Y-25954819D01*
X37452380Y-25954819D02*
X37261904Y-25954819D01*
X37261904Y-25954819D02*
X37166666Y-25907200D01*
X37166666Y-25907200D02*
X37071428Y-25811961D01*
X37071428Y-25811961D02*
X37023809Y-25621485D01*
X37023809Y-25621485D02*
X37023809Y-25288152D01*
X37023809Y-25288152D02*
X37071428Y-25097676D01*
X37071428Y-25097676D02*
X37166666Y-25002438D01*
X37166666Y-25002438D02*
X37261904Y-24954819D01*
X38595237Y-25954819D02*
X38119047Y-25954819D01*
X38119047Y-25954819D02*
X38119047Y-24954819D01*
X38928571Y-25954819D02*
X38928571Y-24954819D01*
X39404761Y-25954819D02*
X39404761Y-24954819D01*
X39404761Y-24954819D02*
X39642856Y-24954819D01*
X39642856Y-24954819D02*
X39785713Y-25002438D01*
X39785713Y-25002438D02*
X39880951Y-25097676D01*
X39880951Y-25097676D02*
X39928570Y-25192914D01*
X39928570Y-25192914D02*
X39976189Y-25383390D01*
X39976189Y-25383390D02*
X39976189Y-25526247D01*
X39976189Y-25526247D02*
X39928570Y-25716723D01*
X39928570Y-25716723D02*
X39880951Y-25811961D01*
X39880951Y-25811961D02*
X39785713Y-25907200D01*
X39785713Y-25907200D02*
X39642856Y-25954819D01*
X39642856Y-25954819D02*
X39404761Y-25954819D01*
X41166666Y-25954819D02*
X41166666Y-24954819D01*
X41166666Y-24954819D02*
X41547618Y-24954819D01*
X41547618Y-24954819D02*
X41642856Y-25002438D01*
X41642856Y-25002438D02*
X41690475Y-25050057D01*
X41690475Y-25050057D02*
X41738094Y-25145295D01*
X41738094Y-25145295D02*
X41738094Y-25288152D01*
X41738094Y-25288152D02*
X41690475Y-25383390D01*
X41690475Y-25383390D02*
X41642856Y-25431009D01*
X41642856Y-25431009D02*
X41547618Y-25478628D01*
X41547618Y-25478628D02*
X41166666Y-25478628D01*
X42642856Y-25954819D02*
X42166666Y-25954819D01*
X42166666Y-25954819D02*
X42166666Y-24954819D01*
X42928571Y-25669104D02*
X43404761Y-25669104D01*
X42833333Y-25954819D02*
X43166666Y-24954819D01*
X43166666Y-24954819D02*
X43499999Y-25954819D01*
X43833333Y-25954819D02*
X43833333Y-24954819D01*
X43833333Y-24954819D02*
X44404761Y-25954819D01*
X44404761Y-25954819D02*
X44404761Y-24954819D01*
X44880952Y-25431009D02*
X45214285Y-25431009D01*
X45357142Y-25954819D02*
X44880952Y-25954819D01*
X44880952Y-25954819D02*
X44880952Y-24954819D01*
X44880952Y-24954819D02*
X45357142Y-24954819D01*
X46738095Y-24954819D02*
X46928571Y-24954819D01*
X46928571Y-24954819D02*
X47023809Y-25002438D01*
X47023809Y-25002438D02*
X47119047Y-25097676D01*
X47119047Y-25097676D02*
X47166666Y-25288152D01*
X47166666Y-25288152D02*
X47166666Y-25621485D01*
X47166666Y-25621485D02*
X47119047Y-25811961D01*
X47119047Y-25811961D02*
X47023809Y-25907200D01*
X47023809Y-25907200D02*
X46928571Y-25954819D01*
X46928571Y-25954819D02*
X46738095Y-25954819D01*
X46738095Y-25954819D02*
X46642857Y-25907200D01*
X46642857Y-25907200D02*
X46547619Y-25811961D01*
X46547619Y-25811961D02*
X46500000Y-25621485D01*
X46500000Y-25621485D02*
X46500000Y-25288152D01*
X46500000Y-25288152D02*
X46547619Y-25097676D01*
X46547619Y-25097676D02*
X46642857Y-25002438D01*
X46642857Y-25002438D02*
X46738095Y-24954819D01*
X47595238Y-25954819D02*
X47595238Y-24954819D01*
X47595238Y-24954819D02*
X48166666Y-25954819D01*
X48166666Y-25954819D02*
X48166666Y-24954819D01*
X49738095Y-25431009D02*
X49880952Y-25478628D01*
X49880952Y-25478628D02*
X49928571Y-25526247D01*
X49928571Y-25526247D02*
X49976190Y-25621485D01*
X49976190Y-25621485D02*
X49976190Y-25764342D01*
X49976190Y-25764342D02*
X49928571Y-25859580D01*
X49928571Y-25859580D02*
X49880952Y-25907200D01*
X49880952Y-25907200D02*
X49785714Y-25954819D01*
X49785714Y-25954819D02*
X49404762Y-25954819D01*
X49404762Y-25954819D02*
X49404762Y-24954819D01*
X49404762Y-24954819D02*
X49738095Y-24954819D01*
X49738095Y-24954819D02*
X49833333Y-25002438D01*
X49833333Y-25002438D02*
X49880952Y-25050057D01*
X49880952Y-25050057D02*
X49928571Y-25145295D01*
X49928571Y-25145295D02*
X49928571Y-25240533D01*
X49928571Y-25240533D02*
X49880952Y-25335771D01*
X49880952Y-25335771D02*
X49833333Y-25383390D01*
X49833333Y-25383390D02*
X49738095Y-25431009D01*
X49738095Y-25431009D02*
X49404762Y-25431009D01*
X50595238Y-24954819D02*
X50785714Y-24954819D01*
X50785714Y-24954819D02*
X50880952Y-25002438D01*
X50880952Y-25002438D02*
X50976190Y-25097676D01*
X50976190Y-25097676D02*
X51023809Y-25288152D01*
X51023809Y-25288152D02*
X51023809Y-25621485D01*
X51023809Y-25621485D02*
X50976190Y-25811961D01*
X50976190Y-25811961D02*
X50880952Y-25907200D01*
X50880952Y-25907200D02*
X50785714Y-25954819D01*
X50785714Y-25954819D02*
X50595238Y-25954819D01*
X50595238Y-25954819D02*
X50500000Y-25907200D01*
X50500000Y-25907200D02*
X50404762Y-25811961D01*
X50404762Y-25811961D02*
X50357143Y-25621485D01*
X50357143Y-25621485D02*
X50357143Y-25288152D01*
X50357143Y-25288152D02*
X50404762Y-25097676D01*
X50404762Y-25097676D02*
X50500000Y-25002438D01*
X50500000Y-25002438D02*
X50595238Y-24954819D01*
X51309524Y-24954819D02*
X51880952Y-24954819D01*
X51595238Y-25954819D02*
X51595238Y-24954819D01*
X52071429Y-24954819D02*
X52642857Y-24954819D01*
X52357143Y-25954819D02*
X52357143Y-24954819D01*
X53166667Y-24954819D02*
X53357143Y-24954819D01*
X53357143Y-24954819D02*
X53452381Y-25002438D01*
X53452381Y-25002438D02*
X53547619Y-25097676D01*
X53547619Y-25097676D02*
X53595238Y-25288152D01*
X53595238Y-25288152D02*
X53595238Y-25621485D01*
X53595238Y-25621485D02*
X53547619Y-25811961D01*
X53547619Y-25811961D02*
X53452381Y-25907200D01*
X53452381Y-25907200D02*
X53357143Y-25954819D01*
X53357143Y-25954819D02*
X53166667Y-25954819D01*
X53166667Y-25954819D02*
X53071429Y-25907200D01*
X53071429Y-25907200D02*
X52976191Y-25811961D01*
X52976191Y-25811961D02*
X52928572Y-25621485D01*
X52928572Y-25621485D02*
X52928572Y-25288152D01*
X52928572Y-25288152D02*
X52976191Y-25097676D01*
X52976191Y-25097676D02*
X53071429Y-25002438D01*
X53071429Y-25002438D02*
X53166667Y-24954819D01*
X54023810Y-25954819D02*
X54023810Y-24954819D01*
X54023810Y-24954819D02*
X54357143Y-25669104D01*
X54357143Y-25669104D02*
X54690476Y-24954819D01*
X54690476Y-24954819D02*
X54690476Y-25954819D01*
X29523807Y-28454819D02*
X29047617Y-28454819D01*
X29047617Y-28454819D02*
X29047617Y-27454819D01*
X29857141Y-27931009D02*
X30190474Y-27931009D01*
X30333331Y-28454819D02*
X29857141Y-28454819D01*
X29857141Y-28454819D02*
X29857141Y-27454819D01*
X29857141Y-27454819D02*
X30333331Y-27454819D01*
X31095236Y-27931009D02*
X30761903Y-27931009D01*
X30761903Y-28454819D02*
X30761903Y-27454819D01*
X30761903Y-27454819D02*
X31238093Y-27454819D01*
X31476189Y-27454819D02*
X32047617Y-27454819D01*
X31761903Y-28454819D02*
X31761903Y-27454819D01*
X33428570Y-27454819D02*
X33428570Y-28169104D01*
X33428570Y-28169104D02*
X33380951Y-28311961D01*
X33380951Y-28311961D02*
X33285713Y-28407200D01*
X33285713Y-28407200D02*
X33142856Y-28454819D01*
X33142856Y-28454819D02*
X33047618Y-28454819D01*
X33857142Y-28407200D02*
X33999999Y-28454819D01*
X33999999Y-28454819D02*
X34238094Y-28454819D01*
X34238094Y-28454819D02*
X34333332Y-28407200D01*
X34333332Y-28407200D02*
X34380951Y-28359580D01*
X34380951Y-28359580D02*
X34428570Y-28264342D01*
X34428570Y-28264342D02*
X34428570Y-28169104D01*
X34428570Y-28169104D02*
X34380951Y-28073866D01*
X34380951Y-28073866D02*
X34333332Y-28026247D01*
X34333332Y-28026247D02*
X34238094Y-27978628D01*
X34238094Y-27978628D02*
X34047618Y-27931009D01*
X34047618Y-27931009D02*
X33952380Y-27883390D01*
X33952380Y-27883390D02*
X33904761Y-27835771D01*
X33904761Y-27835771D02*
X33857142Y-27740533D01*
X33857142Y-27740533D02*
X33857142Y-27645295D01*
X33857142Y-27645295D02*
X33904761Y-27550057D01*
X33904761Y-27550057D02*
X33952380Y-27502438D01*
X33952380Y-27502438D02*
X34047618Y-27454819D01*
X34047618Y-27454819D02*
X34285713Y-27454819D01*
X34285713Y-27454819D02*
X34428570Y-27502438D01*
X34714285Y-27454819D02*
X35285713Y-27454819D01*
X34999999Y-28454819D02*
X34999999Y-27454819D01*
X36380952Y-27931009D02*
X37142857Y-27931009D01*
X37142857Y-28216723D02*
X36380952Y-28216723D01*
X38380952Y-28454819D02*
X38380952Y-27454819D01*
X38380952Y-27454819D02*
X38761904Y-27454819D01*
X38761904Y-27454819D02*
X38857142Y-27502438D01*
X38857142Y-27502438D02*
X38904761Y-27550057D01*
X38904761Y-27550057D02*
X38952380Y-27645295D01*
X38952380Y-27645295D02*
X38952380Y-27788152D01*
X38952380Y-27788152D02*
X38904761Y-27883390D01*
X38904761Y-27883390D02*
X38857142Y-27931009D01*
X38857142Y-27931009D02*
X38761904Y-27978628D01*
X38761904Y-27978628D02*
X38380952Y-27978628D01*
X39571428Y-27454819D02*
X39761904Y-27454819D01*
X39761904Y-27454819D02*
X39857142Y-27502438D01*
X39857142Y-27502438D02*
X39952380Y-27597676D01*
X39952380Y-27597676D02*
X39999999Y-27788152D01*
X39999999Y-27788152D02*
X39999999Y-28121485D01*
X39999999Y-28121485D02*
X39952380Y-28311961D01*
X39952380Y-28311961D02*
X39857142Y-28407200D01*
X39857142Y-28407200D02*
X39761904Y-28454819D01*
X39761904Y-28454819D02*
X39571428Y-28454819D01*
X39571428Y-28454819D02*
X39476190Y-28407200D01*
X39476190Y-28407200D02*
X39380952Y-28311961D01*
X39380952Y-28311961D02*
X39333333Y-28121485D01*
X39333333Y-28121485D02*
X39333333Y-27788152D01*
X39333333Y-27788152D02*
X39380952Y-27597676D01*
X39380952Y-27597676D02*
X39476190Y-27502438D01*
X39476190Y-27502438D02*
X39571428Y-27454819D01*
X40333333Y-27454819D02*
X40571428Y-28454819D01*
X40571428Y-28454819D02*
X40761904Y-27740533D01*
X40761904Y-27740533D02*
X40952380Y-28454819D01*
X40952380Y-28454819D02*
X41190476Y-27454819D01*
X41571428Y-27931009D02*
X41904761Y-27931009D01*
X42047618Y-28454819D02*
X41571428Y-28454819D01*
X41571428Y-28454819D02*
X41571428Y-27454819D01*
X41571428Y-27454819D02*
X42047618Y-27454819D01*
X43047618Y-28454819D02*
X42714285Y-27978628D01*
X42476190Y-28454819D02*
X42476190Y-27454819D01*
X42476190Y-27454819D02*
X42857142Y-27454819D01*
X42857142Y-27454819D02*
X42952380Y-27502438D01*
X42952380Y-27502438D02*
X42999999Y-27550057D01*
X42999999Y-27550057D02*
X43047618Y-27645295D01*
X43047618Y-27645295D02*
X43047618Y-27788152D01*
X43047618Y-27788152D02*
X42999999Y-27883390D01*
X42999999Y-27883390D02*
X42952380Y-27931009D01*
X42952380Y-27931009D02*
X42857142Y-27978628D01*
X42857142Y-27978628D02*
X42476190Y-27978628D01*
X44428571Y-27454819D02*
X44619047Y-27454819D01*
X44619047Y-27454819D02*
X44714285Y-27502438D01*
X44714285Y-27502438D02*
X44809523Y-27597676D01*
X44809523Y-27597676D02*
X44857142Y-27788152D01*
X44857142Y-27788152D02*
X44857142Y-28121485D01*
X44857142Y-28121485D02*
X44809523Y-28311961D01*
X44809523Y-28311961D02*
X44714285Y-28407200D01*
X44714285Y-28407200D02*
X44619047Y-28454819D01*
X44619047Y-28454819D02*
X44428571Y-28454819D01*
X44428571Y-28454819D02*
X44333333Y-28407200D01*
X44333333Y-28407200D02*
X44238095Y-28311961D01*
X44238095Y-28311961D02*
X44190476Y-28121485D01*
X44190476Y-28121485D02*
X44190476Y-27788152D01*
X44190476Y-27788152D02*
X44238095Y-27597676D01*
X44238095Y-27597676D02*
X44333333Y-27502438D01*
X44333333Y-27502438D02*
X44428571Y-27454819D01*
X45285714Y-28454819D02*
X45285714Y-27454819D01*
X45285714Y-27454819D02*
X45857142Y-28454819D01*
X45857142Y-28454819D02*
X45857142Y-27454819D01*
X46809523Y-28454819D02*
X46333333Y-28454819D01*
X46333333Y-28454819D02*
X46333333Y-27454819D01*
X47333333Y-27978628D02*
X47333333Y-28454819D01*
X47000000Y-27454819D02*
X47333333Y-27978628D01*
X47333333Y-27978628D02*
X47666666Y-27454819D01*
X49047619Y-28835771D02*
X49000000Y-28788152D01*
X49000000Y-28788152D02*
X48904762Y-28645295D01*
X48904762Y-28645295D02*
X48857143Y-28550057D01*
X48857143Y-28550057D02*
X48809524Y-28407200D01*
X48809524Y-28407200D02*
X48761905Y-28169104D01*
X48761905Y-28169104D02*
X48761905Y-27978628D01*
X48761905Y-27978628D02*
X48809524Y-27740533D01*
X48809524Y-27740533D02*
X48857143Y-27597676D01*
X48857143Y-27597676D02*
X48904762Y-27502438D01*
X48904762Y-27502438D02*
X49000000Y-27359580D01*
X49000000Y-27359580D02*
X49047619Y-27311961D01*
X49428572Y-28454819D02*
X49428572Y-27454819D01*
X49428572Y-27454819D02*
X50000000Y-28454819D01*
X50000000Y-28454819D02*
X50000000Y-27454819D01*
X50666667Y-27454819D02*
X50857143Y-27454819D01*
X50857143Y-27454819D02*
X50952381Y-27502438D01*
X50952381Y-27502438D02*
X51047619Y-27597676D01*
X51047619Y-27597676D02*
X51095238Y-27788152D01*
X51095238Y-27788152D02*
X51095238Y-28121485D01*
X51095238Y-28121485D02*
X51047619Y-28311961D01*
X51047619Y-28311961D02*
X50952381Y-28407200D01*
X50952381Y-28407200D02*
X50857143Y-28454819D01*
X50857143Y-28454819D02*
X50666667Y-28454819D01*
X50666667Y-28454819D02*
X50571429Y-28407200D01*
X50571429Y-28407200D02*
X50476191Y-28311961D01*
X50476191Y-28311961D02*
X50428572Y-28121485D01*
X50428572Y-28121485D02*
X50428572Y-27788152D01*
X50428572Y-27788152D02*
X50476191Y-27597676D01*
X50476191Y-27597676D02*
X50571429Y-27502438D01*
X50571429Y-27502438D02*
X50666667Y-27454819D01*
X52285715Y-28454819D02*
X52285715Y-27454819D01*
X52285715Y-27454819D02*
X52523810Y-27454819D01*
X52523810Y-27454819D02*
X52666667Y-27502438D01*
X52666667Y-27502438D02*
X52761905Y-27597676D01*
X52761905Y-27597676D02*
X52809524Y-27692914D01*
X52809524Y-27692914D02*
X52857143Y-27883390D01*
X52857143Y-27883390D02*
X52857143Y-28026247D01*
X52857143Y-28026247D02*
X52809524Y-28216723D01*
X52809524Y-28216723D02*
X52761905Y-28311961D01*
X52761905Y-28311961D02*
X52666667Y-28407200D01*
X52666667Y-28407200D02*
X52523810Y-28454819D01*
X52523810Y-28454819D02*
X52285715Y-28454819D01*
X53238096Y-28169104D02*
X53714286Y-28169104D01*
X53142858Y-28454819D02*
X53476191Y-27454819D01*
X53476191Y-27454819D02*
X53809524Y-28454819D01*
X54000001Y-27454819D02*
X54571429Y-27454819D01*
X54285715Y-28454819D02*
X54285715Y-27454819D01*
X54857144Y-28169104D02*
X55333334Y-28169104D01*
X54761906Y-28454819D02*
X55095239Y-27454819D01*
X55095239Y-27454819D02*
X55428572Y-28454819D01*
X55666668Y-28835771D02*
X55714287Y-28788152D01*
X55714287Y-28788152D02*
X55809525Y-28645295D01*
X55809525Y-28645295D02*
X55857144Y-28550057D01*
X55857144Y-28550057D02*
X55904763Y-28407200D01*
X55904763Y-28407200D02*
X55952382Y-28169104D01*
X55952382Y-28169104D02*
X55952382Y-27978628D01*
X55952382Y-27978628D02*
X55904763Y-27740533D01*
X55904763Y-27740533D02*
X55857144Y-27597676D01*
X55857144Y-27597676D02*
X55809525Y-27502438D01*
X55809525Y-27502438D02*
X55714287Y-27359580D01*
X55714287Y-27359580D02*
X55666668Y-27311961D01*
X58642857Y-19207200D02*
X58785714Y-19254819D01*
X58785714Y-19254819D02*
X59023809Y-19254819D01*
X59023809Y-19254819D02*
X59119047Y-19207200D01*
X59119047Y-19207200D02*
X59166666Y-19159580D01*
X59166666Y-19159580D02*
X59214285Y-19064342D01*
X59214285Y-19064342D02*
X59214285Y-18969104D01*
X59214285Y-18969104D02*
X59166666Y-18873866D01*
X59166666Y-18873866D02*
X59119047Y-18826247D01*
X59119047Y-18826247D02*
X59023809Y-18778628D01*
X59023809Y-18778628D02*
X58833333Y-18731009D01*
X58833333Y-18731009D02*
X58738095Y-18683390D01*
X58738095Y-18683390D02*
X58690476Y-18635771D01*
X58690476Y-18635771D02*
X58642857Y-18540533D01*
X58642857Y-18540533D02*
X58642857Y-18445295D01*
X58642857Y-18445295D02*
X58690476Y-18350057D01*
X58690476Y-18350057D02*
X58738095Y-18302438D01*
X58738095Y-18302438D02*
X58833333Y-18254819D01*
X58833333Y-18254819D02*
X59071428Y-18254819D01*
X59071428Y-18254819D02*
X59214285Y-18302438D01*
X60166666Y-19254819D02*
X59595238Y-19254819D01*
X59880952Y-19254819D02*
X59880952Y-18254819D01*
X59880952Y-18254819D02*
X59785714Y-18397676D01*
X59785714Y-18397676D02*
X59690476Y-18492914D01*
X59690476Y-18492914D02*
X59595238Y-18540533D01*
X61880952Y-18302438D02*
X61785714Y-18254819D01*
X61785714Y-18254819D02*
X61642857Y-18254819D01*
X61642857Y-18254819D02*
X61500000Y-18302438D01*
X61500000Y-18302438D02*
X61404762Y-18397676D01*
X61404762Y-18397676D02*
X61357143Y-18492914D01*
X61357143Y-18492914D02*
X61309524Y-18683390D01*
X61309524Y-18683390D02*
X61309524Y-18826247D01*
X61309524Y-18826247D02*
X61357143Y-19016723D01*
X61357143Y-19016723D02*
X61404762Y-19111961D01*
X61404762Y-19111961D02*
X61500000Y-19207200D01*
X61500000Y-19207200D02*
X61642857Y-19254819D01*
X61642857Y-19254819D02*
X61738095Y-19254819D01*
X61738095Y-19254819D02*
X61880952Y-19207200D01*
X61880952Y-19207200D02*
X61928571Y-19159580D01*
X61928571Y-19159580D02*
X61928571Y-18826247D01*
X61928571Y-18826247D02*
X61738095Y-18826247D01*
X62357143Y-19254819D02*
X62357143Y-18254819D01*
X62357143Y-18254819D02*
X62738095Y-18254819D01*
X62738095Y-18254819D02*
X62833333Y-18302438D01*
X62833333Y-18302438D02*
X62880952Y-18350057D01*
X62880952Y-18350057D02*
X62928571Y-18445295D01*
X62928571Y-18445295D02*
X62928571Y-18588152D01*
X62928571Y-18588152D02*
X62880952Y-18683390D01*
X62880952Y-18683390D02*
X62833333Y-18731009D01*
X62833333Y-18731009D02*
X62738095Y-18778628D01*
X62738095Y-18778628D02*
X62357143Y-18778628D01*
X63357143Y-19254819D02*
X63357143Y-18254819D01*
X64023809Y-18254819D02*
X64214285Y-18254819D01*
X64214285Y-18254819D02*
X64309523Y-18302438D01*
X64309523Y-18302438D02*
X64404761Y-18397676D01*
X64404761Y-18397676D02*
X64452380Y-18588152D01*
X64452380Y-18588152D02*
X64452380Y-18921485D01*
X64452380Y-18921485D02*
X64404761Y-19111961D01*
X64404761Y-19111961D02*
X64309523Y-19207200D01*
X64309523Y-19207200D02*
X64214285Y-19254819D01*
X64214285Y-19254819D02*
X64023809Y-19254819D01*
X64023809Y-19254819D02*
X63928571Y-19207200D01*
X63928571Y-19207200D02*
X63833333Y-19111961D01*
X63833333Y-19111961D02*
X63785714Y-18921485D01*
X63785714Y-18921485D02*
X63785714Y-18588152D01*
X63785714Y-18588152D02*
X63833333Y-18397676D01*
X63833333Y-18397676D02*
X63928571Y-18302438D01*
X63928571Y-18302438D02*
X64023809Y-18254819D01*
X65404761Y-19254819D02*
X64833333Y-19254819D01*
X65119047Y-19254819D02*
X65119047Y-18254819D01*
X65119047Y-18254819D02*
X65023809Y-18397676D01*
X65023809Y-18397676D02*
X64928571Y-18492914D01*
X64928571Y-18492914D02*
X64833333Y-18540533D01*
X65976190Y-18683390D02*
X65880952Y-18635771D01*
X65880952Y-18635771D02*
X65833333Y-18588152D01*
X65833333Y-18588152D02*
X65785714Y-18492914D01*
X65785714Y-18492914D02*
X65785714Y-18445295D01*
X65785714Y-18445295D02*
X65833333Y-18350057D01*
X65833333Y-18350057D02*
X65880952Y-18302438D01*
X65880952Y-18302438D02*
X65976190Y-18254819D01*
X65976190Y-18254819D02*
X66166666Y-18254819D01*
X66166666Y-18254819D02*
X66261904Y-18302438D01*
X66261904Y-18302438D02*
X66309523Y-18350057D01*
X66309523Y-18350057D02*
X66357142Y-18445295D01*
X66357142Y-18445295D02*
X66357142Y-18492914D01*
X66357142Y-18492914D02*
X66309523Y-18588152D01*
X66309523Y-18588152D02*
X66261904Y-18635771D01*
X66261904Y-18635771D02*
X66166666Y-18683390D01*
X66166666Y-18683390D02*
X65976190Y-18683390D01*
X65976190Y-18683390D02*
X65880952Y-18731009D01*
X65880952Y-18731009D02*
X65833333Y-18778628D01*
X65833333Y-18778628D02*
X65785714Y-18873866D01*
X65785714Y-18873866D02*
X65785714Y-19064342D01*
X65785714Y-19064342D02*
X65833333Y-19159580D01*
X65833333Y-19159580D02*
X65880952Y-19207200D01*
X65880952Y-19207200D02*
X65976190Y-19254819D01*
X65976190Y-19254819D02*
X66166666Y-19254819D01*
X66166666Y-19254819D02*
X66261904Y-19207200D01*
X66261904Y-19207200D02*
X66309523Y-19159580D01*
X66309523Y-19159580D02*
X66357142Y-19064342D01*
X66357142Y-19064342D02*
X66357142Y-18873866D01*
X66357142Y-18873866D02*
X66309523Y-18778628D01*
X66309523Y-18778628D02*
X66261904Y-18731009D01*
X66261904Y-18731009D02*
X66166666Y-18683390D01*
X58642857Y-33207199D02*
X58785714Y-33254818D01*
X58785714Y-33254818D02*
X59023809Y-33254818D01*
X59023809Y-33254818D02*
X59119047Y-33207199D01*
X59119047Y-33207199D02*
X59166666Y-33159579D01*
X59166666Y-33159579D02*
X59214285Y-33064341D01*
X59214285Y-33064341D02*
X59214285Y-32969103D01*
X59214285Y-32969103D02*
X59166666Y-32873865D01*
X59166666Y-32873865D02*
X59119047Y-32826246D01*
X59119047Y-32826246D02*
X59023809Y-32778627D01*
X59023809Y-32778627D02*
X58833333Y-32731008D01*
X58833333Y-32731008D02*
X58738095Y-32683389D01*
X58738095Y-32683389D02*
X58690476Y-32635770D01*
X58690476Y-32635770D02*
X58642857Y-32540532D01*
X58642857Y-32540532D02*
X58642857Y-32445294D01*
X58642857Y-32445294D02*
X58690476Y-32350056D01*
X58690476Y-32350056D02*
X58738095Y-32302437D01*
X58738095Y-32302437D02*
X58833333Y-32254818D01*
X58833333Y-32254818D02*
X59071428Y-32254818D01*
X59071428Y-32254818D02*
X59214285Y-32302437D01*
X60071428Y-32588151D02*
X60071428Y-33254818D01*
X59833333Y-32207199D02*
X59595238Y-32921484D01*
X59595238Y-32921484D02*
X60214285Y-32921484D01*
X61880952Y-32302437D02*
X61785714Y-32254818D01*
X61785714Y-32254818D02*
X61642857Y-32254818D01*
X61642857Y-32254818D02*
X61500000Y-32302437D01*
X61500000Y-32302437D02*
X61404762Y-32397675D01*
X61404762Y-32397675D02*
X61357143Y-32492913D01*
X61357143Y-32492913D02*
X61309524Y-32683389D01*
X61309524Y-32683389D02*
X61309524Y-32826246D01*
X61309524Y-32826246D02*
X61357143Y-33016722D01*
X61357143Y-33016722D02*
X61404762Y-33111960D01*
X61404762Y-33111960D02*
X61500000Y-33207199D01*
X61500000Y-33207199D02*
X61642857Y-33254818D01*
X61642857Y-33254818D02*
X61738095Y-33254818D01*
X61738095Y-33254818D02*
X61880952Y-33207199D01*
X61880952Y-33207199D02*
X61928571Y-33159579D01*
X61928571Y-33159579D02*
X61928571Y-32826246D01*
X61928571Y-32826246D02*
X61738095Y-32826246D01*
X62357143Y-33254818D02*
X62357143Y-32254818D01*
X62357143Y-32254818D02*
X62738095Y-32254818D01*
X62738095Y-32254818D02*
X62833333Y-32302437D01*
X62833333Y-32302437D02*
X62880952Y-32350056D01*
X62880952Y-32350056D02*
X62928571Y-32445294D01*
X62928571Y-32445294D02*
X62928571Y-32588151D01*
X62928571Y-32588151D02*
X62880952Y-32683389D01*
X62880952Y-32683389D02*
X62833333Y-32731008D01*
X62833333Y-32731008D02*
X62738095Y-32778627D01*
X62738095Y-32778627D02*
X62357143Y-32778627D01*
X63357143Y-33254818D02*
X63357143Y-32254818D01*
X64023809Y-32254818D02*
X64214285Y-32254818D01*
X64214285Y-32254818D02*
X64309523Y-32302437D01*
X64309523Y-32302437D02*
X64404761Y-32397675D01*
X64404761Y-32397675D02*
X64452380Y-32588151D01*
X64452380Y-32588151D02*
X64452380Y-32921484D01*
X64452380Y-32921484D02*
X64404761Y-33111960D01*
X64404761Y-33111960D02*
X64309523Y-33207199D01*
X64309523Y-33207199D02*
X64214285Y-33254818D01*
X64214285Y-33254818D02*
X64023809Y-33254818D01*
X64023809Y-33254818D02*
X63928571Y-33207199D01*
X63928571Y-33207199D02*
X63833333Y-33111960D01*
X63833333Y-33111960D02*
X63785714Y-32921484D01*
X63785714Y-32921484D02*
X63785714Y-32588151D01*
X63785714Y-32588151D02*
X63833333Y-32397675D01*
X63833333Y-32397675D02*
X63928571Y-32302437D01*
X63928571Y-32302437D02*
X64023809Y-32254818D01*
X64833333Y-32350056D02*
X64880952Y-32302437D01*
X64880952Y-32302437D02*
X64976190Y-32254818D01*
X64976190Y-32254818D02*
X65214285Y-32254818D01*
X65214285Y-32254818D02*
X65309523Y-32302437D01*
X65309523Y-32302437D02*
X65357142Y-32350056D01*
X65357142Y-32350056D02*
X65404761Y-32445294D01*
X65404761Y-32445294D02*
X65404761Y-32540532D01*
X65404761Y-32540532D02*
X65357142Y-32683389D01*
X65357142Y-32683389D02*
X64785714Y-33254818D01*
X64785714Y-33254818D02*
X65404761Y-33254818D01*
X66357142Y-33254818D02*
X65785714Y-33254818D01*
X66071428Y-33254818D02*
X66071428Y-32254818D01*
X66071428Y-32254818D02*
X65976190Y-32397675D01*
X65976190Y-32397675D02*
X65880952Y-32492913D01*
X65880952Y-32492913D02*
X65785714Y-32540532D01*
X58642857Y-47207200D02*
X58785714Y-47254819D01*
X58785714Y-47254819D02*
X59023809Y-47254819D01*
X59023809Y-47254819D02*
X59119047Y-47207200D01*
X59119047Y-47207200D02*
X59166666Y-47159580D01*
X59166666Y-47159580D02*
X59214285Y-47064342D01*
X59214285Y-47064342D02*
X59214285Y-46969104D01*
X59214285Y-46969104D02*
X59166666Y-46873866D01*
X59166666Y-46873866D02*
X59119047Y-46826247D01*
X59119047Y-46826247D02*
X59023809Y-46778628D01*
X59023809Y-46778628D02*
X58833333Y-46731009D01*
X58833333Y-46731009D02*
X58738095Y-46683390D01*
X58738095Y-46683390D02*
X58690476Y-46635771D01*
X58690476Y-46635771D02*
X58642857Y-46540533D01*
X58642857Y-46540533D02*
X58642857Y-46445295D01*
X58642857Y-46445295D02*
X58690476Y-46350057D01*
X58690476Y-46350057D02*
X58738095Y-46302438D01*
X58738095Y-46302438D02*
X58833333Y-46254819D01*
X58833333Y-46254819D02*
X59071428Y-46254819D01*
X59071428Y-46254819D02*
X59214285Y-46302438D01*
X59595238Y-46350057D02*
X59642857Y-46302438D01*
X59642857Y-46302438D02*
X59738095Y-46254819D01*
X59738095Y-46254819D02*
X59976190Y-46254819D01*
X59976190Y-46254819D02*
X60071428Y-46302438D01*
X60071428Y-46302438D02*
X60119047Y-46350057D01*
X60119047Y-46350057D02*
X60166666Y-46445295D01*
X60166666Y-46445295D02*
X60166666Y-46540533D01*
X60166666Y-46540533D02*
X60119047Y-46683390D01*
X60119047Y-46683390D02*
X59547619Y-47254819D01*
X59547619Y-47254819D02*
X60166666Y-47254819D01*
X61880952Y-46302438D02*
X61785714Y-46254819D01*
X61785714Y-46254819D02*
X61642857Y-46254819D01*
X61642857Y-46254819D02*
X61500000Y-46302438D01*
X61500000Y-46302438D02*
X61404762Y-46397676D01*
X61404762Y-46397676D02*
X61357143Y-46492914D01*
X61357143Y-46492914D02*
X61309524Y-46683390D01*
X61309524Y-46683390D02*
X61309524Y-46826247D01*
X61309524Y-46826247D02*
X61357143Y-47016723D01*
X61357143Y-47016723D02*
X61404762Y-47111961D01*
X61404762Y-47111961D02*
X61500000Y-47207200D01*
X61500000Y-47207200D02*
X61642857Y-47254819D01*
X61642857Y-47254819D02*
X61738095Y-47254819D01*
X61738095Y-47254819D02*
X61880952Y-47207200D01*
X61880952Y-47207200D02*
X61928571Y-47159580D01*
X61928571Y-47159580D02*
X61928571Y-46826247D01*
X61928571Y-46826247D02*
X61738095Y-46826247D01*
X62357143Y-47254819D02*
X62357143Y-46254819D01*
X62357143Y-46254819D02*
X62738095Y-46254819D01*
X62738095Y-46254819D02*
X62833333Y-46302438D01*
X62833333Y-46302438D02*
X62880952Y-46350057D01*
X62880952Y-46350057D02*
X62928571Y-46445295D01*
X62928571Y-46445295D02*
X62928571Y-46588152D01*
X62928571Y-46588152D02*
X62880952Y-46683390D01*
X62880952Y-46683390D02*
X62833333Y-46731009D01*
X62833333Y-46731009D02*
X62738095Y-46778628D01*
X62738095Y-46778628D02*
X62357143Y-46778628D01*
X63357143Y-47254819D02*
X63357143Y-46254819D01*
X64023809Y-46254819D02*
X64214285Y-46254819D01*
X64214285Y-46254819D02*
X64309523Y-46302438D01*
X64309523Y-46302438D02*
X64404761Y-46397676D01*
X64404761Y-46397676D02*
X64452380Y-46588152D01*
X64452380Y-46588152D02*
X64452380Y-46921485D01*
X64452380Y-46921485D02*
X64404761Y-47111961D01*
X64404761Y-47111961D02*
X64309523Y-47207200D01*
X64309523Y-47207200D02*
X64214285Y-47254819D01*
X64214285Y-47254819D02*
X64023809Y-47254819D01*
X64023809Y-47254819D02*
X63928571Y-47207200D01*
X63928571Y-47207200D02*
X63833333Y-47111961D01*
X63833333Y-47111961D02*
X63785714Y-46921485D01*
X63785714Y-46921485D02*
X63785714Y-46588152D01*
X63785714Y-46588152D02*
X63833333Y-46397676D01*
X63833333Y-46397676D02*
X63928571Y-46302438D01*
X63928571Y-46302438D02*
X64023809Y-46254819D01*
X65404761Y-47254819D02*
X64833333Y-47254819D01*
X65119047Y-47254819D02*
X65119047Y-46254819D01*
X65119047Y-46254819D02*
X65023809Y-46397676D01*
X65023809Y-46397676D02*
X64928571Y-46492914D01*
X64928571Y-46492914D02*
X64833333Y-46540533D01*
X65738095Y-46254819D02*
X66357142Y-46254819D01*
X66357142Y-46254819D02*
X66023809Y-46635771D01*
X66023809Y-46635771D02*
X66166666Y-46635771D01*
X66166666Y-46635771D02*
X66261904Y-46683390D01*
X66261904Y-46683390D02*
X66309523Y-46731009D01*
X66309523Y-46731009D02*
X66357142Y-46826247D01*
X66357142Y-46826247D02*
X66357142Y-47064342D01*
X66357142Y-47064342D02*
X66309523Y-47159580D01*
X66309523Y-47159580D02*
X66261904Y-47207200D01*
X66261904Y-47207200D02*
X66166666Y-47254819D01*
X66166666Y-47254819D02*
X65880952Y-47254819D01*
X65880952Y-47254819D02*
X65785714Y-47207200D01*
X65785714Y-47207200D02*
X65738095Y-47159580D01*
X58642857Y-61207200D02*
X58785714Y-61254819D01*
X58785714Y-61254819D02*
X59023809Y-61254819D01*
X59023809Y-61254819D02*
X59119047Y-61207200D01*
X59119047Y-61207200D02*
X59166666Y-61159580D01*
X59166666Y-61159580D02*
X59214285Y-61064342D01*
X59214285Y-61064342D02*
X59214285Y-60969104D01*
X59214285Y-60969104D02*
X59166666Y-60873866D01*
X59166666Y-60873866D02*
X59119047Y-60826247D01*
X59119047Y-60826247D02*
X59023809Y-60778628D01*
X59023809Y-60778628D02*
X58833333Y-60731009D01*
X58833333Y-60731009D02*
X58738095Y-60683390D01*
X58738095Y-60683390D02*
X58690476Y-60635771D01*
X58690476Y-60635771D02*
X58642857Y-60540533D01*
X58642857Y-60540533D02*
X58642857Y-60445295D01*
X58642857Y-60445295D02*
X58690476Y-60350057D01*
X58690476Y-60350057D02*
X58738095Y-60302438D01*
X58738095Y-60302438D02*
X58833333Y-60254819D01*
X58833333Y-60254819D02*
X59071428Y-60254819D01*
X59071428Y-60254819D02*
X59214285Y-60302438D01*
X59547619Y-60254819D02*
X60166666Y-60254819D01*
X60166666Y-60254819D02*
X59833333Y-60635771D01*
X59833333Y-60635771D02*
X59976190Y-60635771D01*
X59976190Y-60635771D02*
X60071428Y-60683390D01*
X60071428Y-60683390D02*
X60119047Y-60731009D01*
X60119047Y-60731009D02*
X60166666Y-60826247D01*
X60166666Y-60826247D02*
X60166666Y-61064342D01*
X60166666Y-61064342D02*
X60119047Y-61159580D01*
X60119047Y-61159580D02*
X60071428Y-61207200D01*
X60071428Y-61207200D02*
X59976190Y-61254819D01*
X59976190Y-61254819D02*
X59690476Y-61254819D01*
X59690476Y-61254819D02*
X59595238Y-61207200D01*
X59595238Y-61207200D02*
X59547619Y-61159580D01*
X61880952Y-60302438D02*
X61785714Y-60254819D01*
X61785714Y-60254819D02*
X61642857Y-60254819D01*
X61642857Y-60254819D02*
X61500000Y-60302438D01*
X61500000Y-60302438D02*
X61404762Y-60397676D01*
X61404762Y-60397676D02*
X61357143Y-60492914D01*
X61357143Y-60492914D02*
X61309524Y-60683390D01*
X61309524Y-60683390D02*
X61309524Y-60826247D01*
X61309524Y-60826247D02*
X61357143Y-61016723D01*
X61357143Y-61016723D02*
X61404762Y-61111961D01*
X61404762Y-61111961D02*
X61500000Y-61207200D01*
X61500000Y-61207200D02*
X61642857Y-61254819D01*
X61642857Y-61254819D02*
X61738095Y-61254819D01*
X61738095Y-61254819D02*
X61880952Y-61207200D01*
X61880952Y-61207200D02*
X61928571Y-61159580D01*
X61928571Y-61159580D02*
X61928571Y-60826247D01*
X61928571Y-60826247D02*
X61738095Y-60826247D01*
X62357143Y-61254819D02*
X62357143Y-60254819D01*
X62357143Y-60254819D02*
X62738095Y-60254819D01*
X62738095Y-60254819D02*
X62833333Y-60302438D01*
X62833333Y-60302438D02*
X62880952Y-60350057D01*
X62880952Y-60350057D02*
X62928571Y-60445295D01*
X62928571Y-60445295D02*
X62928571Y-60588152D01*
X62928571Y-60588152D02*
X62880952Y-60683390D01*
X62880952Y-60683390D02*
X62833333Y-60731009D01*
X62833333Y-60731009D02*
X62738095Y-60778628D01*
X62738095Y-60778628D02*
X62357143Y-60778628D01*
X63357143Y-61254819D02*
X63357143Y-60254819D01*
X64023809Y-60254819D02*
X64214285Y-60254819D01*
X64214285Y-60254819D02*
X64309523Y-60302438D01*
X64309523Y-60302438D02*
X64404761Y-60397676D01*
X64404761Y-60397676D02*
X64452380Y-60588152D01*
X64452380Y-60588152D02*
X64452380Y-60921485D01*
X64452380Y-60921485D02*
X64404761Y-61111961D01*
X64404761Y-61111961D02*
X64309523Y-61207200D01*
X64309523Y-61207200D02*
X64214285Y-61254819D01*
X64214285Y-61254819D02*
X64023809Y-61254819D01*
X64023809Y-61254819D02*
X63928571Y-61207200D01*
X63928571Y-61207200D02*
X63833333Y-61111961D01*
X63833333Y-61111961D02*
X63785714Y-60921485D01*
X63785714Y-60921485D02*
X63785714Y-60588152D01*
X63785714Y-60588152D02*
X63833333Y-60397676D01*
X63833333Y-60397676D02*
X63928571Y-60302438D01*
X63928571Y-60302438D02*
X64023809Y-60254819D01*
X65404761Y-61254819D02*
X64833333Y-61254819D01*
X65119047Y-61254819D02*
X65119047Y-60254819D01*
X65119047Y-60254819D02*
X65023809Y-60397676D01*
X65023809Y-60397676D02*
X64928571Y-60492914D01*
X64928571Y-60492914D02*
X64833333Y-60540533D01*
X66023809Y-60254819D02*
X66119047Y-60254819D01*
X66119047Y-60254819D02*
X66214285Y-60302438D01*
X66214285Y-60302438D02*
X66261904Y-60350057D01*
X66261904Y-60350057D02*
X66309523Y-60445295D01*
X66309523Y-60445295D02*
X66357142Y-60635771D01*
X66357142Y-60635771D02*
X66357142Y-60873866D01*
X66357142Y-60873866D02*
X66309523Y-61064342D01*
X66309523Y-61064342D02*
X66261904Y-61159580D01*
X66261904Y-61159580D02*
X66214285Y-61207200D01*
X66214285Y-61207200D02*
X66119047Y-61254819D01*
X66119047Y-61254819D02*
X66023809Y-61254819D01*
X66023809Y-61254819D02*
X65928571Y-61207200D01*
X65928571Y-61207200D02*
X65880952Y-61159580D01*
X65880952Y-61159580D02*
X65833333Y-61064342D01*
X65833333Y-61064342D02*
X65785714Y-60873866D01*
X65785714Y-60873866D02*
X65785714Y-60635771D01*
X65785714Y-60635771D02*
X65833333Y-60445295D01*
X65833333Y-60445295D02*
X65880952Y-60350057D01*
X65880952Y-60350057D02*
X65928571Y-60302438D01*
X65928571Y-60302438D02*
X66023809Y-60254819D01*
X72119048Y-11573866D02*
X72880953Y-11573866D01*
X72500000Y-11954819D02*
X72500000Y-11192914D01*
X72238095Y-14454819D02*
X72238095Y-13454819D01*
X72238095Y-13454819D02*
X72476190Y-13454819D01*
X72476190Y-13454819D02*
X72619047Y-13502438D01*
X72619047Y-13502438D02*
X72714285Y-13597676D01*
X72714285Y-13597676D02*
X72761904Y-13692914D01*
X72761904Y-13692914D02*
X72809523Y-13883390D01*
X72809523Y-13883390D02*
X72809523Y-14026247D01*
X72809523Y-14026247D02*
X72761904Y-14216723D01*
X72761904Y-14216723D02*
X72714285Y-14311961D01*
X72714285Y-14311961D02*
X72619047Y-14407200D01*
X72619047Y-14407200D02*
X72476190Y-14454819D01*
X72476190Y-14454819D02*
X72238095Y-14454819D01*
X72761904Y-16002438D02*
X72666666Y-15954819D01*
X72666666Y-15954819D02*
X72523809Y-15954819D01*
X72523809Y-15954819D02*
X72380952Y-16002438D01*
X72380952Y-16002438D02*
X72285714Y-16097676D01*
X72285714Y-16097676D02*
X72238095Y-16192914D01*
X72238095Y-16192914D02*
X72190476Y-16383390D01*
X72190476Y-16383390D02*
X72190476Y-16526247D01*
X72190476Y-16526247D02*
X72238095Y-16716723D01*
X72238095Y-16716723D02*
X72285714Y-16811961D01*
X72285714Y-16811961D02*
X72380952Y-16907200D01*
X72380952Y-16907200D02*
X72523809Y-16954819D01*
X72523809Y-16954819D02*
X72619047Y-16954819D01*
X72619047Y-16954819D02*
X72761904Y-16907200D01*
X72761904Y-16907200D02*
X72809523Y-16859580D01*
X72809523Y-16859580D02*
X72809523Y-16526247D01*
X72809523Y-16526247D02*
X72619047Y-16526247D01*
X72119048Y-25573866D02*
X72880953Y-25573866D01*
X72500000Y-25954819D02*
X72500000Y-25192914D01*
X72238095Y-28454819D02*
X72238095Y-27454819D01*
X72238095Y-27454819D02*
X72476190Y-27454819D01*
X72476190Y-27454819D02*
X72619047Y-27502438D01*
X72619047Y-27502438D02*
X72714285Y-27597676D01*
X72714285Y-27597676D02*
X72761904Y-27692914D01*
X72761904Y-27692914D02*
X72809523Y-27883390D01*
X72809523Y-27883390D02*
X72809523Y-28026247D01*
X72809523Y-28026247D02*
X72761904Y-28216723D01*
X72761904Y-28216723D02*
X72714285Y-28311961D01*
X72714285Y-28311961D02*
X72619047Y-28407200D01*
X72619047Y-28407200D02*
X72476190Y-28454819D01*
X72476190Y-28454819D02*
X72238095Y-28454819D01*
X72761904Y-30002438D02*
X72666666Y-29954819D01*
X72666666Y-29954819D02*
X72523809Y-29954819D01*
X72523809Y-29954819D02*
X72380952Y-30002438D01*
X72380952Y-30002438D02*
X72285714Y-30097676D01*
X72285714Y-30097676D02*
X72238095Y-30192914D01*
X72238095Y-30192914D02*
X72190476Y-30383390D01*
X72190476Y-30383390D02*
X72190476Y-30526247D01*
X72190476Y-30526247D02*
X72238095Y-30716723D01*
X72238095Y-30716723D02*
X72285714Y-30811961D01*
X72285714Y-30811961D02*
X72380952Y-30907200D01*
X72380952Y-30907200D02*
X72523809Y-30954819D01*
X72523809Y-30954819D02*
X72619047Y-30954819D01*
X72619047Y-30954819D02*
X72761904Y-30907200D01*
X72761904Y-30907200D02*
X72809523Y-30859580D01*
X72809523Y-30859580D02*
X72809523Y-30526247D01*
X72809523Y-30526247D02*
X72619047Y-30526247D01*
X72119048Y-39573866D02*
X72880953Y-39573866D01*
X72500000Y-39954819D02*
X72500000Y-39192914D01*
X72238095Y-42454819D02*
X72238095Y-41454819D01*
X72238095Y-41454819D02*
X72476190Y-41454819D01*
X72476190Y-41454819D02*
X72619047Y-41502438D01*
X72619047Y-41502438D02*
X72714285Y-41597676D01*
X72714285Y-41597676D02*
X72761904Y-41692914D01*
X72761904Y-41692914D02*
X72809523Y-41883390D01*
X72809523Y-41883390D02*
X72809523Y-42026247D01*
X72809523Y-42026247D02*
X72761904Y-42216723D01*
X72761904Y-42216723D02*
X72714285Y-42311961D01*
X72714285Y-42311961D02*
X72619047Y-42407200D01*
X72619047Y-42407200D02*
X72476190Y-42454819D01*
X72476190Y-42454819D02*
X72238095Y-42454819D01*
X72761904Y-44002438D02*
X72666666Y-43954819D01*
X72666666Y-43954819D02*
X72523809Y-43954819D01*
X72523809Y-43954819D02*
X72380952Y-44002438D01*
X72380952Y-44002438D02*
X72285714Y-44097676D01*
X72285714Y-44097676D02*
X72238095Y-44192914D01*
X72238095Y-44192914D02*
X72190476Y-44383390D01*
X72190476Y-44383390D02*
X72190476Y-44526247D01*
X72190476Y-44526247D02*
X72238095Y-44716723D01*
X72238095Y-44716723D02*
X72285714Y-44811961D01*
X72285714Y-44811961D02*
X72380952Y-44907200D01*
X72380952Y-44907200D02*
X72523809Y-44954819D01*
X72523809Y-44954819D02*
X72619047Y-44954819D01*
X72619047Y-44954819D02*
X72761904Y-44907200D01*
X72761904Y-44907200D02*
X72809523Y-44859580D01*
X72809523Y-44859580D02*
X72809523Y-44526247D01*
X72809523Y-44526247D02*
X72619047Y-44526247D01*
X72119048Y-53573866D02*
X72880953Y-53573866D01*
X72500000Y-53954819D02*
X72500000Y-53192914D01*
X72238095Y-56454819D02*
X72238095Y-55454819D01*
X72238095Y-55454819D02*
X72476190Y-55454819D01*
X72476190Y-55454819D02*
X72619047Y-55502438D01*
X72619047Y-55502438D02*
X72714285Y-55597676D01*
X72714285Y-55597676D02*
X72761904Y-55692914D01*
X72761904Y-55692914D02*
X72809523Y-55883390D01*
X72809523Y-55883390D02*
X72809523Y-56026247D01*
X72809523Y-56026247D02*
X72761904Y-56216723D01*
X72761904Y-56216723D02*
X72714285Y-56311961D01*
X72714285Y-56311961D02*
X72619047Y-56407200D01*
X72619047Y-56407200D02*
X72476190Y-56454819D01*
X72476190Y-56454819D02*
X72238095Y-56454819D01*
X72761904Y-58002438D02*
X72666666Y-57954819D01*
X72666666Y-57954819D02*
X72523809Y-57954819D01*
X72523809Y-57954819D02*
X72380952Y-58002438D01*
X72380952Y-58002438D02*
X72285714Y-58097676D01*
X72285714Y-58097676D02*
X72238095Y-58192914D01*
X72238095Y-58192914D02*
X72190476Y-58383390D01*
X72190476Y-58383390D02*
X72190476Y-58526247D01*
X72190476Y-58526247D02*
X72238095Y-58716723D01*
X72238095Y-58716723D02*
X72285714Y-58811961D01*
X72285714Y-58811961D02*
X72380952Y-58907200D01*
X72380952Y-58907200D02*
X72523809Y-58954819D01*
X72523809Y-58954819D02*
X72619047Y-58954819D01*
X72619047Y-58954819D02*
X72761904Y-58907200D01*
X72761904Y-58907200D02*
X72809523Y-58859580D01*
X72809523Y-58859580D02*
X72809523Y-58526247D01*
X72809523Y-58526247D02*
X72619047Y-58526247D01*
D11*
X39388571Y-14910800D02*
X40531429Y-14910800D01*
X39960000Y-15482228D02*
X39960000Y-14339371D01*
X40571428Y-66610800D02*
X41714286Y-66610800D01*
X41142857Y-67182228D02*
X41142857Y-66039371D01*
X43142857Y-65682228D02*
X42428571Y-65682228D01*
X42428571Y-65682228D02*
X42357143Y-66396514D01*
X42357143Y-66396514D02*
X42428571Y-66325085D01*
X42428571Y-66325085D02*
X42571429Y-66253657D01*
X42571429Y-66253657D02*
X42928571Y-66253657D01*
X42928571Y-66253657D02*
X43071429Y-66325085D01*
X43071429Y-66325085D02*
X43142857Y-66396514D01*
X43142857Y-66396514D02*
X43214286Y-66539371D01*
X43214286Y-66539371D02*
X43214286Y-66896514D01*
X43214286Y-66896514D02*
X43142857Y-67039371D01*
X43142857Y-67039371D02*
X43071429Y-67110800D01*
X43071429Y-67110800D02*
X42928571Y-67182228D01*
X42928571Y-67182228D02*
X42571429Y-67182228D01*
X42571429Y-67182228D02*
X42428571Y-67110800D01*
X42428571Y-67110800D02*
X42357143Y-67039371D01*
X43642857Y-65682228D02*
X44142857Y-67182228D01*
X44142857Y-67182228D02*
X44642857Y-65682228D01*
X44468571Y-14910800D02*
X45611429Y-14910800D01*
X56071428Y-6110800D02*
X57214286Y-6110800D01*
X56642857Y-6682228D02*
X56642857Y-5539371D01*
X58642857Y-5182228D02*
X57928571Y-5182228D01*
X57928571Y-5182228D02*
X57857143Y-5896514D01*
X57857143Y-5896514D02*
X57928571Y-5825085D01*
X57928571Y-5825085D02*
X58071429Y-5753657D01*
X58071429Y-5753657D02*
X58428571Y-5753657D01*
X58428571Y-5753657D02*
X58571429Y-5825085D01*
X58571429Y-5825085D02*
X58642857Y-5896514D01*
X58642857Y-5896514D02*
X58714286Y-6039371D01*
X58714286Y-6039371D02*
X58714286Y-6396514D01*
X58714286Y-6396514D02*
X58642857Y-6539371D01*
X58642857Y-6539371D02*
X58571429Y-6610800D01*
X58571429Y-6610800D02*
X58428571Y-6682228D01*
X58428571Y-6682228D02*
X58071429Y-6682228D01*
X58071429Y-6682228D02*
X57928571Y-6610800D01*
X57928571Y-6610800D02*
X57857143Y-6539371D01*
X59142857Y-5182228D02*
X59642857Y-6682228D01*
X59642857Y-6682228D02*
X60142857Y-5182228D01*
X10610800Y-22928571D02*
X10610800Y-21785714D01*
X11182228Y-22357142D02*
X10039371Y-22357142D01*
X9682228Y-20357142D02*
X9682228Y-21071428D01*
X9682228Y-21071428D02*
X10396514Y-21142856D01*
X10396514Y-21142856D02*
X10325085Y-21071428D01*
X10325085Y-21071428D02*
X10253657Y-20928571D01*
X10253657Y-20928571D02*
X10253657Y-20571428D01*
X10253657Y-20571428D02*
X10325085Y-20428571D01*
X10325085Y-20428571D02*
X10396514Y-20357142D01*
X10396514Y-20357142D02*
X10539371Y-20285713D01*
X10539371Y-20285713D02*
X10896514Y-20285713D01*
X10896514Y-20285713D02*
X11039371Y-20357142D01*
X11039371Y-20357142D02*
X11110800Y-20428571D01*
X11110800Y-20428571D02*
X11182228Y-20571428D01*
X11182228Y-20571428D02*
X11182228Y-20928571D01*
X11182228Y-20928571D02*
X11110800Y-21071428D01*
X11110800Y-21071428D02*
X11039371Y-21142856D01*
X9682228Y-19857142D02*
X11182228Y-19357142D01*
X11182228Y-19357142D02*
X9682228Y-18857142D01*
X80910800Y-34928571D02*
X80910800Y-33785714D01*
X81482228Y-34357142D02*
X80339371Y-34357142D01*
X79982228Y-32357142D02*
X79982228Y-33071428D01*
X79982228Y-33071428D02*
X80696514Y-33142856D01*
X80696514Y-33142856D02*
X80625085Y-33071428D01*
X80625085Y-33071428D02*
X80553657Y-32928571D01*
X80553657Y-32928571D02*
X80553657Y-32571428D01*
X80553657Y-32571428D02*
X80625085Y-32428571D01*
X80625085Y-32428571D02*
X80696514Y-32357142D01*
X80696514Y-32357142D02*
X80839371Y-32285713D01*
X80839371Y-32285713D02*
X81196514Y-32285713D01*
X81196514Y-32285713D02*
X81339371Y-32357142D01*
X81339371Y-32357142D02*
X81410800Y-32428571D01*
X81410800Y-32428571D02*
X81482228Y-32571428D01*
X81482228Y-32571428D02*
X81482228Y-32928571D01*
X81482228Y-32928571D02*
X81410800Y-33071428D01*
X81410800Y-33071428D02*
X81339371Y-33142856D01*
X79982228Y-31857142D02*
X81482228Y-31357142D01*
X81482228Y-31357142D02*
X79982228Y-30857142D01*
D12*
X27085714Y-29961043D02*
X27085714Y-31256281D01*
X27085714Y-31256281D02*
X27009524Y-31408662D01*
X27009524Y-31408662D02*
X26933333Y-31484853D01*
X26933333Y-31484853D02*
X26780952Y-31561043D01*
X26780952Y-31561043D02*
X26552381Y-31561043D01*
X26552381Y-31561043D02*
X26400000Y-31484853D01*
X27085714Y-30951520D02*
X26933333Y-31027710D01*
X26933333Y-31027710D02*
X26628571Y-31027710D01*
X26628571Y-31027710D02*
X26476190Y-30951520D01*
X26476190Y-30951520D02*
X26400000Y-30875329D01*
X26400000Y-30875329D02*
X26323809Y-30722948D01*
X26323809Y-30722948D02*
X26323809Y-30265805D01*
X26323809Y-30265805D02*
X26400000Y-30113424D01*
X26400000Y-30113424D02*
X26476190Y-30037234D01*
X26476190Y-30037234D02*
X26628571Y-29961043D01*
X26628571Y-29961043D02*
X26933333Y-29961043D01*
X26933333Y-29961043D02*
X27085714Y-30037234D01*
X28609524Y-31027710D02*
X27847619Y-31027710D01*
X27847619Y-31027710D02*
X27847619Y-29427710D01*
X29142857Y-30189615D02*
X29676190Y-30189615D01*
X29904762Y-31027710D02*
X29142857Y-31027710D01*
X29142857Y-31027710D02*
X29142857Y-29427710D01*
X29142857Y-29427710D02*
X29904762Y-29427710D01*
X30590476Y-31027710D02*
X30590476Y-29427710D01*
X30590476Y-29427710D02*
X30971428Y-29427710D01*
X30971428Y-29427710D02*
X31200000Y-29503900D01*
X31200000Y-29503900D02*
X31352381Y-29656281D01*
X31352381Y-29656281D02*
X31428571Y-29808662D01*
X31428571Y-29808662D02*
X31504762Y-30113424D01*
X31504762Y-30113424D02*
X31504762Y-30341996D01*
X31504762Y-30341996D02*
X31428571Y-30646758D01*
X31428571Y-30646758D02*
X31352381Y-30799139D01*
X31352381Y-30799139D02*
X31200000Y-30951520D01*
X31200000Y-30951520D02*
X30971428Y-31027710D01*
X30971428Y-31027710D02*
X30590476Y-31027710D01*
X34323810Y-30875329D02*
X34247619Y-30951520D01*
X34247619Y-30951520D02*
X34019048Y-31027710D01*
X34019048Y-31027710D02*
X33866667Y-31027710D01*
X33866667Y-31027710D02*
X33638095Y-30951520D01*
X33638095Y-30951520D02*
X33485714Y-30799139D01*
X33485714Y-30799139D02*
X33409524Y-30646758D01*
X33409524Y-30646758D02*
X33333333Y-30341996D01*
X33333333Y-30341996D02*
X33333333Y-30113424D01*
X33333333Y-30113424D02*
X33409524Y-29808662D01*
X33409524Y-29808662D02*
X33485714Y-29656281D01*
X33485714Y-29656281D02*
X33638095Y-29503900D01*
X33638095Y-29503900D02*
X33866667Y-29427710D01*
X33866667Y-29427710D02*
X34019048Y-29427710D01*
X34019048Y-29427710D02*
X34247619Y-29503900D01*
X34247619Y-29503900D02*
X34323810Y-29580091D01*
X35238095Y-31027710D02*
X35085714Y-30951520D01*
X35085714Y-30951520D02*
X35009524Y-30875329D01*
X35009524Y-30875329D02*
X34933333Y-30722948D01*
X34933333Y-30722948D02*
X34933333Y-30265805D01*
X34933333Y-30265805D02*
X35009524Y-30113424D01*
X35009524Y-30113424D02*
X35085714Y-30037234D01*
X35085714Y-30037234D02*
X35238095Y-29961043D01*
X35238095Y-29961043D02*
X35466667Y-29961043D01*
X35466667Y-29961043D02*
X35619048Y-30037234D01*
X35619048Y-30037234D02*
X35695238Y-30113424D01*
X35695238Y-30113424D02*
X35771429Y-30265805D01*
X35771429Y-30265805D02*
X35771429Y-30722948D01*
X35771429Y-30722948D02*
X35695238Y-30875329D01*
X35695238Y-30875329D02*
X35619048Y-30951520D01*
X35619048Y-30951520D02*
X35466667Y-31027710D01*
X35466667Y-31027710D02*
X35238095Y-31027710D01*
X36457143Y-29961043D02*
X36457143Y-31027710D01*
X36457143Y-30113424D02*
X36533333Y-30037234D01*
X36533333Y-30037234D02*
X36685714Y-29961043D01*
X36685714Y-29961043D02*
X36914286Y-29961043D01*
X36914286Y-29961043D02*
X37066667Y-30037234D01*
X37066667Y-30037234D02*
X37142857Y-30189615D01*
X37142857Y-30189615D02*
X37142857Y-31027710D01*
X37676190Y-29961043D02*
X38285714Y-29961043D01*
X37904762Y-29427710D02*
X37904762Y-30799139D01*
X37904762Y-30799139D02*
X37980952Y-30951520D01*
X37980952Y-30951520D02*
X38133333Y-31027710D01*
X38133333Y-31027710D02*
X38285714Y-31027710D01*
X38819048Y-31027710D02*
X38819048Y-29961043D01*
X38819048Y-30265805D02*
X38895238Y-30113424D01*
X38895238Y-30113424D02*
X38971429Y-30037234D01*
X38971429Y-30037234D02*
X39123810Y-29961043D01*
X39123810Y-29961043D02*
X39276191Y-29961043D01*
X40038095Y-31027710D02*
X39885714Y-30951520D01*
X39885714Y-30951520D02*
X39809524Y-30875329D01*
X39809524Y-30875329D02*
X39733333Y-30722948D01*
X39733333Y-30722948D02*
X39733333Y-30265805D01*
X39733333Y-30265805D02*
X39809524Y-30113424D01*
X39809524Y-30113424D02*
X39885714Y-30037234D01*
X39885714Y-30037234D02*
X40038095Y-29961043D01*
X40038095Y-29961043D02*
X40266667Y-29961043D01*
X40266667Y-29961043D02*
X40419048Y-30037234D01*
X40419048Y-30037234D02*
X40495238Y-30113424D01*
X40495238Y-30113424D02*
X40571429Y-30265805D01*
X40571429Y-30265805D02*
X40571429Y-30722948D01*
X40571429Y-30722948D02*
X40495238Y-30875329D01*
X40495238Y-30875329D02*
X40419048Y-30951520D01*
X40419048Y-30951520D02*
X40266667Y-31027710D01*
X40266667Y-31027710D02*
X40038095Y-31027710D01*
X41485714Y-31027710D02*
X41333333Y-30951520D01*
X41333333Y-30951520D02*
X41257143Y-30799139D01*
X41257143Y-30799139D02*
X41257143Y-29427710D01*
X42323809Y-31027710D02*
X42171428Y-30951520D01*
X42171428Y-30951520D02*
X42095238Y-30799139D01*
X42095238Y-30799139D02*
X42095238Y-29427710D01*
X43542857Y-30951520D02*
X43390476Y-31027710D01*
X43390476Y-31027710D02*
X43085714Y-31027710D01*
X43085714Y-31027710D02*
X42933333Y-30951520D01*
X42933333Y-30951520D02*
X42857142Y-30799139D01*
X42857142Y-30799139D02*
X42857142Y-30189615D01*
X42857142Y-30189615D02*
X42933333Y-30037234D01*
X42933333Y-30037234D02*
X43085714Y-29961043D01*
X43085714Y-29961043D02*
X43390476Y-29961043D01*
X43390476Y-29961043D02*
X43542857Y-30037234D01*
X43542857Y-30037234D02*
X43619047Y-30189615D01*
X43619047Y-30189615D02*
X43619047Y-30341996D01*
X43619047Y-30341996D02*
X42857142Y-30494377D01*
X44304762Y-31027710D02*
X44304762Y-29961043D01*
X44304762Y-30265805D02*
X44380952Y-30113424D01*
X44380952Y-30113424D02*
X44457143Y-30037234D01*
X44457143Y-30037234D02*
X44609524Y-29961043D01*
X44609524Y-29961043D02*
X44761905Y-29961043D01*
X46438095Y-30951520D02*
X46590476Y-31027710D01*
X46590476Y-31027710D02*
X46895238Y-31027710D01*
X46895238Y-31027710D02*
X47047619Y-30951520D01*
X47047619Y-30951520D02*
X47123810Y-30799139D01*
X47123810Y-30799139D02*
X47123810Y-30722948D01*
X47123810Y-30722948D02*
X47047619Y-30570567D01*
X47047619Y-30570567D02*
X46895238Y-30494377D01*
X46895238Y-30494377D02*
X46666667Y-30494377D01*
X46666667Y-30494377D02*
X46514286Y-30418186D01*
X46514286Y-30418186D02*
X46438095Y-30265805D01*
X46438095Y-30265805D02*
X46438095Y-30189615D01*
X46438095Y-30189615D02*
X46514286Y-30037234D01*
X46514286Y-30037234D02*
X46666667Y-29961043D01*
X46666667Y-29961043D02*
X46895238Y-29961043D01*
X46895238Y-29961043D02*
X47047619Y-30037234D01*
X47809524Y-31027710D02*
X47809524Y-29961043D01*
X47809524Y-29427710D02*
X47733333Y-29503900D01*
X47733333Y-29503900D02*
X47809524Y-29580091D01*
X47809524Y-29580091D02*
X47885714Y-29503900D01*
X47885714Y-29503900D02*
X47809524Y-29427710D01*
X47809524Y-29427710D02*
X47809524Y-29580091D01*
X48571429Y-31027710D02*
X48571429Y-29961043D01*
X48571429Y-30113424D02*
X48647619Y-30037234D01*
X48647619Y-30037234D02*
X48800000Y-29961043D01*
X48800000Y-29961043D02*
X49028572Y-29961043D01*
X49028572Y-29961043D02*
X49180953Y-30037234D01*
X49180953Y-30037234D02*
X49257143Y-30189615D01*
X49257143Y-30189615D02*
X49257143Y-31027710D01*
X49257143Y-30189615D02*
X49333334Y-30037234D01*
X49333334Y-30037234D02*
X49485715Y-29961043D01*
X49485715Y-29961043D02*
X49714286Y-29961043D01*
X49714286Y-29961043D02*
X49866667Y-30037234D01*
X49866667Y-30037234D02*
X49942857Y-30189615D01*
X49942857Y-30189615D02*
X49942857Y-31027710D01*
X50704762Y-29961043D02*
X50704762Y-31561043D01*
X50704762Y-30037234D02*
X50857143Y-29961043D01*
X50857143Y-29961043D02*
X51161905Y-29961043D01*
X51161905Y-29961043D02*
X51314286Y-30037234D01*
X51314286Y-30037234D02*
X51390476Y-30113424D01*
X51390476Y-30113424D02*
X51466667Y-30265805D01*
X51466667Y-30265805D02*
X51466667Y-30722948D01*
X51466667Y-30722948D02*
X51390476Y-30875329D01*
X51390476Y-30875329D02*
X51314286Y-30951520D01*
X51314286Y-30951520D02*
X51161905Y-31027710D01*
X51161905Y-31027710D02*
X50857143Y-31027710D01*
X50857143Y-31027710D02*
X50704762Y-30951520D01*
X52380952Y-31027710D02*
X52228571Y-30951520D01*
X52228571Y-30951520D02*
X52152381Y-30799139D01*
X52152381Y-30799139D02*
X52152381Y-29427710D01*
X53600000Y-30951520D02*
X53447619Y-31027710D01*
X53447619Y-31027710D02*
X53142857Y-31027710D01*
X53142857Y-31027710D02*
X52990476Y-30951520D01*
X52990476Y-30951520D02*
X52914285Y-30799139D01*
X52914285Y-30799139D02*
X52914285Y-30189615D01*
X52914285Y-30189615D02*
X52990476Y-30037234D01*
X52990476Y-30037234D02*
X53142857Y-29961043D01*
X53142857Y-29961043D02*
X53447619Y-29961043D01*
X53447619Y-29961043D02*
X53600000Y-30037234D01*
X53600000Y-30037234D02*
X53676190Y-30189615D01*
X53676190Y-30189615D02*
X53676190Y-30341996D01*
X53676190Y-30341996D02*
X52914285Y-30494377D01*
D10*
X8504819Y-42333333D02*
X9219104Y-42333333D01*
X9219104Y-42333333D02*
X9361961Y-42380952D01*
X9361961Y-42380952D02*
X9457200Y-42476190D01*
X9457200Y-42476190D02*
X9504819Y-42619047D01*
X9504819Y-42619047D02*
X9504819Y-42714285D01*
X9504819Y-41809523D02*
X9504819Y-41619047D01*
X9504819Y-41619047D02*
X9457200Y-41523809D01*
X9457200Y-41523809D02*
X9409580Y-41476190D01*
X9409580Y-41476190D02*
X9266723Y-41380952D01*
X9266723Y-41380952D02*
X9076247Y-41333333D01*
X9076247Y-41333333D02*
X8695295Y-41333333D01*
X8695295Y-41333333D02*
X8600057Y-41380952D01*
X8600057Y-41380952D02*
X8552438Y-41428571D01*
X8552438Y-41428571D02*
X8504819Y-41523809D01*
X8504819Y-41523809D02*
X8504819Y-41714285D01*
X8504819Y-41714285D02*
X8552438Y-41809523D01*
X8552438Y-41809523D02*
X8600057Y-41857142D01*
X8600057Y-41857142D02*
X8695295Y-41904761D01*
X8695295Y-41904761D02*
X8933390Y-41904761D01*
X8933390Y-41904761D02*
X9028628Y-41857142D01*
X9028628Y-41857142D02*
X9076247Y-41809523D01*
X9076247Y-41809523D02*
X9123866Y-41714285D01*
X9123866Y-41714285D02*
X9123866Y-41523809D01*
X9123866Y-41523809D02*
X9076247Y-41428571D01*
X9076247Y-41428571D02*
X9028628Y-41380952D01*
X9028628Y-41380952D02*
X8933390Y-41333333D01*
X8504819Y-28333333D02*
X9219104Y-28333333D01*
X9219104Y-28333333D02*
X9361961Y-28380952D01*
X9361961Y-28380952D02*
X9457200Y-28476190D01*
X9457200Y-28476190D02*
X9504819Y-28619047D01*
X9504819Y-28619047D02*
X9504819Y-28714285D01*
X8933390Y-27714285D02*
X8885771Y-27809523D01*
X8885771Y-27809523D02*
X8838152Y-27857142D01*
X8838152Y-27857142D02*
X8742914Y-27904761D01*
X8742914Y-27904761D02*
X8695295Y-27904761D01*
X8695295Y-27904761D02*
X8600057Y-27857142D01*
X8600057Y-27857142D02*
X8552438Y-27809523D01*
X8552438Y-27809523D02*
X8504819Y-27714285D01*
X8504819Y-27714285D02*
X8504819Y-27523809D01*
X8504819Y-27523809D02*
X8552438Y-27428571D01*
X8552438Y-27428571D02*
X8600057Y-27380952D01*
X8600057Y-27380952D02*
X8695295Y-27333333D01*
X8695295Y-27333333D02*
X8742914Y-27333333D01*
X8742914Y-27333333D02*
X8838152Y-27380952D01*
X8838152Y-27380952D02*
X8885771Y-27428571D01*
X8885771Y-27428571D02*
X8933390Y-27523809D01*
X8933390Y-27523809D02*
X8933390Y-27714285D01*
X8933390Y-27714285D02*
X8981009Y-27809523D01*
X8981009Y-27809523D02*
X9028628Y-27857142D01*
X9028628Y-27857142D02*
X9123866Y-27904761D01*
X9123866Y-27904761D02*
X9314342Y-27904761D01*
X9314342Y-27904761D02*
X9409580Y-27857142D01*
X9409580Y-27857142D02*
X9457200Y-27809523D01*
X9457200Y-27809523D02*
X9504819Y-27714285D01*
X9504819Y-27714285D02*
X9504819Y-27523809D01*
X9504819Y-27523809D02*
X9457200Y-27428571D01*
X9457200Y-27428571D02*
X9409580Y-27380952D01*
X9409580Y-27380952D02*
X9314342Y-27333333D01*
X9314342Y-27333333D02*
X9123866Y-27333333D01*
X9123866Y-27333333D02*
X9028628Y-27380952D01*
X9028628Y-27380952D02*
X8981009Y-27428571D01*
X8981009Y-27428571D02*
X8933390Y-27523809D01*
X42166666Y-434819D02*
X42166666Y-1149104D01*
X42166666Y-1149104D02*
X42119047Y-1291961D01*
X42119047Y-1291961D02*
X42023809Y-1387200D01*
X42023809Y-1387200D02*
X41880952Y-1434819D01*
X41880952Y-1434819D02*
X41785714Y-1434819D01*
X43166666Y-1434819D02*
X42595238Y-1434819D01*
X42880952Y-1434819D02*
X42880952Y-434819D01*
X42880952Y-434819D02*
X42785714Y-577676D01*
X42785714Y-577676D02*
X42690476Y-672914D01*
X42690476Y-672914D02*
X42595238Y-720533D01*
X8504819Y-14333333D02*
X9219104Y-14333333D01*
X9219104Y-14333333D02*
X9361961Y-14380952D01*
X9361961Y-14380952D02*
X9457200Y-14476190D01*
X9457200Y-14476190D02*
X9504819Y-14619047D01*
X9504819Y-14619047D02*
X9504819Y-14714285D01*
X8504819Y-13952380D02*
X8504819Y-13285714D01*
X8504819Y-13285714D02*
X9504819Y-13714285D01*
X80004819Y-56333333D02*
X80719104Y-56333333D01*
X80719104Y-56333333D02*
X80861961Y-56380952D01*
X80861961Y-56380952D02*
X80957200Y-56476190D01*
X80957200Y-56476190D02*
X81004819Y-56619047D01*
X81004819Y-56619047D02*
X81004819Y-56714285D01*
X80004819Y-55380952D02*
X80004819Y-55857142D01*
X80004819Y-55857142D02*
X80481009Y-55904761D01*
X80481009Y-55904761D02*
X80433390Y-55857142D01*
X80433390Y-55857142D02*
X80385771Y-55761904D01*
X80385771Y-55761904D02*
X80385771Y-55523809D01*
X80385771Y-55523809D02*
X80433390Y-55428571D01*
X80433390Y-55428571D02*
X80481009Y-55380952D01*
X80481009Y-55380952D02*
X80576247Y-55333333D01*
X80576247Y-55333333D02*
X80814342Y-55333333D01*
X80814342Y-55333333D02*
X80909580Y-55380952D01*
X80909580Y-55380952D02*
X80957200Y-55428571D01*
X80957200Y-55428571D02*
X81004819Y-55523809D01*
X81004819Y-55523809D02*
X81004819Y-55761904D01*
X81004819Y-55761904D02*
X80957200Y-55857142D01*
X80957200Y-55857142D02*
X80909580Y-55904761D01*
X80004819Y-28333333D02*
X80719104Y-28333333D01*
X80719104Y-28333333D02*
X80861961Y-28380952D01*
X80861961Y-28380952D02*
X80957200Y-28476190D01*
X80957200Y-28476190D02*
X81004819Y-28619047D01*
X81004819Y-28619047D02*
X81004819Y-28714285D01*
X80004819Y-27952380D02*
X80004819Y-27333333D01*
X80004819Y-27333333D02*
X80385771Y-27666666D01*
X80385771Y-27666666D02*
X80385771Y-27523809D01*
X80385771Y-27523809D02*
X80433390Y-27428571D01*
X80433390Y-27428571D02*
X80481009Y-27380952D01*
X80481009Y-27380952D02*
X80576247Y-27333333D01*
X80576247Y-27333333D02*
X80814342Y-27333333D01*
X80814342Y-27333333D02*
X80909580Y-27380952D01*
X80909580Y-27380952D02*
X80957200Y-27428571D01*
X80957200Y-27428571D02*
X81004819Y-27523809D01*
X81004819Y-27523809D02*
X81004819Y-27809523D01*
X81004819Y-27809523D02*
X80957200Y-27904761D01*
X80957200Y-27904761D02*
X80909580Y-27952380D01*
X8504819Y-56809523D02*
X9219104Y-56809523D01*
X9219104Y-56809523D02*
X9361961Y-56857142D01*
X9361961Y-56857142D02*
X9457200Y-56952380D01*
X9457200Y-56952380D02*
X9504819Y-57095237D01*
X9504819Y-57095237D02*
X9504819Y-57190475D01*
X9504819Y-55809523D02*
X9504819Y-56380951D01*
X9504819Y-56095237D02*
X8504819Y-56095237D01*
X8504819Y-56095237D02*
X8647676Y-56190475D01*
X8647676Y-56190475D02*
X8742914Y-56285713D01*
X8742914Y-56285713D02*
X8790533Y-56380951D01*
X8504819Y-55190475D02*
X8504819Y-55095237D01*
X8504819Y-55095237D02*
X8552438Y-54999999D01*
X8552438Y-54999999D02*
X8600057Y-54952380D01*
X8600057Y-54952380D02*
X8695295Y-54904761D01*
X8695295Y-54904761D02*
X8885771Y-54857142D01*
X8885771Y-54857142D02*
X9123866Y-54857142D01*
X9123866Y-54857142D02*
X9314342Y-54904761D01*
X9314342Y-54904761D02*
X9409580Y-54952380D01*
X9409580Y-54952380D02*
X9457200Y-54999999D01*
X9457200Y-54999999D02*
X9504819Y-55095237D01*
X9504819Y-55095237D02*
X9504819Y-55190475D01*
X9504819Y-55190475D02*
X9457200Y-55285713D01*
X9457200Y-55285713D02*
X9409580Y-55333332D01*
X9409580Y-55333332D02*
X9314342Y-55380951D01*
X9314342Y-55380951D02*
X9123866Y-55428570D01*
X9123866Y-55428570D02*
X8885771Y-55428570D01*
X8885771Y-55428570D02*
X8695295Y-55380951D01*
X8695295Y-55380951D02*
X8600057Y-55333332D01*
X8600057Y-55333332D02*
X8552438Y-55285713D01*
X8552438Y-55285713D02*
X8504819Y-55190475D01*
X80004819Y-14333333D02*
X80719104Y-14333333D01*
X80719104Y-14333333D02*
X80861961Y-14380952D01*
X80861961Y-14380952D02*
X80957200Y-14476190D01*
X80957200Y-14476190D02*
X81004819Y-14619047D01*
X81004819Y-14619047D02*
X81004819Y-14714285D01*
X80100057Y-13904761D02*
X80052438Y-13857142D01*
X80052438Y-13857142D02*
X80004819Y-13761904D01*
X80004819Y-13761904D02*
X80004819Y-13523809D01*
X80004819Y-13523809D02*
X80052438Y-13428571D01*
X80052438Y-13428571D02*
X80100057Y-13380952D01*
X80100057Y-13380952D02*
X80195295Y-13333333D01*
X80195295Y-13333333D02*
X80290533Y-13333333D01*
X80290533Y-13333333D02*
X80433390Y-13380952D01*
X80433390Y-13380952D02*
X81004819Y-13952380D01*
X81004819Y-13952380D02*
X81004819Y-13333333D01*
X80004819Y-42333333D02*
X80719104Y-42333333D01*
X80719104Y-42333333D02*
X80861961Y-42380952D01*
X80861961Y-42380952D02*
X80957200Y-42476190D01*
X80957200Y-42476190D02*
X81004819Y-42619047D01*
X81004819Y-42619047D02*
X81004819Y-42714285D01*
X80338152Y-41428571D02*
X81004819Y-41428571D01*
X79957200Y-41666666D02*
X80671485Y-41904761D01*
X80671485Y-41904761D02*
X80671485Y-41285714D01*
%TO.C,J9*%
D13*
X2750000Y-37700000D02*
X2750000Y-42000000D01*
X2750000Y-46300000D02*
X2750000Y-42000000D01*
X5700000Y-36950000D02*
X5700000Y-37700000D01*
X5700000Y-37700000D02*
X2750000Y-37700000D01*
X5700000Y-46300000D02*
X2750000Y-46300000D01*
X5700000Y-47050000D02*
X5700000Y-46300000D01*
X8250000Y-36650000D02*
X7000000Y-36650000D01*
X8250000Y-37900000D02*
X8250000Y-36650000D01*
X7200000Y-36950000D02*
X7950000Y-36950000D01*
X7950000Y-38750000D01*
X7200000Y-38750000D01*
X7200000Y-36950000D01*
X7200000Y-40250000D02*
X7950000Y-40250000D01*
X7950000Y-43750000D01*
X7200000Y-43750000D01*
X7200000Y-40250000D01*
X7200000Y-45250000D02*
X7950000Y-45250000D01*
X7950000Y-47050000D01*
X7200000Y-47050000D01*
X7200000Y-45250000D01*
X1990000Y-36940000D02*
X7960000Y-36940000D01*
X7960000Y-47060000D01*
X1990000Y-47060000D01*
X1990000Y-36940000D01*
%TO.C,J8*%
X2750000Y-23700000D02*
X2750000Y-28000000D01*
X2750000Y-32300000D02*
X2750000Y-28000000D01*
X5700000Y-22950000D02*
X5700000Y-23700000D01*
X5700000Y-23700000D02*
X2750000Y-23700000D01*
X5700000Y-32300000D02*
X2750000Y-32300000D01*
X5700000Y-33050000D02*
X5700000Y-32300000D01*
X8250000Y-22650000D02*
X7000000Y-22650000D01*
X8250000Y-23900000D02*
X8250000Y-22650000D01*
X7200000Y-22950000D02*
X7950000Y-22950000D01*
X7950000Y-24750000D01*
X7200000Y-24750000D01*
X7200000Y-22950000D01*
X7200000Y-26250000D02*
X7950000Y-26250000D01*
X7950000Y-29750000D01*
X7200000Y-29750000D01*
X7200000Y-26250000D01*
X7200000Y-31250000D02*
X7950000Y-31250000D01*
X7950000Y-33050000D01*
X7200000Y-33050000D01*
X7200000Y-31250000D01*
X1990000Y-22940000D02*
X7960000Y-22940000D01*
X7960000Y-33060000D01*
X1990000Y-33060000D01*
X1990000Y-22940000D01*
%TO.C,J1*%
X37300000Y-1980000D02*
X47700000Y-1980000D01*
X37300000Y-4100000D02*
X47700000Y-4100000D01*
X37300000Y-10300000D02*
X47700000Y-10300000D01*
X37300000Y-12800000D02*
X47700000Y-12800000D01*
X37300000Y-13420000D02*
X37300000Y-1980000D01*
X39660000Y-13420000D02*
X37300000Y-13420000D01*
X47700000Y-1980000D02*
X47700000Y-13420000D01*
X47700000Y-13420000D02*
X40260000Y-13420000D01*
X39960000Y-13420000D02*
X40400000Y-14030000D01*
X39520000Y-14030000D01*
X39960000Y-13420000D01*
G36*
X40400000Y-14030000D02*
G01*
X39520000Y-14030000D01*
X39960000Y-13420000D01*
X40400000Y-14030000D01*
G37*
%TO.C,J7*%
X2750000Y-9700000D02*
X2750000Y-14000000D01*
X2750000Y-18300000D02*
X2750000Y-14000000D01*
X5700000Y-8950000D02*
X5700000Y-9700000D01*
X5700000Y-9700000D02*
X2750000Y-9700000D01*
X5700000Y-18300000D02*
X2750000Y-18300000D01*
X5700000Y-19050000D02*
X5700000Y-18300000D01*
X8250000Y-8650000D02*
X7000000Y-8650000D01*
X8250000Y-9900000D02*
X8250000Y-8650000D01*
X7200000Y-8950000D02*
X7950000Y-8950000D01*
X7950000Y-10750000D01*
X7200000Y-10750000D01*
X7200000Y-8950000D01*
X7200000Y-12250000D02*
X7950000Y-12250000D01*
X7950000Y-15750000D01*
X7200000Y-15750000D01*
X7200000Y-12250000D01*
X7200000Y-17250000D02*
X7950000Y-17250000D01*
X7950000Y-19050000D01*
X7200000Y-19050000D01*
X7200000Y-17250000D01*
X1990000Y-8940000D02*
X7960000Y-8940000D01*
X7960000Y-19060000D01*
X1990000Y-19060000D01*
X1990000Y-8940000D01*
%TO.C,J5*%
X74250000Y-51700000D02*
X74250000Y-56000000D01*
X74250000Y-60300000D02*
X74250000Y-56000000D01*
X77200000Y-50950000D02*
X77200000Y-51700000D01*
X77200000Y-51700000D02*
X74250000Y-51700000D01*
X77200000Y-60300000D02*
X74250000Y-60300000D01*
X77200000Y-61050000D02*
X77200000Y-60300000D01*
X79750000Y-50650000D02*
X78500000Y-50650000D01*
X79750000Y-51900000D02*
X79750000Y-50650000D01*
X78700000Y-50950000D02*
X79450000Y-50950000D01*
X79450000Y-52750000D01*
X78700000Y-52750000D01*
X78700000Y-50950000D01*
X78700000Y-54250000D02*
X79450000Y-54250000D01*
X79450000Y-57750000D01*
X78700000Y-57750000D01*
X78700000Y-54250000D01*
X78700000Y-59250000D02*
X79450000Y-59250000D01*
X79450000Y-61050000D01*
X78700000Y-61050000D01*
X78700000Y-59250000D01*
X73490000Y-50940000D02*
X79460000Y-50940000D01*
X79460000Y-61060000D01*
X73490000Y-61060000D01*
X73490000Y-50940000D01*
%TO.C,J3*%
X74250000Y-23700000D02*
X74250000Y-28000000D01*
X74250000Y-32300000D02*
X74250000Y-28000000D01*
X77200000Y-22950000D02*
X77200000Y-23700000D01*
X77200000Y-23700000D02*
X74250000Y-23700000D01*
X77200000Y-32300000D02*
X74250000Y-32300000D01*
X77200000Y-33050000D02*
X77200000Y-32300000D01*
X79750000Y-22650000D02*
X78500000Y-22650000D01*
X79750000Y-23900000D02*
X79750000Y-22650000D01*
X78700000Y-22950000D02*
X79450000Y-22950000D01*
X79450000Y-24750000D01*
X78700000Y-24750000D01*
X78700000Y-22950000D01*
X78700000Y-26250000D02*
X79450000Y-26250000D01*
X79450000Y-29750000D01*
X78700000Y-29750000D01*
X78700000Y-26250000D01*
X78700000Y-31250000D02*
X79450000Y-31250000D01*
X79450000Y-33050000D01*
X78700000Y-33050000D01*
X78700000Y-31250000D01*
X73490000Y-22940000D02*
X79460000Y-22940000D01*
X79460000Y-33060000D01*
X73490000Y-33060000D01*
X73490000Y-22940000D01*
%TO.C,J10*%
X2750000Y-51700000D02*
X2750000Y-56000000D01*
X2750000Y-60300000D02*
X2750000Y-56000000D01*
X5700000Y-50950000D02*
X5700000Y-51700000D01*
X5700000Y-51700000D02*
X2750000Y-51700000D01*
X5700000Y-60300000D02*
X2750000Y-60300000D01*
X5700000Y-61050000D02*
X5700000Y-60300000D01*
X8250000Y-50650000D02*
X7000000Y-50650000D01*
X8250000Y-51900000D02*
X8250000Y-50650000D01*
X7200000Y-50950000D02*
X7950000Y-50950000D01*
X7950000Y-52750000D01*
X7200000Y-52750000D01*
X7200000Y-50950000D01*
X7200000Y-54250000D02*
X7950000Y-54250000D01*
X7950000Y-57750000D01*
X7200000Y-57750000D01*
X7200000Y-54250000D01*
X7200000Y-59250000D02*
X7950000Y-59250000D01*
X7950000Y-61050000D01*
X7200000Y-61050000D01*
X7200000Y-59250000D01*
X1990000Y-50940000D02*
X7960000Y-50940000D01*
X7960000Y-61060000D01*
X1990000Y-61060000D01*
X1990000Y-50940000D01*
%TO.C,J2*%
X74250000Y-9700000D02*
X74250000Y-14000000D01*
X74250000Y-18300000D02*
X74250000Y-14000000D01*
X77200000Y-8950000D02*
X77200000Y-9700000D01*
X77200000Y-9700000D02*
X74250000Y-9700000D01*
X77200000Y-18300000D02*
X74250000Y-18300000D01*
X77200000Y-19050000D02*
X77200000Y-18300000D01*
X79750000Y-8650000D02*
X78500000Y-8650000D01*
X79750000Y-9900000D02*
X79750000Y-8650000D01*
X78700000Y-8950000D02*
X79450000Y-8950000D01*
X79450000Y-10750000D01*
X78700000Y-10750000D01*
X78700000Y-8950000D01*
X78700000Y-12250000D02*
X79450000Y-12250000D01*
X79450000Y-15750000D01*
X78700000Y-15750000D01*
X78700000Y-12250000D01*
X78700000Y-17250000D02*
X79450000Y-17250000D01*
X79450000Y-19050000D01*
X78700000Y-19050000D01*
X78700000Y-17250000D01*
X73490000Y-8940000D02*
X79460000Y-8940000D01*
X79460000Y-19060000D01*
X73490000Y-19060000D01*
X73490000Y-8940000D01*
%TO.C,J4*%
X74250000Y-37700000D02*
X74250000Y-42000000D01*
X74250000Y-46300000D02*
X74250000Y-42000000D01*
X77200000Y-36950000D02*
X77200000Y-37700000D01*
X77200000Y-37700000D02*
X74250000Y-37700000D01*
X77200000Y-46300000D02*
X74250000Y-46300000D01*
X77200000Y-47050000D02*
X77200000Y-46300000D01*
X79750000Y-36650000D02*
X78500000Y-36650000D01*
X79750000Y-37900000D02*
X79750000Y-36650000D01*
X78700000Y-36950000D02*
X79450000Y-36950000D01*
X79450000Y-38750000D01*
X78700000Y-38750000D01*
X78700000Y-36950000D01*
X78700000Y-40250000D02*
X79450000Y-40250000D01*
X79450000Y-43750000D01*
X78700000Y-43750000D01*
X78700000Y-40250000D01*
X78700000Y-45250000D02*
X79450000Y-45250000D01*
X79450000Y-47050000D01*
X78700000Y-47050000D01*
X78700000Y-45250000D01*
X73490000Y-36940000D02*
X79460000Y-36940000D01*
X79460000Y-47060000D01*
X73490000Y-47060000D01*
X73490000Y-36940000D01*
%TD*%
%LPC*%
D14*
%TO.C,H5*%
X4000000Y-4000000D03*
%TD*%
D15*
%TO.C,H1*%
X11500000Y-39500000D03*
%TD*%
D16*
%TO.C,J9*%
X5500000Y-39500000D03*
D17*
X5500000Y-42000000D03*
X5500000Y-44500000D03*
%TD*%
D16*
%TO.C,J8*%
X5500000Y-25500000D03*
D17*
X5500000Y-28000000D03*
X5500000Y-30500000D03*
%TD*%
D15*
%TO.C,H3*%
X11500000Y-62500000D03*
%TD*%
%TO.C,H2*%
X69500000Y-39500000D03*
%TD*%
D14*
%TO.C,H8*%
X81000000Y-66000000D03*
%TD*%
D18*
%TO.C,J1*%
X39960000Y-8000000D03*
D19*
X45040000Y-8000000D03*
%TD*%
D14*
%TO.C,H7*%
X4000000Y-66000000D03*
%TD*%
D16*
%TO.C,J7*%
X5500000Y-11500000D03*
D17*
X5500000Y-14000000D03*
X5500000Y-16500000D03*
%TD*%
D16*
%TO.C,J5*%
X77000000Y-53500000D03*
D17*
X77000000Y-56000000D03*
X77000000Y-58500000D03*
%TD*%
D16*
%TO.C,J3*%
X77000000Y-25500000D03*
D17*
X77000000Y-28000000D03*
X77000000Y-30500000D03*
%TD*%
D15*
%TO.C,H4*%
X69500000Y-62500000D03*
%TD*%
D16*
%TO.C,J10*%
X5500000Y-53500000D03*
D17*
X5500000Y-56000000D03*
X5500000Y-58500000D03*
%TD*%
D14*
%TO.C,H6*%
X81000000Y-4000000D03*
%TD*%
D16*
%TO.C,J2*%
X77000000Y-11500000D03*
D17*
X77000000Y-14000000D03*
X77000000Y-16500000D03*
%TD*%
D16*
%TO.C,J4*%
X77000000Y-39500000D03*
D17*
X77000000Y-42000000D03*
X77000000Y-44500000D03*
%TD*%
D20*
%TO.C,J6*%
X16370000Y-40770000D03*
D21*
X16370000Y-38230000D03*
X18910000Y-40770000D03*
X18910000Y-38230000D03*
X21450000Y-40770000D03*
X21450000Y-38230000D03*
X23990000Y-40770000D03*
X23990000Y-38230000D03*
X26530000Y-40770000D03*
X26530000Y-38230000D03*
X29070000Y-40770000D03*
X29070000Y-38230000D03*
X31610000Y-40770000D03*
X31610000Y-38230000D03*
X34150000Y-40770000D03*
X34150000Y-38230000D03*
X36690000Y-40770000D03*
X36690000Y-38230000D03*
X39230000Y-40770000D03*
X39230000Y-38230000D03*
X41770000Y-40770000D03*
X41770000Y-38230000D03*
X44310000Y-40770000D03*
X44310000Y-38230000D03*
X46850000Y-40770000D03*
X46850000Y-38230000D03*
X49390000Y-40770000D03*
X49390000Y-38230000D03*
X51930000Y-40770000D03*
X51930000Y-38230000D03*
X54470000Y-40770000D03*
X54470000Y-38230000D03*
X57010000Y-40770000D03*
X57010000Y-38230000D03*
X59550000Y-40770000D03*
X59550000Y-38230000D03*
X62090000Y-40770000D03*
X62090000Y-38230000D03*
X64630000Y-40770000D03*
X64630000Y-38230000D03*
%TD*%
%LPD*%
M02*
