M48
; DRILL file KiCad 10.0.4 date 2026-07-11T19:04:06
; FORMAT={-:-/ absolute / metric / decimal}
; #@! TF.CreationDate,2026-07-11T19:04:06+02:00
; #@! TF.GenerationSoftware,Kicad,Pcbnew,10.0.4
; #@! TF.FileFunction,MixedPlating,1,2
FMAT,2
METRIC
; #@! TA.AperFunction,Plated,PTH,ViaDrill
T1C0.400
; #@! TA.AperFunction,Plated,PTH,ComponentDrill
T2C0.800
; #@! TA.AperFunction,Plated,PTH,ComponentDrill
T3C0.950
; #@! TA.AperFunction,Plated,PTH,ComponentDrill
T4C1.000
; #@! TA.AperFunction,Plated,PTH,ComponentDrill
T5C1.300
; #@! TA.AperFunction,NonPlated,NPTH,ComponentDrill
T6C2.700
; #@! TA.AperFunction,NonPlated,NPTH,ComponentDrill
T7C3.200
%
G90
G05
T1
X3.0Y-30.0
X3.0Y-47.0
X16.0Y-33.0
X20.0Y-58.0
X25.0Y-12.6
X35.0Y-12.6
X35.3Y-21.8
X40.0Y-58.0
X50.0Y-12.6
X55.0Y-58.0
X62.0Y-12.6
X68.0Y-24.0
X68.0Y-33.0
X75.0Y-58.0
X87.0Y-62.0
X87.5Y-8.0
X95.5Y-20.0
X95.5Y-34.0
X95.5Y-48.0
X105.0Y-20.0
X105.0Y-34.0
X105.0Y-48.0
X105.0Y-60.0
T2
X38.38Y-20.0
X38.38Y-27.62
X40.92Y-20.0
X40.92Y-27.62
X43.46Y-20.0
X43.46Y-27.62
X46.0Y-20.0
X46.0Y-27.62
X48.54Y-20.0
X48.54Y-27.62
X51.08Y-20.0
X51.08Y-27.62
X53.62Y-20.0
X53.62Y-27.62
T3
X101.0Y-11.5
X101.0Y-14.0
X101.0Y-16.5
X101.0Y-25.5
X101.0Y-28.0
X101.0Y-30.5
X101.0Y-39.5
X101.0Y-42.0
X101.0Y-44.5
X101.0Y-53.5
X101.0Y-56.0
X101.0Y-58.5
T4
X6.5Y-22.0
X6.5Y-27.0
X16.37Y-38.23
X16.37Y-40.77
X18.91Y-38.23
X18.91Y-40.77
X21.45Y-38.23
X21.45Y-40.77
X23.99Y-38.23
X23.99Y-40.77
X26.53Y-38.23
X26.53Y-40.77
X29.07Y-38.23
X29.07Y-40.77
X31.61Y-38.23
X31.61Y-40.77
X34.15Y-38.23
X34.15Y-40.77
X36.69Y-38.23
X36.69Y-40.77
X39.23Y-38.23
X39.23Y-40.77
X41.77Y-38.23
X41.77Y-40.77
X44.31Y-38.23
X44.31Y-40.77
X46.85Y-38.23
X46.85Y-40.77
X49.39Y-38.23
X49.39Y-40.77
X51.93Y-38.23
X51.93Y-40.77
X54.47Y-38.23
X54.47Y-40.77
X57.01Y-38.23
X57.01Y-40.77
X59.55Y-38.23
X59.55Y-40.77
X62.09Y-38.23
X62.09Y-40.77
X64.63Y-38.23
X64.63Y-40.77
T5
X13.0Y-8.0
X18.08Y-8.0
X74.5Y-11.5
X74.5Y-25.5
X74.5Y-39.5
X74.5Y-53.5
X80.3Y-11.5
X80.3Y-25.5
X80.3Y-39.5
X80.3Y-53.5
X89.2Y-11.5
X89.2Y-25.5
X89.2Y-39.5
X89.2Y-53.5
X95.0Y-11.5
X95.0Y-25.5
X95.0Y-39.5
X95.0Y-53.5
T6
X11.5Y-39.5
X11.5Y-62.5
X69.5Y-39.5
X69.5Y-62.5
T7
X4.0Y-4.0
X4.0Y-66.0
X106.0Y-4.0
X106.0Y-66.0
M30
