%TF.GenerationSoftware,KiCad,Pcbnew,10.0.4*%
%TF.CreationDate,2026-07-11T19:04:05+02:00*%
%TF.ProjectId,led-controller,6c65642d-636f-46e7-9472-6f6c6c65722e,rev?*%
%TF.SameCoordinates,Original*%
%TF.FileFunction,Copper,L2,Bot*%
%TF.FilePolarity,Positive*%
%FSLAX46Y46*%
G04 Gerber Fmt 4.6, Leading zero omitted, Abs format (unit mm)*
G04 Created by KiCad (PCBNEW 10.0.4) date 2026-07-11 19:04:05*
%MOMM*%
%LPD*%
G01*
G04 APERTURE LIST*
G04 Aperture macros list*
%AMRoundRect*
0 Rectangle with rounded corners*
0 $1 Rounding radius*
0 $2 $3 $4 $5 $6 $7 $8 $9 X,Y pos of 4 corners*
0 Add a 4 corners polygon primitive as box body*
4,1,4,$2,$3,$4,$5,$6,$7,$8,$9,$2,$3,0*
0 Add four circle primitives for the rounded corners*
1,1,$1+$1,$2,$3*
1,1,$1+$1,$4,$5*
1,1,$1+$1,$6,$7*
1,1,$1+$1,$8,$9*
0 Add four rect primitives between the rounded corners*
20,1,$1+$1,$2,$3,$4,$5,0*
20,1,$1+$1,$4,$5,$6,$7,0*
20,1,$1+$1,$6,$7,$8,$9,0*
20,1,$1+$1,$8,$9,$2,$3,0*%
G04 Aperture macros list end*
%TA.AperFunction,ComponentPad*%
%ADD10RoundRect,0.250000X0.550000X-0.550000X0.550000X0.550000X-0.550000X0.550000X-0.550000X-0.550000X0*%
%TD*%
%TA.AperFunction,ComponentPad*%
%ADD11C,1.600000*%
%TD*%
%TA.AperFunction,ComponentPad*%
%ADD12RoundRect,0.250000X-0.725000X0.600000X-0.725000X-0.600000X0.725000X-0.600000X0.725000X0.600000X0*%
%TD*%
%TA.AperFunction,ComponentPad*%
%ADD13O,1.950000X1.700000*%
%TD*%
%TA.AperFunction,ComponentPad*%
%ADD14RoundRect,0.575000X-0.575000X-0.575000X0.575000X-0.575000X0.575000X0.575000X-0.575000X0.575000X0*%
%TD*%
%TA.AperFunction,ComponentPad*%
%ADD15C,2.300000*%
%TD*%
%TA.AperFunction,ComponentPad*%
%ADD16RoundRect,0.250000X-0.750000X0.750000X-0.750000X-0.750000X0.750000X-0.750000X0.750000X0.750000X0*%
%TD*%
%TA.AperFunction,ComponentPad*%
%ADD17C,2.000000*%
%TD*%
%TA.AperFunction,ComponentPad*%
%ADD18RoundRect,0.250000X-1.050000X-1.050000X1.050000X-1.050000X1.050000X1.050000X-1.050000X1.050000X0*%
%TD*%
%TA.AperFunction,ComponentPad*%
%ADD19C,2.600000*%
%TD*%
%TA.AperFunction,SMDPad,CuDef*%
%ADD20RoundRect,0.250000X-0.262500X-0.450000X0.262500X-0.450000X0.262500X0.450000X-0.262500X0.450000X0*%
%TD*%
%TA.AperFunction,ComponentPad*%
%ADD21R,1.700000X1.700000*%
%TD*%
%TA.AperFunction,ComponentPad*%
%ADD22C,1.700000*%
%TD*%
%TA.AperFunction,ViaPad*%
%ADD23C,0.800000*%
%TD*%
%TA.AperFunction,Conductor*%
%ADD24C,0.400000*%
%TD*%
%TA.AperFunction,Conductor*%
%ADD25C,0.500000*%
%TD*%
G04 APERTURE END LIST*
D10*
%TO.P,U1,1*%
%TO.N,GND*%
X38380000Y-27620000D03*
D11*
%TO.P,U1,2*%
%TO.N,D18_3V3*%
X40920000Y-27620000D03*
%TO.P,U1,3*%
%TO.N,D1_5V*%
X43460000Y-27620000D03*
%TO.P,U1,4*%
%TO.N,GND*%
X46000000Y-27620000D03*
%TO.P,U1,5*%
%TO.N,D10_3V3*%
X48540000Y-27620000D03*
%TO.P,U1,6*%
%TO.N,D3_5V*%
X51080000Y-27620000D03*
%TO.P,U1,7*%
%TO.N,GND*%
X53620000Y-27620000D03*
%TO.P,U1,8*%
%TO.N,D4_5V*%
X53620000Y-20000000D03*
%TO.P,U1,9*%
%TO.N,D21_3V3*%
X51080000Y-20000000D03*
%TO.P,U1,10*%
%TO.N,GND*%
X48540000Y-20000000D03*
%TO.P,U1,11*%
%TO.N,D2_5V*%
X46000000Y-20000000D03*
%TO.P,U1,12*%
%TO.N,D13_3V3*%
X43460000Y-20000000D03*
%TO.P,U1,13*%
%TO.N,GND*%
X40920000Y-20000000D03*
%TO.P,U1,14*%
%TO.N,+5V*%
X38380000Y-20000000D03*
%TD*%
D12*
%TO.P,J5,1*%
%TO.N,5V_S4*%
X101000000Y-53500000D03*
D13*
%TO.P,J5,2*%
%TO.N,DATA4*%
X101000000Y-56000000D03*
%TO.P,J5,3*%
%TO.N,GND*%
X101000000Y-58500000D03*
%TD*%
D14*
%TO.P,F3,1*%
%TO.N,+5V*%
X74500000Y-39500000D03*
X80300000Y-39500000D03*
D15*
%TO.P,F3,2*%
%TO.N,5V_S3*%
X89200000Y-39500000D03*
X95000000Y-39500000D03*
%TD*%
D16*
%TO.P,C1,1*%
%TO.N,+5V*%
X6500000Y-22000000D03*
D17*
%TO.P,C1,2*%
%TO.N,GND*%
X6500000Y-27000000D03*
%TD*%
D18*
%TO.P,J1,1*%
%TO.N,+5V*%
X13000000Y-8000000D03*
D19*
%TO.P,J1,2*%
%TO.N,GND*%
X18080000Y-8000000D03*
%TD*%
D14*
%TO.P,F1,1*%
%TO.N,+5V*%
X74500000Y-11500000D03*
X80300000Y-11500000D03*
D15*
%TO.P,F1,2*%
%TO.N,5V_S1*%
X89200000Y-11500000D03*
X95000000Y-11500000D03*
%TD*%
D14*
%TO.P,F2,1*%
%TO.N,+5V*%
X74500000Y-25500000D03*
X80300000Y-25500000D03*
D15*
%TO.P,F2,2*%
%TO.N,5V_S2*%
X89200000Y-25500000D03*
X95000000Y-25500000D03*
%TD*%
D12*
%TO.P,J4,1*%
%TO.N,5V_S3*%
X101000000Y-39500000D03*
D13*
%TO.P,J4,2*%
%TO.N,DATA3*%
X101000000Y-42000000D03*
%TO.P,J4,3*%
%TO.N,GND*%
X101000000Y-44500000D03*
%TD*%
D12*
%TO.P,J3,1*%
%TO.N,5V_S2*%
X101000000Y-25500000D03*
D13*
%TO.P,J3,2*%
%TO.N,DATA2*%
X101000000Y-28000000D03*
%TO.P,J3,3*%
%TO.N,GND*%
X101000000Y-30500000D03*
%TD*%
D14*
%TO.P,F4,1*%
%TO.N,+5V*%
X74500000Y-53500000D03*
X80300000Y-53500000D03*
D15*
%TO.P,F4,2*%
%TO.N,5V_S4*%
X89200000Y-53500000D03*
X95000000Y-53500000D03*
%TD*%
D12*
%TO.P,J2,1*%
%TO.N,5V_S1*%
X101000000Y-11500000D03*
D13*
%TO.P,J2,2*%
%TO.N,DATA1*%
X101000000Y-14000000D03*
%TO.P,J2,3*%
%TO.N,GND*%
X101000000Y-16500000D03*
%TD*%
D20*
%TO.P,R4,1*%
%TO.N,D4_5V*%
X97287500Y-56000000D03*
%TO.P,R4,2*%
%TO.N,DATA4*%
X99112500Y-56000000D03*
%TD*%
%TO.P,R2,1*%
%TO.N,D2_5V*%
X97287500Y-28000000D03*
%TO.P,R2,2*%
%TO.N,DATA2*%
X99112500Y-28000000D03*
%TD*%
D21*
%TO.P,J6,1*%
%TO.N,N/C*%
X16370000Y-40770000D03*
D22*
%TO.P,J6,2*%
%TO.N,+5V*%
X16370000Y-38230000D03*
%TO.P,J6,3*%
%TO.N,N/C*%
X18910000Y-40770000D03*
%TO.P,J6,4*%
%TO.N,+5V*%
X18910000Y-38230000D03*
%TO.P,J6,5*%
%TO.N,N/C*%
X21450000Y-40770000D03*
%TO.P,J6,6*%
%TO.N,GND*%
X21450000Y-38230000D03*
%TO.P,J6,7*%
%TO.N,N/C*%
X23990000Y-40770000D03*
%TO.P,J6,8*%
X23990000Y-38230000D03*
%TO.P,J6,9*%
%TO.N,GND*%
X26530000Y-40770000D03*
%TO.P,J6,10*%
%TO.N,N/C*%
X26530000Y-38230000D03*
%TO.P,J6,11*%
X29070000Y-40770000D03*
%TO.P,J6,12*%
%TO.N,D18_3V3*%
X29070000Y-38230000D03*
%TO.P,J6,13*%
%TO.N,N/C*%
X31610000Y-40770000D03*
%TO.P,J6,14*%
%TO.N,GND*%
X31610000Y-38230000D03*
%TO.P,J6,15*%
%TO.N,N/C*%
X34150000Y-40770000D03*
%TO.P,J6,16*%
X34150000Y-38230000D03*
%TO.P,J6,17*%
X36690000Y-40770000D03*
%TO.P,J6,18*%
X36690000Y-38230000D03*
%TO.P,J6,19*%
%TO.N,D10_3V3*%
X39230000Y-40770000D03*
%TO.P,J6,20*%
%TO.N,GND*%
X39230000Y-38230000D03*
%TO.P,J6,21*%
%TO.N,N/C*%
X41770000Y-40770000D03*
%TO.P,J6,22*%
X41770000Y-38230000D03*
%TO.P,J6,23*%
X44310000Y-40770000D03*
%TO.P,J6,24*%
X44310000Y-38230000D03*
%TO.P,J6,25*%
%TO.N,GND*%
X46850000Y-40770000D03*
%TO.P,J6,26*%
%TO.N,N/C*%
X46850000Y-38230000D03*
%TO.P,J6,27*%
X49390000Y-40770000D03*
%TO.P,J6,28*%
X49390000Y-38230000D03*
%TO.P,J6,29*%
X51930000Y-40770000D03*
%TO.P,J6,30*%
%TO.N,GND*%
X51930000Y-38230000D03*
%TO.P,J6,31*%
%TO.N,N/C*%
X54470000Y-40770000D03*
%TO.P,J6,32*%
X54470000Y-38230000D03*
%TO.P,J6,33*%
%TO.N,D13_3V3*%
X57010000Y-40770000D03*
%TO.P,J6,34*%
%TO.N,GND*%
X57010000Y-38230000D03*
%TO.P,J6,35*%
%TO.N,N/C*%
X59550000Y-40770000D03*
%TO.P,J6,36*%
X59550000Y-38230000D03*
%TO.P,J6,37*%
X62090000Y-40770000D03*
%TO.P,J6,38*%
X62090000Y-38230000D03*
%TO.P,J6,39*%
%TO.N,GND*%
X64630000Y-40770000D03*
%TO.P,J6,40*%
%TO.N,D21_3V3*%
X64630000Y-38230000D03*
%TD*%
D20*
%TO.P,R3,1*%
%TO.N,D3_5V*%
X97287500Y-42000000D03*
%TO.P,R3,2*%
%TO.N,DATA3*%
X99112500Y-42000000D03*
%TD*%
%TO.P,R1,1*%
%TO.N,D1_5V*%
X97287500Y-14000000D03*
%TO.P,R1,2*%
%TO.N,DATA1*%
X99112500Y-14000000D03*
%TD*%
D23*
%TO.N,GND*%
X87500000Y-8000000D03*
X95500000Y-34000000D03*
X62000000Y-12600000D03*
X95500000Y-20000000D03*
X87000000Y-62000000D03*
X75000000Y-58000000D03*
X105000000Y-48000000D03*
X105000000Y-60000000D03*
X16000000Y-33000000D03*
X35000000Y-12600000D03*
X20000000Y-58000000D03*
X3000000Y-30000000D03*
X40000000Y-58000000D03*
X105000000Y-20000000D03*
X35300000Y-21800000D03*
X68000000Y-33000000D03*
X55000000Y-58000000D03*
X68000000Y-24000000D03*
X3000000Y-47000000D03*
X105000000Y-34000000D03*
X50000000Y-12600000D03*
X25000000Y-12600000D03*
X95500000Y-48000000D03*
%TD*%
%TO.N,D1_5V*%
D24*
X95800000Y-13400000D02*
X97290000Y-14000000D01*
X42200000Y-13400000D02*
X95800000Y-13400000D01*
X43460000Y-27620000D02*
X42200000Y-26500000D01*
X42200000Y-26500000D02*
X42200000Y-13400000D01*
%TO.N,D3_5V*%
X52350000Y-26500000D02*
X52350000Y-15800000D01*
X92100000Y-42000000D02*
X97290000Y-42000000D01*
X52350000Y-15800000D02*
X92100000Y-15800000D01*
X51080000Y-27620000D02*
X52350000Y-26500000D01*
X92100000Y-15800000D02*
X92100000Y-42000000D01*
%TO.N,D4_5V*%
X54900000Y-17000000D02*
X91100000Y-17000000D01*
X54900000Y-19000000D02*
X54900000Y-17000000D01*
X91100000Y-56000000D02*
X97290000Y-56000000D01*
X53620000Y-20000000D02*
X54900000Y-19000000D01*
X91100000Y-17000000D02*
X91100000Y-56000000D01*
%TO.N,D2_5V*%
X93100000Y-14600000D02*
X93100000Y-28000000D01*
X47270000Y-14600000D02*
X93100000Y-14600000D01*
X93100000Y-28000000D02*
X97290000Y-28000000D01*
X46000000Y-20000000D02*
X47270000Y-19000000D01*
X47270000Y-19000000D02*
X47270000Y-14600000D01*
%TO.N,DATA4*%
D25*
X99110000Y-56000000D02*
X101000000Y-56000000D01*
%TO.N,DATA3*%
X99110000Y-42000000D02*
X101000000Y-42000000D01*
%TO.N,DATA2*%
X99110000Y-28000000D02*
X101000000Y-28000000D01*
%TO.N,DATA1*%
X99110000Y-14000000D02*
X101000000Y-14000000D01*
%TD*%
%TA.AperFunction,Conductor*%
%TO.N,GND*%
G36*
X109442539Y-520185D02*
G01*
X109488294Y-572989D01*
X109499500Y-624500D01*
X109499500Y-69375500D01*
X109479815Y-69442539D01*
X109427011Y-69488294D01*
X109375500Y-69499500D01*
X624500Y-69499500D01*
X557461Y-69479815D01*
X511706Y-69427011D01*
X500500Y-69375500D01*
X500500Y-65878711D01*
X2149500Y-65878711D01*
X2149500Y-66121288D01*
X2181161Y-66361785D01*
X2243947Y-66596104D01*
X2336773Y-66820205D01*
X2336776Y-66820212D01*
X2458064Y-67030289D01*
X2458066Y-67030292D01*
X2458067Y-67030293D01*
X2605733Y-67222736D01*
X2605739Y-67222743D01*
X2777256Y-67394260D01*
X2777262Y-67394265D01*
X2969711Y-67541936D01*
X3179788Y-67663224D01*
X3403900Y-67756054D01*
X3638211Y-67818838D01*
X3818586Y-67842584D01*
X3878711Y-67850500D01*
X3878712Y-67850500D01*
X4121289Y-67850500D01*
X4169388Y-67844167D01*
X4361789Y-67818838D01*
X4596100Y-67756054D01*
X4820212Y-67663224D01*
X5030289Y-67541936D01*
X5222738Y-67394265D01*
X5394265Y-67222738D01*
X5541936Y-67030289D01*
X5663224Y-66820212D01*
X5756054Y-66596100D01*
X5818838Y-66361789D01*
X5850500Y-66121288D01*
X5850500Y-65878712D01*
X5850500Y-65878711D01*
X104149500Y-65878711D01*
X104149500Y-66121288D01*
X104181161Y-66361785D01*
X104243947Y-66596104D01*
X104336773Y-66820205D01*
X104336776Y-66820212D01*
X104458064Y-67030289D01*
X104458066Y-67030292D01*
X104458067Y-67030293D01*
X104605733Y-67222736D01*
X104605739Y-67222743D01*
X104777256Y-67394260D01*
X104777262Y-67394265D01*
X104969711Y-67541936D01*
X105179788Y-67663224D01*
X105403900Y-67756054D01*
X105638211Y-67818838D01*
X105818586Y-67842584D01*
X105878711Y-67850500D01*
X105878712Y-67850500D01*
X106121289Y-67850500D01*
X106169388Y-67844167D01*
X106361789Y-67818838D01*
X106596100Y-67756054D01*
X106820212Y-67663224D01*
X107030289Y-67541936D01*
X107222738Y-67394265D01*
X107394265Y-67222738D01*
X107541936Y-67030289D01*
X107663224Y-66820212D01*
X107756054Y-66596100D01*
X107818838Y-66361789D01*
X107850500Y-66121288D01*
X107850500Y-65878712D01*
X107818838Y-65638211D01*
X107756054Y-65403900D01*
X107663224Y-65179788D01*
X107541936Y-64969711D01*
X107394265Y-64777262D01*
X107394260Y-64777256D01*
X107222743Y-64605739D01*
X107222736Y-64605733D01*
X107030293Y-64458067D01*
X107030292Y-64458066D01*
X107030289Y-64458064D01*
X106820212Y-64336776D01*
X106820205Y-64336773D01*
X106596104Y-64243947D01*
X106361785Y-64181161D01*
X106121289Y-64149500D01*
X106121288Y-64149500D01*
X105878712Y-64149500D01*
X105878711Y-64149500D01*
X105638214Y-64181161D01*
X105403895Y-64243947D01*
X105179794Y-64336773D01*
X105179785Y-64336777D01*
X104969706Y-64458067D01*
X104777263Y-64605733D01*
X104777256Y-64605739D01*
X104605739Y-64777256D01*
X104605733Y-64777263D01*
X104458067Y-64969706D01*
X104336777Y-65179785D01*
X104336773Y-65179794D01*
X104243947Y-65403895D01*
X104181161Y-65638214D01*
X104149500Y-65878711D01*
X5850500Y-65878711D01*
X5818838Y-65638211D01*
X5756054Y-65403900D01*
X5663224Y-65179788D01*
X5541936Y-64969711D01*
X5394265Y-64777262D01*
X5394260Y-64777256D01*
X5222743Y-64605739D01*
X5222736Y-64605733D01*
X5030293Y-64458067D01*
X5030292Y-64458066D01*
X5030289Y-64458064D01*
X4820212Y-64336776D01*
X4820205Y-64336773D01*
X4596104Y-64243947D01*
X4361785Y-64181161D01*
X4121289Y-64149500D01*
X4121288Y-64149500D01*
X3878712Y-64149500D01*
X3878711Y-64149500D01*
X3638214Y-64181161D01*
X3403895Y-64243947D01*
X3179794Y-64336773D01*
X3179785Y-64336777D01*
X2969706Y-64458067D01*
X2777263Y-64605733D01*
X2777256Y-64605739D01*
X2605739Y-64777256D01*
X2605733Y-64777263D01*
X2458067Y-64969706D01*
X2336777Y-65179785D01*
X2336773Y-65179794D01*
X2243947Y-65403895D01*
X2181161Y-65638214D01*
X2149500Y-65878711D01*
X500500Y-65878711D01*
X500500Y-62374038D01*
X9899500Y-62374038D01*
X9899500Y-62625961D01*
X9938910Y-62874785D01*
X10016760Y-63114383D01*
X10131132Y-63338848D01*
X10279201Y-63542649D01*
X10279205Y-63542654D01*
X10457345Y-63720794D01*
X10457350Y-63720798D01*
X10635117Y-63849952D01*
X10661155Y-63868870D01*
X10804184Y-63941747D01*
X10885616Y-63983239D01*
X10885618Y-63983239D01*
X10885621Y-63983241D01*
X11125215Y-64061090D01*
X11374038Y-64100500D01*
X11374039Y-64100500D01*
X11625961Y-64100500D01*
X11625962Y-64100500D01*
X11874785Y-64061090D01*
X12114379Y-63983241D01*
X12338845Y-63868870D01*
X12542656Y-63720793D01*
X12720793Y-63542656D01*
X12868870Y-63338845D01*
X12983241Y-63114379D01*
X13061090Y-62874785D01*
X13100500Y-62625962D01*
X13100500Y-62374038D01*
X67899500Y-62374038D01*
X67899500Y-62625961D01*
X67938910Y-62874785D01*
X68016760Y-63114383D01*
X68131132Y-63338848D01*
X68279201Y-63542649D01*
X68279205Y-63542654D01*
X68457345Y-63720794D01*
X68457350Y-63720798D01*
X68635117Y-63849952D01*
X68661155Y-63868870D01*
X68804184Y-63941747D01*
X68885616Y-63983239D01*
X68885618Y-63983239D01*
X68885621Y-63983241D01*
X69125215Y-64061090D01*
X69374038Y-64100500D01*
X69374039Y-64100500D01*
X69625961Y-64100500D01*
X69625962Y-64100500D01*
X69874785Y-64061090D01*
X70114379Y-63983241D01*
X70338845Y-63868870D01*
X70542656Y-63720793D01*
X70720793Y-63542656D01*
X70868870Y-63338845D01*
X70983241Y-63114379D01*
X71061090Y-62874785D01*
X71100500Y-62625962D01*
X71100500Y-62374038D01*
X71061090Y-62125215D01*
X70983241Y-61885621D01*
X70983239Y-61885618D01*
X70983239Y-61885616D01*
X70941747Y-61804184D01*
X70868870Y-61661155D01*
X70849952Y-61635117D01*
X70720798Y-61457350D01*
X70720794Y-61457345D01*
X70542654Y-61279205D01*
X70542649Y-61279201D01*
X70338848Y-61131132D01*
X70338847Y-61131131D01*
X70338845Y-61131130D01*
X70268747Y-61095413D01*
X70114383Y-61016760D01*
X69874785Y-60938910D01*
X69625962Y-60899500D01*
X69374038Y-60899500D01*
X69249626Y-60919205D01*
X69125214Y-60938910D01*
X68885616Y-61016760D01*
X68661151Y-61131132D01*
X68457350Y-61279201D01*
X68457345Y-61279205D01*
X68279205Y-61457345D01*
X68279201Y-61457350D01*
X68131132Y-61661151D01*
X68016760Y-61885616D01*
X67938910Y-62125214D01*
X67899500Y-62374038D01*
X13100500Y-62374038D01*
X13061090Y-62125215D01*
X12983241Y-61885621D01*
X12983239Y-61885618D01*
X12983239Y-61885616D01*
X12941747Y-61804184D01*
X12868870Y-61661155D01*
X12849952Y-61635117D01*
X12720798Y-61457350D01*
X12720794Y-61457345D01*
X12542654Y-61279205D01*
X12542649Y-61279201D01*
X12338848Y-61131132D01*
X12338847Y-61131131D01*
X12338845Y-61131130D01*
X12268747Y-61095413D01*
X12114383Y-61016760D01*
X11874785Y-60938910D01*
X11625962Y-60899500D01*
X11374038Y-60899500D01*
X11249626Y-60919205D01*
X11125214Y-60938910D01*
X10885616Y-61016760D01*
X10661151Y-61131132D01*
X10457350Y-61279201D01*
X10457345Y-61279205D01*
X10279205Y-61457345D01*
X10279201Y-61457350D01*
X10131132Y-61661151D01*
X10016760Y-61885616D01*
X9938910Y-62125214D01*
X9899500Y-62374038D01*
X500500Y-62374038D01*
X500500Y-59000001D01*
X99617985Y-59000001D01*
X99623903Y-59018215D01*
X99720379Y-59207557D01*
X99845272Y-59379459D01*
X99845276Y-59379464D01*
X99995535Y-59529723D01*
X99995540Y-59529727D01*
X100167442Y-59654620D01*
X100356779Y-59751094D01*
X100356785Y-59751096D01*
X100499999Y-59797628D01*
X101500000Y-59797628D01*
X101643214Y-59751096D01*
X101643220Y-59751094D01*
X101832557Y-59654620D01*
X102004459Y-59529727D01*
X102004464Y-59529723D01*
X102154723Y-59379464D01*
X102154727Y-59379459D01*
X102279620Y-59207557D01*
X102376096Y-59018215D01*
X102382014Y-59000001D01*
X102382014Y-59000000D01*
X101500000Y-59000000D01*
X101500000Y-59797628D01*
X100499999Y-59797628D01*
X100500000Y-59797627D01*
X100500000Y-59000000D01*
X99617986Y-59000000D01*
X99617985Y-59000001D01*
X500500Y-59000001D01*
X500500Y-58437465D01*
X100525000Y-58437465D01*
X100525000Y-58562535D01*
X100557370Y-58683343D01*
X100619905Y-58791657D01*
X100708343Y-58880095D01*
X100816657Y-58942630D01*
X100937465Y-58975000D01*
X101062535Y-58975000D01*
X101183343Y-58942630D01*
X101291657Y-58880095D01*
X101380095Y-58791657D01*
X101442630Y-58683343D01*
X101475000Y-58562535D01*
X101475000Y-58437465D01*
X101442630Y-58316657D01*
X101380095Y-58208343D01*
X101291657Y-58119905D01*
X101183343Y-58057370D01*
X101062535Y-58025000D01*
X100937465Y-58025000D01*
X100816657Y-58057370D01*
X100708343Y-58119905D01*
X100619905Y-58208343D01*
X100557370Y-58316657D01*
X100525000Y-58437465D01*
X500500Y-58437465D01*
X500500Y-52848879D01*
X73049500Y-52848879D01*
X73049500Y-54151122D01*
X73049501Y-54151125D01*
X73052399Y-54193886D01*
X73052399Y-54193887D01*
X73098360Y-54378696D01*
X73182967Y-54549292D01*
X73182969Y-54549295D01*
X73302277Y-54697721D01*
X73302278Y-54697722D01*
X73450704Y-54817030D01*
X73450707Y-54817032D01*
X73621302Y-54901639D01*
X73621303Y-54901639D01*
X73621307Y-54901641D01*
X73806111Y-54947600D01*
X73848877Y-54950500D01*
X75151122Y-54950499D01*
X75193889Y-54947600D01*
X75378693Y-54901641D01*
X75549296Y-54817030D01*
X75697722Y-54697722D01*
X75817030Y-54549296D01*
X75901641Y-54378693D01*
X75947600Y-54193889D01*
X75950500Y-54151123D01*
X75950499Y-52848879D01*
X78849500Y-52848879D01*
X78849500Y-54151122D01*
X78849501Y-54151125D01*
X78852399Y-54193886D01*
X78852399Y-54193887D01*
X78898360Y-54378696D01*
X78982967Y-54549292D01*
X78982969Y-54549295D01*
X79102277Y-54697721D01*
X79102278Y-54697722D01*
X79250704Y-54817030D01*
X79250707Y-54817032D01*
X79421302Y-54901639D01*
X79421303Y-54901639D01*
X79421307Y-54901641D01*
X79606111Y-54947600D01*
X79648877Y-54950500D01*
X80951122Y-54950499D01*
X80993889Y-54947600D01*
X81178693Y-54901641D01*
X81349296Y-54817030D01*
X81497722Y-54697722D01*
X81617030Y-54549296D01*
X81701641Y-54378693D01*
X81747600Y-54193889D01*
X81750500Y-54151123D01*
X81750499Y-52848878D01*
X81747600Y-52806111D01*
X81701641Y-52621307D01*
X81644989Y-52507078D01*
X81617032Y-52450707D01*
X81617030Y-52450704D01*
X81497722Y-52302278D01*
X81497721Y-52302277D01*
X81349295Y-52182969D01*
X81349292Y-52182967D01*
X81178697Y-52098360D01*
X80993892Y-52052400D01*
X80972506Y-52050950D01*
X80951123Y-52049500D01*
X80951120Y-52049500D01*
X79648877Y-52049500D01*
X79648874Y-52049501D01*
X79606113Y-52052399D01*
X79606112Y-52052399D01*
X79421303Y-52098360D01*
X79250707Y-52182967D01*
X79250704Y-52182969D01*
X79102278Y-52302277D01*
X79102277Y-52302278D01*
X78982969Y-52450704D01*
X78982967Y-52450707D01*
X78898360Y-52621302D01*
X78852400Y-52806107D01*
X78849500Y-52848879D01*
X75950499Y-52848879D01*
X75950499Y-52848878D01*
X75947600Y-52806111D01*
X75901641Y-52621307D01*
X75844989Y-52507078D01*
X75817032Y-52450707D01*
X75817030Y-52450704D01*
X75697722Y-52302278D01*
X75697721Y-52302277D01*
X75549295Y-52182969D01*
X75549292Y-52182967D01*
X75378697Y-52098360D01*
X75193892Y-52052400D01*
X75172506Y-52050950D01*
X75151123Y-52049500D01*
X75151120Y-52049500D01*
X73848877Y-52049500D01*
X73848874Y-52049501D01*
X73806113Y-52052399D01*
X73806112Y-52052399D01*
X73621303Y-52098360D01*
X73450707Y-52182967D01*
X73450704Y-52182969D01*
X73302278Y-52302277D01*
X73302277Y-52302278D01*
X73182969Y-52450704D01*
X73182967Y-52450707D01*
X73098360Y-52621302D01*
X73052400Y-52806107D01*
X73049500Y-52848879D01*
X500500Y-52848879D01*
X500500Y-42012396D01*
X25994708Y-42012396D01*
X26011780Y-42021094D01*
X26213871Y-42086757D01*
X26423754Y-42120000D01*
X26636246Y-42120000D01*
X26846127Y-42086757D01*
X26846130Y-42086757D01*
X27048218Y-42021094D01*
X27048220Y-42021093D01*
X27065287Y-42012396D01*
X46314708Y-42012396D01*
X46331780Y-42021094D01*
X46533871Y-42086757D01*
X46743754Y-42120000D01*
X46956246Y-42120000D01*
X47166127Y-42086757D01*
X47166130Y-42086757D01*
X47368218Y-42021094D01*
X47368220Y-42021093D01*
X47385287Y-42012396D01*
X64094708Y-42012396D01*
X64111780Y-42021094D01*
X64313871Y-42086757D01*
X64523754Y-42120000D01*
X64736246Y-42120000D01*
X64946127Y-42086757D01*
X64946130Y-42086757D01*
X65148218Y-42021094D01*
X65148220Y-42021093D01*
X65165289Y-42012395D01*
X65165290Y-42012395D01*
X64630001Y-41477106D01*
X64630000Y-41477106D01*
X64094708Y-42012396D01*
X47385287Y-42012396D01*
X47385289Y-42012395D01*
X47385290Y-42012395D01*
X46850001Y-41477106D01*
X46850000Y-41477106D01*
X46314708Y-42012396D01*
X27065287Y-42012396D01*
X27065289Y-42012395D01*
X27065290Y-42012395D01*
X26530001Y-41477106D01*
X26530000Y-41477106D01*
X25994708Y-42012396D01*
X500500Y-42012396D01*
X500500Y-39374038D01*
X9899500Y-39374038D01*
X9899500Y-39625962D01*
X9918708Y-39747234D01*
X9938910Y-39874785D01*
X10016760Y-40114383D01*
X10078070Y-40234709D01*
X10128763Y-40334200D01*
X10131132Y-40338848D01*
X10279201Y-40542649D01*
X10279205Y-40542654D01*
X10457345Y-40720794D01*
X10457350Y-40720798D01*
X10589803Y-40817030D01*
X10661155Y-40868870D01*
X10775493Y-40927128D01*
X10885616Y-40983239D01*
X10885618Y-40983239D01*
X10885621Y-40983241D01*
X11125215Y-41061090D01*
X11374038Y-41100500D01*
X11374039Y-41100500D01*
X11625961Y-41100500D01*
X11625962Y-41100500D01*
X11874785Y-41061090D01*
X12114379Y-40983241D01*
X12338845Y-40868870D01*
X12542656Y-40720793D01*
X12720793Y-40542656D01*
X12868870Y-40338845D01*
X12983241Y-40114379D01*
X13061090Y-39874785D01*
X13100500Y-39625962D01*
X13100500Y-39374038D01*
X13061090Y-39125215D01*
X12983241Y-38885621D01*
X12983239Y-38885618D01*
X12983239Y-38885616D01*
X12913234Y-38748225D01*
X12868870Y-38661155D01*
X12791790Y-38555063D01*
X12720798Y-38457350D01*
X12720794Y-38457345D01*
X12542654Y-38279205D01*
X12542649Y-38279201D01*
X12481674Y-38234900D01*
X12350294Y-38139448D01*
X15219500Y-38139448D01*
X15219500Y-38320551D01*
X15247829Y-38499410D01*
X15303787Y-38671636D01*
X15303788Y-38671639D01*
X15351506Y-38765289D01*
X15372307Y-38806113D01*
X15386006Y-38832997D01*
X15492441Y-38979494D01*
X15492445Y-38979499D01*
X15620500Y-39107554D01*
X15620505Y-39107558D01*
X15693153Y-39160339D01*
X15767006Y-39213996D01*
X15854705Y-39258681D01*
X15928360Y-39296211D01*
X15928363Y-39296212D01*
X15944411Y-39301426D01*
X16100591Y-39352171D01*
X16204716Y-39368662D01*
X16232270Y-39373027D01*
X16295405Y-39402956D01*
X16332336Y-39462268D01*
X16331338Y-39532130D01*
X16292728Y-39590363D01*
X16228765Y-39618477D01*
X16212872Y-39619500D01*
X15475143Y-39619500D01*
X15475117Y-39619502D01*
X15450012Y-39622413D01*
X15450008Y-39622415D01*
X15347235Y-39667793D01*
X15267794Y-39747234D01*
X15222415Y-39850006D01*
X15222415Y-39850008D01*
X15219500Y-39875131D01*
X15219500Y-41664856D01*
X15219502Y-41664882D01*
X15222413Y-41689987D01*
X15222415Y-41689991D01*
X15267793Y-41792764D01*
X15267794Y-41792765D01*
X15347235Y-41872206D01*
X15450009Y-41917585D01*
X15475135Y-41920500D01*
X17264864Y-41920499D01*
X17264879Y-41920497D01*
X17264882Y-41920497D01*
X17289987Y-41917586D01*
X17289988Y-41917585D01*
X17289991Y-41917585D01*
X17392765Y-41872206D01*
X17472206Y-41792765D01*
X17517585Y-41689991D01*
X17520500Y-41664865D01*
X17520499Y-40927125D01*
X17540183Y-40860089D01*
X17592987Y-40814334D01*
X17662146Y-40804390D01*
X17725702Y-40833415D01*
X17763476Y-40892193D01*
X17766972Y-40907729D01*
X17787829Y-41039410D01*
X17843787Y-41211636D01*
X17843788Y-41211639D01*
X17926006Y-41372997D01*
X18032441Y-41519494D01*
X18032445Y-41519499D01*
X18160500Y-41647554D01*
X18160505Y-41647558D01*
X18274789Y-41730589D01*
X18307006Y-41753996D01*
X18383094Y-41792765D01*
X18468360Y-41836211D01*
X18468363Y-41836212D01*
X18515293Y-41851460D01*
X18640591Y-41892171D01*
X18723429Y-41905291D01*
X18819449Y-41920500D01*
X18819454Y-41920500D01*
X19000551Y-41920500D01*
X19087259Y-41906765D01*
X19179409Y-41892171D01*
X19351639Y-41836211D01*
X19512994Y-41753996D01*
X19659501Y-41647553D01*
X19787553Y-41519501D01*
X19893996Y-41372994D01*
X19976211Y-41211639D01*
X20032171Y-41039409D01*
X20046712Y-40947599D01*
X20057527Y-40879321D01*
X20087456Y-40816186D01*
X20146768Y-40779255D01*
X20216630Y-40780253D01*
X20274863Y-40818863D01*
X20302473Y-40879321D01*
X20327829Y-41039410D01*
X20383787Y-41211636D01*
X20383788Y-41211639D01*
X20466006Y-41372997D01*
X20572441Y-41519494D01*
X20572445Y-41519499D01*
X20700500Y-41647554D01*
X20700505Y-41647558D01*
X20814789Y-41730589D01*
X20847006Y-41753996D01*
X20923094Y-41792765D01*
X21008360Y-41836211D01*
X21008363Y-41836212D01*
X21055293Y-41851460D01*
X21180591Y-41892171D01*
X21263429Y-41905291D01*
X21359449Y-41920500D01*
X21359454Y-41920500D01*
X21540551Y-41920500D01*
X21627259Y-41906765D01*
X21719409Y-41892171D01*
X21891639Y-41836211D01*
X22052994Y-41753996D01*
X22199501Y-41647553D01*
X22327553Y-41519501D01*
X22433996Y-41372994D01*
X22516211Y-41211639D01*
X22572171Y-41039409D01*
X22586712Y-40947599D01*
X22597527Y-40879321D01*
X22627456Y-40816186D01*
X22686768Y-40779255D01*
X22756630Y-40780253D01*
X22814863Y-40818863D01*
X22842473Y-40879321D01*
X22867829Y-41039410D01*
X22923787Y-41211636D01*
X22923788Y-41211639D01*
X23006006Y-41372997D01*
X23112441Y-41519494D01*
X23112445Y-41519499D01*
X23240500Y-41647554D01*
X23240505Y-41647558D01*
X23354789Y-41730589D01*
X23387006Y-41753996D01*
X23463094Y-41792765D01*
X23548360Y-41836211D01*
X23548363Y-41836212D01*
X23595293Y-41851460D01*
X23720591Y-41892171D01*
X23803429Y-41905291D01*
X23899449Y-41920500D01*
X23899454Y-41920500D01*
X24080551Y-41920500D01*
X24188120Y-41903462D01*
X24259409Y-41892171D01*
X24384707Y-41851460D01*
X24384708Y-41851460D01*
X24431636Y-41836212D01*
X24431639Y-41836211D01*
X24592994Y-41753996D01*
X24739501Y-41647553D01*
X24867553Y-41519501D01*
X24973996Y-41372994D01*
X25041091Y-41241312D01*
X25089064Y-41190518D01*
X25156885Y-41173723D01*
X25223020Y-41196260D01*
X25266472Y-41250975D01*
X25269506Y-41259291D01*
X25278903Y-41288213D01*
X25278908Y-41288225D01*
X25287602Y-41305289D01*
X25287603Y-41305290D01*
X25822894Y-40770000D01*
X25757068Y-40704174D01*
X26030000Y-40704174D01*
X26030000Y-40835826D01*
X26064075Y-40962993D01*
X26129901Y-41077007D01*
X26222993Y-41170099D01*
X26337007Y-41235925D01*
X26464174Y-41270000D01*
X26595826Y-41270000D01*
X26722993Y-41235925D01*
X26837007Y-41170099D01*
X26930099Y-41077007D01*
X26995925Y-40962993D01*
X27030000Y-40835826D01*
X27030000Y-40704174D01*
X26995925Y-40577007D01*
X26930099Y-40462993D01*
X26837007Y-40369901D01*
X26722993Y-40304075D01*
X26595826Y-40270000D01*
X26464174Y-40270000D01*
X26337007Y-40304075D01*
X26222993Y-40369901D01*
X26129901Y-40462993D01*
X26064075Y-40577007D01*
X26030000Y-40704174D01*
X25757068Y-40704174D01*
X25287603Y-40234709D01*
X25278903Y-40251785D01*
X25269505Y-40280710D01*
X25230067Y-40338385D01*
X25165708Y-40365582D01*
X25096861Y-40353666D01*
X25045387Y-40306421D01*
X25041090Y-40298685D01*
X25017191Y-40251781D01*
X24973996Y-40167006D01*
X24956624Y-40143096D01*
X24867558Y-40020505D01*
X24867554Y-40020500D01*
X24739499Y-39892445D01*
X24739494Y-39892441D01*
X24592997Y-39786006D01*
X24592996Y-39786005D01*
X24592994Y-39786004D01*
X24516906Y-39747235D01*
X24431639Y-39703788D01*
X24431636Y-39703787D01*
X24259410Y-39647829D01*
X24099321Y-39622473D01*
X24036186Y-39592544D01*
X23999255Y-39533232D01*
X24000253Y-39463370D01*
X24038863Y-39405137D01*
X24099321Y-39377527D01*
X24169425Y-39366422D01*
X24259409Y-39352171D01*
X24431639Y-39296211D01*
X24592994Y-39213996D01*
X24739501Y-39107553D01*
X24867553Y-38979501D01*
X24973996Y-38832994D01*
X25056211Y-38671639D01*
X25056553Y-38670588D01*
X25061208Y-38656260D01*
X25112171Y-38499409D01*
X25134232Y-38360122D01*
X25137527Y-38339321D01*
X25167456Y-38276186D01*
X25226768Y-38239255D01*
X25296630Y-38240253D01*
X25354863Y-38278863D01*
X25382473Y-38339321D01*
X25407829Y-38499410D01*
X25463787Y-38671636D01*
X25463788Y-38671639D01*
X25511506Y-38765289D01*
X25532307Y-38806113D01*
X25546006Y-38832997D01*
X25652441Y-38979494D01*
X25652445Y-38979499D01*
X25780500Y-39107554D01*
X25780505Y-39107558D01*
X25853153Y-39160339D01*
X25927006Y-39213996D01*
X26058685Y-39281090D01*
X26109481Y-39329065D01*
X26126276Y-39396886D01*
X26103738Y-39463021D01*
X26049023Y-39506472D01*
X26040710Y-39509505D01*
X26011785Y-39518903D01*
X25994709Y-39527603D01*
X26530000Y-40062894D01*
X26530001Y-40062894D01*
X27065290Y-39527603D01*
X27065289Y-39527602D01*
X27048225Y-39518908D01*
X27048213Y-39518903D01*
X27019291Y-39509506D01*
X26961615Y-39470068D01*
X26934417Y-39405710D01*
X26946332Y-39336863D01*
X26993576Y-39285388D01*
X27001297Y-39281098D01*
X27132994Y-39213996D01*
X27279501Y-39107553D01*
X27407553Y-38979501D01*
X27513996Y-38832994D01*
X27596211Y-38671639D01*
X27596553Y-38670588D01*
X27601208Y-38656260D01*
X27652171Y-38499409D01*
X27674232Y-38360122D01*
X27677527Y-38339321D01*
X27707456Y-38276186D01*
X27766768Y-38239255D01*
X27836630Y-38240253D01*
X27894863Y-38278863D01*
X27922473Y-38339321D01*
X27947829Y-38499410D01*
X28003787Y-38671636D01*
X28003788Y-38671639D01*
X28051506Y-38765289D01*
X28072307Y-38806113D01*
X28086006Y-38832997D01*
X28192441Y-38979494D01*
X28192445Y-38979499D01*
X28320500Y-39107554D01*
X28320505Y-39107558D01*
X28393153Y-39160339D01*
X28467006Y-39213996D01*
X28554705Y-39258681D01*
X28628360Y-39296211D01*
X28628363Y-39296212D01*
X28644411Y-39301426D01*
X28800591Y-39352171D01*
X28873639Y-39363740D01*
X28960678Y-39377527D01*
X29023813Y-39407456D01*
X29060744Y-39466768D01*
X29059746Y-39536631D01*
X29021136Y-39594863D01*
X28960678Y-39622473D01*
X28800589Y-39647829D01*
X28628363Y-39703787D01*
X28628360Y-39703788D01*
X28467002Y-39786006D01*
X28320505Y-39892441D01*
X28320500Y-39892445D01*
X28192445Y-40020500D01*
X28192441Y-40020505D01*
X28086004Y-40167004D01*
X28018908Y-40298686D01*
X27970934Y-40349481D01*
X27903113Y-40366276D01*
X27836978Y-40343738D01*
X27793527Y-40289023D01*
X27790492Y-40280706D01*
X27781093Y-40251778D01*
X27772396Y-40234708D01*
X27237106Y-40769999D01*
X27237106Y-40770001D01*
X27772395Y-41305290D01*
X27772395Y-41305289D01*
X27781093Y-41288220D01*
X27781095Y-41288215D01*
X27790493Y-41259292D01*
X27829930Y-41201616D01*
X27894288Y-41174417D01*
X27963135Y-41186331D01*
X28014611Y-41233575D01*
X28018909Y-41241314D01*
X28086006Y-41372997D01*
X28192441Y-41519494D01*
X28192445Y-41519499D01*
X28320500Y-41647554D01*
X28320505Y-41647558D01*
X28434789Y-41730589D01*
X28467006Y-41753996D01*
X28543094Y-41792765D01*
X28628360Y-41836211D01*
X28628363Y-41836212D01*
X28675293Y-41851460D01*
X28800591Y-41892171D01*
X28883429Y-41905291D01*
X28979449Y-41920500D01*
X28979454Y-41920500D01*
X29160551Y-41920500D01*
X29247259Y-41906765D01*
X29339409Y-41892171D01*
X29511639Y-41836211D01*
X29672994Y-41753996D01*
X29819501Y-41647553D01*
X29947553Y-41519501D01*
X30053996Y-41372994D01*
X30136211Y-41211639D01*
X30192171Y-41039409D01*
X30206712Y-40947599D01*
X30217527Y-40879321D01*
X30247456Y-40816186D01*
X30306768Y-40779255D01*
X30376630Y-40780253D01*
X30434863Y-40818863D01*
X30462473Y-40879321D01*
X30487829Y-41039410D01*
X30543787Y-41211636D01*
X30543788Y-41211639D01*
X30626006Y-41372997D01*
X30732441Y-41519494D01*
X30732445Y-41519499D01*
X30860500Y-41647554D01*
X30860505Y-41647558D01*
X30974789Y-41730589D01*
X31007006Y-41753996D01*
X31083094Y-41792765D01*
X31168360Y-41836211D01*
X31168363Y-41836212D01*
X31215293Y-41851460D01*
X31340591Y-41892171D01*
X31423429Y-41905291D01*
X31519449Y-41920500D01*
X31519454Y-41920500D01*
X31700551Y-41920500D01*
X31787259Y-41906765D01*
X31879409Y-41892171D01*
X32051639Y-41836211D01*
X32212994Y-41753996D01*
X32359501Y-41647553D01*
X32487553Y-41519501D01*
X32593996Y-41372994D01*
X32676211Y-41211639D01*
X32732171Y-41039409D01*
X32746712Y-40947599D01*
X32757527Y-40879321D01*
X32787456Y-40816186D01*
X32846768Y-40779255D01*
X32916630Y-40780253D01*
X32974863Y-40818863D01*
X33002473Y-40879321D01*
X33027829Y-41039410D01*
X33083787Y-41211636D01*
X33083788Y-41211639D01*
X33166006Y-41372997D01*
X33272441Y-41519494D01*
X33272445Y-41519499D01*
X33400500Y-41647554D01*
X33400505Y-41647558D01*
X33514789Y-41730589D01*
X33547006Y-41753996D01*
X33623094Y-41792765D01*
X33708360Y-41836211D01*
X33708363Y-41836212D01*
X33755293Y-41851460D01*
X33880591Y-41892171D01*
X33963429Y-41905291D01*
X34059449Y-41920500D01*
X34059454Y-41920500D01*
X34240551Y-41920500D01*
X34327259Y-41906765D01*
X34419409Y-41892171D01*
X34591639Y-41836211D01*
X34752994Y-41753996D01*
X34899501Y-41647553D01*
X35027553Y-41519501D01*
X35133996Y-41372994D01*
X35216211Y-41211639D01*
X35272171Y-41039409D01*
X35286712Y-40947599D01*
X35297527Y-40879321D01*
X35327456Y-40816186D01*
X35386768Y-40779255D01*
X35456630Y-40780253D01*
X35514863Y-40818863D01*
X35542473Y-40879321D01*
X35567829Y-41039410D01*
X35623787Y-41211636D01*
X35623788Y-41211639D01*
X35706006Y-41372997D01*
X35812441Y-41519494D01*
X35812445Y-41519499D01*
X35940500Y-41647554D01*
X35940505Y-41647558D01*
X36054789Y-41730589D01*
X36087006Y-41753996D01*
X36163094Y-41792765D01*
X36248360Y-41836211D01*
X36248363Y-41836212D01*
X36295293Y-41851460D01*
X36420591Y-41892171D01*
X36503429Y-41905291D01*
X36599449Y-41920500D01*
X36599454Y-41920500D01*
X36780551Y-41920500D01*
X36867259Y-41906765D01*
X36959409Y-41892171D01*
X37131639Y-41836211D01*
X37292994Y-41753996D01*
X37439501Y-41647553D01*
X37567553Y-41519501D01*
X37673996Y-41372994D01*
X37756211Y-41211639D01*
X37812171Y-41039409D01*
X37826712Y-40947599D01*
X37837527Y-40879321D01*
X37867456Y-40816186D01*
X37926768Y-40779255D01*
X37996630Y-40780253D01*
X38054863Y-40818863D01*
X38082473Y-40879321D01*
X38107829Y-41039410D01*
X38163787Y-41211636D01*
X38163788Y-41211639D01*
X38246006Y-41372997D01*
X38352441Y-41519494D01*
X38352445Y-41519499D01*
X38480500Y-41647554D01*
X38480505Y-41647558D01*
X38594789Y-41730589D01*
X38627006Y-41753996D01*
X38703094Y-41792765D01*
X38788360Y-41836211D01*
X38788363Y-41836212D01*
X38835293Y-41851460D01*
X38960591Y-41892171D01*
X39043429Y-41905291D01*
X39139449Y-41920500D01*
X39139454Y-41920500D01*
X39320551Y-41920500D01*
X39407259Y-41906765D01*
X39499409Y-41892171D01*
X39671639Y-41836211D01*
X39832994Y-41753996D01*
X39979501Y-41647553D01*
X40107553Y-41519501D01*
X40213996Y-41372994D01*
X40296211Y-41211639D01*
X40352171Y-41039409D01*
X40366712Y-40947599D01*
X40377527Y-40879321D01*
X40407456Y-40816186D01*
X40466768Y-40779255D01*
X40536630Y-40780253D01*
X40594863Y-40818863D01*
X40622473Y-40879321D01*
X40647829Y-41039410D01*
X40703787Y-41211636D01*
X40703788Y-41211639D01*
X40786006Y-41372997D01*
X40892441Y-41519494D01*
X40892445Y-41519499D01*
X41020500Y-41647554D01*
X41020505Y-41647558D01*
X41134789Y-41730589D01*
X41167006Y-41753996D01*
X41243094Y-41792765D01*
X41328360Y-41836211D01*
X41328363Y-41836212D01*
X41375293Y-41851460D01*
X41500591Y-41892171D01*
X41583429Y-41905291D01*
X41679449Y-41920500D01*
X41679454Y-41920500D01*
X41860551Y-41920500D01*
X41947259Y-41906765D01*
X42039409Y-41892171D01*
X42211639Y-41836211D01*
X42372994Y-41753996D01*
X42519501Y-41647553D01*
X42647553Y-41519501D01*
X42753996Y-41372994D01*
X42836211Y-41211639D01*
X42892171Y-41039409D01*
X42906712Y-40947599D01*
X42917527Y-40879321D01*
X42947456Y-40816186D01*
X43006768Y-40779255D01*
X43076630Y-40780253D01*
X43134863Y-40818863D01*
X43162473Y-40879321D01*
X43187829Y-41039410D01*
X43243787Y-41211636D01*
X43243788Y-41211639D01*
X43326006Y-41372997D01*
X43432441Y-41519494D01*
X43432445Y-41519499D01*
X43560500Y-41647554D01*
X43560505Y-41647558D01*
X43674789Y-41730589D01*
X43707006Y-41753996D01*
X43783094Y-41792765D01*
X43868360Y-41836211D01*
X43868363Y-41836212D01*
X43915293Y-41851460D01*
X44040591Y-41892171D01*
X44123429Y-41905291D01*
X44219449Y-41920500D01*
X44219454Y-41920500D01*
X44400551Y-41920500D01*
X44508120Y-41903462D01*
X44579409Y-41892171D01*
X44704707Y-41851460D01*
X44704708Y-41851460D01*
X44751636Y-41836212D01*
X44751639Y-41836211D01*
X44912994Y-41753996D01*
X45059501Y-41647553D01*
X45187553Y-41519501D01*
X45293996Y-41372994D01*
X45361091Y-41241312D01*
X45409064Y-41190518D01*
X45476885Y-41173723D01*
X45543020Y-41196260D01*
X45586472Y-41250975D01*
X45589506Y-41259291D01*
X45598903Y-41288213D01*
X45598908Y-41288225D01*
X45607602Y-41305289D01*
X45607603Y-41305290D01*
X46142894Y-40770000D01*
X46077068Y-40704174D01*
X46350000Y-40704174D01*
X46350000Y-40835826D01*
X46384075Y-40962993D01*
X46449901Y-41077007D01*
X46542993Y-41170099D01*
X46657007Y-41235925D01*
X46784174Y-41270000D01*
X46915826Y-41270000D01*
X47042993Y-41235925D01*
X47157007Y-41170099D01*
X47250099Y-41077007D01*
X47315925Y-40962993D01*
X47350000Y-40835826D01*
X47350000Y-40704174D01*
X47315925Y-40577007D01*
X47250099Y-40462993D01*
X47157007Y-40369901D01*
X47042993Y-40304075D01*
X46915826Y-40270000D01*
X46784174Y-40270000D01*
X46657007Y-40304075D01*
X46542993Y-40369901D01*
X46449901Y-40462993D01*
X46384075Y-40577007D01*
X46350000Y-40704174D01*
X46077068Y-40704174D01*
X45607603Y-40234709D01*
X45598903Y-40251785D01*
X45589505Y-40280710D01*
X45550067Y-40338385D01*
X45485708Y-40365582D01*
X45416861Y-40353666D01*
X45365387Y-40306421D01*
X45361090Y-40298685D01*
X45337191Y-40251781D01*
X45293996Y-40167006D01*
X45276624Y-40143096D01*
X45187558Y-40020505D01*
X45187554Y-40020500D01*
X45059499Y-39892445D01*
X45059494Y-39892441D01*
X44912997Y-39786006D01*
X44912996Y-39786005D01*
X44912994Y-39786004D01*
X44836906Y-39747235D01*
X44751639Y-39703788D01*
X44751636Y-39703787D01*
X44579410Y-39647829D01*
X44419321Y-39622473D01*
X44356186Y-39592544D01*
X44319255Y-39533232D01*
X44320253Y-39463370D01*
X44358863Y-39405137D01*
X44419321Y-39377527D01*
X44489425Y-39366422D01*
X44579409Y-39352171D01*
X44751639Y-39296211D01*
X44912994Y-39213996D01*
X45059501Y-39107553D01*
X45187553Y-38979501D01*
X45293996Y-38832994D01*
X45376211Y-38671639D01*
X45376553Y-38670588D01*
X45381208Y-38656260D01*
X45432171Y-38499409D01*
X45454232Y-38360122D01*
X45457527Y-38339321D01*
X45487456Y-38276186D01*
X45546768Y-38239255D01*
X45616630Y-38240253D01*
X45674863Y-38278863D01*
X45702473Y-38339321D01*
X45727829Y-38499410D01*
X45783787Y-38671636D01*
X45783788Y-38671639D01*
X45831506Y-38765289D01*
X45852307Y-38806113D01*
X45866006Y-38832997D01*
X45972441Y-38979494D01*
X45972445Y-38979499D01*
X46100500Y-39107554D01*
X46100505Y-39107558D01*
X46173153Y-39160339D01*
X46247006Y-39213996D01*
X46378685Y-39281090D01*
X46429481Y-39329065D01*
X46446276Y-39396886D01*
X46423738Y-39463021D01*
X46369023Y-39506472D01*
X46360710Y-39509505D01*
X46331785Y-39518903D01*
X46314709Y-39527603D01*
X46850000Y-40062894D01*
X46850001Y-40062894D01*
X47385290Y-39527603D01*
X47385289Y-39527602D01*
X47368225Y-39518908D01*
X47368213Y-39518903D01*
X47339291Y-39509506D01*
X47281615Y-39470068D01*
X47254417Y-39405710D01*
X47266332Y-39336863D01*
X47313576Y-39285388D01*
X47321297Y-39281098D01*
X47452994Y-39213996D01*
X47599501Y-39107553D01*
X47727553Y-38979501D01*
X47833996Y-38832994D01*
X47916211Y-38671639D01*
X47916553Y-38670588D01*
X47921208Y-38656260D01*
X47972171Y-38499409D01*
X47994232Y-38360122D01*
X47997527Y-38339321D01*
X48027456Y-38276186D01*
X48086768Y-38239255D01*
X48156630Y-38240253D01*
X48214863Y-38278863D01*
X48242473Y-38339321D01*
X48267829Y-38499410D01*
X48323787Y-38671636D01*
X48323788Y-38671639D01*
X48371506Y-38765289D01*
X48392307Y-38806113D01*
X48406006Y-38832997D01*
X48512441Y-38979494D01*
X48512445Y-38979499D01*
X48640500Y-39107554D01*
X48640505Y-39107558D01*
X48713153Y-39160339D01*
X48787006Y-39213996D01*
X48874705Y-39258681D01*
X48948360Y-39296211D01*
X48948363Y-39296212D01*
X48964411Y-39301426D01*
X49120591Y-39352171D01*
X49193639Y-39363740D01*
X49280678Y-39377527D01*
X49343813Y-39407456D01*
X49380744Y-39466768D01*
X49379746Y-39536631D01*
X49341136Y-39594863D01*
X49280678Y-39622473D01*
X49120589Y-39647829D01*
X48948363Y-39703787D01*
X48948360Y-39703788D01*
X48787002Y-39786006D01*
X48640505Y-39892441D01*
X48640500Y-39892445D01*
X48512445Y-40020500D01*
X48512441Y-40020505D01*
X48406004Y-40167004D01*
X48338908Y-40298686D01*
X48290934Y-40349481D01*
X48223113Y-40366276D01*
X48156978Y-40343738D01*
X48113527Y-40289023D01*
X48110492Y-40280706D01*
X48101093Y-40251778D01*
X48092396Y-40234708D01*
X47557106Y-40769999D01*
X47557106Y-40770000D01*
X48092395Y-41305290D01*
X48092395Y-41305289D01*
X48101093Y-41288220D01*
X48101095Y-41288215D01*
X48110493Y-41259292D01*
X48149930Y-41201616D01*
X48214288Y-41174417D01*
X48283135Y-41186331D01*
X48334611Y-41233575D01*
X48338909Y-41241314D01*
X48406006Y-41372997D01*
X48512441Y-41519494D01*
X48512445Y-41519499D01*
X48640500Y-41647554D01*
X48640505Y-41647558D01*
X48754789Y-41730589D01*
X48787006Y-41753996D01*
X48863094Y-41792765D01*
X48948360Y-41836211D01*
X48948363Y-41836212D01*
X48995293Y-41851460D01*
X49120591Y-41892171D01*
X49203429Y-41905291D01*
X49299449Y-41920500D01*
X49299454Y-41920500D01*
X49480551Y-41920500D01*
X49567259Y-41906765D01*
X49659409Y-41892171D01*
X49831639Y-41836211D01*
X49992994Y-41753996D01*
X50139501Y-41647553D01*
X50267553Y-41519501D01*
X50373996Y-41372994D01*
X50456211Y-41211639D01*
X50512171Y-41039409D01*
X50526712Y-40947599D01*
X50537527Y-40879321D01*
X50567456Y-40816186D01*
X50626768Y-40779255D01*
X50696630Y-40780253D01*
X50754863Y-40818863D01*
X50782473Y-40879321D01*
X50807829Y-41039410D01*
X50863787Y-41211636D01*
X50863788Y-41211639D01*
X50946006Y-41372997D01*
X51052441Y-41519494D01*
X51052445Y-41519499D01*
X51180500Y-41647554D01*
X51180505Y-41647558D01*
X51294789Y-41730589D01*
X51327006Y-41753996D01*
X51403094Y-41792765D01*
X51488360Y-41836211D01*
X51488363Y-41836212D01*
X51535293Y-41851460D01*
X51660591Y-41892171D01*
X51743429Y-41905291D01*
X51839449Y-41920500D01*
X51839454Y-41920500D01*
X52020551Y-41920500D01*
X52107259Y-41906765D01*
X52199409Y-41892171D01*
X52371639Y-41836211D01*
X52532994Y-41753996D01*
X52679501Y-41647553D01*
X52807553Y-41519501D01*
X52913996Y-41372994D01*
X52996211Y-41211639D01*
X53052171Y-41039409D01*
X53066712Y-40947599D01*
X53077527Y-40879321D01*
X53107456Y-40816186D01*
X53166768Y-40779255D01*
X53236630Y-40780253D01*
X53294863Y-40818863D01*
X53322473Y-40879321D01*
X53347829Y-41039410D01*
X53403787Y-41211636D01*
X53403788Y-41211639D01*
X53486006Y-41372997D01*
X53592441Y-41519494D01*
X53592445Y-41519499D01*
X53720500Y-41647554D01*
X53720505Y-41647558D01*
X53834789Y-41730589D01*
X53867006Y-41753996D01*
X53943094Y-41792765D01*
X54028360Y-41836211D01*
X54028363Y-41836212D01*
X54075293Y-41851460D01*
X54200591Y-41892171D01*
X54283429Y-41905291D01*
X54379449Y-41920500D01*
X54379454Y-41920500D01*
X54560551Y-41920500D01*
X54647259Y-41906765D01*
X54739409Y-41892171D01*
X54911639Y-41836211D01*
X55072994Y-41753996D01*
X55219501Y-41647553D01*
X55347553Y-41519501D01*
X55453996Y-41372994D01*
X55536211Y-41211639D01*
X55592171Y-41039409D01*
X55606712Y-40947599D01*
X55617527Y-40879321D01*
X55647456Y-40816186D01*
X55706768Y-40779255D01*
X55776630Y-40780253D01*
X55834863Y-40818863D01*
X55862473Y-40879321D01*
X55887829Y-41039410D01*
X55943787Y-41211636D01*
X55943788Y-41211639D01*
X56026006Y-41372997D01*
X56132441Y-41519494D01*
X56132445Y-41519499D01*
X56260500Y-41647554D01*
X56260505Y-41647558D01*
X56374789Y-41730589D01*
X56407006Y-41753996D01*
X56483094Y-41792765D01*
X56568360Y-41836211D01*
X56568363Y-41836212D01*
X56615293Y-41851460D01*
X56740591Y-41892171D01*
X56823429Y-41905291D01*
X56919449Y-41920500D01*
X56919454Y-41920500D01*
X57100551Y-41920500D01*
X57187259Y-41906765D01*
X57279409Y-41892171D01*
X57451639Y-41836211D01*
X57612994Y-41753996D01*
X57759501Y-41647553D01*
X57887553Y-41519501D01*
X57993996Y-41372994D01*
X58076211Y-41211639D01*
X58132171Y-41039409D01*
X58146712Y-40947599D01*
X58157527Y-40879321D01*
X58187456Y-40816186D01*
X58246768Y-40779255D01*
X58316630Y-40780253D01*
X58374863Y-40818863D01*
X58402473Y-40879321D01*
X58427829Y-41039410D01*
X58483787Y-41211636D01*
X58483788Y-41211639D01*
X58566006Y-41372997D01*
X58672441Y-41519494D01*
X58672445Y-41519499D01*
X58800500Y-41647554D01*
X58800505Y-41647558D01*
X58914789Y-41730589D01*
X58947006Y-41753996D01*
X59023094Y-41792765D01*
X59108360Y-41836211D01*
X59108363Y-41836212D01*
X59155293Y-41851460D01*
X59280591Y-41892171D01*
X59363429Y-41905291D01*
X59459449Y-41920500D01*
X59459454Y-41920500D01*
X59640551Y-41920500D01*
X59727259Y-41906765D01*
X59819409Y-41892171D01*
X59991639Y-41836211D01*
X60152994Y-41753996D01*
X60299501Y-41647553D01*
X60427553Y-41519501D01*
X60533996Y-41372994D01*
X60616211Y-41211639D01*
X60672171Y-41039409D01*
X60686712Y-40947599D01*
X60697527Y-40879321D01*
X60727456Y-40816186D01*
X60786768Y-40779255D01*
X60856630Y-40780253D01*
X60914863Y-40818863D01*
X60942473Y-40879321D01*
X60967829Y-41039410D01*
X61023787Y-41211636D01*
X61023788Y-41211639D01*
X61106006Y-41372997D01*
X61212441Y-41519494D01*
X61212445Y-41519499D01*
X61340500Y-41647554D01*
X61340505Y-41647558D01*
X61454789Y-41730589D01*
X61487006Y-41753996D01*
X61563094Y-41792765D01*
X61648360Y-41836211D01*
X61648363Y-41836212D01*
X61695293Y-41851460D01*
X61820591Y-41892171D01*
X61903429Y-41905291D01*
X61999449Y-41920500D01*
X61999454Y-41920500D01*
X62180551Y-41920500D01*
X62288120Y-41903462D01*
X62359409Y-41892171D01*
X62484707Y-41851460D01*
X62484708Y-41851460D01*
X62531636Y-41836212D01*
X62531639Y-41836211D01*
X62692994Y-41753996D01*
X62839501Y-41647553D01*
X62967553Y-41519501D01*
X63073996Y-41372994D01*
X63141091Y-41241312D01*
X63189064Y-41190518D01*
X63256885Y-41173723D01*
X63323020Y-41196260D01*
X63366472Y-41250975D01*
X63369506Y-41259291D01*
X63378903Y-41288213D01*
X63378908Y-41288225D01*
X63387602Y-41305289D01*
X63387603Y-41305290D01*
X63922894Y-40770000D01*
X63857068Y-40704174D01*
X64130000Y-40704174D01*
X64130000Y-40835826D01*
X64164075Y-40962993D01*
X64229901Y-41077007D01*
X64322993Y-41170099D01*
X64437007Y-41235925D01*
X64564174Y-41270000D01*
X64695826Y-41270000D01*
X64822993Y-41235925D01*
X64937007Y-41170099D01*
X65030099Y-41077007D01*
X65095925Y-40962993D01*
X65130000Y-40835826D01*
X65130000Y-40769999D01*
X65337106Y-40769999D01*
X65337106Y-40770001D01*
X65872395Y-41305290D01*
X65872395Y-41305289D01*
X65881093Y-41288220D01*
X65881094Y-41288218D01*
X65946757Y-41086130D01*
X65946757Y-41086127D01*
X65980000Y-40876246D01*
X65980000Y-40663753D01*
X65946757Y-40453872D01*
X65946757Y-40453869D01*
X65881094Y-40251781D01*
X65881094Y-40251780D01*
X65872396Y-40234708D01*
X65337106Y-40769999D01*
X65130000Y-40769999D01*
X65130000Y-40704174D01*
X65095925Y-40577007D01*
X65030099Y-40462993D01*
X64937007Y-40369901D01*
X64822993Y-40304075D01*
X64695826Y-40270000D01*
X64564174Y-40270000D01*
X64437007Y-40304075D01*
X64322993Y-40369901D01*
X64229901Y-40462993D01*
X64164075Y-40577007D01*
X64130000Y-40704174D01*
X63857068Y-40704174D01*
X63387603Y-40234709D01*
X63378903Y-40251785D01*
X63369505Y-40280710D01*
X63330067Y-40338385D01*
X63265708Y-40365582D01*
X63196861Y-40353666D01*
X63145387Y-40306421D01*
X63141090Y-40298685D01*
X63117191Y-40251781D01*
X63073996Y-40167006D01*
X63056624Y-40143096D01*
X62967558Y-40020505D01*
X62967554Y-40020500D01*
X62839499Y-39892445D01*
X62839494Y-39892441D01*
X62692997Y-39786006D01*
X62692996Y-39786005D01*
X62692994Y-39786004D01*
X62616906Y-39747235D01*
X62531639Y-39703788D01*
X62531636Y-39703787D01*
X62359410Y-39647829D01*
X62199321Y-39622473D01*
X62136186Y-39592544D01*
X62099255Y-39533232D01*
X62100253Y-39463370D01*
X62138863Y-39405137D01*
X62199321Y-39377527D01*
X62269425Y-39366422D01*
X62359409Y-39352171D01*
X62531639Y-39296211D01*
X62692994Y-39213996D01*
X62839501Y-39107553D01*
X62967553Y-38979501D01*
X63073996Y-38832994D01*
X63156211Y-38671639D01*
X63156553Y-38670588D01*
X63161208Y-38656260D01*
X63212171Y-38499409D01*
X63234232Y-38360122D01*
X63237527Y-38339321D01*
X63267456Y-38276186D01*
X63326768Y-38239255D01*
X63396630Y-38240253D01*
X63454863Y-38278863D01*
X63482473Y-38339321D01*
X63507829Y-38499410D01*
X63563787Y-38671636D01*
X63563788Y-38671639D01*
X63611506Y-38765289D01*
X63632307Y-38806113D01*
X63646006Y-38832997D01*
X63752441Y-38979494D01*
X63752445Y-38979499D01*
X63880500Y-39107554D01*
X63880505Y-39107558D01*
X63953153Y-39160339D01*
X64027006Y-39213996D01*
X64158685Y-39281090D01*
X64209481Y-39329065D01*
X64226276Y-39396886D01*
X64203738Y-39463021D01*
X64149023Y-39506472D01*
X64140710Y-39509505D01*
X64111785Y-39518903D01*
X64094709Y-39527603D01*
X64630000Y-40062894D01*
X64630001Y-40062894D01*
X65165290Y-39527603D01*
X65165289Y-39527602D01*
X65148225Y-39518908D01*
X65148213Y-39518903D01*
X65119291Y-39509506D01*
X65101013Y-39497008D01*
X65080494Y-39488680D01*
X65072732Y-39477670D01*
X65061615Y-39470068D01*
X65052995Y-39449671D01*
X65040237Y-39431573D01*
X65039660Y-39418116D01*
X65034417Y-39405710D01*
X65038193Y-39383890D01*
X65037771Y-39374038D01*
X67899500Y-39374038D01*
X67899500Y-39625962D01*
X67918708Y-39747234D01*
X67938910Y-39874785D01*
X68016760Y-40114383D01*
X68078070Y-40234709D01*
X68128763Y-40334200D01*
X68131132Y-40338848D01*
X68279201Y-40542649D01*
X68279205Y-40542654D01*
X68457345Y-40720794D01*
X68457350Y-40720798D01*
X68589803Y-40817030D01*
X68661155Y-40868870D01*
X68775493Y-40927128D01*
X68885616Y-40983239D01*
X68885618Y-40983239D01*
X68885621Y-40983241D01*
X69125215Y-41061090D01*
X69374038Y-41100500D01*
X69374039Y-41100500D01*
X69625961Y-41100500D01*
X69625962Y-41100500D01*
X69874785Y-41061090D01*
X70114379Y-40983241D01*
X70338845Y-40868870D01*
X70542656Y-40720793D01*
X70720793Y-40542656D01*
X70868870Y-40338845D01*
X70983241Y-40114379D01*
X71061090Y-39874785D01*
X71100500Y-39625962D01*
X71100500Y-39374038D01*
X71088999Y-39301426D01*
X71061090Y-39125214D01*
X71046212Y-39079428D01*
X70983241Y-38885621D01*
X70964520Y-38848879D01*
X73049500Y-38848879D01*
X73049500Y-40151122D01*
X73049501Y-40151125D01*
X73052399Y-40193886D01*
X73052399Y-40193887D01*
X73076059Y-40289023D01*
X73095098Y-40365582D01*
X73098360Y-40378696D01*
X73182967Y-40549292D01*
X73182969Y-40549295D01*
X73302277Y-40697721D01*
X73302278Y-40697722D01*
X73450704Y-40817030D01*
X73450707Y-40817032D01*
X73621302Y-40901639D01*
X73621303Y-40901639D01*
X73621307Y-40901641D01*
X73806111Y-40947600D01*
X73848877Y-40950500D01*
X75151122Y-40950499D01*
X75193889Y-40947600D01*
X75378693Y-40901641D01*
X75549296Y-40817030D01*
X75697722Y-40697722D01*
X75817030Y-40549296D01*
X75901641Y-40378693D01*
X75947600Y-40193889D01*
X75950500Y-40151123D01*
X75950499Y-38848879D01*
X78849500Y-38848879D01*
X78849500Y-40151122D01*
X78849501Y-40151125D01*
X78852399Y-40193886D01*
X78852399Y-40193887D01*
X78876059Y-40289023D01*
X78895098Y-40365582D01*
X78898360Y-40378696D01*
X78982967Y-40549292D01*
X78982969Y-40549295D01*
X79102277Y-40697721D01*
X79102278Y-40697722D01*
X79250704Y-40817030D01*
X79250707Y-40817032D01*
X79421302Y-40901639D01*
X79421303Y-40901639D01*
X79421307Y-40901641D01*
X79606111Y-40947600D01*
X79648877Y-40950500D01*
X80951122Y-40950499D01*
X80993889Y-40947600D01*
X81178693Y-40901641D01*
X81349296Y-40817030D01*
X81497722Y-40697722D01*
X81617030Y-40549296D01*
X81701641Y-40378693D01*
X81747600Y-40193889D01*
X81750500Y-40151123D01*
X81750499Y-38848878D01*
X81747600Y-38806111D01*
X81701641Y-38621307D01*
X81644989Y-38507078D01*
X81617032Y-38450707D01*
X81617030Y-38450704D01*
X81497722Y-38302278D01*
X81497721Y-38302277D01*
X81349295Y-38182969D01*
X81349292Y-38182967D01*
X81178697Y-38098360D01*
X80993892Y-38052400D01*
X80972506Y-38050950D01*
X80951123Y-38049500D01*
X80951120Y-38049500D01*
X79648877Y-38049500D01*
X79648874Y-38049501D01*
X79606113Y-38052399D01*
X79606112Y-38052399D01*
X79421303Y-38098360D01*
X79250707Y-38182967D01*
X79250704Y-38182969D01*
X79102278Y-38302277D01*
X79102277Y-38302278D01*
X78982969Y-38450704D01*
X78982967Y-38450707D01*
X78898360Y-38621302D01*
X78852400Y-38806107D01*
X78849500Y-38848879D01*
X75950499Y-38848879D01*
X75950499Y-38848878D01*
X75947600Y-38806111D01*
X75901641Y-38621307D01*
X75844989Y-38507078D01*
X75817032Y-38450707D01*
X75817030Y-38450704D01*
X75697722Y-38302278D01*
X75697721Y-38302277D01*
X75549295Y-38182969D01*
X75549292Y-38182967D01*
X75378697Y-38098360D01*
X75193892Y-38052400D01*
X75172506Y-38050950D01*
X75151123Y-38049500D01*
X75151120Y-38049500D01*
X73848877Y-38049500D01*
X73848874Y-38049501D01*
X73806113Y-38052399D01*
X73806112Y-38052399D01*
X73621303Y-38098360D01*
X73450707Y-38182967D01*
X73450704Y-38182969D01*
X73302278Y-38302277D01*
X73302277Y-38302278D01*
X73182969Y-38450704D01*
X73182967Y-38450707D01*
X73098360Y-38621302D01*
X73052400Y-38806107D01*
X73049500Y-38848879D01*
X70964520Y-38848879D01*
X70868870Y-38661155D01*
X70791790Y-38555063D01*
X70720798Y-38457350D01*
X70720794Y-38457345D01*
X70542654Y-38279205D01*
X70542649Y-38279201D01*
X70338848Y-38131132D01*
X70338847Y-38131131D01*
X70338845Y-38131130D01*
X70248732Y-38085215D01*
X70114383Y-38016760D01*
X69874785Y-37938910D01*
X69625962Y-37899500D01*
X69374038Y-37899500D01*
X69249626Y-37919205D01*
X69125214Y-37938910D01*
X68885616Y-38016760D01*
X68661151Y-38131132D01*
X68457350Y-38279201D01*
X68457345Y-38279205D01*
X68279205Y-38457345D01*
X68279201Y-38457350D01*
X68131132Y-38661151D01*
X68016760Y-38885616D01*
X67938910Y-39125214D01*
X67911001Y-39301426D01*
X67899500Y-39374038D01*
X65037771Y-39374038D01*
X65037245Y-39361768D01*
X65044035Y-39350135D01*
X65046332Y-39336863D01*
X65061304Y-39320549D01*
X65072467Y-39301426D01*
X65090567Y-39288665D01*
X65093576Y-39285388D01*
X65101297Y-39281098D01*
X65232994Y-39213996D01*
X65379501Y-39107553D01*
X65507553Y-38979501D01*
X65613996Y-38832994D01*
X65696211Y-38671639D01*
X65696553Y-38670588D01*
X65701208Y-38656260D01*
X65752171Y-38499409D01*
X65774232Y-38360122D01*
X65780500Y-38320551D01*
X65780500Y-38139448D01*
X65761067Y-38016759D01*
X65752171Y-37960591D01*
X65696211Y-37788361D01*
X65696211Y-37788360D01*
X65657190Y-37711778D01*
X65613996Y-37627006D01*
X65538355Y-37522894D01*
X65507558Y-37480505D01*
X65507554Y-37480500D01*
X65379499Y-37352445D01*
X65379494Y-37352441D01*
X65232997Y-37246006D01*
X65232996Y-37246005D01*
X65232994Y-37246004D01*
X65181300Y-37219664D01*
X65071639Y-37163788D01*
X65071636Y-37163787D01*
X64899410Y-37107829D01*
X64720551Y-37079500D01*
X64720546Y-37079500D01*
X64539454Y-37079500D01*
X64539449Y-37079500D01*
X64360589Y-37107829D01*
X64188363Y-37163787D01*
X64188360Y-37163788D01*
X64027002Y-37246006D01*
X63880505Y-37352441D01*
X63880500Y-37352445D01*
X63752445Y-37480500D01*
X63752441Y-37480505D01*
X63646006Y-37627002D01*
X63563788Y-37788360D01*
X63563787Y-37788363D01*
X63507829Y-37960589D01*
X63482473Y-38120678D01*
X63452544Y-38183813D01*
X63393232Y-38220744D01*
X63323369Y-38219746D01*
X63265137Y-38181136D01*
X63237527Y-38120678D01*
X63221067Y-38016759D01*
X63212171Y-37960591D01*
X63156211Y-37788361D01*
X63156211Y-37788360D01*
X63117190Y-37711778D01*
X63073996Y-37627006D01*
X62998355Y-37522894D01*
X62967558Y-37480505D01*
X62967554Y-37480500D01*
X62839499Y-37352445D01*
X62839494Y-37352441D01*
X62692997Y-37246006D01*
X62692996Y-37246005D01*
X62692994Y-37246004D01*
X62641300Y-37219664D01*
X62531639Y-37163788D01*
X62531636Y-37163787D01*
X62359410Y-37107829D01*
X62180551Y-37079500D01*
X62180546Y-37079500D01*
X61999454Y-37079500D01*
X61999449Y-37079500D01*
X61820589Y-37107829D01*
X61648363Y-37163787D01*
X61648360Y-37163788D01*
X61487002Y-37246006D01*
X61340505Y-37352441D01*
X61340500Y-37352445D01*
X61212445Y-37480500D01*
X61212441Y-37480505D01*
X61106006Y-37627002D01*
X61023788Y-37788360D01*
X61023787Y-37788363D01*
X60967829Y-37960589D01*
X60942473Y-38120678D01*
X60912544Y-38183813D01*
X60853232Y-38220744D01*
X60783369Y-38219746D01*
X60725137Y-38181136D01*
X60697527Y-38120678D01*
X60681067Y-38016759D01*
X60672171Y-37960591D01*
X60616211Y-37788361D01*
X60616211Y-37788360D01*
X60577190Y-37711778D01*
X60533996Y-37627006D01*
X60458355Y-37522894D01*
X60427558Y-37480505D01*
X60427554Y-37480500D01*
X60299499Y-37352445D01*
X60299494Y-37352441D01*
X60152997Y-37246006D01*
X60152996Y-37246005D01*
X60152994Y-37246004D01*
X60101300Y-37219664D01*
X59991639Y-37163788D01*
X59991636Y-37163787D01*
X59819410Y-37107829D01*
X59640551Y-37079500D01*
X59640546Y-37079500D01*
X59459454Y-37079500D01*
X59459449Y-37079500D01*
X59280589Y-37107829D01*
X59108363Y-37163787D01*
X59108360Y-37163788D01*
X58947002Y-37246006D01*
X58800505Y-37352441D01*
X58800500Y-37352445D01*
X58672445Y-37480500D01*
X58672441Y-37480505D01*
X58566004Y-37627004D01*
X58498908Y-37758686D01*
X58450934Y-37809481D01*
X58383113Y-37826276D01*
X58316978Y-37803738D01*
X58273527Y-37749023D01*
X58270492Y-37740706D01*
X58261093Y-37711778D01*
X58252396Y-37694708D01*
X57717106Y-38229999D01*
X57717106Y-38230001D01*
X58252395Y-38765290D01*
X58252395Y-38765289D01*
X58261093Y-38748220D01*
X58261095Y-38748215D01*
X58270493Y-38719292D01*
X58309930Y-38661616D01*
X58374288Y-38634417D01*
X58443135Y-38646331D01*
X58494611Y-38693575D01*
X58498909Y-38701314D01*
X58518504Y-38739771D01*
X58552307Y-38806113D01*
X58566006Y-38832997D01*
X58672441Y-38979494D01*
X58672445Y-38979499D01*
X58800500Y-39107554D01*
X58800505Y-39107558D01*
X58873153Y-39160339D01*
X58947006Y-39213996D01*
X59034705Y-39258681D01*
X59108360Y-39296211D01*
X59108363Y-39296212D01*
X59124411Y-39301426D01*
X59280591Y-39352171D01*
X59353639Y-39363740D01*
X59440678Y-39377527D01*
X59503813Y-39407456D01*
X59540744Y-39466768D01*
X59539746Y-39536631D01*
X59501136Y-39594863D01*
X59440678Y-39622473D01*
X59280589Y-39647829D01*
X59108363Y-39703787D01*
X59108360Y-39703788D01*
X58947002Y-39786006D01*
X58800505Y-39892441D01*
X58800500Y-39892445D01*
X58672445Y-40020500D01*
X58672441Y-40020505D01*
X58566006Y-40167002D01*
X58483788Y-40328360D01*
X58483787Y-40328363D01*
X58427829Y-40500589D01*
X58402473Y-40660678D01*
X58372544Y-40723813D01*
X58313232Y-40760744D01*
X58243369Y-40759746D01*
X58185137Y-40721136D01*
X58157527Y-40660678D01*
X58138832Y-40542649D01*
X58132171Y-40500591D01*
X58092565Y-40378693D01*
X58076212Y-40328363D01*
X58076211Y-40328360D01*
X58037190Y-40251778D01*
X57993996Y-40167006D01*
X57976624Y-40143096D01*
X57887558Y-40020505D01*
X57887554Y-40020500D01*
X57759499Y-39892445D01*
X57759494Y-39892441D01*
X57612997Y-39786006D01*
X57612996Y-39786005D01*
X57612994Y-39786004D01*
X57528533Y-39742969D01*
X57481314Y-39718909D01*
X57430518Y-39670934D01*
X57413723Y-39603113D01*
X57436261Y-39536978D01*
X57490976Y-39493527D01*
X57499292Y-39490493D01*
X57528215Y-39481095D01*
X57528220Y-39481093D01*
X57545289Y-39472395D01*
X57545290Y-39472395D01*
X57010001Y-38937106D01*
X57010000Y-38937106D01*
X56474708Y-39472396D01*
X56491778Y-39481093D01*
X56520706Y-39490492D01*
X56578382Y-39529929D01*
X56605581Y-39594287D01*
X56593668Y-39663134D01*
X56546425Y-39714610D01*
X56538686Y-39718908D01*
X56407004Y-39786004D01*
X56260505Y-39892441D01*
X56260500Y-39892445D01*
X56132445Y-40020500D01*
X56132441Y-40020505D01*
X56026006Y-40167002D01*
X55943788Y-40328360D01*
X55943787Y-40328363D01*
X55887829Y-40500589D01*
X55862473Y-40660678D01*
X55832544Y-40723813D01*
X55773232Y-40760744D01*
X55703369Y-40759746D01*
X55645137Y-40721136D01*
X55617527Y-40660678D01*
X55598832Y-40542649D01*
X55592171Y-40500591D01*
X55552565Y-40378693D01*
X55536212Y-40328363D01*
X55536211Y-40328360D01*
X55497190Y-40251778D01*
X55453996Y-40167006D01*
X55436624Y-40143096D01*
X55347558Y-40020505D01*
X55347554Y-40020500D01*
X55219499Y-39892445D01*
X55219494Y-39892441D01*
X55072997Y-39786006D01*
X55072996Y-39786005D01*
X55072994Y-39786004D01*
X54996906Y-39747235D01*
X54911639Y-39703788D01*
X54911636Y-39703787D01*
X54739410Y-39647829D01*
X54579321Y-39622473D01*
X54516186Y-39592544D01*
X54479255Y-39533232D01*
X54480253Y-39463370D01*
X54518863Y-39405137D01*
X54579321Y-39377527D01*
X54649425Y-39366422D01*
X54739409Y-39352171D01*
X54911639Y-39296211D01*
X55072994Y-39213996D01*
X55219501Y-39107553D01*
X55347553Y-38979501D01*
X55453996Y-38832994D01*
X55521091Y-38701312D01*
X55569064Y-38650518D01*
X55636885Y-38633723D01*
X55703020Y-38656260D01*
X55746472Y-38710975D01*
X55749506Y-38719291D01*
X55758903Y-38748213D01*
X55758908Y-38748225D01*
X55767602Y-38765289D01*
X55767603Y-38765290D01*
X56302894Y-38230000D01*
X56237068Y-38164174D01*
X56510000Y-38164174D01*
X56510000Y-38295826D01*
X56544075Y-38422993D01*
X56609901Y-38537007D01*
X56702993Y-38630099D01*
X56817007Y-38695925D01*
X56944174Y-38730000D01*
X57075826Y-38730000D01*
X57202993Y-38695925D01*
X57317007Y-38630099D01*
X57410099Y-38537007D01*
X57475925Y-38422993D01*
X57510000Y-38295826D01*
X57510000Y-38164174D01*
X57475925Y-38037007D01*
X57410099Y-37922993D01*
X57317007Y-37829901D01*
X57202993Y-37764075D01*
X57075826Y-37730000D01*
X56944174Y-37730000D01*
X56817007Y-37764075D01*
X56702993Y-37829901D01*
X56609901Y-37922993D01*
X56544075Y-38037007D01*
X56510000Y-38164174D01*
X56237068Y-38164174D01*
X55767603Y-37694709D01*
X55758903Y-37711785D01*
X55749505Y-37740710D01*
X55710067Y-37798385D01*
X55645708Y-37825582D01*
X55576861Y-37813666D01*
X55525387Y-37766421D01*
X55521090Y-37758685D01*
X55497193Y-37711785D01*
X55453996Y-37627006D01*
X55378355Y-37522894D01*
X55347558Y-37480505D01*
X55347554Y-37480500D01*
X55219499Y-37352445D01*
X55219494Y-37352441D01*
X55072997Y-37246006D01*
X55072996Y-37246005D01*
X55072994Y-37246004D01*
X55021300Y-37219664D01*
X54911639Y-37163788D01*
X54911636Y-37163787D01*
X54864702Y-37148538D01*
X54864701Y-37148537D01*
X54739411Y-37107829D01*
X54739412Y-37107829D01*
X54560551Y-37079500D01*
X54560546Y-37079500D01*
X54379454Y-37079500D01*
X54379449Y-37079500D01*
X54200589Y-37107829D01*
X54028363Y-37163787D01*
X54028360Y-37163788D01*
X53867002Y-37246006D01*
X53720505Y-37352441D01*
X53720500Y-37352445D01*
X53592445Y-37480500D01*
X53592441Y-37480505D01*
X53486004Y-37627004D01*
X53418908Y-37758686D01*
X53370934Y-37809481D01*
X53303113Y-37826276D01*
X53236978Y-37803738D01*
X53193527Y-37749023D01*
X53190492Y-37740706D01*
X53181093Y-37711778D01*
X53172396Y-37694708D01*
X52637106Y-38229999D01*
X52637106Y-38230001D01*
X53172395Y-38765290D01*
X53172395Y-38765289D01*
X53181093Y-38748220D01*
X53181095Y-38748215D01*
X53190493Y-38719292D01*
X53229930Y-38661616D01*
X53294288Y-38634417D01*
X53363135Y-38646331D01*
X53414611Y-38693575D01*
X53418909Y-38701314D01*
X53438504Y-38739771D01*
X53472307Y-38806113D01*
X53486006Y-38832997D01*
X53592441Y-38979494D01*
X53592445Y-38979499D01*
X53720500Y-39107554D01*
X53720505Y-39107558D01*
X53793153Y-39160339D01*
X53867006Y-39213996D01*
X53954705Y-39258681D01*
X54028360Y-39296211D01*
X54028363Y-39296212D01*
X54044411Y-39301426D01*
X54200591Y-39352171D01*
X54273639Y-39363740D01*
X54360678Y-39377527D01*
X54423813Y-39407456D01*
X54460744Y-39466768D01*
X54459746Y-39536631D01*
X54421136Y-39594863D01*
X54360678Y-39622473D01*
X54200589Y-39647829D01*
X54028363Y-39703787D01*
X54028360Y-39703788D01*
X53867002Y-39786006D01*
X53720505Y-39892441D01*
X53720500Y-39892445D01*
X53592445Y-40020500D01*
X53592441Y-40020505D01*
X53486006Y-40167002D01*
X53403788Y-40328360D01*
X53403787Y-40328363D01*
X53347829Y-40500589D01*
X53322473Y-40660678D01*
X53292544Y-40723813D01*
X53233232Y-40760744D01*
X53163369Y-40759746D01*
X53105137Y-40721136D01*
X53077527Y-40660678D01*
X53058832Y-40542649D01*
X53052171Y-40500591D01*
X53012565Y-40378693D01*
X52996212Y-40328363D01*
X52996211Y-40328360D01*
X52957190Y-40251778D01*
X52913996Y-40167006D01*
X52896624Y-40143096D01*
X52807558Y-40020505D01*
X52807554Y-40020500D01*
X52679499Y-39892445D01*
X52679494Y-39892441D01*
X52532997Y-39786006D01*
X52532996Y-39786005D01*
X52532994Y-39786004D01*
X52448533Y-39742969D01*
X52401314Y-39718909D01*
X52350518Y-39670934D01*
X52333723Y-39603113D01*
X52356261Y-39536978D01*
X52410976Y-39493527D01*
X52419292Y-39490493D01*
X52448215Y-39481095D01*
X52448220Y-39481093D01*
X52465289Y-39472395D01*
X52465290Y-39472395D01*
X51930001Y-38937106D01*
X51930000Y-38937106D01*
X51394708Y-39472396D01*
X51411778Y-39481093D01*
X51440706Y-39490492D01*
X51498382Y-39529929D01*
X51525581Y-39594287D01*
X51513668Y-39663134D01*
X51466425Y-39714610D01*
X51458686Y-39718908D01*
X51327004Y-39786004D01*
X51180505Y-39892441D01*
X51180500Y-39892445D01*
X51052445Y-40020500D01*
X51052441Y-40020505D01*
X50946006Y-40167002D01*
X50863788Y-40328360D01*
X50863787Y-40328363D01*
X50807829Y-40500589D01*
X50782473Y-40660678D01*
X50752544Y-40723813D01*
X50693232Y-40760744D01*
X50623369Y-40759746D01*
X50565137Y-40721136D01*
X50537527Y-40660678D01*
X50518832Y-40542649D01*
X50512171Y-40500591D01*
X50472565Y-40378693D01*
X50456212Y-40328363D01*
X50456211Y-40328360D01*
X50417190Y-40251778D01*
X50373996Y-40167006D01*
X50356624Y-40143096D01*
X50267558Y-40020505D01*
X50267554Y-40020500D01*
X50139499Y-39892445D01*
X50139494Y-39892441D01*
X49992997Y-39786006D01*
X49992996Y-39786005D01*
X49992994Y-39786004D01*
X49916906Y-39747235D01*
X49831639Y-39703788D01*
X49831636Y-39703787D01*
X49659410Y-39647829D01*
X49499321Y-39622473D01*
X49436186Y-39592544D01*
X49399255Y-39533232D01*
X49400253Y-39463370D01*
X49438863Y-39405137D01*
X49499321Y-39377527D01*
X49569425Y-39366422D01*
X49659409Y-39352171D01*
X49831639Y-39296211D01*
X49992994Y-39213996D01*
X50139501Y-39107553D01*
X50267553Y-38979501D01*
X50373996Y-38832994D01*
X50441091Y-38701312D01*
X50489064Y-38650518D01*
X50556885Y-38633723D01*
X50623020Y-38656260D01*
X50666472Y-38710975D01*
X50669506Y-38719291D01*
X50678903Y-38748213D01*
X50678908Y-38748225D01*
X50687602Y-38765289D01*
X50687603Y-38765290D01*
X51222894Y-38230000D01*
X51157068Y-38164174D01*
X51430000Y-38164174D01*
X51430000Y-38295826D01*
X51464075Y-38422993D01*
X51529901Y-38537007D01*
X51622993Y-38630099D01*
X51737007Y-38695925D01*
X51864174Y-38730000D01*
X51995826Y-38730000D01*
X52122993Y-38695925D01*
X52237007Y-38630099D01*
X52330099Y-38537007D01*
X52395925Y-38422993D01*
X52430000Y-38295826D01*
X52430000Y-38164174D01*
X52395925Y-38037007D01*
X52330099Y-37922993D01*
X52237007Y-37829901D01*
X52122993Y-37764075D01*
X51995826Y-37730000D01*
X51864174Y-37730000D01*
X51737007Y-37764075D01*
X51622993Y-37829901D01*
X51529901Y-37922993D01*
X51464075Y-38037007D01*
X51430000Y-38164174D01*
X51157068Y-38164174D01*
X50687603Y-37694709D01*
X50678903Y-37711785D01*
X50669505Y-37740710D01*
X50630067Y-37798385D01*
X50565708Y-37825582D01*
X50496861Y-37813666D01*
X50445387Y-37766421D01*
X50441090Y-37758685D01*
X50417193Y-37711785D01*
X50373996Y-37627006D01*
X50298355Y-37522894D01*
X50267558Y-37480505D01*
X50267554Y-37480500D01*
X50139499Y-37352445D01*
X50139494Y-37352441D01*
X49992997Y-37246006D01*
X49992996Y-37246005D01*
X49992994Y-37246004D01*
X49941300Y-37219664D01*
X49831639Y-37163788D01*
X49831636Y-37163787D01*
X49784702Y-37148538D01*
X49784701Y-37148537D01*
X49659411Y-37107829D01*
X49659412Y-37107829D01*
X49480551Y-37079500D01*
X49480546Y-37079500D01*
X49299454Y-37079500D01*
X49299449Y-37079500D01*
X49120589Y-37107829D01*
X48948363Y-37163787D01*
X48948360Y-37163788D01*
X48787002Y-37246006D01*
X48640505Y-37352441D01*
X48640500Y-37352445D01*
X48512445Y-37480500D01*
X48512441Y-37480505D01*
X48406006Y-37627002D01*
X48323788Y-37788360D01*
X48323787Y-37788363D01*
X48267829Y-37960589D01*
X48242473Y-38120678D01*
X48212544Y-38183813D01*
X48153232Y-38220744D01*
X48083369Y-38219746D01*
X48025137Y-38181136D01*
X47997527Y-38120678D01*
X47981067Y-38016759D01*
X47972171Y-37960591D01*
X47916211Y-37788361D01*
X47916211Y-37788360D01*
X47877190Y-37711778D01*
X47833996Y-37627006D01*
X47758355Y-37522894D01*
X47727558Y-37480505D01*
X47727554Y-37480500D01*
X47599499Y-37352445D01*
X47599494Y-37352441D01*
X47452997Y-37246006D01*
X47452996Y-37246005D01*
X47452994Y-37246004D01*
X47401300Y-37219664D01*
X47291639Y-37163788D01*
X47291636Y-37163787D01*
X47119410Y-37107829D01*
X46940551Y-37079500D01*
X46940546Y-37079500D01*
X46759454Y-37079500D01*
X46759449Y-37079500D01*
X46580589Y-37107829D01*
X46408363Y-37163787D01*
X46408360Y-37163788D01*
X46247002Y-37246006D01*
X46100505Y-37352441D01*
X46100500Y-37352445D01*
X45972445Y-37480500D01*
X45972441Y-37480505D01*
X45866006Y-37627002D01*
X45783788Y-37788360D01*
X45783787Y-37788363D01*
X45727829Y-37960589D01*
X45702473Y-38120678D01*
X45672544Y-38183813D01*
X45613232Y-38220744D01*
X45543369Y-38219746D01*
X45485137Y-38181136D01*
X45457527Y-38120678D01*
X45441067Y-38016759D01*
X45432171Y-37960591D01*
X45376211Y-37788361D01*
X45376211Y-37788360D01*
X45337190Y-37711778D01*
X45293996Y-37627006D01*
X45218355Y-37522894D01*
X45187558Y-37480505D01*
X45187554Y-37480500D01*
X45059499Y-37352445D01*
X45059494Y-37352441D01*
X44912997Y-37246006D01*
X44912996Y-37246005D01*
X44912994Y-37246004D01*
X44861300Y-37219664D01*
X44751639Y-37163788D01*
X44751636Y-37163787D01*
X44579410Y-37107829D01*
X44400551Y-37079500D01*
X44400546Y-37079500D01*
X44219454Y-37079500D01*
X44219449Y-37079500D01*
X44040589Y-37107829D01*
X43868363Y-37163787D01*
X43868360Y-37163788D01*
X43707002Y-37246006D01*
X43560505Y-37352441D01*
X43560500Y-37352445D01*
X43432445Y-37480500D01*
X43432441Y-37480505D01*
X43326006Y-37627002D01*
X43243788Y-37788360D01*
X43243787Y-37788363D01*
X43187829Y-37960589D01*
X43162473Y-38120678D01*
X43132544Y-38183813D01*
X43073232Y-38220744D01*
X43003369Y-38219746D01*
X42945137Y-38181136D01*
X42917527Y-38120678D01*
X42901067Y-38016759D01*
X42892171Y-37960591D01*
X42836211Y-37788361D01*
X42836211Y-37788360D01*
X42797190Y-37711778D01*
X42753996Y-37627006D01*
X42678355Y-37522894D01*
X42647558Y-37480505D01*
X42647554Y-37480500D01*
X42519499Y-37352445D01*
X42519494Y-37352441D01*
X42372997Y-37246006D01*
X42372996Y-37246005D01*
X42372994Y-37246004D01*
X42321300Y-37219664D01*
X42211639Y-37163788D01*
X42211636Y-37163787D01*
X42039410Y-37107829D01*
X41860551Y-37079500D01*
X41860546Y-37079500D01*
X41679454Y-37079500D01*
X41679449Y-37079500D01*
X41500589Y-37107829D01*
X41328363Y-37163787D01*
X41328360Y-37163788D01*
X41167002Y-37246006D01*
X41020505Y-37352441D01*
X41020500Y-37352445D01*
X40892445Y-37480500D01*
X40892441Y-37480505D01*
X40786004Y-37627004D01*
X40718908Y-37758686D01*
X40670934Y-37809481D01*
X40603113Y-37826276D01*
X40536978Y-37803738D01*
X40493527Y-37749023D01*
X40490492Y-37740706D01*
X40481093Y-37711778D01*
X40472396Y-37694708D01*
X39937106Y-38229999D01*
X39937106Y-38230001D01*
X40472395Y-38765290D01*
X40472395Y-38765289D01*
X40481093Y-38748220D01*
X40481095Y-38748215D01*
X40490493Y-38719292D01*
X40529930Y-38661616D01*
X40594288Y-38634417D01*
X40663135Y-38646331D01*
X40714611Y-38693575D01*
X40718909Y-38701314D01*
X40738504Y-38739771D01*
X40772307Y-38806113D01*
X40786006Y-38832997D01*
X40892441Y-38979494D01*
X40892445Y-38979499D01*
X41020500Y-39107554D01*
X41020505Y-39107558D01*
X41093153Y-39160339D01*
X41167006Y-39213996D01*
X41254705Y-39258681D01*
X41328360Y-39296211D01*
X41328363Y-39296212D01*
X41344411Y-39301426D01*
X41500591Y-39352171D01*
X41573639Y-39363740D01*
X41660678Y-39377527D01*
X41723813Y-39407456D01*
X41760744Y-39466768D01*
X41759746Y-39536631D01*
X41721136Y-39594863D01*
X41660678Y-39622473D01*
X41500589Y-39647829D01*
X41328363Y-39703787D01*
X41328360Y-39703788D01*
X41167002Y-39786006D01*
X41020505Y-39892441D01*
X41020500Y-39892445D01*
X40892445Y-40020500D01*
X40892441Y-40020505D01*
X40786006Y-40167002D01*
X40703788Y-40328360D01*
X40703787Y-40328363D01*
X40647829Y-40500589D01*
X40622473Y-40660678D01*
X40592544Y-40723813D01*
X40533232Y-40760744D01*
X40463369Y-40759746D01*
X40405137Y-40721136D01*
X40377527Y-40660678D01*
X40358832Y-40542649D01*
X40352171Y-40500591D01*
X40312565Y-40378693D01*
X40296212Y-40328363D01*
X40296211Y-40328360D01*
X40257190Y-40251778D01*
X40213996Y-40167006D01*
X40196624Y-40143096D01*
X40107558Y-40020505D01*
X40107554Y-40020500D01*
X39979499Y-39892445D01*
X39979494Y-39892441D01*
X39832997Y-39786006D01*
X39832996Y-39786005D01*
X39832994Y-39786004D01*
X39748533Y-39742969D01*
X39701314Y-39718909D01*
X39650518Y-39670934D01*
X39633723Y-39603113D01*
X39656261Y-39536978D01*
X39710976Y-39493527D01*
X39719292Y-39490493D01*
X39748215Y-39481095D01*
X39748220Y-39481093D01*
X39765289Y-39472395D01*
X39765290Y-39472395D01*
X39230001Y-38937106D01*
X39230000Y-38937106D01*
X38694708Y-39472396D01*
X38711778Y-39481093D01*
X38740706Y-39490492D01*
X38798382Y-39529929D01*
X38825581Y-39594287D01*
X38813668Y-39663134D01*
X38766425Y-39714610D01*
X38758686Y-39718908D01*
X38627004Y-39786004D01*
X38480505Y-39892441D01*
X38480500Y-39892445D01*
X38352445Y-40020500D01*
X38352441Y-40020505D01*
X38246006Y-40167002D01*
X38163788Y-40328360D01*
X38163787Y-40328363D01*
X38107829Y-40500589D01*
X38082473Y-40660678D01*
X38052544Y-40723813D01*
X37993232Y-40760744D01*
X37923369Y-40759746D01*
X37865137Y-40721136D01*
X37837527Y-40660678D01*
X37818832Y-40542649D01*
X37812171Y-40500591D01*
X37772565Y-40378693D01*
X37756212Y-40328363D01*
X37756211Y-40328360D01*
X37717190Y-40251778D01*
X37673996Y-40167006D01*
X37656624Y-40143096D01*
X37567558Y-40020505D01*
X37567554Y-40020500D01*
X37439499Y-39892445D01*
X37439494Y-39892441D01*
X37292997Y-39786006D01*
X37292996Y-39786005D01*
X37292994Y-39786004D01*
X37216906Y-39747235D01*
X37131639Y-39703788D01*
X37131636Y-39703787D01*
X36959410Y-39647829D01*
X36799321Y-39622473D01*
X36736186Y-39592544D01*
X36699255Y-39533232D01*
X36700253Y-39463370D01*
X36738863Y-39405137D01*
X36799321Y-39377527D01*
X36869425Y-39366422D01*
X36959409Y-39352171D01*
X37131639Y-39296211D01*
X37292994Y-39213996D01*
X37439501Y-39107553D01*
X37567553Y-38979501D01*
X37673996Y-38832994D01*
X37741091Y-38701312D01*
X37789064Y-38650518D01*
X37856885Y-38633723D01*
X37923020Y-38656260D01*
X37966472Y-38710975D01*
X37969506Y-38719291D01*
X37978903Y-38748213D01*
X37978908Y-38748225D01*
X37987602Y-38765289D01*
X37987603Y-38765290D01*
X38522894Y-38230000D01*
X38457068Y-38164174D01*
X38730000Y-38164174D01*
X38730000Y-38295826D01*
X38764075Y-38422993D01*
X38829901Y-38537007D01*
X38922993Y-38630099D01*
X39037007Y-38695925D01*
X39164174Y-38730000D01*
X39295826Y-38730000D01*
X39422993Y-38695925D01*
X39537007Y-38630099D01*
X39630099Y-38537007D01*
X39695925Y-38422993D01*
X39730000Y-38295826D01*
X39730000Y-38164174D01*
X39695925Y-38037007D01*
X39630099Y-37922993D01*
X39537007Y-37829901D01*
X39422993Y-37764075D01*
X39295826Y-37730000D01*
X39164174Y-37730000D01*
X39037007Y-37764075D01*
X38922993Y-37829901D01*
X38829901Y-37922993D01*
X38764075Y-38037007D01*
X38730000Y-38164174D01*
X38457068Y-38164174D01*
X37987603Y-37694709D01*
X37978903Y-37711785D01*
X37969505Y-37740710D01*
X37930067Y-37798385D01*
X37865708Y-37825582D01*
X37796861Y-37813666D01*
X37745387Y-37766421D01*
X37741090Y-37758685D01*
X37717193Y-37711785D01*
X37673996Y-37627006D01*
X37598355Y-37522894D01*
X37567558Y-37480505D01*
X37567554Y-37480500D01*
X37439499Y-37352445D01*
X37439494Y-37352441D01*
X37292997Y-37246006D01*
X37292996Y-37246005D01*
X37292994Y-37246004D01*
X37241300Y-37219664D01*
X37131639Y-37163788D01*
X37131636Y-37163787D01*
X37084702Y-37148538D01*
X37084701Y-37148537D01*
X36959411Y-37107829D01*
X36959412Y-37107829D01*
X36780551Y-37079500D01*
X36780546Y-37079500D01*
X36599454Y-37079500D01*
X36599449Y-37079500D01*
X36420589Y-37107829D01*
X36248363Y-37163787D01*
X36248360Y-37163788D01*
X36087002Y-37246006D01*
X35940505Y-37352441D01*
X35940500Y-37352445D01*
X35812445Y-37480500D01*
X35812441Y-37480505D01*
X35706006Y-37627002D01*
X35623788Y-37788360D01*
X35623787Y-37788363D01*
X35567829Y-37960589D01*
X35542473Y-38120678D01*
X35512544Y-38183813D01*
X35453232Y-38220744D01*
X35383369Y-38219746D01*
X35325137Y-38181136D01*
X35297527Y-38120678D01*
X35281067Y-38016759D01*
X35272171Y-37960591D01*
X35216211Y-37788361D01*
X35216211Y-37788360D01*
X35177190Y-37711778D01*
X35133996Y-37627006D01*
X35058355Y-37522894D01*
X35027558Y-37480505D01*
X35027554Y-37480500D01*
X34899499Y-37352445D01*
X34899494Y-37352441D01*
X34752997Y-37246006D01*
X34752996Y-37246005D01*
X34752994Y-37246004D01*
X34701300Y-37219664D01*
X34591639Y-37163788D01*
X34591636Y-37163787D01*
X34419410Y-37107829D01*
X34240551Y-37079500D01*
X34240546Y-37079500D01*
X34059454Y-37079500D01*
X34059449Y-37079500D01*
X33880589Y-37107829D01*
X33708363Y-37163787D01*
X33708360Y-37163788D01*
X33547002Y-37246006D01*
X33400505Y-37352441D01*
X33400500Y-37352445D01*
X33272445Y-37480500D01*
X33272441Y-37480505D01*
X33166004Y-37627004D01*
X33098908Y-37758686D01*
X33050934Y-37809481D01*
X32983113Y-37826276D01*
X32916978Y-37803738D01*
X32873527Y-37749023D01*
X32870492Y-37740706D01*
X32861093Y-37711778D01*
X32852396Y-37694708D01*
X32317106Y-38229999D01*
X32317106Y-38230001D01*
X32852395Y-38765290D01*
X32852395Y-38765289D01*
X32861093Y-38748220D01*
X32861095Y-38748215D01*
X32870493Y-38719292D01*
X32909930Y-38661616D01*
X32974288Y-38634417D01*
X33043135Y-38646331D01*
X33094611Y-38693575D01*
X33098909Y-38701314D01*
X33118504Y-38739771D01*
X33152307Y-38806113D01*
X33166006Y-38832997D01*
X33272441Y-38979494D01*
X33272445Y-38979499D01*
X33400500Y-39107554D01*
X33400505Y-39107558D01*
X33473153Y-39160339D01*
X33547006Y-39213996D01*
X33634705Y-39258681D01*
X33708360Y-39296211D01*
X33708363Y-39296212D01*
X33724411Y-39301426D01*
X33880591Y-39352171D01*
X33953639Y-39363740D01*
X34040678Y-39377527D01*
X34103813Y-39407456D01*
X34140744Y-39466768D01*
X34139746Y-39536631D01*
X34101136Y-39594863D01*
X34040678Y-39622473D01*
X33880589Y-39647829D01*
X33708363Y-39703787D01*
X33708360Y-39703788D01*
X33547002Y-39786006D01*
X33400505Y-39892441D01*
X33400500Y-39892445D01*
X33272445Y-40020500D01*
X33272441Y-40020505D01*
X33166006Y-40167002D01*
X33083788Y-40328360D01*
X33083787Y-40328363D01*
X33027829Y-40500589D01*
X33002473Y-40660678D01*
X32972544Y-40723813D01*
X32913232Y-40760744D01*
X32843369Y-40759746D01*
X32785137Y-40721136D01*
X32757527Y-40660678D01*
X32738832Y-40542649D01*
X32732171Y-40500591D01*
X32692565Y-40378693D01*
X32676212Y-40328363D01*
X32676211Y-40328360D01*
X32637190Y-40251778D01*
X32593996Y-40167006D01*
X32576624Y-40143096D01*
X32487558Y-40020505D01*
X32487554Y-40020500D01*
X32359499Y-39892445D01*
X32359494Y-39892441D01*
X32212997Y-39786006D01*
X32212996Y-39786005D01*
X32212994Y-39786004D01*
X32128533Y-39742969D01*
X32081314Y-39718909D01*
X32030518Y-39670934D01*
X32013723Y-39603113D01*
X32036261Y-39536978D01*
X32090976Y-39493527D01*
X32099292Y-39490493D01*
X32128215Y-39481095D01*
X32128220Y-39481093D01*
X32145289Y-39472395D01*
X32145290Y-39472395D01*
X31610001Y-38937106D01*
X31610000Y-38937106D01*
X31074708Y-39472396D01*
X31091778Y-39481093D01*
X31120706Y-39490492D01*
X31178382Y-39529929D01*
X31205581Y-39594287D01*
X31193668Y-39663134D01*
X31146425Y-39714610D01*
X31138686Y-39718908D01*
X31007004Y-39786004D01*
X30860505Y-39892441D01*
X30860500Y-39892445D01*
X30732445Y-40020500D01*
X30732441Y-40020505D01*
X30626006Y-40167002D01*
X30543788Y-40328360D01*
X30543787Y-40328363D01*
X30487829Y-40500589D01*
X30462473Y-40660678D01*
X30432544Y-40723813D01*
X30373232Y-40760744D01*
X30303369Y-40759746D01*
X30245137Y-40721136D01*
X30217527Y-40660678D01*
X30198832Y-40542649D01*
X30192171Y-40500591D01*
X30152565Y-40378693D01*
X30136212Y-40328363D01*
X30136211Y-40328360D01*
X30097190Y-40251778D01*
X30053996Y-40167006D01*
X30036624Y-40143096D01*
X29947558Y-40020505D01*
X29947554Y-40020500D01*
X29819499Y-39892445D01*
X29819494Y-39892441D01*
X29672997Y-39786006D01*
X29672996Y-39786005D01*
X29672994Y-39786004D01*
X29596906Y-39747235D01*
X29511639Y-39703788D01*
X29511636Y-39703787D01*
X29339410Y-39647829D01*
X29179321Y-39622473D01*
X29116186Y-39592544D01*
X29079255Y-39533232D01*
X29080253Y-39463370D01*
X29118863Y-39405137D01*
X29179321Y-39377527D01*
X29249425Y-39366422D01*
X29339409Y-39352171D01*
X29511639Y-39296211D01*
X29672994Y-39213996D01*
X29819501Y-39107553D01*
X29947553Y-38979501D01*
X30053996Y-38832994D01*
X30121091Y-38701312D01*
X30169064Y-38650518D01*
X30236885Y-38633723D01*
X30303020Y-38656260D01*
X30346472Y-38710975D01*
X30349506Y-38719291D01*
X30358903Y-38748213D01*
X30358908Y-38748225D01*
X30367602Y-38765289D01*
X30367603Y-38765290D01*
X30902894Y-38230000D01*
X30837068Y-38164174D01*
X31110000Y-38164174D01*
X31110000Y-38295826D01*
X31144075Y-38422993D01*
X31209901Y-38537007D01*
X31302993Y-38630099D01*
X31417007Y-38695925D01*
X31544174Y-38730000D01*
X31675826Y-38730000D01*
X31802993Y-38695925D01*
X31917007Y-38630099D01*
X32010099Y-38537007D01*
X32075925Y-38422993D01*
X32110000Y-38295826D01*
X32110000Y-38164174D01*
X32075925Y-38037007D01*
X32010099Y-37922993D01*
X31917007Y-37829901D01*
X31802993Y-37764075D01*
X31675826Y-37730000D01*
X31544174Y-37730000D01*
X31417007Y-37764075D01*
X31302993Y-37829901D01*
X31209901Y-37922993D01*
X31144075Y-38037007D01*
X31110000Y-38164174D01*
X30837068Y-38164174D01*
X30367603Y-37694709D01*
X30358903Y-37711785D01*
X30349505Y-37740710D01*
X30310067Y-37798385D01*
X30245708Y-37825582D01*
X30176861Y-37813666D01*
X30125387Y-37766421D01*
X30121090Y-37758685D01*
X30097193Y-37711785D01*
X30053996Y-37627006D01*
X29978355Y-37522894D01*
X29947558Y-37480505D01*
X29947554Y-37480500D01*
X29819499Y-37352445D01*
X29819494Y-37352441D01*
X29672997Y-37246006D01*
X29672996Y-37246005D01*
X29672994Y-37246004D01*
X29621300Y-37219664D01*
X29511639Y-37163788D01*
X29511636Y-37163787D01*
X29464702Y-37148538D01*
X29464701Y-37148537D01*
X29339411Y-37107829D01*
X29339412Y-37107829D01*
X29160551Y-37079500D01*
X29160546Y-37079500D01*
X28979454Y-37079500D01*
X28979449Y-37079500D01*
X28800589Y-37107829D01*
X28628363Y-37163787D01*
X28628360Y-37163788D01*
X28467002Y-37246006D01*
X28320505Y-37352441D01*
X28320500Y-37352445D01*
X28192445Y-37480500D01*
X28192441Y-37480505D01*
X28086006Y-37627002D01*
X28003788Y-37788360D01*
X28003787Y-37788363D01*
X27947829Y-37960589D01*
X27922473Y-38120678D01*
X27892544Y-38183813D01*
X27833232Y-38220744D01*
X27763369Y-38219746D01*
X27705137Y-38181136D01*
X27677527Y-38120678D01*
X27661067Y-38016759D01*
X27652171Y-37960591D01*
X27596211Y-37788361D01*
X27596211Y-37788360D01*
X27557190Y-37711778D01*
X27513996Y-37627006D01*
X27438355Y-37522894D01*
X27407558Y-37480505D01*
X27407554Y-37480500D01*
X27279499Y-37352445D01*
X27279494Y-37352441D01*
X27132997Y-37246006D01*
X27132996Y-37246005D01*
X27132994Y-37246004D01*
X27081300Y-37219664D01*
X26971639Y-37163788D01*
X26971636Y-37163787D01*
X26799410Y-37107829D01*
X26620551Y-37079500D01*
X26620546Y-37079500D01*
X26439454Y-37079500D01*
X26439449Y-37079500D01*
X26260589Y-37107829D01*
X26088363Y-37163787D01*
X26088360Y-37163788D01*
X25927002Y-37246006D01*
X25780505Y-37352441D01*
X25780500Y-37352445D01*
X25652445Y-37480500D01*
X25652441Y-37480505D01*
X25546006Y-37627002D01*
X25463788Y-37788360D01*
X25463787Y-37788363D01*
X25407829Y-37960589D01*
X25382473Y-38120678D01*
X25352544Y-38183813D01*
X25293232Y-38220744D01*
X25223369Y-38219746D01*
X25165137Y-38181136D01*
X25137527Y-38120678D01*
X25121067Y-38016759D01*
X25112171Y-37960591D01*
X25056211Y-37788361D01*
X25056211Y-37788360D01*
X25017190Y-37711778D01*
X24973996Y-37627006D01*
X24898355Y-37522894D01*
X24867558Y-37480505D01*
X24867554Y-37480500D01*
X24739499Y-37352445D01*
X24739494Y-37352441D01*
X24592997Y-37246006D01*
X24592996Y-37246005D01*
X24592994Y-37246004D01*
X24541300Y-37219664D01*
X24431639Y-37163788D01*
X24431636Y-37163787D01*
X24259410Y-37107829D01*
X24080551Y-37079500D01*
X24080546Y-37079500D01*
X23899454Y-37079500D01*
X23899449Y-37079500D01*
X23720589Y-37107829D01*
X23548363Y-37163787D01*
X23548360Y-37163788D01*
X23387002Y-37246006D01*
X23240505Y-37352441D01*
X23240500Y-37352445D01*
X23112445Y-37480500D01*
X23112441Y-37480505D01*
X23006004Y-37627004D01*
X22938908Y-37758686D01*
X22890934Y-37809481D01*
X22823113Y-37826276D01*
X22756978Y-37803738D01*
X22713527Y-37749023D01*
X22710492Y-37740706D01*
X22701093Y-37711778D01*
X22692396Y-37694708D01*
X22157106Y-38229999D01*
X22157106Y-38230000D01*
X22692395Y-38765290D01*
X22692395Y-38765289D01*
X22701093Y-38748220D01*
X22701095Y-38748215D01*
X22710493Y-38719292D01*
X22749930Y-38661616D01*
X22814288Y-38634417D01*
X22883135Y-38646331D01*
X22934611Y-38693575D01*
X22938909Y-38701314D01*
X22958504Y-38739771D01*
X22992307Y-38806113D01*
X23006006Y-38832997D01*
X23112441Y-38979494D01*
X23112445Y-38979499D01*
X23240500Y-39107554D01*
X23240505Y-39107558D01*
X23313153Y-39160339D01*
X23387006Y-39213996D01*
X23474705Y-39258681D01*
X23548360Y-39296211D01*
X23548363Y-39296212D01*
X23564411Y-39301426D01*
X23720591Y-39352171D01*
X23793639Y-39363740D01*
X23880678Y-39377527D01*
X23943813Y-39407456D01*
X23980744Y-39466768D01*
X23979746Y-39536631D01*
X23941136Y-39594863D01*
X23880678Y-39622473D01*
X23720589Y-39647829D01*
X23548363Y-39703787D01*
X23548360Y-39703788D01*
X23387002Y-39786006D01*
X23240505Y-39892441D01*
X23240500Y-39892445D01*
X23112445Y-40020500D01*
X23112441Y-40020505D01*
X23006006Y-40167002D01*
X22923788Y-40328360D01*
X22923787Y-40328363D01*
X22867829Y-40500589D01*
X22842473Y-40660678D01*
X22812544Y-40723813D01*
X22753232Y-40760744D01*
X22683369Y-40759746D01*
X22625137Y-40721136D01*
X22597527Y-40660678D01*
X22578832Y-40542649D01*
X22572171Y-40500591D01*
X22532565Y-40378693D01*
X22516212Y-40328363D01*
X22516211Y-40328360D01*
X22477190Y-40251778D01*
X22433996Y-40167006D01*
X22416624Y-40143096D01*
X22327558Y-40020505D01*
X22327554Y-40020500D01*
X22199499Y-39892445D01*
X22199494Y-39892441D01*
X22052997Y-39786006D01*
X22052996Y-39786005D01*
X22052994Y-39786004D01*
X21968533Y-39742969D01*
X21921314Y-39718909D01*
X21870518Y-39670934D01*
X21853723Y-39603113D01*
X21876261Y-39536978D01*
X21930976Y-39493527D01*
X21939292Y-39490493D01*
X21968215Y-39481095D01*
X21968220Y-39481093D01*
X21985289Y-39472395D01*
X21985290Y-39472395D01*
X21450001Y-38937106D01*
X21450000Y-38937106D01*
X20914708Y-39472396D01*
X20931778Y-39481093D01*
X20960706Y-39490492D01*
X21018382Y-39529929D01*
X21045581Y-39594287D01*
X21033668Y-39663134D01*
X20986425Y-39714610D01*
X20978686Y-39718908D01*
X20847004Y-39786004D01*
X20700505Y-39892441D01*
X20700500Y-39892445D01*
X20572445Y-40020500D01*
X20572441Y-40020505D01*
X20466006Y-40167002D01*
X20383788Y-40328360D01*
X20383787Y-40328363D01*
X20327829Y-40500589D01*
X20302473Y-40660678D01*
X20272544Y-40723813D01*
X20213232Y-40760744D01*
X20143369Y-40759746D01*
X20085137Y-40721136D01*
X20057527Y-40660678D01*
X20038832Y-40542649D01*
X20032171Y-40500591D01*
X19992565Y-40378693D01*
X19976212Y-40328363D01*
X19976211Y-40328360D01*
X19937190Y-40251778D01*
X19893996Y-40167006D01*
X19876624Y-40143096D01*
X19787558Y-40020505D01*
X19787554Y-40020500D01*
X19659499Y-39892445D01*
X19659494Y-39892441D01*
X19512997Y-39786006D01*
X19512996Y-39786005D01*
X19512994Y-39786004D01*
X19436906Y-39747235D01*
X19351639Y-39703788D01*
X19351636Y-39703787D01*
X19179410Y-39647829D01*
X19019321Y-39622473D01*
X18956186Y-39592544D01*
X18919255Y-39533232D01*
X18920253Y-39463370D01*
X18958863Y-39405137D01*
X19019321Y-39377527D01*
X19089425Y-39366422D01*
X19179409Y-39352171D01*
X19351639Y-39296211D01*
X19512994Y-39213996D01*
X19659501Y-39107553D01*
X19787553Y-38979501D01*
X19893996Y-38832994D01*
X19961091Y-38701312D01*
X20009064Y-38650518D01*
X20076885Y-38633723D01*
X20143020Y-38656260D01*
X20186472Y-38710975D01*
X20189506Y-38719291D01*
X20198903Y-38748213D01*
X20198908Y-38748225D01*
X20207602Y-38765289D01*
X20207603Y-38765290D01*
X20742894Y-38230000D01*
X20677068Y-38164174D01*
X20950000Y-38164174D01*
X20950000Y-38295826D01*
X20984075Y-38422993D01*
X21049901Y-38537007D01*
X21142993Y-38630099D01*
X21257007Y-38695925D01*
X21384174Y-38730000D01*
X21515826Y-38730000D01*
X21642993Y-38695925D01*
X21757007Y-38630099D01*
X21850099Y-38537007D01*
X21915925Y-38422993D01*
X21950000Y-38295826D01*
X21950000Y-38164174D01*
X21915925Y-38037007D01*
X21850099Y-37922993D01*
X21757007Y-37829901D01*
X21642993Y-37764075D01*
X21515826Y-37730000D01*
X21384174Y-37730000D01*
X21257007Y-37764075D01*
X21142993Y-37829901D01*
X21049901Y-37922993D01*
X20984075Y-38037007D01*
X20950000Y-38164174D01*
X20677068Y-38164174D01*
X20207603Y-37694709D01*
X20198903Y-37711785D01*
X20189505Y-37740710D01*
X20150067Y-37798385D01*
X20085708Y-37825582D01*
X20016861Y-37813666D01*
X19965387Y-37766421D01*
X19961090Y-37758685D01*
X19937193Y-37711785D01*
X19893996Y-37627006D01*
X19818355Y-37522894D01*
X19787558Y-37480505D01*
X19787554Y-37480500D01*
X19659499Y-37352445D01*
X19659494Y-37352441D01*
X19512997Y-37246006D01*
X19512996Y-37246005D01*
X19512994Y-37246004D01*
X19461300Y-37219664D01*
X19351639Y-37163788D01*
X19351636Y-37163787D01*
X19304702Y-37148538D01*
X19304701Y-37148537D01*
X19179411Y-37107829D01*
X19179412Y-37107829D01*
X19000551Y-37079500D01*
X19000546Y-37079500D01*
X18819454Y-37079500D01*
X18819449Y-37079500D01*
X18640589Y-37107829D01*
X18468363Y-37163787D01*
X18468360Y-37163788D01*
X18307002Y-37246006D01*
X18160505Y-37352441D01*
X18160500Y-37352445D01*
X18032445Y-37480500D01*
X18032441Y-37480505D01*
X17926006Y-37627002D01*
X17843788Y-37788360D01*
X17843787Y-37788363D01*
X17787829Y-37960589D01*
X17762473Y-38120678D01*
X17732544Y-38183813D01*
X17673232Y-38220744D01*
X17603369Y-38219746D01*
X17545137Y-38181136D01*
X17517527Y-38120678D01*
X17501067Y-38016759D01*
X17492171Y-37960591D01*
X17436211Y-37788361D01*
X17436211Y-37788360D01*
X17397190Y-37711778D01*
X17353996Y-37627006D01*
X17278355Y-37522894D01*
X17247558Y-37480505D01*
X17247554Y-37480500D01*
X17119499Y-37352445D01*
X17119494Y-37352441D01*
X16972997Y-37246006D01*
X16972996Y-37246005D01*
X16972994Y-37246004D01*
X16921300Y-37219664D01*
X16811639Y-37163788D01*
X16811636Y-37163787D01*
X16639410Y-37107829D01*
X16460551Y-37079500D01*
X16460546Y-37079500D01*
X16279454Y-37079500D01*
X16279449Y-37079500D01*
X16100589Y-37107829D01*
X15928363Y-37163787D01*
X15928360Y-37163788D01*
X15767002Y-37246006D01*
X15620505Y-37352441D01*
X15620500Y-37352445D01*
X15492445Y-37480500D01*
X15492441Y-37480505D01*
X15386006Y-37627002D01*
X15303788Y-37788360D01*
X15303787Y-37788363D01*
X15247829Y-37960589D01*
X15219500Y-38139448D01*
X12350294Y-38139448D01*
X12338848Y-38131132D01*
X12338847Y-38131131D01*
X12338845Y-38131130D01*
X12248732Y-38085215D01*
X12114383Y-38016760D01*
X11874785Y-37938910D01*
X11625962Y-37899500D01*
X11374038Y-37899500D01*
X11249626Y-37919205D01*
X11125214Y-37938910D01*
X10885616Y-38016760D01*
X10661151Y-38131132D01*
X10457350Y-38279201D01*
X10457345Y-38279205D01*
X10279205Y-38457345D01*
X10279201Y-38457350D01*
X10131132Y-38661151D01*
X10016760Y-38885616D01*
X9938910Y-39125214D01*
X9911001Y-39301426D01*
X9899500Y-39374038D01*
X500500Y-39374038D01*
X500500Y-36987603D01*
X20914709Y-36987603D01*
X21450000Y-37522894D01*
X21450001Y-37522894D01*
X21985290Y-36987603D01*
X31074709Y-36987603D01*
X31610000Y-37522894D01*
X31610001Y-37522894D01*
X32145290Y-36987603D01*
X38694709Y-36987603D01*
X39230000Y-37522894D01*
X39230001Y-37522894D01*
X39765290Y-36987603D01*
X51394709Y-36987603D01*
X51930000Y-37522894D01*
X51930001Y-37522894D01*
X52465290Y-36987603D01*
X56474709Y-36987603D01*
X57010000Y-37522894D01*
X57010001Y-37522894D01*
X57545290Y-36987603D01*
X57545289Y-36987602D01*
X57528225Y-36978908D01*
X57528213Y-36978903D01*
X57326128Y-36913242D01*
X57116246Y-36880000D01*
X56903754Y-36880000D01*
X56693872Y-36913242D01*
X56693869Y-36913242D01*
X56491783Y-36978904D01*
X56474709Y-36987603D01*
X52465290Y-36987603D01*
X52465289Y-36987602D01*
X52448225Y-36978908D01*
X52448213Y-36978903D01*
X52246128Y-36913242D01*
X52036246Y-36880000D01*
X51823754Y-36880000D01*
X51613872Y-36913242D01*
X51613869Y-36913242D01*
X51411783Y-36978904D01*
X51394709Y-36987603D01*
X39765290Y-36987603D01*
X39765289Y-36987602D01*
X39748225Y-36978908D01*
X39748213Y-36978903D01*
X39546128Y-36913242D01*
X39336246Y-36880000D01*
X39123754Y-36880000D01*
X38913872Y-36913242D01*
X38913869Y-36913242D01*
X38711783Y-36978904D01*
X38694709Y-36987603D01*
X32145290Y-36987603D01*
X32145289Y-36987602D01*
X32128225Y-36978908D01*
X32128213Y-36978903D01*
X31926128Y-36913242D01*
X31716246Y-36880000D01*
X31503754Y-36880000D01*
X31293872Y-36913242D01*
X31293869Y-36913242D01*
X31091783Y-36978904D01*
X31074709Y-36987603D01*
X21985290Y-36987603D01*
X21985289Y-36987602D01*
X21968225Y-36978908D01*
X21968213Y-36978903D01*
X21766128Y-36913242D01*
X21556246Y-36880000D01*
X21343754Y-36880000D01*
X21133872Y-36913242D01*
X21133869Y-36913242D01*
X20931783Y-36978904D01*
X20914709Y-36987603D01*
X500500Y-36987603D01*
X500500Y-28353919D01*
X5853184Y-28353919D01*
X5924197Y-28390102D01*
X6148752Y-28463065D01*
X6148751Y-28463065D01*
X6381948Y-28500000D01*
X6618052Y-28500000D01*
X6851247Y-28463065D01*
X7075797Y-28390104D01*
X7146814Y-28353919D01*
X7012881Y-28219986D01*
X37080001Y-28219986D01*
X37090494Y-28322697D01*
X37145641Y-28489119D01*
X37145643Y-28489124D01*
X37237684Y-28638345D01*
X37361654Y-28762315D01*
X37510875Y-28854356D01*
X37510880Y-28854358D01*
X37677302Y-28909505D01*
X37677309Y-28909506D01*
X37780019Y-28919999D01*
X37880000Y-28919998D01*
X37880000Y-28120000D01*
X37080001Y-28120000D01*
X37080001Y-28219986D01*
X7012881Y-28219986D01*
X6500001Y-27707106D01*
X6500000Y-27707106D01*
X5853184Y-28353919D01*
X500500Y-28353919D01*
X500500Y-26881947D01*
X5000000Y-26881947D01*
X5000000Y-27118052D01*
X5036934Y-27351247D01*
X5109898Y-27575805D01*
X5146078Y-27646813D01*
X5146079Y-27646814D01*
X5792894Y-27000000D01*
X5727068Y-26934174D01*
X6000000Y-26934174D01*
X6000000Y-27065826D01*
X6034075Y-27192993D01*
X6099901Y-27307007D01*
X6192993Y-27400099D01*
X6307007Y-27465925D01*
X6434174Y-27500000D01*
X6565826Y-27500000D01*
X6692993Y-27465925D01*
X6807007Y-27400099D01*
X6900099Y-27307007D01*
X6965925Y-27192993D01*
X7000000Y-27065826D01*
X7000000Y-26999999D01*
X7207106Y-26999999D01*
X7207106Y-27000001D01*
X7853919Y-27646814D01*
X7890104Y-27575797D01*
X7892852Y-27567339D01*
X37980000Y-27567339D01*
X37980000Y-27672661D01*
X38007259Y-27774394D01*
X38059920Y-27865606D01*
X38134394Y-27940080D01*
X38225606Y-27992741D01*
X38327339Y-28020000D01*
X38432661Y-28020000D01*
X38534394Y-27992741D01*
X38625606Y-27940080D01*
X38700080Y-27865606D01*
X38752741Y-27774394D01*
X38780000Y-27672661D01*
X38780000Y-27567339D01*
X38752741Y-27465606D01*
X38700080Y-27374394D01*
X38625606Y-27299920D01*
X38534394Y-27247259D01*
X38432661Y-27220000D01*
X38327339Y-27220000D01*
X38225606Y-27247259D01*
X38134394Y-27299920D01*
X38059920Y-27374394D01*
X38007259Y-27465606D01*
X37980000Y-27567339D01*
X7892852Y-27567339D01*
X7963065Y-27351247D01*
X8000000Y-27118052D01*
X8000000Y-27020013D01*
X37080000Y-27020013D01*
X37080000Y-27120000D01*
X37880000Y-27120000D01*
X37880000Y-26320000D01*
X38880000Y-26320000D01*
X38880000Y-28919999D01*
X38979972Y-28919999D01*
X38979986Y-28919998D01*
X39082697Y-28909505D01*
X39249119Y-28854358D01*
X39249124Y-28854356D01*
X39296566Y-28825093D01*
X45502011Y-28825093D01*
X45695588Y-28887990D01*
X45897683Y-28920000D01*
X46102317Y-28920000D01*
X46304411Y-28887990D01*
X46497987Y-28825093D01*
X53122011Y-28825093D01*
X53315588Y-28887990D01*
X53517683Y-28920000D01*
X53722317Y-28920000D01*
X53924411Y-28887990D01*
X54117987Y-28825093D01*
X53620001Y-28327106D01*
X53620000Y-28327106D01*
X53122011Y-28825093D01*
X46497987Y-28825093D01*
X46000001Y-28327106D01*
X46000000Y-28327106D01*
X45502011Y-28825093D01*
X39296566Y-28825093D01*
X39398345Y-28762315D01*
X39522315Y-28638345D01*
X39614356Y-28489124D01*
X39614358Y-28489119D01*
X39669505Y-28322697D01*
X39669506Y-28322690D01*
X39679999Y-28219986D01*
X39679999Y-28126920D01*
X39699683Y-28059881D01*
X39752486Y-28014125D01*
X39821645Y-28004181D01*
X39885201Y-28033205D01*
X39914484Y-28070624D01*
X39976933Y-28193186D01*
X39978768Y-28196788D01*
X40080586Y-28336928D01*
X40203072Y-28459414D01*
X40343212Y-28561232D01*
X40497555Y-28639873D01*
X40662299Y-28693402D01*
X40833389Y-28720500D01*
X40833390Y-28720500D01*
X41006610Y-28720500D01*
X41006611Y-28720500D01*
X41177701Y-28693402D01*
X41342445Y-28639873D01*
X41496788Y-28561232D01*
X41636928Y-28459414D01*
X41759414Y-28336928D01*
X41861232Y-28196788D01*
X41939873Y-28042445D01*
X41993402Y-27877701D01*
X42020500Y-27706611D01*
X42020500Y-27533389D01*
X41993402Y-27362299D01*
X41962678Y-27267743D01*
X41962603Y-27265100D01*
X41961201Y-27262856D01*
X41961611Y-27230375D01*
X41960684Y-27197905D01*
X41962050Y-27195638D01*
X41962084Y-27192991D01*
X41979989Y-27165889D01*
X41996764Y-27138072D01*
X41999140Y-27136903D01*
X42000599Y-27134696D01*
X42030305Y-27121580D01*
X42059465Y-27107244D01*
X42062095Y-27107545D01*
X42064516Y-27106477D01*
X42096596Y-27111504D01*
X42128879Y-27115208D01*
X42131732Y-27117010D01*
X42133544Y-27117294D01*
X42162990Y-27136748D01*
X42231791Y-27197905D01*
X42339612Y-27293746D01*
X42376640Y-27352997D01*
X42379704Y-27405822D01*
X42364895Y-27499327D01*
X42359500Y-27533389D01*
X42359500Y-27706611D01*
X42361988Y-27722317D01*
X42385934Y-27873513D01*
X42386598Y-27877701D01*
X42440127Y-28042445D01*
X42518768Y-28196788D01*
X42620586Y-28336928D01*
X42743072Y-28459414D01*
X42883212Y-28561232D01*
X43037555Y-28639873D01*
X43202299Y-28693402D01*
X43373389Y-28720500D01*
X43373390Y-28720500D01*
X43546610Y-28720500D01*
X43546611Y-28720500D01*
X43717701Y-28693402D01*
X43882445Y-28639873D01*
X44036788Y-28561232D01*
X44176928Y-28459414D01*
X44299414Y-28336928D01*
X44401232Y-28196788D01*
X44479873Y-28042445D01*
X44507185Y-27958385D01*
X44546621Y-27900712D01*
X44610979Y-27873513D01*
X44679826Y-27885427D01*
X44731302Y-27932671D01*
X44743046Y-27958386D01*
X44794904Y-28117987D01*
X44794905Y-28117987D01*
X45292893Y-27620000D01*
X45240232Y-27567339D01*
X45600000Y-27567339D01*
X45600000Y-27672661D01*
X45627259Y-27774394D01*
X45679920Y-27865606D01*
X45754394Y-27940080D01*
X45845606Y-27992741D01*
X45947339Y-28020000D01*
X46052661Y-28020000D01*
X46154394Y-27992741D01*
X46245606Y-27940080D01*
X46320080Y-27865606D01*
X46372741Y-27774394D01*
X46400000Y-27672661D01*
X46400000Y-27619999D01*
X46707106Y-27619999D01*
X46707106Y-27620000D01*
X47205093Y-28117986D01*
X47256952Y-27958384D01*
X47296390Y-27900709D01*
X47360748Y-27873511D01*
X47429595Y-27885426D01*
X47481070Y-27932670D01*
X47492812Y-27958381D01*
X47492815Y-27958388D01*
X47520128Y-28042449D01*
X47596933Y-28193186D01*
X47598768Y-28196788D01*
X47700586Y-28336928D01*
X47823072Y-28459414D01*
X47963212Y-28561232D01*
X48117555Y-28639873D01*
X48282299Y-28693402D01*
X48453389Y-28720500D01*
X48453390Y-28720500D01*
X48626610Y-28720500D01*
X48626611Y-28720500D01*
X48797701Y-28693402D01*
X48962445Y-28639873D01*
X49116788Y-28561232D01*
X49256928Y-28459414D01*
X49379414Y-28336928D01*
X49481232Y-28196788D01*
X49559873Y-28042445D01*
X49613402Y-27877701D01*
X49640500Y-27706611D01*
X49640500Y-27533389D01*
X49613402Y-27362299D01*
X49559873Y-27197555D01*
X49481232Y-27043212D01*
X49379414Y-26903072D01*
X49256928Y-26780586D01*
X49116788Y-26678768D01*
X48962445Y-26600127D01*
X48797701Y-26546598D01*
X48797699Y-26546597D01*
X48797698Y-26546597D01*
X48666271Y-26525781D01*
X48626611Y-26519500D01*
X48453389Y-26519500D01*
X48413728Y-26525781D01*
X48282302Y-26546597D01*
X48117552Y-26600128D01*
X47963211Y-26678768D01*
X47902347Y-26722989D01*
X47823072Y-26780586D01*
X47823070Y-26780588D01*
X47823069Y-26780588D01*
X47700588Y-26903069D01*
X47700588Y-26903070D01*
X47700586Y-26903072D01*
X47656859Y-26963256D01*
X47598768Y-27043211D01*
X47520128Y-27197550D01*
X47492814Y-27281615D01*
X47453376Y-27339290D01*
X47389017Y-27366488D01*
X47320171Y-27354573D01*
X47268695Y-27307328D01*
X47256952Y-27281615D01*
X47205093Y-27122011D01*
X46707106Y-27619999D01*
X46400000Y-27619999D01*
X46400000Y-27567339D01*
X46372741Y-27465606D01*
X46320080Y-27374394D01*
X46245606Y-27299920D01*
X46154394Y-27247259D01*
X46052661Y-27220000D01*
X45947339Y-27220000D01*
X45845606Y-27247259D01*
X45754394Y-27299920D01*
X45679920Y-27374394D01*
X45627259Y-27465606D01*
X45600000Y-27567339D01*
X45240232Y-27567339D01*
X44794904Y-27122011D01*
X44743046Y-27281613D01*
X44703608Y-27339288D01*
X44639249Y-27366486D01*
X44570403Y-27354571D01*
X44518927Y-27307327D01*
X44507187Y-27281619D01*
X44479873Y-27197555D01*
X44401232Y-27043212D01*
X44299414Y-26903072D01*
X44176928Y-26780586D01*
X44036788Y-26678768D01*
X43882445Y-26600127D01*
X43717701Y-26546598D01*
X43717699Y-26546597D01*
X43717698Y-26546597D01*
X43586271Y-26525781D01*
X43546611Y-26519500D01*
X43373389Y-26519500D01*
X43316359Y-26528532D01*
X43202297Y-26546598D01*
X43125967Y-26571399D01*
X43056125Y-26573394D01*
X43005268Y-26546147D01*
X42975290Y-26519500D01*
X42868075Y-26424197D01*
X42857620Y-26414904D01*
X45502011Y-26414904D01*
X46000000Y-26912893D01*
X46000001Y-26912893D01*
X46497987Y-26414905D01*
X46497987Y-26414904D01*
X46304419Y-26352010D01*
X46102317Y-26320000D01*
X45897683Y-26320000D01*
X45695581Y-26352010D01*
X45695578Y-26352010D01*
X45502011Y-26414904D01*
X42857620Y-26414904D01*
X42742119Y-26312236D01*
X42705091Y-26252985D01*
X42700500Y-26219557D01*
X42700500Y-21205093D01*
X48042011Y-21205093D01*
X48235588Y-21267990D01*
X48437683Y-21300000D01*
X48642317Y-21300000D01*
X48844411Y-21267990D01*
X49037987Y-21205093D01*
X48540001Y-20707106D01*
X48540000Y-20707106D01*
X48042011Y-21205093D01*
X42700500Y-21205093D01*
X42700500Y-21050485D01*
X42720185Y-20983446D01*
X42772989Y-20937691D01*
X42842147Y-20927747D01*
X42880795Y-20940000D01*
X42883209Y-20941230D01*
X42883212Y-20941232D01*
X43037555Y-21019873D01*
X43202299Y-21073402D01*
X43373389Y-21100500D01*
X43373390Y-21100500D01*
X43546610Y-21100500D01*
X43546611Y-21100500D01*
X43717701Y-21073402D01*
X43882445Y-21019873D01*
X44036788Y-20941232D01*
X44176928Y-20839414D01*
X44299414Y-20716928D01*
X44401232Y-20576788D01*
X44479873Y-20422445D01*
X44533402Y-20257701D01*
X44560500Y-20086611D01*
X44560500Y-19913389D01*
X44533402Y-19742299D01*
X44479873Y-19577555D01*
X44401232Y-19423212D01*
X44299414Y-19283072D01*
X44176928Y-19160586D01*
X44036788Y-19058768D01*
X43965572Y-19022482D01*
X43882447Y-18980128D01*
X43882446Y-18980127D01*
X43882445Y-18980127D01*
X43717701Y-18926598D01*
X43717699Y-18926597D01*
X43717698Y-18926597D01*
X43586271Y-18905781D01*
X43546611Y-18899500D01*
X43373389Y-18899500D01*
X43333728Y-18905781D01*
X43202302Y-18926597D01*
X43202299Y-18926598D01*
X43038485Y-18979825D01*
X43037549Y-18980129D01*
X42880794Y-19059999D01*
X42812125Y-19072895D01*
X42747385Y-19046618D01*
X42707128Y-18989512D01*
X42700500Y-18949514D01*
X42700500Y-14024500D01*
X42720185Y-13957461D01*
X42772989Y-13911706D01*
X42824500Y-13900500D01*
X47017794Y-13900500D01*
X47084833Y-13920185D01*
X47130588Y-13972989D01*
X47140532Y-14042147D01*
X47111507Y-14105703D01*
X47079794Y-14131887D01*
X46962689Y-14199497D01*
X46962683Y-14199502D01*
X46869502Y-14292683D01*
X46869500Y-14292686D01*
X46803608Y-14406812D01*
X46769500Y-14534108D01*
X46769500Y-18696873D01*
X46749815Y-18763912D01*
X46722211Y-18794297D01*
X46519618Y-18953818D01*
X46454769Y-18979825D01*
X46404589Y-18974325D01*
X46257698Y-18926597D01*
X46126271Y-18905781D01*
X46086611Y-18899500D01*
X45913389Y-18899500D01*
X45873728Y-18905781D01*
X45742302Y-18926597D01*
X45742299Y-18926598D01*
X45578485Y-18979825D01*
X45577552Y-18980128D01*
X45423211Y-19058768D01*
X45343256Y-19116859D01*
X45283072Y-19160586D01*
X45283070Y-19160588D01*
X45283069Y-19160588D01*
X45160588Y-19283069D01*
X45160588Y-19283070D01*
X45160586Y-19283072D01*
X45131555Y-19323030D01*
X45058768Y-19423211D01*
X44980128Y-19577552D01*
X44926597Y-19742302D01*
X44899500Y-19913389D01*
X44899500Y-20086610D01*
X44925934Y-20253513D01*
X44926598Y-20257701D01*
X44980127Y-20422445D01*
X45058768Y-20576788D01*
X45160586Y-20716928D01*
X45283072Y-20839414D01*
X45423212Y-20941232D01*
X45577555Y-21019873D01*
X45742299Y-21073402D01*
X45913389Y-21100500D01*
X45913390Y-21100500D01*
X46086610Y-21100500D01*
X46086611Y-21100500D01*
X46257701Y-21073402D01*
X46422445Y-21019873D01*
X46576788Y-20941232D01*
X46716928Y-20839414D01*
X46839414Y-20716928D01*
X46941232Y-20576788D01*
X47019873Y-20422445D01*
X47047185Y-20338385D01*
X47086621Y-20280712D01*
X47150979Y-20253513D01*
X47219826Y-20265427D01*
X47271302Y-20312671D01*
X47283046Y-20338386D01*
X47334904Y-20497987D01*
X47885554Y-19947339D01*
X48140000Y-19947339D01*
X48140000Y-20052661D01*
X48167259Y-20154394D01*
X48219920Y-20245606D01*
X48294394Y-20320080D01*
X48385606Y-20372741D01*
X48487339Y-20400000D01*
X48592661Y-20400000D01*
X48694394Y-20372741D01*
X48785606Y-20320080D01*
X48860080Y-20245606D01*
X48912741Y-20154394D01*
X48940000Y-20052661D01*
X48940000Y-19947339D01*
X48912741Y-19845606D01*
X48860080Y-19754394D01*
X48785606Y-19679920D01*
X48694394Y-19627259D01*
X48592661Y-19600000D01*
X48487339Y-19600000D01*
X48385606Y-19627259D01*
X48294394Y-19679920D01*
X48219920Y-19754394D01*
X48167259Y-19845606D01*
X48140000Y-19947339D01*
X47885554Y-19947339D01*
X48186447Y-19646447D01*
X49037987Y-18794904D01*
X48844419Y-18732010D01*
X48642317Y-18700000D01*
X48437683Y-18700000D01*
X48235582Y-18732009D01*
X48040965Y-18795245D01*
X47950794Y-18841190D01*
X47882125Y-18854086D01*
X47817385Y-18827809D01*
X47777128Y-18770702D01*
X47770500Y-18730705D01*
X47770500Y-15224500D01*
X47790185Y-15157461D01*
X47842989Y-15111706D01*
X47894500Y-15100500D01*
X52097794Y-15100500D01*
X52164833Y-15120185D01*
X52210588Y-15172989D01*
X52220532Y-15242147D01*
X52191507Y-15305703D01*
X52159794Y-15331887D01*
X52042689Y-15399497D01*
X52042683Y-15399502D01*
X51949502Y-15492683D01*
X51949500Y-15492686D01*
X51883608Y-15606812D01*
X51849500Y-15734108D01*
X51849500Y-18955443D01*
X51829815Y-19022482D01*
X51777011Y-19068237D01*
X51707853Y-19078181D01*
X51660719Y-19061176D01*
X51656793Y-19058771D01*
X51656790Y-19058769D01*
X51656788Y-19058768D01*
X51502445Y-18980127D01*
X51337701Y-18926598D01*
X51337699Y-18926597D01*
X51337698Y-18926597D01*
X51206271Y-18905781D01*
X51166611Y-18899500D01*
X50993389Y-18899500D01*
X50953728Y-18905781D01*
X50822302Y-18926597D01*
X50822299Y-18926598D01*
X50658485Y-18979825D01*
X50657552Y-18980128D01*
X50503211Y-19058768D01*
X50423256Y-19116859D01*
X50363072Y-19160586D01*
X50363070Y-19160588D01*
X50363069Y-19160588D01*
X50240588Y-19283069D01*
X50240588Y-19283070D01*
X50240586Y-19283072D01*
X50211555Y-19323030D01*
X50138768Y-19423211D01*
X50060128Y-19577550D01*
X50032814Y-19661615D01*
X49993376Y-19719290D01*
X49929017Y-19746488D01*
X49860171Y-19734573D01*
X49808695Y-19687328D01*
X49796952Y-19661615D01*
X49745093Y-19502011D01*
X49247106Y-19999999D01*
X49247106Y-20000000D01*
X49745093Y-20497986D01*
X49796952Y-20338384D01*
X49836390Y-20280709D01*
X49900748Y-20253511D01*
X49969595Y-20265426D01*
X50021070Y-20312670D01*
X50032812Y-20338381D01*
X50032815Y-20338388D01*
X50060128Y-20422449D01*
X50098617Y-20497987D01*
X50138768Y-20576788D01*
X50240586Y-20716928D01*
X50363072Y-20839414D01*
X50503212Y-20941232D01*
X50657555Y-21019873D01*
X50822299Y-21073402D01*
X50993389Y-21100500D01*
X50993390Y-21100500D01*
X51166610Y-21100500D01*
X51166611Y-21100500D01*
X51337701Y-21073402D01*
X51502445Y-21019873D01*
X51656788Y-20941232D01*
X51656790Y-20941230D01*
X51656793Y-20941229D01*
X51660710Y-20938829D01*
X51728156Y-20920584D01*
X51794758Y-20941700D01*
X51839372Y-20995472D01*
X51849500Y-21044556D01*
X51849500Y-26218084D01*
X51829815Y-26285123D01*
X51807519Y-26311083D01*
X51679249Y-26424203D01*
X51538927Y-26547951D01*
X51475626Y-26577528D01*
X51418593Y-26572880D01*
X51337703Y-26546598D01*
X51337704Y-26546598D01*
X51209383Y-26526274D01*
X51166611Y-26519500D01*
X50993389Y-26519500D01*
X50953728Y-26525781D01*
X50822302Y-26546597D01*
X50657552Y-26600128D01*
X50503211Y-26678768D01*
X50442347Y-26722989D01*
X50363072Y-26780586D01*
X50363070Y-26780588D01*
X50363069Y-26780588D01*
X50240588Y-26903069D01*
X50240588Y-26903070D01*
X50240586Y-26903072D01*
X50196859Y-26963256D01*
X50138768Y-27043211D01*
X50060128Y-27197552D01*
X50006597Y-27362302D01*
X49984895Y-27499327D01*
X49979500Y-27533389D01*
X49979500Y-27706611D01*
X49981988Y-27722317D01*
X50005934Y-27873513D01*
X50006598Y-27877701D01*
X50060127Y-28042445D01*
X50138768Y-28196788D01*
X50240586Y-28336928D01*
X50363072Y-28459414D01*
X50503212Y-28561232D01*
X50657555Y-28639873D01*
X50822299Y-28693402D01*
X50993389Y-28720500D01*
X50993390Y-28720500D01*
X51166610Y-28720500D01*
X51166611Y-28720500D01*
X51337701Y-28693402D01*
X51502445Y-28639873D01*
X51656788Y-28561232D01*
X51796928Y-28459414D01*
X51919414Y-28336928D01*
X52021232Y-28196788D01*
X52099873Y-28042445D01*
X52127185Y-27958385D01*
X52166621Y-27900712D01*
X52230979Y-27873513D01*
X52299826Y-27885427D01*
X52351302Y-27932671D01*
X52363046Y-27958386D01*
X52414904Y-28117987D01*
X52414905Y-28117987D01*
X52965555Y-27567339D01*
X53220000Y-27567339D01*
X53220000Y-27672661D01*
X53247259Y-27774394D01*
X53299920Y-27865606D01*
X53374394Y-27940080D01*
X53465606Y-27992741D01*
X53567339Y-28020000D01*
X53672661Y-28020000D01*
X53774394Y-27992741D01*
X53865606Y-27940080D01*
X53940080Y-27865606D01*
X53992741Y-27774394D01*
X54020000Y-27672661D01*
X54020000Y-27619999D01*
X54327106Y-27619999D01*
X54327106Y-27620000D01*
X54825093Y-28117986D01*
X54887990Y-27924411D01*
X54920000Y-27722317D01*
X54920000Y-27517682D01*
X54887990Y-27315588D01*
X54825093Y-27122011D01*
X54327106Y-27619999D01*
X54020000Y-27619999D01*
X54020000Y-27567339D01*
X53992741Y-27465606D01*
X53940080Y-27374394D01*
X53865606Y-27299920D01*
X53774394Y-27247259D01*
X53672661Y-27220000D01*
X53567339Y-27220000D01*
X53465606Y-27247259D01*
X53374394Y-27299920D01*
X53299920Y-27374394D01*
X53247259Y-27465606D01*
X53220000Y-27567339D01*
X52965555Y-27567339D01*
X53051937Y-27480957D01*
X53266447Y-27266447D01*
X54117987Y-26414904D01*
X53924419Y-26352010D01*
X53722317Y-26320000D01*
X53517683Y-26320000D01*
X53315582Y-26352009D01*
X53120965Y-26415245D01*
X53030794Y-26461190D01*
X52962125Y-26474086D01*
X52897385Y-26447809D01*
X52857128Y-26390702D01*
X52850500Y-26350705D01*
X52850500Y-24848879D01*
X73049500Y-24848879D01*
X73049500Y-26151122D01*
X73049501Y-26151125D01*
X73052399Y-26193886D01*
X73052399Y-26193887D01*
X73098360Y-26378696D01*
X73182967Y-26549292D01*
X73182969Y-26549295D01*
X73302277Y-26697721D01*
X73302278Y-26697722D01*
X73450704Y-26817030D01*
X73450707Y-26817032D01*
X73621302Y-26901639D01*
X73621303Y-26901639D01*
X73621307Y-26901641D01*
X73806111Y-26947600D01*
X73848877Y-26950500D01*
X75151122Y-26950499D01*
X75193889Y-26947600D01*
X75378693Y-26901641D01*
X75549296Y-26817030D01*
X75697722Y-26697722D01*
X75817030Y-26549296D01*
X75901641Y-26378693D01*
X75947600Y-26193889D01*
X75950500Y-26151123D01*
X75950499Y-24848879D01*
X78849500Y-24848879D01*
X78849500Y-26151122D01*
X78849501Y-26151125D01*
X78852399Y-26193886D01*
X78852399Y-26193887D01*
X78898360Y-26378696D01*
X78982967Y-26549292D01*
X78982969Y-26549295D01*
X79102277Y-26697721D01*
X79102278Y-26697722D01*
X79250704Y-26817030D01*
X79250707Y-26817032D01*
X79421302Y-26901639D01*
X79421303Y-26901639D01*
X79421307Y-26901641D01*
X79606111Y-26947600D01*
X79648877Y-26950500D01*
X80951122Y-26950499D01*
X80993889Y-26947600D01*
X81178693Y-26901641D01*
X81349296Y-26817030D01*
X81497722Y-26697722D01*
X81617030Y-26549296D01*
X81701641Y-26378693D01*
X81747600Y-26193889D01*
X81750500Y-26151123D01*
X81750499Y-24848878D01*
X81747600Y-24806111D01*
X81701641Y-24621307D01*
X81644989Y-24507078D01*
X81617032Y-24450707D01*
X81617030Y-24450704D01*
X81497722Y-24302278D01*
X81497721Y-24302277D01*
X81349295Y-24182969D01*
X81349292Y-24182967D01*
X81178697Y-24098360D01*
X80993892Y-24052400D01*
X80972506Y-24050950D01*
X80951123Y-24049500D01*
X80951120Y-24049500D01*
X79648877Y-24049500D01*
X79648874Y-24049501D01*
X79606113Y-24052399D01*
X79606112Y-24052399D01*
X79421303Y-24098360D01*
X79250707Y-24182967D01*
X79250704Y-24182969D01*
X79102278Y-24302277D01*
X79102277Y-24302278D01*
X78982969Y-24450704D01*
X78982967Y-24450707D01*
X78898360Y-24621302D01*
X78852400Y-24806107D01*
X78849500Y-24848879D01*
X75950499Y-24848879D01*
X75950499Y-24848878D01*
X75947600Y-24806111D01*
X75901641Y-24621307D01*
X75844989Y-24507078D01*
X75817032Y-24450707D01*
X75817030Y-24450704D01*
X75697722Y-24302278D01*
X75697721Y-24302277D01*
X75549295Y-24182969D01*
X75549292Y-24182967D01*
X75378697Y-24098360D01*
X75193892Y-24052400D01*
X75172506Y-24050950D01*
X75151123Y-24049500D01*
X75151120Y-24049500D01*
X73848877Y-24049500D01*
X73848874Y-24049501D01*
X73806113Y-24052399D01*
X73806112Y-24052399D01*
X73621303Y-24098360D01*
X73450707Y-24182967D01*
X73450704Y-24182969D01*
X73302278Y-24302277D01*
X73302277Y-24302278D01*
X73182969Y-24450704D01*
X73182967Y-24450707D01*
X73098360Y-24621302D01*
X73052400Y-24806107D01*
X73049500Y-24848879D01*
X52850500Y-24848879D01*
X52850500Y-21044556D01*
X52870185Y-20977517D01*
X52922989Y-20931762D01*
X52992147Y-20921818D01*
X53039290Y-20938829D01*
X53043206Y-20941229D01*
X53059887Y-20949728D01*
X53197555Y-21019873D01*
X53362299Y-21073402D01*
X53533389Y-21100500D01*
X53533390Y-21100500D01*
X53706610Y-21100500D01*
X53706611Y-21100500D01*
X53877701Y-21073402D01*
X54042445Y-21019873D01*
X54196788Y-20941232D01*
X54336928Y-20839414D01*
X54459414Y-20716928D01*
X54561232Y-20576788D01*
X54639873Y-20422445D01*
X54693402Y-20257701D01*
X54720500Y-20086611D01*
X54720500Y-19913389D01*
X54712472Y-19862706D01*
X54721426Y-19793416D01*
X54758602Y-19745597D01*
X55180551Y-19415951D01*
X55207314Y-19400500D01*
X55232259Y-19375554D01*
X55260054Y-19353840D01*
X55273434Y-19336084D01*
X55284783Y-19323030D01*
X55300500Y-19307314D01*
X55314347Y-19283327D01*
X55322695Y-19270715D01*
X55339367Y-19248595D01*
X55350943Y-19219943D01*
X55366392Y-19193186D01*
X55375521Y-19159112D01*
X55388736Y-19126408D01*
X55392502Y-19095739D01*
X55400500Y-19065892D01*
X55400500Y-19030618D01*
X55404800Y-18995606D01*
X55402625Y-18980127D01*
X55401706Y-18973586D01*
X55400500Y-18956332D01*
X55400500Y-17624500D01*
X55420185Y-17557461D01*
X55472989Y-17511706D01*
X55524500Y-17500500D01*
X90475500Y-17500500D01*
X90542539Y-17520185D01*
X90588294Y-17572989D01*
X90599500Y-17624500D01*
X90599500Y-24576875D01*
X90579815Y-24643914D01*
X90527011Y-24689669D01*
X90457853Y-24699613D01*
X90394297Y-24670588D01*
X90375183Y-24649761D01*
X90306383Y-24555069D01*
X90306379Y-24555063D01*
X90144937Y-24393621D01*
X89960228Y-24259421D01*
X89756803Y-24155770D01*
X89539660Y-24085215D01*
X89314162Y-24049500D01*
X89314157Y-24049500D01*
X89085843Y-24049500D01*
X89085838Y-24049500D01*
X88860339Y-24085215D01*
X88643196Y-24155770D01*
X88439771Y-24259421D01*
X88255061Y-24393622D01*
X88093622Y-24555061D01*
X87959421Y-24739771D01*
X87855770Y-24943196D01*
X87785215Y-25160339D01*
X87749500Y-25385837D01*
X87749500Y-25614162D01*
X87785215Y-25839660D01*
X87855770Y-26056803D01*
X87959421Y-26260228D01*
X88093621Y-26444937D01*
X88255063Y-26606379D01*
X88439772Y-26740579D01*
X88518294Y-26780588D01*
X88643196Y-26844229D01*
X88643198Y-26844229D01*
X88643201Y-26844231D01*
X88746605Y-26877829D01*
X88860339Y-26914784D01*
X89085838Y-26950500D01*
X89085843Y-26950500D01*
X89314162Y-26950500D01*
X89539660Y-26914784D01*
X89559160Y-26908448D01*
X89756799Y-26844231D01*
X89960228Y-26740579D01*
X90144937Y-26606379D01*
X90306379Y-26444937D01*
X90375182Y-26350237D01*
X90430512Y-26307573D01*
X90500126Y-26301594D01*
X90561921Y-26334200D01*
X90596278Y-26395039D01*
X90599500Y-26423124D01*
X90599500Y-38576875D01*
X90579815Y-38643914D01*
X90527011Y-38689669D01*
X90457853Y-38699613D01*
X90394297Y-38670588D01*
X90375183Y-38649761D01*
X90306383Y-38555069D01*
X90306379Y-38555063D01*
X90144937Y-38393621D01*
X89960228Y-38259421D01*
X89902486Y-38230000D01*
X89756803Y-38155770D01*
X89539660Y-38085215D01*
X89314162Y-38049500D01*
X89314157Y-38049500D01*
X89085843Y-38049500D01*
X89085838Y-38049500D01*
X88860339Y-38085215D01*
X88643196Y-38155770D01*
X88439771Y-38259421D01*
X88255061Y-38393622D01*
X88093622Y-38555061D01*
X87959421Y-38739771D01*
X87855770Y-38943196D01*
X87785215Y-39160339D01*
X87749500Y-39385837D01*
X87749500Y-39614162D01*
X87785215Y-39839660D01*
X87855770Y-40056803D01*
X87955117Y-40251781D01*
X87959421Y-40260228D01*
X88093621Y-40444937D01*
X88255063Y-40606379D01*
X88439772Y-40740579D01*
X88497514Y-40770000D01*
X88643196Y-40844229D01*
X88643198Y-40844229D01*
X88643201Y-40844231D01*
X88719023Y-40868867D01*
X88860339Y-40914784D01*
X89085838Y-40950500D01*
X89085843Y-40950500D01*
X89314162Y-40950500D01*
X89539660Y-40914784D01*
X89561373Y-40907729D01*
X89756799Y-40844231D01*
X89960228Y-40740579D01*
X90144937Y-40606379D01*
X90306379Y-40444937D01*
X90375182Y-40350237D01*
X90430512Y-40307573D01*
X90500126Y-40301594D01*
X90561921Y-40334200D01*
X90596278Y-40395039D01*
X90599500Y-40423124D01*
X90599500Y-52576875D01*
X90579815Y-52643914D01*
X90527011Y-52689669D01*
X90457853Y-52699613D01*
X90394297Y-52670588D01*
X90375183Y-52649761D01*
X90306383Y-52555069D01*
X90306379Y-52555063D01*
X90144937Y-52393621D01*
X89960228Y-52259421D01*
X89756803Y-52155770D01*
X89539660Y-52085215D01*
X89314162Y-52049500D01*
X89314157Y-52049500D01*
X89085843Y-52049500D01*
X89085838Y-52049500D01*
X88860339Y-52085215D01*
X88643196Y-52155770D01*
X88439771Y-52259421D01*
X88255061Y-52393622D01*
X88093622Y-52555061D01*
X87959421Y-52739771D01*
X87855770Y-52943196D01*
X87785215Y-53160339D01*
X87749500Y-53385837D01*
X87749500Y-53614162D01*
X87785215Y-53839660D01*
X87855770Y-54056803D01*
X87925621Y-54193892D01*
X87959421Y-54260228D01*
X88093621Y-54444937D01*
X88255063Y-54606379D01*
X88439772Y-54740579D01*
X88534089Y-54788636D01*
X88643196Y-54844229D01*
X88643198Y-54844229D01*
X88643201Y-54844231D01*
X88746605Y-54877829D01*
X88860339Y-54914784D01*
X89085838Y-54950500D01*
X89085843Y-54950500D01*
X89314162Y-54950500D01*
X89539660Y-54914784D01*
X89756799Y-54844231D01*
X89960228Y-54740579D01*
X90144937Y-54606379D01*
X90306379Y-54444937D01*
X90375182Y-54350237D01*
X90430512Y-54307573D01*
X90500126Y-54301594D01*
X90561921Y-54334200D01*
X90596278Y-54395039D01*
X90599500Y-54423124D01*
X90599500Y-56065891D01*
X90633608Y-56193187D01*
X90666554Y-56250250D01*
X90699500Y-56307314D01*
X90792686Y-56400500D01*
X90906814Y-56466392D01*
X91034108Y-56500500D01*
X91165892Y-56500500D01*
X96368761Y-56500500D01*
X96435800Y-56520185D01*
X96481555Y-56572989D01*
X96484115Y-56579010D01*
X96540637Y-56722339D01*
X96540638Y-56722341D01*
X96632077Y-56842922D01*
X96752656Y-56934360D01*
X96752657Y-56934360D01*
X96752658Y-56934361D01*
X96893436Y-56989877D01*
X96981898Y-57000500D01*
X96981903Y-57000500D01*
X97593097Y-57000500D01*
X97593102Y-57000500D01*
X97681564Y-56989877D01*
X97822342Y-56934361D01*
X97942922Y-56842922D01*
X98034361Y-56722342D01*
X98084646Y-56594826D01*
X98127551Y-56539685D01*
X98193459Y-56516492D01*
X98261443Y-56532612D01*
X98309920Y-56582929D01*
X98315348Y-56594814D01*
X98350652Y-56684339D01*
X98365639Y-56722343D01*
X98457077Y-56842922D01*
X98577656Y-56934360D01*
X98577657Y-56934360D01*
X98577658Y-56934361D01*
X98718436Y-56989877D01*
X98806898Y-57000500D01*
X98806903Y-57000500D01*
X99418097Y-57000500D01*
X99418102Y-57000500D01*
X99506564Y-56989877D01*
X99647342Y-56934361D01*
X99767922Y-56842922D01*
X99821273Y-56772567D01*
X99877465Y-56731045D01*
X99947186Y-56726493D01*
X100007758Y-56759812D01*
X100125500Y-56877554D01*
X100125505Y-56877558D01*
X100203689Y-56934361D01*
X100272006Y-56983996D01*
X100357511Y-57027563D01*
X100408307Y-57075538D01*
X100425102Y-57143359D01*
X100402565Y-57209494D01*
X100357511Y-57248533D01*
X100167442Y-57345379D01*
X99995540Y-57470272D01*
X99995535Y-57470276D01*
X99845276Y-57620535D01*
X99845272Y-57620540D01*
X99720379Y-57792442D01*
X99623903Y-57981784D01*
X99617985Y-57999998D01*
X99617986Y-58000000D01*
X102382014Y-58000000D01*
X102382014Y-57999998D01*
X102376096Y-57981784D01*
X102279620Y-57792442D01*
X102154727Y-57620540D01*
X102154723Y-57620535D01*
X102004464Y-57470276D01*
X102004459Y-57470272D01*
X101832557Y-57345379D01*
X101642488Y-57248533D01*
X101591692Y-57200558D01*
X101574897Y-57132737D01*
X101597435Y-57066602D01*
X101642489Y-57027563D01*
X101727994Y-56983996D01*
X101874501Y-56877553D01*
X102002553Y-56749501D01*
X102108996Y-56602994D01*
X102191211Y-56441639D01*
X102247171Y-56269409D01*
X102261765Y-56177259D01*
X102275500Y-56090551D01*
X102275500Y-55909448D01*
X102259019Y-55805397D01*
X102247171Y-55730591D01*
X102191211Y-55558361D01*
X102191211Y-55558360D01*
X102153071Y-55483507D01*
X102108996Y-55397006D01*
X102022287Y-55277660D01*
X102002558Y-55250505D01*
X102002554Y-55250500D01*
X101874499Y-55122445D01*
X101874494Y-55122441D01*
X101727997Y-55016006D01*
X101727996Y-55016005D01*
X101727994Y-55016004D01*
X101676300Y-54989664D01*
X101566639Y-54933788D01*
X101566636Y-54933787D01*
X101439351Y-54892431D01*
X101381676Y-54852994D01*
X101354477Y-54788636D01*
X101366391Y-54719789D01*
X101413635Y-54668313D01*
X101477669Y-54650500D01*
X101768097Y-54650500D01*
X101768102Y-54650500D01*
X101856564Y-54639877D01*
X101997342Y-54584361D01*
X102117922Y-54492922D01*
X102209361Y-54372342D01*
X102264877Y-54231564D01*
X102275500Y-54143102D01*
X102275500Y-52856898D01*
X102264877Y-52768436D01*
X102209361Y-52627658D01*
X102209360Y-52627657D01*
X102209360Y-52627656D01*
X102117922Y-52507077D01*
X101997343Y-52415639D01*
X101856561Y-52360122D01*
X101810926Y-52354642D01*
X101768102Y-52349500D01*
X100231898Y-52349500D01*
X100192853Y-52354188D01*
X100143438Y-52360122D01*
X100002656Y-52415639D01*
X99882077Y-52507077D01*
X99790639Y-52627656D01*
X99735122Y-52768438D01*
X99729188Y-52817853D01*
X99724500Y-52856898D01*
X99724500Y-54143102D01*
X99730126Y-54189954D01*
X99735122Y-54231561D01*
X99790639Y-54372343D01*
X99882077Y-54492922D01*
X100002656Y-54584360D01*
X100002657Y-54584360D01*
X100002658Y-54584361D01*
X100143436Y-54639877D01*
X100231898Y-54650500D01*
X100231903Y-54650500D01*
X100522331Y-54650500D01*
X100589370Y-54670185D01*
X100635125Y-54722989D01*
X100645069Y-54792147D01*
X100616044Y-54855703D01*
X100560649Y-54892431D01*
X100433363Y-54933787D01*
X100433360Y-54933788D01*
X100272002Y-55016006D01*
X100125506Y-55122440D01*
X100007758Y-55240188D01*
X99946435Y-55273672D01*
X99876743Y-55268688D01*
X99821273Y-55227431D01*
X99767922Y-55157077D01*
X99647343Y-55065639D01*
X99506561Y-55010122D01*
X99460926Y-55004642D01*
X99418102Y-54999500D01*
X98806898Y-54999500D01*
X98767853Y-55004188D01*
X98718438Y-55010122D01*
X98577656Y-55065639D01*
X98457077Y-55157077D01*
X98365639Y-55277656D01*
X98335665Y-55353663D01*
X98315353Y-55405171D01*
X98272449Y-55460314D01*
X98206541Y-55483507D01*
X98138556Y-55467386D01*
X98090080Y-55417070D01*
X98084648Y-55405178D01*
X98034361Y-55277658D01*
X98034360Y-55277657D01*
X98034360Y-55277656D01*
X97942922Y-55157077D01*
X97822343Y-55065639D01*
X97681561Y-55010122D01*
X97635926Y-55004642D01*
X97593102Y-54999500D01*
X96981898Y-54999500D01*
X96942853Y-55004188D01*
X96893438Y-55010122D01*
X96752656Y-55065639D01*
X96632077Y-55157077D01*
X96540638Y-55277658D01*
X96540637Y-55277660D01*
X96484115Y-55420990D01*
X96441209Y-55476134D01*
X96375302Y-55499327D01*
X96368761Y-55499500D01*
X91724500Y-55499500D01*
X91657461Y-55479815D01*
X91611706Y-55427011D01*
X91600500Y-55375500D01*
X91600500Y-53385837D01*
X93549500Y-53385837D01*
X93549500Y-53614162D01*
X93585215Y-53839660D01*
X93655770Y-54056803D01*
X93725621Y-54193892D01*
X93759421Y-54260228D01*
X93893621Y-54444937D01*
X94055063Y-54606379D01*
X94239772Y-54740579D01*
X94334089Y-54788636D01*
X94443196Y-54844229D01*
X94443198Y-54844229D01*
X94443201Y-54844231D01*
X94546605Y-54877829D01*
X94660339Y-54914784D01*
X94885838Y-54950500D01*
X94885843Y-54950500D01*
X95114162Y-54950500D01*
X95339660Y-54914784D01*
X95556799Y-54844231D01*
X95760228Y-54740579D01*
X95944937Y-54606379D01*
X96106379Y-54444937D01*
X96240579Y-54260228D01*
X96344231Y-54056799D01*
X96414784Y-53839660D01*
X96450500Y-53614162D01*
X96450500Y-53385837D01*
X96414784Y-53160339D01*
X96344229Y-52943196D01*
X96240578Y-52739771D01*
X96106379Y-52555063D01*
X95944937Y-52393621D01*
X95760228Y-52259421D01*
X95556803Y-52155770D01*
X95339660Y-52085215D01*
X95114162Y-52049500D01*
X95114157Y-52049500D01*
X94885843Y-52049500D01*
X94885838Y-52049500D01*
X94660339Y-52085215D01*
X94443196Y-52155770D01*
X94239771Y-52259421D01*
X94055061Y-52393622D01*
X93893622Y-52555061D01*
X93759421Y-52739771D01*
X93655770Y-52943196D01*
X93585215Y-53160339D01*
X93549500Y-53385837D01*
X91600500Y-53385837D01*
X91600500Y-45000001D01*
X99617985Y-45000001D01*
X99623903Y-45018215D01*
X99720379Y-45207557D01*
X99845272Y-45379459D01*
X99845276Y-45379464D01*
X99995535Y-45529723D01*
X99995540Y-45529727D01*
X100167442Y-45654620D01*
X100356779Y-45751094D01*
X100356785Y-45751096D01*
X100499999Y-45797628D01*
X101500000Y-45797628D01*
X101643214Y-45751096D01*
X101643220Y-45751094D01*
X101832557Y-45654620D01*
X102004459Y-45529727D01*
X102004464Y-45529723D01*
X102154723Y-45379464D01*
X102154727Y-45379459D01*
X102279620Y-45207557D01*
X102376096Y-45018215D01*
X102382014Y-45000001D01*
X102382014Y-45000000D01*
X101500000Y-45000000D01*
X101500000Y-45797628D01*
X100499999Y-45797628D01*
X100500000Y-45797627D01*
X100500000Y-45000000D01*
X99617986Y-45000000D01*
X99617985Y-45000001D01*
X91600500Y-45000001D01*
X91600500Y-44437465D01*
X100525000Y-44437465D01*
X100525000Y-44562535D01*
X100557370Y-44683343D01*
X100619905Y-44791657D01*
X100708343Y-44880095D01*
X100816657Y-44942630D01*
X100937465Y-44975000D01*
X101062535Y-44975000D01*
X101183343Y-44942630D01*
X101291657Y-44880095D01*
X101380095Y-44791657D01*
X101442630Y-44683343D01*
X101475000Y-44562535D01*
X101475000Y-44437465D01*
X101442630Y-44316657D01*
X101380095Y-44208343D01*
X101291657Y-44119905D01*
X101183343Y-44057370D01*
X101062535Y-44025000D01*
X100937465Y-44025000D01*
X100816657Y-44057370D01*
X100708343Y-44119905D01*
X100619905Y-44208343D01*
X100557370Y-44316657D01*
X100525000Y-44437465D01*
X91600500Y-44437465D01*
X91600500Y-42504315D01*
X91620185Y-42437276D01*
X91672989Y-42391521D01*
X91742147Y-42381577D01*
X91786501Y-42396928D01*
X91792683Y-42400497D01*
X91792686Y-42400500D01*
X91906814Y-42466392D01*
X92034108Y-42500500D01*
X92165892Y-42500500D01*
X96368761Y-42500500D01*
X96435800Y-42520185D01*
X96481555Y-42572989D01*
X96484115Y-42579010D01*
X96540637Y-42722339D01*
X96540638Y-42722341D01*
X96632077Y-42842922D01*
X96752656Y-42934360D01*
X96752657Y-42934360D01*
X96752658Y-42934361D01*
X96893436Y-42989877D01*
X96981898Y-43000500D01*
X96981903Y-43000500D01*
X97593097Y-43000500D01*
X97593102Y-43000500D01*
X97681564Y-42989877D01*
X97822342Y-42934361D01*
X97942922Y-42842922D01*
X98034361Y-42722342D01*
X98084646Y-42594826D01*
X98127551Y-42539685D01*
X98193459Y-42516492D01*
X98261443Y-42532612D01*
X98309920Y-42582929D01*
X98315348Y-42594814D01*
X98350652Y-42684339D01*
X98365639Y-42722343D01*
X98457077Y-42842922D01*
X98577656Y-42934360D01*
X98577657Y-42934360D01*
X98577658Y-42934361D01*
X98718436Y-42989877D01*
X98806898Y-43000500D01*
X98806903Y-43000500D01*
X99418097Y-43000500D01*
X99418102Y-43000500D01*
X99506564Y-42989877D01*
X99647342Y-42934361D01*
X99767922Y-42842922D01*
X99821273Y-42772567D01*
X99877465Y-42731045D01*
X99947186Y-42726493D01*
X100007758Y-42759812D01*
X100125500Y-42877554D01*
X100125505Y-42877558D01*
X100203689Y-42934361D01*
X100272006Y-42983996D01*
X100357511Y-43027563D01*
X100408307Y-43075538D01*
X100425102Y-43143359D01*
X100402565Y-43209494D01*
X100357511Y-43248533D01*
X100167442Y-43345379D01*
X99995540Y-43470272D01*
X99995535Y-43470276D01*
X99845276Y-43620535D01*
X99845272Y-43620540D01*
X99720379Y-43792442D01*
X99623903Y-43981784D01*
X99617985Y-43999998D01*
X99617986Y-44000000D01*
X102382014Y-44000000D01*
X102382014Y-43999998D01*
X102376096Y-43981784D01*
X102279620Y-43792442D01*
X102154727Y-43620540D01*
X102154723Y-43620535D01*
X102004464Y-43470276D01*
X102004459Y-43470272D01*
X101832557Y-43345379D01*
X101642488Y-43248533D01*
X101591692Y-43200558D01*
X101574897Y-43132737D01*
X101597435Y-43066602D01*
X101642489Y-43027563D01*
X101727994Y-42983996D01*
X101874501Y-42877553D01*
X102002553Y-42749501D01*
X102108996Y-42602994D01*
X102191211Y-42441639D01*
X102247171Y-42269409D01*
X102270835Y-42120000D01*
X102275500Y-42090551D01*
X102275500Y-41909448D01*
X102250877Y-41753993D01*
X102247171Y-41730591D01*
X102191211Y-41558361D01*
X102191211Y-41558360D01*
X102153071Y-41483507D01*
X102108996Y-41397006D01*
X102042360Y-41305289D01*
X102002558Y-41250505D01*
X102002554Y-41250500D01*
X101874499Y-41122445D01*
X101874494Y-41122441D01*
X101727997Y-41016006D01*
X101727996Y-41016005D01*
X101727994Y-41016004D01*
X101676300Y-40989664D01*
X101566639Y-40933788D01*
X101566636Y-40933787D01*
X101439351Y-40892431D01*
X101381676Y-40852994D01*
X101354477Y-40788636D01*
X101366391Y-40719789D01*
X101413635Y-40668313D01*
X101477669Y-40650500D01*
X101768097Y-40650500D01*
X101768102Y-40650500D01*
X101856564Y-40639877D01*
X101997342Y-40584361D01*
X102117922Y-40492922D01*
X102209361Y-40372342D01*
X102264877Y-40231564D01*
X102275500Y-40143102D01*
X102275500Y-38856898D01*
X102264877Y-38768436D01*
X102209361Y-38627658D01*
X102209360Y-38627657D01*
X102209360Y-38627656D01*
X102117922Y-38507077D01*
X101997343Y-38415639D01*
X101856561Y-38360122D01*
X101810926Y-38354642D01*
X101768102Y-38349500D01*
X100231898Y-38349500D01*
X100192853Y-38354188D01*
X100143438Y-38360122D01*
X100002656Y-38415639D01*
X99882077Y-38507077D01*
X99790639Y-38627656D01*
X99735122Y-38768438D01*
X99729188Y-38817853D01*
X99724500Y-38856898D01*
X99724500Y-40143102D01*
X99727371Y-40167006D01*
X99735122Y-40231561D01*
X99735122Y-40231563D01*
X99735123Y-40231564D01*
X99743095Y-40251780D01*
X99790639Y-40372343D01*
X99882077Y-40492922D01*
X100002656Y-40584360D01*
X100002657Y-40584360D01*
X100002658Y-40584361D01*
X100143436Y-40639877D01*
X100231898Y-40650500D01*
X100231903Y-40650500D01*
X100522331Y-40650500D01*
X100589370Y-40670185D01*
X100635125Y-40722989D01*
X100645069Y-40792147D01*
X100616044Y-40855703D01*
X100560649Y-40892431D01*
X100433363Y-40933787D01*
X100433360Y-40933788D01*
X100272002Y-41016006D01*
X100125506Y-41122440D01*
X100007758Y-41240188D01*
X99946435Y-41273672D01*
X99876743Y-41268688D01*
X99821273Y-41227431D01*
X99767922Y-41157077D01*
X99647343Y-41065639D01*
X99506561Y-41010122D01*
X99460926Y-41004642D01*
X99418102Y-40999500D01*
X98806898Y-40999500D01*
X98767853Y-41004188D01*
X98718438Y-41010122D01*
X98577656Y-41065639D01*
X98457077Y-41157077D01*
X98365639Y-41277656D01*
X98354742Y-41305290D01*
X98315353Y-41405171D01*
X98272449Y-41460314D01*
X98206541Y-41483507D01*
X98138556Y-41467386D01*
X98090080Y-41417070D01*
X98084648Y-41405178D01*
X98034361Y-41277658D01*
X98034360Y-41277657D01*
X98034360Y-41277656D01*
X97942922Y-41157077D01*
X97822343Y-41065639D01*
X97681561Y-41010122D01*
X97635926Y-41004642D01*
X97593102Y-40999500D01*
X96981898Y-40999500D01*
X96942853Y-41004188D01*
X96893438Y-41010122D01*
X96752656Y-41065639D01*
X96632077Y-41157077D01*
X96540638Y-41277658D01*
X96540637Y-41277660D01*
X96484115Y-41420990D01*
X96441209Y-41476134D01*
X96375302Y-41499327D01*
X96368761Y-41499500D01*
X92724500Y-41499500D01*
X92657461Y-41479815D01*
X92611706Y-41427011D01*
X92600500Y-41375500D01*
X92600500Y-39385837D01*
X93549500Y-39385837D01*
X93549500Y-39614162D01*
X93585215Y-39839660D01*
X93655770Y-40056803D01*
X93755117Y-40251781D01*
X93759421Y-40260228D01*
X93893621Y-40444937D01*
X94055063Y-40606379D01*
X94239772Y-40740579D01*
X94297514Y-40770000D01*
X94443196Y-40844229D01*
X94443198Y-40844229D01*
X94443201Y-40844231D01*
X94519023Y-40868867D01*
X94660339Y-40914784D01*
X94885838Y-40950500D01*
X94885843Y-40950500D01*
X95114162Y-40950500D01*
X95339660Y-40914784D01*
X95361373Y-40907729D01*
X95556799Y-40844231D01*
X95760228Y-40740579D01*
X95944937Y-40606379D01*
X96106379Y-40444937D01*
X96240579Y-40260228D01*
X96344231Y-40056799D01*
X96414784Y-39839660D01*
X96433909Y-39718909D01*
X96450500Y-39614162D01*
X96450500Y-39385837D01*
X96414784Y-39160339D01*
X96382049Y-39059592D01*
X96344231Y-38943201D01*
X96344229Y-38943198D01*
X96344229Y-38943196D01*
X96253581Y-38765290D01*
X96240579Y-38739772D01*
X96106379Y-38555063D01*
X95944937Y-38393621D01*
X95760228Y-38259421D01*
X95702486Y-38230000D01*
X95556803Y-38155770D01*
X95339660Y-38085215D01*
X95114162Y-38049500D01*
X95114157Y-38049500D01*
X94885843Y-38049500D01*
X94885838Y-38049500D01*
X94660339Y-38085215D01*
X94443196Y-38155770D01*
X94239771Y-38259421D01*
X94055061Y-38393622D01*
X93893622Y-38555061D01*
X93759421Y-38739771D01*
X93655770Y-38943196D01*
X93585215Y-39160339D01*
X93549500Y-39385837D01*
X92600500Y-39385837D01*
X92600500Y-31000001D01*
X99617985Y-31000001D01*
X99623903Y-31018215D01*
X99720379Y-31207557D01*
X99845272Y-31379459D01*
X99845276Y-31379464D01*
X99995535Y-31529723D01*
X99995540Y-31529727D01*
X100167442Y-31654620D01*
X100356779Y-31751094D01*
X100356785Y-31751096D01*
X100499999Y-31797628D01*
X101500000Y-31797628D01*
X101643214Y-31751096D01*
X101643220Y-31751094D01*
X101832557Y-31654620D01*
X102004459Y-31529727D01*
X102004464Y-31529723D01*
X102154723Y-31379464D01*
X102154727Y-31379459D01*
X102279620Y-31207557D01*
X102376096Y-31018215D01*
X102382014Y-31000001D01*
X102382014Y-31000000D01*
X101500000Y-31000000D01*
X101500000Y-31797628D01*
X100499999Y-31797628D01*
X100500000Y-31797627D01*
X100500000Y-31000000D01*
X99617986Y-31000000D01*
X99617985Y-31000001D01*
X92600500Y-31000001D01*
X92600500Y-30437465D01*
X100525000Y-30437465D01*
X100525000Y-30562535D01*
X100557370Y-30683343D01*
X100619905Y-30791657D01*
X100708343Y-30880095D01*
X100816657Y-30942630D01*
X100937465Y-30975000D01*
X101062535Y-30975000D01*
X101183343Y-30942630D01*
X101291657Y-30880095D01*
X101380095Y-30791657D01*
X101442630Y-30683343D01*
X101475000Y-30562535D01*
X101475000Y-30437465D01*
X101442630Y-30316657D01*
X101380095Y-30208343D01*
X101291657Y-30119905D01*
X101183343Y-30057370D01*
X101062535Y-30025000D01*
X100937465Y-30025000D01*
X100816657Y-30057370D01*
X100708343Y-30119905D01*
X100619905Y-30208343D01*
X100557370Y-30316657D01*
X100525000Y-30437465D01*
X92600500Y-30437465D01*
X92600500Y-28504315D01*
X92620185Y-28437276D01*
X92672989Y-28391521D01*
X92742147Y-28381577D01*
X92786501Y-28396928D01*
X92792683Y-28400497D01*
X92792686Y-28400500D01*
X92906814Y-28466392D01*
X93034108Y-28500500D01*
X96368761Y-28500500D01*
X96435800Y-28520185D01*
X96481555Y-28572989D01*
X96484115Y-28579010D01*
X96540637Y-28722339D01*
X96540638Y-28722341D01*
X96632077Y-28842922D01*
X96752656Y-28934360D01*
X96752657Y-28934360D01*
X96752658Y-28934361D01*
X96893436Y-28989877D01*
X96981898Y-29000500D01*
X96981903Y-29000500D01*
X97593097Y-29000500D01*
X97593102Y-29000500D01*
X97681564Y-28989877D01*
X97822342Y-28934361D01*
X97942922Y-28842922D01*
X98034361Y-28722342D01*
X98084646Y-28594826D01*
X98127551Y-28539685D01*
X98193459Y-28516492D01*
X98261443Y-28532612D01*
X98309920Y-28582929D01*
X98315348Y-28594814D01*
X98344440Y-28668585D01*
X98365639Y-28722343D01*
X98457077Y-28842922D01*
X98577656Y-28934360D01*
X98577657Y-28934360D01*
X98577658Y-28934361D01*
X98718436Y-28989877D01*
X98806898Y-29000500D01*
X98806903Y-29000500D01*
X99418097Y-29000500D01*
X99418102Y-29000500D01*
X99506564Y-28989877D01*
X99647342Y-28934361D01*
X99767922Y-28842922D01*
X99821273Y-28772567D01*
X99877465Y-28731045D01*
X99947186Y-28726493D01*
X100007758Y-28759812D01*
X100125500Y-28877554D01*
X100125505Y-28877558D01*
X100203689Y-28934361D01*
X100272006Y-28983996D01*
X100357511Y-29027563D01*
X100408307Y-29075538D01*
X100425102Y-29143359D01*
X100402565Y-29209494D01*
X100357511Y-29248533D01*
X100167442Y-29345379D01*
X99995540Y-29470272D01*
X99995535Y-29470276D01*
X99845276Y-29620535D01*
X99845272Y-29620540D01*
X99720379Y-29792442D01*
X99623903Y-29981784D01*
X99617985Y-29999998D01*
X99617986Y-30000000D01*
X102382014Y-30000000D01*
X102382014Y-29999998D01*
X102376096Y-29981784D01*
X102279620Y-29792442D01*
X102154727Y-29620540D01*
X102154723Y-29620535D01*
X102004464Y-29470276D01*
X102004459Y-29470272D01*
X101832557Y-29345379D01*
X101642488Y-29248533D01*
X101591692Y-29200558D01*
X101574897Y-29132737D01*
X101597435Y-29066602D01*
X101642489Y-29027563D01*
X101727994Y-28983996D01*
X101874501Y-28877553D01*
X102002553Y-28749501D01*
X102108996Y-28602994D01*
X102191211Y-28441639D01*
X102247171Y-28269409D01*
X102271154Y-28117986D01*
X102275500Y-28090551D01*
X102275500Y-27909448D01*
X102259019Y-27805397D01*
X102247171Y-27730591D01*
X102191211Y-27558361D01*
X102191211Y-27558360D01*
X102151771Y-27480957D01*
X102108996Y-27397006D01*
X102092568Y-27374394D01*
X102002558Y-27250505D01*
X102002554Y-27250500D01*
X101874499Y-27122445D01*
X101874494Y-27122441D01*
X101727997Y-27016006D01*
X101727996Y-27016005D01*
X101727994Y-27016004D01*
X101676300Y-26989664D01*
X101566639Y-26933788D01*
X101566636Y-26933787D01*
X101439351Y-26892431D01*
X101381676Y-26852994D01*
X101354477Y-26788636D01*
X101366391Y-26719789D01*
X101413635Y-26668313D01*
X101477669Y-26650500D01*
X101768097Y-26650500D01*
X101768102Y-26650500D01*
X101856564Y-26639877D01*
X101997342Y-26584361D01*
X102117922Y-26492922D01*
X102209361Y-26372342D01*
X102264877Y-26231564D01*
X102275500Y-26143102D01*
X102275500Y-24856898D01*
X102264877Y-24768436D01*
X102209361Y-24627658D01*
X102209360Y-24627657D01*
X102209360Y-24627656D01*
X102117922Y-24507077D01*
X101997343Y-24415639D01*
X101856561Y-24360122D01*
X101810926Y-24354642D01*
X101768102Y-24349500D01*
X100231898Y-24349500D01*
X100192853Y-24354188D01*
X100143438Y-24360122D01*
X100002656Y-24415639D01*
X99882077Y-24507077D01*
X99790639Y-24627656D01*
X99735122Y-24768438D01*
X99729188Y-24817853D01*
X99724500Y-24856898D01*
X99724500Y-26143102D01*
X99730126Y-26189954D01*
X99735122Y-26231561D01*
X99790639Y-26372343D01*
X99882077Y-26492922D01*
X100002656Y-26584360D01*
X100002657Y-26584360D01*
X100002658Y-26584361D01*
X100143436Y-26639877D01*
X100231898Y-26650500D01*
X100231903Y-26650500D01*
X100522331Y-26650500D01*
X100589370Y-26670185D01*
X100635125Y-26722989D01*
X100645069Y-26792147D01*
X100616044Y-26855703D01*
X100560649Y-26892431D01*
X100433363Y-26933787D01*
X100433360Y-26933788D01*
X100272002Y-27016006D01*
X100125506Y-27122440D01*
X100007758Y-27240188D01*
X99946435Y-27273672D01*
X99876743Y-27268688D01*
X99821273Y-27227431D01*
X99767922Y-27157077D01*
X99647343Y-27065639D01*
X99531643Y-27020013D01*
X99506564Y-27010123D01*
X99506563Y-27010122D01*
X99506561Y-27010122D01*
X99460926Y-27004642D01*
X99418102Y-26999500D01*
X98806898Y-26999500D01*
X98767853Y-27004188D01*
X98718438Y-27010122D01*
X98577656Y-27065639D01*
X98457077Y-27157077D01*
X98365639Y-27277656D01*
X98350681Y-27315588D01*
X98315353Y-27405171D01*
X98272449Y-27460314D01*
X98206541Y-27483507D01*
X98138556Y-27467386D01*
X98090080Y-27417070D01*
X98084648Y-27405178D01*
X98034361Y-27277658D01*
X98034360Y-27277657D01*
X98034360Y-27277656D01*
X97942922Y-27157077D01*
X97822343Y-27065639D01*
X97706643Y-27020013D01*
X97681564Y-27010123D01*
X97681563Y-27010122D01*
X97681561Y-27010122D01*
X97635926Y-27004642D01*
X97593102Y-26999500D01*
X96981898Y-26999500D01*
X96942853Y-27004188D01*
X96893438Y-27010122D01*
X96752656Y-27065639D01*
X96632077Y-27157077D01*
X96540638Y-27277658D01*
X96540637Y-27277660D01*
X96484115Y-27420990D01*
X96441209Y-27476134D01*
X96375302Y-27499327D01*
X96368761Y-27499500D01*
X93724500Y-27499500D01*
X93657461Y-27479815D01*
X93611706Y-27427011D01*
X93600500Y-27375500D01*
X93600500Y-26423124D01*
X93620185Y-26356085D01*
X93672989Y-26310330D01*
X93742147Y-26300386D01*
X93805703Y-26329411D01*
X93824816Y-26350235D01*
X93893621Y-26444937D01*
X94055063Y-26606379D01*
X94239772Y-26740579D01*
X94318294Y-26780588D01*
X94443196Y-26844229D01*
X94443198Y-26844229D01*
X94443201Y-26844231D01*
X94546605Y-26877829D01*
X94660339Y-26914784D01*
X94885838Y-26950500D01*
X94885843Y-26950500D01*
X95114162Y-26950500D01*
X95339660Y-26914784D01*
X95359160Y-26908448D01*
X95556799Y-26844231D01*
X95760228Y-26740579D01*
X95944937Y-26606379D01*
X96106379Y-26444937D01*
X96240579Y-26260228D01*
X96344231Y-26056799D01*
X96414784Y-25839660D01*
X96450500Y-25614162D01*
X96450500Y-25385837D01*
X96414784Y-25160339D01*
X96344229Y-24943196D01*
X96240578Y-24739771D01*
X96106379Y-24555063D01*
X95944937Y-24393621D01*
X95760228Y-24259421D01*
X95556803Y-24155770D01*
X95339660Y-24085215D01*
X95114162Y-24049500D01*
X95114157Y-24049500D01*
X94885843Y-24049500D01*
X94885838Y-24049500D01*
X94660339Y-24085215D01*
X94443196Y-24155770D01*
X94239771Y-24259421D01*
X94055061Y-24393622D01*
X93893623Y-24555060D01*
X93893616Y-24555069D01*
X93824817Y-24649761D01*
X93769487Y-24692427D01*
X93699874Y-24698405D01*
X93638079Y-24665798D01*
X93603722Y-24604959D01*
X93600500Y-24576875D01*
X93600500Y-17000001D01*
X99617985Y-17000001D01*
X99623903Y-17018215D01*
X99720379Y-17207557D01*
X99845272Y-17379459D01*
X99845276Y-17379464D01*
X99995535Y-17529723D01*
X99995540Y-17529727D01*
X100167442Y-17654620D01*
X100356779Y-17751094D01*
X100356785Y-17751096D01*
X100499999Y-17797628D01*
X101500000Y-17797628D01*
X101643214Y-17751096D01*
X101643220Y-17751094D01*
X101832557Y-17654620D01*
X102004459Y-17529727D01*
X102004464Y-17529723D01*
X102154723Y-17379464D01*
X102154727Y-17379459D01*
X102279620Y-17207557D01*
X102376096Y-17018215D01*
X102382014Y-17000001D01*
X102382014Y-17000000D01*
X101500000Y-17000000D01*
X101500000Y-17797628D01*
X100499999Y-17797628D01*
X100500000Y-17797627D01*
X100500000Y-17000000D01*
X99617986Y-17000000D01*
X99617985Y-17000001D01*
X93600500Y-17000001D01*
X93600500Y-16437465D01*
X100525000Y-16437465D01*
X100525000Y-16562535D01*
X100557370Y-16683343D01*
X100619905Y-16791657D01*
X100708343Y-16880095D01*
X100816657Y-16942630D01*
X100937465Y-16975000D01*
X101062535Y-16975000D01*
X101183343Y-16942630D01*
X101291657Y-16880095D01*
X101380095Y-16791657D01*
X101442630Y-16683343D01*
X101475000Y-16562535D01*
X101475000Y-16437465D01*
X101442630Y-16316657D01*
X101380095Y-16208343D01*
X101291657Y-16119905D01*
X101183343Y-16057370D01*
X101062535Y-16025000D01*
X100937465Y-16025000D01*
X100816657Y-16057370D01*
X100708343Y-16119905D01*
X100619905Y-16208343D01*
X100557370Y-16316657D01*
X100525000Y-16437465D01*
X93600500Y-16437465D01*
X93600500Y-14534110D01*
X93600500Y-14534108D01*
X93566392Y-14406814D01*
X93500500Y-14292686D01*
X93407314Y-14199500D01*
X93407312Y-14199499D01*
X93407310Y-14199497D01*
X93290206Y-14131887D01*
X93241990Y-14081320D01*
X93228768Y-14012713D01*
X93254736Y-13947848D01*
X93311650Y-13907320D01*
X93352206Y-13900500D01*
X95678985Y-13900500D01*
X95725304Y-13909476D01*
X96396819Y-14179885D01*
X96451652Y-14223186D01*
X96474371Y-14289259D01*
X96474500Y-14294909D01*
X96474500Y-14493102D01*
X96480094Y-14539685D01*
X96485122Y-14581561D01*
X96540639Y-14722343D01*
X96632077Y-14842922D01*
X96752656Y-14934360D01*
X96752657Y-14934360D01*
X96752658Y-14934361D01*
X96893436Y-14989877D01*
X96981898Y-15000500D01*
X96981903Y-15000500D01*
X97593097Y-15000500D01*
X97593102Y-15000500D01*
X97681564Y-14989877D01*
X97822342Y-14934361D01*
X97942922Y-14842922D01*
X98034361Y-14722342D01*
X98084646Y-14594826D01*
X98127551Y-14539685D01*
X98193459Y-14516492D01*
X98261443Y-14532612D01*
X98309920Y-14582929D01*
X98315348Y-14594814D01*
X98350652Y-14684339D01*
X98365639Y-14722343D01*
X98457077Y-14842922D01*
X98577656Y-14934360D01*
X98577657Y-14934360D01*
X98577658Y-14934361D01*
X98718436Y-14989877D01*
X98806898Y-15000500D01*
X98806903Y-15000500D01*
X99418097Y-15000500D01*
X99418102Y-15000500D01*
X99506564Y-14989877D01*
X99647342Y-14934361D01*
X99767922Y-14842922D01*
X99821273Y-14772567D01*
X99877465Y-14731045D01*
X99947186Y-14726493D01*
X100007758Y-14759812D01*
X100125500Y-14877554D01*
X100125505Y-14877558D01*
X100203689Y-14934361D01*
X100272006Y-14983996D01*
X100357511Y-15027563D01*
X100408307Y-15075538D01*
X100425102Y-15143359D01*
X100402565Y-15209494D01*
X100357511Y-15248533D01*
X100167442Y-15345379D01*
X99995540Y-15470272D01*
X99995535Y-15470276D01*
X99845276Y-15620535D01*
X99845272Y-15620540D01*
X99720379Y-15792442D01*
X99623903Y-15981784D01*
X99617985Y-15999998D01*
X99617986Y-16000000D01*
X102382014Y-16000000D01*
X102382014Y-15999998D01*
X102376096Y-15981784D01*
X102279620Y-15792442D01*
X102154727Y-15620540D01*
X102154723Y-15620535D01*
X102004464Y-15470276D01*
X102004459Y-15470272D01*
X101832557Y-15345379D01*
X101642488Y-15248533D01*
X101591692Y-15200558D01*
X101574897Y-15132737D01*
X101597435Y-15066602D01*
X101642489Y-15027563D01*
X101727994Y-14983996D01*
X101874501Y-14877553D01*
X102002553Y-14749501D01*
X102108996Y-14602994D01*
X102191211Y-14441639D01*
X102247171Y-14269409D01*
X102268680Y-14133608D01*
X102275500Y-14090551D01*
X102275500Y-13909448D01*
X102259019Y-13805397D01*
X102247171Y-13730591D01*
X102191211Y-13558361D01*
X102191211Y-13558360D01*
X102153071Y-13483507D01*
X102108996Y-13397006D01*
X102063298Y-13334108D01*
X102002558Y-13250505D01*
X102002554Y-13250500D01*
X101874499Y-13122445D01*
X101874494Y-13122441D01*
X101727997Y-13016006D01*
X101727996Y-13016005D01*
X101727994Y-13016004D01*
X101676300Y-12989664D01*
X101566639Y-12933788D01*
X101566636Y-12933787D01*
X101439351Y-12892431D01*
X101381676Y-12852994D01*
X101354477Y-12788636D01*
X101366391Y-12719789D01*
X101413635Y-12668313D01*
X101477669Y-12650500D01*
X101768097Y-12650500D01*
X101768102Y-12650500D01*
X101856564Y-12639877D01*
X101997342Y-12584361D01*
X102117922Y-12492922D01*
X102209361Y-12372342D01*
X102264877Y-12231564D01*
X102275500Y-12143102D01*
X102275500Y-10856898D01*
X102264877Y-10768436D01*
X102209361Y-10627658D01*
X102209360Y-10627657D01*
X102209360Y-10627656D01*
X102117922Y-10507077D01*
X101997343Y-10415639D01*
X101856561Y-10360122D01*
X101810926Y-10354642D01*
X101768102Y-10349500D01*
X100231898Y-10349500D01*
X100192853Y-10354188D01*
X100143438Y-10360122D01*
X100002656Y-10415639D01*
X99882077Y-10507077D01*
X99790639Y-10627656D01*
X99735122Y-10768438D01*
X99729188Y-10817853D01*
X99724500Y-10856898D01*
X99724500Y-12143102D01*
X99730126Y-12189954D01*
X99735122Y-12231561D01*
X99790639Y-12372343D01*
X99882077Y-12492922D01*
X100002656Y-12584360D01*
X100002657Y-12584360D01*
X100002658Y-12584361D01*
X100143436Y-12639877D01*
X100231898Y-12650500D01*
X100231903Y-12650500D01*
X100522331Y-12650500D01*
X100589370Y-12670185D01*
X100635125Y-12722989D01*
X100645069Y-12792147D01*
X100616044Y-12855703D01*
X100560649Y-12892431D01*
X100433363Y-12933787D01*
X100433360Y-12933788D01*
X100272002Y-13016006D01*
X100125506Y-13122440D01*
X100007758Y-13240188D01*
X99946435Y-13273672D01*
X99876743Y-13268688D01*
X99821273Y-13227431D01*
X99767922Y-13157077D01*
X99647343Y-13065639D01*
X99506561Y-13010122D01*
X99460926Y-13004642D01*
X99418102Y-12999500D01*
X98806898Y-12999500D01*
X98767853Y-13004188D01*
X98718438Y-13010122D01*
X98577656Y-13065639D01*
X98457077Y-13157077D01*
X98365639Y-13277656D01*
X98343378Y-13334108D01*
X98315353Y-13405171D01*
X98272449Y-13460314D01*
X98206541Y-13483507D01*
X98138556Y-13467386D01*
X98090080Y-13417070D01*
X98084648Y-13405178D01*
X98034361Y-13277658D01*
X98034360Y-13277657D01*
X98034360Y-13277656D01*
X97942922Y-13157077D01*
X97822343Y-13065639D01*
X97681561Y-13010122D01*
X97635926Y-13004642D01*
X97593102Y-12999500D01*
X96981898Y-12999500D01*
X96942853Y-13004188D01*
X96893438Y-13010122D01*
X96752656Y-13065639D01*
X96654998Y-13139696D01*
X96589686Y-13164519D01*
X96533755Y-13155916D01*
X96376726Y-13092683D01*
X96027798Y-12952174D01*
X96027798Y-12952173D01*
X96019678Y-12948903D01*
X95993186Y-12933608D01*
X95958834Y-12924403D01*
X95951858Y-12921594D01*
X95925832Y-12911114D01*
X95904127Y-12908475D01*
X95886998Y-12905155D01*
X95882502Y-12903950D01*
X95879997Y-12903279D01*
X95820340Y-12866908D01*
X95789817Y-12804059D01*
X95798118Y-12734684D01*
X95839215Y-12683190D01*
X95944937Y-12606379D01*
X96106379Y-12444937D01*
X96240579Y-12260228D01*
X96344231Y-12056799D01*
X96414784Y-11839660D01*
X96450500Y-11614162D01*
X96450500Y-11385837D01*
X96414784Y-11160339D01*
X96344229Y-10943196D01*
X96240578Y-10739771D01*
X96106379Y-10555063D01*
X95944937Y-10393621D01*
X95760228Y-10259421D01*
X95556803Y-10155770D01*
X95339660Y-10085215D01*
X95114162Y-10049500D01*
X95114157Y-10049500D01*
X94885843Y-10049500D01*
X94885838Y-10049500D01*
X94660339Y-10085215D01*
X94443196Y-10155770D01*
X94239771Y-10259421D01*
X94055061Y-10393622D01*
X93893622Y-10555061D01*
X93759421Y-10739771D01*
X93655770Y-10943196D01*
X93585215Y-11160339D01*
X93549500Y-11385837D01*
X93549500Y-11614162D01*
X93585215Y-11839660D01*
X93655770Y-12056803D01*
X93725621Y-12193892D01*
X93759421Y-12260228D01*
X93893621Y-12444937D01*
X94055063Y-12606379D01*
X94149762Y-12675182D01*
X94192427Y-12730512D01*
X94198406Y-12800126D01*
X94165800Y-12861921D01*
X94104961Y-12896278D01*
X94076876Y-12899500D01*
X90123124Y-12899500D01*
X90056085Y-12879815D01*
X90010330Y-12827011D01*
X90000386Y-12757853D01*
X90029411Y-12694297D01*
X90050235Y-12675183D01*
X90144937Y-12606379D01*
X90306379Y-12444937D01*
X90440579Y-12260228D01*
X90544231Y-12056799D01*
X90614784Y-11839660D01*
X90650500Y-11614162D01*
X90650500Y-11385837D01*
X90614784Y-11160339D01*
X90544229Y-10943196D01*
X90440578Y-10739771D01*
X90306379Y-10555063D01*
X90144937Y-10393621D01*
X89960228Y-10259421D01*
X89756803Y-10155770D01*
X89539660Y-10085215D01*
X89314162Y-10049500D01*
X89314157Y-10049500D01*
X89085843Y-10049500D01*
X89085838Y-10049500D01*
X88860339Y-10085215D01*
X88643196Y-10155770D01*
X88439771Y-10259421D01*
X88255061Y-10393622D01*
X88093622Y-10555061D01*
X87959421Y-10739771D01*
X87855770Y-10943196D01*
X87785215Y-11160339D01*
X87749500Y-11385837D01*
X87749500Y-11614162D01*
X87785215Y-11839660D01*
X87855770Y-12056803D01*
X87925621Y-12193892D01*
X87959421Y-12260228D01*
X88093621Y-12444937D01*
X88255063Y-12606379D01*
X88349762Y-12675182D01*
X88392427Y-12730512D01*
X88398406Y-12800126D01*
X88365800Y-12861921D01*
X88304961Y-12896278D01*
X88276876Y-12899500D01*
X81594296Y-12899500D01*
X81527257Y-12879815D01*
X81481502Y-12827011D01*
X81471558Y-12757853D01*
X81497649Y-12697813D01*
X81544219Y-12639877D01*
X81617030Y-12549296D01*
X81701641Y-12378693D01*
X81747600Y-12193889D01*
X81750500Y-12151123D01*
X81750499Y-10848878D01*
X81747600Y-10806111D01*
X81701641Y-10621307D01*
X81644989Y-10507078D01*
X81617032Y-10450707D01*
X81617030Y-10450704D01*
X81497722Y-10302278D01*
X81497721Y-10302277D01*
X81349295Y-10182969D01*
X81349292Y-10182967D01*
X81178697Y-10098360D01*
X80993892Y-10052400D01*
X80972506Y-10050950D01*
X80951123Y-10049500D01*
X80951120Y-10049500D01*
X79648877Y-10049500D01*
X79648874Y-10049501D01*
X79606113Y-10052399D01*
X79606112Y-10052399D01*
X79421303Y-10098360D01*
X79250707Y-10182967D01*
X79250704Y-10182969D01*
X79102278Y-10302277D01*
X79102277Y-10302278D01*
X78982969Y-10450704D01*
X78982967Y-10450707D01*
X78898360Y-10621302D01*
X78852400Y-10806107D01*
X78849500Y-10848879D01*
X78849500Y-12151122D01*
X78849501Y-12151125D01*
X78852399Y-12193886D01*
X78852399Y-12193887D01*
X78898360Y-12378696D01*
X78982967Y-12549292D01*
X78982969Y-12549295D01*
X79102351Y-12697813D01*
X79129010Y-12762397D01*
X79116519Y-12831141D01*
X79068846Y-12882220D01*
X79005704Y-12899500D01*
X75794296Y-12899500D01*
X75727257Y-12879815D01*
X75681502Y-12827011D01*
X75671558Y-12757853D01*
X75697649Y-12697813D01*
X75744219Y-12639877D01*
X75817030Y-12549296D01*
X75901641Y-12378693D01*
X75947600Y-12193889D01*
X75950500Y-12151123D01*
X75950499Y-10848878D01*
X75947600Y-10806111D01*
X75901641Y-10621307D01*
X75844989Y-10507078D01*
X75817032Y-10450707D01*
X75817030Y-10450704D01*
X75697722Y-10302278D01*
X75697721Y-10302277D01*
X75549295Y-10182969D01*
X75549292Y-10182967D01*
X75378697Y-10098360D01*
X75193892Y-10052400D01*
X75172506Y-10050950D01*
X75151123Y-10049500D01*
X75151120Y-10049500D01*
X73848877Y-10049500D01*
X73848874Y-10049501D01*
X73806113Y-10052399D01*
X73806112Y-10052399D01*
X73621303Y-10098360D01*
X73450707Y-10182967D01*
X73450704Y-10182969D01*
X73302278Y-10302277D01*
X73302277Y-10302278D01*
X73182969Y-10450704D01*
X73182967Y-10450707D01*
X73098360Y-10621302D01*
X73052400Y-10806107D01*
X73049500Y-10848879D01*
X73049500Y-12151122D01*
X73049501Y-12151125D01*
X73052399Y-12193886D01*
X73052399Y-12193887D01*
X73098360Y-12378696D01*
X73182967Y-12549292D01*
X73182969Y-12549295D01*
X73302351Y-12697813D01*
X73329010Y-12762397D01*
X73316519Y-12831141D01*
X73268846Y-12882220D01*
X73205704Y-12899500D01*
X42134108Y-12899500D01*
X42006812Y-12933608D01*
X41892686Y-12999500D01*
X41892683Y-12999502D01*
X41799502Y-13092683D01*
X41799500Y-13092686D01*
X41733608Y-13206812D01*
X41699500Y-13334108D01*
X41699500Y-18735800D01*
X41679815Y-18802839D01*
X41627011Y-18848594D01*
X41557853Y-18858538D01*
X41519206Y-18846285D01*
X41419034Y-18795245D01*
X41224417Y-18732009D01*
X41022317Y-18700000D01*
X40817683Y-18700000D01*
X40615581Y-18732010D01*
X40615578Y-18732010D01*
X40422011Y-18794904D01*
X41185872Y-19558765D01*
X41219357Y-19620088D01*
X41214373Y-19689780D01*
X41199151Y-19713465D01*
X41165606Y-19679920D01*
X41074394Y-19627259D01*
X40972661Y-19600000D01*
X40867339Y-19600000D01*
X40765606Y-19627259D01*
X40674394Y-19679920D01*
X40599920Y-19754394D01*
X40547259Y-19845606D01*
X40520000Y-19947339D01*
X40520000Y-20052661D01*
X40547259Y-20154394D01*
X40599920Y-20245606D01*
X40674394Y-20320080D01*
X40765606Y-20372741D01*
X40867339Y-20400000D01*
X40972661Y-20400000D01*
X41074394Y-20372741D01*
X41165606Y-20320080D01*
X41197859Y-20287826D01*
X41219356Y-20327194D01*
X41214372Y-20396886D01*
X41185871Y-20441233D01*
X40422011Y-21205093D01*
X40615588Y-21267990D01*
X40817683Y-21300000D01*
X41022317Y-21300000D01*
X41224417Y-21267990D01*
X41419031Y-21204755D01*
X41519205Y-21153714D01*
X41587874Y-21140818D01*
X41652615Y-21167094D01*
X41692872Y-21224201D01*
X41699500Y-21264199D01*
X41699500Y-26449011D01*
X41696494Y-26463612D01*
X41699500Y-26514711D01*
X41699500Y-26565890D01*
X41699701Y-26567418D01*
X41699500Y-26568706D01*
X41699500Y-26574018D01*
X41698671Y-26574018D01*
X41688932Y-26636453D01*
X41642550Y-26688707D01*
X41575281Y-26707590D01*
X41508481Y-26687107D01*
X41503876Y-26683917D01*
X41496792Y-26678770D01*
X41342447Y-26600128D01*
X41342446Y-26600127D01*
X41342445Y-26600127D01*
X41177701Y-26546598D01*
X41177699Y-26546597D01*
X41177698Y-26546597D01*
X41046271Y-26525781D01*
X41006611Y-26519500D01*
X40833389Y-26519500D01*
X40793728Y-26525781D01*
X40662302Y-26546597D01*
X40497552Y-26600128D01*
X40343211Y-26678768D01*
X40282347Y-26722989D01*
X40203072Y-26780586D01*
X40203070Y-26780588D01*
X40203069Y-26780588D01*
X40080588Y-26903069D01*
X40080588Y-26903070D01*
X40080586Y-26903072D01*
X40036859Y-26963256D01*
X39978768Y-27043211D01*
X39914484Y-27169377D01*
X39866510Y-27220173D01*
X39798689Y-27236968D01*
X39732554Y-27214431D01*
X39689102Y-27159716D01*
X39679999Y-27113082D01*
X39679999Y-27020028D01*
X39679998Y-27020012D01*
X39669505Y-26917302D01*
X39614358Y-26750880D01*
X39614356Y-26750875D01*
X39522315Y-26601654D01*
X39398345Y-26477684D01*
X39249124Y-26385643D01*
X39249119Y-26385641D01*
X39082697Y-26330494D01*
X39082690Y-26330493D01*
X38979986Y-26320000D01*
X38880000Y-26320000D01*
X37880000Y-26320000D01*
X37880000Y-26319999D01*
X37780028Y-26320000D01*
X37780012Y-26320001D01*
X37677302Y-26330494D01*
X37510880Y-26385641D01*
X37510875Y-26385643D01*
X37361654Y-26477684D01*
X37237684Y-26601654D01*
X37145643Y-26750875D01*
X37145641Y-26750880D01*
X37090494Y-26917302D01*
X37090493Y-26917309D01*
X37080000Y-27020013D01*
X8000000Y-27020013D01*
X8000000Y-26881947D01*
X7963065Y-26648752D01*
X7890102Y-26424197D01*
X7853919Y-26353184D01*
X7207106Y-26999999D01*
X7000000Y-26999999D01*
X7000000Y-26934174D01*
X6965925Y-26807007D01*
X6900099Y-26692993D01*
X6807007Y-26599901D01*
X6692993Y-26534075D01*
X6565826Y-26500000D01*
X6434174Y-26500000D01*
X6307007Y-26534075D01*
X6192993Y-26599901D01*
X6099901Y-26692993D01*
X6034075Y-26807007D01*
X6000000Y-26934174D01*
X5727068Y-26934174D01*
X5146078Y-26353184D01*
X5109894Y-26424202D01*
X5109894Y-26424203D01*
X5036934Y-26648751D01*
X5000000Y-26881947D01*
X500500Y-26881947D01*
X500500Y-25646078D01*
X5853184Y-25646078D01*
X6500000Y-26292894D01*
X6500001Y-26292894D01*
X7146814Y-25646079D01*
X7146813Y-25646078D01*
X7075805Y-25609898D01*
X6851247Y-25536934D01*
X6851248Y-25536934D01*
X6618052Y-25500000D01*
X6381948Y-25500000D01*
X6148751Y-25536934D01*
X5924203Y-25609894D01*
X5924202Y-25609894D01*
X5853184Y-25646078D01*
X500500Y-25646078D01*
X500500Y-21206898D01*
X5199500Y-21206898D01*
X5199500Y-22793102D01*
X5205126Y-22839954D01*
X5210122Y-22881561D01*
X5265639Y-23022343D01*
X5357077Y-23142922D01*
X5477656Y-23234360D01*
X5477657Y-23234360D01*
X5477658Y-23234361D01*
X5618436Y-23289877D01*
X5706898Y-23300500D01*
X5706903Y-23300500D01*
X7293097Y-23300500D01*
X7293102Y-23300500D01*
X7381564Y-23289877D01*
X7522342Y-23234361D01*
X7642922Y-23142922D01*
X7734361Y-23022342D01*
X7789877Y-22881564D01*
X7800500Y-22793102D01*
X7800500Y-21206898D01*
X7789877Y-21118436D01*
X7734361Y-20977658D01*
X7734360Y-20977657D01*
X7734360Y-20977656D01*
X7642922Y-20857077D01*
X7522343Y-20765639D01*
X7398825Y-20716930D01*
X7381564Y-20710123D01*
X7381563Y-20710122D01*
X7381561Y-20710122D01*
X7335926Y-20704642D01*
X7293102Y-20699500D01*
X5706898Y-20699500D01*
X5667853Y-20704188D01*
X5618438Y-20710122D01*
X5477656Y-20765639D01*
X5357077Y-20857077D01*
X5265639Y-20977656D01*
X5210122Y-21118438D01*
X5204280Y-21167094D01*
X5199500Y-21206898D01*
X500500Y-21206898D01*
X500500Y-19913389D01*
X37279500Y-19913389D01*
X37279500Y-20086610D01*
X37305934Y-20253513D01*
X37306598Y-20257701D01*
X37360127Y-20422445D01*
X37438768Y-20576788D01*
X37540586Y-20716928D01*
X37663072Y-20839414D01*
X37803212Y-20941232D01*
X37957555Y-21019873D01*
X38122299Y-21073402D01*
X38293389Y-21100500D01*
X38293390Y-21100500D01*
X38466610Y-21100500D01*
X38466611Y-21100500D01*
X38637701Y-21073402D01*
X38802445Y-21019873D01*
X38956788Y-20941232D01*
X39096928Y-20839414D01*
X39219414Y-20716928D01*
X39321232Y-20576788D01*
X39399873Y-20422445D01*
X39427185Y-20338385D01*
X39466621Y-20280712D01*
X39530979Y-20253513D01*
X39599826Y-20265427D01*
X39651302Y-20312671D01*
X39663046Y-20338386D01*
X39714904Y-20497987D01*
X39714905Y-20497987D01*
X40212893Y-20000000D01*
X39714904Y-19502011D01*
X39663046Y-19661613D01*
X39623608Y-19719288D01*
X39559249Y-19746486D01*
X39490403Y-19734571D01*
X39438927Y-19687327D01*
X39427187Y-19661619D01*
X39399873Y-19577555D01*
X39321232Y-19423212D01*
X39219414Y-19283072D01*
X39096928Y-19160586D01*
X38956788Y-19058768D01*
X38885572Y-19022482D01*
X38802447Y-18980128D01*
X38802446Y-18980127D01*
X38802445Y-18980127D01*
X38637701Y-18926598D01*
X38637699Y-18926597D01*
X38637698Y-18926597D01*
X38506271Y-18905781D01*
X38466611Y-18899500D01*
X38293389Y-18899500D01*
X38253728Y-18905781D01*
X38122302Y-18926597D01*
X38122299Y-18926598D01*
X37958485Y-18979825D01*
X37957552Y-18980128D01*
X37803211Y-19058768D01*
X37723256Y-19116859D01*
X37663072Y-19160586D01*
X37663070Y-19160588D01*
X37663069Y-19160588D01*
X37540588Y-19283069D01*
X37540588Y-19283070D01*
X37540586Y-19283072D01*
X37511555Y-19323030D01*
X37438768Y-19423211D01*
X37360128Y-19577552D01*
X37306597Y-19742302D01*
X37279500Y-19913389D01*
X500500Y-19913389D01*
X500500Y-6906898D01*
X11399500Y-6906898D01*
X11399500Y-9093102D01*
X11405126Y-9139954D01*
X11410122Y-9181561D01*
X11465639Y-9322343D01*
X11557077Y-9442922D01*
X11677656Y-9534360D01*
X11677657Y-9534360D01*
X11677658Y-9534361D01*
X11818436Y-9589877D01*
X11906898Y-9600500D01*
X11906903Y-9600500D01*
X14093097Y-9600500D01*
X14093102Y-9600500D01*
X14181564Y-9589877D01*
X14215463Y-9576509D01*
X17210594Y-9576509D01*
X17282168Y-9617833D01*
X17282183Y-9617840D01*
X17500163Y-9708129D01*
X17500161Y-9708129D01*
X17728085Y-9769200D01*
X17962014Y-9799999D01*
X17962029Y-9800000D01*
X18197971Y-9800000D01*
X18197985Y-9799999D01*
X18431914Y-9769200D01*
X18659837Y-9708129D01*
X18877819Y-9617839D01*
X18877828Y-9617834D01*
X18949404Y-9576509D01*
X18080000Y-8707106D01*
X17210594Y-9576509D01*
X14215463Y-9576509D01*
X14322342Y-9534361D01*
X14442922Y-9442922D01*
X14534361Y-9322342D01*
X14589877Y-9181564D01*
X14600500Y-9093102D01*
X14600500Y-7882014D01*
X16280000Y-7882014D01*
X16280000Y-8117985D01*
X16310799Y-8351914D01*
X16371870Y-8579837D01*
X16462159Y-8797816D01*
X16462164Y-8797826D01*
X16503489Y-8869403D01*
X17372894Y-8000000D01*
X17308875Y-7935981D01*
X17430000Y-7935981D01*
X17430000Y-8064019D01*
X17454979Y-8189598D01*
X17503978Y-8307890D01*
X17575112Y-8414351D01*
X17665649Y-8504888D01*
X17772110Y-8576022D01*
X17890402Y-8625021D01*
X18015981Y-8650000D01*
X18144019Y-8650000D01*
X18269598Y-8625021D01*
X18387890Y-8576022D01*
X18494351Y-8504888D01*
X18584888Y-8414351D01*
X18656022Y-8307890D01*
X18705021Y-8189598D01*
X18730000Y-8064019D01*
X18730000Y-7999999D01*
X18787106Y-7999999D01*
X18787106Y-8000001D01*
X19656509Y-8869404D01*
X19697834Y-8797828D01*
X19697839Y-8797819D01*
X19788129Y-8579837D01*
X19849200Y-8351914D01*
X19879999Y-8117985D01*
X19880000Y-8117971D01*
X19880000Y-7882028D01*
X19879999Y-7882014D01*
X19849200Y-7648085D01*
X19788129Y-7420162D01*
X19697840Y-7202183D01*
X19697833Y-7202168D01*
X19656509Y-7130594D01*
X18787106Y-7999999D01*
X18730000Y-7999999D01*
X18730000Y-7935981D01*
X18705021Y-7810402D01*
X18656022Y-7692110D01*
X18584888Y-7585649D01*
X18494351Y-7495112D01*
X18387890Y-7423978D01*
X18269598Y-7374979D01*
X18144019Y-7350000D01*
X18015981Y-7350000D01*
X17890402Y-7374979D01*
X17772110Y-7423978D01*
X17665649Y-7495112D01*
X17575112Y-7585649D01*
X17503978Y-7692110D01*
X17454979Y-7810402D01*
X17430000Y-7935981D01*
X17308875Y-7935981D01*
X16503489Y-7130595D01*
X16462166Y-7202170D01*
X16462163Y-7202176D01*
X16371869Y-7420165D01*
X16310799Y-7648085D01*
X16280000Y-7882014D01*
X14600500Y-7882014D01*
X14600500Y-6906898D01*
X14589877Y-6818436D01*
X14534361Y-6677658D01*
X14534360Y-6677657D01*
X14534360Y-6677656D01*
X14442922Y-6557077D01*
X14322343Y-6465639D01*
X14215458Y-6423489D01*
X17210595Y-6423489D01*
X18080000Y-7292894D01*
X18080001Y-7292894D01*
X18949404Y-6423489D01*
X18877826Y-6382164D01*
X18877816Y-6382159D01*
X18659836Y-6291870D01*
X18659838Y-6291870D01*
X18431914Y-6230799D01*
X18197985Y-6200000D01*
X17962014Y-6200000D01*
X17728085Y-6230799D01*
X17500165Y-6291869D01*
X17282176Y-6382163D01*
X17282170Y-6382166D01*
X17210595Y-6423489D01*
X14215458Y-6423489D01*
X14181561Y-6410122D01*
X14135926Y-6404642D01*
X14093102Y-6399500D01*
X11906898Y-6399500D01*
X11867853Y-6404188D01*
X11818438Y-6410122D01*
X11677656Y-6465639D01*
X11557077Y-6557077D01*
X11465639Y-6677656D01*
X11410122Y-6818438D01*
X11404188Y-6867853D01*
X11399500Y-6906898D01*
X500500Y-6906898D01*
X500500Y-3878711D01*
X2149500Y-3878711D01*
X2149500Y-4121288D01*
X2181161Y-4361785D01*
X2243947Y-4596104D01*
X2336773Y-4820205D01*
X2336776Y-4820212D01*
X2458064Y-5030289D01*
X2458066Y-5030292D01*
X2458067Y-5030293D01*
X2605733Y-5222736D01*
X2605739Y-5222743D01*
X2777256Y-5394260D01*
X2777262Y-5394265D01*
X2969711Y-5541936D01*
X3179788Y-5663224D01*
X3403900Y-5756054D01*
X3638211Y-5818838D01*
X3818586Y-5842584D01*
X3878711Y-5850500D01*
X3878712Y-5850500D01*
X4121289Y-5850500D01*
X4169388Y-5844167D01*
X4361789Y-5818838D01*
X4596100Y-5756054D01*
X4820212Y-5663224D01*
X5030289Y-5541936D01*
X5222738Y-5394265D01*
X5394265Y-5222738D01*
X5541936Y-5030289D01*
X5663224Y-4820212D01*
X5756054Y-4596100D01*
X5818838Y-4361789D01*
X5850500Y-4121288D01*
X5850500Y-3878712D01*
X5850500Y-3878711D01*
X104149500Y-3878711D01*
X104149500Y-4121288D01*
X104181161Y-4361785D01*
X104243947Y-4596104D01*
X104336773Y-4820205D01*
X104336776Y-4820212D01*
X104458064Y-5030289D01*
X104458066Y-5030292D01*
X104458067Y-5030293D01*
X104605733Y-5222736D01*
X104605739Y-5222743D01*
X104777256Y-5394260D01*
X104777262Y-5394265D01*
X104969711Y-5541936D01*
X105179788Y-5663224D01*
X105403900Y-5756054D01*
X105638211Y-5818838D01*
X105818586Y-5842584D01*
X105878711Y-5850500D01*
X105878712Y-5850500D01*
X106121289Y-5850500D01*
X106169388Y-5844167D01*
X106361789Y-5818838D01*
X106596100Y-5756054D01*
X106820212Y-5663224D01*
X107030289Y-5541936D01*
X107222738Y-5394265D01*
X107394265Y-5222738D01*
X107541936Y-5030289D01*
X107663224Y-4820212D01*
X107756054Y-4596100D01*
X107818838Y-4361789D01*
X107850500Y-4121288D01*
X107850500Y-3878712D01*
X107818838Y-3638211D01*
X107756054Y-3403900D01*
X107663224Y-3179788D01*
X107541936Y-2969711D01*
X107394265Y-2777262D01*
X107394260Y-2777256D01*
X107222743Y-2605739D01*
X107222736Y-2605733D01*
X107030293Y-2458067D01*
X107030292Y-2458066D01*
X107030289Y-2458064D01*
X106820212Y-2336776D01*
X106820205Y-2336773D01*
X106596104Y-2243947D01*
X106361785Y-2181161D01*
X106121289Y-2149500D01*
X106121288Y-2149500D01*
X105878712Y-2149500D01*
X105878711Y-2149500D01*
X105638214Y-2181161D01*
X105403895Y-2243947D01*
X105179794Y-2336773D01*
X105179785Y-2336777D01*
X104969706Y-2458067D01*
X104777263Y-2605733D01*
X104777256Y-2605739D01*
X104605739Y-2777256D01*
X104605733Y-2777263D01*
X104458067Y-2969706D01*
X104336777Y-3179785D01*
X104336773Y-3179794D01*
X104243947Y-3403895D01*
X104181161Y-3638214D01*
X104149500Y-3878711D01*
X5850500Y-3878711D01*
X5818838Y-3638211D01*
X5756054Y-3403900D01*
X5663224Y-3179788D01*
X5541936Y-2969711D01*
X5394265Y-2777262D01*
X5394260Y-2777256D01*
X5222743Y-2605739D01*
X5222736Y-2605733D01*
X5030293Y-2458067D01*
X5030292Y-2458066D01*
X5030289Y-2458064D01*
X4820212Y-2336776D01*
X4820205Y-2336773D01*
X4596104Y-2243947D01*
X4361785Y-2181161D01*
X4121289Y-2149500D01*
X4121288Y-2149500D01*
X3878712Y-2149500D01*
X3878711Y-2149500D01*
X3638214Y-2181161D01*
X3403895Y-2243947D01*
X3179794Y-2336773D01*
X3179785Y-2336777D01*
X2969706Y-2458067D01*
X2777263Y-2605733D01*
X2777256Y-2605739D01*
X2605739Y-2777256D01*
X2605733Y-2777263D01*
X2458067Y-2969706D01*
X2336777Y-3179785D01*
X2336773Y-3179794D01*
X2243947Y-3403895D01*
X2181161Y-3638214D01*
X2149500Y-3878711D01*
X500500Y-3878711D01*
X500500Y-624500D01*
X520185Y-557461D01*
X572989Y-511706D01*
X624500Y-500500D01*
X109375500Y-500500D01*
X109442539Y-520185D01*
G37*
%TD.AperFunction*%
%TD*%
M02*
