%TF.GenerationSoftware,KiCad,Pcbnew,10.0.4*%
%TF.CreationDate,2026-07-11T19:04:06+02:00*%
%TF.ProjectId,led-controller,6c65642d-636f-46e7-9472-6f6c6c65722e,rev?*%
%TF.SameCoordinates,Original*%
%TF.FileFunction,Drillmap*%
%TF.FilePolarity,Positive*%
%FSLAX45Y45*%
G04 Gerber Fmt 4.5, Leading zero omitted, Abs format (unit mm)*
G04 Created by KiCad (PCBNEW 10.0.4) date 2026-07-11 19:04:06*
%MOMM*%
%LPD*%
G01*
G04 APERTURE LIST*
%ADD10C,0.100000*%
%ADD11C,0.200000*%
%ADD12C,0.130000*%
%ADD13C,0.270000*%
%ADD14C,0.320000*%
G04 APERTURE END LIST*
D10*
X0Y0D02*
X11000000Y0D01*
X0Y-7000000D02*
X0Y0D01*
X11000000Y0D02*
X11000000Y-7000000D01*
X11000000Y-7000000D02*
X0Y-7000000D01*
D11*
D10*
X280000Y-2980000D02*
X320000Y-3020000D01*
X320000Y-2980000D02*
X280000Y-3020000D01*
X280000Y-4680000D02*
X320000Y-4720000D01*
X320000Y-4680000D02*
X280000Y-4720000D01*
X1580000Y-3280000D02*
X1620000Y-3320000D01*
X1620000Y-3280000D02*
X1580000Y-3320000D01*
X1980000Y-5780000D02*
X2020000Y-5820000D01*
X2020000Y-5780000D02*
X1980000Y-5820000D01*
X2480000Y-1240000D02*
X2520000Y-1280000D01*
X2520000Y-1240000D02*
X2480000Y-1280000D01*
X3480000Y-1240000D02*
X3520000Y-1280000D01*
X3520000Y-1240000D02*
X3480000Y-1280000D01*
X3510000Y-2160000D02*
X3550000Y-2200000D01*
X3550000Y-2160000D02*
X3510000Y-2200000D01*
X3980000Y-5780000D02*
X4020000Y-5820000D01*
X4020000Y-5780000D02*
X3980000Y-5820000D01*
X4980000Y-1240000D02*
X5020000Y-1280000D01*
X5020000Y-1240000D02*
X4980000Y-1280000D01*
X5480000Y-5780000D02*
X5520000Y-5820000D01*
X5520000Y-5780000D02*
X5480000Y-5820000D01*
X6180000Y-1240000D02*
X6220000Y-1280000D01*
X6220000Y-1240000D02*
X6180000Y-1280000D01*
X6780000Y-2380000D02*
X6820000Y-2420000D01*
X6820000Y-2380000D02*
X6780000Y-2420000D01*
X6780000Y-3280000D02*
X6820000Y-3320000D01*
X6820000Y-3280000D02*
X6780000Y-3320000D01*
X7480000Y-5780000D02*
X7520000Y-5820000D01*
X7520000Y-5780000D02*
X7480000Y-5820000D01*
X8680000Y-6180000D02*
X8720000Y-6220000D01*
X8720000Y-6180000D02*
X8680000Y-6220000D01*
X8730000Y-780000D02*
X8770000Y-820000D01*
X8770000Y-780000D02*
X8730000Y-820000D01*
X9530000Y-1980000D02*
X9570000Y-2020000D01*
X9570000Y-1980000D02*
X9530000Y-2020000D01*
X9530000Y-3380000D02*
X9570000Y-3420000D01*
X9570000Y-3380000D02*
X9530000Y-3420000D01*
X9530000Y-4780000D02*
X9570000Y-4820000D01*
X9570000Y-4780000D02*
X9530000Y-4820000D01*
X10480000Y-1980000D02*
X10520000Y-2020000D01*
X10520000Y-1980000D02*
X10480000Y-2020000D01*
X10480000Y-3380000D02*
X10520000Y-3420000D01*
X10520000Y-3380000D02*
X10480000Y-3420000D01*
X10480000Y-4780000D02*
X10520000Y-4820000D01*
X10520000Y-4780000D02*
X10480000Y-4820000D01*
X10480000Y-5980000D02*
X10520000Y-6020000D01*
X10520000Y-5980000D02*
X10480000Y-6020000D01*
X3878000Y-2000000D02*
G75*
G02*
X3798000Y-2000000I-40000J0D01*
G01*
X3798000Y-2000000D02*
G75*
G02*
X3878000Y-2000000I40000J0D01*
G01*
X3878000Y-2762000D02*
G75*
G02*
X3798000Y-2762000I-40000J0D01*
G01*
X3798000Y-2762000D02*
G75*
G02*
X3878000Y-2762000I40000J0D01*
G01*
X4132000Y-2000000D02*
G75*
G02*
X4052000Y-2000000I-40000J0D01*
G01*
X4052000Y-2000000D02*
G75*
G02*
X4132000Y-2000000I40000J0D01*
G01*
X4132000Y-2762000D02*
G75*
G02*
X4052000Y-2762000I-40000J0D01*
G01*
X4052000Y-2762000D02*
G75*
G02*
X4132000Y-2762000I40000J0D01*
G01*
X4386000Y-2000000D02*
G75*
G02*
X4306000Y-2000000I-40000J0D01*
G01*
X4306000Y-2000000D02*
G75*
G02*
X4386000Y-2000000I40000J0D01*
G01*
X4386000Y-2762000D02*
G75*
G02*
X4306000Y-2762000I-40000J0D01*
G01*
X4306000Y-2762000D02*
G75*
G02*
X4386000Y-2762000I40000J0D01*
G01*
X4640000Y-2000000D02*
G75*
G02*
X4560000Y-2000000I-40000J0D01*
G01*
X4560000Y-2000000D02*
G75*
G02*
X4640000Y-2000000I40000J0D01*
G01*
X4640000Y-2762000D02*
G75*
G02*
X4560000Y-2762000I-40000J0D01*
G01*
X4560000Y-2762000D02*
G75*
G02*
X4640000Y-2762000I40000J0D01*
G01*
X4894000Y-2000000D02*
G75*
G02*
X4814000Y-2000000I-40000J0D01*
G01*
X4814000Y-2000000D02*
G75*
G02*
X4894000Y-2000000I40000J0D01*
G01*
X4894000Y-2762000D02*
G75*
G02*
X4814000Y-2762000I-40000J0D01*
G01*
X4814000Y-2762000D02*
G75*
G02*
X4894000Y-2762000I40000J0D01*
G01*
X5148000Y-2000000D02*
G75*
G02*
X5068000Y-2000000I-40000J0D01*
G01*
X5068000Y-2000000D02*
G75*
G02*
X5148000Y-2000000I40000J0D01*
G01*
X5148000Y-2762000D02*
G75*
G02*
X5068000Y-2762000I-40000J0D01*
G01*
X5068000Y-2762000D02*
G75*
G02*
X5148000Y-2762000I40000J0D01*
G01*
X5402000Y-2000000D02*
G75*
G02*
X5322000Y-2000000I-40000J0D01*
G01*
X5322000Y-2000000D02*
G75*
G02*
X5402000Y-2000000I40000J0D01*
G01*
X5402000Y-2762000D02*
G75*
G02*
X5322000Y-2762000I-40000J0D01*
G01*
X5322000Y-2762000D02*
G75*
G02*
X5402000Y-2762000I40000J0D01*
G01*
X10100000Y-1102500D02*
X10100000Y-1197500D01*
X10052500Y-1150000D02*
X10147500Y-1150000D01*
X10100000Y-1352500D02*
X10100000Y-1447500D01*
X10052500Y-1400000D02*
X10147500Y-1400000D01*
X10100000Y-1602500D02*
X10100000Y-1697500D01*
X10052500Y-1650000D02*
X10147500Y-1650000D01*
X10100000Y-2502500D02*
X10100000Y-2597500D01*
X10052500Y-2550000D02*
X10147500Y-2550000D01*
X10100000Y-2752500D02*
X10100000Y-2847500D01*
X10052500Y-2800000D02*
X10147500Y-2800000D01*
X10100000Y-3002500D02*
X10100000Y-3097500D01*
X10052500Y-3050000D02*
X10147500Y-3050000D01*
X10100000Y-3902500D02*
X10100000Y-3997500D01*
X10052500Y-3950000D02*
X10147500Y-3950000D01*
X10100000Y-4152500D02*
X10100000Y-4247500D01*
X10052500Y-4200000D02*
X10147500Y-4200000D01*
X10100000Y-4402500D02*
X10100000Y-4497500D01*
X10052500Y-4450000D02*
X10147500Y-4450000D01*
X10100000Y-5302500D02*
X10100000Y-5397500D01*
X10052500Y-5350000D02*
X10147500Y-5350000D01*
X10100000Y-5552500D02*
X10100000Y-5647500D01*
X10052500Y-5600000D02*
X10147500Y-5600000D01*
X10100000Y-5802500D02*
X10100000Y-5897500D01*
X10052500Y-5850000D02*
X10147500Y-5850000D01*
X685356Y-2235356D02*
X685356Y-2164644D01*
X614644Y-2164644D01*
X614644Y-2235356D01*
X685356Y-2235356D01*
X685356Y-2735356D02*
X685356Y-2664644D01*
X614644Y-2664644D01*
X614644Y-2735356D01*
X685356Y-2735356D01*
X1672356Y-3858356D02*
X1672356Y-3787644D01*
X1601644Y-3787644D01*
X1601644Y-3858356D01*
X1672356Y-3858356D01*
X1672356Y-4112356D02*
X1672356Y-4041644D01*
X1601644Y-4041644D01*
X1601644Y-4112356D01*
X1672356Y-4112356D01*
X1926356Y-3858356D02*
X1926356Y-3787644D01*
X1855644Y-3787644D01*
X1855644Y-3858356D01*
X1926356Y-3858356D01*
X1926356Y-4112356D02*
X1926356Y-4041644D01*
X1855644Y-4041644D01*
X1855644Y-4112356D01*
X1926356Y-4112356D01*
X2180356Y-3858356D02*
X2180356Y-3787644D01*
X2109644Y-3787644D01*
X2109644Y-3858356D01*
X2180356Y-3858356D01*
X2180356Y-4112356D02*
X2180356Y-4041644D01*
X2109644Y-4041644D01*
X2109644Y-4112356D01*
X2180356Y-4112356D01*
X2434356Y-3858356D02*
X2434356Y-3787644D01*
X2363644Y-3787644D01*
X2363644Y-3858356D01*
X2434356Y-3858356D01*
X2434356Y-4112356D02*
X2434356Y-4041644D01*
X2363644Y-4041644D01*
X2363644Y-4112356D01*
X2434356Y-4112356D01*
X2688356Y-3858356D02*
X2688356Y-3787644D01*
X2617644Y-3787644D01*
X2617644Y-3858356D01*
X2688356Y-3858356D01*
X2688356Y-4112356D02*
X2688356Y-4041644D01*
X2617644Y-4041644D01*
X2617644Y-4112356D01*
X2688356Y-4112356D01*
X2942356Y-3858356D02*
X2942356Y-3787644D01*
X2871644Y-3787644D01*
X2871644Y-3858356D01*
X2942356Y-3858356D01*
X2942356Y-4112356D02*
X2942356Y-4041644D01*
X2871644Y-4041644D01*
X2871644Y-4112356D01*
X2942356Y-4112356D01*
X3196356Y-3858356D02*
X3196356Y-3787644D01*
X3125644Y-3787644D01*
X3125644Y-3858356D01*
X3196356Y-3858356D01*
X3196356Y-4112356D02*
X3196356Y-4041644D01*
X3125644Y-4041644D01*
X3125644Y-4112356D01*
X3196356Y-4112356D01*
X3450356Y-3858356D02*
X3450356Y-3787644D01*
X3379644Y-3787644D01*
X3379644Y-3858356D01*
X3450356Y-3858356D01*
X3450356Y-4112356D02*
X3450356Y-4041644D01*
X3379644Y-4041644D01*
X3379644Y-4112356D01*
X3450356Y-4112356D01*
X3704356Y-3858356D02*
X3704356Y-3787644D01*
X3633644Y-3787644D01*
X3633644Y-3858356D01*
X3704356Y-3858356D01*
X3704356Y-4112356D02*
X3704356Y-4041644D01*
X3633644Y-4041644D01*
X3633644Y-4112356D01*
X3704356Y-4112356D01*
X3958356Y-3858356D02*
X3958356Y-3787644D01*
X3887644Y-3787644D01*
X3887644Y-3858356D01*
X3958356Y-3858356D01*
X3958356Y-4112356D02*
X3958356Y-4041644D01*
X3887644Y-4041644D01*
X3887644Y-4112356D01*
X3958356Y-4112356D01*
X4212356Y-3858356D02*
X4212356Y-3787644D01*
X4141644Y-3787644D01*
X4141644Y-3858356D01*
X4212356Y-3858356D01*
X4212356Y-4112356D02*
X4212356Y-4041644D01*
X4141644Y-4041644D01*
X4141644Y-4112356D01*
X4212356Y-4112356D01*
X4466356Y-3858356D02*
X4466356Y-3787644D01*
X4395644Y-3787644D01*
X4395644Y-3858356D01*
X4466356Y-3858356D01*
X4466356Y-4112356D02*
X4466356Y-4041644D01*
X4395644Y-4041644D01*
X4395644Y-4112356D01*
X4466356Y-4112356D01*
X4720356Y-3858356D02*
X4720356Y-3787644D01*
X4649644Y-3787644D01*
X4649644Y-3858356D01*
X4720356Y-3858356D01*
X4720356Y-4112356D02*
X4720356Y-4041644D01*
X4649644Y-4041644D01*
X4649644Y-4112356D01*
X4720356Y-4112356D01*
X4974356Y-3858356D02*
X4974356Y-3787644D01*
X4903644Y-3787644D01*
X4903644Y-3858356D01*
X4974356Y-3858356D01*
X4974356Y-4112356D02*
X4974356Y-4041644D01*
X4903644Y-4041644D01*
X4903644Y-4112356D01*
X4974356Y-4112356D01*
X5228356Y-3858356D02*
X5228356Y-3787644D01*
X5157644Y-3787644D01*
X5157644Y-3858356D01*
X5228356Y-3858356D01*
X5228356Y-4112356D02*
X5228356Y-4041644D01*
X5157644Y-4041644D01*
X5157644Y-4112356D01*
X5228356Y-4112356D01*
X5482356Y-3858356D02*
X5482356Y-3787644D01*
X5411644Y-3787644D01*
X5411644Y-3858356D01*
X5482356Y-3858356D01*
X5482356Y-4112356D02*
X5482356Y-4041644D01*
X5411644Y-4041644D01*
X5411644Y-4112356D01*
X5482356Y-4112356D01*
X5736356Y-3858356D02*
X5736356Y-3787644D01*
X5665644Y-3787644D01*
X5665644Y-3858356D01*
X5736356Y-3858356D01*
X5736356Y-4112356D02*
X5736356Y-4041644D01*
X5665644Y-4041644D01*
X5665644Y-4112356D01*
X5736356Y-4112356D01*
X5990356Y-3858356D02*
X5990356Y-3787644D01*
X5919644Y-3787644D01*
X5919644Y-3858356D01*
X5990356Y-3858356D01*
X5990356Y-4112356D02*
X5990356Y-4041644D01*
X5919644Y-4041644D01*
X5919644Y-4112356D01*
X5990356Y-4112356D01*
X6244356Y-3858356D02*
X6244356Y-3787644D01*
X6173644Y-3787644D01*
X6173644Y-3858356D01*
X6244356Y-3858356D01*
X6244356Y-4112356D02*
X6244356Y-4041644D01*
X6173644Y-4041644D01*
X6173644Y-4112356D01*
X6244356Y-4112356D01*
X6498356Y-3858356D02*
X6498356Y-3787644D01*
X6427644Y-3787644D01*
X6427644Y-3858356D01*
X6498356Y-3858356D01*
X6498356Y-4112356D02*
X6498356Y-4041644D01*
X6427644Y-4041644D01*
X6427644Y-4112356D01*
X6498356Y-4112356D01*
D12*
X1300000Y-865000D02*
X1365000Y-800000D01*
X1300000Y-735000D01*
X1235000Y-800000D01*
X1300000Y-865000D01*
X1808000Y-865000D02*
X1873000Y-800000D01*
X1808000Y-735000D01*
X1743000Y-800000D01*
X1808000Y-865000D01*
X7450000Y-1215000D02*
X7515000Y-1150000D01*
X7450000Y-1085000D01*
X7385000Y-1150000D01*
X7450000Y-1215000D01*
X7450000Y-2615000D02*
X7515000Y-2550000D01*
X7450000Y-2485000D01*
X7385000Y-2550000D01*
X7450000Y-2615000D01*
X7450000Y-4015000D02*
X7515000Y-3950000D01*
X7450000Y-3885000D01*
X7385000Y-3950000D01*
X7450000Y-4015000D01*
X7450000Y-5415000D02*
X7515000Y-5350000D01*
X7450000Y-5285000D01*
X7385000Y-5350000D01*
X7450000Y-5415000D01*
X8030000Y-1215000D02*
X8095000Y-1150000D01*
X8030000Y-1085000D01*
X7965000Y-1150000D01*
X8030000Y-1215000D01*
X8030000Y-2615000D02*
X8095000Y-2550000D01*
X8030000Y-2485000D01*
X7965000Y-2550000D01*
X8030000Y-2615000D01*
X8030000Y-4015000D02*
X8095000Y-3950000D01*
X8030000Y-3885000D01*
X7965000Y-3950000D01*
X8030000Y-4015000D01*
X8030000Y-5415000D02*
X8095000Y-5350000D01*
X8030000Y-5285000D01*
X7965000Y-5350000D01*
X8030000Y-5415000D01*
X8920000Y-1215000D02*
X8985000Y-1150000D01*
X8920000Y-1085000D01*
X8855000Y-1150000D01*
X8920000Y-1215000D01*
X8920000Y-2615000D02*
X8985000Y-2550000D01*
X8920000Y-2485000D01*
X8855000Y-2550000D01*
X8920000Y-2615000D01*
X8920000Y-4015000D02*
X8985000Y-3950000D01*
X8920000Y-3885000D01*
X8855000Y-3950000D01*
X8920000Y-4015000D01*
X8920000Y-5415000D02*
X8985000Y-5350000D01*
X8920000Y-5285000D01*
X8855000Y-5350000D01*
X8920000Y-5415000D01*
X9500000Y-1215000D02*
X9565000Y-1150000D01*
X9500000Y-1085000D01*
X9435000Y-1150000D01*
X9500000Y-1215000D01*
X9500000Y-2615000D02*
X9565000Y-2550000D01*
X9500000Y-2485000D01*
X9435000Y-2550000D01*
X9500000Y-2615000D01*
X9500000Y-4015000D02*
X9565000Y-3950000D01*
X9500000Y-3885000D01*
X9435000Y-3950000D01*
X9500000Y-4015000D01*
X9500000Y-5415000D02*
X9565000Y-5350000D01*
X9500000Y-5285000D01*
X9435000Y-5350000D01*
X9500000Y-5415000D01*
D13*
X1015000Y-3815000D02*
X1285000Y-4085000D01*
X1285000Y-3815000D02*
X1015000Y-4085000D01*
X1285000Y-3950000D02*
G75*
G02*
X1015000Y-3950000I-135000J0D01*
G01*
X1015000Y-3950000D02*
G75*
G02*
X1285000Y-3950000I135000J0D01*
G01*
X1015000Y-6115000D02*
X1285000Y-6385000D01*
X1285000Y-6115000D02*
X1015000Y-6385000D01*
X1285000Y-6250000D02*
G75*
G02*
X1015000Y-6250000I-135000J0D01*
G01*
X1015000Y-6250000D02*
G75*
G02*
X1285000Y-6250000I135000J0D01*
G01*
X6815000Y-3815000D02*
X7085000Y-4085000D01*
X7085000Y-3815000D02*
X6815000Y-4085000D01*
X7085000Y-3950000D02*
G75*
G02*
X6815000Y-3950000I-135000J0D01*
G01*
X6815000Y-3950000D02*
G75*
G02*
X7085000Y-3950000I135000J0D01*
G01*
X6815000Y-6115000D02*
X7085000Y-6385000D01*
X7085000Y-6115000D02*
X6815000Y-6385000D01*
X7085000Y-6250000D02*
G75*
G02*
X6815000Y-6250000I-135000J0D01*
G01*
X6815000Y-6250000D02*
G75*
G02*
X7085000Y-6250000I135000J0D01*
G01*
D14*
X240000Y-240000D02*
X560000Y-560000D01*
X560000Y-240000D02*
X240000Y-560000D01*
X400000Y-240000D02*
X400000Y-560000D01*
X240000Y-400000D02*
X560000Y-400000D01*
X240000Y-6440000D02*
X560000Y-6760000D01*
X560000Y-6440000D02*
X240000Y-6760000D01*
X400000Y-6440000D02*
X400000Y-6760000D01*
X240000Y-6600000D02*
X560000Y-6600000D01*
X10440000Y-240000D02*
X10760000Y-560000D01*
X10760000Y-240000D02*
X10440000Y-560000D01*
X10600000Y-240000D02*
X10600000Y-560000D01*
X10440000Y-400000D02*
X10760000Y-400000D01*
X10440000Y-6440000D02*
X10760000Y-6760000D01*
X10760000Y-6440000D02*
X10440000Y-6760000D01*
X10600000Y-6440000D02*
X10600000Y-6760000D01*
X10440000Y-6600000D02*
X10760000Y-6600000D01*
D11*
X255777Y-7316484D02*
X255777Y-7116484D01*
X255777Y-7116484D02*
X303396Y-7116484D01*
X303396Y-7116484D02*
X331967Y-7126008D01*
X331967Y-7126008D02*
X351015Y-7145055D01*
X351015Y-7145055D02*
X360539Y-7164103D01*
X360539Y-7164103D02*
X370062Y-7202198D01*
X370062Y-7202198D02*
X370062Y-7230769D01*
X370062Y-7230769D02*
X360539Y-7268865D01*
X360539Y-7268865D02*
X351015Y-7287912D01*
X351015Y-7287912D02*
X331967Y-7306960D01*
X331967Y-7306960D02*
X303396Y-7316484D01*
X303396Y-7316484D02*
X255777Y-7316484D01*
X455777Y-7316484D02*
X455777Y-7183150D01*
X455777Y-7221246D02*
X465301Y-7202198D01*
X465301Y-7202198D02*
X474824Y-7192674D01*
X474824Y-7192674D02*
X493872Y-7183150D01*
X493872Y-7183150D02*
X512920Y-7183150D01*
X579586Y-7316484D02*
X579586Y-7183150D01*
X579586Y-7116484D02*
X570063Y-7126008D01*
X570063Y-7126008D02*
X579586Y-7135531D01*
X579586Y-7135531D02*
X589110Y-7126008D01*
X589110Y-7126008D02*
X579586Y-7116484D01*
X579586Y-7116484D02*
X579586Y-7135531D01*
X703396Y-7316484D02*
X684348Y-7306960D01*
X684348Y-7306960D02*
X674824Y-7287912D01*
X674824Y-7287912D02*
X674824Y-7116484D01*
X808158Y-7316484D02*
X789110Y-7306960D01*
X789110Y-7306960D02*
X779586Y-7287912D01*
X779586Y-7287912D02*
X779586Y-7116484D01*
X1036729Y-7316484D02*
X1036729Y-7116484D01*
X1036729Y-7116484D02*
X1103396Y-7259341D01*
X1103396Y-7259341D02*
X1170063Y-7116484D01*
X1170063Y-7116484D02*
X1170063Y-7316484D01*
X1351015Y-7316484D02*
X1351015Y-7211722D01*
X1351015Y-7211722D02*
X1341491Y-7192674D01*
X1341491Y-7192674D02*
X1322444Y-7183150D01*
X1322444Y-7183150D02*
X1284348Y-7183150D01*
X1284348Y-7183150D02*
X1265301Y-7192674D01*
X1351015Y-7306960D02*
X1331967Y-7316484D01*
X1331967Y-7316484D02*
X1284348Y-7316484D01*
X1284348Y-7316484D02*
X1265301Y-7306960D01*
X1265301Y-7306960D02*
X1255777Y-7287912D01*
X1255777Y-7287912D02*
X1255777Y-7268865D01*
X1255777Y-7268865D02*
X1265301Y-7249817D01*
X1265301Y-7249817D02*
X1284348Y-7240293D01*
X1284348Y-7240293D02*
X1331967Y-7240293D01*
X1331967Y-7240293D02*
X1351015Y-7230769D01*
X1446253Y-7183150D02*
X1446253Y-7383150D01*
X1446253Y-7192674D02*
X1465301Y-7183150D01*
X1465301Y-7183150D02*
X1503396Y-7183150D01*
X1503396Y-7183150D02*
X1522443Y-7192674D01*
X1522443Y-7192674D02*
X1531967Y-7202198D01*
X1531967Y-7202198D02*
X1541491Y-7221246D01*
X1541491Y-7221246D02*
X1541491Y-7278388D01*
X1541491Y-7278388D02*
X1531967Y-7297436D01*
X1531967Y-7297436D02*
X1522443Y-7306960D01*
X1522443Y-7306960D02*
X1503396Y-7316484D01*
X1503396Y-7316484D02*
X1465301Y-7316484D01*
X1465301Y-7316484D02*
X1446253Y-7306960D01*
X1627205Y-7297436D02*
X1636729Y-7306960D01*
X1636729Y-7306960D02*
X1627205Y-7316484D01*
X1627205Y-7316484D02*
X1617682Y-7306960D01*
X1617682Y-7306960D02*
X1627205Y-7297436D01*
X1627205Y-7297436D02*
X1627205Y-7316484D01*
X1627205Y-7192674D02*
X1636729Y-7202198D01*
X1636729Y-7202198D02*
X1627205Y-7211722D01*
X1627205Y-7211722D02*
X1617682Y-7202198D01*
X1617682Y-7202198D02*
X1627205Y-7192674D01*
X1627205Y-7192674D02*
X1627205Y-7211722D01*
D10*
X-45000Y-7625000D02*
X-5000Y-7665000D01*
X-5000Y-7625000D02*
X-45000Y-7665000D01*
D11*
X293872Y-7536484D02*
X312920Y-7536484D01*
X312920Y-7536484D02*
X331967Y-7546008D01*
X331967Y-7546008D02*
X341491Y-7555531D01*
X341491Y-7555531D02*
X351015Y-7574579D01*
X351015Y-7574579D02*
X360539Y-7612674D01*
X360539Y-7612674D02*
X360539Y-7660293D01*
X360539Y-7660293D02*
X351015Y-7698388D01*
X351015Y-7698388D02*
X341491Y-7717436D01*
X341491Y-7717436D02*
X331967Y-7726960D01*
X331967Y-7726960D02*
X312920Y-7736484D01*
X312920Y-7736484D02*
X293872Y-7736484D01*
X293872Y-7736484D02*
X274824Y-7726960D01*
X274824Y-7726960D02*
X265301Y-7717436D01*
X265301Y-7717436D02*
X255777Y-7698388D01*
X255777Y-7698388D02*
X246253Y-7660293D01*
X246253Y-7660293D02*
X246253Y-7612674D01*
X246253Y-7612674D02*
X255777Y-7574579D01*
X255777Y-7574579D02*
X265301Y-7555531D01*
X265301Y-7555531D02*
X274824Y-7546008D01*
X274824Y-7546008D02*
X293872Y-7536484D01*
X446253Y-7717436D02*
X455777Y-7726960D01*
X455777Y-7726960D02*
X446253Y-7736484D01*
X446253Y-7736484D02*
X436729Y-7726960D01*
X436729Y-7726960D02*
X446253Y-7717436D01*
X446253Y-7717436D02*
X446253Y-7736484D01*
X627205Y-7603150D02*
X627205Y-7736484D01*
X579586Y-7526960D02*
X531967Y-7669817D01*
X531967Y-7669817D02*
X655777Y-7669817D01*
X770062Y-7536484D02*
X789110Y-7536484D01*
X789110Y-7536484D02*
X808158Y-7546008D01*
X808158Y-7546008D02*
X817682Y-7555531D01*
X817682Y-7555531D02*
X827205Y-7574579D01*
X827205Y-7574579D02*
X836729Y-7612674D01*
X836729Y-7612674D02*
X836729Y-7660293D01*
X836729Y-7660293D02*
X827205Y-7698388D01*
X827205Y-7698388D02*
X817682Y-7717436D01*
X817682Y-7717436D02*
X808158Y-7726960D01*
X808158Y-7726960D02*
X789110Y-7736484D01*
X789110Y-7736484D02*
X770062Y-7736484D01*
X770062Y-7736484D02*
X751015Y-7726960D01*
X751015Y-7726960D02*
X741491Y-7717436D01*
X741491Y-7717436D02*
X731967Y-7698388D01*
X731967Y-7698388D02*
X722443Y-7660293D01*
X722443Y-7660293D02*
X722443Y-7612674D01*
X722443Y-7612674D02*
X731967Y-7574579D01*
X731967Y-7574579D02*
X741491Y-7555531D01*
X741491Y-7555531D02*
X751015Y-7546008D01*
X751015Y-7546008D02*
X770062Y-7536484D01*
X960539Y-7536484D02*
X979586Y-7536484D01*
X979586Y-7536484D02*
X998634Y-7546008D01*
X998634Y-7546008D02*
X1008158Y-7555531D01*
X1008158Y-7555531D02*
X1017682Y-7574579D01*
X1017682Y-7574579D02*
X1027205Y-7612674D01*
X1027205Y-7612674D02*
X1027205Y-7660293D01*
X1027205Y-7660293D02*
X1017682Y-7698388D01*
X1017682Y-7698388D02*
X1008158Y-7717436D01*
X1008158Y-7717436D02*
X998634Y-7726960D01*
X998634Y-7726960D02*
X979586Y-7736484D01*
X979586Y-7736484D02*
X960539Y-7736484D01*
X960539Y-7736484D02*
X941491Y-7726960D01*
X941491Y-7726960D02*
X931967Y-7717436D01*
X931967Y-7717436D02*
X922443Y-7698388D01*
X922443Y-7698388D02*
X912920Y-7660293D01*
X912920Y-7660293D02*
X912920Y-7612674D01*
X912920Y-7612674D02*
X922443Y-7574579D01*
X922443Y-7574579D02*
X931967Y-7555531D01*
X931967Y-7555531D02*
X941491Y-7546008D01*
X941491Y-7546008D02*
X960539Y-7536484D01*
X1112920Y-7736484D02*
X1112920Y-7603150D01*
X1112920Y-7622198D02*
X1122444Y-7612674D01*
X1122444Y-7612674D02*
X1141491Y-7603150D01*
X1141491Y-7603150D02*
X1170063Y-7603150D01*
X1170063Y-7603150D02*
X1189110Y-7612674D01*
X1189110Y-7612674D02*
X1198634Y-7631722D01*
X1198634Y-7631722D02*
X1198634Y-7736484D01*
X1198634Y-7631722D02*
X1208158Y-7612674D01*
X1208158Y-7612674D02*
X1227205Y-7603150D01*
X1227205Y-7603150D02*
X1255777Y-7603150D01*
X1255777Y-7603150D02*
X1274825Y-7612674D01*
X1274825Y-7612674D02*
X1284348Y-7631722D01*
X1284348Y-7631722D02*
X1284348Y-7736484D01*
X1379586Y-7736484D02*
X1379586Y-7603150D01*
X1379586Y-7622198D02*
X1389110Y-7612674D01*
X1389110Y-7612674D02*
X1408158Y-7603150D01*
X1408158Y-7603150D02*
X1436729Y-7603150D01*
X1436729Y-7603150D02*
X1455777Y-7612674D01*
X1455777Y-7612674D02*
X1465301Y-7631722D01*
X1465301Y-7631722D02*
X1465301Y-7736484D01*
X1465301Y-7631722D02*
X1474824Y-7612674D01*
X1474824Y-7612674D02*
X1493872Y-7603150D01*
X1493872Y-7603150D02*
X1522443Y-7603150D01*
X1522443Y-7603150D02*
X1541491Y-7612674D01*
X1541491Y-7612674D02*
X1551015Y-7631722D01*
X1551015Y-7631722D02*
X1551015Y-7736484D01*
X1941491Y-7526960D02*
X1770063Y-7784103D01*
X2198634Y-7536484D02*
X2217682Y-7536484D01*
X2217682Y-7536484D02*
X2236729Y-7546008D01*
X2236729Y-7546008D02*
X2246253Y-7555531D01*
X2246253Y-7555531D02*
X2255777Y-7574579D01*
X2255777Y-7574579D02*
X2265301Y-7612674D01*
X2265301Y-7612674D02*
X2265301Y-7660293D01*
X2265301Y-7660293D02*
X2255777Y-7698388D01*
X2255777Y-7698388D02*
X2246253Y-7717436D01*
X2246253Y-7717436D02*
X2236729Y-7726960D01*
X2236729Y-7726960D02*
X2217682Y-7736484D01*
X2217682Y-7736484D02*
X2198634Y-7736484D01*
X2198634Y-7736484D02*
X2179587Y-7726960D01*
X2179587Y-7726960D02*
X2170063Y-7717436D01*
X2170063Y-7717436D02*
X2160539Y-7698388D01*
X2160539Y-7698388D02*
X2151015Y-7660293D01*
X2151015Y-7660293D02*
X2151015Y-7612674D01*
X2151015Y-7612674D02*
X2160539Y-7574579D01*
X2160539Y-7574579D02*
X2170063Y-7555531D01*
X2170063Y-7555531D02*
X2179587Y-7546008D01*
X2179587Y-7546008D02*
X2198634Y-7536484D01*
X2351015Y-7717436D02*
X2360539Y-7726960D01*
X2360539Y-7726960D02*
X2351015Y-7736484D01*
X2351015Y-7736484D02*
X2341491Y-7726960D01*
X2341491Y-7726960D02*
X2351015Y-7717436D01*
X2351015Y-7717436D02*
X2351015Y-7736484D01*
X2484348Y-7536484D02*
X2503396Y-7536484D01*
X2503396Y-7536484D02*
X2522444Y-7546008D01*
X2522444Y-7546008D02*
X2531968Y-7555531D01*
X2531968Y-7555531D02*
X2541491Y-7574579D01*
X2541491Y-7574579D02*
X2551015Y-7612674D01*
X2551015Y-7612674D02*
X2551015Y-7660293D01*
X2551015Y-7660293D02*
X2541491Y-7698388D01*
X2541491Y-7698388D02*
X2531968Y-7717436D01*
X2531968Y-7717436D02*
X2522444Y-7726960D01*
X2522444Y-7726960D02*
X2503396Y-7736484D01*
X2503396Y-7736484D02*
X2484348Y-7736484D01*
X2484348Y-7736484D02*
X2465301Y-7726960D01*
X2465301Y-7726960D02*
X2455777Y-7717436D01*
X2455777Y-7717436D02*
X2446253Y-7698388D01*
X2446253Y-7698388D02*
X2436729Y-7660293D01*
X2436729Y-7660293D02*
X2436729Y-7612674D01*
X2436729Y-7612674D02*
X2446253Y-7574579D01*
X2446253Y-7574579D02*
X2455777Y-7555531D01*
X2455777Y-7555531D02*
X2465301Y-7546008D01*
X2465301Y-7546008D02*
X2484348Y-7536484D01*
X2741491Y-7736484D02*
X2627206Y-7736484D01*
X2684348Y-7736484D02*
X2684348Y-7536484D01*
X2684348Y-7536484D02*
X2665301Y-7565055D01*
X2665301Y-7565055D02*
X2646253Y-7584103D01*
X2646253Y-7584103D02*
X2627206Y-7593627D01*
X2922444Y-7536484D02*
X2827206Y-7536484D01*
X2827206Y-7536484D02*
X2817682Y-7631722D01*
X2817682Y-7631722D02*
X2827206Y-7622198D01*
X2827206Y-7622198D02*
X2846253Y-7612674D01*
X2846253Y-7612674D02*
X2893872Y-7612674D01*
X2893872Y-7612674D02*
X2912920Y-7622198D01*
X2912920Y-7622198D02*
X2922444Y-7631722D01*
X2922444Y-7631722D02*
X2931967Y-7650769D01*
X2931967Y-7650769D02*
X2931967Y-7698388D01*
X2931967Y-7698388D02*
X2922444Y-7717436D01*
X2922444Y-7717436D02*
X2912920Y-7726960D01*
X2912920Y-7726960D02*
X2893872Y-7736484D01*
X2893872Y-7736484D02*
X2846253Y-7736484D01*
X2846253Y-7736484D02*
X2827206Y-7726960D01*
X2827206Y-7726960D02*
X2817682Y-7717436D01*
X2998634Y-7536484D02*
X3131967Y-7536484D01*
X3131967Y-7536484D02*
X3046253Y-7736484D01*
X3198634Y-7536484D02*
X3198634Y-7574579D01*
X3274825Y-7536484D02*
X3274825Y-7574579D01*
X3570063Y-7812674D02*
X3560539Y-7803150D01*
X3560539Y-7803150D02*
X3541491Y-7774579D01*
X3541491Y-7774579D02*
X3531968Y-7755531D01*
X3531968Y-7755531D02*
X3522444Y-7726960D01*
X3522444Y-7726960D02*
X3512920Y-7679341D01*
X3512920Y-7679341D02*
X3512920Y-7641246D01*
X3512920Y-7641246D02*
X3522444Y-7593627D01*
X3522444Y-7593627D02*
X3531968Y-7565055D01*
X3531968Y-7565055D02*
X3541491Y-7546008D01*
X3541491Y-7546008D02*
X3560539Y-7517436D01*
X3560539Y-7517436D02*
X3570063Y-7507912D01*
X3636729Y-7555531D02*
X3646253Y-7546008D01*
X3646253Y-7546008D02*
X3665301Y-7536484D01*
X3665301Y-7536484D02*
X3712920Y-7536484D01*
X3712920Y-7536484D02*
X3731968Y-7546008D01*
X3731968Y-7546008D02*
X3741491Y-7555531D01*
X3741491Y-7555531D02*
X3751015Y-7574579D01*
X3751015Y-7574579D02*
X3751015Y-7593627D01*
X3751015Y-7593627D02*
X3741491Y-7622198D01*
X3741491Y-7622198D02*
X3627206Y-7736484D01*
X3627206Y-7736484D02*
X3751015Y-7736484D01*
X3817682Y-7536484D02*
X3941491Y-7536484D01*
X3941491Y-7536484D02*
X3874825Y-7612674D01*
X3874825Y-7612674D02*
X3903396Y-7612674D01*
X3903396Y-7612674D02*
X3922444Y-7622198D01*
X3922444Y-7622198D02*
X3931968Y-7631722D01*
X3931968Y-7631722D02*
X3941491Y-7650769D01*
X3941491Y-7650769D02*
X3941491Y-7698388D01*
X3941491Y-7698388D02*
X3931968Y-7717436D01*
X3931968Y-7717436D02*
X3922444Y-7726960D01*
X3922444Y-7726960D02*
X3903396Y-7736484D01*
X3903396Y-7736484D02*
X3846253Y-7736484D01*
X3846253Y-7736484D02*
X3827206Y-7726960D01*
X3827206Y-7726960D02*
X3817682Y-7717436D01*
X4179587Y-7736484D02*
X4179587Y-7536484D01*
X4265301Y-7736484D02*
X4265301Y-7631722D01*
X4265301Y-7631722D02*
X4255777Y-7612674D01*
X4255777Y-7612674D02*
X4236730Y-7603150D01*
X4236730Y-7603150D02*
X4208158Y-7603150D01*
X4208158Y-7603150D02*
X4189110Y-7612674D01*
X4189110Y-7612674D02*
X4179587Y-7622198D01*
X4389111Y-7736484D02*
X4370063Y-7726960D01*
X4370063Y-7726960D02*
X4360539Y-7717436D01*
X4360539Y-7717436D02*
X4351015Y-7698388D01*
X4351015Y-7698388D02*
X4351015Y-7641246D01*
X4351015Y-7641246D02*
X4360539Y-7622198D01*
X4360539Y-7622198D02*
X4370063Y-7612674D01*
X4370063Y-7612674D02*
X4389111Y-7603150D01*
X4389111Y-7603150D02*
X4417682Y-7603150D01*
X4417682Y-7603150D02*
X4436730Y-7612674D01*
X4436730Y-7612674D02*
X4446253Y-7622198D01*
X4446253Y-7622198D02*
X4455777Y-7641246D01*
X4455777Y-7641246D02*
X4455777Y-7698388D01*
X4455777Y-7698388D02*
X4446253Y-7717436D01*
X4446253Y-7717436D02*
X4436730Y-7726960D01*
X4436730Y-7726960D02*
X4417682Y-7736484D01*
X4417682Y-7736484D02*
X4389111Y-7736484D01*
X4570063Y-7736484D02*
X4551015Y-7726960D01*
X4551015Y-7726960D02*
X4541492Y-7707912D01*
X4541492Y-7707912D02*
X4541492Y-7536484D01*
X4722444Y-7726960D02*
X4703396Y-7736484D01*
X4703396Y-7736484D02*
X4665301Y-7736484D01*
X4665301Y-7736484D02*
X4646253Y-7726960D01*
X4646253Y-7726960D02*
X4636730Y-7707912D01*
X4636730Y-7707912D02*
X4636730Y-7631722D01*
X4636730Y-7631722D02*
X4646253Y-7612674D01*
X4646253Y-7612674D02*
X4665301Y-7603150D01*
X4665301Y-7603150D02*
X4703396Y-7603150D01*
X4703396Y-7603150D02*
X4722444Y-7612674D01*
X4722444Y-7612674D02*
X4731968Y-7631722D01*
X4731968Y-7631722D02*
X4731968Y-7650769D01*
X4731968Y-7650769D02*
X4636730Y-7669817D01*
X4808158Y-7726960D02*
X4827206Y-7736484D01*
X4827206Y-7736484D02*
X4865301Y-7736484D01*
X4865301Y-7736484D02*
X4884349Y-7726960D01*
X4884349Y-7726960D02*
X4893873Y-7707912D01*
X4893873Y-7707912D02*
X4893873Y-7698388D01*
X4893873Y-7698388D02*
X4884349Y-7679341D01*
X4884349Y-7679341D02*
X4865301Y-7669817D01*
X4865301Y-7669817D02*
X4836730Y-7669817D01*
X4836730Y-7669817D02*
X4817682Y-7660293D01*
X4817682Y-7660293D02*
X4808158Y-7641246D01*
X4808158Y-7641246D02*
X4808158Y-7631722D01*
X4808158Y-7631722D02*
X4817682Y-7612674D01*
X4817682Y-7612674D02*
X4836730Y-7603150D01*
X4836730Y-7603150D02*
X4865301Y-7603150D01*
X4865301Y-7603150D02*
X4884349Y-7612674D01*
X4960539Y-7812674D02*
X4970063Y-7803150D01*
X4970063Y-7803150D02*
X4989111Y-7774579D01*
X4989111Y-7774579D02*
X4998634Y-7755531D01*
X4998634Y-7755531D02*
X5008158Y-7726960D01*
X5008158Y-7726960D02*
X5017682Y-7679341D01*
X5017682Y-7679341D02*
X5017682Y-7641246D01*
X5017682Y-7641246D02*
X5008158Y-7593627D01*
X5008158Y-7593627D02*
X4998634Y-7565055D01*
X4998634Y-7565055D02*
X4989111Y-7546008D01*
X4989111Y-7546008D02*
X4970063Y-7517436D01*
X4970063Y-7517436D02*
X4960539Y-7507912D01*
D10*
X-5000Y-7909000D02*
G75*
G02*
X-85000Y-7909000I-40000J0D01*
G01*
X-85000Y-7909000D02*
G75*
G02*
X-5000Y-7909000I40000J0D01*
G01*
D11*
X293872Y-7800484D02*
X312920Y-7800484D01*
X312920Y-7800484D02*
X331967Y-7810008D01*
X331967Y-7810008D02*
X341491Y-7819531D01*
X341491Y-7819531D02*
X351015Y-7838579D01*
X351015Y-7838579D02*
X360539Y-7876674D01*
X360539Y-7876674D02*
X360539Y-7924293D01*
X360539Y-7924293D02*
X351015Y-7962388D01*
X351015Y-7962388D02*
X341491Y-7981436D01*
X341491Y-7981436D02*
X331967Y-7990960D01*
X331967Y-7990960D02*
X312920Y-8000484D01*
X312920Y-8000484D02*
X293872Y-8000484D01*
X293872Y-8000484D02*
X274824Y-7990960D01*
X274824Y-7990960D02*
X265301Y-7981436D01*
X265301Y-7981436D02*
X255777Y-7962388D01*
X255777Y-7962388D02*
X246253Y-7924293D01*
X246253Y-7924293D02*
X246253Y-7876674D01*
X246253Y-7876674D02*
X255777Y-7838579D01*
X255777Y-7838579D02*
X265301Y-7819531D01*
X265301Y-7819531D02*
X274824Y-7810008D01*
X274824Y-7810008D02*
X293872Y-7800484D01*
X446253Y-7981436D02*
X455777Y-7990960D01*
X455777Y-7990960D02*
X446253Y-8000484D01*
X446253Y-8000484D02*
X436729Y-7990960D01*
X436729Y-7990960D02*
X446253Y-7981436D01*
X446253Y-7981436D02*
X446253Y-8000484D01*
X570063Y-7886198D02*
X551015Y-7876674D01*
X551015Y-7876674D02*
X541491Y-7867150D01*
X541491Y-7867150D02*
X531967Y-7848103D01*
X531967Y-7848103D02*
X531967Y-7838579D01*
X531967Y-7838579D02*
X541491Y-7819531D01*
X541491Y-7819531D02*
X551015Y-7810008D01*
X551015Y-7810008D02*
X570063Y-7800484D01*
X570063Y-7800484D02*
X608158Y-7800484D01*
X608158Y-7800484D02*
X627205Y-7810008D01*
X627205Y-7810008D02*
X636729Y-7819531D01*
X636729Y-7819531D02*
X646253Y-7838579D01*
X646253Y-7838579D02*
X646253Y-7848103D01*
X646253Y-7848103D02*
X636729Y-7867150D01*
X636729Y-7867150D02*
X627205Y-7876674D01*
X627205Y-7876674D02*
X608158Y-7886198D01*
X608158Y-7886198D02*
X570063Y-7886198D01*
X570063Y-7886198D02*
X551015Y-7895722D01*
X551015Y-7895722D02*
X541491Y-7905246D01*
X541491Y-7905246D02*
X531967Y-7924293D01*
X531967Y-7924293D02*
X531967Y-7962388D01*
X531967Y-7962388D02*
X541491Y-7981436D01*
X541491Y-7981436D02*
X551015Y-7990960D01*
X551015Y-7990960D02*
X570063Y-8000484D01*
X570063Y-8000484D02*
X608158Y-8000484D01*
X608158Y-8000484D02*
X627205Y-7990960D01*
X627205Y-7990960D02*
X636729Y-7981436D01*
X636729Y-7981436D02*
X646253Y-7962388D01*
X646253Y-7962388D02*
X646253Y-7924293D01*
X646253Y-7924293D02*
X636729Y-7905246D01*
X636729Y-7905246D02*
X627205Y-7895722D01*
X627205Y-7895722D02*
X608158Y-7886198D01*
X770062Y-7800484D02*
X789110Y-7800484D01*
X789110Y-7800484D02*
X808158Y-7810008D01*
X808158Y-7810008D02*
X817682Y-7819531D01*
X817682Y-7819531D02*
X827205Y-7838579D01*
X827205Y-7838579D02*
X836729Y-7876674D01*
X836729Y-7876674D02*
X836729Y-7924293D01*
X836729Y-7924293D02*
X827205Y-7962388D01*
X827205Y-7962388D02*
X817682Y-7981436D01*
X817682Y-7981436D02*
X808158Y-7990960D01*
X808158Y-7990960D02*
X789110Y-8000484D01*
X789110Y-8000484D02*
X770062Y-8000484D01*
X770062Y-8000484D02*
X751015Y-7990960D01*
X751015Y-7990960D02*
X741491Y-7981436D01*
X741491Y-7981436D02*
X731967Y-7962388D01*
X731967Y-7962388D02*
X722443Y-7924293D01*
X722443Y-7924293D02*
X722443Y-7876674D01*
X722443Y-7876674D02*
X731967Y-7838579D01*
X731967Y-7838579D02*
X741491Y-7819531D01*
X741491Y-7819531D02*
X751015Y-7810008D01*
X751015Y-7810008D02*
X770062Y-7800484D01*
X960539Y-7800484D02*
X979586Y-7800484D01*
X979586Y-7800484D02*
X998634Y-7810008D01*
X998634Y-7810008D02*
X1008158Y-7819531D01*
X1008158Y-7819531D02*
X1017682Y-7838579D01*
X1017682Y-7838579D02*
X1027205Y-7876674D01*
X1027205Y-7876674D02*
X1027205Y-7924293D01*
X1027205Y-7924293D02*
X1017682Y-7962388D01*
X1017682Y-7962388D02*
X1008158Y-7981436D01*
X1008158Y-7981436D02*
X998634Y-7990960D01*
X998634Y-7990960D02*
X979586Y-8000484D01*
X979586Y-8000484D02*
X960539Y-8000484D01*
X960539Y-8000484D02*
X941491Y-7990960D01*
X941491Y-7990960D02*
X931967Y-7981436D01*
X931967Y-7981436D02*
X922443Y-7962388D01*
X922443Y-7962388D02*
X912920Y-7924293D01*
X912920Y-7924293D02*
X912920Y-7876674D01*
X912920Y-7876674D02*
X922443Y-7838579D01*
X922443Y-7838579D02*
X931967Y-7819531D01*
X931967Y-7819531D02*
X941491Y-7810008D01*
X941491Y-7810008D02*
X960539Y-7800484D01*
X1112920Y-8000484D02*
X1112920Y-7867150D01*
X1112920Y-7886198D02*
X1122444Y-7876674D01*
X1122444Y-7876674D02*
X1141491Y-7867150D01*
X1141491Y-7867150D02*
X1170063Y-7867150D01*
X1170063Y-7867150D02*
X1189110Y-7876674D01*
X1189110Y-7876674D02*
X1198634Y-7895722D01*
X1198634Y-7895722D02*
X1198634Y-8000484D01*
X1198634Y-7895722D02*
X1208158Y-7876674D01*
X1208158Y-7876674D02*
X1227205Y-7867150D01*
X1227205Y-7867150D02*
X1255777Y-7867150D01*
X1255777Y-7867150D02*
X1274825Y-7876674D01*
X1274825Y-7876674D02*
X1284348Y-7895722D01*
X1284348Y-7895722D02*
X1284348Y-8000484D01*
X1379586Y-8000484D02*
X1379586Y-7867150D01*
X1379586Y-7886198D02*
X1389110Y-7876674D01*
X1389110Y-7876674D02*
X1408158Y-7867150D01*
X1408158Y-7867150D02*
X1436729Y-7867150D01*
X1436729Y-7867150D02*
X1455777Y-7876674D01*
X1455777Y-7876674D02*
X1465301Y-7895722D01*
X1465301Y-7895722D02*
X1465301Y-8000484D01*
X1465301Y-7895722D02*
X1474824Y-7876674D01*
X1474824Y-7876674D02*
X1493872Y-7867150D01*
X1493872Y-7867150D02*
X1522443Y-7867150D01*
X1522443Y-7867150D02*
X1541491Y-7876674D01*
X1541491Y-7876674D02*
X1551015Y-7895722D01*
X1551015Y-7895722D02*
X1551015Y-8000484D01*
X1941491Y-7790960D02*
X1770063Y-8048103D01*
X2198634Y-7800484D02*
X2217682Y-7800484D01*
X2217682Y-7800484D02*
X2236729Y-7810008D01*
X2236729Y-7810008D02*
X2246253Y-7819531D01*
X2246253Y-7819531D02*
X2255777Y-7838579D01*
X2255777Y-7838579D02*
X2265301Y-7876674D01*
X2265301Y-7876674D02*
X2265301Y-7924293D01*
X2265301Y-7924293D02*
X2255777Y-7962388D01*
X2255777Y-7962388D02*
X2246253Y-7981436D01*
X2246253Y-7981436D02*
X2236729Y-7990960D01*
X2236729Y-7990960D02*
X2217682Y-8000484D01*
X2217682Y-8000484D02*
X2198634Y-8000484D01*
X2198634Y-8000484D02*
X2179587Y-7990960D01*
X2179587Y-7990960D02*
X2170063Y-7981436D01*
X2170063Y-7981436D02*
X2160539Y-7962388D01*
X2160539Y-7962388D02*
X2151015Y-7924293D01*
X2151015Y-7924293D02*
X2151015Y-7876674D01*
X2151015Y-7876674D02*
X2160539Y-7838579D01*
X2160539Y-7838579D02*
X2170063Y-7819531D01*
X2170063Y-7819531D02*
X2179587Y-7810008D01*
X2179587Y-7810008D02*
X2198634Y-7800484D01*
X2351015Y-7981436D02*
X2360539Y-7990960D01*
X2360539Y-7990960D02*
X2351015Y-8000484D01*
X2351015Y-8000484D02*
X2341491Y-7990960D01*
X2341491Y-7990960D02*
X2351015Y-7981436D01*
X2351015Y-7981436D02*
X2351015Y-8000484D01*
X2484348Y-7800484D02*
X2503396Y-7800484D01*
X2503396Y-7800484D02*
X2522444Y-7810008D01*
X2522444Y-7810008D02*
X2531968Y-7819531D01*
X2531968Y-7819531D02*
X2541491Y-7838579D01*
X2541491Y-7838579D02*
X2551015Y-7876674D01*
X2551015Y-7876674D02*
X2551015Y-7924293D01*
X2551015Y-7924293D02*
X2541491Y-7962388D01*
X2541491Y-7962388D02*
X2531968Y-7981436D01*
X2531968Y-7981436D02*
X2522444Y-7990960D01*
X2522444Y-7990960D02*
X2503396Y-8000484D01*
X2503396Y-8000484D02*
X2484348Y-8000484D01*
X2484348Y-8000484D02*
X2465301Y-7990960D01*
X2465301Y-7990960D02*
X2455777Y-7981436D01*
X2455777Y-7981436D02*
X2446253Y-7962388D01*
X2446253Y-7962388D02*
X2436729Y-7924293D01*
X2436729Y-7924293D02*
X2436729Y-7876674D01*
X2436729Y-7876674D02*
X2446253Y-7838579D01*
X2446253Y-7838579D02*
X2455777Y-7819531D01*
X2455777Y-7819531D02*
X2465301Y-7810008D01*
X2465301Y-7810008D02*
X2484348Y-7800484D01*
X2617682Y-7800484D02*
X2741491Y-7800484D01*
X2741491Y-7800484D02*
X2674825Y-7876674D01*
X2674825Y-7876674D02*
X2703396Y-7876674D01*
X2703396Y-7876674D02*
X2722444Y-7886198D01*
X2722444Y-7886198D02*
X2731968Y-7895722D01*
X2731968Y-7895722D02*
X2741491Y-7914769D01*
X2741491Y-7914769D02*
X2741491Y-7962388D01*
X2741491Y-7962388D02*
X2731968Y-7981436D01*
X2731968Y-7981436D02*
X2722444Y-7990960D01*
X2722444Y-7990960D02*
X2703396Y-8000484D01*
X2703396Y-8000484D02*
X2646253Y-8000484D01*
X2646253Y-8000484D02*
X2627206Y-7990960D01*
X2627206Y-7990960D02*
X2617682Y-7981436D01*
X2931967Y-8000484D02*
X2817682Y-8000484D01*
X2874825Y-8000484D02*
X2874825Y-7800484D01*
X2874825Y-7800484D02*
X2855777Y-7829055D01*
X2855777Y-7829055D02*
X2836729Y-7848103D01*
X2836729Y-7848103D02*
X2817682Y-7857627D01*
X3112920Y-7800484D02*
X3017682Y-7800484D01*
X3017682Y-7800484D02*
X3008158Y-7895722D01*
X3008158Y-7895722D02*
X3017682Y-7886198D01*
X3017682Y-7886198D02*
X3036729Y-7876674D01*
X3036729Y-7876674D02*
X3084348Y-7876674D01*
X3084348Y-7876674D02*
X3103396Y-7886198D01*
X3103396Y-7886198D02*
X3112920Y-7895722D01*
X3112920Y-7895722D02*
X3122444Y-7914769D01*
X3122444Y-7914769D02*
X3122444Y-7962388D01*
X3122444Y-7962388D02*
X3112920Y-7981436D01*
X3112920Y-7981436D02*
X3103396Y-7990960D01*
X3103396Y-7990960D02*
X3084348Y-8000484D01*
X3084348Y-8000484D02*
X3036729Y-8000484D01*
X3036729Y-8000484D02*
X3017682Y-7990960D01*
X3017682Y-7990960D02*
X3008158Y-7981436D01*
X3198634Y-7800484D02*
X3198634Y-7838579D01*
X3274825Y-7800484D02*
X3274825Y-7838579D01*
X3570063Y-8076674D02*
X3560539Y-8067150D01*
X3560539Y-8067150D02*
X3541491Y-8038579D01*
X3541491Y-8038579D02*
X3531968Y-8019531D01*
X3531968Y-8019531D02*
X3522444Y-7990960D01*
X3522444Y-7990960D02*
X3512920Y-7943341D01*
X3512920Y-7943341D02*
X3512920Y-7905246D01*
X3512920Y-7905246D02*
X3522444Y-7857627D01*
X3522444Y-7857627D02*
X3531968Y-7829055D01*
X3531968Y-7829055D02*
X3541491Y-7810008D01*
X3541491Y-7810008D02*
X3560539Y-7781436D01*
X3560539Y-7781436D02*
X3570063Y-7771912D01*
X3751015Y-8000484D02*
X3636729Y-8000484D01*
X3693872Y-8000484D02*
X3693872Y-7800484D01*
X3693872Y-7800484D02*
X3674825Y-7829055D01*
X3674825Y-7829055D02*
X3655777Y-7848103D01*
X3655777Y-7848103D02*
X3636729Y-7857627D01*
X3922444Y-7867150D02*
X3922444Y-8000484D01*
X3874825Y-7790960D02*
X3827206Y-7933817D01*
X3827206Y-7933817D02*
X3951015Y-7933817D01*
X4179587Y-8000484D02*
X4179587Y-7800484D01*
X4265301Y-8000484D02*
X4265301Y-7895722D01*
X4265301Y-7895722D02*
X4255777Y-7876674D01*
X4255777Y-7876674D02*
X4236730Y-7867150D01*
X4236730Y-7867150D02*
X4208158Y-7867150D01*
X4208158Y-7867150D02*
X4189110Y-7876674D01*
X4189110Y-7876674D02*
X4179587Y-7886198D01*
X4389111Y-8000484D02*
X4370063Y-7990960D01*
X4370063Y-7990960D02*
X4360539Y-7981436D01*
X4360539Y-7981436D02*
X4351015Y-7962388D01*
X4351015Y-7962388D02*
X4351015Y-7905246D01*
X4351015Y-7905246D02*
X4360539Y-7886198D01*
X4360539Y-7886198D02*
X4370063Y-7876674D01*
X4370063Y-7876674D02*
X4389111Y-7867150D01*
X4389111Y-7867150D02*
X4417682Y-7867150D01*
X4417682Y-7867150D02*
X4436730Y-7876674D01*
X4436730Y-7876674D02*
X4446253Y-7886198D01*
X4446253Y-7886198D02*
X4455777Y-7905246D01*
X4455777Y-7905246D02*
X4455777Y-7962388D01*
X4455777Y-7962388D02*
X4446253Y-7981436D01*
X4446253Y-7981436D02*
X4436730Y-7990960D01*
X4436730Y-7990960D02*
X4417682Y-8000484D01*
X4417682Y-8000484D02*
X4389111Y-8000484D01*
X4570063Y-8000484D02*
X4551015Y-7990960D01*
X4551015Y-7990960D02*
X4541492Y-7971912D01*
X4541492Y-7971912D02*
X4541492Y-7800484D01*
X4722444Y-7990960D02*
X4703396Y-8000484D01*
X4703396Y-8000484D02*
X4665301Y-8000484D01*
X4665301Y-8000484D02*
X4646253Y-7990960D01*
X4646253Y-7990960D02*
X4636730Y-7971912D01*
X4636730Y-7971912D02*
X4636730Y-7895722D01*
X4636730Y-7895722D02*
X4646253Y-7876674D01*
X4646253Y-7876674D02*
X4665301Y-7867150D01*
X4665301Y-7867150D02*
X4703396Y-7867150D01*
X4703396Y-7867150D02*
X4722444Y-7876674D01*
X4722444Y-7876674D02*
X4731968Y-7895722D01*
X4731968Y-7895722D02*
X4731968Y-7914769D01*
X4731968Y-7914769D02*
X4636730Y-7933817D01*
X4808158Y-7990960D02*
X4827206Y-8000484D01*
X4827206Y-8000484D02*
X4865301Y-8000484D01*
X4865301Y-8000484D02*
X4884349Y-7990960D01*
X4884349Y-7990960D02*
X4893873Y-7971912D01*
X4893873Y-7971912D02*
X4893873Y-7962388D01*
X4893873Y-7962388D02*
X4884349Y-7943341D01*
X4884349Y-7943341D02*
X4865301Y-7933817D01*
X4865301Y-7933817D02*
X4836730Y-7933817D01*
X4836730Y-7933817D02*
X4817682Y-7924293D01*
X4817682Y-7924293D02*
X4808158Y-7905246D01*
X4808158Y-7905246D02*
X4808158Y-7895722D01*
X4808158Y-7895722D02*
X4817682Y-7876674D01*
X4817682Y-7876674D02*
X4836730Y-7867150D01*
X4836730Y-7867150D02*
X4865301Y-7867150D01*
X4865301Y-7867150D02*
X4884349Y-7876674D01*
X4960539Y-8076674D02*
X4970063Y-8067150D01*
X4970063Y-8067150D02*
X4989111Y-8038579D01*
X4989111Y-8038579D02*
X4998634Y-8019531D01*
X4998634Y-8019531D02*
X5008158Y-7990960D01*
X5008158Y-7990960D02*
X5017682Y-7943341D01*
X5017682Y-7943341D02*
X5017682Y-7905246D01*
X5017682Y-7905246D02*
X5008158Y-7857627D01*
X5008158Y-7857627D02*
X4998634Y-7829055D01*
X4998634Y-7829055D02*
X4989111Y-7810008D01*
X4989111Y-7810008D02*
X4970063Y-7781436D01*
X4970063Y-7781436D02*
X4960539Y-7771912D01*
D10*
X-52500Y-8125500D02*
X-52500Y-8220500D01*
X-100000Y-8173000D02*
X-5000Y-8173000D01*
D11*
X293872Y-8064484D02*
X312920Y-8064484D01*
X312920Y-8064484D02*
X331967Y-8074008D01*
X331967Y-8074008D02*
X341491Y-8083531D01*
X341491Y-8083531D02*
X351015Y-8102579D01*
X351015Y-8102579D02*
X360539Y-8140674D01*
X360539Y-8140674D02*
X360539Y-8188293D01*
X360539Y-8188293D02*
X351015Y-8226388D01*
X351015Y-8226388D02*
X341491Y-8245436D01*
X341491Y-8245436D02*
X331967Y-8254960D01*
X331967Y-8254960D02*
X312920Y-8264484D01*
X312920Y-8264484D02*
X293872Y-8264484D01*
X293872Y-8264484D02*
X274824Y-8254960D01*
X274824Y-8254960D02*
X265301Y-8245436D01*
X265301Y-8245436D02*
X255777Y-8226388D01*
X255777Y-8226388D02*
X246253Y-8188293D01*
X246253Y-8188293D02*
X246253Y-8140674D01*
X246253Y-8140674D02*
X255777Y-8102579D01*
X255777Y-8102579D02*
X265301Y-8083531D01*
X265301Y-8083531D02*
X274824Y-8074008D01*
X274824Y-8074008D02*
X293872Y-8064484D01*
X446253Y-8245436D02*
X455777Y-8254960D01*
X455777Y-8254960D02*
X446253Y-8264484D01*
X446253Y-8264484D02*
X436729Y-8254960D01*
X436729Y-8254960D02*
X446253Y-8245436D01*
X446253Y-8245436D02*
X446253Y-8264484D01*
X551015Y-8264484D02*
X589110Y-8264484D01*
X589110Y-8264484D02*
X608158Y-8254960D01*
X608158Y-8254960D02*
X617682Y-8245436D01*
X617682Y-8245436D02*
X636729Y-8216865D01*
X636729Y-8216865D02*
X646253Y-8178769D01*
X646253Y-8178769D02*
X646253Y-8102579D01*
X646253Y-8102579D02*
X636729Y-8083531D01*
X636729Y-8083531D02*
X627205Y-8074008D01*
X627205Y-8074008D02*
X608158Y-8064484D01*
X608158Y-8064484D02*
X570063Y-8064484D01*
X570063Y-8064484D02*
X551015Y-8074008D01*
X551015Y-8074008D02*
X541491Y-8083531D01*
X541491Y-8083531D02*
X531967Y-8102579D01*
X531967Y-8102579D02*
X531967Y-8150198D01*
X531967Y-8150198D02*
X541491Y-8169246D01*
X541491Y-8169246D02*
X551015Y-8178769D01*
X551015Y-8178769D02*
X570063Y-8188293D01*
X570063Y-8188293D02*
X608158Y-8188293D01*
X608158Y-8188293D02*
X627205Y-8178769D01*
X627205Y-8178769D02*
X636729Y-8169246D01*
X636729Y-8169246D02*
X646253Y-8150198D01*
X827205Y-8064484D02*
X731967Y-8064484D01*
X731967Y-8064484D02*
X722443Y-8159722D01*
X722443Y-8159722D02*
X731967Y-8150198D01*
X731967Y-8150198D02*
X751015Y-8140674D01*
X751015Y-8140674D02*
X798634Y-8140674D01*
X798634Y-8140674D02*
X817682Y-8150198D01*
X817682Y-8150198D02*
X827205Y-8159722D01*
X827205Y-8159722D02*
X836729Y-8178769D01*
X836729Y-8178769D02*
X836729Y-8226388D01*
X836729Y-8226388D02*
X827205Y-8245436D01*
X827205Y-8245436D02*
X817682Y-8254960D01*
X817682Y-8254960D02*
X798634Y-8264484D01*
X798634Y-8264484D02*
X751015Y-8264484D01*
X751015Y-8264484D02*
X731967Y-8254960D01*
X731967Y-8254960D02*
X722443Y-8245436D01*
X960539Y-8064484D02*
X979586Y-8064484D01*
X979586Y-8064484D02*
X998634Y-8074008D01*
X998634Y-8074008D02*
X1008158Y-8083531D01*
X1008158Y-8083531D02*
X1017682Y-8102579D01*
X1017682Y-8102579D02*
X1027205Y-8140674D01*
X1027205Y-8140674D02*
X1027205Y-8188293D01*
X1027205Y-8188293D02*
X1017682Y-8226388D01*
X1017682Y-8226388D02*
X1008158Y-8245436D01*
X1008158Y-8245436D02*
X998634Y-8254960D01*
X998634Y-8254960D02*
X979586Y-8264484D01*
X979586Y-8264484D02*
X960539Y-8264484D01*
X960539Y-8264484D02*
X941491Y-8254960D01*
X941491Y-8254960D02*
X931967Y-8245436D01*
X931967Y-8245436D02*
X922443Y-8226388D01*
X922443Y-8226388D02*
X912920Y-8188293D01*
X912920Y-8188293D02*
X912920Y-8140674D01*
X912920Y-8140674D02*
X922443Y-8102579D01*
X922443Y-8102579D02*
X931967Y-8083531D01*
X931967Y-8083531D02*
X941491Y-8074008D01*
X941491Y-8074008D02*
X960539Y-8064484D01*
X1112920Y-8264484D02*
X1112920Y-8131150D01*
X1112920Y-8150198D02*
X1122444Y-8140674D01*
X1122444Y-8140674D02*
X1141491Y-8131150D01*
X1141491Y-8131150D02*
X1170063Y-8131150D01*
X1170063Y-8131150D02*
X1189110Y-8140674D01*
X1189110Y-8140674D02*
X1198634Y-8159722D01*
X1198634Y-8159722D02*
X1198634Y-8264484D01*
X1198634Y-8159722D02*
X1208158Y-8140674D01*
X1208158Y-8140674D02*
X1227205Y-8131150D01*
X1227205Y-8131150D02*
X1255777Y-8131150D01*
X1255777Y-8131150D02*
X1274825Y-8140674D01*
X1274825Y-8140674D02*
X1284348Y-8159722D01*
X1284348Y-8159722D02*
X1284348Y-8264484D01*
X1379586Y-8264484D02*
X1379586Y-8131150D01*
X1379586Y-8150198D02*
X1389110Y-8140674D01*
X1389110Y-8140674D02*
X1408158Y-8131150D01*
X1408158Y-8131150D02*
X1436729Y-8131150D01*
X1436729Y-8131150D02*
X1455777Y-8140674D01*
X1455777Y-8140674D02*
X1465301Y-8159722D01*
X1465301Y-8159722D02*
X1465301Y-8264484D01*
X1465301Y-8159722D02*
X1474824Y-8140674D01*
X1474824Y-8140674D02*
X1493872Y-8131150D01*
X1493872Y-8131150D02*
X1522443Y-8131150D01*
X1522443Y-8131150D02*
X1541491Y-8140674D01*
X1541491Y-8140674D02*
X1551015Y-8159722D01*
X1551015Y-8159722D02*
X1551015Y-8264484D01*
X1941491Y-8054960D02*
X1770063Y-8312103D01*
X2198634Y-8064484D02*
X2217682Y-8064484D01*
X2217682Y-8064484D02*
X2236729Y-8074008D01*
X2236729Y-8074008D02*
X2246253Y-8083531D01*
X2246253Y-8083531D02*
X2255777Y-8102579D01*
X2255777Y-8102579D02*
X2265301Y-8140674D01*
X2265301Y-8140674D02*
X2265301Y-8188293D01*
X2265301Y-8188293D02*
X2255777Y-8226388D01*
X2255777Y-8226388D02*
X2246253Y-8245436D01*
X2246253Y-8245436D02*
X2236729Y-8254960D01*
X2236729Y-8254960D02*
X2217682Y-8264484D01*
X2217682Y-8264484D02*
X2198634Y-8264484D01*
X2198634Y-8264484D02*
X2179587Y-8254960D01*
X2179587Y-8254960D02*
X2170063Y-8245436D01*
X2170063Y-8245436D02*
X2160539Y-8226388D01*
X2160539Y-8226388D02*
X2151015Y-8188293D01*
X2151015Y-8188293D02*
X2151015Y-8140674D01*
X2151015Y-8140674D02*
X2160539Y-8102579D01*
X2160539Y-8102579D02*
X2170063Y-8083531D01*
X2170063Y-8083531D02*
X2179587Y-8074008D01*
X2179587Y-8074008D02*
X2198634Y-8064484D01*
X2351015Y-8245436D02*
X2360539Y-8254960D01*
X2360539Y-8254960D02*
X2351015Y-8264484D01*
X2351015Y-8264484D02*
X2341491Y-8254960D01*
X2341491Y-8254960D02*
X2351015Y-8245436D01*
X2351015Y-8245436D02*
X2351015Y-8264484D01*
X2484348Y-8064484D02*
X2503396Y-8064484D01*
X2503396Y-8064484D02*
X2522444Y-8074008D01*
X2522444Y-8074008D02*
X2531968Y-8083531D01*
X2531968Y-8083531D02*
X2541491Y-8102579D01*
X2541491Y-8102579D02*
X2551015Y-8140674D01*
X2551015Y-8140674D02*
X2551015Y-8188293D01*
X2551015Y-8188293D02*
X2541491Y-8226388D01*
X2541491Y-8226388D02*
X2531968Y-8245436D01*
X2531968Y-8245436D02*
X2522444Y-8254960D01*
X2522444Y-8254960D02*
X2503396Y-8264484D01*
X2503396Y-8264484D02*
X2484348Y-8264484D01*
X2484348Y-8264484D02*
X2465301Y-8254960D01*
X2465301Y-8254960D02*
X2455777Y-8245436D01*
X2455777Y-8245436D02*
X2446253Y-8226388D01*
X2446253Y-8226388D02*
X2436729Y-8188293D01*
X2436729Y-8188293D02*
X2436729Y-8140674D01*
X2436729Y-8140674D02*
X2446253Y-8102579D01*
X2446253Y-8102579D02*
X2455777Y-8083531D01*
X2455777Y-8083531D02*
X2465301Y-8074008D01*
X2465301Y-8074008D02*
X2484348Y-8064484D01*
X2617682Y-8064484D02*
X2741491Y-8064484D01*
X2741491Y-8064484D02*
X2674825Y-8140674D01*
X2674825Y-8140674D02*
X2703396Y-8140674D01*
X2703396Y-8140674D02*
X2722444Y-8150198D01*
X2722444Y-8150198D02*
X2731968Y-8159722D01*
X2731968Y-8159722D02*
X2741491Y-8178769D01*
X2741491Y-8178769D02*
X2741491Y-8226388D01*
X2741491Y-8226388D02*
X2731968Y-8245436D01*
X2731968Y-8245436D02*
X2722444Y-8254960D01*
X2722444Y-8254960D02*
X2703396Y-8264484D01*
X2703396Y-8264484D02*
X2646253Y-8264484D01*
X2646253Y-8264484D02*
X2627206Y-8254960D01*
X2627206Y-8254960D02*
X2617682Y-8245436D01*
X2808158Y-8064484D02*
X2941491Y-8064484D01*
X2941491Y-8064484D02*
X2855777Y-8264484D01*
X3103396Y-8131150D02*
X3103396Y-8264484D01*
X3055777Y-8054960D02*
X3008158Y-8197817D01*
X3008158Y-8197817D02*
X3131967Y-8197817D01*
X3198634Y-8064484D02*
X3198634Y-8102579D01*
X3274825Y-8064484D02*
X3274825Y-8102579D01*
X3570063Y-8340674D02*
X3560539Y-8331150D01*
X3560539Y-8331150D02*
X3541491Y-8302579D01*
X3541491Y-8302579D02*
X3531968Y-8283531D01*
X3531968Y-8283531D02*
X3522444Y-8254960D01*
X3522444Y-8254960D02*
X3512920Y-8207341D01*
X3512920Y-8207341D02*
X3512920Y-8169246D01*
X3512920Y-8169246D02*
X3522444Y-8121627D01*
X3522444Y-8121627D02*
X3531968Y-8093055D01*
X3531968Y-8093055D02*
X3541491Y-8074008D01*
X3541491Y-8074008D02*
X3560539Y-8045436D01*
X3560539Y-8045436D02*
X3570063Y-8035912D01*
X3751015Y-8264484D02*
X3636729Y-8264484D01*
X3693872Y-8264484D02*
X3693872Y-8064484D01*
X3693872Y-8064484D02*
X3674825Y-8093055D01*
X3674825Y-8093055D02*
X3655777Y-8112103D01*
X3655777Y-8112103D02*
X3636729Y-8121627D01*
X3827206Y-8083531D02*
X3836729Y-8074008D01*
X3836729Y-8074008D02*
X3855777Y-8064484D01*
X3855777Y-8064484D02*
X3903396Y-8064484D01*
X3903396Y-8064484D02*
X3922444Y-8074008D01*
X3922444Y-8074008D02*
X3931968Y-8083531D01*
X3931968Y-8083531D02*
X3941491Y-8102579D01*
X3941491Y-8102579D02*
X3941491Y-8121627D01*
X3941491Y-8121627D02*
X3931968Y-8150198D01*
X3931968Y-8150198D02*
X3817682Y-8264484D01*
X3817682Y-8264484D02*
X3941491Y-8264484D01*
X4179587Y-8264484D02*
X4179587Y-8064484D01*
X4265301Y-8264484D02*
X4265301Y-8159722D01*
X4265301Y-8159722D02*
X4255777Y-8140674D01*
X4255777Y-8140674D02*
X4236730Y-8131150D01*
X4236730Y-8131150D02*
X4208158Y-8131150D01*
X4208158Y-8131150D02*
X4189110Y-8140674D01*
X4189110Y-8140674D02*
X4179587Y-8150198D01*
X4389111Y-8264484D02*
X4370063Y-8254960D01*
X4370063Y-8254960D02*
X4360539Y-8245436D01*
X4360539Y-8245436D02*
X4351015Y-8226388D01*
X4351015Y-8226388D02*
X4351015Y-8169246D01*
X4351015Y-8169246D02*
X4360539Y-8150198D01*
X4360539Y-8150198D02*
X4370063Y-8140674D01*
X4370063Y-8140674D02*
X4389111Y-8131150D01*
X4389111Y-8131150D02*
X4417682Y-8131150D01*
X4417682Y-8131150D02*
X4436730Y-8140674D01*
X4436730Y-8140674D02*
X4446253Y-8150198D01*
X4446253Y-8150198D02*
X4455777Y-8169246D01*
X4455777Y-8169246D02*
X4455777Y-8226388D01*
X4455777Y-8226388D02*
X4446253Y-8245436D01*
X4446253Y-8245436D02*
X4436730Y-8254960D01*
X4436730Y-8254960D02*
X4417682Y-8264484D01*
X4417682Y-8264484D02*
X4389111Y-8264484D01*
X4570063Y-8264484D02*
X4551015Y-8254960D01*
X4551015Y-8254960D02*
X4541492Y-8235912D01*
X4541492Y-8235912D02*
X4541492Y-8064484D01*
X4722444Y-8254960D02*
X4703396Y-8264484D01*
X4703396Y-8264484D02*
X4665301Y-8264484D01*
X4665301Y-8264484D02*
X4646253Y-8254960D01*
X4646253Y-8254960D02*
X4636730Y-8235912D01*
X4636730Y-8235912D02*
X4636730Y-8159722D01*
X4636730Y-8159722D02*
X4646253Y-8140674D01*
X4646253Y-8140674D02*
X4665301Y-8131150D01*
X4665301Y-8131150D02*
X4703396Y-8131150D01*
X4703396Y-8131150D02*
X4722444Y-8140674D01*
X4722444Y-8140674D02*
X4731968Y-8159722D01*
X4731968Y-8159722D02*
X4731968Y-8178769D01*
X4731968Y-8178769D02*
X4636730Y-8197817D01*
X4808158Y-8254960D02*
X4827206Y-8264484D01*
X4827206Y-8264484D02*
X4865301Y-8264484D01*
X4865301Y-8264484D02*
X4884349Y-8254960D01*
X4884349Y-8254960D02*
X4893873Y-8235912D01*
X4893873Y-8235912D02*
X4893873Y-8226388D01*
X4893873Y-8226388D02*
X4884349Y-8207341D01*
X4884349Y-8207341D02*
X4865301Y-8197817D01*
X4865301Y-8197817D02*
X4836730Y-8197817D01*
X4836730Y-8197817D02*
X4817682Y-8188293D01*
X4817682Y-8188293D02*
X4808158Y-8169246D01*
X4808158Y-8169246D02*
X4808158Y-8159722D01*
X4808158Y-8159722D02*
X4817682Y-8140674D01*
X4817682Y-8140674D02*
X4836730Y-8131150D01*
X4836730Y-8131150D02*
X4865301Y-8131150D01*
X4865301Y-8131150D02*
X4884349Y-8140674D01*
X4960539Y-8340674D02*
X4970063Y-8331150D01*
X4970063Y-8331150D02*
X4989111Y-8302579D01*
X4989111Y-8302579D02*
X4998634Y-8283531D01*
X4998634Y-8283531D02*
X5008158Y-8254960D01*
X5008158Y-8254960D02*
X5017682Y-8207341D01*
X5017682Y-8207341D02*
X5017682Y-8169246D01*
X5017682Y-8169246D02*
X5008158Y-8121627D01*
X5008158Y-8121627D02*
X4998634Y-8093055D01*
X4998634Y-8093055D02*
X4989111Y-8074008D01*
X4989111Y-8074008D02*
X4970063Y-8045436D01*
X4970063Y-8045436D02*
X4960539Y-8035912D01*
D10*
X-19644Y-8472356D02*
X-19644Y-8401644D01*
X-90356Y-8401644D01*
X-90356Y-8472356D01*
X-19644Y-8472356D01*
D11*
X360539Y-8528484D02*
X246253Y-8528484D01*
X303396Y-8528484D02*
X303396Y-8328484D01*
X303396Y-8328484D02*
X284348Y-8357055D01*
X284348Y-8357055D02*
X265301Y-8376103D01*
X265301Y-8376103D02*
X246253Y-8385627D01*
X446253Y-8509436D02*
X455777Y-8518960D01*
X455777Y-8518960D02*
X446253Y-8528484D01*
X446253Y-8528484D02*
X436729Y-8518960D01*
X436729Y-8518960D02*
X446253Y-8509436D01*
X446253Y-8509436D02*
X446253Y-8528484D01*
X579586Y-8328484D02*
X598634Y-8328484D01*
X598634Y-8328484D02*
X617682Y-8338008D01*
X617682Y-8338008D02*
X627205Y-8347531D01*
X627205Y-8347531D02*
X636729Y-8366579D01*
X636729Y-8366579D02*
X646253Y-8404674D01*
X646253Y-8404674D02*
X646253Y-8452293D01*
X646253Y-8452293D02*
X636729Y-8490389D01*
X636729Y-8490389D02*
X627205Y-8509436D01*
X627205Y-8509436D02*
X617682Y-8518960D01*
X617682Y-8518960D02*
X598634Y-8528484D01*
X598634Y-8528484D02*
X579586Y-8528484D01*
X579586Y-8528484D02*
X560539Y-8518960D01*
X560539Y-8518960D02*
X551015Y-8509436D01*
X551015Y-8509436D02*
X541491Y-8490389D01*
X541491Y-8490389D02*
X531967Y-8452293D01*
X531967Y-8452293D02*
X531967Y-8404674D01*
X531967Y-8404674D02*
X541491Y-8366579D01*
X541491Y-8366579D02*
X551015Y-8347531D01*
X551015Y-8347531D02*
X560539Y-8338008D01*
X560539Y-8338008D02*
X579586Y-8328484D01*
X770062Y-8328484D02*
X789110Y-8328484D01*
X789110Y-8328484D02*
X808158Y-8338008D01*
X808158Y-8338008D02*
X817682Y-8347531D01*
X817682Y-8347531D02*
X827205Y-8366579D01*
X827205Y-8366579D02*
X836729Y-8404674D01*
X836729Y-8404674D02*
X836729Y-8452293D01*
X836729Y-8452293D02*
X827205Y-8490389D01*
X827205Y-8490389D02*
X817682Y-8509436D01*
X817682Y-8509436D02*
X808158Y-8518960D01*
X808158Y-8518960D02*
X789110Y-8528484D01*
X789110Y-8528484D02*
X770062Y-8528484D01*
X770062Y-8528484D02*
X751015Y-8518960D01*
X751015Y-8518960D02*
X741491Y-8509436D01*
X741491Y-8509436D02*
X731967Y-8490389D01*
X731967Y-8490389D02*
X722443Y-8452293D01*
X722443Y-8452293D02*
X722443Y-8404674D01*
X722443Y-8404674D02*
X731967Y-8366579D01*
X731967Y-8366579D02*
X741491Y-8347531D01*
X741491Y-8347531D02*
X751015Y-8338008D01*
X751015Y-8338008D02*
X770062Y-8328484D01*
X960539Y-8328484D02*
X979586Y-8328484D01*
X979586Y-8328484D02*
X998634Y-8338008D01*
X998634Y-8338008D02*
X1008158Y-8347531D01*
X1008158Y-8347531D02*
X1017682Y-8366579D01*
X1017682Y-8366579D02*
X1027205Y-8404674D01*
X1027205Y-8404674D02*
X1027205Y-8452293D01*
X1027205Y-8452293D02*
X1017682Y-8490389D01*
X1017682Y-8490389D02*
X1008158Y-8509436D01*
X1008158Y-8509436D02*
X998634Y-8518960D01*
X998634Y-8518960D02*
X979586Y-8528484D01*
X979586Y-8528484D02*
X960539Y-8528484D01*
X960539Y-8528484D02*
X941491Y-8518960D01*
X941491Y-8518960D02*
X931967Y-8509436D01*
X931967Y-8509436D02*
X922443Y-8490389D01*
X922443Y-8490389D02*
X912920Y-8452293D01*
X912920Y-8452293D02*
X912920Y-8404674D01*
X912920Y-8404674D02*
X922443Y-8366579D01*
X922443Y-8366579D02*
X931967Y-8347531D01*
X931967Y-8347531D02*
X941491Y-8338008D01*
X941491Y-8338008D02*
X960539Y-8328484D01*
X1112920Y-8528484D02*
X1112920Y-8395150D01*
X1112920Y-8414198D02*
X1122444Y-8404674D01*
X1122444Y-8404674D02*
X1141491Y-8395150D01*
X1141491Y-8395150D02*
X1170063Y-8395150D01*
X1170063Y-8395150D02*
X1189110Y-8404674D01*
X1189110Y-8404674D02*
X1198634Y-8423722D01*
X1198634Y-8423722D02*
X1198634Y-8528484D01*
X1198634Y-8423722D02*
X1208158Y-8404674D01*
X1208158Y-8404674D02*
X1227205Y-8395150D01*
X1227205Y-8395150D02*
X1255777Y-8395150D01*
X1255777Y-8395150D02*
X1274825Y-8404674D01*
X1274825Y-8404674D02*
X1284348Y-8423722D01*
X1284348Y-8423722D02*
X1284348Y-8528484D01*
X1379586Y-8528484D02*
X1379586Y-8395150D01*
X1379586Y-8414198D02*
X1389110Y-8404674D01*
X1389110Y-8404674D02*
X1408158Y-8395150D01*
X1408158Y-8395150D02*
X1436729Y-8395150D01*
X1436729Y-8395150D02*
X1455777Y-8404674D01*
X1455777Y-8404674D02*
X1465301Y-8423722D01*
X1465301Y-8423722D02*
X1465301Y-8528484D01*
X1465301Y-8423722D02*
X1474824Y-8404674D01*
X1474824Y-8404674D02*
X1493872Y-8395150D01*
X1493872Y-8395150D02*
X1522443Y-8395150D01*
X1522443Y-8395150D02*
X1541491Y-8404674D01*
X1541491Y-8404674D02*
X1551015Y-8423722D01*
X1551015Y-8423722D02*
X1551015Y-8528484D01*
X1941491Y-8318960D02*
X1770063Y-8576103D01*
X2198634Y-8328484D02*
X2217682Y-8328484D01*
X2217682Y-8328484D02*
X2236729Y-8338008D01*
X2236729Y-8338008D02*
X2246253Y-8347531D01*
X2246253Y-8347531D02*
X2255777Y-8366579D01*
X2255777Y-8366579D02*
X2265301Y-8404674D01*
X2265301Y-8404674D02*
X2265301Y-8452293D01*
X2265301Y-8452293D02*
X2255777Y-8490389D01*
X2255777Y-8490389D02*
X2246253Y-8509436D01*
X2246253Y-8509436D02*
X2236729Y-8518960D01*
X2236729Y-8518960D02*
X2217682Y-8528484D01*
X2217682Y-8528484D02*
X2198634Y-8528484D01*
X2198634Y-8528484D02*
X2179587Y-8518960D01*
X2179587Y-8518960D02*
X2170063Y-8509436D01*
X2170063Y-8509436D02*
X2160539Y-8490389D01*
X2160539Y-8490389D02*
X2151015Y-8452293D01*
X2151015Y-8452293D02*
X2151015Y-8404674D01*
X2151015Y-8404674D02*
X2160539Y-8366579D01*
X2160539Y-8366579D02*
X2170063Y-8347531D01*
X2170063Y-8347531D02*
X2179587Y-8338008D01*
X2179587Y-8338008D02*
X2198634Y-8328484D01*
X2351015Y-8509436D02*
X2360539Y-8518960D01*
X2360539Y-8518960D02*
X2351015Y-8528484D01*
X2351015Y-8528484D02*
X2341491Y-8518960D01*
X2341491Y-8518960D02*
X2351015Y-8509436D01*
X2351015Y-8509436D02*
X2351015Y-8528484D01*
X2484348Y-8328484D02*
X2503396Y-8328484D01*
X2503396Y-8328484D02*
X2522444Y-8338008D01*
X2522444Y-8338008D02*
X2531968Y-8347531D01*
X2531968Y-8347531D02*
X2541491Y-8366579D01*
X2541491Y-8366579D02*
X2551015Y-8404674D01*
X2551015Y-8404674D02*
X2551015Y-8452293D01*
X2551015Y-8452293D02*
X2541491Y-8490389D01*
X2541491Y-8490389D02*
X2531968Y-8509436D01*
X2531968Y-8509436D02*
X2522444Y-8518960D01*
X2522444Y-8518960D02*
X2503396Y-8528484D01*
X2503396Y-8528484D02*
X2484348Y-8528484D01*
X2484348Y-8528484D02*
X2465301Y-8518960D01*
X2465301Y-8518960D02*
X2455777Y-8509436D01*
X2455777Y-8509436D02*
X2446253Y-8490389D01*
X2446253Y-8490389D02*
X2436729Y-8452293D01*
X2436729Y-8452293D02*
X2436729Y-8404674D01*
X2436729Y-8404674D02*
X2446253Y-8366579D01*
X2446253Y-8366579D02*
X2455777Y-8347531D01*
X2455777Y-8347531D02*
X2465301Y-8338008D01*
X2465301Y-8338008D02*
X2484348Y-8328484D01*
X2617682Y-8328484D02*
X2741491Y-8328484D01*
X2741491Y-8328484D02*
X2674825Y-8404674D01*
X2674825Y-8404674D02*
X2703396Y-8404674D01*
X2703396Y-8404674D02*
X2722444Y-8414198D01*
X2722444Y-8414198D02*
X2731968Y-8423722D01*
X2731968Y-8423722D02*
X2741491Y-8442770D01*
X2741491Y-8442770D02*
X2741491Y-8490389D01*
X2741491Y-8490389D02*
X2731968Y-8509436D01*
X2731968Y-8509436D02*
X2722444Y-8518960D01*
X2722444Y-8518960D02*
X2703396Y-8528484D01*
X2703396Y-8528484D02*
X2646253Y-8528484D01*
X2646253Y-8528484D02*
X2627206Y-8518960D01*
X2627206Y-8518960D02*
X2617682Y-8509436D01*
X2836729Y-8528484D02*
X2874825Y-8528484D01*
X2874825Y-8528484D02*
X2893872Y-8518960D01*
X2893872Y-8518960D02*
X2903396Y-8509436D01*
X2903396Y-8509436D02*
X2922444Y-8480865D01*
X2922444Y-8480865D02*
X2931967Y-8442770D01*
X2931967Y-8442770D02*
X2931967Y-8366579D01*
X2931967Y-8366579D02*
X2922444Y-8347531D01*
X2922444Y-8347531D02*
X2912920Y-8338008D01*
X2912920Y-8338008D02*
X2893872Y-8328484D01*
X2893872Y-8328484D02*
X2855777Y-8328484D01*
X2855777Y-8328484D02*
X2836729Y-8338008D01*
X2836729Y-8338008D02*
X2827206Y-8347531D01*
X2827206Y-8347531D02*
X2817682Y-8366579D01*
X2817682Y-8366579D02*
X2817682Y-8414198D01*
X2817682Y-8414198D02*
X2827206Y-8433246D01*
X2827206Y-8433246D02*
X2836729Y-8442770D01*
X2836729Y-8442770D02*
X2855777Y-8452293D01*
X2855777Y-8452293D02*
X2893872Y-8452293D01*
X2893872Y-8452293D02*
X2912920Y-8442770D01*
X2912920Y-8442770D02*
X2922444Y-8433246D01*
X2922444Y-8433246D02*
X2931967Y-8414198D01*
X3103396Y-8395150D02*
X3103396Y-8528484D01*
X3055777Y-8318960D02*
X3008158Y-8461817D01*
X3008158Y-8461817D02*
X3131967Y-8461817D01*
X3198634Y-8328484D02*
X3198634Y-8366579D01*
X3274825Y-8328484D02*
X3274825Y-8366579D01*
X3570063Y-8604674D02*
X3560539Y-8595150D01*
X3560539Y-8595150D02*
X3541491Y-8566579D01*
X3541491Y-8566579D02*
X3531968Y-8547531D01*
X3531968Y-8547531D02*
X3522444Y-8518960D01*
X3522444Y-8518960D02*
X3512920Y-8471341D01*
X3512920Y-8471341D02*
X3512920Y-8433246D01*
X3512920Y-8433246D02*
X3522444Y-8385627D01*
X3522444Y-8385627D02*
X3531968Y-8357055D01*
X3531968Y-8357055D02*
X3541491Y-8338008D01*
X3541491Y-8338008D02*
X3560539Y-8309436D01*
X3560539Y-8309436D02*
X3570063Y-8299912D01*
X3731968Y-8395150D02*
X3731968Y-8528484D01*
X3684348Y-8318960D02*
X3636729Y-8461817D01*
X3636729Y-8461817D02*
X3760539Y-8461817D01*
X3827206Y-8347531D02*
X3836729Y-8338008D01*
X3836729Y-8338008D02*
X3855777Y-8328484D01*
X3855777Y-8328484D02*
X3903396Y-8328484D01*
X3903396Y-8328484D02*
X3922444Y-8338008D01*
X3922444Y-8338008D02*
X3931968Y-8347531D01*
X3931968Y-8347531D02*
X3941491Y-8366579D01*
X3941491Y-8366579D02*
X3941491Y-8385627D01*
X3941491Y-8385627D02*
X3931968Y-8414198D01*
X3931968Y-8414198D02*
X3817682Y-8528484D01*
X3817682Y-8528484D02*
X3941491Y-8528484D01*
X4179587Y-8528484D02*
X4179587Y-8328484D01*
X4265301Y-8528484D02*
X4265301Y-8423722D01*
X4265301Y-8423722D02*
X4255777Y-8404674D01*
X4255777Y-8404674D02*
X4236730Y-8395150D01*
X4236730Y-8395150D02*
X4208158Y-8395150D01*
X4208158Y-8395150D02*
X4189110Y-8404674D01*
X4189110Y-8404674D02*
X4179587Y-8414198D01*
X4389111Y-8528484D02*
X4370063Y-8518960D01*
X4370063Y-8518960D02*
X4360539Y-8509436D01*
X4360539Y-8509436D02*
X4351015Y-8490389D01*
X4351015Y-8490389D02*
X4351015Y-8433246D01*
X4351015Y-8433246D02*
X4360539Y-8414198D01*
X4360539Y-8414198D02*
X4370063Y-8404674D01*
X4370063Y-8404674D02*
X4389111Y-8395150D01*
X4389111Y-8395150D02*
X4417682Y-8395150D01*
X4417682Y-8395150D02*
X4436730Y-8404674D01*
X4436730Y-8404674D02*
X4446253Y-8414198D01*
X4446253Y-8414198D02*
X4455777Y-8433246D01*
X4455777Y-8433246D02*
X4455777Y-8490389D01*
X4455777Y-8490389D02*
X4446253Y-8509436D01*
X4446253Y-8509436D02*
X4436730Y-8518960D01*
X4436730Y-8518960D02*
X4417682Y-8528484D01*
X4417682Y-8528484D02*
X4389111Y-8528484D01*
X4570063Y-8528484D02*
X4551015Y-8518960D01*
X4551015Y-8518960D02*
X4541492Y-8499912D01*
X4541492Y-8499912D02*
X4541492Y-8328484D01*
X4722444Y-8518960D02*
X4703396Y-8528484D01*
X4703396Y-8528484D02*
X4665301Y-8528484D01*
X4665301Y-8528484D02*
X4646253Y-8518960D01*
X4646253Y-8518960D02*
X4636730Y-8499912D01*
X4636730Y-8499912D02*
X4636730Y-8423722D01*
X4636730Y-8423722D02*
X4646253Y-8404674D01*
X4646253Y-8404674D02*
X4665301Y-8395150D01*
X4665301Y-8395150D02*
X4703396Y-8395150D01*
X4703396Y-8395150D02*
X4722444Y-8404674D01*
X4722444Y-8404674D02*
X4731968Y-8423722D01*
X4731968Y-8423722D02*
X4731968Y-8442770D01*
X4731968Y-8442770D02*
X4636730Y-8461817D01*
X4808158Y-8518960D02*
X4827206Y-8528484D01*
X4827206Y-8528484D02*
X4865301Y-8528484D01*
X4865301Y-8528484D02*
X4884349Y-8518960D01*
X4884349Y-8518960D02*
X4893873Y-8499912D01*
X4893873Y-8499912D02*
X4893873Y-8490389D01*
X4893873Y-8490389D02*
X4884349Y-8471341D01*
X4884349Y-8471341D02*
X4865301Y-8461817D01*
X4865301Y-8461817D02*
X4836730Y-8461817D01*
X4836730Y-8461817D02*
X4817682Y-8452293D01*
X4817682Y-8452293D02*
X4808158Y-8433246D01*
X4808158Y-8433246D02*
X4808158Y-8423722D01*
X4808158Y-8423722D02*
X4817682Y-8404674D01*
X4817682Y-8404674D02*
X4836730Y-8395150D01*
X4836730Y-8395150D02*
X4865301Y-8395150D01*
X4865301Y-8395150D02*
X4884349Y-8404674D01*
X4960539Y-8604674D02*
X4970063Y-8595150D01*
X4970063Y-8595150D02*
X4989111Y-8566579D01*
X4989111Y-8566579D02*
X4998634Y-8547531D01*
X4998634Y-8547531D02*
X5008158Y-8518960D01*
X5008158Y-8518960D02*
X5017682Y-8471341D01*
X5017682Y-8471341D02*
X5017682Y-8433246D01*
X5017682Y-8433246D02*
X5008158Y-8385627D01*
X5008158Y-8385627D02*
X4998634Y-8357055D01*
X4998634Y-8357055D02*
X4989111Y-8338008D01*
X4989111Y-8338008D02*
X4970063Y-8309436D01*
X4970063Y-8309436D02*
X4960539Y-8299912D01*
D12*
X-70000Y-8766000D02*
X-5000Y-8701000D01*
X-70000Y-8636000D01*
X-135000Y-8701000D01*
X-70000Y-8766000D01*
D11*
X360539Y-8792484D02*
X246253Y-8792484D01*
X303396Y-8792484D02*
X303396Y-8592484D01*
X303396Y-8592484D02*
X284348Y-8621055D01*
X284348Y-8621055D02*
X265301Y-8640103D01*
X265301Y-8640103D02*
X246253Y-8649627D01*
X446253Y-8773436D02*
X455777Y-8782960D01*
X455777Y-8782960D02*
X446253Y-8792484D01*
X446253Y-8792484D02*
X436729Y-8782960D01*
X436729Y-8782960D02*
X446253Y-8773436D01*
X446253Y-8773436D02*
X446253Y-8792484D01*
X522443Y-8592484D02*
X646253Y-8592484D01*
X646253Y-8592484D02*
X579586Y-8668674D01*
X579586Y-8668674D02*
X608158Y-8668674D01*
X608158Y-8668674D02*
X627205Y-8678198D01*
X627205Y-8678198D02*
X636729Y-8687722D01*
X636729Y-8687722D02*
X646253Y-8706770D01*
X646253Y-8706770D02*
X646253Y-8754389D01*
X646253Y-8754389D02*
X636729Y-8773436D01*
X636729Y-8773436D02*
X627205Y-8782960D01*
X627205Y-8782960D02*
X608158Y-8792484D01*
X608158Y-8792484D02*
X551015Y-8792484D01*
X551015Y-8792484D02*
X531967Y-8782960D01*
X531967Y-8782960D02*
X522443Y-8773436D01*
X770062Y-8592484D02*
X789110Y-8592484D01*
X789110Y-8592484D02*
X808158Y-8602008D01*
X808158Y-8602008D02*
X817682Y-8611531D01*
X817682Y-8611531D02*
X827205Y-8630579D01*
X827205Y-8630579D02*
X836729Y-8668674D01*
X836729Y-8668674D02*
X836729Y-8716293D01*
X836729Y-8716293D02*
X827205Y-8754389D01*
X827205Y-8754389D02*
X817682Y-8773436D01*
X817682Y-8773436D02*
X808158Y-8782960D01*
X808158Y-8782960D02*
X789110Y-8792484D01*
X789110Y-8792484D02*
X770062Y-8792484D01*
X770062Y-8792484D02*
X751015Y-8782960D01*
X751015Y-8782960D02*
X741491Y-8773436D01*
X741491Y-8773436D02*
X731967Y-8754389D01*
X731967Y-8754389D02*
X722443Y-8716293D01*
X722443Y-8716293D02*
X722443Y-8668674D01*
X722443Y-8668674D02*
X731967Y-8630579D01*
X731967Y-8630579D02*
X741491Y-8611531D01*
X741491Y-8611531D02*
X751015Y-8602008D01*
X751015Y-8602008D02*
X770062Y-8592484D01*
X960539Y-8592484D02*
X979586Y-8592484D01*
X979586Y-8592484D02*
X998634Y-8602008D01*
X998634Y-8602008D02*
X1008158Y-8611531D01*
X1008158Y-8611531D02*
X1017682Y-8630579D01*
X1017682Y-8630579D02*
X1027205Y-8668674D01*
X1027205Y-8668674D02*
X1027205Y-8716293D01*
X1027205Y-8716293D02*
X1017682Y-8754389D01*
X1017682Y-8754389D02*
X1008158Y-8773436D01*
X1008158Y-8773436D02*
X998634Y-8782960D01*
X998634Y-8782960D02*
X979586Y-8792484D01*
X979586Y-8792484D02*
X960539Y-8792484D01*
X960539Y-8792484D02*
X941491Y-8782960D01*
X941491Y-8782960D02*
X931967Y-8773436D01*
X931967Y-8773436D02*
X922443Y-8754389D01*
X922443Y-8754389D02*
X912920Y-8716293D01*
X912920Y-8716293D02*
X912920Y-8668674D01*
X912920Y-8668674D02*
X922443Y-8630579D01*
X922443Y-8630579D02*
X931967Y-8611531D01*
X931967Y-8611531D02*
X941491Y-8602008D01*
X941491Y-8602008D02*
X960539Y-8592484D01*
X1112920Y-8792484D02*
X1112920Y-8659150D01*
X1112920Y-8678198D02*
X1122444Y-8668674D01*
X1122444Y-8668674D02*
X1141491Y-8659150D01*
X1141491Y-8659150D02*
X1170063Y-8659150D01*
X1170063Y-8659150D02*
X1189110Y-8668674D01*
X1189110Y-8668674D02*
X1198634Y-8687722D01*
X1198634Y-8687722D02*
X1198634Y-8792484D01*
X1198634Y-8687722D02*
X1208158Y-8668674D01*
X1208158Y-8668674D02*
X1227205Y-8659150D01*
X1227205Y-8659150D02*
X1255777Y-8659150D01*
X1255777Y-8659150D02*
X1274825Y-8668674D01*
X1274825Y-8668674D02*
X1284348Y-8687722D01*
X1284348Y-8687722D02*
X1284348Y-8792484D01*
X1379586Y-8792484D02*
X1379586Y-8659150D01*
X1379586Y-8678198D02*
X1389110Y-8668674D01*
X1389110Y-8668674D02*
X1408158Y-8659150D01*
X1408158Y-8659150D02*
X1436729Y-8659150D01*
X1436729Y-8659150D02*
X1455777Y-8668674D01*
X1455777Y-8668674D02*
X1465301Y-8687722D01*
X1465301Y-8687722D02*
X1465301Y-8792484D01*
X1465301Y-8687722D02*
X1474824Y-8668674D01*
X1474824Y-8668674D02*
X1493872Y-8659150D01*
X1493872Y-8659150D02*
X1522443Y-8659150D01*
X1522443Y-8659150D02*
X1541491Y-8668674D01*
X1541491Y-8668674D02*
X1551015Y-8687722D01*
X1551015Y-8687722D02*
X1551015Y-8792484D01*
X1941491Y-8582960D02*
X1770063Y-8840103D01*
X2198634Y-8592484D02*
X2217682Y-8592484D01*
X2217682Y-8592484D02*
X2236729Y-8602008D01*
X2236729Y-8602008D02*
X2246253Y-8611531D01*
X2246253Y-8611531D02*
X2255777Y-8630579D01*
X2255777Y-8630579D02*
X2265301Y-8668674D01*
X2265301Y-8668674D02*
X2265301Y-8716293D01*
X2265301Y-8716293D02*
X2255777Y-8754389D01*
X2255777Y-8754389D02*
X2246253Y-8773436D01*
X2246253Y-8773436D02*
X2236729Y-8782960D01*
X2236729Y-8782960D02*
X2217682Y-8792484D01*
X2217682Y-8792484D02*
X2198634Y-8792484D01*
X2198634Y-8792484D02*
X2179587Y-8782960D01*
X2179587Y-8782960D02*
X2170063Y-8773436D01*
X2170063Y-8773436D02*
X2160539Y-8754389D01*
X2160539Y-8754389D02*
X2151015Y-8716293D01*
X2151015Y-8716293D02*
X2151015Y-8668674D01*
X2151015Y-8668674D02*
X2160539Y-8630579D01*
X2160539Y-8630579D02*
X2170063Y-8611531D01*
X2170063Y-8611531D02*
X2179587Y-8602008D01*
X2179587Y-8602008D02*
X2198634Y-8592484D01*
X2351015Y-8773436D02*
X2360539Y-8782960D01*
X2360539Y-8782960D02*
X2351015Y-8792484D01*
X2351015Y-8792484D02*
X2341491Y-8782960D01*
X2341491Y-8782960D02*
X2351015Y-8773436D01*
X2351015Y-8773436D02*
X2351015Y-8792484D01*
X2484348Y-8592484D02*
X2503396Y-8592484D01*
X2503396Y-8592484D02*
X2522444Y-8602008D01*
X2522444Y-8602008D02*
X2531968Y-8611531D01*
X2531968Y-8611531D02*
X2541491Y-8630579D01*
X2541491Y-8630579D02*
X2551015Y-8668674D01*
X2551015Y-8668674D02*
X2551015Y-8716293D01*
X2551015Y-8716293D02*
X2541491Y-8754389D01*
X2541491Y-8754389D02*
X2531968Y-8773436D01*
X2531968Y-8773436D02*
X2522444Y-8782960D01*
X2522444Y-8782960D02*
X2503396Y-8792484D01*
X2503396Y-8792484D02*
X2484348Y-8792484D01*
X2484348Y-8792484D02*
X2465301Y-8782960D01*
X2465301Y-8782960D02*
X2455777Y-8773436D01*
X2455777Y-8773436D02*
X2446253Y-8754389D01*
X2446253Y-8754389D02*
X2436729Y-8716293D01*
X2436729Y-8716293D02*
X2436729Y-8668674D01*
X2436729Y-8668674D02*
X2446253Y-8630579D01*
X2446253Y-8630579D02*
X2455777Y-8611531D01*
X2455777Y-8611531D02*
X2465301Y-8602008D01*
X2465301Y-8602008D02*
X2484348Y-8592484D01*
X2731968Y-8592484D02*
X2636729Y-8592484D01*
X2636729Y-8592484D02*
X2627206Y-8687722D01*
X2627206Y-8687722D02*
X2636729Y-8678198D01*
X2636729Y-8678198D02*
X2655777Y-8668674D01*
X2655777Y-8668674D02*
X2703396Y-8668674D01*
X2703396Y-8668674D02*
X2722444Y-8678198D01*
X2722444Y-8678198D02*
X2731968Y-8687722D01*
X2731968Y-8687722D02*
X2741491Y-8706770D01*
X2741491Y-8706770D02*
X2741491Y-8754389D01*
X2741491Y-8754389D02*
X2731968Y-8773436D01*
X2731968Y-8773436D02*
X2722444Y-8782960D01*
X2722444Y-8782960D02*
X2703396Y-8792484D01*
X2703396Y-8792484D02*
X2655777Y-8792484D01*
X2655777Y-8792484D02*
X2636729Y-8782960D01*
X2636729Y-8782960D02*
X2627206Y-8773436D01*
X2931967Y-8792484D02*
X2817682Y-8792484D01*
X2874825Y-8792484D02*
X2874825Y-8592484D01*
X2874825Y-8592484D02*
X2855777Y-8621055D01*
X2855777Y-8621055D02*
X2836729Y-8640103D01*
X2836729Y-8640103D02*
X2817682Y-8649627D01*
X3008158Y-8611531D02*
X3017682Y-8602008D01*
X3017682Y-8602008D02*
X3036729Y-8592484D01*
X3036729Y-8592484D02*
X3084348Y-8592484D01*
X3084348Y-8592484D02*
X3103396Y-8602008D01*
X3103396Y-8602008D02*
X3112920Y-8611531D01*
X3112920Y-8611531D02*
X3122444Y-8630579D01*
X3122444Y-8630579D02*
X3122444Y-8649627D01*
X3122444Y-8649627D02*
X3112920Y-8678198D01*
X3112920Y-8678198D02*
X2998634Y-8792484D01*
X2998634Y-8792484D02*
X3122444Y-8792484D01*
X3198634Y-8592484D02*
X3198634Y-8630579D01*
X3274825Y-8592484D02*
X3274825Y-8630579D01*
X3570063Y-8868674D02*
X3560539Y-8859150D01*
X3560539Y-8859150D02*
X3541491Y-8830579D01*
X3541491Y-8830579D02*
X3531968Y-8811531D01*
X3531968Y-8811531D02*
X3522444Y-8782960D01*
X3522444Y-8782960D02*
X3512920Y-8735341D01*
X3512920Y-8735341D02*
X3512920Y-8697246D01*
X3512920Y-8697246D02*
X3522444Y-8649627D01*
X3522444Y-8649627D02*
X3531968Y-8621055D01*
X3531968Y-8621055D02*
X3541491Y-8602008D01*
X3541491Y-8602008D02*
X3560539Y-8573436D01*
X3560539Y-8573436D02*
X3570063Y-8563912D01*
X3751015Y-8792484D02*
X3636729Y-8792484D01*
X3693872Y-8792484D02*
X3693872Y-8592484D01*
X3693872Y-8592484D02*
X3674825Y-8621055D01*
X3674825Y-8621055D02*
X3655777Y-8640103D01*
X3655777Y-8640103D02*
X3636729Y-8649627D01*
X3865301Y-8678198D02*
X3846253Y-8668674D01*
X3846253Y-8668674D02*
X3836729Y-8659150D01*
X3836729Y-8659150D02*
X3827206Y-8640103D01*
X3827206Y-8640103D02*
X3827206Y-8630579D01*
X3827206Y-8630579D02*
X3836729Y-8611531D01*
X3836729Y-8611531D02*
X3846253Y-8602008D01*
X3846253Y-8602008D02*
X3865301Y-8592484D01*
X3865301Y-8592484D02*
X3903396Y-8592484D01*
X3903396Y-8592484D02*
X3922444Y-8602008D01*
X3922444Y-8602008D02*
X3931968Y-8611531D01*
X3931968Y-8611531D02*
X3941491Y-8630579D01*
X3941491Y-8630579D02*
X3941491Y-8640103D01*
X3941491Y-8640103D02*
X3931968Y-8659150D01*
X3931968Y-8659150D02*
X3922444Y-8668674D01*
X3922444Y-8668674D02*
X3903396Y-8678198D01*
X3903396Y-8678198D02*
X3865301Y-8678198D01*
X3865301Y-8678198D02*
X3846253Y-8687722D01*
X3846253Y-8687722D02*
X3836729Y-8697246D01*
X3836729Y-8697246D02*
X3827206Y-8716293D01*
X3827206Y-8716293D02*
X3827206Y-8754389D01*
X3827206Y-8754389D02*
X3836729Y-8773436D01*
X3836729Y-8773436D02*
X3846253Y-8782960D01*
X3846253Y-8782960D02*
X3865301Y-8792484D01*
X3865301Y-8792484D02*
X3903396Y-8792484D01*
X3903396Y-8792484D02*
X3922444Y-8782960D01*
X3922444Y-8782960D02*
X3931968Y-8773436D01*
X3931968Y-8773436D02*
X3941491Y-8754389D01*
X3941491Y-8754389D02*
X3941491Y-8716293D01*
X3941491Y-8716293D02*
X3931968Y-8697246D01*
X3931968Y-8697246D02*
X3922444Y-8687722D01*
X3922444Y-8687722D02*
X3903396Y-8678198D01*
X4179587Y-8792484D02*
X4179587Y-8592484D01*
X4265301Y-8792484D02*
X4265301Y-8687722D01*
X4265301Y-8687722D02*
X4255777Y-8668674D01*
X4255777Y-8668674D02*
X4236730Y-8659150D01*
X4236730Y-8659150D02*
X4208158Y-8659150D01*
X4208158Y-8659150D02*
X4189110Y-8668674D01*
X4189110Y-8668674D02*
X4179587Y-8678198D01*
X4389111Y-8792484D02*
X4370063Y-8782960D01*
X4370063Y-8782960D02*
X4360539Y-8773436D01*
X4360539Y-8773436D02*
X4351015Y-8754389D01*
X4351015Y-8754389D02*
X4351015Y-8697246D01*
X4351015Y-8697246D02*
X4360539Y-8678198D01*
X4360539Y-8678198D02*
X4370063Y-8668674D01*
X4370063Y-8668674D02*
X4389111Y-8659150D01*
X4389111Y-8659150D02*
X4417682Y-8659150D01*
X4417682Y-8659150D02*
X4436730Y-8668674D01*
X4436730Y-8668674D02*
X4446253Y-8678198D01*
X4446253Y-8678198D02*
X4455777Y-8697246D01*
X4455777Y-8697246D02*
X4455777Y-8754389D01*
X4455777Y-8754389D02*
X4446253Y-8773436D01*
X4446253Y-8773436D02*
X4436730Y-8782960D01*
X4436730Y-8782960D02*
X4417682Y-8792484D01*
X4417682Y-8792484D02*
X4389111Y-8792484D01*
X4570063Y-8792484D02*
X4551015Y-8782960D01*
X4551015Y-8782960D02*
X4541492Y-8763912D01*
X4541492Y-8763912D02*
X4541492Y-8592484D01*
X4722444Y-8782960D02*
X4703396Y-8792484D01*
X4703396Y-8792484D02*
X4665301Y-8792484D01*
X4665301Y-8792484D02*
X4646253Y-8782960D01*
X4646253Y-8782960D02*
X4636730Y-8763912D01*
X4636730Y-8763912D02*
X4636730Y-8687722D01*
X4636730Y-8687722D02*
X4646253Y-8668674D01*
X4646253Y-8668674D02*
X4665301Y-8659150D01*
X4665301Y-8659150D02*
X4703396Y-8659150D01*
X4703396Y-8659150D02*
X4722444Y-8668674D01*
X4722444Y-8668674D02*
X4731968Y-8687722D01*
X4731968Y-8687722D02*
X4731968Y-8706770D01*
X4731968Y-8706770D02*
X4636730Y-8725817D01*
X4808158Y-8782960D02*
X4827206Y-8792484D01*
X4827206Y-8792484D02*
X4865301Y-8792484D01*
X4865301Y-8792484D02*
X4884349Y-8782960D01*
X4884349Y-8782960D02*
X4893873Y-8763912D01*
X4893873Y-8763912D02*
X4893873Y-8754389D01*
X4893873Y-8754389D02*
X4884349Y-8735341D01*
X4884349Y-8735341D02*
X4865301Y-8725817D01*
X4865301Y-8725817D02*
X4836730Y-8725817D01*
X4836730Y-8725817D02*
X4817682Y-8716293D01*
X4817682Y-8716293D02*
X4808158Y-8697246D01*
X4808158Y-8697246D02*
X4808158Y-8687722D01*
X4808158Y-8687722D02*
X4817682Y-8668674D01*
X4817682Y-8668674D02*
X4836730Y-8659150D01*
X4836730Y-8659150D02*
X4865301Y-8659150D01*
X4865301Y-8659150D02*
X4884349Y-8668674D01*
X4960539Y-8868674D02*
X4970063Y-8859150D01*
X4970063Y-8859150D02*
X4989111Y-8830579D01*
X4989111Y-8830579D02*
X4998634Y-8811531D01*
X4998634Y-8811531D02*
X5008158Y-8782960D01*
X5008158Y-8782960D02*
X5017682Y-8735341D01*
X5017682Y-8735341D02*
X5017682Y-8697246D01*
X5017682Y-8697246D02*
X5008158Y-8649627D01*
X5008158Y-8649627D02*
X4998634Y-8621055D01*
X4998634Y-8621055D02*
X4989111Y-8602008D01*
X4989111Y-8602008D02*
X4970063Y-8573436D01*
X4970063Y-8573436D02*
X4960539Y-8563912D01*
X-205000Y-8865000D02*
X-5000Y-9065000D01*
X-5000Y-8865000D02*
X-205000Y-9065000D01*
X-5000Y-8965000D02*
G75*
G02*
X-205000Y-8965000I-100000J0D01*
G01*
X-205000Y-8965000D02*
G75*
G02*
X-5000Y-8965000I100000J0D01*
G01*
X246253Y-8875531D02*
X255777Y-8866008D01*
X255777Y-8866008D02*
X274824Y-8856484D01*
X274824Y-8856484D02*
X322444Y-8856484D01*
X322444Y-8856484D02*
X341491Y-8866008D01*
X341491Y-8866008D02*
X351015Y-8875531D01*
X351015Y-8875531D02*
X360539Y-8894579D01*
X360539Y-8894579D02*
X360539Y-8913627D01*
X360539Y-8913627D02*
X351015Y-8942198D01*
X351015Y-8942198D02*
X236729Y-9056484D01*
X236729Y-9056484D02*
X360539Y-9056484D01*
X446253Y-9037436D02*
X455777Y-9046960D01*
X455777Y-9046960D02*
X446253Y-9056484D01*
X446253Y-9056484D02*
X436729Y-9046960D01*
X436729Y-9046960D02*
X446253Y-9037436D01*
X446253Y-9037436D02*
X446253Y-9056484D01*
X522443Y-8856484D02*
X655777Y-8856484D01*
X655777Y-8856484D02*
X570063Y-9056484D01*
X770062Y-8856484D02*
X789110Y-8856484D01*
X789110Y-8856484D02*
X808158Y-8866008D01*
X808158Y-8866008D02*
X817682Y-8875531D01*
X817682Y-8875531D02*
X827205Y-8894579D01*
X827205Y-8894579D02*
X836729Y-8932674D01*
X836729Y-8932674D02*
X836729Y-8980293D01*
X836729Y-8980293D02*
X827205Y-9018389D01*
X827205Y-9018389D02*
X817682Y-9037436D01*
X817682Y-9037436D02*
X808158Y-9046960D01*
X808158Y-9046960D02*
X789110Y-9056484D01*
X789110Y-9056484D02*
X770062Y-9056484D01*
X770062Y-9056484D02*
X751015Y-9046960D01*
X751015Y-9046960D02*
X741491Y-9037436D01*
X741491Y-9037436D02*
X731967Y-9018389D01*
X731967Y-9018389D02*
X722443Y-8980293D01*
X722443Y-8980293D02*
X722443Y-8932674D01*
X722443Y-8932674D02*
X731967Y-8894579D01*
X731967Y-8894579D02*
X741491Y-8875531D01*
X741491Y-8875531D02*
X751015Y-8866008D01*
X751015Y-8866008D02*
X770062Y-8856484D01*
X960539Y-8856484D02*
X979586Y-8856484D01*
X979586Y-8856484D02*
X998634Y-8866008D01*
X998634Y-8866008D02*
X1008158Y-8875531D01*
X1008158Y-8875531D02*
X1017682Y-8894579D01*
X1017682Y-8894579D02*
X1027205Y-8932674D01*
X1027205Y-8932674D02*
X1027205Y-8980293D01*
X1027205Y-8980293D02*
X1017682Y-9018389D01*
X1017682Y-9018389D02*
X1008158Y-9037436D01*
X1008158Y-9037436D02*
X998634Y-9046960D01*
X998634Y-9046960D02*
X979586Y-9056484D01*
X979586Y-9056484D02*
X960539Y-9056484D01*
X960539Y-9056484D02*
X941491Y-9046960D01*
X941491Y-9046960D02*
X931967Y-9037436D01*
X931967Y-9037436D02*
X922443Y-9018389D01*
X922443Y-9018389D02*
X912920Y-8980293D01*
X912920Y-8980293D02*
X912920Y-8932674D01*
X912920Y-8932674D02*
X922443Y-8894579D01*
X922443Y-8894579D02*
X931967Y-8875531D01*
X931967Y-8875531D02*
X941491Y-8866008D01*
X941491Y-8866008D02*
X960539Y-8856484D01*
X1112920Y-9056484D02*
X1112920Y-8923150D01*
X1112920Y-8942198D02*
X1122444Y-8932674D01*
X1122444Y-8932674D02*
X1141491Y-8923150D01*
X1141491Y-8923150D02*
X1170063Y-8923150D01*
X1170063Y-8923150D02*
X1189110Y-8932674D01*
X1189110Y-8932674D02*
X1198634Y-8951722D01*
X1198634Y-8951722D02*
X1198634Y-9056484D01*
X1198634Y-8951722D02*
X1208158Y-8932674D01*
X1208158Y-8932674D02*
X1227205Y-8923150D01*
X1227205Y-8923150D02*
X1255777Y-8923150D01*
X1255777Y-8923150D02*
X1274825Y-8932674D01*
X1274825Y-8932674D02*
X1284348Y-8951722D01*
X1284348Y-8951722D02*
X1284348Y-9056484D01*
X1379586Y-9056484D02*
X1379586Y-8923150D01*
X1379586Y-8942198D02*
X1389110Y-8932674D01*
X1389110Y-8932674D02*
X1408158Y-8923150D01*
X1408158Y-8923150D02*
X1436729Y-8923150D01*
X1436729Y-8923150D02*
X1455777Y-8932674D01*
X1455777Y-8932674D02*
X1465301Y-8951722D01*
X1465301Y-8951722D02*
X1465301Y-9056484D01*
X1465301Y-8951722D02*
X1474824Y-8932674D01*
X1474824Y-8932674D02*
X1493872Y-8923150D01*
X1493872Y-8923150D02*
X1522443Y-8923150D01*
X1522443Y-8923150D02*
X1541491Y-8932674D01*
X1541491Y-8932674D02*
X1551015Y-8951722D01*
X1551015Y-8951722D02*
X1551015Y-9056484D01*
X1941491Y-8846960D02*
X1770063Y-9104103D01*
X2198634Y-8856484D02*
X2217682Y-8856484D01*
X2217682Y-8856484D02*
X2236729Y-8866008D01*
X2236729Y-8866008D02*
X2246253Y-8875531D01*
X2246253Y-8875531D02*
X2255777Y-8894579D01*
X2255777Y-8894579D02*
X2265301Y-8932674D01*
X2265301Y-8932674D02*
X2265301Y-8980293D01*
X2265301Y-8980293D02*
X2255777Y-9018389D01*
X2255777Y-9018389D02*
X2246253Y-9037436D01*
X2246253Y-9037436D02*
X2236729Y-9046960D01*
X2236729Y-9046960D02*
X2217682Y-9056484D01*
X2217682Y-9056484D02*
X2198634Y-9056484D01*
X2198634Y-9056484D02*
X2179587Y-9046960D01*
X2179587Y-9046960D02*
X2170063Y-9037436D01*
X2170063Y-9037436D02*
X2160539Y-9018389D01*
X2160539Y-9018389D02*
X2151015Y-8980293D01*
X2151015Y-8980293D02*
X2151015Y-8932674D01*
X2151015Y-8932674D02*
X2160539Y-8894579D01*
X2160539Y-8894579D02*
X2170063Y-8875531D01*
X2170063Y-8875531D02*
X2179587Y-8866008D01*
X2179587Y-8866008D02*
X2198634Y-8856484D01*
X2351015Y-9037436D02*
X2360539Y-9046960D01*
X2360539Y-9046960D02*
X2351015Y-9056484D01*
X2351015Y-9056484D02*
X2341491Y-9046960D01*
X2341491Y-9046960D02*
X2351015Y-9037436D01*
X2351015Y-9037436D02*
X2351015Y-9056484D01*
X2551015Y-9056484D02*
X2436729Y-9056484D01*
X2493872Y-9056484D02*
X2493872Y-8856484D01*
X2493872Y-8856484D02*
X2474825Y-8885055D01*
X2474825Y-8885055D02*
X2455777Y-8904103D01*
X2455777Y-8904103D02*
X2436729Y-8913627D01*
X2674825Y-8856484D02*
X2693872Y-8856484D01*
X2693872Y-8856484D02*
X2712920Y-8866008D01*
X2712920Y-8866008D02*
X2722444Y-8875531D01*
X2722444Y-8875531D02*
X2731968Y-8894579D01*
X2731968Y-8894579D02*
X2741491Y-8932674D01*
X2741491Y-8932674D02*
X2741491Y-8980293D01*
X2741491Y-8980293D02*
X2731968Y-9018389D01*
X2731968Y-9018389D02*
X2722444Y-9037436D01*
X2722444Y-9037436D02*
X2712920Y-9046960D01*
X2712920Y-9046960D02*
X2693872Y-9056484D01*
X2693872Y-9056484D02*
X2674825Y-9056484D01*
X2674825Y-9056484D02*
X2655777Y-9046960D01*
X2655777Y-9046960D02*
X2646253Y-9037436D01*
X2646253Y-9037436D02*
X2636729Y-9018389D01*
X2636729Y-9018389D02*
X2627206Y-8980293D01*
X2627206Y-8980293D02*
X2627206Y-8932674D01*
X2627206Y-8932674D02*
X2636729Y-8894579D01*
X2636729Y-8894579D02*
X2646253Y-8875531D01*
X2646253Y-8875531D02*
X2655777Y-8866008D01*
X2655777Y-8866008D02*
X2674825Y-8856484D01*
X2912920Y-8856484D02*
X2874825Y-8856484D01*
X2874825Y-8856484D02*
X2855777Y-8866008D01*
X2855777Y-8866008D02*
X2846253Y-8875531D01*
X2846253Y-8875531D02*
X2827206Y-8904103D01*
X2827206Y-8904103D02*
X2817682Y-8942198D01*
X2817682Y-8942198D02*
X2817682Y-9018389D01*
X2817682Y-9018389D02*
X2827206Y-9037436D01*
X2827206Y-9037436D02*
X2836729Y-9046960D01*
X2836729Y-9046960D02*
X2855777Y-9056484D01*
X2855777Y-9056484D02*
X2893872Y-9056484D01*
X2893872Y-9056484D02*
X2912920Y-9046960D01*
X2912920Y-9046960D02*
X2922444Y-9037436D01*
X2922444Y-9037436D02*
X2931967Y-9018389D01*
X2931967Y-9018389D02*
X2931967Y-8970770D01*
X2931967Y-8970770D02*
X2922444Y-8951722D01*
X2922444Y-8951722D02*
X2912920Y-8942198D01*
X2912920Y-8942198D02*
X2893872Y-8932674D01*
X2893872Y-8932674D02*
X2855777Y-8932674D01*
X2855777Y-8932674D02*
X2836729Y-8942198D01*
X2836729Y-8942198D02*
X2827206Y-8951722D01*
X2827206Y-8951722D02*
X2817682Y-8970770D01*
X2998634Y-8856484D02*
X3122444Y-8856484D01*
X3122444Y-8856484D02*
X3055777Y-8932674D01*
X3055777Y-8932674D02*
X3084348Y-8932674D01*
X3084348Y-8932674D02*
X3103396Y-8942198D01*
X3103396Y-8942198D02*
X3112920Y-8951722D01*
X3112920Y-8951722D02*
X3122444Y-8970770D01*
X3122444Y-8970770D02*
X3122444Y-9018389D01*
X3122444Y-9018389D02*
X3112920Y-9037436D01*
X3112920Y-9037436D02*
X3103396Y-9046960D01*
X3103396Y-9046960D02*
X3084348Y-9056484D01*
X3084348Y-9056484D02*
X3027206Y-9056484D01*
X3027206Y-9056484D02*
X3008158Y-9046960D01*
X3008158Y-9046960D02*
X2998634Y-9037436D01*
X3198634Y-8856484D02*
X3198634Y-8894579D01*
X3274825Y-8856484D02*
X3274825Y-8894579D01*
X3570063Y-9132674D02*
X3560539Y-9123150D01*
X3560539Y-9123150D02*
X3541491Y-9094579D01*
X3541491Y-9094579D02*
X3531968Y-9075531D01*
X3531968Y-9075531D02*
X3522444Y-9046960D01*
X3522444Y-9046960D02*
X3512920Y-8999341D01*
X3512920Y-8999341D02*
X3512920Y-8961246D01*
X3512920Y-8961246D02*
X3522444Y-8913627D01*
X3522444Y-8913627D02*
X3531968Y-8885055D01*
X3531968Y-8885055D02*
X3541491Y-8866008D01*
X3541491Y-8866008D02*
X3560539Y-8837436D01*
X3560539Y-8837436D02*
X3570063Y-8827912D01*
X3731968Y-8923150D02*
X3731968Y-9056484D01*
X3684348Y-8846960D02*
X3636729Y-8989817D01*
X3636729Y-8989817D02*
X3760539Y-8989817D01*
X3989110Y-9056484D02*
X3989110Y-8856484D01*
X4074825Y-9056484D02*
X4074825Y-8951722D01*
X4074825Y-8951722D02*
X4065301Y-8932674D01*
X4065301Y-8932674D02*
X4046253Y-8923150D01*
X4046253Y-8923150D02*
X4017682Y-8923150D01*
X4017682Y-8923150D02*
X3998634Y-8932674D01*
X3998634Y-8932674D02*
X3989110Y-8942198D01*
X4198634Y-9056484D02*
X4179587Y-9046960D01*
X4179587Y-9046960D02*
X4170063Y-9037436D01*
X4170063Y-9037436D02*
X4160539Y-9018389D01*
X4160539Y-9018389D02*
X4160539Y-8961246D01*
X4160539Y-8961246D02*
X4170063Y-8942198D01*
X4170063Y-8942198D02*
X4179587Y-8932674D01*
X4179587Y-8932674D02*
X4198634Y-8923150D01*
X4198634Y-8923150D02*
X4227206Y-8923150D01*
X4227206Y-8923150D02*
X4246253Y-8932674D01*
X4246253Y-8932674D02*
X4255777Y-8942198D01*
X4255777Y-8942198D02*
X4265301Y-8961246D01*
X4265301Y-8961246D02*
X4265301Y-9018389D01*
X4265301Y-9018389D02*
X4255777Y-9037436D01*
X4255777Y-9037436D02*
X4246253Y-9046960D01*
X4246253Y-9046960D02*
X4227206Y-9056484D01*
X4227206Y-9056484D02*
X4198634Y-9056484D01*
X4379587Y-9056484D02*
X4360539Y-9046960D01*
X4360539Y-9046960D02*
X4351015Y-9027912D01*
X4351015Y-9027912D02*
X4351015Y-8856484D01*
X4531968Y-9046960D02*
X4512920Y-9056484D01*
X4512920Y-9056484D02*
X4474825Y-9056484D01*
X4474825Y-9056484D02*
X4455777Y-9046960D01*
X4455777Y-9046960D02*
X4446253Y-9027912D01*
X4446253Y-9027912D02*
X4446253Y-8951722D01*
X4446253Y-8951722D02*
X4455777Y-8932674D01*
X4455777Y-8932674D02*
X4474825Y-8923150D01*
X4474825Y-8923150D02*
X4512920Y-8923150D01*
X4512920Y-8923150D02*
X4531968Y-8932674D01*
X4531968Y-8932674D02*
X4541492Y-8951722D01*
X4541492Y-8951722D02*
X4541492Y-8970770D01*
X4541492Y-8970770D02*
X4446253Y-8989817D01*
X4617682Y-9046960D02*
X4636730Y-9056484D01*
X4636730Y-9056484D02*
X4674825Y-9056484D01*
X4674825Y-9056484D02*
X4693873Y-9046960D01*
X4693873Y-9046960D02*
X4703396Y-9027912D01*
X4703396Y-9027912D02*
X4703396Y-9018389D01*
X4703396Y-9018389D02*
X4693873Y-8999341D01*
X4693873Y-8999341D02*
X4674825Y-8989817D01*
X4674825Y-8989817D02*
X4646253Y-8989817D01*
X4646253Y-8989817D02*
X4627206Y-8980293D01*
X4627206Y-8980293D02*
X4617682Y-8961246D01*
X4617682Y-8961246D02*
X4617682Y-8951722D01*
X4617682Y-8951722D02*
X4627206Y-8932674D01*
X4627206Y-8932674D02*
X4646253Y-8923150D01*
X4646253Y-8923150D02*
X4674825Y-8923150D01*
X4674825Y-8923150D02*
X4693873Y-8932674D01*
X4770063Y-9132674D02*
X4779587Y-9123150D01*
X4779587Y-9123150D02*
X4798634Y-9094579D01*
X4798634Y-9094579D02*
X4808158Y-9075531D01*
X4808158Y-9075531D02*
X4817682Y-9046960D01*
X4817682Y-9046960D02*
X4827206Y-8999341D01*
X4827206Y-8999341D02*
X4827206Y-8961246D01*
X4827206Y-8961246D02*
X4817682Y-8913627D01*
X4817682Y-8913627D02*
X4808158Y-8885055D01*
X4808158Y-8885055D02*
X4798634Y-8866008D01*
X4798634Y-8866008D02*
X4779587Y-8837436D01*
X4779587Y-8837436D02*
X4770063Y-8827912D01*
X5131968Y-9132674D02*
X5122444Y-9123150D01*
X5122444Y-9123150D02*
X5103396Y-9094579D01*
X5103396Y-9094579D02*
X5093873Y-9075531D01*
X5093873Y-9075531D02*
X5084349Y-9046960D01*
X5084349Y-9046960D02*
X5074825Y-8999341D01*
X5074825Y-8999341D02*
X5074825Y-8961246D01*
X5074825Y-8961246D02*
X5084349Y-8913627D01*
X5084349Y-8913627D02*
X5093873Y-8885055D01*
X5093873Y-8885055D02*
X5103396Y-8866008D01*
X5103396Y-8866008D02*
X5122444Y-8837436D01*
X5122444Y-8837436D02*
X5131968Y-8827912D01*
X5208158Y-8923150D02*
X5208158Y-9056484D01*
X5208158Y-8942198D02*
X5217682Y-8932674D01*
X5217682Y-8932674D02*
X5236730Y-8923150D01*
X5236730Y-8923150D02*
X5265301Y-8923150D01*
X5265301Y-8923150D02*
X5284349Y-8932674D01*
X5284349Y-8932674D02*
X5293873Y-8951722D01*
X5293873Y-8951722D02*
X5293873Y-9056484D01*
X5417682Y-9056484D02*
X5398634Y-9046960D01*
X5398634Y-9046960D02*
X5389111Y-9037436D01*
X5389111Y-9037436D02*
X5379587Y-9018389D01*
X5379587Y-9018389D02*
X5379587Y-8961246D01*
X5379587Y-8961246D02*
X5389111Y-8942198D01*
X5389111Y-8942198D02*
X5398634Y-8932674D01*
X5398634Y-8932674D02*
X5417682Y-8923150D01*
X5417682Y-8923150D02*
X5446254Y-8923150D01*
X5446254Y-8923150D02*
X5465301Y-8932674D01*
X5465301Y-8932674D02*
X5474825Y-8942198D01*
X5474825Y-8942198D02*
X5484349Y-8961246D01*
X5484349Y-8961246D02*
X5484349Y-9018389D01*
X5484349Y-9018389D02*
X5474825Y-9037436D01*
X5474825Y-9037436D02*
X5465301Y-9046960D01*
X5465301Y-9046960D02*
X5446254Y-9056484D01*
X5446254Y-9056484D02*
X5417682Y-9056484D01*
X5541492Y-8923150D02*
X5617682Y-8923150D01*
X5570063Y-8856484D02*
X5570063Y-9027912D01*
X5570063Y-9027912D02*
X5579587Y-9046960D01*
X5579587Y-9046960D02*
X5598634Y-9056484D01*
X5598634Y-9056484D02*
X5617682Y-9056484D01*
X5836730Y-8923150D02*
X5836730Y-9123150D01*
X5836730Y-8932674D02*
X5855777Y-8923150D01*
X5855777Y-8923150D02*
X5893873Y-8923150D01*
X5893873Y-8923150D02*
X5912920Y-8932674D01*
X5912920Y-8932674D02*
X5922444Y-8942198D01*
X5922444Y-8942198D02*
X5931968Y-8961246D01*
X5931968Y-8961246D02*
X5931968Y-9018389D01*
X5931968Y-9018389D02*
X5922444Y-9037436D01*
X5922444Y-9037436D02*
X5912920Y-9046960D01*
X5912920Y-9046960D02*
X5893873Y-9056484D01*
X5893873Y-9056484D02*
X5855777Y-9056484D01*
X5855777Y-9056484D02*
X5836730Y-9046960D01*
X6046253Y-9056484D02*
X6027206Y-9046960D01*
X6027206Y-9046960D02*
X6017682Y-9027912D01*
X6017682Y-9027912D02*
X6017682Y-8856484D01*
X6208158Y-9056484D02*
X6208158Y-8951722D01*
X6208158Y-8951722D02*
X6198634Y-8932674D01*
X6198634Y-8932674D02*
X6179587Y-8923150D01*
X6179587Y-8923150D02*
X6141492Y-8923150D01*
X6141492Y-8923150D02*
X6122444Y-8932674D01*
X6208158Y-9046960D02*
X6189111Y-9056484D01*
X6189111Y-9056484D02*
X6141492Y-9056484D01*
X6141492Y-9056484D02*
X6122444Y-9046960D01*
X6122444Y-9046960D02*
X6112920Y-9027912D01*
X6112920Y-9027912D02*
X6112920Y-9008865D01*
X6112920Y-9008865D02*
X6122444Y-8989817D01*
X6122444Y-8989817D02*
X6141492Y-8980293D01*
X6141492Y-8980293D02*
X6189111Y-8980293D01*
X6189111Y-8980293D02*
X6208158Y-8970770D01*
X6274825Y-8923150D02*
X6351015Y-8923150D01*
X6303396Y-8856484D02*
X6303396Y-9027912D01*
X6303396Y-9027912D02*
X6312920Y-9046960D01*
X6312920Y-9046960D02*
X6331968Y-9056484D01*
X6331968Y-9056484D02*
X6351015Y-9056484D01*
X6493873Y-9046960D02*
X6474825Y-9056484D01*
X6474825Y-9056484D02*
X6436730Y-9056484D01*
X6436730Y-9056484D02*
X6417682Y-9046960D01*
X6417682Y-9046960D02*
X6408158Y-9027912D01*
X6408158Y-9027912D02*
X6408158Y-8951722D01*
X6408158Y-8951722D02*
X6417682Y-8932674D01*
X6417682Y-8932674D02*
X6436730Y-8923150D01*
X6436730Y-8923150D02*
X6474825Y-8923150D01*
X6474825Y-8923150D02*
X6493873Y-8932674D01*
X6493873Y-8932674D02*
X6503396Y-8951722D01*
X6503396Y-8951722D02*
X6503396Y-8970770D01*
X6503396Y-8970770D02*
X6408158Y-8989817D01*
X6674825Y-9056484D02*
X6674825Y-8856484D01*
X6674825Y-9046960D02*
X6655777Y-9056484D01*
X6655777Y-9056484D02*
X6617682Y-9056484D01*
X6617682Y-9056484D02*
X6598634Y-9046960D01*
X6598634Y-9046960D02*
X6589111Y-9037436D01*
X6589111Y-9037436D02*
X6579587Y-9018389D01*
X6579587Y-9018389D02*
X6579587Y-8961246D01*
X6579587Y-8961246D02*
X6589111Y-8942198D01*
X6589111Y-8942198D02*
X6598634Y-8932674D01*
X6598634Y-8932674D02*
X6617682Y-8923150D01*
X6617682Y-8923150D02*
X6655777Y-8923150D01*
X6655777Y-8923150D02*
X6674825Y-8932674D01*
X6751015Y-9132674D02*
X6760539Y-9123150D01*
X6760539Y-9123150D02*
X6779587Y-9094579D01*
X6779587Y-9094579D02*
X6789111Y-9075531D01*
X6789111Y-9075531D02*
X6798634Y-9046960D01*
X6798634Y-9046960D02*
X6808158Y-8999341D01*
X6808158Y-8999341D02*
X6808158Y-8961246D01*
X6808158Y-8961246D02*
X6798634Y-8913627D01*
X6798634Y-8913627D02*
X6789111Y-8885055D01*
X6789111Y-8885055D02*
X6779587Y-8866008D01*
X6779587Y-8866008D02*
X6760539Y-8837436D01*
X6760539Y-8837436D02*
X6751015Y-8827912D01*
X-205000Y-9185000D02*
X-5000Y-9385000D01*
X-5000Y-9185000D02*
X-205000Y-9385000D01*
X-105000Y-9185000D02*
X-105000Y-9385000D01*
X-205000Y-9285000D02*
X-5000Y-9285000D01*
X236729Y-9176484D02*
X360539Y-9176484D01*
X360539Y-9176484D02*
X293872Y-9252674D01*
X293872Y-9252674D02*
X322444Y-9252674D01*
X322444Y-9252674D02*
X341491Y-9262198D01*
X341491Y-9262198D02*
X351015Y-9271722D01*
X351015Y-9271722D02*
X360539Y-9290770D01*
X360539Y-9290770D02*
X360539Y-9338389D01*
X360539Y-9338389D02*
X351015Y-9357436D01*
X351015Y-9357436D02*
X341491Y-9366960D01*
X341491Y-9366960D02*
X322444Y-9376484D01*
X322444Y-9376484D02*
X265301Y-9376484D01*
X265301Y-9376484D02*
X246253Y-9366960D01*
X246253Y-9366960D02*
X236729Y-9357436D01*
X446253Y-9357436D02*
X455777Y-9366960D01*
X455777Y-9366960D02*
X446253Y-9376484D01*
X446253Y-9376484D02*
X436729Y-9366960D01*
X436729Y-9366960D02*
X446253Y-9357436D01*
X446253Y-9357436D02*
X446253Y-9376484D01*
X531967Y-9195531D02*
X541491Y-9186008D01*
X541491Y-9186008D02*
X560539Y-9176484D01*
X560539Y-9176484D02*
X608158Y-9176484D01*
X608158Y-9176484D02*
X627205Y-9186008D01*
X627205Y-9186008D02*
X636729Y-9195531D01*
X636729Y-9195531D02*
X646253Y-9214579D01*
X646253Y-9214579D02*
X646253Y-9233627D01*
X646253Y-9233627D02*
X636729Y-9262198D01*
X636729Y-9262198D02*
X522443Y-9376484D01*
X522443Y-9376484D02*
X646253Y-9376484D01*
X770062Y-9176484D02*
X789110Y-9176484D01*
X789110Y-9176484D02*
X808158Y-9186008D01*
X808158Y-9186008D02*
X817682Y-9195531D01*
X817682Y-9195531D02*
X827205Y-9214579D01*
X827205Y-9214579D02*
X836729Y-9252674D01*
X836729Y-9252674D02*
X836729Y-9300293D01*
X836729Y-9300293D02*
X827205Y-9338389D01*
X827205Y-9338389D02*
X817682Y-9357436D01*
X817682Y-9357436D02*
X808158Y-9366960D01*
X808158Y-9366960D02*
X789110Y-9376484D01*
X789110Y-9376484D02*
X770062Y-9376484D01*
X770062Y-9376484D02*
X751015Y-9366960D01*
X751015Y-9366960D02*
X741491Y-9357436D01*
X741491Y-9357436D02*
X731967Y-9338389D01*
X731967Y-9338389D02*
X722443Y-9300293D01*
X722443Y-9300293D02*
X722443Y-9252674D01*
X722443Y-9252674D02*
X731967Y-9214579D01*
X731967Y-9214579D02*
X741491Y-9195531D01*
X741491Y-9195531D02*
X751015Y-9186008D01*
X751015Y-9186008D02*
X770062Y-9176484D01*
X960539Y-9176484D02*
X979586Y-9176484D01*
X979586Y-9176484D02*
X998634Y-9186008D01*
X998634Y-9186008D02*
X1008158Y-9195531D01*
X1008158Y-9195531D02*
X1017682Y-9214579D01*
X1017682Y-9214579D02*
X1027205Y-9252674D01*
X1027205Y-9252674D02*
X1027205Y-9300293D01*
X1027205Y-9300293D02*
X1017682Y-9338389D01*
X1017682Y-9338389D02*
X1008158Y-9357436D01*
X1008158Y-9357436D02*
X998634Y-9366960D01*
X998634Y-9366960D02*
X979586Y-9376484D01*
X979586Y-9376484D02*
X960539Y-9376484D01*
X960539Y-9376484D02*
X941491Y-9366960D01*
X941491Y-9366960D02*
X931967Y-9357436D01*
X931967Y-9357436D02*
X922443Y-9338389D01*
X922443Y-9338389D02*
X912920Y-9300293D01*
X912920Y-9300293D02*
X912920Y-9252674D01*
X912920Y-9252674D02*
X922443Y-9214579D01*
X922443Y-9214579D02*
X931967Y-9195531D01*
X931967Y-9195531D02*
X941491Y-9186008D01*
X941491Y-9186008D02*
X960539Y-9176484D01*
X1112920Y-9376484D02*
X1112920Y-9243150D01*
X1112920Y-9262198D02*
X1122444Y-9252674D01*
X1122444Y-9252674D02*
X1141491Y-9243150D01*
X1141491Y-9243150D02*
X1170063Y-9243150D01*
X1170063Y-9243150D02*
X1189110Y-9252674D01*
X1189110Y-9252674D02*
X1198634Y-9271722D01*
X1198634Y-9271722D02*
X1198634Y-9376484D01*
X1198634Y-9271722D02*
X1208158Y-9252674D01*
X1208158Y-9252674D02*
X1227205Y-9243150D01*
X1227205Y-9243150D02*
X1255777Y-9243150D01*
X1255777Y-9243150D02*
X1274825Y-9252674D01*
X1274825Y-9252674D02*
X1284348Y-9271722D01*
X1284348Y-9271722D02*
X1284348Y-9376484D01*
X1379586Y-9376484D02*
X1379586Y-9243150D01*
X1379586Y-9262198D02*
X1389110Y-9252674D01*
X1389110Y-9252674D02*
X1408158Y-9243150D01*
X1408158Y-9243150D02*
X1436729Y-9243150D01*
X1436729Y-9243150D02*
X1455777Y-9252674D01*
X1455777Y-9252674D02*
X1465301Y-9271722D01*
X1465301Y-9271722D02*
X1465301Y-9376484D01*
X1465301Y-9271722D02*
X1474824Y-9252674D01*
X1474824Y-9252674D02*
X1493872Y-9243150D01*
X1493872Y-9243150D02*
X1522443Y-9243150D01*
X1522443Y-9243150D02*
X1541491Y-9252674D01*
X1541491Y-9252674D02*
X1551015Y-9271722D01*
X1551015Y-9271722D02*
X1551015Y-9376484D01*
X1941491Y-9166960D02*
X1770063Y-9424103D01*
X2198634Y-9176484D02*
X2217682Y-9176484D01*
X2217682Y-9176484D02*
X2236729Y-9186008D01*
X2236729Y-9186008D02*
X2246253Y-9195531D01*
X2246253Y-9195531D02*
X2255777Y-9214579D01*
X2255777Y-9214579D02*
X2265301Y-9252674D01*
X2265301Y-9252674D02*
X2265301Y-9300293D01*
X2265301Y-9300293D02*
X2255777Y-9338389D01*
X2255777Y-9338389D02*
X2246253Y-9357436D01*
X2246253Y-9357436D02*
X2236729Y-9366960D01*
X2236729Y-9366960D02*
X2217682Y-9376484D01*
X2217682Y-9376484D02*
X2198634Y-9376484D01*
X2198634Y-9376484D02*
X2179587Y-9366960D01*
X2179587Y-9366960D02*
X2170063Y-9357436D01*
X2170063Y-9357436D02*
X2160539Y-9338389D01*
X2160539Y-9338389D02*
X2151015Y-9300293D01*
X2151015Y-9300293D02*
X2151015Y-9252674D01*
X2151015Y-9252674D02*
X2160539Y-9214579D01*
X2160539Y-9214579D02*
X2170063Y-9195531D01*
X2170063Y-9195531D02*
X2179587Y-9186008D01*
X2179587Y-9186008D02*
X2198634Y-9176484D01*
X2351015Y-9357436D02*
X2360539Y-9366960D01*
X2360539Y-9366960D02*
X2351015Y-9376484D01*
X2351015Y-9376484D02*
X2341491Y-9366960D01*
X2341491Y-9366960D02*
X2351015Y-9357436D01*
X2351015Y-9357436D02*
X2351015Y-9376484D01*
X2551015Y-9376484D02*
X2436729Y-9376484D01*
X2493872Y-9376484D02*
X2493872Y-9176484D01*
X2493872Y-9176484D02*
X2474825Y-9205055D01*
X2474825Y-9205055D02*
X2455777Y-9224103D01*
X2455777Y-9224103D02*
X2436729Y-9233627D01*
X2627206Y-9195531D02*
X2636729Y-9186008D01*
X2636729Y-9186008D02*
X2655777Y-9176484D01*
X2655777Y-9176484D02*
X2703396Y-9176484D01*
X2703396Y-9176484D02*
X2722444Y-9186008D01*
X2722444Y-9186008D02*
X2731968Y-9195531D01*
X2731968Y-9195531D02*
X2741491Y-9214579D01*
X2741491Y-9214579D02*
X2741491Y-9233627D01*
X2741491Y-9233627D02*
X2731968Y-9262198D01*
X2731968Y-9262198D02*
X2617682Y-9376484D01*
X2617682Y-9376484D02*
X2741491Y-9376484D01*
X2912920Y-9176484D02*
X2874825Y-9176484D01*
X2874825Y-9176484D02*
X2855777Y-9186008D01*
X2855777Y-9186008D02*
X2846253Y-9195531D01*
X2846253Y-9195531D02*
X2827206Y-9224103D01*
X2827206Y-9224103D02*
X2817682Y-9262198D01*
X2817682Y-9262198D02*
X2817682Y-9338389D01*
X2817682Y-9338389D02*
X2827206Y-9357436D01*
X2827206Y-9357436D02*
X2836729Y-9366960D01*
X2836729Y-9366960D02*
X2855777Y-9376484D01*
X2855777Y-9376484D02*
X2893872Y-9376484D01*
X2893872Y-9376484D02*
X2912920Y-9366960D01*
X2912920Y-9366960D02*
X2922444Y-9357436D01*
X2922444Y-9357436D02*
X2931967Y-9338389D01*
X2931967Y-9338389D02*
X2931967Y-9290770D01*
X2931967Y-9290770D02*
X2922444Y-9271722D01*
X2922444Y-9271722D02*
X2912920Y-9262198D01*
X2912920Y-9262198D02*
X2893872Y-9252674D01*
X2893872Y-9252674D02*
X2855777Y-9252674D01*
X2855777Y-9252674D02*
X2836729Y-9262198D01*
X2836729Y-9262198D02*
X2827206Y-9271722D01*
X2827206Y-9271722D02*
X2817682Y-9290770D01*
X3055777Y-9176484D02*
X3074825Y-9176484D01*
X3074825Y-9176484D02*
X3093872Y-9186008D01*
X3093872Y-9186008D02*
X3103396Y-9195531D01*
X3103396Y-9195531D02*
X3112920Y-9214579D01*
X3112920Y-9214579D02*
X3122444Y-9252674D01*
X3122444Y-9252674D02*
X3122444Y-9300293D01*
X3122444Y-9300293D02*
X3112920Y-9338389D01*
X3112920Y-9338389D02*
X3103396Y-9357436D01*
X3103396Y-9357436D02*
X3093872Y-9366960D01*
X3093872Y-9366960D02*
X3074825Y-9376484D01*
X3074825Y-9376484D02*
X3055777Y-9376484D01*
X3055777Y-9376484D02*
X3036729Y-9366960D01*
X3036729Y-9366960D02*
X3027206Y-9357436D01*
X3027206Y-9357436D02*
X3017682Y-9338389D01*
X3017682Y-9338389D02*
X3008158Y-9300293D01*
X3008158Y-9300293D02*
X3008158Y-9252674D01*
X3008158Y-9252674D02*
X3017682Y-9214579D01*
X3017682Y-9214579D02*
X3027206Y-9195531D01*
X3027206Y-9195531D02*
X3036729Y-9186008D01*
X3036729Y-9186008D02*
X3055777Y-9176484D01*
X3198634Y-9176484D02*
X3198634Y-9214579D01*
X3274825Y-9176484D02*
X3274825Y-9214579D01*
X3570063Y-9452674D02*
X3560539Y-9443150D01*
X3560539Y-9443150D02*
X3541491Y-9414579D01*
X3541491Y-9414579D02*
X3531968Y-9395531D01*
X3531968Y-9395531D02*
X3522444Y-9366960D01*
X3522444Y-9366960D02*
X3512920Y-9319341D01*
X3512920Y-9319341D02*
X3512920Y-9281246D01*
X3512920Y-9281246D02*
X3522444Y-9233627D01*
X3522444Y-9233627D02*
X3531968Y-9205055D01*
X3531968Y-9205055D02*
X3541491Y-9186008D01*
X3541491Y-9186008D02*
X3560539Y-9157436D01*
X3560539Y-9157436D02*
X3570063Y-9147912D01*
X3731968Y-9243150D02*
X3731968Y-9376484D01*
X3684348Y-9166960D02*
X3636729Y-9309817D01*
X3636729Y-9309817D02*
X3760539Y-9309817D01*
X3989110Y-9376484D02*
X3989110Y-9176484D01*
X4074825Y-9376484D02*
X4074825Y-9271722D01*
X4074825Y-9271722D02*
X4065301Y-9252674D01*
X4065301Y-9252674D02*
X4046253Y-9243150D01*
X4046253Y-9243150D02*
X4017682Y-9243150D01*
X4017682Y-9243150D02*
X3998634Y-9252674D01*
X3998634Y-9252674D02*
X3989110Y-9262198D01*
X4198634Y-9376484D02*
X4179587Y-9366960D01*
X4179587Y-9366960D02*
X4170063Y-9357436D01*
X4170063Y-9357436D02*
X4160539Y-9338389D01*
X4160539Y-9338389D02*
X4160539Y-9281246D01*
X4160539Y-9281246D02*
X4170063Y-9262198D01*
X4170063Y-9262198D02*
X4179587Y-9252674D01*
X4179587Y-9252674D02*
X4198634Y-9243150D01*
X4198634Y-9243150D02*
X4227206Y-9243150D01*
X4227206Y-9243150D02*
X4246253Y-9252674D01*
X4246253Y-9252674D02*
X4255777Y-9262198D01*
X4255777Y-9262198D02*
X4265301Y-9281246D01*
X4265301Y-9281246D02*
X4265301Y-9338389D01*
X4265301Y-9338389D02*
X4255777Y-9357436D01*
X4255777Y-9357436D02*
X4246253Y-9366960D01*
X4246253Y-9366960D02*
X4227206Y-9376484D01*
X4227206Y-9376484D02*
X4198634Y-9376484D01*
X4379587Y-9376484D02*
X4360539Y-9366960D01*
X4360539Y-9366960D02*
X4351015Y-9347912D01*
X4351015Y-9347912D02*
X4351015Y-9176484D01*
X4531968Y-9366960D02*
X4512920Y-9376484D01*
X4512920Y-9376484D02*
X4474825Y-9376484D01*
X4474825Y-9376484D02*
X4455777Y-9366960D01*
X4455777Y-9366960D02*
X4446253Y-9347912D01*
X4446253Y-9347912D02*
X4446253Y-9271722D01*
X4446253Y-9271722D02*
X4455777Y-9252674D01*
X4455777Y-9252674D02*
X4474825Y-9243150D01*
X4474825Y-9243150D02*
X4512920Y-9243150D01*
X4512920Y-9243150D02*
X4531968Y-9252674D01*
X4531968Y-9252674D02*
X4541492Y-9271722D01*
X4541492Y-9271722D02*
X4541492Y-9290770D01*
X4541492Y-9290770D02*
X4446253Y-9309817D01*
X4617682Y-9366960D02*
X4636730Y-9376484D01*
X4636730Y-9376484D02*
X4674825Y-9376484D01*
X4674825Y-9376484D02*
X4693873Y-9366960D01*
X4693873Y-9366960D02*
X4703396Y-9347912D01*
X4703396Y-9347912D02*
X4703396Y-9338389D01*
X4703396Y-9338389D02*
X4693873Y-9319341D01*
X4693873Y-9319341D02*
X4674825Y-9309817D01*
X4674825Y-9309817D02*
X4646253Y-9309817D01*
X4646253Y-9309817D02*
X4627206Y-9300293D01*
X4627206Y-9300293D02*
X4617682Y-9281246D01*
X4617682Y-9281246D02*
X4617682Y-9271722D01*
X4617682Y-9271722D02*
X4627206Y-9252674D01*
X4627206Y-9252674D02*
X4646253Y-9243150D01*
X4646253Y-9243150D02*
X4674825Y-9243150D01*
X4674825Y-9243150D02*
X4693873Y-9252674D01*
X4770063Y-9452674D02*
X4779587Y-9443150D01*
X4779587Y-9443150D02*
X4798634Y-9414579D01*
X4798634Y-9414579D02*
X4808158Y-9395531D01*
X4808158Y-9395531D02*
X4817682Y-9366960D01*
X4817682Y-9366960D02*
X4827206Y-9319341D01*
X4827206Y-9319341D02*
X4827206Y-9281246D01*
X4827206Y-9281246D02*
X4817682Y-9233627D01*
X4817682Y-9233627D02*
X4808158Y-9205055D01*
X4808158Y-9205055D02*
X4798634Y-9186008D01*
X4798634Y-9186008D02*
X4779587Y-9157436D01*
X4779587Y-9157436D02*
X4770063Y-9147912D01*
X5131968Y-9452674D02*
X5122444Y-9443150D01*
X5122444Y-9443150D02*
X5103396Y-9414579D01*
X5103396Y-9414579D02*
X5093873Y-9395531D01*
X5093873Y-9395531D02*
X5084349Y-9366960D01*
X5084349Y-9366960D02*
X5074825Y-9319341D01*
X5074825Y-9319341D02*
X5074825Y-9281246D01*
X5074825Y-9281246D02*
X5084349Y-9233627D01*
X5084349Y-9233627D02*
X5093873Y-9205055D01*
X5093873Y-9205055D02*
X5103396Y-9186008D01*
X5103396Y-9186008D02*
X5122444Y-9157436D01*
X5122444Y-9157436D02*
X5131968Y-9147912D01*
X5208158Y-9243150D02*
X5208158Y-9376484D01*
X5208158Y-9262198D02*
X5217682Y-9252674D01*
X5217682Y-9252674D02*
X5236730Y-9243150D01*
X5236730Y-9243150D02*
X5265301Y-9243150D01*
X5265301Y-9243150D02*
X5284349Y-9252674D01*
X5284349Y-9252674D02*
X5293873Y-9271722D01*
X5293873Y-9271722D02*
X5293873Y-9376484D01*
X5417682Y-9376484D02*
X5398634Y-9366960D01*
X5398634Y-9366960D02*
X5389111Y-9357436D01*
X5389111Y-9357436D02*
X5379587Y-9338389D01*
X5379587Y-9338389D02*
X5379587Y-9281246D01*
X5379587Y-9281246D02*
X5389111Y-9262198D01*
X5389111Y-9262198D02*
X5398634Y-9252674D01*
X5398634Y-9252674D02*
X5417682Y-9243150D01*
X5417682Y-9243150D02*
X5446254Y-9243150D01*
X5446254Y-9243150D02*
X5465301Y-9252674D01*
X5465301Y-9252674D02*
X5474825Y-9262198D01*
X5474825Y-9262198D02*
X5484349Y-9281246D01*
X5484349Y-9281246D02*
X5484349Y-9338389D01*
X5484349Y-9338389D02*
X5474825Y-9357436D01*
X5474825Y-9357436D02*
X5465301Y-9366960D01*
X5465301Y-9366960D02*
X5446254Y-9376484D01*
X5446254Y-9376484D02*
X5417682Y-9376484D01*
X5541492Y-9243150D02*
X5617682Y-9243150D01*
X5570063Y-9176484D02*
X5570063Y-9347912D01*
X5570063Y-9347912D02*
X5579587Y-9366960D01*
X5579587Y-9366960D02*
X5598634Y-9376484D01*
X5598634Y-9376484D02*
X5617682Y-9376484D01*
X5836730Y-9243150D02*
X5836730Y-9443150D01*
X5836730Y-9252674D02*
X5855777Y-9243150D01*
X5855777Y-9243150D02*
X5893873Y-9243150D01*
X5893873Y-9243150D02*
X5912920Y-9252674D01*
X5912920Y-9252674D02*
X5922444Y-9262198D01*
X5922444Y-9262198D02*
X5931968Y-9281246D01*
X5931968Y-9281246D02*
X5931968Y-9338389D01*
X5931968Y-9338389D02*
X5922444Y-9357436D01*
X5922444Y-9357436D02*
X5912920Y-9366960D01*
X5912920Y-9366960D02*
X5893873Y-9376484D01*
X5893873Y-9376484D02*
X5855777Y-9376484D01*
X5855777Y-9376484D02*
X5836730Y-9366960D01*
X6046253Y-9376484D02*
X6027206Y-9366960D01*
X6027206Y-9366960D02*
X6017682Y-9347912D01*
X6017682Y-9347912D02*
X6017682Y-9176484D01*
X6208158Y-9376484D02*
X6208158Y-9271722D01*
X6208158Y-9271722D02*
X6198634Y-9252674D01*
X6198634Y-9252674D02*
X6179587Y-9243150D01*
X6179587Y-9243150D02*
X6141492Y-9243150D01*
X6141492Y-9243150D02*
X6122444Y-9252674D01*
X6208158Y-9366960D02*
X6189111Y-9376484D01*
X6189111Y-9376484D02*
X6141492Y-9376484D01*
X6141492Y-9376484D02*
X6122444Y-9366960D01*
X6122444Y-9366960D02*
X6112920Y-9347912D01*
X6112920Y-9347912D02*
X6112920Y-9328865D01*
X6112920Y-9328865D02*
X6122444Y-9309817D01*
X6122444Y-9309817D02*
X6141492Y-9300293D01*
X6141492Y-9300293D02*
X6189111Y-9300293D01*
X6189111Y-9300293D02*
X6208158Y-9290770D01*
X6274825Y-9243150D02*
X6351015Y-9243150D01*
X6303396Y-9176484D02*
X6303396Y-9347912D01*
X6303396Y-9347912D02*
X6312920Y-9366960D01*
X6312920Y-9366960D02*
X6331968Y-9376484D01*
X6331968Y-9376484D02*
X6351015Y-9376484D01*
X6493873Y-9366960D02*
X6474825Y-9376484D01*
X6474825Y-9376484D02*
X6436730Y-9376484D01*
X6436730Y-9376484D02*
X6417682Y-9366960D01*
X6417682Y-9366960D02*
X6408158Y-9347912D01*
X6408158Y-9347912D02*
X6408158Y-9271722D01*
X6408158Y-9271722D02*
X6417682Y-9252674D01*
X6417682Y-9252674D02*
X6436730Y-9243150D01*
X6436730Y-9243150D02*
X6474825Y-9243150D01*
X6474825Y-9243150D02*
X6493873Y-9252674D01*
X6493873Y-9252674D02*
X6503396Y-9271722D01*
X6503396Y-9271722D02*
X6503396Y-9290770D01*
X6503396Y-9290770D02*
X6408158Y-9309817D01*
X6674825Y-9376484D02*
X6674825Y-9176484D01*
X6674825Y-9366960D02*
X6655777Y-9376484D01*
X6655777Y-9376484D02*
X6617682Y-9376484D01*
X6617682Y-9376484D02*
X6598634Y-9366960D01*
X6598634Y-9366960D02*
X6589111Y-9357436D01*
X6589111Y-9357436D02*
X6579587Y-9338389D01*
X6579587Y-9338389D02*
X6579587Y-9281246D01*
X6579587Y-9281246D02*
X6589111Y-9262198D01*
X6589111Y-9262198D02*
X6598634Y-9252674D01*
X6598634Y-9252674D02*
X6617682Y-9243150D01*
X6617682Y-9243150D02*
X6655777Y-9243150D01*
X6655777Y-9243150D02*
X6674825Y-9252674D01*
X6751015Y-9452674D02*
X6760539Y-9443150D01*
X6760539Y-9443150D02*
X6779587Y-9414579D01*
X6779587Y-9414579D02*
X6789111Y-9395531D01*
X6789111Y-9395531D02*
X6798634Y-9366960D01*
X6798634Y-9366960D02*
X6808158Y-9319341D01*
X6808158Y-9319341D02*
X6808158Y-9281246D01*
X6808158Y-9281246D02*
X6798634Y-9233627D01*
X6798634Y-9233627D02*
X6789111Y-9205055D01*
X6789111Y-9205055D02*
X6779587Y-9186008D01*
X6779587Y-9186008D02*
X6760539Y-9157436D01*
X6760539Y-9157436D02*
X6751015Y-9147912D01*
M02*
